<svg width="42" height="45" viewBox="0 0 42 45" fill="none" xmlns="http://www.w3.org/2000/svg">
<g filter="url(#filter0_dd_2002_28)">
<path d="M18.0222 5.74136C18.7796 2.61958 23.2204 2.61958 23.9778 5.74136C24.0914 6.21033 24.3142 6.64585 24.6279 7.01247C24.9417 7.37908 25.3376 7.66643 25.7834 7.85113C26.2292 8.03582 26.7123 8.11265 27.1934 8.07535C27.6745 8.03805 28.14 7.88767 28.552 7.63647C31.2951 5.96536 34.4364 9.10491 32.7653 11.8498C32.5145 12.2616 32.3644 12.7268 32.3271 13.2076C32.2899 13.6884 32.3667 14.1712 32.5512 14.6167C32.7356 15.0622 33.0226 15.4579 33.3888 15.7717C33.755 16.0854 34.1901 16.3083 34.6587 16.4222C37.7804 17.1796 37.7804 21.6205 34.6587 22.3778C34.1897 22.4914 33.7542 22.7142 33.3876 23.028C33.0209 23.3417 32.7336 23.7376 32.5489 24.1834C32.3642 24.6292 32.2874 25.1123 32.3247 25.5934C32.362 26.0745 32.5124 26.54 32.7636 26.952C34.4347 29.6951 31.2951 32.8365 28.5502 31.1654C28.1384 30.9145 27.6732 30.7644 27.1924 30.7272C26.7116 30.6899 26.2289 30.7667 25.7833 30.9512C25.3378 31.1357 24.9421 31.4227 24.6284 31.7889C24.3146 32.1551 24.0917 32.5901 23.9778 33.0587C23.2204 36.1805 18.7796 36.1805 18.0222 33.0587C17.9086 32.5897 17.6858 32.1542 17.3721 31.7876C17.0583 31.421 16.6624 31.1336 16.2166 30.9489C15.7708 30.7642 15.2877 30.6874 14.8066 30.7247C14.3255 30.762 13.86 30.9124 13.448 31.1636C10.7049 32.8347 7.56356 29.6951 9.23467 26.9502C9.48551 26.5384 9.63565 26.0732 9.67286 25.5924C9.71007 25.1117 9.63332 24.6289 9.44884 24.1833C9.26436 23.7378 8.97735 23.3421 8.61115 23.0284C8.24495 22.7146 7.80989 22.4917 7.34133 22.3778C4.21956 21.6205 4.21956 17.1796 7.34133 16.4222C7.81031 16.3086 8.24583 16.0859 8.61244 15.7721C8.97906 15.4583 9.26641 15.0624 9.4511 14.6166C9.6358 14.1708 9.71262 13.6877 9.67532 13.2066C9.63802 12.7255 9.48765 12.26 9.23644 11.848C7.56533 9.10491 10.7049 5.96358 13.4498 7.63469C15.2276 8.71558 17.5316 7.75914 18.0222 5.74136Z" fill="#FFFBF1" stroke="#44797D" stroke-width="2" stroke-linecap="round" stroke-linejoin="round"/>
<path d="M15.6672 19.4C15.6672 20.8145 16.2291 22.171 17.2293 23.1712C18.2295 24.1714 19.586 24.7333 21.0005 24.7333C22.415 24.7333 23.7716 24.1714 24.7718 23.1712C25.772 22.171 26.3339 20.8145 26.3339 19.4C26.3339 17.9855 25.772 16.6289 24.7718 15.6287C23.7716 14.6286 22.415 14.0667 21.0005 14.0667C19.586 14.0667 18.2295 14.6286 17.2293 15.6287C16.2291 16.6289 15.6672 17.9855 15.6672 19.4Z" fill="#FFFBF1" stroke="#44797D" stroke-width="2.4" stroke-linecap="round" stroke-linejoin="round"/>
</g>
<defs>
<filter id="filter0_dd_2002_28" x="0" y="2.44379e-05" width="42" height="44.4" filterUnits="userSpaceOnUse" color-interpolation-filters="sRGB">
<feFlood flood-opacity="0" result="BackgroundImageFix"/>
<feColorMatrix in="SourceAlpha" type="matrix" values="0 0 0 0 0 0 0 0 0 0 0 0 0 0 0 0 0 0 127 0" result="hardAlpha"/>
<feOffset dy="4"/>
<feGaussianBlur stdDeviation="2"/>
<feComposite in2="hardAlpha" operator="out"/>
<feColorMatrix type="matrix" values="0 0 0 0 0.0846971 0 0 0 0 0.228348 0 0 0 0 0.240574 0 0 0 1 0"/>
<feBlend mode="normal" in2="BackgroundImageFix" result="effect1_dropShadow_2002_28"/>
<feColorMatrix in="SourceAlpha" type="matrix" values="0 0 0 0 0 0 0 0 0 0 0 0 0 0 0 0 0 0 127 0" result="hardAlpha"/>
<feOffset dy="-1"/>
<feGaussianBlur stdDeviation="0.7"/>
<feComposite in2="hardAlpha" operator="out"/>
<feColorMatrix type="matrix" values="0 0 0 0 0.747423 0 0 0 0 0.901137 0 0 0 0 0.912739 0 0 0 0.83 0"/>
<feBlend mode="normal" in2="effect1_dropShadow_2002_28" result="effect2_dropShadow_2002_28"/>
<feBlend mode="normal" in="SourceGraphic" in2="effect2_dropShadow_2002_28" result="shape"/>
</filter>
</defs>
</svg>
