<svg width="23" height="31" viewBox="0 0 23 31" fill="none" xmlns="http://www.w3.org/2000/svg">
<path d="M19.758 0H2.46975C1.81473 0 1.18654 0.260205 0.723373 0.723373C0.260205 1.18654 0 1.81473 0 2.46975V29.637C0.000109653 29.8574 0.0591931 30.0737 0.171119 30.2635C0.283045 30.4534 0.443736 30.6098 0.636515 30.7166C0.829295 30.8234 1.04714 30.8766 1.26744 30.8708C1.48774 30.865 1.70248 30.8003 1.88936 30.6835L11.1139 24.9182L20.3399 30.6835C20.5268 30.7999 20.7414 30.8643 20.9614 30.8699C21.1815 30.8755 21.3991 30.8222 21.5916 30.7154C21.7841 30.6087 21.9446 30.4524 22.0565 30.2628C22.1683 30.0732 22.2275 29.8571 22.2277 29.637V2.46975C22.2277 1.81473 21.9675 1.18654 21.5044 0.723373C21.0412 0.260205 20.413 0 19.758 0Z" fill="#FFFBF1"/>
</svg>
