<svg width="37" height="50" viewBox="0 0 37 50" fill="none" xmlns="http://www.w3.org/2000/svg">
<g filter="url(#filter0_dddii_2010_72)">
<path d="M26.758 8H9.46975C8.81473 8 8.18654 8.2602 7.72337 8.72337C7.2602 9.18654 7 9.81473 7 10.4697V37.637C7.00011 37.8574 7.05919 38.0737 7.17112 38.2635C7.28305 38.4534 7.44374 38.6098 7.63652 38.7166C7.82929 38.8234 8.04714 38.8766 8.26744 38.8708C8.48774 38.865 8.70248 38.8003 8.88936 38.6835L18.1139 32.9182L27.3399 38.6835C27.5268 38.7999 27.7414 38.8643 27.9614 38.8699C28.1815 38.8755 28.3991 38.8222 28.5916 38.7154C28.7841 38.6087 28.9446 38.4524 29.0565 38.2628C29.1683 38.0732 29.2275 37.8571 29.2277 37.637V10.4697C29.2277 9.81473 28.9675 9.18654 28.5044 8.72337C28.0412 8.2602 27.413 8 26.758 8Z" fill="#FFEBBA" stroke="#FFEBBA" stroke-width="6" stroke-miterlimit="6.76547"/>
</g>
<defs>
<filter id="filter0_dddii_2010_72" x="0" y="0" width="36.2278" height="49.8712" filterUnits="userSpaceOnUse" color-interpolation-filters="sRGB">
<feFlood flood-opacity="0" result="BackgroundImageFix"/>
<feColorMatrix in="SourceAlpha" type="matrix" values="0 0 0 0 0 0 0 0 0 0 0 0 0 0 0 0 0 0 127 0" result="hardAlpha"/>
<feOffset dy="4"/>
<feGaussianBlur stdDeviation="2"/>
<feComposite in2="hardAlpha" operator="out"/>
<feColorMatrix type="matrix" values="0 0 0 0 0.0862745 0 0 0 0 0.227451 0 0 0 0 0.239216 0 0 0 1 0"/>
<feBlend mode="multiply" in2="BackgroundImageFix" result="effect1_dropShadow_2010_72"/>
<feColorMatrix in="SourceAlpha" type="matrix" values="0 0 0 0 0 0 0 0 0 0 0 0 0 0 0 0 0 0 127 0" result="hardAlpha"/>
<feOffset dy="-1"/>
<feGaussianBlur stdDeviation="2"/>
<feComposite in2="hardAlpha" operator="out"/>
<feColorMatrix type="matrix" values="0 0 0 0 0.0196078 0 0 0 0 0.121569 0 0 0 0 0.113725 0 0 0 0.73 0"/>
<feBlend mode="multiply" in2="effect1_dropShadow_2010_72" result="effect2_dropShadow_2010_72"/>
<feColorMatrix in="SourceAlpha" type="matrix" values="0 0 0 0 0 0 0 0 0 0 0 0 0 0 0 0 0 0 127 0" result="hardAlpha"/>
<feOffset dy="3"/>
<feGaussianBlur stdDeviation="2"/>
<feComposite in2="hardAlpha" operator="out"/>
<feColorMatrix type="matrix" values="0 0 0 0 0.0862745 0 0 0 0 0.227451 0 0 0 0 0.239216 0 0 0 1 0"/>
<feBlend mode="multiply" in2="effect2_dropShadow_2010_72" result="effect3_dropShadow_2010_72"/>
<feBlend mode="normal" in="SourceGraphic" in2="effect3_dropShadow_2010_72" result="shape"/>
<feColorMatrix in="SourceAlpha" type="matrix" values="0 0 0 0 0 0 0 0 0 0 0 0 0 0 0 0 0 0 127 0" result="hardAlpha"/>
<feOffset dy="1"/>
<feGaussianBlur stdDeviation="2"/>
<feComposite in2="hardAlpha" operator="arithmetic" k2="-1" k3="1"/>
<feColorMatrix type="matrix" values="0 0 0 0 0.956788 0 0 0 0 0.977028 0 0 0 0 0.842098 0 0 0 1 0"/>
<feBlend mode="color-dodge" in2="shape" result="effect4_innerShadow_2010_72"/>
<feColorMatrix in="SourceAlpha" type="matrix" values="0 0 0 0 0 0 0 0 0 0 0 0 0 0 0 0 0 0 127 0" result="hardAlpha"/>
<feOffset dy="-3"/>
<feGaussianBlur stdDeviation="2"/>
<feComposite in2="hardAlpha" operator="arithmetic" k2="-1" k3="1"/>
<feColorMatrix type="matrix" values="0 0 0 0 0.956863 0 0 0 0 0.976471 0 0 0 0 0.843137 0 0 0 1 0"/>
<feBlend mode="overlay" in2="effect4_innerShadow_2010_72" result="effect5_innerShadow_2010_72"/>
</filter>
</defs>
</svg>
