<svg width="304" height="145" viewBox="0 0 304 145" fill="none" xmlns="http://www.w3.org/2000/svg">
<path d="M12.4606 35.221C14.8509 35.3217 15.6353 31.7813 14.1619 30.2072H18.5291C18.6987 30.2072 21.3699 29.3486 21.7568 29.2002C24.2637 28.2091 26.3731 26.1792 29.1185 25.7022C29.2881 28.4264 29.9294 29.9157 32.8338 30.2072C35.5633 30.4828 40.487 30.4828 41.441 27.2975C43.4126 30.4881 48.1455 31.5587 50.5782 28.3575L52.8254 29.6931L52.5657 31.2672C53.7741 31.5852 53.1328 30.3609 54.0073 30.0482C57.4894 30.5517 63.2293 30.2708 65.3864 27.0113C67.3315 24.0751 65.503 21.5947 62.2117 21.4569C59.5988 21.3509 55.857 25.6439 54.2352 27.5731C53.2229 27.7851 51.3043 26.0626 51.4951 24.9072C51.0075 24.4567 50.0906 26.7039 49.709 27.0325C47.6314 28.808 43.3013 28.0448 42.5646 24.9708C41.7219 21.4569 41.6106 16.3318 41.176 12.5847C41.123 12.1236 41.2873 11.7261 40.7732 11.4028C39.8563 12.0971 39.8351 12.855 39.8298 13.915C39.8192 16.8565 40.7679 20.2379 40.9004 23.1847C41.0117 25.628 40.9852 26.8099 38.3564 27.5254C36.9943 27.8964 31.4399 28.2568 30.7032 27.0272C30.47 26.6403 30.5813 26.1262 30.576 25.7022L31.901 25.8559L32.696 23.5875H28.8588C26.9985 23.5875 24.0358 22.0134 21.8999 21.8067C19.1969 21.547 18.2111 22.6123 17.6069 25.1722C18.7411 25.0715 19.4248 24.1387 20.6597 24.1016C22.1013 24.0592 23.6277 24.7694 25.0163 25.0397C24.163 25.6545 23.0712 26.2322 22.096 26.6191C21.2904 26.9424 18.9849 27.8222 18.2641 27.8222H12.5719C14.6071 24.9708 13.9234 17.5932 10.2346 23.4974C9.41306 24.8118 8.95196 26.3011 8.56506 27.7851C7.03866 27.748 4.59536 28.2515 3.45056 27.0113C2.36406 25.8294 2.20506 19.6072 1.94536 17.6568C1.68036 15.6534 1.36236 13.597 0.78996 11.6625C-0.87424 13.8779 0.55676 17.1374 0.88536 19.7715C1.20336 22.3102 1.08146 27.854 3.16966 29.4069C4.73316 30.5676 5.70306 29.8786 7.09696 30.2072C7.18176 30.2284 7.59516 31.1294 8.58096 30.7584C8.72936 32.6558 10.436 35.1362 12.4659 35.221H12.4606ZM64.7292 25.575C62.1905 27.536 58.8568 27.9229 55.7298 27.8222C57.9293 25.0132 61.8195 21.706 64.7292 25.575ZM12.3016 23.8525C13.298 26.0308 11.2999 26.7728 9.66216 27.5572C9.42366 27.2604 11.2999 23.1635 12.3016 23.8525ZM13.6266 32.4544C12.2327 33.6893 10.1551 32.0092 9.92186 30.4722C10.5526 30.6948 13.8333 31.4739 13.6266 32.4544Z" fill="#20261E"/>
<path d="M168.313 116.677C168.334 115.935 169.082 115.161 169.029 114.87C168.97 114.546 167.317 112.887 167.465 112.05C165.568 113.645 166.58 114.477 166.866 116.226C167.163 118.05 167.449 119.926 167.698 121.754C167.921 123.429 168.483 126.36 168.467 127.87C168.451 129.248 165.515 129.121 164.55 128.872C162.764 128.416 161.439 125.862 160.453 125.83C159.404 125.793 157.999 128.178 156.69 128.676C155.1 129.28 150.214 129.598 150.791 126.879L152.116 127.033L152.911 124.765H149.074C147.717 124.765 145.152 123.625 143.647 123.307C140.377 122.618 138.67 122.703 137.822 126.355C138.957 126.254 139.64 125.321 140.875 125.284C142.258 125.242 143.843 126.042 145.237 126.095C143.483 127.908 136.142 130.319 134.372 128.279C133.763 127.579 134.049 126.715 133.455 126.095C132.088 128.66 132.3 129.863 129.088 128.194L129.48 126.349C128.431 126.784 128.245 127.998 127.153 128.528C126.348 128.92 125.214 129.026 124.318 128.999L124.843 126.355C123.274 128.347 121.763 129.19 119.14 129.015C115.679 128.787 116.103 126.318 114.842 124.044C114.677 123.747 114.857 123.593 114.253 123.705C113.156 125.443 114.359 126.535 114.396 128.21C107.914 130.706 107.835 127.558 107.093 122.512C107.04 122.152 106.987 121.707 106.574 122.115C106.34 123.869 104.353 125.766 102.524 125.247C101.851 125.056 101.173 123.323 100.749 123.699C99.4769 126.079 100.887 126.678 101.554 128.586C102.212 130.467 102.291 131.225 100.611 132.439C97.8445 134.448 91.2725 134.972 90.7054 130.43C90.4616 128.464 91.4156 127.812 91.4845 126.482C91.511 125.957 91.4209 126.053 90.9492 126.079C87.0484 133.001 91.3043 138.508 98.9575 135.55C102.593 134.146 103.356 131.353 103.155 127.696C104.204 127.515 105.699 126.826 106.038 125.814L107.66 130.144C109.282 132.227 113.988 131.676 115.17 129.259C116.416 131.125 118.509 131.692 120.666 131.31C121.265 131.204 121.944 130.679 122.357 130.648C123.072 130.589 124.085 131.273 125.468 131.088C126.411 130.96 127.736 129.863 127.874 129.863C128.229 129.863 129.793 131.358 131.303 131.114C132.22 130.966 132.321 129.932 133.036 129.524C133.71 131.443 136.704 131.554 138.442 131.347C142.539 130.865 145.449 127.839 149.323 126.869C148.947 131.702 154.523 132.678 157.575 130.081C158.826 130.807 160.554 131.951 162.065 131.893C162.727 131.867 162.743 130.955 163.087 130.902C163.236 130.876 163.999 131.315 164.444 131.353C170.566 131.861 169.755 128.014 169.288 123.328C169.098 121.41 168.255 118.378 168.308 116.666L168.313 116.677ZM159.006 128.077C160.337 126.445 160.639 128.268 161.386 129.264C161.153 129.45 159.012 128.448 159.006 128.077Z" fill="#20261E"/>
<path d="M172.097 77.6105C173.385 75.9887 173.449 73.9429 171.36 73.0737C168 71.6692 166.288 73.6567 163.766 75.5011C164.105 73.8104 164.147 71.8017 164.041 70.058C163.962 68.8178 163.437 67.2755 163.474 66.0936C163.501 65.2509 164.099 64.5195 164.046 64.0107C164.031 63.8729 162.409 62.638 162.706 61.7264C160.495 62.6009 161.836 64.599 162.107 66.1678C162.494 68.4256 163.649 74.8227 162.562 76.5452C161.195 78.7182 159.155 79.015 157.061 77.5734C156.213 76.9904 155.291 75.2785 154.369 75.2467C153.362 75.2149 152.148 77.1918 151.311 77.7377C149.699 78.7924 146.731 78.6864 145.231 77.478C149.408 72.7398 141.331 71.012 139.258 74.6849C137.732 77.3932 139.502 76.0152 140.737 76.4021C141.14 76.5293 141.622 76.8367 141.521 77.3455C139.778 78.0875 137.027 79.1581 135.336 77.8437C133.879 76.7095 133.821 70.3124 133.545 68.2454C133.28 66.2473 132.962 64.1856 132.39 62.2511C130.725 64.4665 132.156 67.726 132.485 70.3601C132.814 73.0048 132.623 78.7818 135.077 80.2181C137.652 81.7286 141.066 80.287 143.244 78.6599C145.152 80.1863 146.912 81.2198 149.482 80.6739C150.261 80.5096 151.464 79.4708 151.671 79.5026C152.227 79.5874 155.132 82.0095 156.351 81.2039C156.605 81.0343 156.711 80.3665 157.008 80.3188C157.114 80.3029 158.089 80.7587 158.609 80.7958C161.63 81.0131 170.141 80.0803 172.102 77.6052L172.097 77.6105ZM152.916 77.4886C154.247 75.8562 154.549 77.6794 155.296 78.6758C155.063 78.8613 152.922 77.8596 152.916 77.4886ZM162.441 78.4108C164.566 75.7767 168.663 72.9359 171.445 76.2908C168.636 77.6582 165.536 78.1511 162.441 78.4108Z" fill="#20261E"/>
<path d="M267.3 22.2628C266.315 24.6743 267.565 24.9817 268.588 26.9003C268.572 27.0858 268.053 27.3773 267.841 27.4409C267.428 27.5628 266.034 27.7854 265.578 27.8225C263.882 27.9709 262.006 27.7112 260.283 27.8225C259.462 27.8225 260.792 25.57 260.882 24.9764C262.006 17.5988 253.494 22.5172 255.057 27.1759C254.909 27.9974 250.881 27.8808 250.081 27.6953C248.247 27.266 248.575 24.9128 248.104 24.9181C246.736 27.4833 246.948 28.6864 243.737 27.0169L244.129 25.1725C243.185 25.4852 242.973 26.6194 242.136 27.1494C241.256 27.7059 239.995 27.8543 238.972 27.8225L239.497 25.1725C238.14 26.7201 237.318 27.6105 235.129 27.8172C229.617 28.3313 229.872 23.8157 228.504 19.8672C228.42 19.6181 228.526 18.8973 227.985 19.0775C226.75 19.4803 228.579 24.7538 228.616 25.7873C226.936 27.1123 223.443 28.5433 221.89 26.4975C219.579 31.029 225.992 30.3082 228.123 28.485C228.658 28.0292 228.865 27.3667 229.437 27.0222C229.999 29.8577 232.734 30.5838 235.336 30.1386C235.935 30.0326 236.613 29.5079 237.027 29.4761C237.742 29.4178 238.755 30.1015 240.138 29.916C241.081 29.7888 242.406 28.6917 242.544 28.6917C242.65 28.6917 243.843 29.5238 244.383 29.6881C246.254 30.2499 246.556 29.8948 247.574 28.3525C249.095 30.87 252.619 30.3453 255.068 29.757C255.63 29.6192 256.488 28.9832 256.838 28.9832C257.172 28.9832 258.476 29.6775 259.091 29.8153C261.497 30.34 263.877 30.3771 266.299 29.8736C268.933 29.3224 270.025 28.5115 269.659 25.6018C269.521 24.51 268.482 22.496 267.3 22.2681V22.2628ZM256.239 25.2626C256.107 24.2662 258.359 23.2009 259.048 23.6249C259.112 23.6673 259.615 24.8704 259.615 25.0453C259.61 26.0629 256.536 27.4674 256.245 25.2573L256.239 25.2626Z" fill="#20261E"/>
<path d="M70.8291 78.1511C73.4367 80.3612 77.205 80.3983 76.3252 75.9463C76.1185 74.8863 75.2599 75.1884 74.7988 74.4411C78.0742 73.7309 81.5033 73.5931 84.7363 74.6054L86.1832 72.7239C84.5296 72.0243 82.8018 71.6056 81.1535 70.8583C78.0583 69.4591 74.0727 65.7226 72.1488 70.9908C74.1257 70.5403 75.9012 70.4449 77.6449 71.7063C77.8887 71.8865 78.1166 71.7169 77.9735 72.3158C76.2722 72.3582 73.0286 72.6815 71.7725 73.8899C71.4916 74.1602 71.8467 74.4464 71.7248 74.7008C70.5641 77.0434 69.9334 78.4373 66.9866 78.432C65.1952 78.432 64.3366 77.584 64.4691 75.7608C60.3457 77.8596 52.1625 80.2923 48.0709 77.4674C45.7018 75.8297 46.7035 74.5312 47.2547 72.443C47.313 72.2257 47.6893 71.4837 47.1275 71.5261C46.2636 71.5897 45.14 75.2626 45.1665 76.1318C45.3838 83.4087 59.2963 81.0343 63.2766 78.4055C64.3101 81.771 70.0023 81.6014 70.8291 78.1458V78.1511ZM74.7935 77.3508C74.4702 77.6264 72.0004 76.9904 72.1488 76.0311C73.1558 75.9251 74.6451 76.0788 74.7935 77.3508Z" fill="#20261E"/>
<path d="M88.436 27.0276C90.0101 31.7817 95.6334 30.5574 98.7604 28.077C100.138 29.0681 101.204 30.0115 102.995 30.2076C104.67 30.3931 109.318 29.9585 110.622 28.8985C112.132 27.6689 111.056 22.9625 109.35 22.2629C108.841 22.0562 108.974 22.5809 108.889 22.8459C108.099 25.2362 109.382 24.8917 110.246 26.9004C110.177 27.7908 104.463 27.9127 103.52 27.8332C102.942 27.7855 100.87 27.4463 100.748 26.8898C104.665 22.6763 98.029 20.71 95.4426 23.1745C94.8914 23.6992 93.5982 25.9146 94.7271 25.9093C95.4903 25.9093 96.8259 25.268 97.0432 26.7573C89.867 30.3719 88.7434 24.685 87.5085 19.0776C86.8884 18.431 86.687 20.7683 86.6976 21.0651C86.7877 24.0808 89.6126 25.7079 85.5422 27.0382C83.9681 27.5523 82.1396 28.0399 81.0266 26.4976C78.5939 31.7923 87.0898 30.1122 88.4413 27.0223L88.436 27.0276Z" fill="#20261E"/>
<path d="M76.7327 115.013C75.6939 114.419 74.7664 113.953 73.8018 113.375C73.3672 113.115 72.3602 112.93 72.2118 112.781C71.7613 112.336 72.1111 111.016 70.2773 111.642C69.3975 111.939 69.6731 112.532 69.4293 112.781C69.3445 112.866 67.7545 113.99 67.5743 114.106C67.2457 114.318 65.9684 114.451 65.2476 114.827C59.3911 117.896 59.1314 129.317 63.5039 133.684C64.1982 134.379 67.3676 136.228 68.3481 136.652C69.5459 137.172 70.3939 137.379 71.7295 137.198C72.8637 137.045 77.4323 134.49 78.2485 133.658C82.4832 129.36 82.3189 118.198 76.738 115.023L76.7327 115.013ZM68.4435 113.645L70.2932 114.175C69.3869 111.366 72.3072 111.451 71.3585 114.175C71.9945 113.656 72.9909 113.211 73.4732 114.175C72.3019 114.218 71.438 114.679 70.961 115.765C70.3409 114.774 69.9911 114.695 69.0265 114.249C68.6502 114.074 68.3004 114.408 68.4488 113.65L68.4435 113.645ZM65.555 115.389C67.3411 114.472 69.9116 114.207 70.2985 116.677C69.8851 117.827 68.9576 118.362 68.1785 117.217L69.2332 116.55C70.1024 115.288 64.442 115.452 64.4685 117.61C65.2582 117.519 66.191 116.921 66.8482 117.742C65.6663 118.33 64.5639 118.564 63.435 119.353C62.7089 119.862 62.2796 120.472 61.5641 120.922C62.3008 118.786 63.4403 116.47 65.555 115.384V115.389ZM61.5588 128.475L63.5887 130.547L66.8535 131.655C66.8535 132.847 65.1098 132.439 64.4738 131.92C63.7636 132.773 68.9788 135.651 69.2385 132.98L68.1785 132.317C70.961 130.796 71.067 134.67 68.1944 134.978C64.8766 135.333 62.1842 131.358 61.5641 128.475H61.5588ZM68.1785 135.757C69.0212 135.253 70.4045 135.28 70.5635 134.04H71.0829L71.6182 134.962L73.7329 135.889C71.8726 136.674 69.9381 137.023 68.1732 135.757H68.1785ZM71.3479 132.858C71.4433 131.867 72.8796 131.533 73.4732 132.322L72.4132 132.985C72.7259 135.555 78.063 132.9 77.1779 131.925L75.7363 132.471L75.0632 131.665L78.063 130.557L80.0929 128.485C79.9869 132.275 73.3672 138.301 71.3532 132.863L71.3479 132.858ZM74.2735 131.13C74.0615 132.121 74.4961 132.55 75.0579 133.239L73.7329 133.504C74.8777 131.162 72.0581 130.133 70.9504 132.185H70.5635C69.8427 130.091 66.8005 131.395 67.9082 133.504L66.5832 133.239L67.5266 131.379C59.1473 129.921 59.2374 119.544 67.6432 118.405C67.516 117.705 67.2722 116.952 66.5832 116.687L67.9082 116.29C66.8906 118.95 69.7208 119.099 71.0829 117.345C71.7507 119.571 74.9095 118.526 73.7382 116.29C76.4147 116.216 73.6057 117.355 74.3795 118.426C74.4908 118.579 77.162 119.311 77.957 119.883C82.7058 123.291 80.1194 131.003 74.2735 131.13ZM75.0579 118.145V117.355L77.1779 117.62C76.791 115.85 73.3513 114.896 72.4132 116.555C75.5137 118.055 70.5794 118.479 71.544 116.11C73.2983 111.811 80.2784 117.837 80.0876 121.06C78.8527 119.555 77.1143 118.214 75.0579 118.145Z" fill="#20261E"/>
<path d="M26.8596 69.263C26.8861 70.7258 29.2923 77.3879 28.9637 77.8596C22.8263 79.4125 23.2503 72.8564 22.5454 68.8284C22.4818 68.468 22.3493 66.7508 21.9677 66.7614C20.1127 69.21 21.7133 72.3476 21.8299 75.1036C21.9094 76.9162 21.7981 77.5522 20.0438 78.3419C17.6111 79.439 16.0635 78.5486 15.7455 75.8933C15.5441 74.2185 15.7455 71.8388 15.7455 70.0686C15.7455 69.9785 15.3957 69.6764 15.4752 69.4061C14.4046 70.2647 14.0654 71.7434 14.1131 73.0737C12.0991 73.5772 8.53218 75.994 8.60108 78.2995C8.64348 79.7411 14.0389 79.6828 14.288 77.6211C14.7809 77.8331 14.6431 80.9813 17.2613 81.5325C19.694 82.0413 21.6179 80.5414 22.3493 78.3154L22.8952 78.1511C23.4623 80.8064 28.0309 81.8717 29.6368 79.7252C32.1384 76.3809 28.1581 70.6039 28.1952 66.7614C27.2306 66.7508 26.8543 68.5104 26.8649 69.263H26.8596ZM10.7158 76.5558C10.8165 75.676 14.1131 74.3828 14.4205 74.7061C14.8498 77.1123 12.2846 76.5134 10.7158 76.5558Z" fill="#20261E"/>
<path d="M262.165 77.2769C261.116 77.1709 258.736 74.7382 258.598 73.7153C258.333 71.8232 263.23 71.6536 264.502 71.8073C265.138 71.8815 265.732 72.5228 266.5 72.3214C265.785 69.5548 261.497 68.9347 259.372 70.3551C256.764 72.0882 256.097 75.83 258.561 78.0189C257.406 78.7026 255.916 78.3687 254.628 78.3793C253.918 74.9926 251.236 73.3125 249.631 77.2928C248.443 80.2237 250.706 81.0823 253.266 80.8014C252.296 85.5078 247.675 87.3999 243.202 87.1561V87.9511C249.668 89.5252 253.409 87.6119 254.575 80.918C256.012 80.7961 257.422 80.6901 258.837 80.4145C260.554 80.0753 266.596 78.7291 267.815 78.003C268.451 77.6267 269.304 76.254 269.421 75.5067C269.161 75.2417 263.453 77.4094 262.176 77.2822L262.165 77.2769ZM250.616 78.0189C251.417 76.8688 252.18 77.42 252.731 78.4111C252.434 78.2945 250.325 78.7556 250.616 78.0189Z" fill="#20261E"/>
<path d="M129.522 36.6098C132.628 35.1364 133.524 32.4546 133.317 29.1474C136.963 29.8735 143.753 29.4654 145.464 25.5434C145.979 24.3721 146.312 23.1478 145.406 22.0825C144.701 21.2504 142.496 20.5879 141.421 20.6833C138.919 20.9112 135.506 24.9074 133.937 26.7836C132.458 26.7518 132.283 25.183 131.324 24.3827C128.838 27.1599 134.085 30.5148 131.282 33.08C129.045 35.1258 123.66 36.4455 121.657 33.5199C120.046 31.172 121.54 29.6403 121.53 27.2924C116.754 33.9439 121.874 40.235 129.522 36.6098ZM142.592 23.1743C142.889 23.2644 144.383 24.2926 144.431 24.5152C144.595 25.2519 141.601 26.2589 141.044 26.4232C139.179 26.9638 137.371 27.144 135.426 27.0274C137.202 24.9604 139.486 22.2521 142.587 23.1796L142.592 23.1743Z" fill="#20261E"/>
<path d="M230.046 78.4321L231.287 76.0312C229.469 76.1849 227.926 75.9146 226.199 75.427C224.397 74.9182 220.793 72.8035 219.266 72.8671C217.846 72.9254 215.954 74.4783 216.197 76.0312C216.865 76.0206 217.39 75.4641 218.042 75.3422C219.028 75.1567 221.821 75.9835 222.743 76.5029C223.04 76.6672 223.193 76.4817 223.082 77.0912C220.379 77.8862 217.644 78.6335 214.782 78.4321C213.881 75.3581 211.491 73.1109 209.737 77.123C208.412 80.1546 210.548 81.0821 213.282 80.8065C212.313 85.5129 207.691 87.405 203.218 87.1612V87.9562C209.684 89.5303 213.426 87.617 214.592 80.9231C220.104 81.3365 224.646 77.0806 230.046 78.4427V78.4321ZM210.632 78.0187C211.433 76.8686 212.196 77.4198 212.747 78.4109C212.45 78.2943 210.341 78.7554 210.632 78.0187Z" fill="#20261E"/>
<path d="M51.1178 137.723C49.6073 135.661 48.4413 133.335 47.7841 130.86L49.3688 130.192L47.2594 127.542C48.3671 126.752 49.9624 129.487 50.6991 128.999C50.9959 128.411 50.8263 127.351 51.1019 126.885C51.3086 126.53 52.2679 126.371 52.4375 125.581C52.623 124.717 51.4199 124.484 51.1125 123.959C50.768 123.376 50.9641 122.348 50.3016 121.85C49.6232 121.707 48.1657 124.001 47.2594 123.572C47.6092 121.844 50.5401 120.901 47.8424 119.878C48.33 117.869 48.9448 115.951 50.0631 114.191C50.4235 113.619 52.7396 111.175 52.2891 110.725C48.3989 111.822 46.2577 116.449 44.8161 119.931L41.9647 120.525C41.4453 121.288 44.0582 122.698 43.8144 123.699C42.5265 123.699 41.8269 122.38 40.7669 121.855C40.009 122.321 40.3164 123.71 40.0408 124.171C39.85 124.489 38.6681 124.6 38.7688 125.676C38.8483 126.535 39.8818 126.662 40.1203 127.065C40.3694 127.494 40.4913 129.164 40.6344 129.264C42.0336 129.248 42.4311 127.335 43.8091 127.415L41.9594 130.589L44.8638 131.257C46.6234 134.702 48.7275 138.905 52.676 140.129C53.0894 139.165 51.6478 138.449 51.1125 137.718L51.1178 137.723ZM48.3194 124.24L50.1691 123.175C49.9147 124.887 50.3069 124.622 51.4888 125.427C51.2768 125.856 50.4818 126.058 50.3016 126.355C49.6285 127.473 50.9694 128.612 48.3194 126.487L49.1356 125.697C49.1409 124.542 48.1551 125.114 48.3194 124.24ZM41.3022 127.939C40.6185 126.863 41.1485 126.079 39.585 125.692C40.5973 124.892 41.1856 124.669 40.91 123.175L42.7597 124.372V124.754C41.2916 125.088 42.0601 126.079 43.03 126.482L41.3075 127.934L41.3022 127.939ZM46.7188 126.742C45.0493 128.183 42.9399 125.697 44.4133 124.304C45.9238 122.873 48.4042 125.289 46.7188 126.742ZM43.2844 120.795L45.3673 120.758C46.3054 117.954 47.5403 115.119 49.7769 113.115C48.4042 115.474 47.2647 118.018 46.9997 120.784H47.7841C48.1445 121.155 46.8937 122.661 46.3319 122.65L45.5316 121.85L44.8638 122.645H44.3444L43.2791 120.795H43.2844ZM47.8318 135.184C47.1905 134.246 45.8443 130.886 45.5422 130.584C45.0122 130.049 44.0264 130.642 43.5494 129.927L44.3497 128.475H44.8691L45.5369 129.27L46.5916 128.475L47.7841 129.932L46.9891 130.324C47.3919 133.054 48.7434 135.37 50.0366 137.734C49.2946 136.971 48.4254 136.048 47.8318 135.174V135.184Z" fill="#20261E"/>
<path d="M204.935 124.229C203.127 126.328 203.647 128.75 200.186 129.015C196.799 129.275 197.96 128.586 196.455 126.901C196.216 126.63 196.184 126.503 195.935 126.885C194.589 128.936 196.412 130.605 196.746 132.704C197.096 134.866 196.863 135.428 194.933 136.483C192.22 137.967 186.236 138.55 185.738 134.448C185.521 132.678 186.061 131.909 186.485 130.409C186.597 130.017 186.692 129.699 186.146 129.805C182.229 135.508 185.208 141.38 192.432 139.801C196.682 138.868 198.834 135.688 197.928 131.395C200.546 131.644 202.709 130.971 203.88 128.512C206.917 130.404 210.765 130.467 209.238 125.772C208.438 123.312 206.964 121.876 204.94 124.235L204.935 124.229ZM204.813 126.222C206.042 124.394 207.611 125.613 207.717 127.415C206.715 127.144 205.502 127.097 204.813 126.222Z" fill="#20261E"/>
<path d="M192.889 35.6348C196.117 34.437 201.47 29.7624 195.809 27.812C196.922 25.2521 197.081 21.505 194.919 19.438C191.553 16.2156 188.601 25.8298 193.546 24.9076C194.357 24.7592 194.463 23.8317 195.274 23.8476C196.535 26.8474 192.873 26.4181 191.898 27.3562C191.601 27.6424 191.384 28.7289 191.039 29.1423C192.772 29.402 194.728 29.6405 196.334 30.3507C196.657 30.4938 196.98 30.3348 196.859 30.8648C193.853 34.4052 182.485 36.504 183.428 29.349C183.561 28.3314 184.16 27.494 184.366 26.5771C184.457 26.1796 184.584 25.8669 184.022 25.9676C179.114 33.9706 184.647 38.6823 192.884 35.6295L192.889 35.6348ZM192.226 22.0297C191.935 20.5033 194.177 21.2506 194.214 22.5226C193.535 22.7823 192.401 22.9466 192.226 22.0297Z" fill="#20261E"/>
<path d="M246.095 128.04C246.196 126.577 245.247 123.922 243.731 123.445C242.528 125.936 244.049 126.1 245.019 128.083C244.945 129.026 239.359 129.18 238.421 128.888C237.366 128.56 236.979 127.362 237.106 126.36C232.988 128.459 224.8 130.892 220.708 128.067C218.339 126.429 219.341 125.13 219.892 123.042C219.95 122.825 220.326 122.083 219.765 122.125C218.901 122.189 217.777 125.862 217.804 126.731C218.021 134.008 231.933 131.634 235.914 129.005C237.032 132.826 245.819 132.058 246.095 128.04Z" fill="#20261E"/>
<path d="M262.404 127.441C263.479 127.346 263.453 126.44 264.386 126.36C264.667 127.871 264.163 128.183 262.796 128.607C260.384 129.355 255.98 129.535 254.194 127.42C253.155 128.846 253.356 130.218 255.074 130.907L255.148 131.252C254.459 134.103 252.323 135.964 249.631 136.891L244.802 137.882C250.166 140.712 255.948 137.464 256.187 131.395C258.789 131.316 263.543 131.973 264.974 129.196C265.827 127.537 265.546 125.115 264.789 123.45C261.63 116.529 256.976 127.939 262.409 127.447L262.404 127.441ZM261.46 124.908C261.041 124.717 261.391 123.816 261.508 123.742C262.828 122.92 264.693 125.671 261.46 124.908Z" fill="#20261E"/>
<path d="M156.95 16.2205C157.576 16.406 159.876 19.427 160.427 20.169C160.941 20.858 163.247 24.0963 163.395 24.6369C163.639 25.5114 161.566 27.9653 160.835 28.4635C160.496 28.6967 159.674 28.7762 159.574 28.9246C159.314 29.3115 159.075 30.8485 159.934 31.0022C160.464 31.0976 164.715 30.6259 165.176 30.4192C167.089 29.5659 164.948 25.5326 164.948 24.5097C164.948 23.7359 165.934 21.1919 166.119 19.9729C166.395 18.1391 166.13 15.4308 166.474 13.968C166.601 13.438 167.216 13.0193 167.216 12.59C167.216 12.325 165.891 10.1467 165.759 9.54779L164.397 11.53C165.78 15.1711 165.001 19.3316 164.301 23.0522L157.957 14.4397L154.597 11.4293C153.542 11.2756 153.463 14.5775 153.961 15.2612C154.724 16.3212 156.245 16.0085 156.966 16.2258L156.95 16.2205ZM164.826 28.3522L162.441 28.6172L164.163 26.2375C164.301 26.1792 165.033 28.0289 164.826 28.3522Z" fill="#20261E"/>
<path d="M282.528 16.6711C283.153 17.0527 284.722 19.0508 285.294 19.7451C285.84 20.4129 288.596 24.0699 288.697 24.5681C288.882 25.4585 286.821 27.9442 286.073 28.4583C285.734 28.6915 284.913 28.771 284.812 28.9194C284.552 29.3063 284.314 30.8433 285.167 30.997C285.697 31.0924 289.948 30.6207 290.409 30.414C290.933 30.1808 291.379 28.2887 291.363 27.711C291.331 26.4814 290.244 25.2518 290.334 24.0063C290.409 23.0046 291.161 21.2238 291.347 19.9677C291.622 18.1339 291.357 15.4256 291.702 13.9628C291.829 13.4328 292.439 13.0141 292.444 12.5848C292.444 12.3198 291.119 10.1415 290.986 9.5426L289.624 11.5248C291.008 15.1659 290.228 19.3264 289.529 23.047L284.637 16.422C283.921 15.8761 279.681 10.9365 278.939 11.6573C278.51 13.9893 278.229 15.6959 280.922 16.4485C281.536 16.6181 281.95 16.316 282.517 16.6658L282.528 16.6711ZM290.334 28.3523L287.69 28.6173L289.28 25.9726C289.587 25.7659 290.536 28.1721 290.334 28.3523Z" fill="#20261E"/>
<path d="M202.896 73.0419C199.827 65.7438 194.93 77.3454 200.442 76.8472C201.518 76.7518 201.491 75.8455 202.424 75.766C202.424 76.137 202.482 76.5398 202.371 76.9055C201.867 78.5591 195.407 79.0308 194.098 77.6051C193.011 76.4232 192.852 70.201 192.592 68.2506C192.327 66.2472 192.009 64.1908 191.437 62.2563C189.773 64.4664 191.204 67.7259 191.532 70.3653C192.216 75.8084 190.949 81.3204 198.327 80.8063C203.097 80.4724 204.74 77.4409 202.89 73.0419H202.896ZM199.504 74.3138L199.684 73.1531C201.957 72.9411 201.857 75.0399 199.504 74.3138Z" fill="#20261E"/>
<path d="M115.133 80.7535C111.497 83.006 105.063 82.9742 105.847 77.2873C105.948 76.54 107.247 74.3246 106.049 74.4359C103.197 79.7359 104.485 85.2002 111.471 84.4953C119.071 83.7321 119.251 75.2786 115.181 70.4662C113.527 72.6233 115.552 74.314 116.182 76.3439C116.871 78.5699 117.211 79.4603 115.138 80.7482L115.133 80.7535Z" fill="#20261E"/>
<path d="M302.657 23.8369C299.811 20.3283 296.785 28.8666 300.569 29.068C301.603 29.121 301.921 28.22 302.779 28.0875C302.281 31.6491 298.439 35.6665 294.903 36.2336C294.358 36.3237 291.914 36.1223 291.925 36.6947C294.363 38.2105 297.845 37.9773 300.103 36.1435C302.896 33.8698 305.122 26.8844 302.652 23.8369H302.657ZM299.87 26.1L300.829 25.1937L301.979 26.1C301.311 26.8791 300.543 26.8844 299.87 26.1Z" fill="#20261E"/>
<path d="M209.906 36.2336C209.36 36.3237 206.917 36.1223 206.928 36.6947C209.366 38.2105 212.848 37.9773 215.106 36.1435C217.899 33.8698 220.125 26.8844 217.655 23.8369C214.809 20.3283 211.783 28.8666 215.567 29.068C216.6 29.121 216.918 28.22 217.777 28.0875C217.279 31.6491 213.436 35.6665 209.901 36.2336H209.906ZM214.872 26.1L215.832 25.1937L216.982 26.1C216.314 26.8791 215.546 26.8844 214.872 26.1Z" fill="#20261E"/>
<path d="M179.029 79.6566C180.063 79.7096 180.381 78.8086 181.239 78.6761C180.741 82.2377 176.898 86.2551 173.363 86.8222C172.817 86.9123 170.374 86.7109 170.385 87.2833C172.823 88.7991 176.305 88.5659 178.563 86.7321C181.356 84.4584 183.582 77.473 181.112 74.4255C178.266 70.9169 175.24 79.4552 179.024 79.6566H179.029ZM178.335 76.6939L179.294 75.7876L180.444 76.6939C179.776 77.473 179.008 77.4783 178.335 76.6939Z" fill="#20261E"/>
<path d="M292.093 79.6566C293.127 79.7096 293.445 78.8086 294.303 78.6761C293.805 82.2377 289.962 86.2551 286.427 86.8222C285.881 86.9123 283.438 86.7109 283.449 87.2833C285.887 88.7991 289.369 88.5659 291.627 86.7321C294.42 84.4584 296.646 77.473 294.176 74.4255C291.33 70.9169 288.304 79.4552 292.088 79.6566H292.093ZM291.399 76.6939L292.358 75.7876L293.508 76.6939C292.84 77.473 292.072 77.4783 291.399 76.6939Z" fill="#20261E"/>
<path d="M274.18 70.2012C273.756 72.8671 274.7 72.2205 276.02 73.2646C277.244 74.2345 278.617 75.7768 278.834 77.3668C276.746 78.5964 274.096 78.6812 271.801 78.1512C271.78 79.1476 270.99 80.5097 272.469 80.7959C274.059 81.098 278.855 80.5945 279.539 78.8826C280.864 75.5807 277.864 70.2383 274.18 70.2118V70.2012Z" fill="#20261E"/>
<path d="M92.8038 74.4412C92.7508 75.1249 92.2048 76.1955 92.385 76.8368C92.6076 77.6477 94.4997 79.3066 94.5951 80.4408C94.6587 81.2093 92.8938 83.5307 92.279 84.1137C91.1342 85.1896 88.6379 86.6471 87.085 86.8644C86.4861 86.9492 84.064 86.6683 84.0693 87.2831C86.0356 88.6558 90.1908 88.5657 92.1359 87.1506C95.9625 84.3681 97.0279 77.3774 92.8038 74.4412Z" fill="#20261E"/>
<path d="M151.85 24.5049C151.601 27.7273 153.578 28.0029 153.7 29.8261C153.748 30.5681 153.006 31.5221 152.592 32.1422C150.467 35.3593 146.858 36.4723 143.111 36.2974C142.225 37.0659 146.603 37.6012 146.953 37.6171C149.836 37.7549 151.103 37.2514 152.751 34.9512C155.475 31.1511 155.454 27.3351 152.242 23.853C151.644 23.7417 151.882 24.1127 151.85 24.5102V24.5049Z" fill="#20261E"/>
<path d="M241.988 80.7802C246.303 80.6053 246.138 73.0528 241.236 73.1482C240.155 74.9767 238.194 80.9339 241.988 80.7802ZM241.098 75.777C242.921 75.4643 245.518 78.0878 242.476 78.3634C240.891 78.5065 240.563 77.0119 241.098 75.777Z" fill="#20261E"/>
<path d="M206.86 12.2671C206.41 12.9826 206.097 14.1274 206.113 14.9754C206.182 19.6182 208.037 25.0295 207.989 29.8101L208.514 30.2023C210.114 24.2928 207.385 17.9487 207.459 11.9279C206.85 11.8007 207.035 11.9968 206.865 12.2671H206.86Z" fill="#20261E"/>
<path d="M284.24 80.4035C284.282 80.7745 284.393 81.172 284.764 80.7957C286.121 75.8985 284.733 70.5508 284.24 65.5635C284.139 64.5194 284.658 62.8446 283.71 62.2563C283.429 63.311 282.782 64.0954 282.745 65.2561C282.65 68.1022 283.651 72.6073 283.969 75.6335C284.128 77.1334 284.054 78.9408 284.234 80.4035H284.24Z" fill="#20261E"/>
<path d="M171.975 14.9698C171.874 13.9257 172.393 12.2509 171.445 11.6626C171.164 12.7173 170.517 13.5017 170.48 14.6624C170.385 17.5085 171.386 22.0135 171.704 25.0398C171.863 26.5397 171.789 28.347 171.969 29.8098C172.012 30.1808 172.123 30.5783 172.494 30.202C173.851 25.3048 172.462 19.9571 171.969 14.9698H171.975Z" fill="#20261E"/>
<path d="M173.83 112.85C173.549 113.905 172.902 114.689 172.865 115.85C172.77 118.696 173.772 123.201 174.09 126.227C174.249 127.727 174.174 129.535 174.355 130.997C174.397 131.368 174.508 131.766 174.879 131.39C176.236 126.492 174.847 121.145 174.355 116.157C174.254 115.113 174.773 113.438 173.825 112.85H173.83Z" fill="#20261E"/>
<path d="M34.8167 62.2563C34.5358 63.311 33.8892 64.0954 33.8521 65.2561C33.7567 68.1022 34.7584 72.6073 35.0764 75.6335C35.2354 77.1334 35.1612 78.9408 35.3414 80.4035C35.3838 80.7745 35.4951 81.172 35.8661 80.7957C37.2229 75.8985 35.8343 70.5508 35.3414 65.5635C35.2407 64.5194 35.7601 62.8446 34.8114 62.2563H34.8167Z" fill="#20261E"/>
<path d="M122.323 79.4656C123.15 79.455 123.034 75.0083 122.996 74.2928C122.779 70.2807 121.412 66.3057 121.661 62.2512C120.474 62.389 120.299 64.3659 120.32 65.2987C120.405 68.855 121.512 73.2911 121.926 76.9534C122.021 77.7855 121.608 78.8455 122.323 79.4603V79.4656Z" fill="#20261E"/>
<path d="M70.2945 26.3649C70.3899 27.197 69.9765 28.257 70.692 28.8718C71.5188 28.8612 71.4022 24.4145 71.3651 23.699C71.1478 19.6869 69.7804 15.7119 70.0295 11.6574C68.8423 11.7952 68.6674 13.7721 68.6886 14.7049C68.7734 18.2612 69.8811 22.6973 70.2945 26.3596V26.3649Z" fill="#20261E"/>
<path d="M130.279 50.3472C127.565 53.8664 130.236 57.4015 134.561 56.2249C134.725 56.1825 136.427 55.4776 135.96 55.1066H131.858C131.778 55.1066 130.671 54.4547 130.528 54.3169C129.176 53.0555 130.178 51.3542 131.54 50.5486C132.838 49.7801 134.985 50.1564 134.905 48.4869C133.13 48.9639 129.759 47.1407 129.086 49.4197C128.832 50.2836 130.803 49.2766 131.201 49.5522C131.142 49.9762 130.618 49.9179 130.284 50.3525L130.279 50.3472Z" fill="#20261E"/>
<path d="M173.915 109.379C173.369 109.549 172.723 108.944 172.24 109.252C171.726 110.1 171.101 111.006 171.186 112.05C172.723 109.882 172.876 111.419 174.726 111.245C176.65 111.064 179.363 108.414 177.678 106.75C176.099 105.187 174.546 109.183 173.92 109.379H173.915ZM174.885 109.665C175.214 108.536 176.883 107.105 177.265 108.87L174.885 109.665Z" fill="#20261E"/>
<path d="M284.61 60.6559C286.534 60.4757 289.247 57.8257 287.562 56.1615C285.982 54.598 284.429 58.5942 283.799 58.7903C283.253 58.9599 282.606 58.3557 282.124 58.6631C281.61 59.5111 280.985 60.4174 281.069 61.4615C282.606 59.2938 282.76 60.8308 284.61 60.6559ZM287.154 58.2762L284.774 59.0712C285.103 57.9423 286.772 56.5113 287.154 58.2762Z" fill="#20261E"/>
<path d="M38.6576 56.1564C37.0782 54.5929 35.5253 58.5891 34.8999 58.7852C34.354 58.9548 33.7074 58.3506 33.2251 58.658C32.711 59.506 32.0856 60.4123 32.1704 61.4564C33.7074 59.2887 33.8611 60.8257 35.7108 60.6508C37.6347 60.4706 40.3483 57.8206 38.6629 56.1564H38.6576ZM35.8698 59.0767C36.1984 57.9478 37.8679 56.5168 38.2495 58.2817L35.8698 59.0767Z" fill="#20261E"/>
<path d="M172.341 10.0621C174.265 9.88195 176.979 7.23195 175.293 5.56775C173.714 4.00425 172.161 8.00045 171.53 8.19655C170.984 8.36615 170.338 7.76195 169.855 8.06935C169.341 8.91735 168.716 9.82365 168.801 10.8677C170.338 8.70005 170.491 10.237 172.341 10.0621ZM174.885 7.68775L172.505 8.48275C172.834 7.35385 174.504 5.92285 174.885 7.68775Z" fill="#20261E"/>
<path d="M152.895 9.19826C152.651 9.59046 152.63 10.147 152.646 10.6028C154.257 9.72296 156.054 9.12406 157.898 8.97036L158.206 7.68776C156.531 7.72486 155.397 8.42446 154.241 6.76026C154.883 5.90166 155.752 6.51646 156.224 7.15246C156.838 6.77086 156.987 5.60486 156.552 5.10666C155.524 3.91946 153.097 6.02356 152.964 7.24786C154.268 9.07636 153.367 8.42976 152.895 9.19296V9.19826Z" fill="#20261E"/>
<path d="M226.438 16.2207C227.424 15.5794 228.023 14.1378 229.162 14.848C229.57 13.4594 228.553 12.1503 228.86 10.5126C226.703 8.93318 224.27 13.1361 227.307 14.1802C226.411 15.1925 225.171 15.7543 224.106 16.544C223.809 16.7666 223.449 16.544 223.608 17.2277C223.989 17.5245 225.998 16.5069 226.438 16.2207ZM227.053 12.0602V11.668H228.107V12.7227H227.715L227.053 12.0602Z" fill="#20261E"/>
<path d="M265.625 13.5707C266.611 12.9294 267.21 11.4878 268.349 12.198C268.757 10.8094 267.74 9.50025 268.047 7.86255C265.89 6.28315 263.457 10.4861 266.494 11.5302C265.598 12.5425 264.358 13.1043 263.293 13.894C262.996 14.1166 262.636 13.894 262.795 14.5777C263.176 14.8745 265.185 13.8569 265.625 13.5707ZM266.24 9.41015V9.01795H267.294V10.0727H266.902L266.24 9.41015Z" fill="#20261E"/>
<path d="M257.999 66.0778C257.702 66.3004 257.342 66.0778 257.501 66.7615C257.882 67.0583 259.891 66.0407 260.331 65.7545C261.317 65.1132 261.916 63.6716 263.055 64.3818C263.463 62.9932 262.446 61.6841 262.753 60.0464C260.596 58.467 258.163 62.6699 261.2 63.714C260.305 64.7263 259.064 65.2881 257.999 66.0778ZM260.946 61.5887V61.1965H262.001V62.2512H261.608L260.946 61.5887Z" fill="#20261E"/>
<path d="M239.199 67.9276C238.902 68.1502 238.542 67.9276 238.701 68.6113C239.082 68.9081 241.091 67.8905 241.531 67.6043C242.517 66.963 243.115 65.5214 244.255 66.2316C244.663 64.843 243.645 63.5339 243.953 61.8962C241.796 60.3168 239.363 64.5197 242.4 65.5638C241.504 66.5761 240.264 67.1379 239.199 67.9276ZM242.146 63.4438V63.0516H243.2V64.1063H242.808L242.146 63.4438Z" fill="#20261E"/>
<path d="M156.589 118.786C156.293 119.009 155.932 118.786 156.091 119.47C156.473 119.767 158.481 118.749 158.921 118.463C159.907 117.822 160.506 116.38 161.646 117.09C162.054 115.702 161.036 114.393 161.343 112.755C159.186 111.176 156.754 115.378 159.791 116.423C158.895 117.435 157.655 117.997 156.589 118.786ZM159.531 114.303V113.91H160.586V114.965H160.193L159.531 114.303Z" fill="#20261E"/>
<path d="M147.266 13.2366C148.109 12.7172 150.34 13.1307 149.731 13.7773C149.196 13.8674 146.084 15.1288 146.821 15.8973C148.242 15.9556 152.985 14.1323 151.803 12.2297C151.724 12.1025 149.381 11.1591 149.037 11.1379C147.452 11.0319 146.318 12.5583 146.556 14.0422C146.97 13.9999 146.98 13.4115 147.266 13.2313V13.2366Z" fill="#20261E"/>
<path d="M67.9146 35.5022C68.0895 35.6665 70.8349 34.4635 71.3437 34.3045C72.1811 34.0395 73.6121 34.4157 73.628 33.1437C73.6386 32.2692 72.9284 32.8946 72.2977 32.8734C71.1635 32.8416 69.8014 33.0695 69.7696 31.5325C70.554 31.4848 71.3065 31.3788 71.3648 32.3275C71.598 32.513 72.8542 31.0555 71.7253 30.2181C70.8137 29.545 68.593 31.1138 68.4605 32.195L69.2396 33.9069C68.4817 33.997 67.9463 34.7549 67.9198 35.5022H67.9146Z" fill="#20261E"/>
<path d="M122.976 84.8931C123.813 84.6281 125.244 85.0044 125.26 83.7324C125.271 82.8579 124.561 83.4833 123.93 83.4621C122.796 83.4303 121.434 83.6582 121.402 82.1212C122.186 82.0735 122.939 81.9675 122.997 82.9162C123.23 83.1017 124.487 81.6442 123.358 80.8068C122.446 80.1337 120.225 81.7025 120.093 82.7837L120.872 84.4956C120.114 84.5857 119.579 85.3436 119.552 86.0909C119.727 86.2552 122.473 85.0521 122.981 84.8931H122.976Z" fill="#20261E"/>
<path d="M164.559 108.345C165.365 108.255 165.593 107.55 166.536 107.545C166.743 107.545 168.529 107.789 167.999 108.345C167.151 108.308 163.351 110.608 165.677 110.407C167.119 110.285 170.527 108.653 170.092 106.787C167.395 105.732 165.423 104.614 164.559 108.351V108.345Z" fill="#20261E"/>
<path d="M98.0989 14.3075C97.2509 14.2704 93.4508 16.5706 95.7775 16.3692C97.2191 16.2473 100.627 14.6149 100.192 12.7493C97.4947 11.6946 95.5231 10.5763 94.6592 14.3128C95.4648 14.2227 95.6927 13.5178 96.6361 13.5125C96.8428 13.5125 98.6289 13.7563 98.0989 14.3128V14.3075Z" fill="#20261E"/>
<path d="M165.355 5.56769C164.507 5.53059 160.707 7.83079 163.033 7.62939C164.475 7.50749 167.883 5.87509 167.448 4.00949C164.751 2.95479 162.779 1.83649 161.915 5.57299C162.721 5.48289 162.949 4.77799 163.892 4.77269C164.099 4.77269 165.885 5.01649 165.355 5.57299V5.56769Z" fill="#20261E"/>
<path d="M57.0549 14.3075C56.2069 14.2704 52.4068 16.5706 54.7335 16.3692C56.1751 16.2473 59.583 14.6149 59.1484 12.7493C56.4507 11.6946 54.4791 10.5763 53.6152 14.3128C54.4208 14.2227 54.6487 13.5178 55.5921 13.5125C55.7988 13.5125 57.5849 13.7563 57.0549 14.3128V14.3075Z" fill="#20261E"/>
<path d="M79.033 60.9263C78.185 60.8892 74.3849 63.1894 76.7116 62.988C78.1532 62.8661 81.5611 61.2337 81.1265 59.3681C78.4288 58.3134 76.4572 57.1951 75.5933 60.9316C76.3989 60.8415 76.6268 60.1366 77.5702 60.1313C77.7769 60.1313 79.563 60.3751 79.033 60.9316V60.9263Z" fill="#20261E"/>
<path d="M275.239 63.3113C274.391 63.2742 270.59 65.5744 272.917 65.373C274.359 65.2511 277.767 63.6187 277.332 61.7531C274.634 60.6984 272.663 59.5801 271.799 63.3166C272.604 63.2265 272.832 62.5216 273.776 62.5163C273.982 62.5163 275.769 62.7601 275.239 63.3166V63.3113Z" fill="#20261E"/>
<path d="M208.046 68.818C209.488 68.6961 212.896 67.0637 212.461 65.1981C209.763 64.1434 207.792 63.0251 206.928 66.7616C207.733 66.6715 207.961 65.9666 208.905 65.9613C209.111 65.9613 210.897 66.2051 210.367 66.7616C209.519 66.7245 205.719 69.0247 208.046 68.8233V68.818Z" fill="#20261E"/>
<path d="M141.585 117.552C143.027 117.43 146.435 115.797 146 113.932C143.302 112.877 141.331 111.759 140.467 115.495C141.272 115.405 141.5 114.7 142.444 114.695C142.65 114.695 144.436 114.939 143.906 115.495C143.058 115.458 139.258 117.758 141.585 117.557V117.552Z" fill="#20261E"/>
<path d="M257.765 11.3976C256.917 11.3605 253.117 13.6607 255.444 13.4593C256.886 13.3374 260.293 11.705 259.859 9.83945C257.161 8.78475 255.19 7.66645 254.326 11.4029C255.131 11.3128 255.359 10.6079 256.303 10.6026C256.509 10.6026 258.295 10.8464 257.765 11.4029V11.3976Z" fill="#20261E"/>
<path d="M206.286 10.3378C206.785 10.3855 207.839 10.0675 208.173 9.73355C209.08 8.82725 209 6.03945 207.866 5.28685C205.544 3.74455 203.048 10.0357 206.286 10.3378ZM206.308 6.93515C206.657 6.81855 207.14 6.83445 207.458 7.02525C208.375 7.99515 207.908 8.55165 206.721 8.70005C204.993 8.91735 205.603 7.16835 206.302 6.93515H206.308Z" fill="#20261E"/>
<path d="M106.415 135.609L104.342 134.549L103.176 136.292L105.508 138.01L106.314 136.42L108.264 137.734L109.462 135.81L107.724 134.321L106.415 135.609Z" fill="#20261E"/>
<path d="M55.3316 72.3055L57.1547 73.3655L58.2572 71.5211L56.3916 69.9523L55.4322 71.2243L53.238 70.2067L52.0562 72.1518L53.784 73.6252L55.3316 72.3055Z" fill="#20261E"/>
<path d="M266.595 17.4607L264.815 16.4537L263.627 17.9483L263.707 18.5525L265.329 19.8669L266.898 18.5419L268.864 19.5966L269.897 17.8847L267.571 16.1728L266.595 17.4607Z" fill="#20261E"/>
<path d="M261.831 116.534L260.045 115.516L258.942 117.355L260.813 118.913L262.133 117.355L263.855 118.558L265.127 116.952L262.806 115.235L261.831 116.534Z" fill="#20261E"/>
<path d="M229.945 116.671C230.751 116.163 230.836 115.134 232.076 115.76C231.837 114.769 232.007 113.094 231.763 112.235C231.079 109.84 226.723 114.239 230.226 115.097L226.521 117.875C227.698 117.991 228.97 117.286 229.945 116.671ZM229.966 113.242L230.364 112.845C230.984 112.866 231.101 113.375 231.021 113.9H230.629L229.966 113.237V113.242Z" fill="#20261E"/>
<path d="M227.316 111.647C226.15 110.943 224.751 112.835 224.794 113.937L225.986 115.098L222.546 117.875C225.477 117.838 229.261 114.748 227.316 111.642V111.647ZM226.755 112.872L227.046 113.905H226.654L225.991 113.243V112.851L226.755 112.877V112.872Z" fill="#20261E"/>
<path d="M112.928 60.4015C112.61 61.17 112.954 62.3042 112 62.5268C110.755 62.8183 111.688 61.0269 110.543 61.1965C110.93 63.2953 107.665 64.4083 108.688 61.7318C107.951 60.9898 106.409 65.1503 109.34 64.6468C110.039 64.5249 110.378 63.6663 110.67 63.6504C111.163 63.6239 111.608 64.668 112.801 63.5868C113.951 62.5374 113.394 60.0517 112.928 60.4068V60.4015Z" fill="#20261E"/>
<path d="M202.423 114.97C201.686 114.228 200.144 118.389 203.075 117.885C203.775 117.764 204.114 116.905 204.405 116.889C204.898 116.863 205.343 117.907 206.536 116.825C207.686 115.776 207.13 113.29 206.663 113.645C206.345 114.414 206.69 115.548 205.736 115.771C204.49 116.062 205.423 114.271 204.278 114.44C204.665 116.539 201.4 117.652 202.423 114.976V114.97Z" fill="#20261E"/>
<path d="M20.1028 65.9666C20.8024 65.8447 21.1416 64.9861 21.4331 64.9702C21.926 64.9437 22.3712 65.9878 23.5637 64.9066C24.7138 63.8572 24.1573 61.3715 23.6909 61.7266C23.3729 62.4951 23.7174 63.6293 22.7634 63.8519C21.5179 64.1434 22.4507 62.352 21.3059 62.5216C21.6928 64.6204 18.428 65.7334 19.4509 63.0569C18.7142 62.3149 17.1719 66.4754 20.1028 65.9719V65.9666Z" fill="#20261E"/>
<path d="M243.291 133.531L242.014 134.782L240.296 133.77L239.533 135.847C240.811 136.557 241.791 137.411 242.151 135.354L244.261 136.414L245.061 134.708L243.296 133.526L243.291 133.531Z" fill="#20261E"/>
<path d="M89.0925 12.7225C88.8752 12.5105 83.6918 14.8955 83.4586 15.0916C83.1512 15.346 82.5417 16.7505 82.7431 16.9572C84.9055 15.8283 88.4459 15.4838 89.0978 12.7225H89.0925Z" fill="#20261E"/>
<path d="M13.8923 13.5175C13.675 13.3055 8.49161 15.6905 8.25841 15.8866C7.95101 16.141 7.34151 17.5455 7.54291 17.7522C9.70531 16.6233 13.2457 16.2788 13.8976 13.5175H13.8923Z" fill="#20261E"/>
<path d="M110.808 13.5175C110.591 13.3055 105.407 15.6905 105.174 15.8866C104.867 16.141 104.257 17.5455 104.458 17.7522C106.621 16.6233 110.161 16.2788 110.813 13.5175H110.808Z" fill="#20261E"/>
<path d="M302.778 14.0474C302.56 13.8354 297.377 16.2204 297.144 16.4165C296.836 16.6709 296.227 18.0754 296.428 18.2821C298.591 17.1532 302.131 16.8087 302.783 14.0474H302.778Z" fill="#20261E"/>
<path d="M43.8147 7.16317C43.5974 6.95117 38.414 9.33617 38.1808 9.53227C37.8734 9.78667 37.2639 11.1912 37.4653 11.3979C39.6277 10.269 43.1681 9.92447 43.82 7.16317H43.8147Z" fill="#20261E"/>
<path d="M292.979 4.24819C292.761 4.03619 287.578 6.42119 287.345 6.61729C287.037 6.87169 286.428 8.27619 286.629 8.48289C288.792 7.35399 292.332 7.00949 292.984 4.24819H292.979Z" fill="#20261E"/>
<path d="M188.579 117.864C188.271 118.118 187.662 119.523 187.863 119.73C190.026 118.601 193.566 118.256 194.218 115.495C194.001 115.283 188.817 117.668 188.584 117.864H188.579Z" fill="#20261E"/>
<path d="M158.736 0.0133249C158.518 -0.198675 153.335 2.18632 153.102 2.38242C152.794 2.63682 152.185 4.04132 152.386 4.24802C154.549 3.11912 158.089 2.77462 158.741 0.0133249H158.736Z" fill="#20261E"/>
<path d="M93.7828 116.28C93.4754 116.534 92.8659 117.939 93.0673 118.145C95.2297 117.016 98.7701 116.672 99.422 113.911C99.2047 113.699 94.0213 116.084 93.7881 116.28H93.7828Z" fill="#20261E"/>
<path d="M73.2048 60.4018C72.9875 60.1898 67.8041 62.5748 67.5709 62.7709C67.2635 63.0253 66.654 64.4298 66.8554 64.6365C69.0178 63.5076 72.5582 63.1631 73.2101 60.4018H73.2048Z" fill="#20261E"/>
<path d="M218.764 64.0959C218.456 64.3503 217.847 65.7548 218.048 65.9615C220.211 64.8326 223.751 64.4881 224.403 61.7268C224.186 61.5148 219.002 63.8998 218.769 64.0959H218.764Z" fill="#20261E"/>
<path d="M57.8493 64.1118C57.632 63.8998 52.4486 66.2848 52.2154 66.4809C51.908 66.7353 51.2985 68.1398 51.4999 68.3465C53.6623 67.2176 57.2027 66.8731 57.8546 64.1118H57.8493Z" fill="#20261E"/>
<path d="M165.621 68.3465C167.783 67.2176 171.323 66.8731 171.975 64.1118C171.758 63.8998 166.575 66.2848 166.341 66.4809C166.034 66.7353 165.425 68.1398 165.626 68.3465H165.621Z" fill="#20261E"/>
<path d="M88.3027 68.8764C90.4651 67.7475 94.0056 67.403 94.6575 64.6417C94.4402 64.4297 89.2567 66.8147 89.0235 67.0108C88.7161 67.2652 88.1066 68.6697 88.308 68.8764H88.3027Z" fill="#20261E"/>
<path d="M174.889 68.8764C177.052 67.7475 180.592 67.403 181.244 64.6417C181.027 64.4297 175.843 66.8147 175.61 67.0108C175.303 67.2652 174.693 68.6697 174.894 68.8764H174.889Z" fill="#20261E"/>
<path d="M287.684 68.8764C289.846 67.7475 293.387 67.403 294.039 64.6417C293.821 64.4297 288.638 66.8147 288.405 67.0108C288.097 67.2652 287.488 68.6697 287.689 68.8764H287.684Z" fill="#20261E"/>
<path d="M259.01 112.04C258.703 112.294 258.093 113.699 258.295 113.905C260.457 112.776 263.998 112.432 264.65 109.671C264.432 109.459 259.249 111.844 259.016 112.04H259.01Z" fill="#20261E"/>
<path d="M36.7934 22.2574C36.7669 22.7132 36.4701 22.9305 37.0637 23.3121C37.5725 23.2856 38.2562 20.2964 38.2509 19.7399C38.2509 19.088 37.3446 16.2207 36.8888 15.9504C36.2369 15.5635 35.6963 16.5758 35.6963 17.0952C35.6963 17.3602 36.7298 18.9608 36.8623 19.8035C37.016 20.784 36.8411 21.367 36.7881 22.2574H36.7934Z" fill="#20261E"/>
<path d="M107.367 60.4017C108.549 59.6173 111.824 58.7799 112.741 58.0379C113.022 57.81 113.562 56.2783 113.451 56.167C113.244 55.9603 108.363 58.3029 108.082 58.5361C107.775 58.7852 107.181 60.1738 107.367 60.4017Z" fill="#20261E"/>
<path d="M24.2207 57.492C24.014 57.2853 19.1327 59.6279 18.8518 59.8611C18.5444 60.1102 17.9508 61.4988 18.1363 61.7267C19.3182 60.9423 22.5936 60.1049 23.5105 59.3629C23.7914 59.135 24.332 57.6033 24.2207 57.492Z" fill="#20261E"/>
<path d="M150.261 68.8761C150.457 69.0828 155.1 66.6872 155.386 66.4593C155.714 66.1996 156.562 64.8534 156.345 64.6414C154.326 65.6484 150.367 66.1519 150.255 68.8761H150.261Z" fill="#20261E"/>
<path d="M139.677 63.1945L138.612 64.9011L144.272 62.4896L145.232 60.6664L139.677 63.1945Z" fill="#20261E"/>
<path d="M138.612 67.5511C140.642 66.5229 143.197 65.9452 144.76 64.3022L144.961 63.3164C144.209 63.645 137.345 66.2155 138.612 67.5511Z" fill="#20261E"/>
<path d="M248.496 144.099C249.169 144.126 256.122 142.064 254.85 140.925C252.741 141.486 249.201 141.736 248.496 144.099Z" fill="#20261E"/>
<path d="M74.2634 35.5023C72.154 36.0641 68.6136 36.3132 67.9087 38.677C68.5818 38.7035 75.5354 36.6418 74.2634 35.5023Z" fill="#20261E"/>
<path d="M110.542 137.745C111.216 137.771 118.169 135.709 116.897 134.57C114.788 135.132 111.247 135.381 110.542 137.745Z" fill="#20261E"/>
<path d="M8.60254 86.3557C9.27564 86.3822 16.2292 84.3205 14.9572 83.181C12.8478 83.7428 9.30744 83.9919 8.60254 86.3557Z" fill="#20261E"/>
<path d="M123.517 137.214C124.19 137.241 131.144 135.179 129.872 134.04C127.762 134.602 124.222 134.851 123.517 137.214Z" fill="#20261E"/>
<path d="M201.098 136.685C201.771 136.711 208.724 134.649 207.452 133.51C205.343 134.072 201.803 134.321 201.098 136.685Z" fill="#20261E"/>
<path d="M135.167 35.5021C135.84 35.5286 142.793 33.4669 141.521 32.3274C139.412 32.8892 135.871 33.1383 135.167 35.5021Z" fill="#20261E"/>
<path d="M238.171 36.0321C238.844 36.0586 245.798 33.9969 244.526 32.8574C242.416 33.4192 238.876 33.6683 238.171 36.0321Z" fill="#20261E"/>
<path d="M27.3952 33.3875C25.2858 33.9493 21.7454 34.1983 21.0405 36.5621C21.7136 36.5886 28.6672 34.527 27.3952 33.3875Z" fill="#20261E"/>
<path d="M197.128 38.6823C195.019 39.2441 191.478 39.4932 190.773 41.857C191.447 41.8835 198.4 39.8218 197.128 38.6823Z" fill="#20261E"/>
<path d="M197.923 63.0513C199.242 62.41 202.539 61.9436 203.567 61.2175C203.906 60.979 204.018 60.2476 204.277 59.8766C203.975 59.6487 197.419 61.3341 197.923 63.0513Z" fill="#20261E"/>
<path d="M194.218 61.1963C195.538 60.555 198.835 60.0886 199.863 59.3625C200.202 59.124 200.313 58.3926 200.573 58.0216C200.271 57.7937 193.72 59.4791 194.218 61.1963Z" fill="#20261E"/>
<path d="M125.451 87.1719C125.742 86.9705 125.933 86.4564 125.896 86.096L120.665 87.3468C120.039 87.6383 119.859 88.4386 119.546 89.0057C119.79 89.1965 125.133 87.3945 125.451 87.1719Z" fill="#20261E"/>
<path d="M114.082 120.779L115.291 119.11L113.107 117.636L111.888 119.306L114.082 120.779Z" fill="#20261E"/>
<path d="M113.129 68.4787L111.205 66.8251C110.797 67.0265 109.493 68.4522 109.774 68.8497L111.74 70.1376L113.129 68.4787Z" fill="#20261E"/>
<path d="M109.202 34.0713L107.273 32.6085L105.847 34.3151L107.766 36.0217C108.158 35.6507 109.335 34.6066 109.202 34.0766V34.0713Z" fill="#20261E"/>
<path d="M220.184 68.9715L222.156 70.6675L223.544 69.0086L221.62 67.355L220.184 68.9715Z" fill="#20261E"/>
<path d="M136.761 15.9026L135.711 17.853L137.646 19.3264C139.766 17.7947 138.69 16.6923 136.761 15.9026Z" fill="#20261E"/>
<path d="M194.192 14.7581L192.258 13.2635L191.055 15.2033L193.016 16.6979L194.192 14.7581Z" fill="#20261E"/>
<path d="M191.6 122.947L190.508 124.627L192.713 126.068L193.922 124.409C193.619 123.901 192.13 122.639 191.6 122.947Z" fill="#20261E"/>
<path d="M96.5506 120.037L95.7397 121.664C96.1531 122.141 96.9693 123.328 97.653 123.148L98.8614 121.489C98.5328 120.943 97.1919 119.666 96.5506 120.032V120.037Z" fill="#20261E"/>
<path d="M226.962 134.326L225.753 135.985C226.061 136.494 227.534 137.755 228.075 137.442L228.88 135.81C228.467 135.333 227.651 134.146 226.967 134.326H226.962Z" fill="#20261E"/>
<path d="M201.359 65.9718L199.414 64.6574C197.5 66.0195 198.105 67.2332 200.124 67.795L201.359 65.9718Z" fill="#20261E"/>
<path d="M258.126 18.5369L259.34 16.8568L257.4 15.3887C255.392 16.5759 256.319 17.9804 258.126 18.5316V18.5369Z" fill="#20261E"/>
<path d="M132.276 52.287L133.183 53.2463C133.527 52.9813 134.084 52.4195 133.808 51.9637C133.771 51.9001 133.077 51.6616 132.918 51.4602L132.282 52.287H132.276Z" fill="#20261E"/>
<path d="M67.4485 122.454C65.9751 123.869 66.2507 128.273 69.3141 127.362C72.0012 126.561 69.6321 120.366 67.4485 122.454ZM67.4114 125.125C67.1994 124.383 67.6075 123.938 68.3124 123.8L69.754 124.918C69.6109 126.01 67.7082 126.026 67.4114 125.125Z" fill="#20261E"/>
<path d="M74.9322 121.855C74.3863 120.715 72.3458 122.199 71.36 121.06C70.7028 123.318 72.3829 123.774 74.2697 123.18C74.2538 124.367 74.3545 125.75 74.6619 126.895C74.7308 127.15 75.2979 129.27 75.8597 128.74C76.4268 127.388 75.6318 126.556 75.4092 125.353C75.2608 124.532 75.1283 122.263 74.9322 121.855Z" fill="#20261E"/>
</svg>
