<svg width="295" height="294" viewBox="0 0 295 294" fill="none" xmlns="http://www.w3.org/2000/svg">
<path d="M147.849 18.9164C148.405 18.8634 149.015 17.867 149.55 16.9395L149.789 16.5314H149.561C147.345 16.5155 145.363 15.429 143.445 14.3796C142.337 13.7754 141.293 13.203 140.206 12.8214C138.738 12.3126 137.578 12.302 136.756 12.8055C136.025 13.2507 135.569 14.0934 135.399 15.3124L135.367 15.5403L135.579 15.4502C137.371 14.7082 138.383 14.8937 139.973 15.5827C140.546 15.8265 140.959 16.0809 141.139 16.2876C140.747 16.3512 140.323 16.4095 139.878 16.4731C138.33 16.6851 136.576 16.9236 135.367 17.6391C134.403 18.2115 133.931 19.0754 133.47 19.9181C132.818 21.1159 132.198 22.2448 130.221 22.5098C128.414 22.7536 128.006 22.0699 127.338 20.9357C127.174 20.6601 126.988 20.3474 126.771 20.0294L126.67 19.881L126.559 20.0188C125.271 21.6088 125.865 23.0928 126.495 24.6722C126.909 25.7057 127.333 26.771 127.216 27.9052C127.105 28.9917 125.605 29.9457 124.359 30.428C121.704 31.4615 119.038 31.3555 117.57 30.1524C116.478 29.2567 116.07 27.778 116.399 25.8753C116.404 25.8329 116.478 25.6527 116.552 25.4778C117.024 24.3224 117.231 23.6546 116.987 23.4267C116.886 23.3313 116.738 23.3313 116.547 23.4267L116.515 23.4426L116.494 23.4691C114.443 26.453 114.215 29.6224 115.895 31.7424C116.992 33.1257 118.688 33.8359 120.671 33.8359C121.852 33.8359 123.135 33.5815 124.455 33.0621C127.624 31.8166 129.082 29.1083 128.79 25.0167C130.889 25.2658 132.41 24.5344 133.555 22.7218C134.387 23.7977 135.919 24.3542 137.207 24.0309C138.272 23.7606 138.924 22.955 139.046 21.7572C139.183 20.3739 138.643 19.9287 137.959 19.3616C137.795 19.2291 137.62 19.0807 137.434 18.9058C138.309 18.8687 139.247 18.6779 140.159 18.4977C141.15 18.3016 142.173 18.0949 143.074 18.0949C143.704 18.0949 144.685 18.3228 145.628 18.5454C146.545 18.7574 147.409 18.9641 147.854 18.9217L147.849 18.9164ZM137.154 21.5664C136.221 21.6141 134.885 21.3597 134.625 20.4799C135.452 20.4004 136.502 20.5488 137.154 21.5664Z" fill="#20261E"/>
<path d="M77.8711 23.7024C80.1872 22.8438 82.3814 22.0276 84.989 22.8862L85.095 22.9233L86.4942 20.2097L86.2557 20.2309C84.5756 20.3687 83.0015 20.1726 81.0087 19.5737C80.2826 19.3564 79.4664 18.9907 78.6025 18.5985C76.5991 17.6922 74.3307 16.6693 72.7672 17.4749C71.9033 17.9201 71.3415 18.8582 71.05 20.3369L71.0182 20.4959H71.1825C71.5853 20.4853 71.9298 20.2998 72.2637 20.1249C72.5287 19.9871 72.7778 19.8546 73.0481 19.8016C73.9809 19.6267 76.721 20.4164 77.6591 20.9464C77.7492 20.9994 77.834 21.0206 77.8923 21.0365C77.9188 21.0418 77.9559 21.0524 77.9612 21.0577C77.9665 21.0683 77.9824 21.116 77.9506 21.3121C77.6803 21.381 77.3782 21.4658 77.0443 21.5612C74.5162 22.2608 70.2868 23.4374 68.4795 22.0276C67.8806 21.5612 67.5891 20.8245 67.6103 19.8387V19.6479L67.4354 19.7062C66.863 19.9023 66.5768 20.3528 66.2694 20.8298C66.0097 21.2326 65.7394 21.6566 65.2783 21.9587C63.6512 23.0134 60.5772 22.8862 58.8335 21.6937C58.5261 21.4817 58.2823 21.2167 58.0544 20.957C57.5191 20.3634 57.0156 19.8016 55.8708 20.1673C54.0635 20.7503 51.3234 23.395 51.0001 25.303C50.6715 27.2269 51.2492 29.9246 51.811 32.5375C52.2297 34.4985 52.6272 36.3535 52.6537 37.8481L52.6696 37.9064C52.7968 38.1396 52.9505 38.182 53.0512 38.182C53.0671 38.182 53.0777 38.182 53.0936 38.182C53.295 38.1608 53.4805 37.9647 53.5441 37.705C53.9893 35.9984 53.454 33.3643 52.9399 30.815C52.6007 29.1508 52.2827 27.582 52.2615 26.3842L53.6554 24.5345C55.5581 25.6581 57.2064 26.1404 58.8388 26.0662H58.9236L59.3688 25.0168C63.0629 25.7005 65.4214 25.1281 66.5609 23.2731C68.4053 26.2411 72.6718 25.2076 74.9879 24.6511C75.9843 24.4073 76.9542 24.0522 77.887 23.7024H77.8711ZM55.1235 22.3085C55.2719 22.1495 55.4945 22.0647 55.7542 22.0647C55.9291 22.0647 56.1252 22.1018 56.3266 22.176C56.8354 22.3668 57.3654 22.8014 57.5032 23.3155C57.3601 23.2678 57.1587 23.2148 56.8831 23.1459C56.2789 22.9869 55.1553 22.6954 55.0705 22.4198C55.0705 22.4092 55.0546 22.3721 55.1182 22.3085H55.1235Z" fill="#20261E"/>
<path d="M197.346 11.0934V10.9609H197.213H197.202C196.948 10.9609 196.715 11.0669 196.508 11.2736C195.973 11.8142 195.734 12.9802 195.745 13.595C195.756 14.3211 196.328 16.245 196.879 18.1053C197.356 19.7112 197.944 21.6987 197.886 22.075C196.36 22.4513 195.188 22.3347 194.303 21.7252C192.613 20.5645 192.279 17.7237 191.982 15.2221C191.892 14.4801 191.812 13.7805 191.701 13.1339C191.691 13.0703 191.68 12.9696 191.659 12.8371C191.505 11.6181 191.351 10.9556 190.996 10.9556H190.922L190.885 11.0086C189.544 12.7735 189.957 14.8882 190.355 16.9287C190.519 17.7661 190.689 18.63 190.721 19.4356C190.795 21.1793 190.737 21.7729 189.014 22.552C187.848 23.0767 186.905 23.1456 186.2 22.7481C185.495 22.3506 185.055 21.4973 184.896 20.2094C184.758 19.0858 184.806 17.6548 184.853 16.2715C184.875 15.6037 184.896 14.9783 184.896 14.4006C184.896 14.3264 184.853 14.2681 184.785 14.1727C184.705 14.0614 184.583 13.8971 184.62 13.7752L184.742 13.3671L184.408 13.6321C183.475 14.3847 182.961 15.715 182.993 17.2997C180.953 17.8615 177.412 20.2359 177.486 22.6262C177.508 23.3735 178.626 23.6915 179.66 23.7392C181.244 23.8134 182.977 23.3099 183.364 22.2552C183.422 22.4036 183.481 22.6103 183.534 22.7905C183.831 23.8346 184.329 25.5783 186.253 25.9811C186.571 26.05 186.889 26.0818 187.196 26.0818C189.115 26.0818 190.763 24.8257 191.468 22.7428L191.812 22.6421C192.146 23.8611 193.349 24.8628 194.929 25.2073C196.529 25.5571 197.992 25.1437 198.755 24.1261C200.367 21.9743 199.381 18.9003 198.427 15.927C197.86 14.1621 197.33 12.4979 197.34 11.0881L197.346 11.0934ZM183.11 20.3207C182.649 20.8507 181.578 20.8083 180.629 20.7712C180.386 20.7606 180.147 20.75 179.925 20.75C180.084 20.4691 180.587 20.1034 181.302 19.7536C182.235 19.2978 183.11 19.0699 183.327 19.1229C183.412 19.6635 183.343 20.0557 183.11 20.3207Z" fill="#20261E"/>
<path d="M241.965 24.3857L242.002 24.3645L242.023 24.3274C244.186 19.7376 240.264 14.9994 239.013 13.6532L238.986 13.6214L238.944 13.6108C238.743 13.5684 238.605 13.5737 238.509 13.6426C238.387 13.7221 238.361 13.8599 238.34 13.9977C238.324 14.0719 238.313 14.1514 238.281 14.2256C237.751 15.5824 237.497 16.4675 238.838 17.5646C238.992 17.6865 239.145 17.6759 239.278 17.6653C239.4 17.66 239.453 17.6547 239.495 17.7024C239.999 18.2218 241.52 21.6191 241.355 22.0855C240.523 22.1915 238.382 21.8788 238.16 21.1951C238.107 21.0361 238.122 20.8453 238.133 20.6651C238.149 20.4107 238.17 20.1669 238.006 20.0291C237.889 19.9284 237.709 19.9072 237.439 19.9655L237.354 19.9867L237.338 20.0715C237.19 20.8188 236.898 21.8841 236.082 22.4989C235.637 22.6844 234.036 22.1067 233.761 21.6827C234.158 20.1563 234.089 19.9867 233.93 19.9072C233.734 19.8118 233.527 20.0556 233.119 20.5485C232.87 20.8453 232.595 21.1898 232.319 21.4283C231.365 22.2657 230.077 22.7109 228.858 22.6208C228.858 22.2604 228.985 21.9318 229.118 21.582C229.245 21.2428 229.377 20.8877 229.393 20.5008C229.404 20.2623 229.393 19.9761 229.192 19.9072C228.938 19.8224 228.641 20.2093 228.275 20.7287C228.211 20.8188 228.143 20.9142 228.127 20.9354C226.643 22.2922 224.104 23.3999 221.814 22.059C221.502 21.8735 221.115 21.4495 220.744 21.0414C220.283 20.5326 219.89 20.098 219.567 20.0079C218.369 19.6793 215.205 22.4194 214.58 23.331C213.075 25.5252 214.023 29.9295 214.861 33.8144C215.216 35.4521 215.544 36.9944 215.624 38.1127L215.64 38.33L215.825 38.2187C216.567 37.7735 216.483 36.4432 216.424 35.5634L216.408 35.3196C216.345 34.1112 216.037 32.6537 215.735 31.2545C215.38 29.5956 215.02 27.8784 215.067 26.5958C215.094 25.9651 215.491 25.027 216.027 24.6772C216.26 24.5235 216.498 24.497 216.742 24.5924C217.124 24.7408 217.505 24.9581 217.908 25.1807C218.979 25.7796 220.193 26.4633 221.639 25.9333L221.703 25.9121L221.942 25.0217C222.116 25.0482 222.291 25.08 222.456 25.1065C223.07 25.2125 223.648 25.3132 224.353 25.2602C224.888 25.2231 225.471 25.0005 225.985 24.7991C226.383 24.6454 226.759 24.497 226.998 24.4917H227.019C227.289 24.4917 227.554 24.5871 227.862 24.6984C228.339 24.868 228.879 25.0641 229.632 24.9793C230.316 24.9051 231.296 24.3274 231.884 23.9829C232.049 23.8875 232.224 23.7868 232.292 23.755C232.367 23.7921 232.557 23.9087 232.722 24.0094C233.151 24.2744 233.745 24.6295 234.094 24.7408C235.112 25.0482 235.785 25.0588 236.283 24.7779C236.729 24.5235 237.047 24.0306 237.269 23.2356C238.599 24.1737 240.248 25.3344 241.954 24.3963L241.965 24.3857ZM217.601 22.4777C217.601 22.4777 217.611 22.4035 217.702 22.3081C217.855 22.1491 218.083 22.0643 218.343 22.0643C218.523 22.0643 218.719 22.1014 218.926 22.1809C219.435 22.377 219.959 22.8222 220.087 23.3363C219.864 23.2568 219.641 23.1879 219.424 23.119C219.027 22.9971 218.618 22.8646 218.232 22.695C218.184 22.6738 218.115 22.6579 218.03 22.642C217.919 22.6208 217.622 22.5572 217.596 22.4777H217.601Z" fill="#20261E"/>
<path d="M162.63 17.0719C162.556 16.3246 162.408 15.5508 162.254 14.7293C161.846 12.5881 161.422 10.3727 162.355 8.68204L162.392 8.61314L160.574 5.58154L160.452 5.70874C159.122 7.11324 159.344 7.83934 159.652 8.84104C159.752 9.17494 159.869 9.55124 159.943 9.99644C160.59 13.9608 161.056 18.063 161.48 21.9214C161.231 22.3772 160.505 22.6528 159.477 22.6793C157.834 22.727 155.645 22.0804 155.099 21.0946L154.998 20.9144L154.876 21.084C154.299 21.879 154.097 22.6528 154.288 23.3206C154.463 23.9248 154.967 24.4177 155.746 24.7463L155.799 24.9901C155.163 27.5606 153.239 29.5163 150.387 30.4968L145.193 31.5621L145.522 31.737C146.852 32.4419 148.241 32.7917 149.592 32.7917C150.944 32.7917 152.168 32.4631 153.308 31.8006C155.571 30.4968 156.943 28.1171 157.092 25.2604C157.389 25.2498 157.728 25.2604 158.094 25.2604C159.35 25.2869 160.913 25.3187 161.74 24.6244C163.319 23.3047 162.943 19.9551 162.694 17.7397C162.667 17.4959 162.641 17.2733 162.62 17.0719H162.63Z" fill="#20261E"/>
<path d="M99.613 17.0719C99.5388 16.3246 99.3904 15.5508 99.2367 14.7293C98.8286 12.5881 98.4099 10.3727 99.3374 8.68204L99.3745 8.61314L97.5566 5.58154L97.4347 5.70874C96.1044 7.11324 96.327 7.83934 96.6397 8.84104C96.7404 9.17494 96.857 9.55124 96.9312 9.99644C97.5831 13.9714 98.0442 18.0524 98.4629 21.8949C97.6467 22.6157 96.6238 22.7376 95.903 22.7005C94.5621 22.6369 93.1629 22.0009 92.3361 21.0734L92.2248 20.9515L92.1294 21.084C91.5517 21.879 91.3503 22.6528 91.5411 23.3206C91.716 23.9248 92.2195 24.4177 92.9986 24.7463L93.0516 24.9901C92.4156 27.5606 90.4917 29.5163 87.6403 30.4968L82.4463 31.5621L82.7749 31.737C84.1052 32.4419 85.4938 32.7917 86.8453 32.7917C88.1968 32.7917 89.4211 32.4631 90.5606 31.8006C92.8237 30.4968 94.1964 28.1171 94.3448 25.2604C94.5939 25.2604 94.8748 25.2604 95.1663 25.2604C96.3906 25.2816 97.9064 25.3081 98.7279 24.6191C100.307 23.2994 99.931 19.9498 99.6819 17.7344C99.6554 17.4906 99.6289 17.268 99.6077 17.0666L99.613 17.0719Z" fill="#20261E"/>
<path d="M204.236 9.88501C204.204 9.58821 204.23 9.23841 204.251 8.86211C204.31 7.96111 204.379 6.93291 203.642 6.47711L203.488 6.38171L203.441 6.55661C203.335 6.95411 203.176 7.31981 203.017 7.66961C202.762 8.24731 202.497 8.84621 202.471 9.58291C202.407 11.4432 202.805 13.9554 203.186 16.3828C203.393 17.6866 203.584 18.9162 203.695 19.9762C203.769 20.6864 203.796 21.4867 203.817 22.2552C203.843 23.1032 203.87 23.9777 203.96 24.7515C203.992 25.0112 204.055 25.3239 204.267 25.3928C204.299 25.4034 204.331 25.4087 204.357 25.4087C204.522 25.4087 204.66 25.2709 204.713 25.2179L204.739 25.1914L204.75 25.1596C205.788 21.4125 205.227 17.4057 204.686 13.5261C204.516 12.323 204.347 11.0775 204.23 9.87971L204.236 9.88501Z" fill="#20261E"/>
<path d="M167.432 9.88501C167.4 9.58821 167.427 9.23841 167.448 8.86211C167.506 7.96111 167.575 6.93291 166.838 6.47711L166.685 6.38171L166.637 6.55661C166.531 6.95411 166.372 7.31981 166.213 7.66961C165.958 8.24731 165.693 8.84621 165.667 9.58291C165.603 11.4432 166.001 13.9554 166.382 16.3828C166.589 17.6866 166.78 18.9162 166.891 19.9762C166.965 20.6864 166.992 21.4867 167.013 22.2552C167.04 23.1032 167.066 23.9777 167.156 24.7515C167.188 25.0112 167.252 25.3239 167.464 25.3928C167.495 25.4034 167.527 25.4087 167.554 25.4087C167.718 25.4087 167.856 25.2709 167.909 25.2179L167.935 25.1914L167.946 25.1596C168.985 21.4125 168.423 17.4057 167.882 13.5261C167.713 12.323 167.543 11.0775 167.427 9.87971L167.432 9.88501Z" fill="#20261E"/>
<path d="M104.409 9.8849C104.383 9.5881 104.404 9.2383 104.425 8.8673C104.484 7.961 104.552 6.9381 103.816 6.4823L103.662 6.3869L103.614 6.5618C103.508 6.9593 103.349 7.3197 103.19 7.6748C102.936 8.2525 102.671 8.8514 102.644 9.5881C102.581 11.4484 102.978 13.9606 103.36 16.388C103.567 17.6918 103.757 18.9214 103.869 19.9814C103.943 20.6916 103.969 21.4919 103.991 22.2604C104.017 23.1084 104.044 23.9829 104.134 24.7514C104.166 25.0111 104.229 25.3238 104.441 25.3927C104.473 25.4033 104.505 25.4086 104.531 25.4086C104.696 25.4086 104.833 25.2708 104.886 25.2178L104.913 25.1913L104.923 25.1595C105.962 21.4124 105.4 17.4056 104.86 13.526C104.69 12.3229 104.521 11.0827 104.404 9.8849H104.409Z" fill="#20261E"/>
<path d="M169.742 0.00592138C168.889 0.0907214 168.141 1.19842 167.543 2.08882C167.267 2.49692 166.96 2.95272 166.811 3.00042C166.599 3.06932 166.35 2.98982 166.096 2.90502C165.762 2.79902 165.417 2.68772 165.105 2.88912L164.93 3.14882C164.453 3.92792 163.907 4.80772 163.986 5.80942L164.013 6.17512L164.225 5.87832C165.158 4.55862 165.507 4.68052 166.149 4.90312C166.52 5.03032 166.981 5.19462 167.67 5.12572C169.027 4.99852 170.68 3.71592 171.136 2.43332C171.412 1.65952 171.263 0.959921 170.701 0.403421C170.405 0.106621 170.087 -0.0311786 169.737 0.00592138H169.742ZM170.049 2.52872L168.046 3.19652C168.332 2.57642 168.974 1.91922 169.477 1.91922C169.482 1.91922 169.493 1.91922 169.498 1.91922C169.758 1.92982 169.943 2.13122 170.049 2.52872Z" fill="#20261E"/>
<path d="M206.551 0.00592138C205.697 0.0907214 204.95 1.19842 204.351 2.08882C204.076 2.49692 203.768 2.95272 203.62 3.00042C203.408 3.06932 203.159 2.98982 202.904 2.90502C202.57 2.79902 202.226 2.68772 201.913 2.88912L201.738 3.14882C201.261 3.92792 200.715 4.80772 200.795 5.80942L200.821 6.17512L201.033 5.87832C201.966 4.55862 202.316 4.68052 202.957 4.90312C203.328 5.03032 203.789 5.19462 204.478 5.12572C205.835 4.99852 207.489 3.71592 207.945 2.43332C208.22 1.65952 208.072 0.959921 207.51 0.403421C207.213 0.106621 206.895 -0.0311786 206.545 0.00592138H206.551ZM206.853 2.52872L204.849 3.19652C205.136 2.57642 205.777 1.91922 206.28 1.91922C206.286 1.91922 206.296 1.91922 206.302 1.91922C206.561 1.92982 206.747 2.13122 206.853 2.52872Z" fill="#20261E"/>
<path d="M106.727 0.00592138C105.873 0.0907214 105.126 1.19842 104.527 2.08882C104.251 2.49692 103.944 2.95272 103.796 3.00042C103.578 3.06932 103.335 2.98982 103.08 2.90502C102.746 2.79902 102.402 2.68772 102.089 2.88912L101.909 3.15412C101.432 3.93322 100.891 4.81302 100.971 5.80942L100.997 6.17512L101.209 5.87832C102.142 4.55862 102.497 4.68052 103.133 4.90312C103.504 5.03032 103.965 5.19462 104.654 5.12572C106.011 4.99852 107.665 3.71592 108.12 2.43332C108.396 1.65952 108.248 0.959921 107.686 0.403421C107.389 0.106621 107.066 -0.0311786 106.721 0.00592138H106.727ZM107.034 2.52872L105.031 3.19652C105.317 2.57642 105.958 1.91922 106.462 1.91922C106.467 1.91922 106.477 1.91922 106.483 1.91922C106.742 1.92982 106.928 2.13122 107.034 2.52872Z" fill="#20261E"/>
<path d="M142.681 8.27416C141.928 8.60276 139.612 9.77406 139.713 10.3677C139.75 10.5956 140.031 10.6486 140.338 10.6486C140.434 10.6486 140.529 10.6433 140.624 10.638C142.342 10.5055 145.257 9.09036 145.347 7.72296C145.394 6.95446 144.599 6.39266 142.978 6.05346C141.875 5.82026 141.091 5.89446 140.518 6.29196C139.925 6.70006 139.559 7.46326 139.363 8.69286L139.305 9.07446L139.586 8.80946C140.439 8.01446 141.674 7.48446 142.681 8.27416Z" fill="#20261E"/>
<path d="M230.395 12.8953C231.232 12.4077 231.895 12.0261 232.801 12.8476C232.674 12.996 232.08 13.2557 231.677 13.4359C230.803 13.8228 229.897 14.2203 229.801 14.7079C229.78 14.8192 229.791 14.9835 229.955 15.1531L229.997 15.1955H230.061C232.165 15.063 235.319 13.9977 235.366 11.6074V11.5226L235.297 11.4855C233.225 10.4096 231.799 10.1446 230.808 10.6587C230.056 11.0456 229.579 11.8989 229.393 13.1868L229.361 13.42L229.579 13.3246C229.87 13.1974 230.14 13.0437 230.4 12.89L230.395 12.8953Z" fill="#20261E"/>
<path d="M66.3775 28.6577L64.3953 27.3221L63.1074 29.4845L65.0154 31.101L66.3351 29.8078L68.4074 30.8413L69.6635 29.0976L67.5912 27.0518L66.3775 28.6577Z" fill="#20261E"/>
<path d="M188.367 7.62195L188.308 7.56365C188.155 7.40995 187.953 7.39405 187.752 7.52125C187.275 7.83395 186.782 9.10595 187.121 9.96985C187.27 10.3408 187.609 10.7436 188.393 10.7436C188.541 10.7436 188.701 10.7277 188.881 10.7012C189.342 10.6217 189.66 10.2613 189.888 9.99635C189.999 9.86915 190.131 9.71545 190.195 9.71015C190.301 9.69955 190.428 9.77905 190.571 9.86915C190.964 10.1076 191.499 10.4362 192.405 9.61475C193.418 8.69255 193.2 6.80045 192.797 6.31285C192.644 6.12735 192.474 6.14855 192.368 6.23335L192.342 6.25455L192.326 6.28635C192.214 6.56195 192.177 6.86935 192.146 7.17145C192.077 7.81275 192.008 8.21025 191.488 8.33215C191.303 8.37455 191.165 8.36925 191.08 8.31095C190.953 8.22615 190.916 8.01415 190.879 7.78625C190.815 7.40995 190.73 6.89055 190.047 6.99125L189.909 7.01245L189.935 7.14495C190.089 7.96645 189.628 8.63955 189.109 8.93635C188.791 9.12185 188.473 9.14835 188.303 8.99995C188.08 8.80915 188.091 8.33745 188.335 7.69615L188.367 7.61665V7.62195Z" fill="#20261E"/>
<path d="M88.5459 11.0618L88.4876 11.0035C88.3339 10.8498 88.1325 10.8339 87.9364 10.9611C87.4594 11.2738 86.9665 12.5458 87.3057 13.4097C87.4541 13.7807 87.7933 14.1835 88.5777 14.1835C88.7261 14.1835 88.8851 14.1676 89.0653 14.1411C89.5264 14.0616 89.8444 13.7012 90.0723 13.4362C90.1836 13.309 90.3161 13.1553 90.385 13.15C90.491 13.1394 90.6182 13.2189 90.7613 13.309C91.1535 13.5475 91.6888 13.8761 92.5951 13.0546C93.6074 12.1324 93.3901 10.2403 92.9873 9.75273C92.8336 9.56723 92.664 9.58843 92.558 9.67323L92.5315 9.69443L92.5156 9.72623C92.399 10.0018 92.3672 10.3092 92.3354 10.6113C92.2665 11.2526 92.1976 11.6501 91.6782 11.772C91.4927 11.8144 91.3549 11.8091 91.2701 11.7508C91.1429 11.666 91.1058 11.454 91.0687 11.2261C91.0051 10.8498 90.915 10.3304 90.2366 10.4311L90.0988 10.4523L90.1253 10.5848C90.279 11.4063 89.8232 12.0794 89.3038 12.3762C88.9858 12.5617 88.6678 12.5882 88.4982 12.4398C88.2756 12.249 88.2862 11.7773 88.53 11.136L88.5618 11.0565L88.5459 11.0618Z" fill="#20261E"/>
<path d="M151.563 11.0618L151.505 11.0035C151.351 10.8498 151.149 10.8339 150.948 10.9611C150.471 11.2738 149.978 12.5458 150.317 13.4097C150.466 13.7807 150.805 14.1835 151.589 14.1835C151.738 14.1835 151.897 14.1676 152.077 14.1411C152.538 14.0616 152.856 13.7012 153.084 13.4362C153.195 13.309 153.328 13.1553 153.391 13.15C153.492 13.1288 153.625 13.2189 153.768 13.309C154.16 13.5475 154.695 13.8761 155.601 13.0546C156.614 12.1324 156.396 10.2403 155.994 9.75273C155.84 9.56723 155.67 9.58843 155.564 9.67323L155.538 9.69443L155.522 9.72623C155.411 10.0018 155.374 10.3092 155.342 10.6113C155.273 11.2526 155.204 11.6501 154.685 11.772C154.499 11.8144 154.361 11.8091 154.276 11.7508C154.149 11.666 154.112 11.454 154.075 11.2261C154.011 10.8498 153.927 10.3304 153.243 10.4311L153.105 10.4523L153.132 10.5848C153.285 11.4063 152.824 12.0794 152.305 12.3762C151.987 12.5617 151.669 12.5882 151.499 12.4398C151.277 12.249 151.287 11.7773 151.531 11.136L151.563 11.0565V11.0618Z" fill="#20261E"/>
<path d="M128.725 33.5074C128.333 33.1258 122.264 35.7281 122.217 35.7652C121.909 36.0037 121.098 37.5354 121.384 37.917L121.464 38.023L121.57 37.9435C122.137 37.5248 123.414 37.1008 124.649 36.6874C126.313 36.1309 127.887 35.6062 128.333 34.9861C128.417 34.8642 128.942 33.7141 128.73 33.5074H128.725Z" fill="#20261E"/>
<path d="M130.988 9.91706L137.189 7.88186L138.408 5.94206L138.18 5.93146C138.18 5.93146 138.17 5.93146 138.159 5.93146C137.343 5.93146 131.386 7.85006 130.797 9.21216C130.691 9.45596 130.739 9.67856 130.93 9.86406L130.988 9.91706Z" fill="#20261E"/>
<path d="M186.867 6.50362L186.968 6.43472C187.524 6.06372 188.579 5.67682 189.602 5.29522C190.762 4.86592 191.859 4.45782 192.352 4.06032C192.649 3.81652 193.11 2.51802 193.126 2.17352C193.126 2.12052 193.126 2.04632 193.073 1.99332C192.988 1.90852 192.866 1.79192 190.269 2.98442C189.114 3.51442 187.699 4.21402 187.529 4.35182C187.222 4.60092 186.533 6.07432 186.793 6.40292L186.867 6.49832V6.50362Z" fill="#20261E"/>
<path d="M150.059 9.94863L150.16 9.87973C150.716 9.50873 151.771 9.12183 152.794 8.74023C153.955 8.31093 155.052 7.90283 155.545 7.50533C155.841 7.26153 156.302 5.96303 156.318 5.61853C156.318 5.56553 156.318 5.49133 156.265 5.43833C156.181 5.35353 156.059 5.23693 153.462 6.42943C152.306 6.95943 150.891 7.65903 150.722 7.79683C150.414 8.04593 149.72 9.51933 149.985 9.84793L150.059 9.94333V9.94863Z" fill="#20261E"/>
<path d="M87.0405 9.94863L87.1412 9.87973C87.6977 9.50873 88.7524 9.12183 89.7753 8.74023C90.936 8.31093 92.0331 7.90283 92.526 7.50533C92.8228 7.26153 93.2839 5.96303 93.2998 5.61853C93.2998 5.56553 93.2998 5.49133 93.2468 5.43833C93.162 5.35353 93.0401 5.23693 90.4431 6.42943C89.2877 6.95943 87.8726 7.65903 87.703 7.79683C87.3956 8.04593 86.7013 9.51933 86.9663 9.84793L87.0405 9.94333V9.94863Z" fill="#20261E"/>
<path d="M131.165 16.5417C131.165 16.5841 131.138 16.7802 131.106 16.971C130.9 18.3543 130.847 19.1334 131.165 19.2924C131.207 19.3136 131.244 19.3242 131.286 19.3242C131.445 19.3242 131.589 19.1864 131.642 19.1334L131.673 19.0857C132.288 17.5699 132.627 16.6318 132.41 14.9835C132.352 14.5224 131.716 12.1215 130.804 11.7134C130.587 11.618 130.364 11.6392 130.158 11.777C129.622 12.1427 130.083 13.3352 130.571 14.6019C130.857 15.3386 131.149 16.0965 131.165 16.5417Z" fill="#20261E"/>
<path d="M60.8851 28.1594L60.8162 28.1806C60.4293 28.2813 59.9947 28.3767 59.5283 28.4721C57.4931 28.9014 54.965 29.442 54.3661 31.4401L54.3184 31.6044H54.488C54.488 31.6044 54.4986 31.6097 54.5039 31.6097C55.1982 31.6097 60.5989 30.0356 61.0918 28.8113C61.1554 28.6576 61.1766 28.4244 60.9328 28.2071L60.8798 28.1594H60.8851Z" fill="#20261E"/>
<path d="M79.9501 27.6293L79.8812 27.6505C79.4943 27.7512 79.0544 27.8466 78.5933 27.942C76.5634 28.3713 74.03 28.9119 73.4364 30.91L73.3887 31.0743H73.5583C73.5583 31.0743 73.5689 31.0796 73.5742 31.0796C74.2685 31.0796 79.6692 29.5055 80.1621 28.2812C80.2257 28.1275 80.2469 27.8943 80.0031 27.677L79.9501 27.6293Z" fill="#20261E"/>
<path d="M184.011 27.3643L183.942 27.3855C183.555 27.4862 183.121 27.5816 182.654 27.677C180.619 28.1063 178.091 28.6469 177.492 30.645L177.444 30.8093H177.614C177.614 30.8093 177.625 30.8146 177.63 30.8146C178.324 30.8146 183.725 29.2405 184.218 28.0162C184.281 27.8625 184.303 27.6293 184.059 27.412L184.006 27.3643H184.011Z" fill="#20261E"/>
<path d="M223.452 28.149L223.367 28.1914C222.721 28.5147 221.687 28.7585 220.691 28.9917C219.604 29.2461 218.576 29.4846 217.977 29.8344C217.553 30.0782 217.368 30.5128 217.188 30.9315C217.113 31.1064 217.045 31.2707 216.954 31.4191L216.838 31.6205H217.066C217.659 31.6205 223.134 30.1153 223.654 28.8274C223.744 28.6048 223.696 28.3928 223.511 28.2179L223.442 28.1543L223.452 28.149Z" fill="#20261E"/>
<path d="M243.549 30.5605C242.781 30.5764 237.688 31.8537 237.025 33.2317C236.903 33.4808 236.93 33.7299 237.094 33.9525L237.163 34.0426L237.264 33.9843C237.947 33.6027 238.79 33.3801 239.68 33.1469C241.318 32.7176 243.014 32.2671 243.671 30.746L243.751 30.5552H243.544L243.549 30.5605Z" fill="#20261E"/>
<path d="M125.324 17.6126L125.255 17.5331C125.197 17.4642 125.128 17.3847 125.059 17.2946C124.593 16.7169 123.888 15.853 123.225 16.0226L123.178 16.0332L121.853 17.8405L123.994 19.4729L125.324 17.6126Z" fill="#20261E"/>
<path d="M238.371 28.3982L238.44 28.483C239.219 29.4582 239.866 30.1101 240.459 30.1101C240.512 30.1101 240.565 30.1101 240.618 30.0942C241.116 29.9935 241.498 29.4052 241.816 28.2445L241.837 28.165L239.966 26.5326L238.371 28.3982Z" fill="#20261E"/>
<path d="M50.143 227.026C51.6906 223.952 49.5812 220.465 49.6077 217.624C49.6183 216.755 50.4451 216.166 50.3815 215.817C50.3603 215.705 49.3427 214.184 49.1413 213.871C48.2297 212.446 47.705 214.237 47.4983 215.228C48.1502 216.447 49.7667 225.574 49.3533 225.971C46.7669 226.464 42.4739 225.277 42.2036 228.881C44.2971 228.394 47.4771 228.658 49.5123 229.385C49.7932 229.485 50.2755 229.533 49.878 229.941C48.9717 230.869 40.9846 231.69 39.4211 231.531C38.5466 231.441 37.1421 231.091 36.7764 230.206C36.522 229.591 36.9513 228.563 36.2464 228.627C35.2235 231.012 32.8756 232.146 30.3263 231.361C27.5226 230.498 27.6816 225.182 26.9714 222.791C26.8336 222.325 26.9184 222.171 26.3142 222.272L26.0068 225.15C23.325 225.24 19.2122 231.748 23.7596 231.526C25.2595 231.452 26.0651 230.588 27.1039 229.687C27.565 234.329 33.2307 235.501 35.7111 231.807C37.6456 235.167 43.0622 233.863 46.2263 233.052C48.7703 232.406 51.7754 230.847 54.3141 230.551C56.662 230.275 58.3686 231.796 58.8827 228.362C55.9041 228.542 52.952 228.001 50.143 227.031V227.026ZM23.3992 229.146C22.9752 228.054 26.1393 226.311 26.5739 226.761L26.5951 228.484C25.604 229.056 24.5387 229.247 23.3992 229.146Z" fill="#20261E"/>
<path d="M244.101 225.161C241.918 225.309 238.027 229.576 236.639 231.288L234.688 230.349C234.052 230.201 234.058 228.357 233.506 228.622C232.674 229.024 232.886 231.134 230.305 231.51C224.751 232.31 224.788 226.661 223.574 222.797C222.933 222.712 223.156 222.797 223.018 223.163C222.191 225.383 223.712 227.323 223.813 229.501C222.133 230.826 218.64 232.257 217.087 230.212C214.776 234.738 221.184 234.028 223.32 232.199C223.855 231.743 224.062 231.081 224.634 230.736C225.329 234.568 230.973 235.013 232.982 232.061L235.229 233.397L234.964 234.839L235.632 234.976L236.278 233.779C240.047 234.319 247.059 233.89 248.399 229.464C249.247 226.655 246.666 224.981 244.112 225.155L244.101 225.161ZM238.139 231.531C240.338 228.722 244.228 225.42 247.133 229.284C244.594 231.245 241.26 231.632 238.139 231.531Z" fill="#20261E"/>
<path d="M122.779 217.544C121.74 216.951 120.812 216.484 119.848 215.907C119.413 215.647 118.406 215.461 118.258 215.313C117.807 214.868 118.157 213.548 116.323 214.173C115.443 214.47 115.724 215.064 115.475 215.313C115.39 215.398 113.8 216.521 113.62 216.638C113.292 216.85 112.014 216.982 111.293 217.359C105.437 220.427 105.177 231.844 109.55 236.211C110.244 236.905 113.413 238.755 114.394 239.179C115.592 239.693 116.44 239.905 117.775 239.725C118.91 239.571 123.473 237.016 124.294 236.184C128.529 231.891 128.365 220.73 122.784 217.555L122.779 217.544ZM114.484 216.177L116.334 216.707C115.427 213.903 118.348 213.983 117.399 216.707C118.035 216.187 119.031 215.742 119.514 216.707C118.342 216.749 117.479 217.21 117.002 218.297C116.381 217.306 116.032 217.232 115.067 216.781C114.691 216.606 114.341 216.94 114.489 216.182L114.484 216.177ZM111.601 217.921C113.387 217.004 115.957 216.744 116.344 219.208C115.931 220.359 115.003 220.889 114.224 219.749L115.279 219.081C116.148 217.82 110.488 217.984 110.514 220.141C111.304 220.051 112.237 219.452 112.894 220.274C111.712 220.862 110.61 221.095 109.481 221.885C108.755 222.394 108.325 223.003 107.61 223.454C108.347 221.318 109.486 219.007 111.601 217.915V217.921ZM107.605 231.006L109.635 233.079L112.899 234.181C112.899 235.373 111.156 234.965 110.52 234.446C109.809 235.299 115.025 238.177 115.284 235.506L114.224 234.843C117.007 233.322 117.113 237.191 114.24 237.499C110.922 237.854 108.23 233.879 107.61 231.001L107.605 231.006ZM114.219 238.283C115.062 237.78 116.445 237.806 116.604 236.566H117.123L117.659 237.488L119.773 238.416C117.913 239.2 115.979 239.55 114.214 238.283H114.219ZM117.388 235.384C117.484 234.393 118.92 234.059 119.514 234.849L118.454 235.511C118.766 238.082 124.104 235.426 123.218 234.451L121.777 234.997L121.104 234.192L124.104 233.084L126.133 231.012C126.027 234.801 119.408 240.827 117.394 235.389L117.388 235.384ZM120.319 233.662C120.107 234.653 120.542 235.082 121.104 235.771L119.779 236.036C120.924 233.693 118.104 232.67 116.996 234.716H116.609C115.889 232.623 112.846 233.927 113.954 236.036L112.629 235.771L113.572 233.911C105.198 232.453 105.283 222.081 113.689 220.942C113.562 220.242 113.318 219.489 112.629 219.224L113.954 218.827C112.936 221.482 115.767 221.636 117.129 219.882C117.797 222.102 120.955 221.063 119.784 218.827C122.461 218.753 119.652 219.892 120.425 220.963C120.537 221.116 123.208 221.848 124.003 222.415C128.752 225.823 126.165 233.529 120.319 233.662ZM121.104 220.677V219.887L123.224 220.152C122.837 218.382 119.397 217.428 118.459 219.087C121.56 220.586 116.625 221.01 117.59 218.641C119.344 214.343 126.324 220.369 126.133 223.592C124.899 222.086 123.16 220.745 121.104 220.677Z" fill="#20261E"/>
<path d="M93.957 226.761C92.1497 228.86 92.6691 231.277 89.2082 231.542C85.8215 231.802 86.9822 231.113 85.477 229.427C85.2385 229.157 85.2067 229.03 84.9576 229.411C83.6114 231.462 85.4346 233.132 85.7685 235.225C86.1183 237.388 85.8851 237.95 83.9559 238.999C81.2423 240.483 75.2586 241.066 74.7604 236.969C74.5431 235.199 75.0837 234.43 75.5077 232.936C75.619 232.544 75.7144 232.226 75.1685 232.332C71.2518 238.034 74.2304 243.907 81.4543 242.322C85.7049 241.395 87.8567 238.215 86.9504 233.916C89.5686 234.165 91.731 233.492 92.9023 231.033C95.9392 232.925 99.787 232.989 98.2606 228.293C97.4603 225.834 95.9869 224.397 93.9623 226.756L93.957 226.761ZM93.8351 228.754C95.0647 226.931 96.6335 228.145 96.7395 229.947C95.7378 229.676 94.5241 229.629 93.8351 228.754Z" fill="#20261E"/>
<path d="M270.447 231.52C271.56 228.961 271.719 225.219 269.556 223.146C266.191 219.929 263.239 229.533 268.178 228.616C268.989 228.468 269.095 227.54 269.906 227.561C271.168 230.556 267.511 230.132 266.53 231.07C266.233 231.356 266.016 232.443 265.671 232.856C267.405 233.116 269.36 233.354 270.966 234.064C271.289 234.208 271.613 234.049 271.491 234.579C268.486 238.119 257.117 240.218 258.061 233.063C258.193 232.045 258.792 231.208 258.999 230.291C259.089 229.893 259.216 229.581 258.654 229.687C253.746 237.684 259.28 242.396 267.516 239.349C270.744 238.151 276.097 233.476 270.436 231.531L270.447 231.52ZM266.864 225.743C266.572 224.217 268.814 224.964 268.851 226.236C268.173 226.496 267.039 226.66 266.864 225.743Z" fill="#20261E"/>
<path d="M178.837 218.44C178.89 218.032 179.351 217.709 179.361 217.364L177.771 214.719C175.694 215.758 176.976 217.152 177.209 218.726C177.787 222.691 178.068 226.74 178.54 230.715C178.068 231.499 174.199 229.406 173.441 229.485C172.821 229.549 170.849 230.8 169.774 231.086C168.162 231.51 164.855 232.072 163.62 230.725C162.528 229.538 162.375 223.332 162.115 221.376C161.845 219.367 161.437 217.375 161.087 215.387C159.195 217.359 160.737 220.936 161.055 223.496C161.887 230.148 161.023 236.524 170.494 233.132C171.199 232.882 172.736 231.897 173.181 231.86C174.257 231.769 177.31 234.086 178.704 232.861C181.02 230.831 178.428 221.556 178.842 218.44H178.837Z" fill="#20261E"/>
<path d="M157.224 228.091C156.937 229.247 158.352 231.446 155.263 230.073C153.641 229.353 154.393 228.727 154.468 227.296C153.275 227.646 153.339 229.114 152.22 229.946C149.878 231.69 148.192 230.481 146.92 228.361C144.678 231.234 149.963 234.027 147.196 236.841C145.15 238.919 139.596 240.021 137.561 237.456C135.732 235.151 137.608 233.375 137.391 231.006C134.508 234.562 134.831 240.827 140.306 241.331C145.044 241.765 150.016 238.394 148.971 233.248L149.157 232.988C150.747 232.893 151.924 232.432 153.047 231.298C157.621 234.87 159.349 230.789 158.437 226.512C158.05 226.067 157.266 227.922 157.224 228.102V228.091Z" fill="#20261E"/>
<path d="M210.775 232.777C211.809 232.83 212.127 231.929 212.985 231.796C212.487 235.358 208.645 239.375 205.109 239.942C204.564 240.033 202.12 239.831 202.131 240.403C204.569 241.919 208.051 241.686 210.309 239.852C213.102 237.579 215.328 230.593 212.858 227.551C210.012 224.042 206.986 232.581 210.77 232.782L210.775 232.777ZM210.076 229.814L211.035 228.908L212.185 229.814C211.517 230.593 210.749 230.598 210.076 229.814Z" fill="#20261E"/>
<path d="M198.819 240.271C202.645 237.488 203.71 230.498 199.486 227.562C199.433 228.245 198.887 229.311 199.068 229.957C199.29 230.763 201.182 232.427 201.278 233.561C201.341 234.33 199.576 236.651 198.962 237.229C197.817 238.305 195.321 239.762 193.768 239.979C193.169 240.064 190.747 239.783 190.752 240.398C192.718 241.771 196.873 241.681 198.819 240.266V240.271Z" fill="#20261E"/>
<path d="M62.8567 215.382C62.5758 216.437 61.9292 217.221 61.8921 218.382C61.7967 221.228 62.7984 225.733 63.1164 228.759C63.2754 230.259 63.2012 232.066 63.3814 233.529C63.4238 233.9 63.5351 234.298 63.9061 233.921C65.2629 229.024 63.8743 223.676 63.3814 218.694C63.2807 217.65 63.8001 215.975 62.8514 215.387L62.8567 215.382Z" fill="#20261E"/>
<path d="M183.597 215.382C183.316 216.437 182.669 217.221 182.632 218.382C182.537 221.228 183.539 225.733 183.857 228.759C184.016 230.259 183.941 232.066 184.122 233.529C184.164 233.9 184.275 234.298 184.646 233.921C186.003 229.024 184.615 223.676 184.122 218.694C184.021 217.65 184.54 215.975 183.592 215.387L183.597 215.382Z" fill="#20261E"/>
<path d="M183.683 211.911C183.137 212.08 182.49 211.476 182.008 211.783C181.494 212.631 180.868 213.538 180.953 214.582C182.49 212.414 182.644 213.951 184.493 213.776C186.417 213.596 189.131 210.946 187.446 209.282C185.866 207.718 184.313 211.715 183.688 211.911H183.683ZM184.652 212.202C184.981 211.073 186.651 209.642 187.032 211.407L184.652 212.202Z" fill="#20261E"/>
<path d="M62.9375 211.911C62.3916 212.08 61.745 211.476 61.2627 211.783C60.7486 212.631 60.1232 213.538 60.208 214.582C61.745 212.414 61.8934 213.951 63.7484 213.776C65.6723 213.596 68.3859 210.946 66.7005 209.282C65.1211 207.718 63.5682 211.715 62.9428 211.911H62.9375ZM63.9127 212.202C64.2413 211.073 65.9108 209.642 66.2924 211.407L63.9127 212.202Z" fill="#20261E"/>
<path d="M221.641 220.2C222.626 219.559 223.225 218.117 224.365 218.827C224.773 217.439 223.755 216.13 224.063 214.497C221.906 212.923 219.473 217.121 222.51 218.165C221.614 219.177 220.374 219.739 219.309 220.529C219.012 220.746 218.651 220.529 218.81 221.212C219.192 221.509 221.201 220.491 221.641 220.205V220.2ZM222.255 216.039V215.647H223.31V216.702H222.918L222.255 216.039Z" fill="#20261E"/>
<path d="M238.589 220.2C239.575 219.559 240.174 218.117 241.313 218.827C241.721 217.439 240.704 216.13 241.011 214.497C238.854 212.923 236.421 217.121 239.458 218.165C238.562 219.177 237.322 219.739 236.257 220.529C235.96 220.746 235.6 220.529 235.759 221.212C236.14 221.509 238.149 220.491 238.589 220.205V220.2ZM239.198 216.039V215.647H240.253V216.702H239.861L239.198 216.039Z" fill="#20261E"/>
<path d="M48.552 209.552C47.704 209.515 43.9039 211.815 46.2306 211.614C47.6722 211.492 51.0801 209.859 50.6455 207.994C47.9531 206.939 45.9762 205.821 45.1123 209.557C45.9179 209.467 46.1458 208.762 47.0892 208.757C47.2959 208.757 49.082 209.001 48.552 209.557V209.552Z" fill="#20261E"/>
<path d="M26.197 219.622L28.2587 220.661L29.3717 218.816L27.5008 217.237L26.3083 218.822L24.3208 217.512L23.123 219.219L24.9038 220.904L26.197 219.622Z" fill="#20261E"/>
<path d="M37.4375 215.912C37.1195 216.68 37.464 217.815 36.51 218.037C35.2645 218.329 36.1973 216.537 35.0525 216.707C35.4394 218.806 32.1746 219.919 33.1975 217.242C32.4608 216.5 30.9185 220.655 33.8494 220.157C34.549 220.035 34.8882 219.177 35.1797 219.161C35.6726 219.134 36.1178 220.178 37.3103 219.097C38.4604 218.048 37.9039 215.562 37.4375 215.917V215.912Z" fill="#20261E"/>
<path d="M172.743 218.027C172.425 218.795 172.77 219.929 171.816 220.152C170.57 220.444 171.503 218.652 170.358 218.822C170.745 220.921 167.48 222.034 168.503 219.357C167.766 218.615 166.224 222.77 169.155 222.272C169.855 222.15 170.194 221.292 170.485 221.276C170.978 221.249 171.423 222.293 172.616 221.212C173.766 220.163 173.21 217.677 172.743 218.032V218.027Z" fill="#20261E"/>
<path d="M83.2409 218.297C83.0236 218.085 77.8402 220.47 77.607 220.666C77.2996 220.921 76.6901 222.325 76.8915 222.532C79.0539 221.403 82.5943 221.064 83.2462 218.297H83.2409Z" fill="#20261E"/>
<path d="M37.2483 213.543C37.5292 213.315 38.0698 211.783 37.9585 211.672C37.7518 211.465 32.8705 213.808 32.5896 214.041C32.2822 214.29 31.6886 215.679 31.8741 215.907C33.056 215.122 36.3314 214.285 37.2483 213.543Z" fill="#20261E"/>
<path d="M172.552 215.663C172.828 215.435 173.373 213.903 173.262 213.792C173.055 213.585 168.174 215.928 167.893 216.161C167.586 216.41 166.992 217.799 167.178 218.027C168.36 217.242 171.635 216.405 172.552 215.663Z" fill="#20261E"/>
<path d="M22.3389 239.211C23.012 239.238 29.9656 237.176 28.6936 236.036C26.5842 236.598 23.0438 236.842 22.3389 239.211Z" fill="#20261E"/>
<path d="M90.3916 239.211C91.0647 239.238 98.0183 237.176 96.7463 236.036C94.6369 236.598 91.0965 236.842 90.3916 239.211Z" fill="#20261E"/>
<path d="M149.969 239.211C150.642 239.238 157.595 237.176 156.323 236.036C154.214 236.598 150.674 236.842 149.969 239.211Z" fill="#20261E"/>
<path d="M194.452 246.095C195.125 246.122 202.079 244.06 200.807 242.921C198.697 243.482 195.157 243.726 194.452 246.095Z" fill="#20261E"/>
<path d="M265.412 245.565C266.085 245.592 273.039 243.53 271.767 242.391C269.657 242.952 266.117 243.196 265.412 245.565Z" fill="#20261E"/>
<path d="M42.1973 244.24C42.8704 244.267 49.824 242.205 48.552 241.066C46.4426 241.627 42.9022 241.871 42.1973 244.24Z" fill="#20261E"/>
<path d="M169.318 226.327L171.274 227.827L172.451 225.887L170.527 224.403C170.013 224.731 169.133 225.701 169.318 226.327Z" fill="#20261E"/>
<path d="M47.2123 237.515L45.2831 236.052L43.8574 237.758L45.776 239.465C46.1682 239.094 47.3448 238.05 47.2123 237.52V237.515Z" fill="#20261E"/>
<path d="M80.6289 225.479L79.5371 227.159L81.7419 228.595L82.9503 226.936C82.6482 226.427 81.1589 225.166 80.6289 225.479Z" fill="#20261E"/>
<path d="M268.831 218.472L266.896 216.978L265.693 218.917L267.654 220.412L268.831 218.472Z" fill="#20261E"/>
<path d="M33.7773 223.989C35.1818 225.479 36.3531 226.199 37.1375 223.756L35.2242 222.283L33.7826 223.989H33.7773Z" fill="#20261E"/>
<path d="M117.542 224.106C115.215 222.733 113.715 228.865 116.588 229.305C117.007 229.369 118.135 229.077 118.395 228.823C119.471 227.757 118.856 224.879 117.542 224.106ZM115.962 227.323L115.846 226.008C116.985 225.314 118.21 225.939 118.188 227.291L115.962 227.323Z" fill="#20261E"/>
<path d="M97.1643 116.394C96.1255 115.8 95.198 115.334 94.2334 114.756C93.7988 114.497 92.7918 114.311 92.6434 114.163C92.1929 113.717 92.5427 112.398 90.7089 113.023C89.8291 113.32 90.1047 113.914 89.8609 114.163C89.7761 114.247 88.1861 115.371 88.0059 115.488C87.6773 115.7 86.4 115.832 85.6792 116.208C79.8227 119.277 79.563 130.693 83.9355 135.061C84.6298 135.755 87.7992 137.605 88.7797 138.029C89.9775 138.543 90.8255 138.755 92.1611 138.574C93.2953 138.421 97.8586 135.866 98.6801 135.034C102.915 130.741 102.75 119.579 97.1696 116.405L97.1643 116.394ZM88.8698 115.021L90.7195 115.551C89.8132 112.748 92.7335 112.827 91.7848 115.551C92.4208 115.032 93.4172 114.587 93.8995 115.551C92.7282 115.594 91.8643 116.055 91.3873 117.141C90.7672 116.15 90.4174 116.076 89.4528 115.625C89.0765 115.451 88.7267 115.784 88.8751 115.027L88.8698 115.021ZM85.9813 116.77C87.7674 115.853 90.3379 115.594 90.7248 118.058C90.3061 119.208 89.3839 119.738 88.6048 118.599L89.6595 117.931C90.5287 116.67 84.8683 116.834 84.8948 118.991C85.6845 118.901 86.6173 118.302 87.2745 119.123C86.0926 119.712 84.9902 119.945 83.8613 120.735C83.1352 121.243 82.7059 121.853 81.9904 122.303C82.7271 120.168 83.8666 117.857 85.9813 116.765V116.77ZM81.9851 129.851L84.015 131.923L87.2798 133.025C87.2798 134.218 85.5361 133.81 84.9001 133.29C84.1952 134.144 89.4051 137.022 89.6648 134.35L88.6048 133.688C91.3873 132.167 91.4933 136.036 88.6207 136.343C85.3029 136.698 82.6105 132.723 81.9904 129.845L81.9851 129.851ZM88.6048 137.133C89.4475 136.629 90.8308 136.656 90.9898 135.416H91.5092L92.0445 136.338L94.1592 137.265C92.2989 138.05 90.3644 138.4 88.6048 137.133ZM91.7742 134.228C91.8696 133.237 93.3059 132.903 93.8995 133.693L92.8395 134.356C93.1522 136.926 98.4893 134.271 97.6042 133.296L96.1626 133.842L95.4895 133.036L98.4893 131.928L100.519 129.856C100.413 133.645 93.7935 139.672 91.7795 134.234L91.7742 134.228ZM94.6998 132.506C94.4878 133.497 94.9224 133.926 95.4842 134.615L94.1592 134.88C95.304 132.538 92.4844 131.515 91.3767 133.561H90.9898C90.269 131.467 87.2268 132.771 88.3345 134.88L87.0095 134.615L87.9529 132.755C79.5736 131.298 79.6637 120.925 88.0695 119.786C87.9423 119.086 87.6985 118.334 87.0095 118.069L88.3345 117.671C87.3169 120.327 90.1471 120.48 91.5092 118.726C92.177 120.947 95.3358 119.908 94.1645 117.671C96.841 117.597 94.0267 118.737 94.8058 119.807C94.9171 119.961 97.5883 120.692 98.3833 121.259C103.132 124.667 100.546 132.373 94.6998 132.506ZM95.4895 119.521V118.731L97.6095 118.996C97.2226 117.226 93.7829 116.272 92.8448 117.931C95.9453 119.431 91.011 119.855 91.9756 117.486C93.7299 113.187 100.71 119.214 100.519 122.436C99.2843 120.931 97.5459 119.59 95.4895 119.521Z" fill="#20261E"/>
<path d="M218.168 116.394C217.129 115.8 216.202 115.334 215.237 114.756C214.803 114.497 213.796 114.311 213.647 114.163C213.197 113.717 213.547 112.398 211.713 113.023C210.833 113.32 211.114 113.914 210.865 114.163C210.78 114.247 209.19 115.371 209.01 115.488C208.681 115.7 207.404 115.832 206.683 116.208C200.827 119.277 200.567 130.693 204.939 135.061C205.634 135.755 208.803 137.605 209.784 138.029C210.981 138.543 211.829 138.755 213.165 138.574C214.299 138.421 218.868 135.866 219.684 135.034C223.919 130.741 223.754 119.579 218.174 116.405L218.168 116.394ZM209.874 115.021L211.723 115.551C210.817 112.748 213.737 112.827 212.789 115.551C213.425 115.032 214.421 114.587 214.903 115.551C213.732 115.594 212.868 116.055 212.391 117.141C211.771 116.15 211.421 116.076 210.457 115.625C210.08 115.451 209.731 115.784 209.879 115.027L209.874 115.021ZM206.99 116.77C208.777 115.853 211.347 115.594 211.734 118.058C211.321 119.208 210.393 119.738 209.614 118.599L210.669 117.931C211.538 116.67 205.878 116.834 205.904 118.991C206.694 118.901 207.626 118.302 208.284 119.123C207.102 119.712 205.999 119.945 204.87 120.735C204.144 121.243 203.715 121.853 203 122.303C203.736 120.168 204.876 117.857 206.99 116.765V116.77ZM202.994 129.851L205.024 131.923L208.289 133.025C208.289 134.218 206.545 133.81 205.909 133.29C205.204 134.144 210.414 137.022 210.674 134.35L209.614 133.688C212.397 132.167 212.503 136.036 209.63 136.343C206.312 136.698 203.62 132.723 203 129.845L202.994 129.851ZM209.614 137.133C210.457 136.629 211.84 136.656 211.999 135.416H212.518L213.054 136.338L215.168 137.265C213.308 138.05 211.374 138.4 209.609 137.133H209.614ZM212.783 134.228C212.879 133.237 214.315 132.903 214.909 133.693L213.849 134.356C214.161 136.926 219.499 134.271 218.613 133.296L217.172 133.842L216.499 133.036L219.499 131.928L221.528 129.856C221.422 133.645 214.803 139.672 212.789 134.234L212.783 134.228ZM215.709 132.506C215.497 133.497 215.932 133.926 216.493 134.615L215.168 134.88C216.313 132.538 213.494 131.515 212.386 133.561H211.999C211.278 131.467 208.236 132.771 209.344 134.88L208.019 134.615L208.962 132.755C200.583 131.298 200.673 120.925 209.079 119.786C208.951 119.086 208.708 118.334 208.019 118.069L209.344 117.671C208.326 120.327 211.156 120.48 212.518 118.726C213.186 120.947 216.345 119.908 215.174 117.671C217.85 117.597 215.041 118.737 215.815 119.807C215.926 119.961 218.598 120.692 219.393 121.259C224.141 124.667 221.555 132.373 215.709 132.506ZM216.493 119.521V118.731L218.613 118.996C218.227 117.226 214.787 116.272 213.849 117.931C216.949 119.431 212.015 119.855 212.98 117.486C214.734 113.187 221.714 119.214 221.523 122.436C220.288 120.931 218.55 119.59 216.493 119.521Z" fill="#20261E"/>
<path d="M66.3707 129.458C65.4326 130.455 62.3003 130.704 61.129 130.206C60.6891 130.015 60.2969 128.759 59.8676 128.271C59.6291 128.001 59.5973 127.874 59.3482 128.255C58.002 130.306 59.8252 131.976 60.1591 134.069C60.5089 136.232 60.2757 136.794 58.3465 137.843C55.6329 139.327 49.6492 139.91 49.151 135.813C48.9337 134.043 49.4743 133.274 49.8983 131.78C50.0096 131.388 50.105 131.07 49.5591 131.176C45.6424 136.878 48.621 142.751 55.8449 141.166C60.0955 140.239 62.2473 137.059 61.341 132.76C64.044 132.999 66.3336 132.469 67.5579 129.877C68.9041 130.492 71.3527 131.87 72.6035 130.651C73.9656 129.326 72.842 126.093 71.6654 124.948C69.1108 122.462 67.4625 128.298 66.376 129.458H66.3707ZM68.4854 127.598C69.715 125.775 71.2838 126.989 71.3898 128.791C70.3881 128.52 69.1744 128.473 68.4854 127.598Z" fill="#20261E"/>
<path d="M274.226 117.284C274.279 116.876 274.74 116.553 274.751 116.209L273.161 113.564C271.083 114.603 272.366 115.997 272.599 117.571C273.176 121.535 273.457 125.584 273.929 129.559C273.457 130.344 269.588 128.25 268.83 128.33C268.216 128.393 266.239 129.644 265.163 129.93C263.583 130.344 260.494 130.9 259.275 129.57C258.183 128.377 258.029 122.182 257.769 120.221C257.499 118.212 257.091 116.219 256.741 114.232C254.849 116.203 256.391 119.781 256.709 122.341C257.441 128.187 256.349 134.488 264.686 132.368C265.778 132.093 268.046 130.752 268.571 130.709C269.594 130.625 272.461 132.766 273.961 131.844C276.425 130.36 273.865 120.083 274.231 117.29L274.226 117.284Z" fill="#20261E"/>
<path d="M153.488 117.284C153.541 116.876 154.002 116.553 154.012 116.209L152.422 113.564C150.345 114.603 151.627 115.997 151.861 117.571C152.438 121.535 152.719 125.584 153.191 129.559C152.719 130.344 148.85 128.25 148.092 128.33C147.472 128.393 145.501 129.644 144.425 129.93C142.845 130.344 139.755 130.9 138.536 129.57C137.445 128.377 137.291 122.182 137.031 120.221C136.761 118.212 136.353 116.219 136.003 114.232C134.111 116.203 135.653 119.781 135.971 122.341C136.703 128.187 135.611 134.488 143.948 132.368C145.039 132.093 147.308 130.752 147.833 130.709C148.855 130.625 151.723 132.766 153.223 131.844C155.687 130.36 153.127 120.083 153.493 117.29L153.488 117.284Z" fill="#20261E"/>
<path d="M187.38 115.694C187.322 115.09 185.954 114.083 186.044 113.166L184.56 115.414C185.122 116.224 185.281 117.184 185.44 118.143C186.06 121.911 186.4 125.759 186.808 129.554C184.036 130.338 177.421 131.679 175.964 128.409C175.423 127.19 174.66 121.371 174.39 121.111C173.971 120.714 173.939 121.201 173.833 121.477C173.584 122.145 173.648 123.883 173.558 123.984C173.415 124.148 171.533 124.779 170.69 125.749C166.811 130.206 171.485 132.045 174.655 128.52C175.015 130.386 175.98 132.321 178.031 132.697C179.79 133.015 186.135 132.866 187.232 131.43C189.039 129.061 186.935 121.641 186.829 118.604C186.786 117.385 187.433 116.214 187.38 115.694ZM170.95 127.996C170.526 126.904 173.69 125.16 174.125 125.611L174.146 127.333C173.155 127.906 172.09 128.096 170.95 127.996Z" fill="#20261E"/>
<path d="M131.61 126.941C131.324 128.096 132.739 130.296 129.649 128.923C128.027 128.202 128.78 127.577 128.854 126.146C127.662 126.496 127.725 127.964 126.607 128.796C124.264 130.54 122.579 129.331 121.307 127.211C119.065 130.084 124.349 132.877 121.583 135.691C119.537 137.769 113.982 138.871 111.947 136.306C110.119 134 111.995 132.225 111.778 129.856C108.894 133.412 109.218 139.677 114.693 140.18C119.431 140.615 124.402 137.244 123.358 132.098L123.544 131.838C125.134 131.743 126.31 131.282 127.434 130.147C132.008 133.72 133.736 129.639 132.824 125.361C132.437 124.916 131.653 126.771 131.61 126.951V126.941Z" fill="#20261E"/>
<path d="M252.613 126.941C252.327 128.096 253.742 130.296 250.652 128.923C249.03 128.202 249.783 127.577 249.857 126.146C248.665 126.496 248.728 127.964 247.61 128.796C245.267 130.54 243.582 129.331 242.31 127.211C240.068 130.084 245.352 132.877 242.586 135.691C240.54 137.769 234.985 138.871 232.95 136.306C231.122 134 232.998 132.225 232.781 129.856C229.897 133.412 230.221 139.677 235.696 140.18C240.434 140.615 245.405 137.244 244.361 132.098L244.547 131.838C246.137 131.743 247.313 131.282 248.437 130.147C253.011 133.72 254.739 129.639 253.827 125.361C253.44 124.916 252.656 126.771 252.613 126.951V126.941Z" fill="#20261E"/>
<path d="M39.352 126.146C38.8697 125.701 38.2549 127.561 38.2125 127.784C37.9793 129.14 39.4421 130.529 36.9564 129.999C36.3257 129.867 35.1703 129.395 35.1332 128.674C35.1173 128.414 35.9335 126.893 35.2498 126.946C34.8947 126.973 33.9831 128.987 33.5008 129.432C31.8048 131.006 27.109 131.022 27.9623 127.736L21.3426 129.453C20.9292 130.132 20.3091 131.568 21.3426 131.833C19.9328 135.251 17.9453 138.182 14.0286 138.829C13.1117 138.983 11.9669 138.516 11.2832 139.253C11.2991 139.788 13.8113 140.159 14.3148 140.186C20.3621 140.551 21.4645 136.545 22.4609 131.499L26.7751 130.126C27.6549 133.518 32.1811 133.534 33.9195 130.911C37.7408 134.234 40.0304 131.833 39.6117 127.333C39.5905 127.116 39.405 126.199 39.3414 126.146H39.352Z" fill="#20261E"/>
<path d="M278.987 114.226C278.706 115.281 278.059 116.065 278.022 117.226C277.927 120.072 278.928 124.577 279.246 127.604C279.405 129.103 279.331 130.911 279.511 132.374C279.554 132.745 279.665 133.142 280.036 132.766C281.393 127.869 280.004 122.521 279.511 117.539C279.411 116.495 279.93 114.82 278.981 114.232L278.987 114.226Z" fill="#20261E"/>
<path d="M158.246 114.226C157.965 115.281 157.319 116.065 157.282 117.226C157.186 120.072 158.188 124.577 158.506 127.604C158.665 129.103 158.591 130.911 158.771 132.374C158.813 132.745 158.925 133.142 159.296 132.766C160.653 127.869 159.264 122.521 158.771 117.539C158.67 116.495 159.19 114.82 158.241 114.232L158.246 114.226Z" fill="#20261E"/>
<path d="M192.399 128.923C192.495 129.755 192.081 130.815 192.797 131.43C193.624 131.42 193.507 126.973 193.47 126.263C193.253 122.251 191.885 118.276 192.134 114.226C190.947 114.364 190.772 116.341 190.794 117.274C190.878 120.83 191.986 125.266 192.399 128.923Z" fill="#20261E"/>
<path d="M158.325 110.76C157.779 110.929 157.133 110.325 156.65 110.633C156.136 111.481 155.511 112.387 155.596 113.431C157.133 111.263 157.286 112.8 159.136 112.625C161.06 112.445 163.774 109.795 162.088 108.131C160.509 106.567 158.956 110.564 158.33 110.76H158.325ZM159.3 111.046C159.629 109.922 161.298 108.486 161.68 110.251L159.3 111.046Z" fill="#20261E"/>
<path d="M282.828 108.131C281.249 106.567 279.696 110.564 279.065 110.76C278.519 110.929 277.873 110.325 277.391 110.633C276.876 111.481 276.251 112.387 276.336 113.431C277.873 111.263 278.027 112.8 279.876 112.625C281.8 112.445 284.514 109.795 282.828 108.131ZM280.041 111.046C280.369 109.922 282.039 108.486 282.42 110.251L280.041 111.046Z" fill="#20261E"/>
<path d="M190.02 138.055C190.194 138.219 192.94 137.016 193.449 136.857C194.286 136.592 195.717 136.969 195.733 135.697C195.744 134.822 195.033 135.448 194.403 135.426C193.268 135.395 191.906 135.622 191.875 134.085C192.659 134.038 193.412 133.932 193.47 134.88C193.703 135.066 194.959 133.608 193.83 132.771C192.919 132.098 190.698 133.667 190.565 134.748L191.345 136.46C190.587 136.55 190.051 137.308 190.025 138.055H190.02Z" fill="#20261E"/>
<path d="M34.8907 121.148L33.8943 122.415C33.2795 122.521 32.3361 119.919 31.027 122.706C30.9104 122.95 30.7779 123.199 30.9263 123.459L32.8767 124.789L34.2017 123.231L35.7917 124.503L37.1962 122.828C36.7139 122.367 35.5797 120.751 34.896 121.148H34.8907Z" fill="#20261E"/>
<path d="M268.133 116.876C267.815 117.645 268.159 118.779 267.205 119.001C265.96 119.293 266.893 117.501 265.748 117.671C266.135 119.77 262.87 120.883 263.893 118.206C263.156 117.464 261.614 121.62 264.545 121.116C265.244 120.994 265.584 120.136 265.875 120.12C266.368 120.093 266.813 121.137 268.006 120.056C269.156 119.007 268.599 116.521 268.133 116.876Z" fill="#20261E"/>
<path d="M147.388 116.876C147.07 117.645 147.414 118.779 146.46 119.001C145.215 119.293 146.148 117.501 145.003 117.671C145.39 119.77 142.125 120.883 143.148 118.206C142.411 117.464 140.869 121.62 143.8 121.116C144.499 120.994 144.838 120.136 145.13 120.12C145.623 120.093 146.068 121.137 147.261 120.056C148.411 119.007 147.854 116.521 147.388 116.876Z" fill="#20261E"/>
<path d="M19.3494 120.851C20.049 120.729 20.3882 119.871 20.6797 119.855C21.1726 119.828 21.6178 120.872 22.8103 119.791C23.9604 118.742 23.4039 116.256 22.9375 116.611C22.6195 117.38 22.964 118.514 22.01 118.736C20.7645 119.028 21.6973 117.237 20.5525 117.406C20.9394 119.505 17.6746 120.618 18.6975 117.941C17.9608 117.199 16.4185 121.355 19.3494 120.856V120.851Z" fill="#20261E"/>
<path d="M35.6472 111.581C35.4299 111.369 30.2465 113.754 30.0133 113.951C29.7059 114.205 29.0964 115.609 29.2978 115.816C31.4602 114.687 35.0006 114.348 35.6472 111.581Z" fill="#20261E"/>
<path d="M182.792 111.566C182.484 111.82 181.875 113.224 182.076 113.431C184.239 112.302 187.779 111.963 188.431 109.196C188.214 108.984 183.03 111.369 182.797 111.566H182.792Z" fill="#20261E"/>
<path d="M181.667 124.815C181.641 125.271 181.344 125.489 181.938 125.87C182.447 125.844 183.13 122.854 183.125 122.298C183.125 121.646 182.219 118.779 181.763 118.508C181.111 118.122 180.57 119.134 180.57 119.653C180.57 119.918 181.604 121.519 181.736 122.362C181.89 123.342 181.715 123.925 181.662 124.81L181.667 124.815Z" fill="#20261E"/>
<path d="M147.2 114.507C147.481 114.279 148.022 112.748 147.911 112.636C147.704 112.43 142.823 114.772 142.542 115.005C142.234 115.255 141.641 116.643 141.826 116.871C143.008 116.087 146.283 115.249 147.2 114.507Z" fill="#20261E"/>
<path d="M267.946 114.507C268.226 114.279 268.767 112.748 268.656 112.636C268.449 112.43 263.568 114.772 263.287 115.005C262.979 115.255 262.386 116.643 262.571 116.871C263.753 116.087 267.029 115.249 267.946 114.507Z" fill="#20261E"/>
<path d="M245.356 138.055C246.03 138.082 252.983 136.02 251.711 134.88C249.602 135.442 246.061 135.686 245.356 138.055Z" fill="#20261E"/>
<path d="M15.5234 144.675C16.1965 144.701 23.1501 142.64 21.8781 141.5C19.7687 142.062 16.2283 142.306 15.5234 144.675Z" fill="#20261E"/>
<path d="M190.016 141.235C190.689 141.262 197.642 139.2 196.37 138.06C194.261 138.622 190.721 138.866 190.016 141.235Z" fill="#20261E"/>
<path d="M169.627 138.055C170.3 138.082 177.254 136.02 175.982 134.88C173.872 135.442 170.332 135.686 169.627 138.055Z" fill="#20261E"/>
<path d="M124.347 138.055C125.02 138.082 131.973 136.02 130.701 134.88C128.592 135.442 125.052 135.686 124.347 138.055Z" fill="#20261E"/>
<path d="M64.7754 138.055C65.4485 138.082 72.4021 136.02 71.1301 134.88C69.0207 135.442 65.4803 135.686 64.7754 138.055Z" fill="#20261E"/>
<path d="M143.968 125.176L145.923 126.676L147.1 124.736L145.176 123.252C144.662 123.58 143.782 124.55 143.968 125.176Z" fill="#20261E"/>
<path d="M264.708 125.176L266.664 126.676L267.84 124.736L265.916 123.252C265.402 123.58 264.522 124.55 264.708 125.176Z" fill="#20261E"/>
<path d="M57.3302 125.785C57.0281 125.277 55.5388 124.015 55.0088 124.328L53.917 126.008L56.1218 127.444L57.3302 125.785Z" fill="#20261E"/>
<path d="M35.1005 119.69L33.1395 118.196L31.9629 120.135L33.9186 121.641L35.1005 119.69Z" fill="#20261E"/>
<path d="M91.9233 123.485L91.653 122.701L90.328 124.031L88.6055 122.701L88.6638 124.625L90.593 130.11C91.229 130.237 90.9746 129.591 90.9905 129.183C91.0276 127.905 90.7308 126.957 90.4446 125.748C90.9587 125.844 91.2661 125.165 91.3191 125.139C91.6901 124.953 92.6123 125.833 93.3861 124.959C93.8472 124.439 94.2076 122.918 93.5027 122.431C93.2801 123.183 92.8031 124.286 91.9233 123.48V123.485Z" fill="#20261E"/>
<path d="M212.662 130.11C213.383 130.481 212.784 127.921 212.715 127.672C212.413 126.522 211.761 125.674 211.464 124.556L213.844 124.286L214.114 122.701C208.311 121.376 211.178 127.354 212.662 130.11Z" fill="#20261E"/>
<path d="M197.604 176.448C199.152 173.374 197.043 169.887 197.069 167.046C197.08 166.177 197.907 165.589 197.843 165.239C197.822 165.128 196.804 163.606 196.597 163.294C195.686 161.868 195.161 163.659 194.954 164.651C195.606 165.87 197.223 174.996 196.809 175.394C194.223 175.887 189.93 174.699 189.66 178.303C191.753 177.816 194.933 178.081 196.968 178.807C197.249 178.908 197.732 178.955 197.334 179.363C197.149 179.554 193.02 180.566 192.405 180.662C190.54 180.943 185.812 181.388 184.344 180.312C184.18 180.19 183.771 179.787 183.703 179.628C183.448 179.014 183.877 177.985 183.173 178.049C182.192 181.165 176.749 182.464 175.694 178.902C174.905 176.236 174.947 171.721 174.481 168.726C174.274 167.412 173.977 166.113 173.765 164.804C171.873 166.712 173.41 170.337 173.733 172.913C174.025 175.245 174.014 179.665 175.132 181.579C176.654 184.181 181.307 183.826 182.637 181.224C184.619 184.626 190.455 183.296 193.682 182.469C196.226 181.823 199.232 180.264 201.77 179.968C204.118 179.692 205.825 181.213 206.339 177.779C203.36 177.959 200.408 177.418 197.599 176.448H197.604Z" fill="#20261E"/>
<path d="M135.202 166.967C134.164 166.373 133.236 165.907 132.271 165.329C131.837 165.069 130.83 164.884 130.681 164.735C130.231 164.29 130.581 162.97 128.747 163.596C127.867 163.893 128.148 164.486 127.899 164.735C127.814 164.82 126.224 165.944 126.044 166.06C125.715 166.272 124.438 166.405 123.717 166.781C117.861 169.85 117.601 181.266 121.974 185.633C122.668 186.327 125.837 188.177 126.818 188.601C128.016 189.115 128.864 189.327 130.199 189.147C131.333 188.993 135.902 186.439 136.718 185.607C140.953 181.314 140.789 170.152 135.208 166.977L135.202 166.967ZM126.908 165.599L128.758 166.129C127.851 163.325 130.772 163.405 129.823 166.129C130.459 165.61 131.455 165.165 131.938 166.129C130.766 166.172 129.902 166.633 129.425 167.719C128.805 166.728 128.455 166.654 127.491 166.203C127.115 166.028 126.765 166.362 126.913 165.604L126.908 165.599ZM124.019 167.348C125.805 166.431 128.376 166.172 128.763 168.636C128.349 169.786 127.422 170.316 126.643 169.177L127.698 168.509C128.567 167.247 122.906 167.412 122.933 169.569C123.723 169.479 124.655 168.88 125.313 169.701C124.131 170.29 123.028 170.523 121.899 171.313C121.173 171.821 120.744 172.431 120.028 172.881C120.765 170.745 121.905 168.435 124.019 167.343V167.348ZM120.023 180.429L122.053 182.501L125.318 183.603C125.318 184.796 123.574 184.388 122.938 183.868C122.233 184.722 127.443 187.599 127.703 184.928L126.643 184.266C129.425 182.745 129.531 186.614 126.653 186.921C123.336 187.276 120.643 183.301 120.023 180.423V180.429ZM126.643 187.705C127.486 187.202 128.869 187.228 129.028 185.988H129.547L130.083 186.91L132.197 187.838C130.337 188.622 128.402 188.972 126.638 187.705H126.643ZM129.812 184.806C129.908 183.815 131.344 183.481 131.938 184.271L130.878 184.934C131.19 187.504 136.527 184.849 135.642 183.874L134.201 184.419L133.528 183.614L136.527 182.506L138.557 180.434C138.446 184.223 131.832 190.249 129.818 184.812L129.812 184.806ZM132.738 183.084C132.526 184.075 132.96 184.504 133.522 185.193L132.197 185.458C133.342 183.116 130.522 182.093 129.415 184.139H129.028C128.307 182.045 125.265 183.349 126.373 185.458L125.053 185.193L125.996 183.333C117.617 181.875 117.707 171.503 126.113 170.364C125.991 169.664 125.742 168.912 125.053 168.647L126.378 168.249C125.36 170.904 128.19 171.058 129.553 169.304C130.22 171.525 133.379 170.486 132.208 168.249C134.884 168.175 132.075 169.314 132.849 170.385C132.96 170.539 135.632 171.27 136.427 171.837C141.175 175.245 138.589 182.951 132.743 183.084H132.738ZM133.522 170.099V169.309L135.642 169.574C135.255 167.804 131.816 166.85 130.878 168.509C133.978 170.009 129.044 170.433 130.008 168.064C131.763 163.765 138.743 169.791 138.552 173.014C137.317 171.509 135.579 170.168 133.522 170.099Z" fill="#20261E"/>
<path d="M271.476 182.67C272.976 181.992 273.071 178.351 272.536 176.983C271.179 177.948 271.523 179.299 271.741 180.688L269.064 179.771L268.964 177.778C267.654 179.792 266.504 181.303 263.801 180.953L264.591 178.435C263.706 177.842 263.483 179.273 262.911 179.803C261.634 180.99 259.795 181.048 258.146 180.969C257.229 177.72 254.68 175.701 253.011 179.835C251.823 182.766 254.086 183.624 256.646 183.343C255.676 188.05 251.055 189.942 246.587 189.698V190.488C250.456 191.044 254.251 191.844 256.487 187.811C257.293 186.359 257.33 184.658 258.141 183.375C259.402 183.757 260.961 182.691 261.856 182.617C262.566 182.559 263.584 183.227 264.967 183.052C266.117 182.903 267.167 181.896 267.686 181.806C268.428 181.679 269.79 183.439 271.476 182.67ZM254.007 180.561C254.807 179.411 255.57 179.967 256.122 180.953C255.825 180.836 253.715 181.297 254.007 180.561Z" fill="#20261E"/>
<path d="M45.0802 182.67C46.5801 181.992 46.6755 178.351 46.1402 176.983C44.7834 177.948 45.1279 179.299 45.3452 180.688L42.6687 179.771L42.568 177.778C41.2589 179.792 40.1088 181.303 37.4058 180.953L38.1955 178.435C37.3104 177.842 37.0825 179.273 36.5154 179.803C35.2381 180.99 33.399 181.048 31.7507 180.969C30.8338 177.72 28.2845 175.701 26.615 179.835C25.4278 182.766 27.6909 183.624 30.2508 183.343C29.2809 188.05 24.6593 189.942 20.1914 189.698V190.488C24.0551 191.044 27.8552 191.844 30.0918 187.811C30.8974 186.359 30.9345 184.658 31.7454 183.375C33.0068 183.757 34.565 182.691 35.4607 182.617C36.1709 182.559 37.1885 183.227 38.5718 183.052C39.7219 182.903 40.7713 181.896 41.2907 181.806C42.0327 181.679 43.3948 183.439 45.0802 182.67ZM27.6114 180.561C28.4117 179.411 29.1749 179.967 29.7261 180.953C29.4293 180.836 27.3199 181.297 27.6114 180.561Z" fill="#20261E"/>
<path d="M285.48 166.829L283.789 164.014C282.077 165.822 283.021 166.383 283.317 168.191C283.964 172.155 284.425 176.172 284.86 180.163C284.001 181.239 282.671 180.942 281.446 180.974C280.524 177.72 277.98 175.717 276.311 179.84C275.124 182.771 277.387 183.63 279.947 183.349C278.977 188.055 274.355 189.947 269.882 189.703V190.493C276.353 192.067 280.09 190.149 281.256 183.46C282.332 183.221 284.001 183.497 284.902 182.739C286.598 181.319 285.936 177.285 285.739 175.303C285.469 172.584 284.165 169.219 285.474 166.834L285.48 166.829ZM277.307 180.561C278.107 179.411 278.871 179.967 279.422 180.953C279.125 180.836 277.016 181.298 277.307 180.561Z" fill="#20261E"/>
<path d="M85.1801 171.164C81.751 170.724 75.7514 178.791 80.3041 180.826C81.9153 181.547 84.1095 181.038 85.3338 182.278C81.8941 184.414 74.7498 186.958 71.9832 182.793C70.4409 180.476 71.5804 178.924 72.2641 176.751C72.6828 175.431 71.5327 176.676 71.2041 177.281C69.0152 181.256 69.9426 186.746 75.1419 187.313C78.4173 187.674 86.0705 185.617 86.6111 181.812C87.1146 178.266 81.1362 180.037 79.9066 178.038C79.0268 176.613 83.1979 172.654 85.1377 173.592C85.9221 173.973 86.0016 174.715 86.6642 175.129C87.2154 173.581 87.2047 171.419 85.1854 171.164H85.1801Z" fill="#20261E"/>
<path d="M22.8425 175.924C22.4556 175.478 21.6712 177.333 21.6288 177.514C21.3426 178.669 22.7577 180.869 19.6678 179.496C18.046 178.775 18.7986 178.15 18.8728 176.719C17.6803 177.068 17.7439 178.537 16.6256 179.369C14.283 181.112 12.5976 179.904 11.3256 177.784C9.08374 180.657 14.3678 183.45 11.6012 186.264C9.55544 188.342 4.00104 189.444 1.96584 186.879C0.137342 184.573 2.01354 182.798 1.79624 180.429C-1.08696 183.985 -0.763658 190.25 4.71124 190.753C9.44944 191.188 14.4208 187.817 13.3767 182.671L13.5622 182.411C15.1522 182.316 16.3288 181.854 17.4524 180.72C22.0263 184.292 23.7541 180.211 22.8425 175.934V175.924Z" fill="#20261E"/>
<path d="M169.647 177.513C169.361 178.669 170.776 180.868 167.686 179.496C166.065 178.775 166.817 178.149 166.891 176.718C165.699 177.068 165.762 178.536 164.644 179.368C162.302 181.112 160.616 179.904 159.344 177.784C157.102 180.656 162.386 183.449 159.62 186.264C157.574 188.341 152.02 189.444 149.984 186.879C148.156 184.573 150.032 182.798 149.815 180.428C146.932 183.985 147.255 190.249 152.73 190.753C157.468 191.187 162.439 187.817 161.395 182.67L161.581 182.411C163.171 182.315 164.347 181.854 165.471 180.72C170.045 184.292 171.773 180.211 170.861 175.934C170.474 175.489 169.69 177.344 169.647 177.524V177.513Z" fill="#20261E"/>
<path d="M242.459 177.513C242.173 178.669 243.588 180.868 240.498 179.496C238.876 178.775 239.629 178.149 239.703 176.718C238.51 177.068 238.574 178.536 237.456 179.368C235.113 181.112 233.428 179.904 232.156 177.784C229.914 180.656 235.198 183.449 232.431 186.264C230.386 188.341 224.831 189.444 222.796 186.879C220.967 184.573 222.844 182.798 222.626 180.428C219.743 183.985 220.066 190.249 225.541 190.753C230.28 191.187 235.251 187.817 234.207 182.67L234.392 182.411C235.982 182.315 237.159 181.854 238.283 180.72C242.856 184.292 244.584 180.211 243.673 175.934C243.286 175.489 242.501 177.344 242.459 177.524V177.513Z" fill="#20261E"/>
<path d="M61.4853 178.722C61.4005 178.16 59.7575 174.72 59.1215 175.399C59.201 175.992 58.8618 176.581 58.8406 177.137C58.7982 178.393 60.0861 178.833 60.3988 180.079C60.526 180.587 60.0596 180.503 59.6992 180.603C58.1516 181.043 56.6464 180.974 55.0564 180.969C54.1342 177.519 51.3623 175.791 49.8412 180.015C48.8183 182.85 51.1503 183.614 53.5565 183.338C52.5866 188.044 47.965 189.937 43.4971 189.693V190.482C49.9684 192.057 53.7049 190.138 54.8709 183.449C58.3212 183.243 62.1902 183.38 61.4853 178.716V178.722ZM50.9171 180.561C51.7174 179.411 52.4806 179.967 53.0318 180.953C52.735 180.836 50.6256 181.298 50.9171 180.561Z" fill="#20261E"/>
<path d="M103.868 165.991L102.151 163.219L101.054 165.202C101.912 167.56 102.172 170.162 102.511 172.659C102.776 174.609 103.29 177.397 103.349 179.252C103.386 180.413 103.206 180.831 102.034 181.112C97.402 182.209 97.6246 175.473 96.9833 172.489C94.8792 173.205 96.7024 176.21 96.7077 177.694C96.7183 179.554 91.2169 180.911 90.6233 178.849C89.4944 178.701 89.6958 180.974 90.0774 181.584C90.5438 182.32 93.4641 182.04 94.2856 181.844C95.5629 181.536 96.2784 180.683 97.243 179.909C97.508 180.731 98.0751 182.14 98.6581 182.734C100.831 184.928 103.99 183.211 104.372 180.285C104.986 175.59 102.384 170.475 103.863 166.002L103.868 165.991Z" fill="#20261E"/>
<path d="M247.906 183.338C249.507 177.429 246.777 171.09 246.851 165.069C246.242 164.942 246.427 165.138 246.258 165.408C245.807 166.124 245.494 167.268 245.51 168.116C245.579 172.759 247.434 178.171 247.387 182.946L247.911 183.338H247.906Z" fill="#20261E"/>
<path d="M108.64 164.804C108.359 165.859 107.712 166.643 107.675 167.804C107.58 170.65 108.582 175.155 108.9 178.181C109.059 179.681 108.984 181.488 109.165 182.951C109.207 183.322 109.318 183.72 109.689 183.343C111.046 178.446 109.658 173.099 109.165 168.117C109.064 167.072 109.583 165.398 108.635 164.809L108.64 164.804Z" fill="#20261E"/>
<path d="M210.049 164.804C209.768 165.859 209.122 166.643 209.085 167.804C208.989 170.65 209.991 175.155 210.309 178.181C210.468 179.681 210.394 181.488 210.574 182.951C210.616 183.322 210.727 183.72 211.098 183.343C212.455 178.446 211.067 173.099 210.574 168.117C210.473 167.072 210.993 165.398 210.044 164.809L210.049 164.804Z" fill="#20261E"/>
<path d="M290.281 164.804C290 165.859 289.353 166.643 289.316 167.804C289.221 170.65 290.222 175.155 290.54 178.181C290.699 179.681 290.625 181.488 290.805 182.951C290.848 183.322 290.959 183.72 291.33 183.343C292.687 178.446 291.298 173.099 290.805 168.117C290.705 167.072 291.224 165.398 290.275 164.809L290.281 164.804Z" fill="#20261E"/>
<path d="M294.122 158.709C292.543 157.146 290.99 161.142 290.359 161.338C289.813 161.508 289.167 160.903 288.685 161.211C288.17 162.059 287.545 162.965 287.63 164.009C289.167 161.842 289.321 163.379 291.17 163.204C293.094 163.023 295.808 160.373 294.122 158.709ZM291.335 161.624C291.663 160.495 293.333 159.064 293.714 160.829L291.335 161.624Z" fill="#20261E"/>
<path d="M108.723 161.338C108.177 161.508 107.53 160.903 107.048 161.211C106.534 162.059 105.908 162.965 105.993 164.009C107.53 161.842 107.684 163.379 109.534 163.204C111.457 163.023 114.171 160.373 112.486 158.709C110.906 157.146 109.353 161.142 108.728 161.338H108.723ZM109.693 161.624C110.021 160.495 111.691 159.064 112.072 160.829L109.693 161.624Z" fill="#20261E"/>
<path d="M210.133 161.338C209.587 161.508 208.94 160.903 208.458 161.211C207.944 162.059 207.318 162.965 207.403 164.009C208.94 161.842 209.094 163.379 210.944 163.204C212.868 163.023 215.581 160.373 213.896 158.709C212.316 157.146 210.763 161.142 210.133 161.338ZM211.108 161.624C211.437 160.495 213.106 159.064 213.488 160.829L211.108 161.624Z" fill="#20261E"/>
<path d="M58.5107 169.887C59.4965 169.245 60.0954 167.804 61.2349 168.514C61.643 167.125 60.6254 165.816 60.9328 164.184C58.7757 162.61 56.343 166.807 59.3799 167.852C58.4842 168.864 57.244 169.426 56.1787 170.215C55.8819 170.433 55.5215 170.215 55.6805 170.899C56.0621 171.196 58.0708 170.178 58.5107 169.892V169.887ZM59.1202 165.726V165.334H60.1749V166.389H59.7827L59.1202 165.726Z" fill="#20261E"/>
<path d="M15.6181 168.562C16.6039 167.92 17.2028 166.479 18.3423 167.189C18.7504 165.8 17.7328 164.491 18.0402 162.859C15.8831 161.285 13.4504 165.482 16.4873 166.527C15.5916 167.539 14.3514 168.101 13.2861 168.89C12.9893 169.113 12.6289 168.89 12.7879 169.574C13.1695 169.871 15.1782 168.853 15.6181 168.567V168.562ZM16.2276 164.401V164.009H17.2823V165.064H16.8901L16.2276 164.401Z" fill="#20261E"/>
<path d="M266.446 167.979C265.598 167.942 261.797 170.242 264.124 170.041C265.566 169.919 268.974 168.286 268.539 166.421C265.841 165.366 263.87 164.248 263.006 167.984C263.811 167.894 264.034 167.189 264.983 167.184C265.189 167.184 266.976 167.428 266.446 167.984V167.979Z" fill="#20261E"/>
<path d="M195.748 158.974C194.9 158.937 191.1 161.237 193.427 161.036C194.868 160.914 198.276 159.282 197.842 157.416C195.144 156.361 193.172 155.243 192.309 158.979C193.114 158.889 193.337 158.184 194.285 158.179C194.492 158.179 196.278 158.423 195.748 158.979V158.974Z" fill="#20261E"/>
<path d="M281.012 160.299C281.817 160.209 282.045 159.504 282.989 159.499C283.195 159.499 284.981 159.743 284.451 160.299C283.603 160.262 279.803 162.562 282.13 162.361C283.572 162.239 286.98 160.607 286.545 158.741C283.847 157.686 281.876 156.568 281.012 160.304V160.299Z" fill="#20261E"/>
<path d="M40.0569 167.979C39.2089 167.942 35.4088 170.242 37.7355 170.041C39.1771 169.919 42.585 168.286 42.1504 166.421C39.458 165.366 37.4811 164.248 36.6172 167.984C37.4228 167.894 37.6507 167.189 38.5941 167.184C38.8008 167.184 40.5869 167.428 40.0569 167.984V167.979Z" fill="#20261E"/>
<path d="M58.9514 186.751L57.1706 185.744L55.9834 187.239L56.0629 187.843L57.9338 189.115L59.2535 187.578L61.2092 188.876L62.2374 187.175L60.2658 185.484L58.9514 186.751Z" fill="#20261E"/>
<path d="M184.631 165.334C184.313 166.103 184.657 167.237 183.703 167.46C182.458 167.751 183.391 165.96 182.246 166.129C182.633 168.228 179.368 169.341 180.391 166.665C179.654 165.923 178.112 170.078 181.043 169.58C181.742 169.458 182.082 168.599 182.373 168.583C182.866 168.557 183.311 169.601 184.504 168.52C185.654 167.47 185.097 164.984 184.631 165.34V165.334Z" fill="#20261E"/>
<path d="M104.669 157.654C104.351 158.423 104.695 159.557 103.741 159.78C102.496 160.071 103.429 158.28 102.284 158.449C102.671 160.548 99.4061 161.661 100.429 158.985C99.6923 158.243 98.15 162.398 101.081 161.9C101.78 161.778 102.12 160.919 102.411 160.903C102.904 160.877 103.349 161.921 104.542 160.84C105.692 159.79 105.135 157.305 104.669 157.66V157.654Z" fill="#20261E"/>
<path d="M193.1 164.539C192.883 164.327 187.7 166.712 187.466 166.908C187.159 167.162 186.55 168.567 186.751 168.774C188.913 167.645 192.454 167.306 193.106 164.539H193.1Z" fill="#20261E"/>
<path d="M279.685 167.984C279.468 167.772 274.285 170.157 274.051 170.353C273.744 170.607 273.134 172.012 273.336 172.219C275.498 171.09 279.039 170.751 279.691 167.984H279.685Z" fill="#20261E"/>
<path d="M256.646 167.984C256.429 167.772 251.246 170.157 251.012 170.353C250.705 170.607 250.095 172.012 250.297 172.219C252.459 171.09 256 170.751 256.646 167.984Z" fill="#20261E"/>
<path d="M53.2966 167.984C53.0793 167.772 47.8959 170.157 47.6627 170.353C47.3553 170.607 46.7458 172.012 46.9472 172.219C49.1096 171.09 52.65 170.751 53.2966 167.984Z" fill="#20261E"/>
<path d="M184.446 162.965C184.721 162.737 185.267 161.205 185.156 161.094C184.949 160.887 180.068 163.23 179.787 163.463C179.479 163.712 178.886 165.101 179.071 165.329C180.253 164.544 183.529 163.707 184.446 162.965Z" fill="#20261E"/>
<path d="M104.478 155.291C104.753 155.063 105.299 153.531 105.188 153.42C104.981 153.213 100.1 155.556 99.819 155.789C99.5116 156.038 98.918 157.427 99.1035 157.655C100.285 156.87 103.561 156.033 104.478 155.291Z" fill="#20261E"/>
<path d="M235.202 188.633C235.875 188.659 242.829 186.598 241.557 185.458C239.447 186.02 235.907 186.264 235.202 188.633Z" fill="#20261E"/>
<path d="M23.3779 195.518C24.051 195.544 31.0046 193.482 29.7326 192.343C27.6232 192.905 24.0828 193.148 23.3779 195.518Z" fill="#20261E"/>
<path d="M162.387 188.633C163.06 188.659 170.013 186.598 168.741 185.458C166.632 186.02 163.092 186.264 162.387 188.633Z" fill="#20261E"/>
<path d="M90.8945 188.633C91.5676 188.659 98.5212 186.598 97.2492 185.458C95.1398 186.02 91.5994 186.264 90.8945 188.633Z" fill="#20261E"/>
<path d="M189.707 171.562L191.642 173.274C192.044 172.86 193.179 171.922 193.062 171.329L191.149 169.855L189.707 171.562Z" fill="#20261E"/>
<path d="M96.6869 168.414L94.7736 166.94L93.332 168.647L95.2665 170.359C95.6693 169.945 96.8035 169.007 96.6869 168.414Z" fill="#20261E"/>
<path d="M180.709 173.411C182.113 174.9 183.285 175.621 184.069 173.178L182.156 171.704L180.714 173.411H180.709Z" fill="#20261E"/>
<path d="M129.022 178.701C128.874 177.964 131.206 176.13 128.492 174.996V174.609C129.298 174.53 129.594 173.751 129.547 173.019C127.681 173.66 126.404 176.538 128.773 177.402C128.391 178.43 127.443 179.676 128.402 180.704C129.96 180.959 130.856 180.185 131.667 178.971C131.11 178.6 129.202 179.618 129.022 178.701Z" fill="#20261E"/>
<path d="M130.269 268.122C129.23 267.529 128.302 267.062 127.338 266.485C126.903 266.225 125.896 266.04 125.748 265.891C125.297 265.446 125.647 264.126 123.813 264.752C122.934 265.048 123.214 265.642 122.965 265.891C122.881 265.976 121.291 267.1 121.11 267.216C120.782 267.428 119.504 267.561 118.784 267.937C112.927 271.006 112.667 282.422 117.04 286.789C117.734 287.483 120.904 289.333 121.884 289.757C123.082 290.271 123.93 290.483 125.266 290.303C126.4 290.149 130.963 287.595 131.785 286.763C136.019 282.47 135.855 271.308 130.274 268.133L130.269 268.122ZM121.974 266.755L123.824 267.285C122.918 264.481 125.838 264.561 124.889 267.285C125.525 266.766 126.522 266.32 127.004 267.285C125.833 267.327 124.969 267.789 124.492 268.875C123.872 267.884 123.522 267.81 122.557 267.359C122.181 267.184 121.831 267.518 121.98 266.76L121.974 266.755ZM119.086 268.499C120.872 267.582 123.442 267.322 123.829 269.787C123.416 270.937 122.488 271.467 121.709 270.327L122.764 269.659C123.633 268.398 117.973 268.562 117.999 270.719C118.789 270.629 119.722 270.03 120.379 270.852C119.197 271.44 118.095 271.673 116.966 272.463C116.24 272.972 115.81 273.581 115.095 274.032C115.832 271.896 116.971 269.585 119.086 268.493V268.499ZM115.09 281.584L117.119 283.657L120.384 284.759C120.384 285.952 118.641 285.544 118.005 285.024C117.3 285.877 122.51 288.755 122.769 286.084L121.709 285.422C124.492 283.901 124.598 287.77 121.725 288.077C118.407 288.432 115.715 284.457 115.095 281.579L115.09 281.584ZM121.709 288.861C122.552 288.358 123.935 288.384 124.094 287.144H124.614L125.149 288.066L127.264 288.994C125.403 289.778 123.469 290.128 121.709 288.861ZM124.879 285.962C124.974 284.971 126.41 284.637 127.004 285.427L125.944 286.089C126.257 288.66 131.594 286.005 130.709 285.029L129.267 285.575L128.594 284.77L131.594 283.662L133.624 281.59C133.518 285.379 126.898 291.405 124.884 285.968L124.879 285.962ZM127.804 284.234C127.592 285.226 128.027 285.655 128.589 286.344L127.264 286.609C128.408 284.266 125.589 283.243 124.481 285.289H124.094C123.373 283.196 120.331 284.499 121.439 286.609L120.114 286.344L121.057 284.484C112.678 283.026 112.768 272.654 121.174 271.514C121.047 270.815 120.803 270.062 120.114 269.797L121.439 269.4C120.421 272.055 123.252 272.209 124.614 270.454C125.281 272.675 128.44 271.636 127.269 269.4C129.945 269.326 127.131 270.465 127.91 271.536C128.022 271.689 130.693 272.421 131.488 272.988C136.237 276.396 133.65 284.102 127.804 284.234ZM128.594 271.249V270.46L130.714 270.725C130.327 268.955 126.887 268.001 125.949 269.659C129.05 271.159 124.115 271.583 125.08 269.214C126.834 264.916 133.814 270.942 133.624 274.164C132.389 272.659 130.65 271.318 128.594 271.249Z" fill="#20261E"/>
<path d="M104.654 290.828C103.143 288.766 101.977 286.439 101.32 283.969L102.905 283.302L100.795 280.652C101.903 279.862 103.498 282.597 104.235 282.109C104.532 281.521 104.362 280.461 104.638 279.994C104.845 279.639 105.804 279.48 105.974 278.696C106.159 277.832 104.956 277.599 104.649 277.074C104.304 276.491 104.5 275.463 103.838 274.965C103.159 274.822 101.702 277.116 100.795 276.687C101.145 274.959 104.076 274.016 101.378 272.993C101.866 270.984 102.481 269.066 103.599 267.306C103.96 266.734 106.276 264.29 105.825 263.845C101.935 264.942 99.7938 269.569 98.3522 273.051L95.5008 273.645C94.9814 274.408 97.5943 275.818 97.3505 276.82C96.0626 276.82 95.363 275.505 94.303 274.975C93.5451 275.442 93.8525 276.83 93.5769 277.291C93.3861 277.609 92.2042 277.721 92.3049 278.797C92.3844 279.655 93.4179 279.782 93.6564 280.185C93.9055 280.614 94.0274 282.284 94.1705 282.385C95.5697 282.369 95.9672 280.455 97.3452 280.535L95.4955 283.71L98.3999 284.377C100.16 287.822 102.264 292.025 106.212 293.25C106.625 292.29 105.184 291.575 104.649 290.838L104.654 290.828ZM101.85 277.35L103.7 276.284C103.446 277.996 103.838 277.731 105.02 278.532C104.808 278.956 104.013 279.162 103.832 279.459C103.159 280.577 104.5 281.717 101.85 279.592L102.666 278.802C102.672 277.646 101.686 278.219 101.85 277.344V277.35ZM94.833 281.044C94.1493 279.968 94.6793 279.183 93.1158 278.802C94.1281 278.002 94.7164 277.779 94.4408 276.284L96.2905 277.482V277.864C94.8224 278.198 95.5909 279.183 96.5608 279.592L94.8383 281.044H94.833ZM100.25 279.851C98.5801 281.293 96.4707 278.812 97.9441 277.413C99.4546 275.982 101.935 278.399 100.25 279.851ZM96.8205 273.905L98.9034 273.868C99.8415 271.064 101.076 268.228 103.313 266.23C101.94 268.589 100.801 271.127 100.536 273.899H101.32C101.681 274.27 100.43 275.776 99.868 275.765L99.073 274.965L98.4052 275.76H97.8858L96.8205 273.91V273.905ZM101.368 288.284C100.727 287.345 99.3804 283.985 99.0783 283.688C98.5483 283.153 97.5625 283.747 97.0855 283.031L97.8858 281.579H98.4052L99.073 282.374L100.128 281.579L101.32 283.037L100.525 283.429C100.928 286.158 102.279 288.474 103.573 290.838C102.831 290.075 101.961 289.153 101.368 288.284Z" fill="#20261E"/>
<path d="M186.327 269.012C186.38 268.604 186.842 268.281 186.852 267.937L185.262 265.292C183.185 266.331 184.467 267.725 184.7 269.299C185.278 273.263 185.559 277.312 186.031 281.287C185.559 282.072 181.69 279.978 180.932 280.058C180.312 280.121 178.34 281.372 177.264 281.658C175.685 282.072 172.595 282.628 171.376 281.298C170.284 280.105 170.131 273.91 169.871 271.949C169.601 269.94 169.193 267.947 168.843 265.96C166.951 267.931 168.493 271.509 168.811 274.069C169.542 279.915 168.451 286.216 176.787 284.096C177.879 283.821 180.148 282.48 180.672 282.437C181.695 282.353 184.563 284.494 186.062 283.572C188.527 282.088 185.967 271.811 186.333 269.018L186.327 269.012Z" fill="#20261E"/>
<path d="M164.712 278.669C164.426 279.825 165.841 282.024 162.751 280.652C161.129 279.931 161.882 279.305 161.956 277.874C160.763 278.224 160.827 279.692 159.709 280.524C157.366 282.268 155.681 281.06 154.409 278.94C152.167 281.812 157.451 284.605 154.684 287.42C152.638 289.497 147.084 290.6 145.049 288.035C143.22 285.729 145.097 283.954 144.879 281.584C141.996 285.141 142.319 291.405 147.794 291.909C152.532 292.343 157.504 288.973 156.46 283.826L156.645 283.567C158.235 283.471 159.412 283.01 160.535 281.876C165.109 285.448 166.837 281.367 165.926 277.09C165.539 276.645 164.754 278.5 164.712 278.68V278.669Z" fill="#20261E"/>
<path d="M201.288 278.124C198.442 274.615 195.416 283.153 199.2 283.355C200.233 283.408 200.551 282.507 201.41 282.374C200.912 285.936 197.069 289.953 193.534 290.52C192.988 290.61 190.545 290.409 190.556 290.981C192.994 292.497 196.476 292.264 198.734 290.43C201.527 288.156 203.753 281.171 201.283 278.129L201.288 278.124ZM198.5 280.387L199.46 279.48L200.61 280.387C199.947 281.166 199.173 281.171 198.5 280.387Z" fill="#20261E"/>
<path d="M191.609 284.102C191.652 284.473 191.763 284.87 192.134 284.494C193.491 279.597 192.102 274.249 191.609 269.267C191.509 268.223 192.028 266.548 191.079 265.96C190.798 267.015 190.152 267.799 190.115 268.96C190.019 271.806 191.021 276.311 191.339 279.337C191.498 280.837 191.424 282.644 191.604 284.107L191.609 284.102Z" fill="#20261E"/>
<path d="M191.975 264.354C193.899 264.174 196.612 261.524 194.927 259.86C193.348 258.296 191.795 262.292 191.164 262.488C190.618 262.658 189.972 262.054 189.489 262.361C188.975 263.209 188.35 264.115 188.435 265.16C189.972 262.992 190.125 264.529 191.975 264.354ZM194.519 261.98L192.139 262.775C192.468 261.646 194.137 260.215 194.519 261.98Z" fill="#20261E"/>
<path d="M180.225 268.605C179.907 269.373 180.251 270.507 179.297 270.73C178.052 271.021 178.984 269.23 177.84 269.4C178.227 271.498 174.962 272.611 175.985 269.935C175.248 269.193 173.706 273.348 176.637 272.85C177.336 272.728 177.675 271.869 177.967 271.853C178.46 271.827 178.905 272.871 180.097 271.79C181.248 270.74 180.691 268.255 180.225 268.61V268.605Z" fill="#20261E"/>
<path d="M195.055 272.839C197.217 271.711 200.757 271.371 201.404 268.605C201.187 268.393 196.003 270.778 195.77 270.974C195.463 271.228 194.853 272.633 195.055 272.839Z" fill="#20261E"/>
<path d="M180.04 266.241C180.321 266.013 180.862 264.481 180.75 264.37C180.544 264.163 175.662 266.506 175.382 266.739C175.074 266.988 174.481 268.377 174.666 268.605C175.848 267.82 179.123 266.983 180.04 266.241Z" fill="#20261E"/>
<path d="M157.451 289.789C158.124 289.815 165.078 287.754 163.806 286.614C161.696 287.176 158.156 287.42 157.451 289.789Z" fill="#20261E"/>
<path d="M176.808 276.904L178.763 278.404L179.94 276.464L178.016 274.98C177.502 275.309 176.617 276.279 176.808 276.904Z" fill="#20261E"/>
<path d="M125.833 274.679C125.388 274.016 124.079 274.737 123.485 274.652C123.045 274.588 122.754 274.058 122.24 274.17C122.176 275.399 121.985 276.375 123.491 276.491C124.074 276.539 124.922 275.982 125.298 276.534C125.441 277.885 125.399 278.961 125.754 280.312C125.823 280.567 126.194 282.342 126.734 281.844C127.54 281.097 126.432 279.051 126.278 278.203C126.156 277.535 126.024 274.965 125.833 274.679Z" fill="#20261E"/>
<path d="M49.3688 73.9994C46.6605 73.9994 46.7453 79.2994 43.2526 79.7817C40.9047 80.105 38.8483 79.7499 38.1381 77.2642C37.1099 73.6761 37.2053 68.6676 36.5216 64.8463C36.4421 64.417 36.6594 63.9824 36.1241 63.6591C35.6577 64.1626 35.2072 64.947 35.1807 65.6466C35.0694 68.498 36.3732 72.9023 36.5216 75.971C36.6223 78.0592 36.6223 79.3312 34.2108 79.7446C31.9742 80.1262 30.999 79.7393 29.6581 78.0168L27.7819 63.6591C27.1618 62.9436 26.7113 65.5618 26.706 65.9063C26.6318 69.1764 28.0151 73.2733 28.0628 76.5169C28.084 77.9691 25.9163 78.9602 24.7026 79.5061C22.2434 80.6085 18.703 81.5201 16.0795 80.7887C13.9224 80.1898 12.3642 78.6687 12.7564 76.2943C12.9048 75.4039 13.5567 74.7414 13.7475 74.1107C14.0337 73.162 12.8677 74.1319 12.5762 74.5294C11.4579 76.0664 11.1929 78.8966 12.0144 80.6191C14.5796 86.0198 25.6195 82.6861 28.4497 78.7482C29.4249 83.2956 35.9386 83.4281 37.3219 79.2782L38.8112 81.3558C41.4188 83.1101 45.1447 82.2197 46.4485 79.3047C47.5933 79.84 49.8564 80.9 51.0171 80.4018C53.471 79.3418 51.2662 73.9941 49.3688 73.9994ZM47.3866 77.2854C48.5473 75.5735 49.9465 76.501 50.291 78.2129C49.2469 78.2765 48.0809 78.1758 47.3866 77.2854Z" fill="#20261E"/>
<path d="M76.0652 66.0812C75.0264 65.4876 74.0989 65.0212 73.1343 64.4435C72.6997 64.1838 71.6927 63.9983 71.5443 63.8499C71.0938 63.4047 71.4436 62.085 69.6098 62.7104C68.73 63.0072 69.0109 63.6008 68.7618 63.8499C68.677 63.9347 67.087 65.0583 66.9068 65.1749C66.5782 65.3869 65.3009 65.5194 64.5801 65.8957C58.766 68.9379 58.4957 79.9354 62.741 84.3715C63.7003 85.3732 68.1311 87.8907 69.4932 88.0232C69.9861 88.0709 70.5691 88.0656 71.062 87.9967C72.1962 87.843 76.7595 85.2884 77.581 84.4563C81.7998 80.1739 81.6196 69.2506 76.0705 66.0918L76.0652 66.0812ZM67.776 64.7085L69.6257 65.2385C68.7194 62.4348 71.6397 62.5143 70.691 65.2385C71.327 64.7191 72.3234 64.2739 72.8057 65.2385C71.6344 65.2809 70.7705 65.742 70.2935 66.8285C69.6734 65.8374 69.3236 65.7632 68.359 65.3127C67.9827 65.1378 67.6329 65.4717 67.7813 64.7138L67.776 64.7085ZM64.8875 66.4575C66.6736 65.5406 69.2441 65.2756 69.631 67.7454C69.2176 68.8955 68.2901 69.4255 67.511 68.286L68.5657 67.6182C69.4349 66.3568 63.7745 66.5211 63.801 68.6782C64.5907 68.5881 65.5235 67.9892 66.1807 68.8107C64.9988 69.399 63.8964 69.6322 62.7675 70.4219C62.0414 70.9307 61.6121 71.5402 60.8966 71.9907C61.6333 69.8548 62.7728 67.544 64.8875 66.4522V66.4575ZM60.8913 79.2729L62.9212 81.3452L66.186 82.4476C66.186 83.6401 64.4423 83.232 63.8063 82.7126C63.0961 83.5659 68.3113 86.4438 68.571 83.7726L67.511 83.1101C70.2935 81.589 70.3995 85.458 67.5269 85.7654C64.2091 86.1205 61.5167 82.1455 60.8966 79.2676L60.8913 79.2729ZM67.511 86.5551C68.3537 86.0516 69.737 86.0781 69.896 84.8379H70.4154L70.9507 85.7601L73.0654 86.6876C71.2051 87.472 69.2706 87.8218 67.5057 86.5551H67.511ZM70.6804 83.656C70.7758 82.6649 72.2121 82.331 72.8057 83.1207L71.7457 83.7832C72.0584 86.3537 77.3955 83.6984 76.5104 82.7232L75.0688 83.2691L74.3957 82.4635L77.3955 81.3558L79.4254 79.2835C79.3194 83.073 72.6997 89.0991 70.6857 83.6613L70.6804 83.656ZM73.606 81.9282C73.394 82.9193 73.8286 83.3486 74.3904 84.0376L73.0654 84.3026C74.2102 81.96 71.3906 80.9371 70.2829 82.9829H69.896C69.1752 80.8894 66.133 82.1932 67.2407 84.3026L65.9157 84.0376L66.8591 82.1773C58.4798 80.6774 58.5964 70.6869 66.9757 69.4732C66.8485 68.7736 66.6047 68.021 65.9157 67.756L67.2407 67.3585C66.2231 70.0138 69.0533 70.1675 70.4154 68.4132C71.0832 70.6339 74.242 69.5951 73.0707 67.3585C75.7472 67.2843 72.9329 68.4238 73.712 69.4944C73.8233 69.6481 76.4945 70.3795 77.2895 70.9466C82.0913 74.3969 79.3671 81.7533 73.606 81.9282ZM74.3904 69.2082V68.4185L76.5104 68.6835C76.1235 66.9133 72.6838 65.9593 71.7457 67.6182C74.8462 69.1181 69.9119 69.5421 70.8765 67.173C72.6308 62.8747 79.6109 68.9008 79.4201 72.1232C78.1852 70.618 76.4468 69.2771 74.3904 69.2082Z" fill="#20261E"/>
<path d="M255.221 77.8309C255.687 78.3556 257.314 78.3503 257.966 78.1595C258.454 78.0164 258.597 77.3009 259.212 77.4175C259.821 79.246 256.779 79.7071 255.385 79.8078C253.127 79.9721 251.32 79.9615 250.504 77.5235L249.152 65.5031C248.68 64.9572 247.679 67.2733 247.854 67.7238L249.804 85.6431C246.762 89.5333 239.326 89.475 240.174 83.1362C240.301 82.2087 241.441 80.7777 240.418 80.3325C237.969 84.0531 237.943 90.1481 243.46 90.6569C249.099 91.1763 251.903 86.56 250.742 81.3925C252.64 82.7334 257.436 82.4366 259.09 80.8731C260.77 79.2884 260.494 76.4529 259.609 74.5078C257.028 68.8421 253.249 75.6155 255.226 77.8309H255.221ZM256.286 75.9706C255.867 75.7798 256.217 74.8788 256.334 74.8046C257.653 73.9831 259.519 76.7338 256.286 75.9706Z" fill="#20261E"/>
<path d="M221.147 78.1436C218.487 78.6577 216.335 79.1506 214.613 76.6066C213.939 75.6155 213.553 75.0484 214.639 74.2799C216.584 72.9072 219.738 73.4478 221.879 73.9725C221.232 71.2801 216.982 70.6176 214.909 71.9002C212.307 73.5114 211.321 77.2903 213.939 79.405C212.779 80.0887 211.295 79.7548 210.002 79.7654C209.593 78.2549 208.258 75.7427 206.419 76.914C206.233 77.0306 205.104 78.4298 204.993 78.663C203.679 81.4455 206.212 82.5532 208.639 82.1822C207.67 86.8886 203.048 88.7807 198.58 88.5369V89.3266C205.046 90.8954 208.788 88.9874 209.954 82.2935C211.39 82.1716 212.8 82.0656 214.215 81.79C215.906 81.4561 222.006 80.094 223.193 79.3838C223.485 79.2089 225.085 77.4493 224.799 77.1525C223.559 77.3539 222.393 77.9051 221.158 78.1436H221.147ZM205.995 79.4103C206.795 78.2602 207.558 78.8114 208.109 79.8025C207.813 79.6859 205.703 80.147 205.995 79.4103Z" fill="#20261E"/>
<path d="M281.742 74.6141C281.344 73.9781 281.662 73.1513 281.048 72.6531L278.011 74.5081C277.788 73.5647 279.998 71.874 279.744 71.3281C279.304 70.3741 277.55 71.0949 276.935 70.6815C276.786 70.5808 275.716 67.9891 275.403 67.4485C274.179 65.3444 271.555 61.9895 269.006 61.804C268.762 62.7845 269.616 62.8057 269.971 63.2191C271.81 65.3603 273.283 67.9414 273.972 70.6868C273.866 71.2698 272.165 71.0684 272.446 71.7309C272.737 72.4146 274.545 73.2891 274.566 74.3809C273.479 75.0911 272.175 72.5736 271.55 72.6743C270.707 72.8121 270.972 74.2696 270.729 74.7837C270.527 75.2077 269.547 75.3667 269.382 76.0822C269.181 76.962 270.506 77.3436 270.829 77.8524C271.206 78.446 271.015 79.3788 271.783 79.8081C272.621 78.9866 273.235 78.022 274.56 78.0909C274.11 79.6332 271.227 80.7992 274.03 81.4193C273.622 83.3432 273.05 85.2459 272.027 86.9419C271.402 87.9754 269.865 89.3428 269.483 90.2279C268.911 91.5529 270.819 90.4611 271.253 90.1431C273.94 88.1874 275.774 84.6205 277.051 81.6419L279.744 80.8893C280.353 80.0148 278.111 78.9336 278.005 77.9637C279.288 77.9955 280.035 78.976 281.048 79.5484C281.641 79.0926 281.493 78.2605 281.853 77.704C282.15 77.2535 282.855 77.1422 282.998 76.7235C283.48 75.3243 282.145 75.2872 281.737 74.6247L281.742 74.6141ZM271.656 78.2181C271.656 77.8789 271.704 77.4602 271.524 77.1581C271.248 76.6917 270.066 76.7818 270.331 76.2306C270.585 75.7006 272.191 75.4886 271.656 73.9781L273.506 75.0381L272.7 76.2253L273.765 77.4125L271.651 78.2128L271.656 78.2181ZM273.776 71.7256L274.571 71.4606C274.815 71.3122 274.799 71.2433 274.788 70.9942C274.714 69.1233 272.843 65.8055 271.656 64.3109L272.181 64.1837C273.129 65.6889 274.29 66.8867 275.149 68.5032C276.15 70.4006 275.695 72.1443 278.541 71.5984L277.475 73.1831C276.241 72.6107 276.15 72.4305 275.101 73.4481L273.776 71.7256ZM277.486 77.2906C275.377 79.6226 273.029 74.9056 276.06 74.5717C277.412 74.4233 278.604 76.0557 277.486 77.2906ZM278.541 80.5978L276.453 80.6296C275.583 83.5181 274.174 86.4649 271.926 88.5425C272.356 87.3977 273.156 86.5285 273.638 85.3572C273.93 84.6523 275.016 81.2868 274.714 80.8522C274.555 80.619 273.967 80.672 274.041 80.4653L275.101 78.7428L276.288 79.5484L277.475 78.7428L278.535 80.5925L278.541 80.5978ZM280.92 78.2181C280.661 78.4831 279.06 77.651 278.806 77.4178C278.535 77.174 279.887 76.9726 279.882 76.2253L278.806 75.0434L280.92 73.9834C280.634 75.3561 281.413 75.4727 282.24 76.2306C281.461 76.8295 280.73 77.0468 280.92 78.2181Z" fill="#20261E"/>
<path d="M132.388 66.9712C132.441 66.5631 132.902 66.2398 132.912 65.8953L131.322 63.2506C129.245 64.2894 130.527 65.6833 130.761 67.2574C131.328 71.1423 131.566 75.1014 132.102 78.9916C131.715 79.5428 128.031 78.0005 126.992 78.0429C125.858 78.0906 124.353 79.1135 123.123 79.4156C121.131 79.9032 117.389 80.4915 116.567 78.0058C115.91 76.0183 115.968 72.1705 115.666 69.9074C115.396 67.8987 114.988 65.9059 114.638 63.9184C112.751 65.8794 114.278 69.4781 114.606 72.0274C115.465 78.6312 114.696 84.7421 124.046 81.3978C124.75 81.1487 126.287 80.1629 126.733 80.1258C127.809 80.0357 130.861 82.3518 132.255 81.1275C134.55 79.1135 131.985 70.0611 132.393 66.9712H132.388Z" fill="#20261E"/>
<path d="M111.135 75.3772C110.563 76.2464 110.271 77.0679 110.679 78.0855L110.239 78.7215L107.605 77.9583L107.754 75.8277C106.657 75.9708 106.757 77.3594 105.893 78.0696C103.864 79.7285 101.463 79.0713 100.212 76.893C98.2879 79.1296 101.977 81.5835 101.298 84.0427C100.429 87.175 90.3962 89.2897 89.9987 83.6346C89.8927 82.1029 91.0587 80.7514 90.6771 79.2727C87.7939 82.829 88.1172 89.0936 93.5921 89.5971C98.3303 90.0317 103.302 86.6609 102.258 81.5146L102.443 81.2549C104.033 81.1595 105.21 80.6984 106.333 79.5642C110.679 83.0092 112.688 79.3257 111.723 75.0433C111.098 74.9108 111.299 75.1334 111.13 75.3878L111.135 75.3772Z" fill="#20261E"/>
<path d="M165.392 72.7379C165.286 72.6372 164.73 72.351 164.687 72.3881C163.304 74.9957 165.132 75.3879 165.975 77.5609L165.567 77.9001C162.769 78.5149 159.981 79.5325 157.103 79.7657C154.214 79.9989 148.337 80.195 148.787 75.955C148.819 75.6476 149.794 73.6283 148.936 73.9781C146.853 76.1405 147.038 79.7604 149.762 81.3504C152.821 83.1312 160.442 81.8009 163.696 80.5342C164.216 80.3328 166.256 79.4159 166.532 79.135C167.878 77.7676 166.654 73.9304 165.397 72.7432L165.392 72.7379Z" fill="#20261E"/>
<path d="M183.151 77.6139C183.055 77.0945 181.428 73.8827 180.835 74.5081C180.008 76.9938 181.174 77.2641 182.165 79.1297C179.536 80.0943 175.906 80.4759 173.817 78.2181C172.779 79.6438 172.98 81.0165 174.697 81.7055L174.771 82.05C174.082 84.8961 171.946 86.7617 169.254 87.6839L164.426 88.675C169.789 91.5052 175.572 88.2563 175.81 82.1878C179.234 82.262 184.068 82.4634 183.156 77.6139H183.151Z" fill="#20261E"/>
<path d="M199.868 75.7323C199.391 74.6723 196.004 70.6178 194.992 72.1124C194.266 74.4232 195.591 74.0364 196.709 74.9215C197.944 75.902 198.919 77.2005 199.608 78.6156C197.663 80.0519 194.774 80.036 192.49 79.5378C191.706 82.5747 193.237 82.405 195.792 82.1824C199.942 81.8167 201.739 79.9034 199.868 75.7323Z" fill="#20261E"/>
<path d="M229.023 64.1837C228.573 64.0883 228.488 64.3056 228.271 64.6183C226.84 66.6482 228.737 76.2147 229.023 79.1456C229.066 79.5749 228.901 82.1984 229.161 82.1931C229.665 82.2249 229.776 81.7161 229.908 81.3504C231.085 78.0167 229.341 70.7504 229.029 66.9609C228.954 66.044 229.076 65.1006 229.029 64.1837H229.023Z" fill="#20261E"/>
<path d="M137.148 63.9131C136.867 64.9678 136.22 65.7522 136.183 66.9129C136.088 69.7431 137.084 74.28 137.407 77.2904C137.561 78.7161 137.508 80.4174 137.672 81.7954C137.715 82.1664 137.826 82.5639 138.197 82.1876C139.543 77.3858 138.155 72.1175 137.672 67.2256C137.572 66.1815 138.091 64.5067 137.142 63.9184L137.148 63.9131Z" fill="#20261E"/>
<path d="M22.4979 72.9178C21.7824 72.8701 20.8867 73.1775 20.3779 72.5203C20.2613 71.9903 22.588 71.2748 22.4873 69.8756C21.4697 68.9269 20.0864 70.6388 19.6518 71.5398C18.4858 73.9778 18.8356 74.6244 21.4326 75.1756C20.3567 76.1932 18.8303 76.2568 17.4629 76.5006C20.5157 78.4934 23.0862 76.3628 22.4926 72.9284L22.4979 72.9178Z" fill="#20261E"/>
<path d="M227.438 59.154L228.599 58.8996L229.065 59.631L229.685 59.6734C230.427 59.3713 230.099 57.6488 229.383 57.3202C227.093 57.5852 224.915 59.5515 227.173 61.5231C226.171 61.6556 225.885 62.5566 225.583 63.3781L231.355 61.7404L231.667 60.2034C230.173 60.744 227.931 61.1256 227.433 59.1487L227.438 59.154Z" fill="#20261E"/>
<path d="M137.232 60.4471C136.686 60.6167 136.04 60.0125 135.558 60.3199C135.043 61.1679 134.418 62.0742 134.503 63.1183C136.04 60.9506 136.194 62.4876 138.043 62.3127C139.967 62.1325 142.681 59.4825 140.995 57.8183C139.416 56.2548 137.863 60.251 137.232 60.4471ZM138.208 60.7333C138.536 59.6044 140.206 58.1734 140.587 59.9383L138.208 60.7333Z" fill="#20261E"/>
<path d="M255.952 63.9664C256.938 63.3251 257.537 61.8835 258.676 62.5937C259.084 61.2051 258.067 59.896 258.374 58.2636C256.217 56.6895 253.784 60.8871 256.821 61.9312C255.926 62.9435 254.685 63.5053 253.62 64.295C253.323 64.5123 252.963 64.295 253.122 64.9787C253.504 65.2755 255.512 64.2579 255.952 63.9717V63.9664ZM256.567 59.8059V59.4137H257.622V60.4684H257.229L256.567 59.8059Z" fill="#20261E"/>
<path d="M196.72 62.3287C197.128 60.9401 196.111 59.631 196.418 57.9986C194.261 56.4245 191.828 60.6221 194.865 61.6662C193.97 62.6785 192.729 63.2403 191.664 64.03C191.367 64.2526 191.007 64.03 191.166 64.7137C191.547 65.0105 193.556 63.9929 193.996 63.7067C194.982 63.0654 195.581 61.6238 196.72 62.334V62.3287ZM194.606 59.5409V59.1487H195.66V60.2034H195.268L194.606 59.5409Z" fill="#20261E"/>
<path d="M215.703 67.1464C216.689 66.5051 217.288 65.0635 218.427 65.7737C218.835 64.3851 217.818 63.076 218.125 61.4436C215.968 59.8695 213.535 64.0671 216.572 65.1112C215.677 66.1235 214.436 66.6853 213.371 67.475C213.074 67.6923 212.714 67.475 212.873 68.1587C213.255 68.4555 215.263 67.4379 215.703 67.1517V67.1464ZM216.318 62.9859V62.5937H217.373V63.6484H216.98L216.318 62.9859Z" fill="#20261E"/>
<path d="M248.616 62.0582C247.768 62.0211 243.968 64.3213 246.295 64.1199C247.737 63.998 251.145 62.3656 250.71 60.5C248.018 59.4453 246.041 58.327 245.177 62.0635C245.982 61.9734 246.21 61.2685 247.154 61.2632C247.36 61.2632 249.146 61.507 248.616 62.0635V62.0582Z" fill="#20261E"/>
<path d="M256.658 67.6023L254.872 66.5847L253.774 68.4185L255.64 69.9767L256.96 68.4185L258.682 69.6269L259.96 68.0157L257.633 66.3038L256.658 67.6023Z" fill="#20261E"/>
<path d="M156.062 69.4784C156.762 69.3565 157.101 68.4979 157.393 68.482C157.886 68.4555 158.331 69.4996 159.523 68.4184C160.673 67.369 160.117 64.8833 159.65 65.2384C159.332 66.0069 159.677 67.1411 158.723 67.3637C157.477 67.6552 158.41 65.8638 157.265 66.0334C157.652 68.1322 154.388 69.2452 155.41 66.5687C154.674 65.8267 153.131 69.9819 156.062 69.4837V69.4784Z" fill="#20261E"/>
<path d="M126.293 66.2984C125.975 67.0669 126.319 68.2011 125.365 68.4237C124.12 68.7152 125.053 66.9238 123.908 67.0934C124.295 69.1922 121.03 70.3052 122.053 67.6287C121.316 66.8867 119.774 71.0419 122.705 70.5384C123.404 70.4165 123.744 69.5579 124.035 69.542C124.528 69.5155 124.973 70.5596 126.166 69.4784C127.316 68.429 126.759 65.9433 126.293 66.2984Z" fill="#20261E"/>
<path d="M175.009 67.3585C174.792 67.1465 169.609 69.5315 169.376 69.7276C169.068 69.982 168.459 71.3865 168.66 71.5932C170.822 70.4643 174.363 70.1251 175.009 67.3585Z" fill="#20261E"/>
<path d="M50.031 64.9735C49.8137 64.7615 44.6303 67.1465 44.3971 67.3426C44.0897 67.597 43.4802 69.0015 43.6816 69.2082C45.844 68.0793 49.3844 67.7401 50.0363 64.9735H50.031Z" fill="#20261E"/>
<path d="M226.039 54.633C225.731 54.8874 225.122 56.2919 225.323 56.4986C227.486 55.3697 231.026 55.0305 231.673 52.2639C231.455 52.0519 226.272 54.4369 226.039 54.633Z" fill="#20261E"/>
<path d="M126.109 63.9347C126.384 63.7068 126.93 62.1751 126.819 62.0638C126.612 61.8571 121.731 64.1997 121.45 64.4329C121.143 64.682 120.549 66.0706 120.734 66.2985C121.916 65.5141 125.192 64.6767 126.109 63.9347Z" fill="#20261E"/>
<path d="M103.255 87.4773C103.928 87.5038 110.882 85.4421 109.61 84.3026C107.5 84.8644 103.96 85.1082 103.255 87.4773Z" fill="#20261E"/>
<path d="M33.3525 88.2723C34.0256 88.2988 40.9792 86.2371 39.7072 85.0976C37.5978 85.6594 34.0574 85.9032 33.3525 88.2723Z" fill="#20261E"/>
<path d="M18.2578 88.8023C18.9309 88.8288 25.8845 86.7671 24.6125 85.6276C22.5031 86.1894 18.9627 86.4332 18.2578 88.8023Z" fill="#20261E"/>
<path d="M177.396 92.5123C178.07 92.5388 185.023 90.4771 183.751 89.3376C181.642 89.8994 178.101 90.1432 177.396 92.5123Z" fill="#20261E"/>
<path d="M154.621 92.7773C155.294 92.8038 162.248 90.7421 160.976 89.6026C158.866 90.1644 155.326 90.4082 154.621 92.7773Z" fill="#20261E"/>
<path d="M159.322 86.2845L157.403 84.5779C157.011 85.0761 155.749 85.8234 155.961 86.5177L157.896 87.9911L159.322 86.2845Z" fill="#20261E"/>
<path d="M122.869 74.8631L124.825 76.363L126.001 74.4231L124.077 72.9391C123.563 73.2677 122.684 74.2377 122.869 74.8631Z" fill="#20261E"/>
<path d="M193.031 67.4909L195.252 69.2081C195.581 68.7417 196.741 67.6711 196.429 67.1305L194.473 65.8214L193.037 67.4909H193.031Z" fill="#20261E"/>
<path d="M178.482 86.5018C179.648 88.1766 180.915 88.6059 181.588 86.3269C181.286 85.8499 180.236 84.7634 179.68 84.8747C179.367 84.933 178.275 86.0248 178.477 86.5018H178.482Z" fill="#20261E"/>
<path d="M69.0995 72.1233C68.3946 73.7822 69.5923 74.4447 70.0958 75.7538C70.541 76.9092 70.6842 77.9639 70.9545 79.1405C71.0499 79.5539 70.7795 79.6016 71.4791 79.538C71.7865 78.1017 71.5639 76.6495 71.1399 75.245C71.0551 74.9588 69.7196 71.5032 69.0995 72.1233Z" fill="#20261E"/>
</svg>
