<svg width="306" height="287" viewBox="0 0 306 287" fill="none" xmlns="http://www.w3.org/2000/svg">
<path d="M268.997 23.136C268.287 23.5441 268.186 24.5776 267.264 24.726C265.753 24.9698 264.19 23.4752 263.835 23.4752C263.697 23.4752 262.372 24.5723 261.428 24.6995C260.04 24.885 259.033 24.2013 258.317 24.2596C257.904 24.2914 257.226 24.8161 256.627 24.9221C254.406 25.3143 252.275 24.7525 250.998 22.8657C249.212 26.3531 241.114 25.8867 242.258 20.7457C239.889 20.7563 237.87 22.2827 235.708 23.0671C231.452 24.6147 226.915 25.15 222.399 24.9857C223.147 28.4095 221.88 31.5471 218.498 32.8615C212.6 35.1511 207.019 32.199 209.488 25.4362C209.579 25.1924 210.548 22.8657 211.015 23.3904C208.842 28.7328 211.025 32.2149 216.908 31.0065C218.053 30.7733 221.101 29.443 221.334 28.2876C221.938 25.2984 218.705 22.9823 220.544 20.3429C220.995 20.009 221.753 22.0866 221.933 22.2668C223.072 23.3692 231.918 21.9117 233.778 21.4082C235.019 21.0743 236.905 20.592 237.753 19.691C236.497 19.6009 234.865 18.8748 233.646 18.8907C232.517 18.9066 231.669 19.7546 230.609 19.9507C231.065 13.7391 238.114 17.9049 241.893 18.3289C243.075 18.4614 244.278 18.1964 245.438 18.4879C245.825 18.737 244.908 20.3535 244.771 20.486C244.076 21.1379 243.244 19.956 243.308 20.8835C243.451 23.0671 248.12 22.8816 249.588 22.1237C250.797 21.4983 250.956 20.3959 251.915 19.6857C251.639 23.4487 257.533 23.189 259.478 21.4241C259.955 20.9895 260.146 20.2157 260.787 19.956L260.262 22.6007C261.285 22.6378 262.547 22.4894 263.427 21.9276C264.306 21.3658 264.481 20.2634 265.419 19.9507L265.027 21.7951C268.244 23.4646 268.027 22.2509 269.394 19.6963C269.871 19.691 269.463 22.2615 271.795 22.5848C273.656 22.8445 279.305 22.8445 278.791 19.956C277.514 20.3959 277.689 21.2439 276.03 21.0001C271.965 20.4065 275.972 10.9195 279.009 16.6912C280.291 19.1292 280.567 23.1678 277.546 24.4027C275.458 25.256 270.052 25.7065 268.992 23.1307L268.997 23.136ZM276.062 17.3431L275.882 18.5038C278.235 19.2299 278.335 17.1311 276.062 17.3431Z" fill="#20261E"/>
<path d="M296.806 73.1789H301.703C302.079 73.1789 303.15 72.6171 303.69 72.6436C303.176 70.4335 301.634 70.8416 302.333 68.234C302.429 67.8736 302.159 67.4973 302.763 67.6139C305.831 70.8469 305.884 75.0339 300.648 75.5533C296.652 75.9508 291.283 75.5904 287.133 75.5692C286.455 75.5692 285.888 75.0603 285.405 75.6751C285.002 76.1892 285.485 76.8624 284.366 76.6186L284.626 75.0445L282.633 73.7142C281.849 74.2336 281.457 74.912 280.466 75.2406C278.097 76.0356 275.722 75.5056 274.302 73.4439C273.475 75.8448 269.155 76.0302 267.226 75.0868C265.297 74.1434 265.657 71.0483 265.424 71.0536C260.787 72.4422 257.262 76.0356 252.042 75.6751C250.881 82.3531 247.139 84.2824 240.668 82.7083V81.9186C245.141 82.1624 249.757 80.2703 250.733 75.5639C248.173 75.8448 245.91 74.9862 247.097 72.0553C248.692 68.1068 251.427 69.7869 252.095 73.1418C255.375 73.4227 258.614 72.1666 261.322 70.3964C259.933 70.1261 258.407 69.4159 256.965 69.4583C255.731 69.4954 255.047 70.4282 253.913 70.5289C254.517 67.969 255.503 66.9037 258.206 67.1634C260.336 67.3648 263.304 68.9442 265.165 68.9442H269.002L268.207 71.2126L266.882 71.0589C266.325 73.7778 271.132 73.4863 272.706 72.7814C274.053 72.1825 274.201 71.0748 275.219 70.2639C275.091 73.1895 278.24 73.6506 280.529 72.9245C282.119 72.421 282.4 70.2745 283.163 70.2639C283.46 71.6419 284.6 72.8503 286.036 72.9351C287.774 70.8946 291.378 66.644 294.251 66.8454C295.751 66.9514 298.04 68.1068 298.04 69.824C298.04 71.1543 297.24 72.0394 296.806 73.1842V73.1789ZM287.536 73.1736C290.642 73.3432 294.034 72.9033 296.525 70.9317C293.636 67.0574 289.73 70.3752 287.536 73.1736ZM250.203 73.1736C249.646 72.1878 248.883 71.6313 248.088 72.7814C247.796 73.5181 249.906 73.0517 250.203 73.1736Z" fill="#20261E"/>
<path d="M86.9637 123.486C87.0909 123.449 88.665 121.843 88.8028 121.62C89.884 119.898 88.7339 113.506 88.347 111.248C88.0714 109.642 86.7941 107.925 88.8134 106.802C88.718 107.65 90.2762 108.948 90.2868 109.091C90.3398 109.595 89.7462 110.337 89.7144 111.174C89.672 112.356 90.202 113.898 90.2815 115.139C90.3875 116.877 90.3451 118.891 90.0059 120.576C92.481 118.774 94.0975 116.84 97.4153 118.064C100.378 119.161 99.159 121.62 97.6856 123.486H103.908C104.077 123.486 105.932 123.173 106.171 123.104C106.383 123.041 106.902 122.749 106.918 122.564C105.895 120.64 104.645 120.338 105.63 117.926C106.256 117.338 107.846 120.449 107.946 121.032C108.408 123.746 107.586 124.822 105.063 125.431C101.359 126.327 96.5885 125.845 92.799 125.59L83.3862 125.871C84.8013 127.318 84.1388 130.8 81.9075 130.88C79.6762 130.959 77.9484 128.378 77.8053 126.422C76.7824 126.777 76.5068 125.898 76.1252 125.85C75.2825 125.739 74.2119 125.966 73.3268 125.871C73.1943 128.341 71.8481 131.394 69.532 132.538C67.5975 133.492 64.338 133.657 62.3876 132.708C60.734 131.902 64.6136 131.95 64.9157 131.897C68.2441 131.319 71.5036 129.189 72.2933 125.739L72.2191 125.394C70.5019 124.71 70.3058 123.338 71.3393 121.907C73.0406 123.852 75.4256 123.56 77.7894 123.454C77.8742 122.018 80.4341 116.352 82.1619 116.882C83.4127 117.264 82.8933 122.527 81.7962 123.486H86.9584H86.9637ZM81.5312 119.516C80.5242 118.827 78.6533 122.924 78.8918 123.221C80.5295 122.437 82.5329 121.695 81.5312 119.516ZM97.6856 121.361C94.9084 118.011 90.8062 120.847 88.6809 123.481C91.7708 123.221 94.8713 122.728 97.6856 121.361ZM79.1515 126.131C79.3794 127.668 81.4623 129.348 82.8562 128.113C83.0629 127.132 79.7822 126.353 79.1515 126.131Z" fill="#20261E"/>
<path d="M25.7958 81.1235C28.0059 80.7578 30.2479 77.6944 30.9581 75.691C27.9053 75.8553 25.6634 74.5833 27.4654 71.4033C29.4317 67.9265 31.5728 70.4758 32.1823 73.1947C34.3977 73.0622 37.9699 73.5975 39.7136 72.0022C40.4927 71.2867 40.7843 69.9617 42.2206 69.9829C43.8424 70.0094 44.3777 72.8078 47.2768 73.1523C50.1122 73.4862 52.0415 72.7919 53.7322 70.5341L53.2074 73.1788C54.1031 73.2053 55.2373 73.0993 56.0429 72.7071C57.1294 72.1771 57.3202 70.9634 58.3696 70.5288L57.9774 72.3732C61.1892 74.0374 60.9719 72.8396 62.3446 70.2744C63.0018 71.0535 62.6096 72.1135 63.6113 72.7336C64.613 73.3537 68.2118 73.5763 68.2383 72.0552C67.6447 68.1862 67.2736 64.2748 66.6429 60.4164C66.3567 58.6674 65.3445 57.8353 67.2419 56.24C67.0882 57.0774 68.7471 58.7363 68.8001 59.0596C68.8531 59.3511 68.1057 60.1249 68.0845 60.8669C67.9785 64.3649 70.0296 69.278 69.2453 72.9403C68.4715 76.5655 63.5477 76.3164 61.8146 73.7194C60.797 75.2617 60.4896 75.6168 58.624 75.055C58.0834 74.8907 56.8909 74.0586 56.7849 74.0586C56.6471 74.0586 55.3221 75.1557 54.3787 75.2829C52.9901 75.4684 51.9831 74.7847 51.2676 74.843C50.8542 74.8748 50.1758 75.3995 49.5769 75.5055C48.1777 75.7546 45.7079 75.0073 45.427 75.0762C45.0772 75.1663 45.0084 75.797 44.7434 75.9666C43.7576 76.5973 40.3708 75.1716 39.8302 73.9632C37.4134 75.6857 34.9277 75.6592 32.0604 75.5956C30.8997 80.567 29.2832 83.8583 23.554 82.5969C22.7219 82.4114 20.9623 82.157 20.9146 81.1288C22.4145 80.9539 24.386 81.3673 25.8117 81.1288L25.7958 81.1235ZM43.4024 73.4385C43.5932 73.2583 41.9184 70.2903 41.1393 71.8485C40.6994 72.7336 42.8353 73.4014 43.4024 73.4385ZM30.4281 73.1735C30.1578 72.6382 29.6118 72.0446 28.9759 72.0976C28.3716 72.0022 28.0484 73.1311 28.4406 73.1788H30.4227L30.4281 73.1735Z" fill="#20261E"/>
<path d="M143.227 68.6682C146.031 69.6381 148.989 70.1787 151.967 69.9985C151.458 73.4276 149.746 71.9065 147.399 72.1821C141.918 72.8287 138.245 76.0299 131.711 75.5582C131.191 75.5211 130.216 75.0653 130.11 75.0812C129.765 75.1342 129.75 76.0511 129.087 76.0723C127.577 76.1306 125.849 74.9858 124.598 74.2597C122.277 76.5917 117.666 75.8603 117.008 72.3782C116.356 72.8552 116.113 73.5813 115.402 74.0795C113.145 75.6695 107.23 76.2366 109.461 71.8535C110.166 73.8675 115.503 72.2563 116.091 71.3182C116.637 70.449 114.263 65.9811 115.418 64.4335C116.097 64.3275 115.826 64.4971 115.97 64.8045C117.57 68.2813 116.759 73.7509 122.436 73.1679C124.884 72.9188 124.985 71.4242 126.554 70.4013C128.287 69.2724 128.817 71.3394 129.999 72.2192C131.928 73.6608 135.686 73.2156 138.028 72.8658C138.643 72.7757 142.772 71.7581 142.957 71.5673C143.355 71.1592 142.872 71.1115 142.591 71.0108C140.551 70.2847 137.371 70.0197 135.283 70.5073C135.553 66.9033 139.846 68.0905 142.432 67.5976C142.846 67.1948 141.229 58.0735 140.577 56.8545C140.784 55.8634 141.304 54.072 142.22 55.4977C142.422 55.8104 143.445 57.3315 143.466 57.4428C143.53 57.7873 142.703 58.3756 142.692 59.2501C142.666 62.0962 144.775 65.5783 143.227 68.6523V68.6682ZM128.398 73.4382C127.651 72.4365 127.349 70.6186 126.018 72.251C126.018 72.6273 128.16 73.629 128.398 73.4382Z" fill="#20261E"/>
<path d="M118.006 23.5974C116.792 24.88 111.253 25.1132 109.488 24.9648C109.043 24.9277 108.28 24.4878 108.132 24.509C107.835 24.5567 107.734 25.2245 107.474 25.3941C106.255 26.1944 103.351 23.7776 102.795 23.6928C102.588 23.661 101.39 24.6998 100.606 24.8641C99.021 25.2033 96.3922 24.8588 95.8198 23.131C95.1096 23.5391 95.0088 24.5726 94.0866 24.721C92.5761 24.9648 91.0126 23.4702 90.6575 23.4702C90.5197 23.4702 89.1948 24.5673 88.2514 24.6945C86.8628 24.88 85.8558 24.1963 85.1403 24.2546C84.7269 24.2917 84.0432 24.8164 83.4496 24.9171C82.6228 25.0602 81.7907 24.8429 80.9798 25.0973C79.8138 31.7806 76.0773 33.6992 69.606 32.1304V31.3407C74.0792 31.5845 78.6955 29.6924 79.6707 24.986C75.754 25.6485 74.4131 22.6063 77.0631 19.8609C79.7131 17.1155 80.8208 22.5321 81.1706 22.6169C83.9743 22.8501 85.9512 22.23 87.6154 19.9563L87.0907 22.601C87.9864 22.6275 89.1206 22.5215 89.9262 22.1293C91.0127 21.5993 91.2035 20.3856 92.2529 19.951L91.8607 21.7954C95.0725 23.4596 94.8552 22.2618 96.2279 19.6966C96.7102 19.6966 96.2915 22.2565 98.6288 22.5851C102.545 23.1416 102.286 21.3343 104.581 19.8397C106.314 18.7108 106.844 20.7778 108.026 21.6576C109.637 22.8607 112.011 22.7388 113.962 22.601C114.603 22.5533 117.46 22.2671 117.502 21.6841C116.633 19.6754 115.356 20.0146 116.145 17.6296C116.23 17.3699 116.098 16.8399 116.606 17.0466C118.297 17.7356 119.309 22.2141 118 23.5974H118.006ZM106.425 22.866C105.678 21.8643 105.376 20.0464 104.045 21.6788C104.045 22.0551 106.187 23.0568 106.425 22.866ZM79.1513 22.601C78.5948 21.6152 77.8316 21.0587 77.0366 22.2088C76.7451 22.9455 78.8545 22.4791 79.1513 22.601Z" fill="#20261E"/>
<path d="M185.03 222.284C184.389 221.256 177.552 223.476 176.333 224.102L179.497 225.57C180.806 227.085 179.566 229.046 178.326 230.197C175.522 232.799 169.077 234.331 165.807 232.11C163.449 230.504 163.767 226.895 164.742 224.557C165.039 223.837 166.66 221.764 166.168 223.338C165.494 225.517 164.016 228.622 166.798 230.064C169.581 231.506 173.641 230.557 176.328 229.264C176.704 229.084 179.29 227.764 178.57 227.276L172.893 225.957C173.9 222.681 177.737 221.277 180.838 220.927C180.806 220.545 180.446 220.514 180.186 220.392C178.31 219.517 175.851 219.252 173.959 220.132C175.639 213.162 184.347 221.07 188.788 220.667L187.998 222.4L186.143 222.257C185.666 225.485 193.272 224.95 194.369 223.974C194.554 223.386 194.369 222.533 194.311 221.892C194.024 218.839 193.473 215.166 192.954 212.129C192.641 210.306 191.48 209.357 193.425 207.688L195.116 210.502C194.835 211.249 194.379 211.668 194.379 212.553C194.369 215.743 195.763 219.941 195.699 223.174C195.646 225.898 194.019 226.789 191.565 227.011C187.935 227.335 184.67 226.683 185.046 222.289L185.03 222.284Z" fill="#20261E"/>
<path d="M210.447 171.711C209.822 170.704 203.16 172.798 202.015 173.529L205.179 174.997C206.488 176.513 205.248 178.474 204.008 179.624C201.204 182.226 194.759 183.758 191.489 181.537C189.131 179.931 189.449 176.322 190.424 173.985C190.721 173.264 192.343 171.192 191.85 172.766C191.177 174.944 189.698 178.05 192.48 179.492C195.242 180.917 199.323 179.984 202.01 178.691C202.386 178.511 204.972 177.191 204.252 176.704L198.575 175.384C199.63 172.109 203.064 170.635 206.255 170.354C206.223 169.973 205.863 169.941 205.603 169.819C203.727 168.945 201.268 168.68 199.376 169.559C201.056 162.59 209.764 170.497 214.205 170.095L213.415 171.828L211.56 171.685C211.083 174.912 218.689 174.377 219.786 173.402C219.971 172.814 219.786 171.96 219.728 171.319C219.441 168.266 218.89 164.593 218.371 161.556C218.058 159.733 216.897 158.784 218.843 157.115L220.533 159.929C220.252 160.677 219.797 161.095 219.797 161.98C219.786 165.171 221.18 169.369 221.116 172.602C221.063 175.326 219.436 176.216 216.982 176.439C213.352 176.762 210.087 176.11 210.463 171.716L210.447 171.711Z" fill="#20261E"/>
<path d="M180.562 120.571C179.984 124.371 186.1 124.022 187.992 122.304C188.469 121.87 188.66 121.096 189.302 120.836L188.777 123.481C189.673 123.508 190.807 123.402 191.612 123.009C192.699 122.479 192.89 121.266 193.939 120.831L193.547 122.675C196.759 124.34 196.541 123.142 197.914 120.577C198.571 121.356 198.179 122.416 199.181 123.036C200.331 123.746 202.928 123.688 204.136 123.089C199.917 118.769 205.223 112.473 210.475 115.425C211.217 115.844 212.06 116.443 212.081 117.391C210.173 116.83 206.012 116.347 204.523 117.911C203.516 118.965 205.467 120.942 206.389 121.626C208.684 123.338 212.362 120.709 214.996 120.704C214.641 121.658 213.984 122.813 213.024 123.232C210.941 124.149 202.414 126.12 200.32 125.84C199.393 125.712 197.638 125.066 197.511 124.011C196.801 124.419 196.7 125.453 195.778 125.601C194.268 125.845 192.704 124.35 192.349 124.35C192.211 124.35 190.886 125.447 189.943 125.575C188.554 125.76 187.547 125.076 186.832 125.135C186.418 125.166 185.74 125.691 185.141 125.797C182.92 126.189 180.79 125.633 179.512 123.741C178.431 126.375 173.778 126.608 172.241 124.255C171.022 122.389 171.032 117.773 170.736 115.43C170.412 112.87 168.875 109.277 170.767 107.321C171.117 109.309 171.525 111.307 171.796 113.31C172.066 115.314 172.209 121.478 173.301 122.66C174.488 123.947 177.249 123.635 178.585 122.675C179.534 121.992 179.618 120.831 180.567 120.555L180.562 120.571Z" fill="#20261E"/>
<path d="M140.24 175.835C139.397 176.539 137.293 176.508 136.233 176.418C135.788 176.38 135.025 175.941 134.876 175.967C134.532 176.02 134.516 176.937 133.853 176.958C132.343 177.016 130.615 175.872 129.364 175.146C127.196 177.276 123.423 176.799 121.785 174.324C120.529 177.197 115.171 177.276 114.233 174.054C110.236 176.741 96.0006 179.057 96.1278 171.573C96.1437 170.757 97.2726 167.243 98.0835 167.18C98.6506 167.137 98.269 167.879 98.2107 168.097C97.5853 170.444 96.6631 171.881 99.5251 173.412C103.823 175.713 111.206 173.556 115.298 171.414C115.213 174.467 118.658 174.716 120.709 173.386C121.483 172.882 122.262 171.155 122.707 171.144C122.421 174.361 126.947 174.711 129.025 173.492C129.947 172.951 131.224 170.863 132.242 170.895C133.175 170.927 134.012 172.549 134.775 173.116C136.18 174.165 139.455 174.843 140.256 172.93C139.662 169.061 139.291 165.15 138.66 161.291C138.374 159.548 137.356 158.726 139.259 157.115C139.105 157.952 140.764 159.611 140.817 159.935C140.87 160.226 140.123 161 140.102 161.742C140.049 163.454 140.892 166.485 141.082 168.404C141.273 170.323 141.941 174.419 140.245 175.84L140.24 175.835ZM133.169 174.319C132.422 173.317 132.12 171.499 130.79 173.132C130.79 173.508 132.931 174.51 133.169 174.319Z" fill="#20261E"/>
<path d="M287.727 226.407C286.884 227.112 284.78 227.08 283.72 226.99C283.275 226.953 282.511 226.513 282.363 226.54C282.019 226.593 282.003 227.51 281.34 227.531C279.83 227.589 278.102 226.444 276.851 225.718C274.683 227.849 270.91 227.372 269.272 224.897C268.048 227.743 262.896 227.812 261.985 224.626C257.988 227.313 243.753 229.63 243.88 222.146C243.896 221.33 245.025 217.816 245.835 217.752C246.403 217.71 246.021 218.452 245.963 218.669C245.337 221.017 244.415 222.453 247.277 223.985C251.575 226.285 258.958 224.128 263.05 221.987C263.007 224.955 266.119 225.31 268.196 223.959C268.97 223.455 269.749 221.727 270.194 221.717C269.908 224.934 274.434 225.283 276.512 224.064C277.434 223.524 278.711 221.436 279.729 221.468C280.662 221.499 281.499 223.121 282.262 223.688C283.667 224.738 286.942 225.416 287.743 223.503C287.149 219.634 286.778 215.722 286.147 211.864C285.861 210.12 284.843 209.299 286.746 207.688C286.592 208.525 288.251 210.184 288.304 210.507C288.357 210.799 287.61 211.572 287.589 212.314C287.536 214.026 288.379 217.058 288.569 218.977C288.76 220.895 289.428 224.992 287.732 226.412L287.727 226.407ZM280.651 224.891C279.904 223.89 279.602 222.072 278.271 223.704C278.271 224.08 280.413 225.082 280.651 224.891Z" fill="#20261E"/>
<path d="M136.873 220.662L136.084 222.395L134.229 222.252C134.282 224.107 135.665 224.504 137.265 224.642C138.182 224.721 143.652 224.668 143.726 223.709C142.762 221.722 141.235 221.563 142.438 219.072C142.931 218.717 144.065 220.635 144.261 221.086C146.069 225.251 143.461 226.751 139.666 227.022C135.872 227.292 132.771 226.73 133.131 222.283C132.506 221.276 125.839 223.375 124.699 224.101L127.863 225.569C129.172 227.085 127.932 229.046 126.692 230.196C123.888 232.799 117.443 234.33 114.173 232.11C111.815 230.504 112.133 226.894 113.108 224.557C113.405 223.836 115.027 221.764 114.534 223.338C114.041 224.912 113.304 226.078 113.596 227.928C114.057 230.848 118.212 230.97 120.528 230.657C121.705 230.498 126.676 228.675 127.084 227.679C127.275 227.202 126.787 227.265 126.559 227.165C124.954 226.455 122.998 226.221 121.265 225.956C122.319 222.681 125.754 221.208 128.944 220.927C128.913 220.545 128.552 220.513 128.293 220.391C126.416 219.517 123.957 219.252 122.065 220.132C123.745 213.162 132.442 221.064 136.894 220.667L136.873 220.662Z" fill="#20261E"/>
<path d="M144.288 15.7216C144.41 17.4123 144.458 20.6082 145.74 21.8166C147.765 23.7193 153.483 21.9703 155.943 21.2813C156.054 20.6718 155.9 20.8626 155.603 20.693C154.681 20.1789 151.888 19.3521 150.902 19.5376C150.25 19.6595 149.726 20.2107 149.058 20.2266C150.208 14.3701 155.529 18.5783 158.852 19.5694C160.628 20.0994 162.276 20.3803 164.152 20.2319L163.045 22.5692C158.116 21.3555 154.263 24.7104 149.45 24.9913C147.775 25.092 146.042 25.1291 144.86 23.767L143.239 19.4369C142.942 20.428 141.532 20.958 140.631 21.329C141.007 25.6962 139.237 28.7702 134.833 29.6977C127.423 31.2506 125.134 25.5955 128.414 19.7019C129.681 19.6012 128.324 21.6258 128.208 22.2777C127.195 28.113 134.117 28.5794 137.764 26.2792C139.656 25.0867 139.714 24.2175 139.009 22.2035C138.347 20.2955 136.932 19.7019 138.204 17.3169C138.612 16.9512 139.295 18.5412 139.799 18.7691C141.903 19.7284 142.931 17.2692 143.7 16.0661C143.869 15.8064 143.673 15.5944 144.293 15.7269L144.288 15.7216Z" fill="#20261E"/>
<path d="M20.8933 15.7215C21.0152 17.4122 21.0629 20.6081 22.3455 21.8165C24.3648 23.7139 29.6012 21.9013 32.018 21.2812C32.1293 20.6717 31.9756 20.8625 31.6788 20.6929C30.7566 20.1788 27.9635 19.352 26.9777 19.5375C26.3258 19.6594 25.8011 20.2106 25.1333 20.2265C26.2834 14.37 31.6046 18.5782 34.9277 19.5693C36.7032 20.0993 38.3515 20.3802 40.2277 20.2318L39.12 22.5691C34.9807 21.3872 31.8219 23.8517 28.0589 24.6149C26.082 25.0124 22.8649 25.5636 21.4657 23.7669L19.8439 19.4368C19.5047 20.4438 18.0048 21.1381 16.9607 21.3183C17.3688 25.6855 15.5721 28.7754 11.1731 29.6976C3.76372 31.2505 1.47412 25.5954 4.75482 19.7018C6.02152 19.6011 4.66472 21.6257 4.54812 22.2776C3.53582 28.1129 10.4576 28.5793 14.104 26.2791C15.9961 25.0866 16.0544 24.2174 15.3495 22.2034C14.687 20.2954 13.2719 19.7018 14.5439 17.3168C14.952 16.9511 15.6357 18.5464 16.1392 18.7743C16.9236 19.1294 18.6143 18.5994 19.2185 18.0217C19.7008 17.5606 19.9605 16.6066 20.305 16.0713C20.4746 15.8116 20.2785 15.5996 20.8986 15.7321L20.8933 15.7215Z" fill="#20261E"/>
<path d="M68.5555 169.819L67.7605 172.087L66.4355 171.934C66.1228 173.354 67.1669 173.911 68.4124 174.059C69.3876 174.176 75.5886 174.128 75.6628 173.131C74.6982 171.144 73.1718 170.985 74.3749 168.494C74.8678 168.139 76.002 170.057 76.1981 170.508C78.0054 174.684 75.3925 176.163 71.603 176.444C68.8629 176.645 65.9373 176.725 65.1688 173.593C65.031 173.025 65.3914 171.859 64.7554 171.976C62.116 172.474 59.89 174.573 57.4202 175.501C55.279 176.306 53.0901 176.587 50.8058 176.433C50.6733 178.903 49.3271 181.956 47.011 183.101C45.0765 184.055 41.817 184.219 39.8666 183.27C38.213 182.465 42.0926 182.512 42.3947 182.459C45.7231 181.882 48.9826 179.751 49.7723 176.301L49.6981 175.956C47.9809 175.273 47.7848 173.9 48.8183 172.469C52.0672 175.771 57.5421 173.328 60.8652 171.271C59.4766 171.001 57.9502 170.291 56.5086 170.333C55.2737 170.37 54.59 171.303 53.4558 171.404C53.9275 169.241 54.9027 167.847 57.2824 167.964C59.5985 168.075 62.6778 169.819 64.7077 169.819H68.5449H68.5555Z" fill="#20261E"/>
<path d="M133.693 116.602C133.815 118.293 133.863 121.488 135.145 122.697C137.165 124.594 142.401 122.782 144.818 122.162C144.929 121.552 144.775 121.743 144.479 121.573C143.556 121.059 140.763 120.232 139.777 120.418C139.126 120.54 138.601 121.091 137.933 121.107C139.083 115.25 144.404 119.459 147.727 120.45C149.503 120.98 151.151 121.261 153.027 121.112L151.92 123.449C147.78 122.268 144.622 124.732 140.859 125.495C138.882 125.893 135.665 126.444 134.265 124.647L132.644 120.317C132.702 121.16 130.497 121.907 130.312 122.22C130.1 122.58 130.301 125.559 129.66 126.995C127.794 131.156 118.567 132.618 116.929 127.679C116.06 125.055 117.025 122.935 118.079 120.577C119.346 120.476 117.989 122.501 117.873 123.153C116.86 128.988 123.782 129.454 127.428 127.154C129.321 125.962 129.379 125.092 128.674 123.078C128.011 121.17 126.596 120.577 127.868 118.192C128.276 117.826 128.965 119.427 129.464 119.649C131.382 120.519 132.405 118.022 133.094 116.941C133.264 116.681 133.068 116.469 133.688 116.602H133.693Z" fill="#20261E"/>
<path d="M276.412 167.439C276.025 167.826 275.935 167.413 275.888 167.047C275.787 166.247 275.898 165.367 275.607 164.54C274.573 163.666 272.04 167.498 271.393 168.112C270.826 168.653 269.93 168.87 269.528 169.554L281.177 170.884L280.122 173.153C273.609 172.082 268.494 177.562 261.853 176.444C261.615 182.512 255.832 185.761 250.469 182.931L255.297 181.94C257.989 181.018 260.125 179.152 260.814 176.306L260.74 175.962C259.023 175.273 258.827 173.905 259.86 172.474C262.908 175.501 268.33 173.736 271.907 172.464L267.508 171.441L265.023 171.409C265.091 168.086 268.955 168.112 271.239 166.104C272.405 165.081 274.515 161.477 276.147 162.272C277.483 162.924 276.921 166.273 276.407 167.434L276.412 167.439Z" fill="#20261E"/>
<path d="M146.934 268.585C146.547 268.972 146.457 268.558 146.409 268.192C146.308 267.392 146.42 266.512 146.128 265.686C145.142 264.848 142.519 268.59 141.915 269.258L139.789 270.699L151.439 272.03L150.384 274.298C143.961 273.206 138.899 278.628 132.38 277.589C132.147 283.647 126.37 286.907 120.996 284.077L125.824 283.085C128.516 282.163 130.652 280.298 131.341 277.452L131.267 277.107C129.55 276.418 129.354 275.051 130.387 273.62C133.382 276.641 138.65 274.855 142.169 273.609L137.77 272.586L135.284 272.554C135.163 269.592 138.221 269.576 140.235 268.373C142.249 267.17 144.157 263.979 145.349 263.428C147.989 262.203 147.739 267.191 146.929 268.585H146.934Z" fill="#20261E"/>
<path d="M17.4542 215.892C18.6944 221.727 19.9399 227.17 27.2539 223.566C27.0366 222.077 25.6957 222.718 24.9378 222.718C23.8089 222.718 25.1021 220.508 25.6533 219.984C28.2397 217.519 34.8806 219.485 30.9586 223.699C31.0805 224.255 33.1528 224.589 33.7305 224.642C34.6739 224.727 40.3873 224.605 40.4562 223.709C39.5923 221.701 38.3097 222.04 39.0994 219.655C39.1842 219.395 39.0517 218.865 39.5605 219.072C41.2671 219.766 42.343 224.478 40.8325 225.708C39.5287 226.768 34.8806 227.202 33.2058 227.017C31.4144 226.821 30.3491 225.877 28.9711 224.886C25.8335 227.382 19.9505 228.623 18.3817 223.837C17.0302 226.921 8.53435 228.607 10.967 223.312C12.08 224.849 13.9085 224.367 15.4826 223.853C19.553 222.522 16.7281 220.89 16.638 217.879C16.6274 217.583 16.8341 215.245 17.4489 215.897L17.4542 215.892Z" fill="#20261E"/>
<path d="M241.993 277.584C243.466 279.158 242.682 282.698 240.292 282.598C238.262 282.513 236.555 280.038 236.407 278.135C235.421 278.506 235.007 277.605 234.923 277.589C233.534 277.261 232.564 277.955 230.995 276.794C228.907 275.241 229.029 269.703 228.711 267.164C228.382 264.53 226.951 261.27 228.616 259.055C229.193 260.99 229.506 263.046 229.771 265.044C230.036 267.042 230.19 273.211 231.276 274.393C232.421 275.639 234.864 275.13 236.391 275.167C236.783 273.683 237.239 272.194 238.06 270.879C241.749 264.975 242.433 272.353 240.398 275.199H246.885C247.261 275.199 248.332 274.637 248.872 274.664C248.242 272.575 246.604 272.199 247.553 269.639C249.879 270.455 250.934 275.178 248.862 276.64C248.565 276.852 246.604 277.579 246.36 277.579H241.993V277.584ZM240.138 271.234C239.131 270.545 237.26 274.642 237.498 274.939C239.136 274.155 241.14 273.413 240.138 271.234ZM237.758 277.849C237.986 279.386 240.069 281.066 241.463 279.831C241.67 278.851 238.389 278.071 237.758 277.849Z" fill="#20261E"/>
<path d="M21.2271 107.263C21.3755 107.411 22.3825 107.597 22.8171 107.857C23.7817 108.434 24.7092 108.906 25.748 109.494C31.3289 112.669 31.4932 123.831 27.2585 128.124C26.4423 128.956 21.8737 131.511 20.7395 131.664C19.4039 131.844 18.5559 131.638 17.3581 131.118C16.3776 130.694 13.2082 128.845 12.5139 128.15C8.1467 123.783 8.4011 112.367 14.2576 109.298C14.9784 108.922 16.2557 108.789 16.5843 108.577C16.7645 108.461 18.3545 107.337 18.4393 107.252C18.6831 107.003 18.4075 106.41 19.2873 106.113C21.1211 105.488 20.7766 106.807 21.2218 107.252L21.2271 107.263ZM20.3685 108.657C21.3172 105.933 18.3969 105.853 19.3032 108.657L17.4535 108.127C17.3104 108.885 17.6602 108.551 18.0312 108.726C18.9958 109.176 19.3456 109.251 19.9657 110.242C20.4427 109.155 21.3066 108.694 22.4779 108.652C21.9956 107.687 20.9939 108.138 20.3632 108.652L20.3685 108.657ZM18.2485 111.037L17.1938 111.704C17.9676 112.849 18.8951 112.314 19.3138 111.164C18.9269 108.699 16.3564 108.959 14.5703 109.876C12.4503 110.962 11.3108 113.279 10.5794 115.414C11.2949 114.964 11.7295 114.354 12.4503 113.846C13.5792 113.056 14.6816 112.823 15.8635 112.234C15.2063 111.413 14.2735 112.012 13.4838 112.102C13.4573 109.945 19.1177 109.781 18.2485 111.042V111.037ZM29.1029 115.542C29.2937 112.319 22.3136 106.293 20.5593 110.591C19.5947 112.961 24.529 112.537 21.4285 111.037C22.3666 109.372 25.8063 110.332 26.1932 112.102L24.0732 111.837V112.627C26.1296 112.696 27.868 114.036 29.1029 115.542ZM16.9235 110.777L15.5985 111.174C16.2822 111.439 16.5313 112.192 16.6585 112.892C8.2527 114.031 8.1679 124.403 16.5419 125.861L15.5985 127.721L16.9235 127.986C15.8158 125.877 18.8527 124.573 19.5788 126.661H19.9657C21.0734 124.615 23.893 125.643 22.7482 127.986L24.0732 127.721C23.5061 127.032 23.0768 126.603 23.2888 125.612C29.1347 125.479 31.7158 117.778 26.9723 114.37C26.1773 113.803 23.5114 113.072 23.3948 112.918C22.6157 111.848 25.43 110.708 22.7535 110.782C23.9248 113.019 20.7713 114.063 20.0982 111.837C18.7361 113.586 15.9059 113.438 16.9235 110.782V110.777ZM15.8688 126.136L12.604 125.034L10.5741 122.962C11.1995 125.84 13.8866 129.815 17.2044 129.459C20.077 129.152 19.971 125.278 17.1885 126.804L18.2485 127.467C17.9888 130.138 12.7789 127.26 13.4838 126.407C14.1198 126.931 15.8635 127.334 15.8635 126.142L15.8688 126.136ZM21.4232 127.461L22.4832 126.799C21.8949 126.009 20.4533 126.343 20.3579 127.334C22.3772 132.767 28.9916 126.746 29.0976 122.956L27.0677 125.029L24.0679 126.136L24.741 126.942L26.1826 126.396C27.0677 127.371 21.7359 130.027 21.4179 127.456L21.4232 127.461ZM20.0982 128.516H19.5788C19.4198 129.756 18.0365 129.73 17.1938 130.233C18.9587 131.495 20.8932 131.15 22.7535 130.366L20.6388 129.438L20.1035 128.516H20.0982Z" fill="#20261E"/>
<path d="M210.818 56.9555C210.967 57.1039 211.974 57.2894 212.408 57.5491C213.373 58.1268 214.301 58.5985 215.339 59.1868C220.92 62.3615 221.085 73.5233 216.85 77.8163C216.034 78.6484 211.465 81.203 210.331 81.3567C208.995 81.5369 208.147 81.3302 206.949 80.8108C205.969 80.3868 202.8 78.5371 202.105 77.8428C197.738 73.4756 197.992 62.0594 203.849 58.9907C204.57 58.6144 205.847 58.4819 206.176 58.2699C206.356 58.1533 207.946 57.0297 208.031 56.9449C208.274 56.6958 207.999 56.1022 208.879 55.8054C210.712 55.18 210.368 56.4997 210.813 56.9449L210.818 56.9555ZM209.955 58.3494C210.903 55.6252 207.983 55.5457 208.889 58.3494L207.04 57.8194C206.896 58.5773 207.246 58.2434 207.617 58.4183C208.582 58.8688 208.932 58.943 209.552 59.9341C210.029 58.8476 210.893 58.3865 212.064 58.3441C211.582 57.3795 210.58 57.83 209.949 58.3441L209.955 58.3494ZM207.835 60.7291L206.78 61.3969C207.554 62.5417 208.481 62.0064 208.9 60.8563C208.513 58.3918 205.942 58.6515 204.156 59.5684C202.036 60.6549 200.897 62.971 200.165 65.1069C200.881 64.6564 201.316 64.0469 202.036 63.5381C203.165 62.7484 204.268 62.5152 205.45 61.9269C204.792 61.1054 203.86 61.7043 203.07 61.7944C203.043 59.6373 208.704 59.473 207.835 60.7344V60.7291ZM218.689 65.2341C218.88 62.0117 211.9 55.9856 210.145 60.2839C209.181 62.653 214.115 62.229 211.015 60.7291C211.953 59.0649 215.392 60.0242 215.779 61.7944L213.659 61.5294V62.3191C215.716 62.388 217.454 63.7289 218.689 65.2341ZM206.51 60.4694L205.185 60.8669C205.868 61.1319 206.117 61.8845 206.245 62.5841C197.839 63.7236 197.754 74.0957 206.128 75.5532L205.185 77.4135L206.51 77.6785C205.402 75.5691 208.439 74.2653 209.165 76.3535H209.552C210.659 74.3077 213.479 75.3359 212.334 77.6785L213.659 77.4135C213.092 76.7245 212.663 76.2952 212.875 75.3041C218.721 75.1716 221.302 67.4707 216.558 64.0628C215.763 63.4957 213.097 62.7643 212.981 62.6106C212.202 61.54 215.016 60.4005 212.34 60.4747C213.511 62.7113 210.357 63.7554 209.684 61.5294C208.322 63.2784 205.492 63.13 206.51 60.4747V60.4694ZM205.455 75.8288L202.19 74.7264L200.16 72.6541C200.786 75.532 203.473 79.507 206.79 79.1519C209.663 78.8445 209.557 74.9702 206.775 76.4966L207.835 77.1591C207.575 79.8303 202.365 76.9524 203.07 76.0991C203.706 76.6238 205.45 77.0266 205.45 75.8341L205.455 75.8288ZM211.015 77.1538L212.075 76.4913C211.486 75.7016 210.045 76.0355 209.949 77.0266C211.969 82.4591 218.583 76.4383 218.689 72.6488L216.659 74.7211L213.659 75.8288L214.332 76.6344L215.774 76.0885C216.659 77.0637 211.327 79.719 211.009 77.1485L211.015 77.1538ZM209.684 78.2085H209.165C209.006 79.4487 207.623 79.4222 206.78 79.9257C208.545 81.1871 210.479 80.8426 212.34 80.0582L210.225 79.1307L209.69 78.2085H209.684Z" fill="#20261E"/>
<path d="M66.7764 258.981C66.9248 259.129 67.9318 259.315 68.3664 259.574C69.331 260.152 70.2585 260.624 71.2973 261.212C76.8782 264.387 77.0425 275.549 72.8078 279.842C71.9916 280.674 67.423 283.228 66.2888 283.382C64.9532 283.562 64.1052 283.355 62.9074 282.836C61.9269 282.412 58.7575 280.562 58.0632 279.868C53.696 275.501 53.9504 264.085 59.8069 261.016C60.5277 260.64 61.805 260.507 62.1336 260.295C62.3138 260.179 63.9038 259.055 63.9886 258.97C64.2324 258.721 63.9568 258.127 64.8366 257.831C66.6704 257.205 66.3259 258.525 66.7711 258.97L66.7764 258.981ZM65.9125 260.375C66.8612 257.65 63.9409 257.571 64.8472 260.375L62.9975 259.845C62.8544 260.603 63.2042 260.269 63.5752 260.444C64.5398 260.894 64.8896 260.968 65.5097 261.959C65.9867 260.873 66.8506 260.412 68.0219 260.369C67.5396 259.405 66.5379 259.855 65.9072 260.369L65.9125 260.375ZM63.7925 262.754L62.7378 263.422C63.5116 264.567 64.4391 264.032 64.8578 262.882C64.4709 260.417 61.9004 260.677 60.1143 261.594C57.9943 262.68 56.8548 264.996 56.1234 267.132C56.8389 266.682 57.2735 266.072 57.9943 265.563C59.1232 264.774 60.2256 264.54 61.4075 263.952C60.7503 263.131 59.8175 263.73 59.0278 263.82C59.0013 261.663 64.6617 261.498 63.7925 262.76V262.754ZM74.6469 267.259C74.8377 264.037 67.8576 258.011 66.1033 262.309C65.1387 264.678 70.073 264.254 66.9725 262.754C67.9106 261.09 71.3503 262.049 71.7372 263.82L69.6172 263.555V264.344C71.6736 264.413 73.412 265.754 74.6469 267.259ZM62.4675 262.495L61.1425 262.892C61.8262 263.157 62.0753 263.91 62.2025 264.609C53.7967 265.749 53.7119 276.121 62.0859 277.578L61.1425 279.439L62.4675 279.704C61.3598 277.594 64.3967 276.291 65.1228 278.379H65.5097C66.6174 276.333 69.437 277.361 68.2922 279.704L69.6172 279.439C69.0501 278.75 68.6208 278.32 68.8328 277.329C74.6787 277.197 77.2598 269.496 72.5163 266.088C71.7213 265.521 69.0554 264.79 68.9388 264.636C68.1597 263.565 70.974 262.426 68.2975 262.5C69.4688 264.737 66.3153 265.781 65.6422 263.555C64.2801 265.304 61.4499 265.155 62.4675 262.5V262.495ZM61.4128 277.849L58.148 276.746L56.1181 274.674C56.7435 277.552 59.4306 281.527 62.7484 281.172C65.621 280.864 65.515 276.99 62.7325 278.517L63.7925 279.179C63.5328 281.85 58.3229 278.972 59.0278 278.119C59.6638 278.644 61.4075 279.047 61.4075 277.854L61.4128 277.849ZM66.9672 279.174L68.0272 278.511C67.4389 277.722 65.9973 278.055 65.9019 279.047C67.9212 284.479 74.5356 278.458 74.6416 274.669L72.6117 276.741L69.6119 277.849L70.285 278.654L71.7266 278.108C72.6117 279.084 67.2799 281.739 66.9619 279.168L66.9672 279.174ZM65.6422 280.234H65.1228C64.9638 281.474 63.5805 281.447 62.7378 281.951C64.5027 283.212 66.4372 282.868 68.2975 282.083L66.1828 281.156L65.6475 280.234H65.6422Z" fill="#20261E"/>
<path d="M213.925 254.55C213.74 257.38 211.662 257.285 209.595 258.292C208.493 258.827 201.068 262.389 200.956 262.898L204.656 266.337C208.281 270.768 210.099 276.773 202.382 277.552C199.303 277.865 196.043 277.865 194.999 274.409C193.679 277.473 185.152 279.2 187.584 273.884C188.289 275.898 193.626 274.287 194.215 273.349C194.761 272.48 192.386 268.012 193.542 266.464C194.22 266.358 193.95 266.528 194.093 266.835C195.243 269.337 195.148 274.632 198.72 275.183C200.018 275.384 206.707 275.294 206.717 273.535C206.728 271.775 203.575 267.62 202.144 266.703C201.492 266.29 200.485 266.899 199.78 265.648C198.121 262.686 201.269 260.507 203.421 259.267C204.497 258.647 213.507 254.153 213.925 254.55Z" fill="#20261E"/>
<path d="M179.506 20.0887C179.829 22.744 181.372 23.6344 183.804 22.5373C185.559 21.7476 185.67 21.1116 185.591 19.299C185.469 16.5483 183.873 13.4107 185.728 10.9621C186.11 10.9515 186.242 12.6634 186.306 13.0238C187.011 17.0465 186.582 23.6026 192.724 22.0497C193.053 21.578 190.647 14.9212 190.62 13.4531C190.61 12.7005 190.986 10.9409 191.951 10.9515C191.913 14.7887 195.894 20.5657 193.392 23.91C191.786 26.0565 187.223 24.9965 186.651 22.3359L186.105 22.5002C185.379 24.7262 183.455 26.2261 181.017 25.7173C178.398 25.1714 178.531 22.0232 178.043 21.8112C177.794 23.8729 172.404 23.9312 172.356 22.4896C172.288 20.1841 175.854 17.7726 177.868 17.2691C177.821 15.9388 178.16 14.4654 179.231 13.6068C179.151 13.8771 179.501 14.1739 179.501 14.2693C179.501 16.0395 179.299 18.4192 179.501 20.094L179.506 20.0887ZM178.181 18.9015C177.874 18.5782 174.577 19.8714 174.476 20.7512C176.045 20.7088 178.61 21.3077 178.181 18.9015Z" fill="#20261E"/>
<path d="M183.138 276.98C180.922 278.835 177.164 276.9 176.725 274.144C173.847 278.241 162.07 281.564 160.04 275.469C159.425 273.625 159.818 269.56 162.028 268.844C161.424 270.556 160.374 272.051 161.296 273.948C163.544 278.564 173.576 275.904 176.195 272.549C176.693 271.468 175.018 263.364 174.991 261.308C174.981 260.603 175.071 258.758 176.067 258.785L178.076 273.328C178.808 275.331 182.099 276.174 183.153 274.075C182.56 270.206 182.189 266.295 181.558 262.436C181.272 260.687 180.26 259.855 182.157 258.26C182.003 259.097 183.662 260.756 183.715 261.08C183.768 261.371 183.021 262.145 183 262.887C182.947 264.599 183.789 267.63 183.98 269.549C184.171 271.468 184.839 275.565 183.143 276.985L183.138 276.98Z" fill="#20261E"/>
<path d="M124.96 272.819L123.72 275.22C118.234 273.868 113.623 278.198 108 277.7C106.834 284.389 103.097 286.302 96.626 284.733V283.944C101.099 284.188 105.715 282.295 106.691 277.589C103.956 277.865 101.815 276.937 103.145 273.906C104.899 269.899 107.29 272.141 108.191 275.215C111.143 275.427 113.968 274.716 116.755 273.874C116.867 273.264 116.713 273.455 116.416 273.285C115.494 272.771 112.701 271.945 111.715 272.13C111.063 272.252 110.538 272.803 109.871 272.819C109.627 271.271 111.514 269.719 112.939 269.655C114.466 269.591 118.07 271.706 119.872 272.215C121.674 272.724 123.142 272.978 124.96 272.819ZM106.161 275.199C105.604 274.213 104.841 273.656 104.046 274.807C103.754 275.543 105.864 275.077 106.161 275.199Z" fill="#20261E"/>
<path d="M257.527 117.746C258.428 118.812 258.095 120.036 257.586 121.207C255.869 125.129 249.085 125.537 245.438 124.811C245.65 128.118 244.749 130.8 241.643 132.274C234.001 135.899 228.876 129.608 233.651 122.961C233.662 125.309 232.172 126.836 233.778 129.184C235.782 132.109 241.166 130.79 243.403 128.744C246.201 126.179 240.96 122.829 243.445 120.052C244.405 120.852 244.574 122.421 246.058 122.453C247.627 120.576 251.04 116.58 253.542 116.352C254.618 116.252 256.823 116.919 257.527 117.746ZM247.553 122.686C249.498 122.808 251.305 122.622 253.171 122.082C253.727 121.923 256.722 120.91 256.552 120.179C256.505 119.962 255.01 118.928 254.713 118.838C251.613 117.916 249.328 120.619 247.553 122.686Z" fill="#20261E"/>
<path d="M75.6217 218.886C76.5227 219.951 76.1888 221.176 75.68 222.347C73.9628 226.269 67.1788 226.677 63.5324 225.951C63.7444 229.258 62.8434 231.94 59.7376 233.413C52.095 237.039 46.9699 230.748 51.7452 224.101C51.7558 226.449 50.2665 227.976 51.8724 230.324C53.8758 233.249 59.2606 231.929 61.4972 229.884C64.2956 227.318 59.0539 223.969 61.5396 221.192C62.4989 221.992 62.6685 223.561 64.1525 223.593C65.7213 221.716 69.1345 217.72 71.6361 217.492C72.712 217.392 74.9168 218.059 75.6217 218.886ZM65.6471 223.831C67.5922 223.953 69.3995 223.767 71.2651 223.227C71.8216 223.068 74.8161 222.056 74.6465 221.324C74.5988 221.107 73.1042 220.073 72.8074 219.983C69.7069 219.061 67.4226 221.764 65.6471 223.831Z" fill="#20261E"/>
<path d="M249.408 166.909L248.55 169.226C245.327 169.814 241.485 170.672 239.211 173.259C236.598 176.232 235.957 180.753 238.681 183.854C242.121 187.77 248.762 186.753 253.378 186.233L253.362 187.007C249.456 188.136 246.96 189.657 242.725 188.809C232.824 186.822 234.531 173.815 241.198 169.024C239.19 168.992 237.541 168.727 235.904 170.079C236.344 164.355 241.236 167.026 244.76 167.174C246.387 167.243 247.808 166.846 249.408 166.904V166.909Z" fill="#20261E"/>
<path d="M38.373 166.909L37.5144 169.226C34.292 169.814 30.4495 170.672 28.1758 173.259C25.5629 176.232 24.9216 180.753 27.6458 183.854C31.0855 187.77 37.7264 186.753 42.3427 186.233L42.3268 187.007C38.4207 188.136 35.9244 189.657 31.6897 188.809C21.7893 186.822 23.4959 173.815 30.1633 169.024C28.1546 168.992 26.5063 168.727 24.8686 170.079C25.3085 164.355 30.2004 167.026 33.7249 167.174C35.352 167.243 36.7724 166.846 38.373 166.904V166.909Z" fill="#20261E"/>
<path d="M46.8429 256.935C47.2934 257.38 44.9773 259.829 44.6169 260.396C43.4986 262.155 42.8838 264.069 42.3962 266.077C45.0939 267.095 42.163 268.038 41.8132 269.766C42.7195 270.196 44.177 267.906 44.8554 268.044C45.5179 268.542 45.3218 269.57 45.6663 270.153C45.9737 270.678 47.1768 270.911 46.9913 271.775C46.8217 272.559 45.8624 272.724 45.6557 273.073C45.3801 273.54 45.5497 274.6 45.2529 275.188C44.5215 275.676 42.9209 272.941 41.8132 273.731L43.9226 276.381L42.3379 277.048C42.9951 279.518 44.1611 281.845 45.6716 283.907C46.2069 284.638 47.6485 285.354 47.2351 286.318C43.2866 285.094 41.1825 280.891 39.4229 277.451L36.5185 276.783L38.3682 273.609C36.9902 273.529 36.598 275.448 35.1935 275.458C35.0504 275.358 34.9285 273.683 34.6794 273.259C34.4303 272.835 33.4074 272.729 33.3279 271.87C33.2272 270.794 34.4091 270.683 34.5999 270.365C34.8755 269.904 34.5628 268.515 35.326 268.049C36.3807 268.579 37.0856 269.899 38.3735 269.893C38.6173 268.892 36.0044 267.487 36.5238 266.719L39.3752 266.125C40.8168 262.643 42.958 258.016 46.8482 256.919L46.8429 256.935ZM41.5588 266.989C41.8238 264.222 42.958 261.678 44.336 259.32C42.0994 261.318 40.8645 264.154 39.9264 266.957L37.8435 266.994L38.9088 268.844H39.4282L40.096 268.049L40.8963 268.849C41.4581 268.86 42.7089 267.36 42.3485 266.994H41.5641L41.5588 266.989ZM37.3082 270.959V270.577L35.4585 269.379C35.7341 270.874 35.1458 271.097 34.1335 271.897C35.7023 272.284 35.167 273.068 35.8507 274.139L37.5732 272.687C36.6033 272.284 35.8348 271.293 37.3029 270.959H37.3082ZM44.7282 269.379L42.8785 270.445C42.7195 271.319 43.7053 270.747 43.6947 271.902L42.8785 272.692C45.5285 274.817 44.1876 273.678 44.8607 272.559C45.0409 272.263 45.8359 272.061 46.0479 271.632C44.866 270.832 44.4738 271.091 44.7282 269.385V269.379ZM38.9724 270.503C37.499 271.897 39.6084 274.377 41.2779 272.941C42.9474 271.505 40.4829 269.072 38.9724 270.503ZM39.4282 274.674H38.9088L38.1085 276.126C38.5855 276.842 39.5713 276.248 40.1013 276.783C40.3981 277.08 41.7496 280.44 42.3909 281.379C42.9845 282.253 43.8537 283.175 44.5957 283.933C43.2972 281.569 41.951 279.253 41.5482 276.524L42.3432 276.132L41.1507 274.674L40.096 275.469L39.4282 274.674Z" fill="#20261E"/>
<path d="M297.602 17.0463L300.639 15.1966C301.254 15.6895 300.936 16.5163 301.333 17.1576C301.731 17.7989 303.077 17.8572 302.595 19.2564C301.105 20.0514 301.466 21.1379 300.639 22.3463L297.597 20.4966C297.427 21.6096 299.711 22.6484 299.441 23.5176C299.208 24.2755 297.21 24.0105 296.643 24.4398C296.219 24.7631 295.848 26.422 295.524 27.0262C294.502 28.9289 292.588 31.669 290.845 32.9357C290.41 33.2537 288.502 34.3455 289.074 33.0205C289.456 32.1354 290.993 30.768 291.618 29.7345C292.641 28.0385 293.214 26.1305 293.622 24.2119C290.68 23.5547 294.03 22.3357 294.157 20.6238C292.933 20.7457 292.196 21.8322 291.375 22.6007C290.537 22.1237 290.77 21.0637 290.399 20.4012C290.081 19.8288 288.772 19.4843 288.974 18.6098C289.138 17.8943 290.113 17.7406 290.32 17.3113C290.564 16.7972 290.299 15.3397 291.141 15.2019C291.767 15.1012 293.071 17.6134 294.157 16.9085C294.136 15.8167 292.334 14.9422 292.037 14.2585C291.74 13.5748 293.457 13.8027 293.563 13.2144C292.874 10.469 291.401 7.8879 289.562 5.7467C289.207 5.3333 288.354 5.3121 288.597 4.3316C291.147 4.5171 293.77 7.872 294.994 9.9761C295.307 10.5167 296.378 13.1084 296.526 13.2091C297.141 13.6225 298.89 12.9017 299.335 13.8557C299.59 14.4069 297.379 16.0923 297.602 17.0357V17.0463ZM291.772 6.7219L291.247 6.8491C292.435 8.3437 294.3 11.6615 294.38 13.5271C294.39 13.7762 294.401 13.8451 294.162 13.9935L293.367 14.2585L294.692 15.981C295.742 14.9634 295.832 15.1436 297.067 15.716L298.132 14.1313C295.281 14.6719 295.742 12.9282 294.74 11.0361C293.887 9.4196 292.726 8.2218 291.772 6.7166V6.7219ZM293.097 17.5763L291.247 16.5163C291.783 18.0268 290.177 18.2388 289.922 18.7688C289.668 19.2988 290.855 19.2405 291.12 19.6857C291.343 20.0673 291.237 20.5867 291.247 21.0107L293.362 19.9507L292.297 18.7635L293.102 17.5763H293.097ZM300.512 16.5163L298.397 17.5763L299.473 18.7582L298.397 19.9507L300.114 21.016C300.819 21.1379 300.369 20.2316 300.644 19.6857C300.84 19.2988 301.561 19.1451 301.837 18.7635C301.005 18.0056 300.231 17.8837 300.517 16.5163H300.512ZM295.652 17.1099C292.62 17.4438 294.968 22.1608 297.077 19.8288C298.196 18.5939 297.003 16.9615 295.652 17.1099ZM297.067 21.546L295.88 22.3516L294.692 21.546L293.632 23.2685C293.563 23.4752 294.146 23.4222 294.305 23.6554C294.602 24.09 293.521 27.4555 293.23 28.1604C292.747 29.3264 291.942 30.2009 291.518 31.3404C293.765 29.2681 295.175 26.316 296.049 23.4275L298.137 23.3957L297.077 21.546H297.067Z" fill="#20261E"/>
<path d="M169.707 176.444C170.613 180.737 168.461 183.917 164.211 184.85C156.992 186.429 154.008 180.557 157.925 174.859C158.471 174.753 158.375 175.071 158.264 175.463C157.845 176.963 157.305 177.726 157.517 179.497C158.015 183.599 163.999 183.016 166.712 181.526C168.636 180.472 168.875 179.91 168.525 177.753C168.175 175.596 166.368 173.985 167.714 171.939C167.963 171.557 167.995 171.69 168.233 171.955C169.739 173.64 168.578 174.329 171.965 174.069C175.42 173.804 174.906 171.382 176.713 169.289C178.743 166.93 180.211 168.367 181.017 170.826C182.543 175.522 178.696 175.458 175.659 173.566C174.482 176.025 172.325 176.698 169.707 176.449V176.444ZM179.501 172.469C179.395 170.667 177.821 169.453 176.597 171.276C177.291 172.145 178.499 172.198 179.501 172.469Z" fill="#20261E"/>
<path d="M223.99 227.016C224.896 231.309 222.744 234.489 218.494 235.422C211.275 237.002 208.291 231.129 212.208 225.432C212.754 225.326 212.658 225.644 212.547 226.036C212.128 227.536 211.588 228.299 211.8 230.069C212.298 234.171 218.282 233.588 220.995 232.099C222.919 231.044 223.158 230.483 222.808 228.325C222.458 226.168 220.651 224.557 221.997 222.511C222.246 222.13 222.278 222.262 222.516 222.527C224.022 224.213 222.861 224.902 226.248 224.642C229.703 224.377 229.189 221.955 230.996 219.861C233.026 217.503 234.495 218.939 235.3 221.398C236.827 226.094 232.979 226.031 229.942 224.138C228.765 226.598 226.608 227.271 223.99 227.022V227.016ZM233.784 223.041C233.678 221.239 232.104 220.026 230.88 221.849C231.574 222.718 232.783 222.771 233.784 223.041Z" fill="#20261E"/>
<path d="M97.0641 64.7941C99.2265 66.8611 99.0675 70.6082 97.9545 73.1681C103.615 75.1132 98.2619 79.7931 95.0342 80.9856C86.798 84.0384 81.2595 79.3267 86.1726 71.329C86.7291 71.223 86.6019 71.541 86.5171 71.9332C86.3104 72.8501 85.7115 73.6875 85.579 74.7051C84.6356 81.8601 96.0041 79.7613 99.0092 76.2209C99.1311 75.6909 98.8078 75.8499 98.4845 75.7068C96.8786 74.9966 94.923 74.7634 93.1899 74.4984C93.5396 74.085 93.7569 72.9985 94.0484 72.7123C95.0236 71.7742 98.6859 72.1982 97.4245 69.2037C96.6083 69.1825 96.5023 70.11 95.6967 70.2584C90.7518 71.1753 93.7092 61.5717 97.0747 64.7888L97.0641 64.7941ZM96.3592 67.8787C96.3221 66.6067 94.0802 65.8594 94.3717 67.3858C94.5466 68.3027 95.6808 68.1384 96.3592 67.8787Z" fill="#20261E"/>
<path d="M249.409 284.733V283.944C253.882 284.188 258.498 282.295 259.473 277.589C256.913 277.87 254.65 277.011 255.838 274.08C257.443 270.105 260.125 271.786 260.835 275.167C262.192 275.268 264.286 275.374 265.309 274.282C266.422 273.095 268.187 266.533 270.98 270.185C274.26 274.478 270.996 277.769 266.491 274.701C265.33 277.149 263.353 277.658 260.788 277.7C259.622 284.389 255.885 286.302 249.414 284.733H249.409ZM270.322 273.614C270.216 271.812 268.642 270.598 267.418 272.422C268.112 273.291 269.321 273.344 270.322 273.614ZM258.938 275.199C258.382 274.213 257.618 273.656 256.823 274.807C256.532 275.543 258.641 275.077 258.938 275.199Z" fill="#20261E"/>
<path d="M271.695 124.589C271.796 124.441 272.617 124.356 272.957 124.128C273.688 123.63 275.76 121.176 275.516 120.301C275.368 119.761 273.063 116.522 272.548 115.833C271.997 115.097 269.697 112.076 269.072 111.89C268.351 111.673 266.835 111.991 266.067 110.926C265.574 110.242 265.653 106.94 266.703 107.094L270.063 110.104L276.407 118.717C277.106 115.001 277.886 110.841 276.502 107.2L277.864 105.217C277.997 105.816 279.322 107.995 279.322 108.26C279.322 108.689 278.707 109.108 278.58 109.638C278.235 111.095 278.5 113.803 278.225 115.637C278.039 116.856 277.053 119.4 277.053 120.174C277.053 121.197 279.195 125.23 277.281 126.084C276.82 126.29 272.57 126.762 272.04 126.667C271.186 126.513 271.425 124.976 271.679 124.589H271.695ZM276.947 124.017C277.154 123.693 276.423 121.838 276.285 121.902L274.562 124.282L276.947 124.017Z" fill="#20261E"/>
<path d="M89.783 225.734C89.8837 225.586 90.7052 225.501 91.0444 225.273C91.7758 224.775 93.8481 222.321 93.6043 221.446C93.4559 220.906 91.1504 217.667 90.6363 216.978C90.0851 216.242 87.7849 213.221 87.1595 213.035C86.4387 212.818 84.9229 213.136 84.1544 212.071C83.6615 211.387 83.741 208.085 84.7904 208.239L88.1506 211.249L94.4947 219.862C95.1943 216.146 95.9734 211.986 94.5901 208.345L95.9522 206.362C96.0847 206.961 97.4097 209.14 97.4097 209.405C97.4097 209.834 96.7949 210.253 96.6677 210.783C96.3232 212.24 96.5882 214.948 96.3126 216.782C96.1271 218.001 95.1413 220.545 95.1413 221.319C95.1413 222.342 97.2825 226.375 95.3692 227.229C94.9081 227.435 90.6575 227.907 90.1275 227.812C89.2742 227.658 89.5127 226.121 89.7671 225.734H89.783ZM95.0406 225.156C95.2473 224.833 94.5159 222.978 94.3781 223.042L92.6556 225.421L95.0406 225.156Z" fill="#20261E"/>
<path d="M172.351 72.3838C171.19 73.5445 168.927 74.631 167.321 73.8413C166.086 73.2371 167.449 70.3963 168.111 69.6013C168.774 68.8063 171.042 67.8258 171.169 67.6297C171.556 67.0414 170.989 65.1599 172.081 64.7094C172.521 66.5432 172.733 71.186 173.93 72.5269C174.959 73.6823 177.497 73.8784 178.393 72.4686C177.884 67.4442 177.572 62.282 176.156 57.4272L177.254 55.445L178.976 58.2169C177.089 62.0276 181.615 72.1135 178.319 75.0391C175.966 77.1326 172.881 75.1239 172.356 72.3891L172.351 72.3838ZM168.387 71.5888C169.277 71.9492 171.636 71.7266 171.832 70.6613C172.144 68.96 171.28 69.1667 170.146 69.7815C169.812 69.9617 168.095 71.1966 168.387 71.5941V71.5888Z" fill="#20261E"/>
<path d="M17.8983 65.8488C19.2021 67.0837 20.3946 71.1223 19.0325 72.5056C18.7569 72.7865 16.7164 73.7034 16.197 73.9048C12.9481 75.1715 5.32668 76.5071 2.26328 74.721C-0.513917 73.1045 -0.667617 69.2832 1.43118 67.0837C2.28978 66.7339 1.31988 68.7532 1.28808 69.0606C0.736883 74.1857 8.25758 73.3324 11.4482 72.866C12.4128 72.7229 18.4124 71.2707 18.476 70.6665C17.6333 68.4935 15.8048 68.1013 17.1881 65.4937C17.2305 65.4619 17.787 65.7481 17.893 65.8435L17.8983 65.8488Z" fill="#20261E"/>
<path d="M85.5122 271.229C86.71 271.118 85.4168 273.333 85.3108 274.075C84.5264 279.757 90.9606 279.788 94.5964 277.536C96.6687 276.253 96.3295 275.363 95.6405 273.137C95.0098 271.107 92.9852 269.416 94.6388 267.259C98.7145 272.072 98.529 280.52 90.9288 281.283C83.9434 281.983 82.6608 276.524 85.5069 271.224L85.5122 271.229Z" fill="#20261E"/>
<path d="M229.554 69.2088C230.752 69.0975 229.459 71.3129 229.353 72.0549C228.568 77.7365 235.003 77.7683 238.638 75.5158C240.711 74.2332 240.371 73.3428 239.682 71.1168C239.052 69.0869 237.027 67.3962 238.681 65.2391C242.756 70.0515 242.571 78.4997 234.971 79.2629C227.985 79.9625 226.703 74.5035 229.549 69.2035L229.554 69.2088Z" fill="#20261E"/>
<path d="M58.5029 18.6363C59.7007 18.525 58.4075 20.7404 58.3015 21.4824C57.5171 27.164 63.9513 27.1958 67.5871 24.9433C69.6594 23.6607 69.3202 22.7703 68.6312 20.5443C68.0005 18.5144 65.9759 16.8237 67.6295 14.6666C71.7052 19.479 71.5197 27.9272 63.9195 28.6904C56.9341 29.39 55.6515 23.931 58.4976 18.631L58.5029 18.6363Z" fill="#20261E"/>
<path d="M40.228 119.516C41.4258 119.405 40.1326 121.62 40.0266 122.362C39.2422 128.044 45.6764 128.076 49.3122 125.823C51.3845 124.541 51.0453 123.65 50.3563 121.424C49.7256 119.394 47.701 117.704 49.3546 115.547C53.4303 120.359 53.2448 128.807 45.6446 129.57C38.6592 130.27 37.3766 124.811 40.2227 119.511L40.228 119.516Z" fill="#20261E"/>
<path d="M47.3716 22.8711C46.513 22.9983 46.195 23.9046 45.1615 23.8516C41.3773 23.6502 44.4036 15.1172 47.2497 18.6258C49.7195 21.668 47.4935 28.6534 44.7004 30.9271C42.4426 32.7662 38.9605 32.9941 36.5225 31.4783C36.5066 30.9112 38.9499 31.1073 39.5011 31.0172C43.0362 30.4501 46.8787 26.4327 47.3769 22.8764L47.3716 22.8711ZM45.4265 19.9773L44.4672 20.8836C45.1403 21.668 45.9088 21.6627 46.5766 20.8836L45.4265 19.9773Z" fill="#20261E"/>
<path d="M189.567 73.4437C188.708 73.5709 188.39 74.4772 187.357 74.4242C183.573 74.2228 186.599 65.6898 189.445 69.1984C191.915 72.2406 189.689 79.226 186.896 81.4997C184.638 83.3388 181.156 83.5667 178.718 82.0509C178.702 81.4838 181.145 81.6799 181.696 81.5898C185.232 81.0227 189.074 77.0053 189.572 73.449L189.567 73.4437ZM187.617 70.5499L186.657 71.4562C187.33 72.2406 188.099 72.2353 188.767 71.4562L187.617 70.5499Z" fill="#20261E"/>
<path d="M154.347 224.896C153.488 225.024 153.17 225.93 152.137 225.877C148.352 225.675 151.379 217.142 154.225 220.651C156.695 223.693 154.469 230.679 151.676 232.952C149.418 234.791 145.936 235.019 143.498 233.504C143.482 232.936 145.925 233.133 146.476 233.042C150.011 232.475 153.854 228.458 154.352 224.902L154.347 224.896ZM152.402 222.003L151.442 222.909C152.115 223.693 152.884 223.688 153.552 222.909L152.402 222.003Z" fill="#20261E"/>
<path d="M86.5606 174.324C85.702 174.451 85.384 175.357 84.3505 175.304C80.5663 175.103 83.5926 166.57 86.4387 170.079C88.9085 173.121 86.6825 180.106 83.8894 182.38C81.6316 184.219 78.1495 184.447 75.7115 182.931C75.6956 182.364 78.1389 182.56 78.6901 182.47C82.2252 181.903 86.0677 177.885 86.5659 174.329L86.5606 174.324ZM84.6155 171.43L83.6562 172.336C84.3293 173.121 85.0978 173.115 85.7656 172.336L84.6155 171.43Z" fill="#20261E"/>
<path d="M61.4063 123.751C60.5477 123.878 60.2297 124.785 59.1962 124.732C55.412 124.53 58.4383 115.997 61.2844 119.506C63.7542 122.548 61.5282 129.534 58.7351 131.807C56.4773 133.646 52.9952 133.874 50.5572 132.358C50.5413 131.791 52.9846 131.987 53.5358 131.897C57.0709 131.33 60.9134 127.313 61.4116 123.757L61.4063 123.751ZM59.4612 120.857L58.5019 121.764C59.175 122.548 59.9435 122.543 60.6113 121.764L59.4612 120.857Z" fill="#20261E"/>
<path d="M160.438 123.751C159.579 123.878 159.261 124.785 158.227 124.732C154.443 124.53 157.47 115.997 160.316 119.506C162.785 122.548 160.559 129.534 157.766 131.807C155.509 133.646 152.026 133.874 149.588 132.358C149.573 131.791 152.016 131.987 152.567 131.897C156.102 131.33 159.945 127.313 160.443 123.757L160.438 123.751ZM158.492 120.857L157.533 121.764C158.206 122.548 158.975 122.543 159.643 121.764L158.492 120.857Z" fill="#20261E"/>
<path d="M222.135 123.751C221.276 123.878 220.958 124.785 219.925 124.732C216.141 124.53 219.167 115.997 222.013 119.506C224.483 122.548 222.257 129.534 219.464 131.807C217.206 133.646 213.724 133.874 211.286 132.358C211.27 131.791 213.713 131.987 214.264 131.897C217.799 131.33 221.642 127.313 222.14 123.757L222.135 123.751ZM220.184 120.857L219.225 121.764C219.898 122.548 220.667 122.543 221.335 121.764L220.184 120.857Z" fill="#20261E"/>
<path d="M293.892 123.751C293.034 123.878 292.716 124.785 291.682 124.732C287.898 124.53 290.924 115.997 293.77 119.506C296.24 122.548 294.014 129.534 291.221 131.807C288.963 133.646 285.481 133.874 283.043 132.358C283.027 131.791 285.47 131.987 286.022 131.897C289.557 131.33 293.399 127.313 293.897 123.757L293.892 123.751ZM291.942 120.857L290.982 121.764C291.656 122.548 292.424 122.543 293.092 121.764L291.942 120.857Z" fill="#20261E"/>
<path d="M218.425 275.469C217.566 275.596 217.248 276.502 216.215 276.449C212.431 276.248 215.457 267.715 218.303 271.224C220.773 274.266 218.547 281.251 215.754 283.525C213.496 285.364 210.014 285.592 207.576 284.076C207.56 283.509 210.003 283.705 210.554 283.615C214.089 283.048 217.932 279.03 218.43 275.474L218.425 275.469ZM216.48 272.575L215.52 273.481C216.194 274.266 216.962 274.26 217.63 273.481L216.48 272.575Z" fill="#20261E"/>
<path d="M254.967 131.961C258.608 132.475 264.39 129.952 265.62 126.327C266.442 123.91 263.097 123.258 263.929 120.137C263.998 119.877 263.823 119.294 264.359 119.517C264.73 119.676 266.081 121.88 266.277 122.363C268.355 127.482 264.528 133.551 258.804 133.275C258.46 133.259 254.082 132.724 254.962 131.956L254.967 131.961Z" fill="#20261E"/>
<path d="M73.0613 233.106C76.7024 233.62 82.4847 231.097 83.7143 227.472C84.5358 225.055 81.1915 224.403 82.0236 221.282C82.0925 221.022 81.9176 220.439 82.4529 220.662C82.8239 220.821 84.1754 223.025 84.3715 223.508C86.4491 228.627 82.6225 234.696 76.8985 234.42C76.554 234.404 72.1762 233.869 73.056 233.101L73.0613 233.106Z" fill="#20261E"/>
<path d="M199.626 24.9857C199.255 25.362 199.144 24.9645 199.101 24.5935C198.926 23.1254 198.995 21.3234 198.836 19.8235C198.518 16.7972 197.516 12.2922 197.612 9.4514C197.649 8.2907 198.296 7.5063 198.576 6.4516C199.52 7.0399 199 8.7094 199.106 9.7588C199.594 14.7408 200.983 20.0885 199.631 24.9857H199.626Z" fill="#20261E"/>
<path d="M146.667 176.439C146.296 176.815 146.185 176.418 146.142 176.047C145.967 174.579 146.036 172.777 145.877 171.277C145.559 168.25 144.557 163.745 144.653 160.905C144.69 159.744 145.337 158.959 145.617 157.905C146.561 158.493 146.041 160.163 146.147 161.212C146.635 166.194 148.024 171.542 146.672 176.439H146.667Z" fill="#20261E"/>
<path d="M226.37 176.439C225.999 176.815 225.888 176.418 225.845 176.047C225.67 174.579 225.739 172.777 225.58 171.277C225.262 168.25 224.261 163.745 224.356 160.905C224.393 159.744 225.04 158.959 225.321 157.905C226.264 158.493 225.745 160.163 225.851 161.212C226.338 166.194 227.727 171.542 226.375 176.439H226.37Z" fill="#20261E"/>
<path d="M284.622 125.866C284.251 126.242 284.14 125.845 284.098 125.474C283.923 124.005 283.992 122.203 283.833 120.704C283.515 117.677 282.513 113.172 282.608 110.331C282.646 109.171 283.292 108.386 283.573 107.332C284.516 107.92 283.997 109.589 284.103 110.639C284.591 115.621 285.979 120.969 284.628 125.866H284.622Z" fill="#20261E"/>
<path d="M74.912 75.5583C74.541 75.9346 74.4297 75.5371 74.3873 75.1661C74.2124 73.698 74.2813 71.896 74.1223 70.3961C73.8043 67.3698 72.8026 62.8648 72.898 60.024C72.9351 58.8633 73.5817 58.0789 73.8626 57.0242C74.806 57.6125 74.2866 59.282 74.3926 60.3314C74.8802 65.3134 76.2688 70.6611 74.9173 75.5583H74.912Z" fill="#20261E"/>
<path d="M294.152 227.011C293.781 227.388 293.669 226.99 293.627 226.619C293.452 225.151 293.521 223.349 293.362 221.849C293.044 218.823 292.042 214.318 292.138 211.477C292.175 210.316 292.821 209.532 293.102 208.477C294.046 209.066 293.526 210.735 293.632 211.785C294.12 216.767 295.509 222.114 294.157 227.011H294.152Z" fill="#20261E"/>
<path d="M156.726 75.5583C156.355 75.9346 156.244 75.5371 156.202 75.1661C156.027 73.698 156.096 71.896 155.937 70.3961C155.619 67.3698 154.617 62.8648 154.712 60.024C154.75 58.8633 155.396 58.0789 155.677 57.0242C156.62 57.6125 156.101 59.282 156.207 60.3314C156.695 65.3134 158.083 70.6611 156.732 75.5583H156.726Z" fill="#20261E"/>
<path d="M200.951 227.011C200.58 227.388 200.468 226.99 200.426 226.619C200.251 225.151 200.32 223.349 200.161 221.849C199.843 218.823 198.841 214.318 198.937 211.477C198.974 210.316 199.62 209.532 199.901 208.477C200.845 209.066 200.325 210.735 200.431 211.785C200.919 216.767 202.307 222.114 200.956 227.011H200.951Z" fill="#20261E"/>
<path d="M102.71 227.011C102.339 227.388 102.228 226.99 102.186 226.619C102.011 225.151 102.08 223.349 101.921 221.849C101.603 218.823 100.601 214.318 100.696 211.477C100.733 210.316 101.38 209.532 101.661 208.477C102.604 209.066 102.085 210.735 102.191 211.785C102.679 216.767 104.067 222.114 102.716 227.011H102.71Z" fill="#20261E"/>
<path d="M232.2 252.165C232.672 252.536 230.965 253.241 230.801 253.283C226.471 254.46 223.805 250.93 226.518 247.411C226.852 246.976 227.377 247.035 227.435 246.611C227.038 246.34 225.066 247.347 225.32 246.478C225.994 244.199 229.37 246.022 231.14 245.545C231.219 247.215 229.073 246.844 227.774 247.607C226.412 248.413 225.416 250.109 226.762 251.375C226.905 251.513 228.013 252.165 228.092 252.165H232.195H232.2Z" fill="#20261E"/>
<path d="M170.767 268.054C171.36 271.489 168.79 273.619 165.737 271.627C167.104 271.388 168.631 271.319 169.707 270.302C167.115 269.75 166.76 269.104 167.926 266.666C168.355 265.765 169.738 264.053 170.761 265.002C170.862 266.401 168.535 267.121 168.652 267.646C169.161 268.309 170.051 267.996 170.772 268.044L170.767 268.054Z" fill="#20261E"/>
<path d="M280.922 106.537C280.838 105.493 281.463 104.586 281.977 103.738C282.459 103.431 283.106 104.035 283.652 103.866C284.283 103.67 285.83 99.6733 287.415 101.237C289.1 102.901 286.387 105.551 284.463 105.731C282.539 105.911 282.459 104.369 280.922 106.537ZM287.007 103.357C286.625 101.592 284.956 103.028 284.627 104.152L287.007 103.357Z" fill="#20261E"/>
<path d="M195.926 5.66194C195.841 4.61784 196.466 3.71154 196.98 2.86354C197.463 2.55614 198.109 3.16034 198.655 2.99074C199.286 2.79464 200.834 -1.20156 202.418 0.361939C204.104 2.02614 201.39 4.67614 199.466 4.85634C197.542 5.03654 197.463 3.49424 195.926 5.66194ZM202.01 2.47664C201.629 0.711739 199.959 2.14804 199.63 3.27164L202.01 2.47664Z" fill="#20261E"/>
<path d="M153.029 56.2293C152.944 55.1852 153.569 54.2789 154.083 53.4309C154.566 53.1235 155.212 53.7277 155.758 53.5581C156.389 53.362 157.937 49.3658 159.521 50.9293C161.207 52.5935 158.493 55.2435 156.569 55.4237C154.645 55.6039 154.566 54.0616 153.029 56.2293ZM159.113 53.0493C158.732 51.2844 157.062 52.7207 156.733 53.8443L159.113 53.0493Z" fill="#20261E"/>
<path d="M71.206 56.2293C71.1212 55.1852 71.7466 54.2789 72.2607 53.4309C72.743 53.1235 73.3896 53.7277 73.9355 53.5581C74.5662 53.362 76.1138 49.3658 77.6985 50.9293C79.3839 52.5935 76.6703 55.2435 74.7464 55.4237C72.8225 55.6039 72.743 54.0616 71.206 56.2293ZM77.2957 53.0493C76.9141 51.2844 75.2446 52.7207 74.916 53.8443L77.2957 53.0493Z" fill="#20261E"/>
<path d="M222.67 157.109C222.585 156.065 223.21 155.159 223.725 154.311C224.207 154.004 224.853 154.608 225.399 154.438C226.03 154.242 227.578 150.246 229.162 151.809C230.848 153.474 228.134 156.124 226.21 156.304C224.286 156.484 224.207 154.942 222.67 157.109ZM228.754 153.929C228.373 152.164 226.703 153.601 226.375 154.724L228.754 153.929Z" fill="#20261E"/>
<path d="M99.0102 207.682C98.9254 206.638 99.5508 205.732 100.065 204.884C100.547 204.576 101.194 205.18 101.74 205.011C102.37 204.815 103.918 200.818 105.503 202.382C107.188 204.046 104.475 206.696 102.551 206.876C100.627 207.057 100.547 205.514 99.0102 207.682ZM105.1 204.502C104.718 202.737 103.049 204.173 102.72 205.297L105.1 204.502Z" fill="#20261E"/>
<path d="M197.247 207.682C197.162 206.638 197.787 205.732 198.301 204.884C198.784 204.576 199.43 205.18 199.976 205.011C200.607 204.815 202.154 200.818 203.739 202.382C205.424 204.046 202.711 206.696 200.787 206.876C198.863 207.057 198.784 205.514 197.247 207.682ZM203.336 204.502C202.955 202.737 201.285 204.173 200.957 205.297L203.336 204.502Z" fill="#20261E"/>
<path d="M290.452 207.682C290.367 206.638 290.993 205.732 291.507 204.884C291.989 204.576 292.636 205.18 293.182 205.011C293.812 204.815 295.36 200.818 296.945 202.382C298.63 204.046 295.916 206.696 293.993 206.876C292.069 207.057 291.989 205.514 290.452 207.682ZM296.537 204.502C296.155 202.737 294.485 204.173 294.157 205.297L296.537 204.502Z" fill="#20261E"/>
<path d="M142.969 157.109C142.884 156.065 143.51 155.159 144.024 154.311C144.506 154.004 145.153 154.608 145.699 154.438C146.329 154.242 147.877 150.246 149.462 151.809C151.147 153.474 148.434 156.124 146.51 156.304C144.586 156.484 144.506 154.942 142.969 157.109ZM149.054 153.929C148.672 152.164 147.003 153.601 146.674 154.724L149.054 153.929Z" fill="#20261E"/>
<path d="M268.675 100.781C269.109 101.28 268.956 102.446 268.346 102.827C267.874 102.191 267.005 101.576 266.364 102.435C267.519 104.099 268.653 103.4 270.328 103.362L270.021 104.645C268.182 104.799 266.385 105.398 264.769 106.277C264.753 105.822 264.769 105.265 265.018 104.873C265.489 104.11 266.385 104.756 265.087 102.928C265.219 101.704 267.646 99.5994 268.675 100.787V100.781Z" fill="#20261E"/>
<path d="M86.7625 201.926C87.1971 202.425 87.0434 203.591 86.4339 203.972C85.9622 203.336 85.093 202.721 84.4517 203.58C85.6071 205.244 86.7413 204.545 88.4161 204.508L88.1087 205.79C86.2696 205.944 84.4729 206.543 82.8564 207.423C82.8405 206.967 82.8564 206.41 83.1055 206.018C83.5772 205.255 84.4729 205.901 83.1744 204.073C83.3069 202.849 85.7343 200.745 86.7625 201.932V201.926Z" fill="#20261E"/>
<path d="M117.278 6.98696C116.139 6.28206 115.535 7.71836 114.554 8.35966C114.114 8.64586 112.106 9.65816 111.724 9.36666C111.565 8.68296 111.925 8.90556 112.222 8.68296C113.287 7.89326 114.528 7.33676 115.423 6.31916C112.386 5.27506 114.824 1.07216 116.976 2.65156C116.669 4.28396 117.686 5.59836 117.278 6.98166V6.98696ZM116.218 3.80696H115.164V4.19916L115.826 4.86166H116.218V3.80696Z" fill="#20261E"/>
<path d="M147.463 252.96C146.324 252.255 145.72 253.692 144.739 254.333C144.299 254.619 142.291 255.631 141.909 255.34C141.75 254.656 142.11 254.879 142.407 254.656C143.473 253.867 144.713 253.31 145.608 252.292C142.572 251.248 145.01 247.045 147.161 248.625C146.854 250.257 147.872 251.572 147.463 252.955V252.96ZM146.403 249.786H145.349V250.178L146.011 250.84H146.403V249.786Z" fill="#20261E"/>
<path d="M143.758 212.187C142.618 211.482 142.014 212.918 141.034 213.56C140.594 213.846 138.585 214.858 138.203 214.567C138.044 213.883 138.405 214.106 138.702 213.883C139.767 213.093 141.007 212.537 141.903 211.519C138.866 210.475 141.304 206.272 143.456 207.852C143.148 209.484 144.166 210.798 143.758 212.182V212.187ZM142.698 209.007H141.643V209.399L142.306 210.062H142.698V209.007Z" fill="#20261E"/>
<path d="M266.088 10.1618C264.949 9.45686 264.345 10.8932 263.364 11.5345C262.924 11.8207 260.916 12.833 260.534 12.5415C260.375 11.8578 260.735 12.0804 261.032 11.8578C262.098 11.0681 263.338 10.5116 264.233 9.49396C261.197 8.44986 263.635 4.24696 265.786 5.82636C265.479 7.45876 266.497 8.77316 266.088 10.1565V10.1618ZM265.028 6.98706H263.974V7.37926L264.636 8.04176H265.028V6.98706Z" fill="#20261E"/>
<path d="M304.481 58.0844C303.341 57.3795 302.737 58.8158 301.756 59.4571C301.316 59.7433 299.308 60.7556 298.926 60.4641C298.767 59.7804 299.128 60.003 299.424 59.7804C300.49 58.9907 301.73 58.4342 302.626 57.4166C299.589 56.3725 302.027 52.1696 304.178 53.749C303.871 55.3814 304.889 56.6958 304.481 58.0791V58.0844ZM303.426 54.9097H302.371V55.3019L303.034 55.9644H303.426V54.9097Z" fill="#20261E"/>
<path d="M172.881 60.9993C171.741 60.2944 171.137 61.7307 170.157 62.372C169.717 62.6582 167.708 63.6705 167.327 63.379C167.168 62.6953 167.528 62.9179 167.825 62.6953C168.89 61.9056 170.13 61.3491 171.026 60.3315C167.989 59.2874 170.427 55.0845 172.579 56.6639C172.271 58.2963 173.289 59.6107 172.881 60.994V60.9993ZM171.821 57.8193H170.766V58.2115L171.429 58.874H171.821V57.8193Z" fill="#20261E"/>
<path d="M71.7359 112.897C70.5964 112.192 69.9922 113.628 69.0117 114.27C68.5718 114.556 66.5631 115.568 66.1815 115.277C66.0225 114.593 66.3829 114.816 66.6797 114.593C67.745 113.803 68.9852 113.247 69.8809 112.229C66.844 111.185 69.282 106.982 71.4338 108.562C71.1264 110.194 72.144 111.508 71.7359 112.892V112.897ZM70.6759 109.717H69.6212V110.109L70.2837 110.772H70.6759V109.717Z" fill="#20261E"/>
<path d="M106.95 108.132C105.81 107.427 105.206 108.863 104.226 109.505C103.786 109.791 101.777 110.803 101.395 110.512C101.236 109.828 101.597 110.051 101.894 109.828C102.959 109.038 104.199 108.482 105.095 107.464C102.058 106.42 104.496 102.217 106.648 103.797C106.34 105.429 107.358 106.743 106.95 108.127V108.132ZM105.89 104.952H104.835V105.344L105.498 106.007H105.89V104.952Z" fill="#20261E"/>
<path d="M117.278 262.495C116.139 261.79 115.535 263.226 114.554 263.867C114.114 264.153 112.106 265.166 111.724 264.874C111.565 264.191 111.925 264.413 112.222 264.191C113.287 263.401 114.528 262.844 115.423 261.827C112.386 260.783 114.824 256.58 116.976 258.159C116.669 259.792 117.686 261.106 117.278 262.489V262.495ZM116.218 259.315H115.164V259.707L115.826 260.369H116.218V259.315Z" fill="#20261E"/>
<path d="M75.7066 161.614C74.5671 160.91 73.9629 162.346 72.9824 162.987C72.5425 163.273 70.5338 164.286 70.1522 163.994C69.9932 163.31 70.3536 163.533 70.6504 163.31C71.7157 162.521 72.9559 161.964 73.8516 160.947C70.8147 159.903 73.2527 155.7 75.4045 157.279C75.0971 158.911 76.1147 160.226 75.7066 161.609V161.614ZM74.6466 158.434H73.5919V158.827L74.2544 159.489H74.6466V158.434Z" fill="#20261E"/>
<path d="M92.65 10.1618C91.5105 9.45686 90.9063 10.8932 89.9258 11.5345C89.4859 11.8207 87.4772 12.833 87.0956 12.5415C86.9366 11.8578 87.297 12.0804 87.5938 11.8578C88.6591 11.0681 89.8993 10.5116 90.795 9.49396C87.7581 8.44986 90.1961 4.24696 92.3479 5.82636C92.0405 7.45876 93.0581 8.77316 92.65 10.1565V10.1618ZM91.5953 6.98706H90.5406V7.37926L91.2031 8.04176H91.5953V6.98706Z" fill="#20261E"/>
<path d="M277.206 156.585C276.067 155.88 275.462 157.316 274.482 157.957C274.042 158.244 272.033 159.256 271.652 158.964C271.493 158.281 271.853 158.503 272.15 158.281C273.215 157.491 274.455 156.934 275.351 155.917C272.314 154.873 274.752 150.67 276.904 152.249C276.597 153.882 277.614 155.196 277.206 156.579V156.585ZM276.151 153.405H275.097V153.797L275.759 154.459H276.151V153.405Z" fill="#20261E"/>
<path d="M261.587 60.2044C260.448 59.4995 259.844 60.9358 258.863 61.5771C258.423 61.8633 256.415 62.8756 256.033 62.5841C255.874 61.9004 256.234 62.123 256.531 61.9004C257.597 61.1107 258.837 60.5542 259.732 59.5366C256.696 58.4925 259.134 54.2896 261.285 55.869C260.978 57.5014 261.996 58.8158 261.587 60.1991V60.2044ZM260.527 57.0297H259.473V57.4219L260.135 58.0844H260.527V57.0297Z" fill="#20261E"/>
<path d="M116.749 60.2044C115.609 59.4995 115.005 60.9358 114.024 61.5771C113.585 61.8633 111.576 62.8756 111.194 62.5841C111.035 61.9004 111.396 62.123 111.692 61.9004C112.758 61.1107 113.998 60.5542 114.894 59.5366C111.857 58.4925 114.295 54.2896 116.446 55.869C116.139 57.5014 117.157 58.8158 116.749 60.1991V60.2044ZM115.689 57.0297H114.634V57.4219L115.296 58.0844H115.689V57.0297Z" fill="#20261E"/>
<path d="M33.6026 160.289C32.4631 159.585 31.8589 161.021 30.8784 161.662C30.4385 161.948 28.4298 162.961 28.0482 162.669C27.8892 161.985 28.2496 162.208 28.5464 161.985C29.6117 161.196 30.8519 160.639 31.7476 159.622C28.7107 158.578 31.1487 154.375 33.3005 155.954C32.9931 157.586 34.0107 158.901 33.6026 160.284V160.289ZM32.5479 157.115H31.4932V157.507L32.1557 158.169H32.5479V157.115Z" fill="#20261E"/>
<path d="M244.638 160.289C243.483 159.558 242.99 160.963 242.078 161.567C241.702 161.816 239.619 162.897 239.344 162.669C239.216 162.272 239.821 161.832 240.08 161.625C240.955 160.941 242.068 160.539 242.778 159.622C239.741 158.578 242.179 154.375 244.331 155.954C244.023 157.586 245.041 158.901 244.633 160.284L244.638 160.289ZM243.584 157.115H242.529V157.507L243.191 158.169H243.584V157.115Z" fill="#20261E"/>
<path d="M82.0597 209.012C82.0279 211.514 78.8373 212.42 76.765 212.712C76.0283 211.943 79.1394 210.682 79.6747 210.592C80.2842 209.945 78.0529 209.532 77.2102 210.051C76.924 210.226 76.9134 210.814 76.5 210.862C76.6113 206.914 79.4892 207.979 82.0544 209.012H82.0597Z" fill="#20261E"/>
<path d="M263.968 107.867C263.936 110.369 260.746 111.275 258.673 111.567C257.937 110.798 261.048 109.537 261.583 109.447C262.192 108.8 259.961 108.387 259.118 108.906C258.832 109.081 258.822 109.669 258.408 109.717C258.52 105.768 261.397 106.834 263.963 107.867H263.968Z" fill="#20261E"/>
<path d="M279.57 99.9437C280.01 101.809 276.597 103.442 275.155 103.564C272.829 103.765 276.629 101.47 277.477 101.502C278.007 100.945 276.221 100.702 276.014 100.702C275.071 100.712 274.843 101.412 274.037 101.502C274.906 97.7654 276.878 98.8837 279.57 99.9384V99.9437Z" fill="#20261E"/>
<path d="M61.6514 156.606C62.0913 158.472 58.6781 160.104 57.2365 160.226C54.9098 160.427 58.7099 158.132 59.5579 158.164C60.0879 157.608 58.3018 157.364 58.0951 157.364C57.1517 157.375 56.9238 158.074 56.1182 158.164C56.9874 154.428 58.959 155.546 61.6514 156.601V156.606Z" fill="#20261E"/>
<path d="M97.6582 201.089C98.0981 202.954 94.6849 204.587 93.2433 204.709C90.9166 204.91 94.7167 202.615 95.5647 202.647C96.0947 202.091 94.3086 201.847 94.1019 201.847C93.1585 201.857 92.9306 202.557 92.125 202.647C92.9942 198.911 94.9658 200.029 97.6582 201.084V201.089Z" fill="#20261E"/>
<path d="M253.356 8.06838C253.796 9.93398 250.383 11.5664 248.941 11.6883C246.614 11.8897 250.414 9.59478 251.262 9.62658C251.792 9.07008 250.006 8.82628 249.8 8.82628C248.856 8.83688 248.628 9.53648 247.823 9.62658C248.692 5.89008 250.664 7.00838 253.356 8.06308V8.06838Z" fill="#20261E"/>
<path d="M289.365 202.414C289.805 204.279 286.391 205.912 284.95 206.034C282.623 206.235 286.423 203.94 287.271 203.972C287.801 203.416 286.015 203.172 285.808 203.172C284.865 203.182 284.637 203.882 283.832 203.972C284.701 200.236 286.672 201.354 289.365 202.409V202.414Z" fill="#20261E"/>
<path d="M195.636 202.679C196.076 204.544 192.662 206.177 191.221 206.299C188.894 206.5 192.694 204.205 193.542 204.237C194.072 203.68 192.286 203.437 192.079 203.437C191.136 203.447 190.908 204.147 190.103 204.237C190.972 200.5 192.943 201.619 195.636 202.673V202.679Z" fill="#20261E"/>
<path d="M97.3994 106.298C97.8393 108.164 94.4261 109.796 92.9845 109.918C90.6578 110.12 94.4579 107.825 95.3059 107.857C95.8359 107.3 94.0498 107.056 93.8431 107.056C92.8997 107.067 92.6718 107.767 91.8662 107.857C92.7354 104.12 94.707 105.238 97.3994 106.293V106.298Z" fill="#20261E"/>
<path d="M143.472 49.3711C143.912 51.2367 140.499 52.8691 139.057 52.991C136.731 53.1924 140.531 50.8975 141.379 50.9293C141.909 50.3728 140.123 50.129 139.916 50.129C138.972 50.1396 138.745 50.8392 137.939 50.9293C138.808 47.1928 140.78 48.3111 143.472 49.3658V49.3711Z" fill="#20261E"/>
<path d="M269.771 154.751C270.211 156.617 266.798 158.249 265.357 158.371C263.03 158.572 266.83 156.277 267.678 156.309C268.208 155.753 266.422 155.509 266.215 155.509C265.272 155.52 265.044 156.219 264.238 156.309C265.107 152.573 267.079 153.691 269.771 154.746V154.751Z" fill="#20261E"/>
<path d="M131.553 209.564C131.993 211.429 128.58 213.062 127.138 213.184C124.812 213.385 128.612 211.09 129.46 211.122C129.99 210.565 128.204 210.322 127.997 210.322C127.054 210.332 126.826 211.032 126.02 211.122C126.889 207.385 128.861 208.504 131.553 209.558V209.564Z" fill="#20261E"/>
<path d="M291.75 58.111C292.19 59.9766 288.777 61.609 287.335 61.7309C285.008 61.9323 288.808 59.6374 289.656 59.6692C290.186 59.1127 288.4 58.8689 288.194 58.8689C287.25 58.8795 287.022 59.5791 286.217 59.6692C287.086 55.9327 289.058 57.051 291.75 58.1057V58.111Z" fill="#20261E"/>
<path d="M30.4082 209.564C30.8481 211.429 27.4349 213.062 25.9933 213.184C23.6666 213.385 27.4667 211.09 28.3147 211.122C28.8447 210.565 27.0586 210.322 26.8519 210.322C25.9085 210.332 25.6806 211.032 24.875 211.122C25.7442 207.385 27.7158 208.504 30.4082 209.558V209.564Z" fill="#20261E"/>
<path d="M258.917 262.251C259.357 264.117 255.944 265.749 254.502 265.871C252.175 266.072 255.975 263.777 256.823 263.809C257.353 263.253 255.567 263.009 255.361 263.009C254.417 263.019 254.189 263.719 253.384 263.809C254.253 260.073 256.225 261.191 258.917 262.246V262.251Z" fill="#20261E"/>
<path d="M128.907 59.4359C129.347 61.3015 125.934 62.9339 124.492 63.0558C122.166 63.2572 125.966 60.9623 126.814 60.9941C127.344 60.4376 125.558 60.1938 125.351 60.1938C124.408 60.2044 124.18 60.904 123.374 60.9941C124.243 57.2576 126.215 58.3759 128.907 59.4306V59.4359Z" fill="#20261E"/>
<path d="M140.027 255.896C140.467 257.762 137.054 259.394 135.612 259.516C133.285 259.718 137.085 257.423 137.933 257.454C138.463 256.898 136.677 256.654 136.471 256.654C135.527 256.665 135.299 257.364 134.494 257.454C135.363 253.718 137.334 254.836 140.027 255.891V255.896Z" fill="#20261E"/>
<path d="M107.194 8.86343C107.634 10.729 104.221 12.3614 102.779 12.4833C100.452 12.6847 104.252 10.3898 105.1 10.4216C105.63 9.86513 103.844 9.62133 103.638 9.62133C102.694 9.63193 102.466 10.3315 101.661 10.4216C102.53 6.68513 104.501 7.80343 107.194 8.85813V8.86343Z" fill="#20261E"/>
<path d="M141.882 151.841C142.322 153.707 138.909 155.339 137.467 155.461C135.14 155.663 138.94 153.368 139.788 153.399C140.318 152.843 138.532 152.599 138.326 152.599C137.382 152.61 137.154 153.309 136.349 153.399C137.218 149.663 139.189 150.781 141.882 151.836V151.841Z" fill="#20261E"/>
<path d="M221.053 152.106C221.493 153.972 218.079 155.604 216.638 155.726C214.311 155.928 218.111 153.633 218.959 153.664C219.489 153.108 217.703 152.864 217.496 152.864C216.553 152.875 216.325 153.574 215.52 153.664C216.389 149.928 218.36 151.046 221.053 152.101V152.106Z" fill="#20261E"/>
<path d="M132.909 130.901L132.103 132.486L129.771 130.769L130.932 129.025L133.01 130.085L134.319 128.802L136.057 130.286L134.859 132.21L132.909 130.901Z" fill="#20261E"/>
<path d="M20.1103 30.0211L19.3047 31.6058L16.9727 29.8886L18.1387 28.1449L20.211 29.2049L21.5201 27.9223L23.2585 29.4063L22.0607 31.3302L20.1103 30.0211Z" fill="#20261E"/>
<path d="M143.499 30.0211L142.693 31.6058L140.361 29.8886L141.527 28.1449L143.6 29.2049L144.914 27.9223L146.647 29.4063L145.449 31.3302L143.499 30.0211Z" fill="#20261E"/>
<path d="M179.502 129.576L180.695 127.991L182.582 129.852L181.458 131.415L179.402 130.387L178.098 131.659L176.37 130.196L177.531 128.251L179.502 129.576Z" fill="#20261E"/>
<path d="M107.194 115.26L105.233 114.206L103.659 115.531L102.042 114.222L101.963 113.617L103.145 112.118L104.931 113.13L105.901 111.837L108.233 113.554L107.194 115.26Z" fill="#20261E"/>
<path d="M269.263 230.721L270.46 229.136L272.342 230.997L271.218 232.555L269.162 231.532L267.863 232.804L266.13 231.341L267.291 229.396L269.263 230.721Z" fill="#20261E"/>
<path d="M280.366 177.26L279.321 179.348L277.345 178.034L276.02 179.592L274.016 178.14L275.251 176.195L277.042 177.218L278.394 175.898L280.366 177.26Z" fill="#20261E"/>
<path d="M121.774 180.149L122.972 178.564L124.853 180.424L123.73 181.988L121.673 180.959L120.375 182.231L118.642 180.769L119.808 178.824L121.774 180.149Z" fill="#20261E"/>
<path d="M117.789 14.3808L115.823 13.3261L114.249 14.6564L112.632 13.342L112.553 12.7378L113.74 11.2432L115.521 12.2502L116.496 10.9623L118.823 12.6742L117.789 14.3808Z" fill="#20261E"/>
<path d="M254.141 217.445L255.1 216.167L256.966 217.742L255.858 219.581L254.04 218.526L252.492 219.84L250.765 218.372L251.941 216.427L254.141 217.445Z" fill="#20261E"/>
<path d="M146.799 257.476L148.75 259.219C147.775 262.399 146.508 259.733 145.777 259.861L144.467 261.138L142.438 259.696L143.757 257.836L145.485 258.79L146.805 257.47L146.799 257.476Z" fill="#20261E"/>
<path d="M106.389 166.872L107.353 165.595L109.219 167.169L108.111 169.008L106.288 167.953L104.74 169.273L103.013 167.8L104.195 165.855L106.389 166.872Z" fill="#20261E"/>
<path d="M299.222 64.1424L300.245 62.1708L302.206 63.1089L303.552 61.7786L305.492 63.5117L304.088 65.1865L302.498 63.9198L301.178 65.4833L299.222 64.1424Z" fill="#20261E"/>
<path d="M9.50437 64.1742L10.6545 62.8916C12.7056 63.9357 12.8275 64.6777 11.2322 66.2889L9.38777 64.9692L8.45497 66.1776L7.84017 66.2677L6.08057 64.842L7.52217 62.881L9.50437 64.1742Z" fill="#20261E"/>
<path d="M244.411 266.168L245.439 264.196L247.395 265.129L248.741 263.799L250.686 265.537L249.276 267.212L247.686 265.945L246.366 267.509L244.411 266.168Z" fill="#20261E"/>
<path d="M193.574 114.784C194.189 114.429 195.339 115.902 195.917 116.22L194.464 118.176L192.874 116.888L191.952 118.07L191.348 118.149L189.583 116.697L190.791 115.028C191.703 114.752 192.641 117.36 193.574 114.784Z" fill="#20261E"/>
<path d="M177.122 111.042C176.099 113.719 179.364 112.606 178.977 110.507C180.121 110.337 179.189 112.134 180.434 111.837C181.388 111.614 181.044 110.486 181.362 109.712C181.828 109.357 182.385 111.842 181.234 112.892C180.084 113.941 179.602 112.929 179.104 112.955C178.807 112.971 178.473 113.83 177.774 113.952C174.848 114.455 176.385 110.295 177.122 111.042Z" fill="#20261E"/>
<path d="M192.481 165.59C191.459 168.266 194.723 167.153 194.336 165.054C195.481 164.885 194.548 166.681 195.794 166.385C196.748 166.162 196.403 165.033 196.721 164.259C197.188 163.904 197.744 166.39 196.594 167.439C195.444 168.489 194.962 167.476 194.464 167.503C194.167 167.519 193.833 168.377 193.133 168.499C190.208 169.003 191.745 164.842 192.481 165.59Z" fill="#20261E"/>
<path d="M167.058 216.157C166.035 218.834 169.3 217.721 168.913 215.622C170.058 215.452 169.125 217.249 170.371 216.952C171.325 216.729 170.98 215.601 171.298 214.827C171.765 214.472 172.321 216.957 171.171 218.007C170.021 219.056 169.539 218.044 169.04 218.07C168.744 218.086 168.41 218.945 167.71 219.067C164.784 219.57 166.321 215.41 167.058 216.157Z" fill="#20261E"/>
<path d="M54.7871 59.6745C53.7642 62.351 57.029 61.238 56.6421 59.1392C57.7869 58.9696 56.8541 60.7663 58.0996 60.4695C59.0536 60.2469 58.7091 59.118 59.0271 58.3442C59.4935 57.9891 60.05 60.4748 58.8999 61.5242C57.7498 62.5736 57.2675 61.5613 56.7693 61.5878C56.4725 61.6037 56.1386 62.4623 55.439 62.5842C52.5134 63.0877 54.0504 58.9272 54.7871 59.6745Z" fill="#20261E"/>
<path d="M119.399 161.615C118.377 164.291 121.641 163.178 121.254 161.079C122.399 160.91 121.466 162.706 122.712 162.41C123.666 162.187 123.321 161.058 123.639 160.284C124.106 159.929 124.662 162.415 123.512 163.464C122.362 164.514 121.88 163.501 121.382 163.528C121.085 163.544 120.751 164.402 120.051 164.524C117.126 165.028 118.663 160.867 119.399 161.615Z" fill="#20261E"/>
<path d="M183.21 7.25217C182.188 9.92867 185.452 8.81567 185.065 6.71687C186.21 6.54727 185.277 8.34397 186.523 8.04717C187.477 7.82457 187.132 6.69567 187.45 5.92187C187.917 5.56677 188.473 8.05247 187.323 9.10187C186.173 10.1513 185.691 9.13897 185.193 9.16547C184.896 9.18137 184.562 10.04 183.862 10.1619C180.937 10.6654 182.474 6.50487 183.21 7.25217Z" fill="#20261E"/>
<path d="M266.882 212.187C265.859 214.864 269.124 213.751 268.737 211.652C269.882 211.482 268.949 213.279 270.195 212.982C271.149 212.76 270.804 211.631 271.122 210.857C271.589 210.502 272.145 212.988 270.995 214.037C269.845 215.086 269.363 214.074 268.865 214.101C268.568 214.116 268.234 214.975 267.534 215.097C264.609 215.6 266.146 211.44 266.882 212.187Z" fill="#20261E"/>
<path d="M142.959 232.041L140.849 230.981C140.489 233.037 139.508 232.184 138.231 231.474L138.994 229.396L140.711 230.409L141.989 229.158L143.754 230.34L142.953 232.046L142.959 232.041Z" fill="#20261E"/>
<path d="M74.9112 181.474L72.8018 180.414C72.4414 182.47 71.4609 181.617 70.1836 180.906L70.9468 178.829L72.664 179.841L73.9413 178.59L75.7062 179.772L74.9059 181.479L74.9112 181.474Z" fill="#20261E"/>
<path d="M218.159 261.7C217.513 264.461 213.972 264.806 211.804 265.934C211.608 265.728 212.213 264.323 212.52 264.069C212.758 263.873 217.937 261.488 218.154 261.7H218.159Z" fill="#20261E"/>
<path d="M241.73 261.17C241.083 263.931 237.543 264.276 235.375 265.404C235.179 265.198 235.783 263.793 236.091 263.539C236.329 263.343 241.507 260.958 241.725 261.17H241.73Z" fill="#20261E"/>
<path d="M180.297 50.1449C179.651 52.9062 176.11 53.2507 173.943 54.3796C173.747 54.1729 174.351 52.7684 174.658 52.514C174.897 52.3179 180.075 49.9329 180.292 50.1449H180.297Z" fill="#20261E"/>
<path d="M88.9448 197.093C88.2982 199.854 84.7578 200.198 82.5901 201.327C82.394 201.121 82.9982 199.716 83.3056 199.462C83.5441 199.266 88.7222 196.881 88.9395 197.093H88.9448Z" fill="#20261E"/>
<path d="M270.327 260.375C269.681 263.136 266.14 263.481 263.972 264.609C263.776 264.403 264.381 262.998 264.688 262.744C264.926 262.548 270.105 260.163 270.322 260.375H270.327Z" fill="#20261E"/>
<path d="M279.062 3.01217C278.415 5.77347 274.875 6.11796 272.707 7.24687C272.511 7.04016 273.115 5.63566 273.422 5.38126C273.661 5.18516 278.839 2.80017 279.056 3.01217H279.062Z" fill="#20261E"/>
<path d="M237.229 55.7047C236.582 58.466 233.042 58.8105 230.874 59.9394C230.678 59.7327 231.282 58.3282 231.59 58.0738C231.828 57.8777 237.006 55.4927 237.224 55.7047H237.229Z" fill="#20261E"/>
<path d="M66.1714 5.13216C65.5248 7.89346 61.9844 8.23796 59.8167 9.36686C59.6206 9.16016 60.2248 7.75566 60.5322 7.50126C60.7707 7.30516 65.9488 4.92016 66.1661 5.13216H66.1714Z" fill="#20261E"/>
<path d="M44.9922 57.5597C44.3456 60.321 40.8052 60.6655 38.6375 61.7944C38.4414 61.5877 39.0456 60.1832 39.353 59.9288C39.5915 59.7327 44.7696 57.3477 44.9869 57.5597H44.9922Z" fill="#20261E"/>
<path d="M238.285 6.98714C237.638 9.74844 234.098 10.0929 231.93 11.2218C231.734 11.0151 232.338 9.61064 232.645 9.35624C232.884 9.16014 238.062 6.77514 238.279 6.98714H238.285Z" fill="#20261E"/>
<path d="M13.2192 7.51198C12.5726 10.2733 9.03224 10.6178 6.86454 11.7467C6.66844 11.54 7.27264 10.1355 7.58004 9.88108C7.81854 9.68498 12.9966 7.29998 13.2139 7.51198H13.2192Z" fill="#20261E"/>
<path d="M293.891 109.982C293.245 112.743 289.704 113.088 287.536 114.217C287.34 114.01 287.944 112.606 288.252 112.351C288.49 112.155 293.668 109.77 293.886 109.982H293.891Z" fill="#20261E"/>
<path d="M136.607 7.51198C135.961 10.2733 132.42 10.6178 130.253 11.7467C130.057 11.54 130.661 10.1355 130.968 9.88108C131.207 9.68498 136.385 7.29998 136.602 7.51198H136.607Z" fill="#20261E"/>
<path d="M222.134 109.982C221.488 112.743 217.947 113.088 215.78 114.217C215.583 114.01 216.188 112.606 216.495 112.351C216.734 112.155 221.912 109.77 222.129 109.982H222.134Z" fill="#20261E"/>
<path d="M208.1 252.435C207.453 255.196 203.913 255.541 201.745 256.67C201.549 256.463 202.153 255.059 202.46 254.804C202.699 254.608 207.877 252.223 208.094 252.435H208.1Z" fill="#20261E"/>
<path d="M31.4873 58.0846C30.8407 60.8459 27.3003 61.1904 25.1326 62.3193C24.9365 62.1126 25.5407 60.7081 25.8481 60.4537C26.0866 60.2576 31.2647 57.8726 31.482 58.0846H31.4873Z" fill="#20261E"/>
<path d="M189.566 59.4095C188.919 62.1708 185.379 62.5153 183.211 63.6442C183.015 63.4375 183.619 62.033 183.927 61.7786C184.165 61.5825 189.343 59.1975 189.561 59.4095H189.566Z" fill="#20261E"/>
<path d="M160.172 109.982C159.525 112.743 155.985 113.088 153.817 114.217C153.621 114.01 154.225 112.606 154.533 112.351C154.771 112.155 159.949 109.77 160.167 109.982H160.172Z" fill="#20261E"/>
<path d="M131.844 262.76C131.197 265.521 127.657 265.866 125.489 266.994C125.293 266.788 125.897 265.383 126.205 265.129C126.443 264.933 131.621 262.548 131.838 262.76H131.844Z" fill="#20261E"/>
<path d="M126.279 108.657C125.632 111.418 122.092 111.763 119.924 112.892C119.728 112.685 120.332 111.281 120.64 111.026C120.878 110.83 126.056 108.445 126.274 108.657H126.279Z" fill="#20261E"/>
<path d="M220.279 211.392C219.633 214.154 216.092 214.498 213.925 215.627C213.728 215.42 214.333 214.016 214.64 213.761C214.879 213.565 220.057 211.18 220.274 211.392H220.279Z" fill="#20261E"/>
<path d="M209.689 107.337C209.043 110.099 205.502 110.443 203.335 111.572C203.139 111.365 203.743 109.961 204.05 109.706C204.289 109.51 209.467 107.125 209.684 107.337H209.689Z" fill="#20261E"/>
<path d="M171.821 258.785C171.175 261.546 167.634 261.891 165.467 263.019C165.27 262.813 165.875 261.408 166.182 261.154C166.421 260.958 171.599 258.573 171.816 258.785H171.821Z" fill="#20261E"/>
<path d="M281.711 211.127C281.065 213.889 277.524 214.233 275.357 215.362C275.161 215.155 275.765 213.751 276.072 213.496C276.311 213.3 281.489 210.915 281.706 211.127H281.711Z" fill="#20261E"/>
<path d="M93.1807 257.995C92.5341 260.756 88.9937 261.101 86.826 262.23C86.6299 262.023 87.2341 260.618 87.5415 260.364C87.78 260.168 92.9581 257.783 93.1754 257.995H93.1807Z" fill="#20261E"/>
<path d="M47.9028 106.277C47.2562 109.039 43.7158 109.383 41.5481 110.512C41.352 110.305 41.9562 108.901 42.2636 108.646C42.5021 108.45 47.6802 106.065 47.8975 106.277H47.9028Z" fill="#20261E"/>
<path d="M154.083 211.127C153.436 213.889 149.896 214.233 147.728 215.362C147.532 215.155 148.136 213.751 148.444 213.496C148.682 213.3 153.86 210.915 154.078 211.127H154.083Z" fill="#20261E"/>
<path d="M270.853 95.9474C270.206 98.7087 266.666 99.0532 264.498 100.182C264.302 99.9754 264.906 98.5709 265.214 98.3165C265.452 98.1204 270.63 95.7354 270.848 95.9474H270.853Z" fill="#20261E"/>
<path d="M138.988 60.4695C138.342 63.2308 134.801 63.5753 132.634 64.7042C132.437 64.4975 133.042 63.093 133.349 62.8386C133.588 62.6425 138.766 60.2575 138.983 60.4695H138.988Z" fill="#20261E"/>
<path d="M70.1465 207.422C69.4999 210.184 65.9595 210.528 63.7918 211.657C63.5957 211.45 64.1999 210.046 64.5073 209.791C64.7458 209.595 69.9239 207.21 70.1412 207.422H70.1465Z" fill="#20261E"/>
<path d="M218.954 9.10195C218.307 11.8632 214.767 12.2077 212.599 13.3366C212.403 13.1299 213.008 11.7254 213.315 11.471C213.553 11.2749 218.732 8.88995 218.949 9.10195H218.954Z" fill="#20261E"/>
<path d="M47.373 8.83699C46.7264 11.5983 43.186 11.9428 41.0183 13.0717C40.8222 12.865 41.4264 11.4605 41.7338 11.2061C41.9723 11.01 47.1504 8.62499 47.3677 8.83699H47.373Z" fill="#20261E"/>
<path d="M256.557 210.597C255.911 213.358 252.37 213.703 250.202 214.832C250.006 214.625 250.611 213.221 250.918 212.966C251.156 212.77 256.335 210.385 256.552 210.597H256.557Z" fill="#20261E"/>
<path d="M41.0171 210.597C40.3705 213.358 36.8301 213.703 34.6624 214.832C34.4663 214.625 35.0705 213.221 35.3779 212.966C35.6164 212.77 40.7945 210.385 41.0118 210.597H41.0171Z" fill="#20261E"/>
<path d="M165.998 160.82C165.351 163.581 161.811 163.925 159.643 165.054C159.447 164.848 160.051 163.443 160.358 163.189C160.597 162.993 165.775 160.608 165.992 160.82H165.998Z" fill="#20261E"/>
<path d="M183.742 209.802C183.096 212.564 179.555 212.908 177.387 214.037C177.191 213.83 177.796 212.426 178.103 212.171C178.341 211.975 183.52 209.59 183.737 209.802H183.742Z" fill="#20261E"/>
<path d="M195.125 255.875C194.478 258.636 190.938 258.981 188.77 260.11C188.574 259.903 189.178 258.498 189.486 258.244C189.724 258.048 194.902 255.663 195.12 255.875H195.125Z" fill="#20261E"/>
<path d="M209.425 159.23C208.778 161.991 205.238 162.335 203.07 163.464C202.874 163.258 203.478 161.853 203.786 161.599C204.024 161.403 209.202 159.018 209.419 159.23H209.425Z" fill="#20261E"/>
<path d="M134.488 160.555C133.841 163.316 130.301 163.66 128.133 164.789C127.937 164.583 128.541 163.178 128.849 162.924C129.087 162.728 134.265 160.343 134.482 160.555H134.488Z" fill="#20261E"/>
<path d="M19.0449 209.802C18.3983 212.564 14.8579 212.908 12.6902 214.037C12.4941 213.83 13.0983 212.426 13.4057 212.171C13.6442 211.975 18.8223 209.59 19.0396 209.802H19.0449Z" fill="#20261E"/>
<path d="M86.2949 160.555C85.6483 163.316 82.1079 163.66 79.9402 164.789C79.7441 164.583 80.3483 163.178 80.6557 162.924C80.8942 162.728 86.0723 160.343 86.2896 160.555H86.2949Z" fill="#20261E"/>
<path d="M187.934 264.398C188.39 264.668 189.296 267.535 189.296 268.187C189.296 268.744 188.617 271.733 188.109 271.759C187.515 271.378 187.812 271.16 187.838 270.705C187.891 269.819 188.066 269.236 187.913 268.256C187.78 267.413 186.747 265.813 186.747 265.548C186.747 265.028 187.282 264.016 187.939 264.403L187.934 264.398Z" fill="#20261E"/>
<path d="M22.7126 63.9619C23.1684 64.2322 24.0747 67.0995 24.0747 67.7514C24.0747 68.3079 23.3963 71.2971 22.8875 71.3236C22.2939 70.942 22.5907 70.7247 22.6172 70.2689C22.6702 69.3838 22.8451 68.8008 22.6914 67.8203C22.5589 66.9776 21.5254 65.377 21.5254 65.112C21.5254 64.5926 22.0607 63.5803 22.7179 63.9672L22.7126 63.9619Z" fill="#20261E"/>
<path d="M35.6848 62.3718C36.1406 62.6421 37.0469 65.5094 37.0469 66.1613C37.0469 66.7178 36.3685 69.707 35.8597 69.7335C35.2661 69.3519 35.5629 69.1346 35.5894 68.6788C35.6424 67.7937 35.8173 67.2107 35.6636 66.2302C35.5311 65.3875 34.4976 63.7869 34.4976 63.5219C34.4976 63.0025 35.0329 61.9902 35.6901 62.3771L35.6848 62.3718Z" fill="#20261E"/>
<path d="M227.127 11.0043C227.582 11.2746 228.489 14.1419 228.489 14.7938C228.489 15.3503 227.81 18.3395 227.302 18.366C226.708 17.9844 227.005 17.7671 227.031 17.3113C227.084 16.4262 227.259 15.8432 227.105 14.8627C226.973 14.02 225.939 12.4194 225.939 12.1544C225.939 11.635 226.475 10.6227 227.132 11.0096L227.127 11.0043Z" fill="#20261E"/>
<path d="M197.247 160.025C197.358 160.136 196.812 161.668 196.537 161.896C195.62 162.638 192.345 163.475 191.163 164.259C190.977 164.026 191.571 162.643 191.878 162.394C192.164 162.161 197.04 159.818 197.247 160.025Z" fill="#20261E"/>
<path d="M187.976 1.68722C188.087 1.79852 187.541 3.33021 187.266 3.55812C186.349 4.30012 183.074 5.13752 181.892 5.92192C181.706 5.68872 182.3 4.30542 182.607 4.05632C182.893 3.82312 187.769 1.48052 187.976 1.68722Z" fill="#20261E"/>
<path d="M59.5566 54.1148C59.6679 54.2261 59.122 55.7578 58.8464 55.9857C57.9295 56.7277 54.6541 57.5651 53.4722 58.3495C53.2867 58.1163 53.8803 56.733 54.1877 56.4839C54.4739 56.2507 59.3499 53.9081 59.5566 54.1148Z" fill="#20261E"/>
<path d="M272.707 234.426C273.979 235.566 267.025 237.627 266.352 237.601C267.057 235.237 270.597 234.988 272.707 234.426Z" fill="#20261E"/>
<path d="M12.9548 78.7386C14.2268 79.8781 7.2732 81.9398 6.6001 81.9133C7.305 79.5495 10.8454 79.3004 12.9548 78.7386Z" fill="#20261E"/>
<path d="M277.738 82.1836C279.01 83.3231 272.056 85.3848 271.383 85.3583C272.088 82.9945 275.628 82.7454 277.738 82.1836Z" fill="#20261E"/>
<path d="M99.5354 83.7679C100.807 84.9074 93.8538 86.9691 93.1807 86.9426C93.8856 84.5788 97.426 84.3297 99.5354 83.7679Z" fill="#20261E"/>
<path d="M83.385 133.281C84.657 134.421 77.7034 136.482 77.0303 136.456C77.7352 134.092 81.2756 133.843 83.385 133.281Z" fill="#20261E"/>
<path d="M194.596 128.781C195.868 129.921 188.914 131.982 188.241 131.956C188.946 129.592 192.487 129.343 194.596 128.781Z" fill="#20261E"/>
<path d="M146.668 128.781C147.94 129.921 140.987 131.982 140.313 131.956C141.018 129.592 144.559 129.343 146.668 128.781Z" fill="#20261E"/>
<path d="M122.044 234.956C123.316 236.096 116.362 238.157 115.689 238.131C116.394 235.767 119.934 235.518 122.044 234.956Z" fill="#20261E"/>
<path d="M173.943 234.956C175.215 236.096 168.261 238.157 167.588 238.131C168.293 235.767 171.833 235.518 173.943 234.956Z" fill="#20261E"/>
<path d="M178.706 27.371C179.978 28.5105 173.025 30.5722 172.352 30.5457C173.056 28.1819 176.597 27.9328 178.706 27.371Z" fill="#20261E"/>
<path d="M33.6023 27.636C34.8743 28.7755 27.9207 30.8372 27.2476 30.8107C27.9525 28.4469 31.4929 28.1978 33.6023 27.636Z" fill="#20261E"/>
<path d="M253.378 127.986C254.65 129.126 247.697 131.187 247.023 131.161C247.728 128.797 251.269 128.548 253.378 127.986Z" fill="#20261E"/>
<path d="M186.122 279.704C187.394 280.843 180.441 282.905 179.768 282.879C180.472 280.515 184.013 280.266 186.122 279.704Z" fill="#20261E"/>
<path d="M179.236 178.559C180.508 179.698 173.554 181.76 172.881 181.733C173.586 179.37 177.127 179.121 179.236 178.559Z" fill="#20261E"/>
<path d="M109.334 179.884C110.606 181.023 103.653 183.085 102.979 183.058C103.684 180.695 107.225 180.446 109.334 179.884Z" fill="#20261E"/>
<path d="M124.959 183.854C126.231 184.993 119.277 187.055 118.604 187.028C119.309 184.664 122.849 184.415 124.959 183.854Z" fill="#20261E"/>
<path d="M157.262 27.636C158.534 28.7755 151.58 30.8372 150.907 30.8107C151.612 28.4469 155.153 28.1978 157.262 27.636Z" fill="#20261E"/>
<path d="M49.4919 186.239C50.7639 187.378 43.8103 189.44 43.1372 189.413C43.8421 187.049 47.3825 186.8 49.4919 186.239Z" fill="#20261E"/>
<path d="M250.468 279.704C251.74 280.843 244.786 282.905 244.113 282.879C244.818 280.515 248.358 280.266 250.468 279.704Z" fill="#20261E"/>
<path d="M260.527 186.239C261.799 187.378 254.845 189.44 254.172 189.413C254.877 187.049 258.418 186.8 260.527 186.239Z" fill="#20261E"/>
<path d="M233.785 229.131C235.057 230.271 228.103 232.332 227.43 232.306C228.135 229.942 231.675 229.693 233.785 229.131Z" fill="#20261E"/>
<path d="M183.212 106.277C182.957 106.648 182.841 107.38 182.502 107.618C181.473 108.344 178.177 108.811 176.857 109.452C176.354 107.735 182.91 106.055 183.212 106.277Z" fill="#20261E"/>
<path d="M179.506 104.422C179.252 104.793 179.135 105.525 178.796 105.763C177.768 106.489 174.471 106.956 173.152 107.597C172.648 105.88 179.204 104.2 179.506 104.422Z" fill="#20261E"/>
<path d="M191.983 260.942C192.518 260.629 193.917 261.97 194.315 262.394L192.878 264.344L190.901 262.601L191.983 260.942Z" fill="#20261E"/>
<path d="M89.2314 265.643C88.9558 265.246 90.2543 263.82 90.6624 263.619L92.5863 265.272L91.1977 266.931L89.2314 265.643Z" fill="#20261E"/>
<path d="M233.275 63.6174C233 63.2199 234.298 61.7942 234.706 61.5928L236.63 63.2464L235.242 64.9053L233.275 63.6174Z" fill="#20261E"/>
<path d="M62.2221 13.0449C61.9465 12.6474 63.245 11.2217 63.6531 11.0203L65.577 12.6739L64.1884 14.3328L62.2221 13.0449Z" fill="#20261E"/>
<path d="M58.9214 162.155L60.8559 163.644L59.6793 165.584L57.7183 164.09L58.9214 162.155Z" fill="#20261E"/>
<path d="M216.077 16.5485C216.607 16.2358 218.096 17.4972 218.399 18.006L217.19 19.6649L214.985 18.2286L216.077 16.5485Z" fill="#20261E"/>
<path d="M275.055 80.5565C273.862 80.3869 272.23 79.5548 273.12 78.2298C274.286 76.4914 274.928 78.1344 276.136 78.8711L275.055 80.5618V80.5565Z" fill="#20261E"/>
<path d="M163.384 168.001C163.914 167.688 165.403 168.95 165.705 169.459L164.497 171.118L162.292 169.681L163.384 168.001Z" fill="#20261E"/>
<path d="M94.4037 58.625L96.3382 60.1196L95.1616 62.0594L93.1953 60.5648L94.4037 58.625Z" fill="#20261E"/>
<path d="M66.9766 212.717C68.9058 213.507 69.9817 214.609 67.8617 216.141L65.9272 214.668L66.9766 212.717Z" fill="#20261E"/>
<path d="M248.884 111.572C250.814 112.361 251.889 113.464 249.769 114.996L247.835 113.522L248.884 111.572Z" fill="#20261E"/>
<path d="M217.667 218.574C218.197 218.261 219.687 219.522 219.989 220.031L218.78 221.69L216.576 220.254L217.667 218.574Z" fill="#20261E"/>
<path d="M43.9536 113.925C43.678 113.527 44.9765 112.102 45.3846 111.9L47.3085 113.554L45.9199 115.213L43.9536 113.925Z" fill="#20261E"/>
<path d="M93.8798 112.112C94.4999 111.922 95.4963 113.268 96.0952 113.565L94.8656 115.261L92.6714 113.782L93.8798 112.112Z" fill="#20261E"/>
<path d="M37.4823 229.418L39.4115 230.88C39.544 231.416 38.3674 232.46 37.9752 232.826L36.0566 231.119L37.4823 229.412V229.418Z" fill="#20261E"/>
<path d="M251.756 29.984C250.563 29.8144 248.931 28.9823 249.821 27.6573C250.987 25.9189 251.628 27.5619 252.837 28.2986L251.756 29.9893V29.984Z" fill="#20261E"/>
<path d="M34.2651 173.593L36.189 175.246L34.8004 176.905L32.8765 175.251L34.2651 173.593Z" fill="#20261E"/>
<path d="M245.301 173.593L247.225 175.246L245.836 176.905L243.912 175.251L245.301 173.593Z" fill="#20261E"/>
<path d="M134.007 13.6439C134.648 13.2729 135.989 14.5555 136.318 15.0961L135.109 16.755C134.431 16.9352 133.609 15.748 133.196 15.271L134.007 13.6439Z" fill="#20261E"/>
<path d="M10.347 13.6439C10.9883 13.2729 12.3292 14.5555 12.6578 15.0961L11.4494 16.755C10.771 16.9352 9.94953 15.748 9.53613 15.271L10.347 13.6439Z" fill="#20261E"/>
<path d="M115.334 279.481C115.886 279.375 116.94 280.456 117.242 280.933C117.327 281.363 116.442 282.481 116.039 282.587C115.515 282.72 114.237 281.501 114.137 281.108C114.004 280.61 114.953 279.555 115.34 279.481H115.334Z" fill="#20261E"/>
<path d="M123.676 114.524C124.317 114.153 125.658 115.436 125.986 115.976L124.778 117.635C124.1 117.815 123.278 116.628 122.865 116.151L123.676 114.524Z" fill="#20261E"/>
<path d="M190.663 113.92C190.34 113.368 191.516 112.324 191.829 111.837L193.817 113.559L192.619 115.266L190.663 113.925V113.92Z" fill="#20261E"/>
<path d="M277.737 10.1669L276.502 11.9901C274.482 11.4336 273.878 10.2146 275.792 8.85779L277.737 10.1722V10.1669Z" fill="#20261E"/>
<path d="M138.458 265.67L136.349 264.212L137.409 262.76L139.237 264.249L138.458 265.67Z" fill="#20261E"/>
<path d="M268.203 164.524L266.093 163.067L267.153 161.615L268.987 163.104L268.203 164.524Z" fill="#20261E"/>
<path d="M230.042 249.027C230.318 249.483 229.762 250.045 229.417 250.31L228.511 249.351L229.147 248.524C229.306 248.725 230 248.964 230.037 249.027H230.042Z" fill="#20261E"/>
<path d="M22.7493 115.542C23.1097 118.324 25.7067 120.423 25.3993 123.216C24.7262 123.37 24.9382 123.036 24.7156 122.718C23.8464 121.488 23.486 119.988 22.4896 118.981C22.8659 119.66 20.7406 123.857 20.3696 123.481C19.564 121.472 21.1116 120.449 21.6999 118.594C21.9808 117.715 22.0179 116.814 22.2193 115.934C22.3147 115.526 22.0391 115.473 22.7387 115.542H22.7493Z" fill="#20261E"/>
<path d="M17.4583 123.221C17.188 122.246 17.1509 121.223 16.8488 120.253C16.3612 118.684 14.6069 116.941 15.7358 115.547C17.2622 117.031 18.2321 120.205 17.9936 122.304C17.9512 122.702 17.9406 123.12 17.4583 123.221Z" fill="#20261E"/>
<path d="M211.545 69.4688L213.067 65.5733C213.681 64.4762 214.005 66.1615 213.877 66.8876C213.718 67.8257 212.568 71.2707 212.197 72.389C212.091 72.7017 212.16 73.0568 211.678 72.919C211.535 72.8766 211.005 70.5923 210.798 70.0888C210.051 68.2974 208.387 67.2215 209.166 65.2393C209.473 64.9266 211.71 68.8645 211.551 69.474L211.545 69.4688Z" fill="#20261E"/>
<path d="M205.981 65.2342C207.523 67.6722 208.143 69.9883 207.836 72.9086C207.041 73.0358 207.412 72.7125 207.3 72.2673C206.935 70.778 206.786 69.8187 206.171 68.3506C205.928 67.7729 205.254 67.2217 205.186 66.6652C205.127 66.2147 205.419 64.7572 205.981 65.2289V65.2342Z" fill="#20261E"/>
<path d="M69.3577 275.204L68.2712 271.256C64.3439 272.3 65.9286 266.083 68.0327 267.376C68.8171 267.858 69.3153 272.665 70.1156 273.736L69.3524 275.199L69.3577 275.204ZM68.0274 269.639C67.6193 268.728 66.7713 268.5 66.7024 269.639H68.0274Z" fill="#20261E"/>
<path d="M63.7962 274.939C63.5259 273.964 63.4888 272.941 63.1867 271.971C62.6991 270.402 60.9448 268.659 62.0737 267.265C63.6001 268.749 64.57 271.924 64.3315 274.022C64.2891 274.42 64.2785 274.839 63.7962 274.939Z" fill="#20261E"/>
</svg>
