<svg width="310" height="95" viewBox="0 0 310 95" fill="none" xmlns="http://www.w3.org/2000/svg">
<path d="M101.4 64.5454C101.342 64.2221 99.688 62.5632 99.8364 61.7258C97.7005 63.1939 98.9301 64.3864 99.2375 66.1672C99.9053 70.0415 100.202 74.0112 100.774 77.8961C100.234 78.8607 93.8951 79.1257 92.9517 77.7424C96.9479 73.4282 89.9731 71.5255 87.5139 74.1596C87.021 74.6843 85.8391 76.7672 86.9309 76.7619C87.6941 76.7619 89.0297 76.1206 89.247 77.6099C88.3513 77.7689 87.3443 78.548 86.4698 78.6752C85.2243 78.8501 83.6555 78.548 82.3676 78.6752C83.8463 76.8096 85.06 74.3451 82.0973 73.248C78.7795 72.0237 77.163 73.9582 74.6879 75.7602C75.0218 74.0695 75.0695 72.0608 74.9635 70.3171C74.884 69.0769 74.3593 67.5346 74.3964 66.3527C74.4229 65.5153 75.0218 64.7733 74.9688 64.2698C74.9529 64.132 73.4 62.8282 73.4954 61.9802C71.4708 63.1038 72.7534 64.821 73.029 66.4269C73.4159 68.6847 74.5713 75.0818 73.4848 76.8043C73.347 77.0216 72.1015 78.3201 71.9213 78.4208C70.167 79.4278 66.4305 78.2777 66.8757 75.7549C66.4252 75.7655 65.7256 77.3767 65.026 77.8802C63.3353 79.0992 60.4362 78.9402 58.7137 77.8378C56.9541 76.7142 57.3728 75.2885 54.8553 76.7089C52.5922 77.9862 50.8114 79.7299 50.8432 82.5177C50.8697 84.9239 51.7972 89.1904 52.2318 91.7397C52.306 92.1743 52.4703 94.0346 52.8519 94.0293C53.3395 93.7113 53.2229 93.3297 53.26 92.858C53.5197 89.5296 52.1417 85.6341 51.9244 82.2739L53.419 80.2917C54.9931 81.2351 56.7421 81.9559 58.6342 81.8658L59.09 80.8005C61.5068 81.2987 64.7663 81.4206 66.0913 78.9402C66.5312 79.4066 66.7326 80.0161 67.2997 80.3765C69.3561 81.6803 74.831 80.7581 77.4863 80.7793C78.2442 80.7846 78.8908 81.0602 79.5798 81.0655C83.6078 81.1026 87.6941 81.6856 90.9748 78.9243C93.1054 80.7899 95.0134 81.304 97.8542 81.0496C100.303 80.827 101.93 79.9419 101.988 77.2124C102.052 73.9794 100.658 69.7818 100.668 66.5859C100.668 65.7061 101.453 64.7892 101.405 64.5348L101.4 64.5454ZM54.8288 78.1558C55.5602 77.3714 57.4311 78.3307 57.4735 79.4755C57.2456 79.2529 54.1981 78.8289 54.8288 78.1558ZM73.3682 78.6752C75.4935 76.0411 79.5904 73.2003 82.3729 76.5552C79.5639 77.9226 76.4634 78.4155 73.3682 78.6752Z" fill="#20261E"/>
<path d="M259.471 30.037C263.086 29.2738 266.255 26.8252 270.188 28.1078L271.428 25.7069C269.557 25.8606 267.909 25.5797 266.128 25.0444C262.805 24.0533 257.484 19.8398 256.334 25.7016C257.001 25.691 257.526 25.1345 258.178 25.0126C259.164 24.8271 261.957 25.6539 262.879 26.1733C263.176 26.3376 263.33 26.1521 263.218 26.7616C260.43 27.5407 257.298 28.4841 254.367 28.0707C252.035 27.7474 252.443 25.1716 251.966 25.1769C250.599 27.7421 250.811 28.9452 247.599 27.2757L247.991 25.4313C246.942 25.8659 246.756 27.0796 245.665 27.6096C244.859 28.0018 243.725 28.1078 242.829 28.0813L243.354 25.4366C242.522 25.9825 242.363 26.7987 241.425 27.3446C240.015 28.1661 237.095 28.4099 235.616 27.7474C233.941 27.0001 234.121 24.8324 231.593 25.1822C230.077 25.3942 227.708 28.1184 227.486 29.5547C226.86 33.5509 230.666 32.7824 233.289 33.6463C229.685 37.51 218.062 38.9092 219.318 30.9274C219.461 30.0264 220.203 28.9823 220.315 28.2085C220.389 27.6944 220.214 27.7898 219.79 27.8163C214.416 37.3139 222.578 42.068 231.084 37.3934C232.828 36.4341 234.869 34.966 234.63 32.7082C234.386 30.3656 229.309 31.7118 228.821 30.0158C228.53 29.0141 230.528 27.44 231.371 27.3234C232.176 27.2121 233.692 29.3639 234.789 29.8886C235.982 30.461 237.656 30.6253 238.96 30.4398C241.043 30.143 240.063 29.931 242.448 30.1801C244.79 30.4186 245.993 28.9505 246.396 28.9505C246.751 28.9505 248.315 30.4451 249.825 30.2013C250.742 30.0529 250.843 29.0194 251.558 28.6113C252.767 31.2348 257.086 30.5299 259.466 30.0264L259.471 30.037Z" fill="#20261E"/>
<path d="M291.791 75.9191C291.314 72.4741 286.841 70.5555 284.212 68.9337C284.074 68.8489 283.666 68.9072 283.873 68.4832C284.45 67.3013 293.381 63.5595 295.087 62.8122L295.522 60.671C291.234 62.6267 286.65 64.3174 282.945 67.2907C282.288 65.4463 282.516 63.2892 282.283 61.3282C282.24 60.9519 282.134 60.5756 281.758 60.936L281.09 62.9129L282.272 76.6823C282.118 79.2793 275.419 79.7775 276.188 76.0357C272.064 78.1345 263.881 80.5672 259.789 77.7423C257.42 76.1046 258.422 74.8061 258.973 72.7179C259.45 70.9318 258.12 72.4582 257.701 73.3009C256.111 76.5074 257.017 79.5549 260.505 80.7315C265.02 82.2473 270.829 80.7156 274.99 78.6804C275.891 81.7968 281.148 81.9558 282.277 78.9507C283.788 81.1926 284.588 81.8286 287.408 81.5636C290.975 81.2297 292.278 79.5178 291.785 75.9244L291.791 75.9191ZM290.635 78.1557C290.137 78.956 286.332 79.3694 285.383 79.1521C282.876 78.585 283.189 72.9723 283.078 71.0007C283.29 70.7622 287.636 73.6401 288.113 74.0429C288.934 74.7372 291.346 77.0268 290.635 78.1557Z" fill="#20261E"/>
<path d="M57.2077 25.5691C57.3932 24.9543 56.9162 25.2352 56.6565 25.2776C54.8386 25.5744 51.8706 26.9842 50.1428 26.9471C48.8072 26.9206 45.3463 23.6664 46.8992 22.3997C48.7171 20.9157 52.2204 21.4563 54.298 21.9916C54.2609 20.8892 52.9041 19.9988 51.9925 19.6649C46.6289 17.7198 42.4896 23.6611 46.3533 27.8163C42.1981 28.4629 40.3908 28.5689 39.5481 24.1646C38.8485 20.5023 38.8008 16.5273 38.1436 12.8544C38.0641 12.4251 38.2814 11.9905 37.7461 11.6672C37.2797 12.1707 36.8292 12.9551 36.8027 13.6547C36.6861 16.5856 38.027 21.0641 38.1542 24.2335C38.1807 24.8748 38.2496 26.0143 38.0906 26.5761C37.5288 28.5053 31.9373 28.6749 31.137 26.7563C30.8773 26.1415 31.3119 25.1133 30.607 25.1769C29.5629 28.3357 24.5173 29.4381 23.0386 26.1203C22.498 24.9013 21.7348 19.0766 21.4645 18.8222C21.0458 18.4247 21.014 18.9123 20.908 19.1879C20.6589 19.8557 20.7225 21.5941 20.6324 21.6948C20.4893 21.8591 18.6078 22.4898 17.7651 23.4597C13.8855 27.917 18.5601 29.7614 21.7295 26.2369C22.1164 30.7101 27.7185 32.1411 29.9445 28.3569C32.0539 31.4998 37.6931 31.2984 39.0764 27.5566C40.0834 30.0317 41.5197 30.6094 44.1167 30.4822C45.9346 30.3921 53.8952 28.553 55.4322 27.7633C55.9463 27.4983 57.0487 26.0832 57.2077 25.5638V25.5691ZM18.0248 25.7069C17.6008 24.6151 20.7649 22.8714 21.1995 23.3219L21.2207 25.0444C20.2296 25.6168 19.1643 25.8076 18.0248 25.7069Z" fill="#20261E"/>
<path d="M166.012 64.5454C165.954 64.2221 164.3 62.5632 164.448 61.7258C162.312 63.1939 163.542 64.3864 163.849 66.1672C164.517 70.0415 164.814 74.0112 165.386 77.8961C164.841 78.866 158.263 79.1363 157.299 77.7424C161.295 73.4441 154.336 71.5149 151.861 74.1596C151.368 74.6843 150.186 76.7672 151.278 76.7619C152.041 76.7619 153.377 76.1206 153.594 77.6099C150.976 78.8448 147.96 79.4543 145.782 77.0905C144.743 78.5162 144.944 79.8889 146.662 80.5779L146.736 80.9224C146.047 83.7738 143.911 85.6341 141.218 86.5563L136.39 87.5474C141.754 90.3776 147.536 87.1287 147.775 81.0602C150.663 81.3676 153.027 80.6733 155.322 78.9296C157.553 80.933 159.737 81.3517 162.705 81.0284C164.629 80.8164 165.895 80.3765 166.393 78.3625C167.12 75.4316 165.265 69.8136 165.275 66.5912C165.275 65.7114 166.06 64.7945 166.012 64.5401V64.5454Z" fill="#20261E"/>
<path d="M37.7048 64.6885C36.666 64.0949 35.7385 63.6285 34.7739 63.0455C34.3393 62.7858 33.3323 62.6003 33.1839 62.4519C32.7334 62.0067 33.0832 60.687 31.2494 61.3124C30.3696 61.6092 30.6452 62.2028 30.4014 62.4519C30.3166 62.5367 28.7266 63.6603 28.5464 63.7769C28.2178 63.9889 26.9405 64.1214 26.2197 64.4977C20.3632 67.5664 20.1035 78.9826 24.476 83.3551C25.1703 84.0494 28.3397 85.8991 29.3202 86.3231C30.518 86.8425 31.366 87.0492 32.7016 86.869C33.8358 86.7153 38.4044 84.1607 39.2206 83.3286C43.4553 79.0356 43.291 67.8685 37.7101 64.6938L37.7048 64.6885ZM29.4103 63.3158L31.26 63.8458C30.3537 61.0368 33.274 61.1216 32.3253 63.8458C32.9613 63.3264 33.9577 62.8812 34.44 63.8458C33.2687 63.8882 32.4048 64.3493 31.9278 65.4358C31.3077 64.4447 30.9579 64.3652 29.9933 63.92C29.617 63.7451 29.2672 64.079 29.4156 63.3211L29.4103 63.3158ZM26.5271 65.0648C28.3132 64.1479 30.8837 63.8829 31.2706 66.3527C30.8572 67.5028 29.9297 68.0381 29.1506 66.8933L30.2053 66.2255C31.0745 64.9641 25.4141 65.1284 25.4406 67.2855C26.2303 67.1954 27.1631 66.5965 27.8203 67.418C26.6384 68.0063 25.536 68.2395 24.4071 69.0292C23.681 69.538 23.2517 70.1475 22.5362 70.598C23.2729 68.4621 24.4124 66.146 26.5271 65.0595V65.0648ZM22.5309 78.1505L24.5608 80.2228L27.8256 81.3305C27.8256 82.523 26.0819 82.1149 25.4459 81.5955C24.7357 82.4488 29.9509 85.3267 30.2106 82.6555L29.1506 81.993C31.9331 80.4719 32.0391 84.3462 29.1665 84.6536C25.8487 85.0087 23.1563 81.0337 22.5362 78.1505H22.5309ZM29.1453 85.4327C29.988 84.9292 31.3713 84.9557 31.5303 83.7155H32.0497L32.585 84.6377L34.6997 85.5652C32.8394 86.3496 30.9049 86.6994 29.14 85.4327H29.1453ZM32.32 82.5283C32.4154 81.5372 33.8517 81.2033 34.4453 81.993L33.3853 82.6555C33.698 85.226 39.0351 82.5707 38.15 81.5955L36.7084 82.1414L36.0353 81.3358L39.0351 80.2281L41.065 78.1558C40.959 81.9453 34.3393 87.9714 32.3253 82.5336L32.32 82.5283ZM35.2456 80.8058C35.0336 81.7969 35.4682 82.2262 36.03 82.9152L34.705 83.1802C35.8498 80.8376 33.0302 79.8094 31.9225 81.8605H31.5356C30.8148 79.767 27.7726 81.0708 28.8803 83.1802L27.5553 82.9152L28.4987 81.0549C20.1194 79.5974 20.2095 69.22 28.6153 68.0805C28.4881 67.3809 28.2443 66.6283 27.5553 66.3633L28.8803 65.9658C27.8627 68.6264 30.6929 68.7748 32.055 67.0205C32.7228 69.2465 35.8816 68.2024 34.7103 65.9658C37.3868 65.8916 34.5725 67.0311 35.3516 68.1017C35.4629 68.2554 38.1341 68.9868 38.9291 69.5539C43.6779 72.9618 41.0915 80.6733 35.2456 80.8005V80.8058ZM36.03 67.8155V67.0258L38.15 67.2908C37.7631 65.5206 34.3234 64.5666 33.3853 66.2255C36.4858 67.7254 31.5515 68.1494 32.5161 65.7803C34.2704 61.482 41.2505 67.5081 41.0597 70.7305C39.8248 69.2253 38.0864 67.8844 36.03 67.8155Z" fill="#20261E"/>
<path d="M69.1965 26.9683C68.0093 29.8992 70.2724 30.7578 72.8323 30.4769C71.8624 35.1833 67.2408 37.0754 62.7676 36.8316V37.6266C66.6366 38.1831 70.4314 38.9834 72.668 34.9501C73.4736 33.4979 73.5107 31.7966 74.3216 30.5087C75.636 30.5511 76.7278 30.3974 77.9362 29.8886C78.6464 29.5865 79.9979 28.3993 80.3636 28.3781C81.678 28.2986 84.1743 29.8144 85.812 29.0247C86.9727 28.4629 87.0999 25.532 86.6706 24.4561C86.1194 23.0887 80.0297 18.377 78.9538 19.1137C78.3072 20.0889 78.9273 21.292 78.8531 22.1029C78.7312 23.3802 76.6642 25.532 77.756 27.5831C76.7013 28.2509 75.3869 28.1449 74.1997 28.0601C73.4895 24.6734 70.8077 22.9933 69.2018 26.9736L69.1965 26.9683ZM83.2892 23.8519C83.4482 23.9208 84.964 25.2087 85.1548 25.4313C87.0522 27.652 84.0206 27.0001 82.632 26.4966C82.8864 25.8341 82.8387 25.1928 82.9076 24.5144C82.9288 24.2865 82.7327 23.6134 83.2945 23.8519H83.2892ZM80.3795 23.147C81.7416 23.147 82.9447 26.6291 79.6481 25.9189C77.5546 25.4684 79.4997 23.1523 80.3795 23.147ZM72.3076 28.0866C72.0108 27.97 69.9014 28.4311 70.1929 27.6944C70.9932 26.5443 71.7564 27.0955 72.3076 28.0866Z" fill="#20261E"/>
<path d="M238.331 79.6081C239.492 79.0463 239.619 76.1154 239.19 75.0395C238.638 73.6721 232.549 68.9604 231.473 69.6971C230.826 70.6723 231.446 71.8754 231.372 72.6863C231.25 73.9636 229.183 76.1154 230.275 78.1665C229.22 78.8343 227.906 78.7283 226.719 78.6435C226.009 75.2568 223.327 73.5767 221.721 77.557C220.534 80.4879 222.797 81.3465 225.357 81.0656C224.387 85.772 219.765 87.6641 215.292 87.4203V88.2153C219.161 88.7718 222.956 89.5721 225.192 85.5388C225.998 84.0866 226.035 82.3853 226.846 81.0974C228.16 81.1398 229.252 80.9861 230.461 80.4773C231.171 80.1752 232.522 78.988 232.888 78.9668C234.202 78.8873 236.699 80.4031 238.336 79.6134L238.331 79.6081ZM222.712 78.2884C223.512 77.1383 224.276 77.6895 224.827 78.6806C224.53 78.564 222.42 79.0251 222.712 78.2884ZM232.172 76.5076C230.079 76.0571 232.024 73.741 232.904 73.7357C234.266 73.7357 235.469 77.2178 232.172 76.5076ZM235.814 74.4459C235.973 74.5148 237.488 75.8027 237.679 76.0253C239.577 78.246 236.545 77.5941 235.156 77.0906C235.411 76.4281 235.363 75.7868 235.432 75.1084C235.458 74.8805 235.257 74.2074 235.819 74.4459H235.814Z" fill="#20261E"/>
<path d="M186.825 27.297C187.318 27.509 187.18 30.6572 189.798 31.2084C192.231 31.7172 194.155 30.2173 194.886 27.9913L195.432 27.827C195.999 30.4823 200.568 31.5476 202.173 29.4011C204.675 26.0568 200.695 20.2798 200.732 16.4373C199.767 16.4267 199.391 18.1863 199.402 18.9389C199.428 20.4017 201.834 27.0638 201.506 27.5355C195.363 29.0884 195.792 22.5323 195.087 18.5043C195.024 18.1439 194.891 16.4267 194.51 16.4373C192.655 18.8859 194.255 22.0235 194.372 24.7795C194.451 26.5921 194.34 27.2281 192.586 28.0178C190.153 29.1149 188.605 28.2245 188.287 25.5692C188.086 23.8944 188.287 21.5147 188.287 19.7445C188.287 19.6544 187.938 19.3523 188.017 19.082C186.947 19.9406 186.607 21.4193 186.655 22.7496C184.641 23.2531 181.074 25.6699 181.143 27.9754C181.185 29.417 186.581 29.3587 186.83 27.297H186.825ZM186.957 24.382C187.386 26.7882 184.821 26.1893 183.252 26.2317C183.353 25.3519 186.65 24.0587 186.957 24.382Z" fill="#20261E"/>
<path d="M12.3551 87.399C10.8446 85.3373 9.67858 83.0106 9.02137 80.5355L10.6061 79.8677L8.49668 77.2177C9.59908 76.428 11.1997 79.1628 11.9364 78.6752C12.2332 78.0869 12.0636 77.0269 12.3392 76.5605C12.5459 76.2054 13.5052 76.0464 13.6748 75.2567C13.8603 74.3928 12.6572 74.1596 12.3498 73.6349C12.0053 73.0519 12.2014 72.0237 11.5389 71.5255C10.8605 71.3824 9.40298 73.6773 8.49668 73.248C8.84648 71.5202 11.7774 70.5768 9.07967 69.5539C9.56727 67.5452 10.1821 65.6266 11.3004 63.867C11.6608 63.2946 13.9769 60.8513 13.5264 60.4008C9.63618 61.4979 7.49497 66.1248 6.05337 69.6069L3.20197 70.2005C2.68257 70.9637 5.29547 72.3735 5.05167 73.3752C3.76377 73.3752 3.06417 72.0555 2.00417 71.5308C1.24627 71.9972 1.55367 73.3858 1.27807 73.8469C1.08727 74.1649 -0.0946251 74.2762 0.00607492 75.3521C0.0855749 76.2107 1.11907 76.3379 1.35757 76.7407C1.60667 77.17 1.72857 78.8395 1.87167 78.9402C3.27087 78.9243 3.66838 77.011 5.04637 77.0905L3.19667 80.2652L6.10107 80.933C7.86067 84.378 9.96478 88.5809 13.9133 89.8052C14.3267 88.8406 12.8851 88.1251 12.3498 87.3937L12.3551 87.399ZM9.55138 73.9158L11.4011 72.8505C11.1467 74.5624 11.5389 74.2974 12.7208 75.103C12.5088 75.5323 11.7138 75.7337 11.5336 76.0305C10.8605 77.1488 12.2014 78.2883 9.55138 76.163L10.3676 75.3733C10.3729 74.2179 9.38708 74.7903 9.55138 73.9158ZM2.53417 77.6152C1.85047 76.5393 2.38047 75.7549 0.816975 75.368C1.82927 74.5677 2.41757 74.3451 2.14197 72.8505L3.99167 74.0483V74.4299C2.52357 74.7638 3.29207 75.7549 4.26197 76.1577L2.53947 77.6099L2.53417 77.6152ZM7.95077 76.4174C6.28127 77.859 4.17187 75.3733 5.64527 73.9794C7.15577 72.5484 9.63617 74.9652 7.95077 76.4174ZM4.52167 70.4708L6.60457 70.4337C7.54267 67.63 8.77758 64.7945 11.0142 62.7911C9.64148 65.1496 8.50197 67.6936 8.23697 70.4602H9.02137C9.38177 70.8312 8.13097 72.3364 7.56917 72.3258L6.76887 71.5255L6.10107 72.3205H5.58167L4.51638 70.4708H4.52167ZM9.06908 84.855C8.42778 83.9169 7.07627 80.5567 6.77947 80.2546C6.24947 79.7193 5.26367 80.3129 4.78667 79.5974L5.58697 78.1452H6.10637L6.77417 78.9402L7.82887 78.1452L9.02137 79.6027L8.22637 79.9949C8.62917 82.7244 9.98067 85.0405 11.2739 87.4043C10.5319 86.6411 9.66267 85.7189 9.06908 84.8444V84.855Z" fill="#20261E"/>
<path d="M280.603 11.2272C282.443 13.3684 283.916 15.9495 284.605 18.6949C284.499 19.2779 282.798 19.0765 283.079 19.739C283.37 20.4227 285.177 21.2972 285.199 22.389C284.112 23.0992 282.808 20.5817 282.183 20.6824C281.34 20.8202 281.605 22.2777 281.361 22.7918C281.16 23.2158 280.179 23.3748 280.015 24.0903C279.814 24.9701 281.118 25.3146 281.441 25.8817C281.812 26.5442 281.579 27.6042 282.416 28.0812C283.238 27.3127 283.974 26.2262 285.199 26.1043C285.071 27.8162 281.716 29.0299 284.663 29.6924C284.255 31.6163 283.683 33.5243 282.66 35.2203C282.034 36.2538 280.497 37.6212 280.116 38.5063C279.543 39.8313 281.451 38.7395 281.886 38.4215C283.63 37.1495 285.548 34.4147 286.566 32.5067C286.889 31.9025 287.26 30.2436 287.684 29.9203C288.251 29.491 290.249 29.7613 290.483 28.9981C290.753 28.1236 288.469 27.0901 288.638 25.9718L291.68 27.8215C292.507 26.6131 292.147 25.5266 293.636 24.7316C294.118 23.3324 292.783 23.2953 292.375 22.6328C291.977 21.9915 292.295 21.17 291.68 20.6718L288.644 22.5268C288.421 21.5834 290.631 19.8927 290.377 19.3468C289.937 18.3928 288.182 19.1136 287.568 18.7002C287.419 18.5995 286.349 16.0078 286.036 15.4672C284.812 13.3631 282.188 10.0082 279.639 9.81738C279.395 10.7979 280.248 10.8191 280.603 11.2325V11.2272ZM282.289 26.4965C282.278 26.0725 282.384 25.5478 282.162 25.1662C281.897 24.7157 280.699 24.8005 280.964 24.2493C281.218 23.7193 282.824 23.5073 282.289 21.9968L284.139 23.0621L283.333 24.2493L284.398 25.4365L282.284 26.4965H282.289ZM291.553 21.9968C291.267 23.3695 292.046 23.4861 292.873 24.2493C292.603 24.6309 291.877 24.7846 291.68 25.1715C291.405 25.7174 291.861 26.629 291.15 26.5018L289.433 25.4365L290.509 24.244L289.433 23.0568L291.548 21.9968H291.553ZM289.168 28.8815L287.08 28.9133C286.211 31.8018 284.801 34.7539 282.549 36.8262C282.978 35.6814 283.778 34.8122 284.26 33.6409C284.552 32.936 285.638 29.5705 285.336 29.1359C285.177 28.9027 284.589 28.9557 284.663 28.749L285.723 27.0265L286.91 27.8321L288.098 27.0265L289.158 28.8815H289.168ZM286.688 22.5957C288.039 22.4473 289.232 24.0797 288.114 25.3146C286.004 27.6466 283.656 22.9296 286.688 22.5957ZM282.808 12.1971C283.757 13.7023 284.918 14.9001 285.776 16.5166C286.778 18.414 286.322 20.1577 289.168 19.6118L288.103 21.1965C286.868 20.6241 286.778 20.4439 285.729 21.4615L284.404 19.739L285.199 19.474C285.442 19.3256 285.426 19.2567 285.416 19.0076C285.342 17.1367 283.471 13.8189 282.284 12.3243L282.808 12.1971Z" fill="#20261E"/>
<path d="M130.025 26.237C130.386 28.1026 131.35 30.0371 133.401 30.4134C135.161 30.7314 141.505 30.583 142.602 29.1467C144.41 26.7776 142.305 19.3576 142.199 16.3154C142.157 15.0964 142.804 13.9251 142.751 13.4004C142.692 12.7962 141.325 11.7892 141.415 10.8723L139.931 13.1195C140.493 13.9304 140.652 14.8897 140.811 15.849C141.431 19.6173 141.77 23.4651 142.178 27.2599C139.406 28.0443 132.792 29.3852 131.334 26.1151C130.794 24.8961 130.031 19.0714 129.76 18.817C129.342 18.4195 129.31 18.9071 129.204 19.1827C128.955 19.8505 129.018 21.5889 128.928 21.6896C128.785 21.8539 126.904 22.4846 126.061 23.4545C122.181 27.9118 126.856 29.7562 130.025 26.2317V26.237ZM129.501 23.322L129.522 25.0445C128.531 25.6169 127.465 25.8077 126.326 25.707C125.902 24.6152 129.066 22.8715 129.501 23.322Z" fill="#20261E"/>
<path d="M133.909 78.4368C138.483 82.009 140.211 77.928 139.3 73.6456C138.913 73.2004 138.128 75.0554 138.086 75.2356C137.8 76.391 139.215 78.5905 136.125 77.2178C134.503 76.497 135.256 75.8716 135.33 74.4406C134.137 74.7904 134.201 76.2585 133.083 77.0906C130.74 78.8343 129.055 77.6259 127.783 75.5059C125.541 78.3785 130.825 81.1769 128.058 83.9859C126.012 86.0635 120.458 87.1659 118.423 84.6007C116.594 82.2952 118.471 80.5197 118.253 78.1506C115.37 81.7069 115.693 87.9768 121.168 88.475C125.906 88.9096 130.878 85.5388 129.834 80.3872L130.019 80.1275C131.609 80.0321 132.786 79.571 133.909 78.4368Z" fill="#20261E"/>
<path d="M108.825 27.9805C108.793 26.7509 107.707 25.5213 107.797 24.2758C107.871 23.2741 108.624 21.4933 108.809 20.2372C109.085 18.4034 108.82 15.6951 109.164 14.2376C109.291 13.7076 109.906 13.2889 109.906 12.8596C109.906 12.5946 108.581 10.4163 108.449 9.81738L107.087 11.7996C108.47 15.4407 107.691 19.6012 106.991 23.3165L102.099 16.6915C101.384 16.1456 97.1439 11.206 96.4019 11.9268C95.9726 14.2588 95.6917 15.9654 98.3841 16.718C98.9989 16.8876 99.4123 16.5855 99.9794 16.9353C100.605 17.3169 102.174 19.315 102.746 20.0093C103.292 20.6771 106.048 24.3341 106.149 24.8323C106.334 25.7227 104.272 28.2084 103.525 28.7225C103.186 28.9557 102.364 29.0352 102.264 29.1836C102.004 29.5705 101.765 31.1075 102.624 31.2612C103.154 31.3566 107.405 30.8849 107.866 30.6782C108.39 30.445 108.836 28.5529 108.82 27.9752L108.825 27.9805ZM107.786 28.6165L105.142 28.8815L106.732 26.2368C107.039 26.0301 107.988 28.4363 107.786 28.6165Z" fill="#20261E"/>
<path d="M171.657 14.2376C171.784 13.7076 172.399 13.2889 172.399 12.8596C172.399 12.5946 171.074 10.4163 170.941 9.81738L169.579 11.7996C171.026 15.552 170.088 19.7496 169.484 23.5868C166.765 20.0199 163.94 15.4884 160.341 12.7377C159.843 12.3561 159.318 11.8526 158.629 11.9321C158.2 14.2641 157.919 15.9707 160.612 16.7233C161.226 16.8929 161.64 16.5908 162.207 16.9406C162.832 17.3222 164.401 19.3203 164.973 20.0146C165.572 20.746 168.44 24.562 168.567 25.1503C168.721 25.8605 166.664 28.2879 166.018 28.7278C165.678 28.961 164.857 29.0405 164.756 29.1889C164.496 29.5758 164.258 31.1128 165.117 31.2665C165.647 31.3619 169.897 30.8902 170.358 30.6835C172.298 29.8196 170.035 25.781 170.088 24.8164C170.141 23.8571 171.095 21.5993 171.302 20.2372C171.577 18.4034 171.312 15.6951 171.657 14.2376ZM167.629 28.8815L169.351 26.5018L170.014 28.6165L167.629 28.8815Z" fill="#20261E"/>
<path d="M306.382 73.1209C306.461 73.7145 306.122 74.3081 306.101 74.8593C306.058 76.1154 307.346 76.5553 307.664 77.8008C307.792 78.3096 307.325 78.2248 306.965 78.3255C305.417 78.7654 303.912 78.6965 302.322 78.6912C301.4 75.2409 298.628 73.5131 297.107 77.7372C296.084 80.5727 298.416 81.3359 300.827 81.0656C299.857 85.772 295.236 87.6641 290.763 87.4203V88.2153C297.234 89.7894 300.971 87.8708 302.137 81.1822C305.587 80.9755 309.456 81.1133 308.751 76.444C308.666 75.8822 307.023 72.4425 306.387 73.1156L306.382 73.1209ZM298.172 78.2884C298.972 77.1383 299.736 77.6895 300.287 78.6806C299.99 78.564 297.881 79.0251 298.172 78.2884Z" fill="#20261E"/>
<path d="M198.528 71.3508C198.422 71.2501 197.865 70.9639 197.823 71.001C196.439 73.6086 198.268 74.0008 199.111 76.1738C199.047 76.7833 193.047 78.2355 192.083 78.3733C188.887 78.8397 181.371 79.693 181.923 74.5679C181.954 74.2605 182.924 72.2412 182.066 72.591C179.967 74.7905 180.115 78.6118 182.898 80.2283C185.956 82.0144 193.577 80.6788 196.832 79.4121C197.351 79.2107 199.391 78.2938 199.667 78.0129C201.029 76.6296 199.837 72.5857 198.533 71.3508H198.528Z" fill="#20261E"/>
<path d="M245.126 79.9263C246.159 79.9793 246.477 79.0783 247.336 78.9458C246.838 82.5074 242.995 86.5248 239.46 87.0919C238.914 87.182 236.471 86.9806 236.481 87.553C238.919 89.0688 242.402 88.8356 244.659 87.0018C247.452 84.7281 249.678 77.7427 247.209 74.6952C244.363 71.1866 241.336 79.7249 245.12 79.9263H245.126ZM244.426 76.9583L245.385 76.052L246.536 76.9583C245.868 77.7374 245.099 77.7427 244.426 76.9583Z" fill="#20261E"/>
<path d="M206.292 74.7056C206.239 75.3893 205.693 76.4599 205.873 77.1012C206.096 77.9121 207.988 79.571 208.083 80.7052C208.147 81.4737 206.382 83.7951 205.767 84.3781C204.623 85.454 202.126 86.9115 200.573 87.1288C199.974 87.2136 197.552 86.9327 197.558 87.5475C199.524 88.9202 203.679 88.8301 205.624 87.415C209.451 84.6325 210.516 77.6418 206.292 74.7056Z" fill="#20261E"/>
<path d="M65.3011 9.82296C66.0272 9.79116 70.9986 9.30886 71.2477 9.14986C71.4067 9.04916 71.8201 8.25416 71.7777 8.22236C68.6825 8.01036 65.5767 9.18696 62.5133 8.48206C62.2324 8.17466 64.3577 6.69596 64.4902 6.69596C64.5962 6.69596 65.0255 7.15176 65.5555 7.18886C66.6155 7.26836 66.8699 6.45746 67.1402 6.43096C67.3257 6.41506 67.7921 6.83906 68.2161 6.87616C70.5428 7.09876 73.5797 6.39386 72.7158 3.43646C70.617 2.04256 69.3821 4.12546 68.2055 5.56176L67.0183 4.77206C67.066 5.62006 65.7781 6.17126 65.1951 5.79496C64.7817 5.52996 64.2305 1.53906 64.3683 0.797058L63.568 1.45956L64.0609 5.64656C60.8597 8.28596 60.3509 10.0244 65.3064 9.81766L65.3011 9.82296ZM72.0427 5.04236L69.133 5.83736C69.2708 4.48586 71.7194 3.33046 72.0427 5.04236Z" fill="#20261E"/>
<path d="M263.75 57.3587C263.909 57.258 264.322 56.463 264.28 56.4312C261.185 56.2192 258.079 57.3958 255.015 56.6909C254.734 56.3835 256.86 54.9048 256.992 54.9048C257.098 54.9048 257.527 55.3606 258.057 55.3977C259.117 55.4772 259.372 54.6663 259.642 54.6398C259.828 54.6239 260.294 55.0479 260.718 55.085C263.045 55.3076 266.082 54.6027 265.218 51.6453C263.119 50.2514 261.884 52.3343 260.707 53.7706L259.52 52.9809C259.568 53.8289 258.28 54.3801 257.697 54.0038C257.284 53.7388 256.732 49.7479 256.87 49.0059L256.07 49.6684L256.563 53.8554C253.362 56.4948 252.853 58.2332 257.808 58.0265C258.534 57.9947 263.506 57.5124 263.755 57.3534L263.75 57.3587ZM264.545 53.2512L261.635 54.0462C261.773 52.6947 264.221 51.5393 264.545 53.2512Z" fill="#20261E"/>
<path d="M170.548 62.5208C170.267 63.5755 169.621 64.3599 169.584 65.5206C169.488 68.3667 170.49 72.8717 170.808 75.898C170.967 77.3979 170.893 79.2052 171.073 80.668C171.115 81.039 171.227 81.4365 171.598 81.0602C172.954 76.163 171.566 70.8153 171.073 65.828C170.972 64.7839 171.492 63.1091 170.543 62.5208H170.548Z" fill="#20261E"/>
<path d="M106.201 62.5208C105.92 63.5755 105.273 64.3599 105.236 65.5206C105.141 68.3667 106.143 72.8717 106.461 75.898C106.62 77.3979 106.545 79.2052 106.726 80.668C106.768 81.039 106.879 81.4365 107.25 81.0602C108.607 76.163 107.219 70.8153 106.726 65.828C106.625 64.7839 107.144 63.1091 106.196 62.5208H106.201Z" fill="#20261E"/>
<path d="M207.617 11.9323C207.336 12.987 206.689 13.7714 206.652 14.9321C206.557 17.7782 207.559 22.2832 207.877 25.3095C208.036 26.8094 207.961 28.6166 208.142 30.0794C208.184 30.4504 208.295 30.848 208.666 30.4717C210.023 25.5745 208.635 20.2268 208.142 15.2395C208.041 14.1954 208.56 12.5206 207.612 11.9323H207.617Z" fill="#20261E"/>
<path d="M148.034 26.6346C148.13 27.4667 147.716 28.5267 148.432 29.1415C149.259 29.1309 149.142 24.6842 149.105 23.9687C148.888 19.9566 147.52 15.9816 147.769 11.9271C146.582 12.0649 146.407 14.0418 146.428 14.9746C146.513 18.5309 147.621 22.967 148.034 26.624V26.6346Z" fill="#20261E"/>
<path d="M114.671 26.6346C114.767 27.4667 114.353 28.5267 115.069 29.1415C115.896 29.1309 115.779 24.6842 115.742 23.9687C115.525 19.9566 114.157 15.9816 114.406 11.9271C113.219 12.0649 113.044 14.0418 113.066 14.9746C113.15 18.5309 114.258 22.967 114.671 26.624V26.6346Z" fill="#20261E"/>
<path d="M170.627 59.0548C170.081 59.2244 169.434 58.6202 168.952 58.9276C168.438 59.7756 167.813 60.6819 167.897 61.726C169.434 59.5583 169.588 61.0953 171.438 60.9204C173.362 60.7402 176.075 58.0902 174.39 56.426C172.811 54.8625 171.258 58.8587 170.627 59.0548ZM171.602 59.341C171.931 58.2121 173.6 56.7811 173.982 58.546L171.602 59.341Z" fill="#20261E"/>
<path d="M106.286 59.0548C105.74 59.2244 105.094 58.6202 104.611 58.9276C104.097 59.7756 103.472 60.6819 103.557 61.726C105.094 59.5583 105.247 61.0953 107.097 60.9204C109.021 60.7402 111.735 58.0902 110.049 56.426C108.47 54.8625 106.917 58.8587 106.286 59.0548ZM107.256 59.341C107.585 58.2121 109.254 56.7811 109.636 58.546L107.256 59.341Z" fill="#20261E"/>
<path d="M207.702 8.4662C207.156 8.6358 206.51 8.0316 206.027 8.339C205.513 9.187 204.888 10.0933 204.973 11.1374C206.51 8.9697 206.663 10.5067 208.513 10.3318C210.437 10.1516 213.151 7.5016 211.465 5.8374C209.886 4.2739 208.333 8.2701 207.702 8.4662ZM208.672 8.7524C209.001 7.6235 210.67 6.1925 211.052 7.9574L208.672 8.7524Z" fill="#20261E"/>
<path d="M193.062 57.3429C191.875 56.5479 189.697 58.5195 190.174 59.9558C190.407 60.6607 191.7 60.4434 191.462 61.0582C190.63 62.0599 189.368 62.5316 188.282 63.1835C187.948 63.3849 187.609 63.1305 187.757 63.8407C190.232 63.9732 191.615 61.6412 193.725 61.2119C193.969 60.8462 193.449 57.6026 193.062 57.3429ZM192.516 59.606H192.124L191.191 58.8163L192.092 58.5672C192.548 58.7951 192.569 59.129 192.516 59.6113V59.606Z" fill="#20261E"/>
<path d="M79.9033 14.9003C80.8891 14.259 81.488 12.8174 82.6275 13.5276C83.0356 12.139 82.018 10.8299 82.3254 9.19221C80.1683 7.61281 77.7356 11.8157 80.7725 12.8598C79.8768 13.8721 78.6366 14.4339 77.5713 15.2236C77.2745 15.4462 76.9141 15.2236 77.0731 15.9073C77.4547 16.2041 79.4634 15.1865 79.9033 14.9003ZM80.5181 10.7345V10.3423H81.5728V11.397H81.1806L80.5181 10.7345Z" fill="#20261E"/>
<path d="M230.093 65.8122C229.796 66.0348 229.436 65.8122 229.595 66.4959C229.977 66.7927 231.985 65.7751 232.425 65.4889C233.411 64.8476 234.01 63.406 235.149 64.1162C235.558 62.7276 234.54 61.4185 234.847 59.7808C232.69 58.2014 230.258 62.4043 233.294 63.4484C232.399 64.4607 231.159 65.0225 230.093 65.8122ZM233.035 61.3284V60.9362H234.089V61.9909H233.697L233.035 61.3284Z" fill="#20261E"/>
<path d="M185.028 17.0151C186.014 16.3738 186.613 14.9322 187.752 15.6424C188.16 14.2538 187.143 12.9447 187.45 11.307C185.293 9.72761 182.86 13.9305 185.897 14.9746C185.001 15.9869 183.761 16.5487 182.696 17.3384C182.399 17.561 182.039 17.3384 182.198 18.0221C182.579 18.3189 184.588 17.3013 185.028 17.0151ZM185.637 12.8546V12.4624H186.692V13.5171H186.3L185.637 12.8546Z" fill="#20261E"/>
<path d="M263.724 67.9322C263.427 68.1548 263.066 67.9322 263.225 68.6159C263.607 68.9127 265.616 67.8951 266.056 67.6089C267.041 66.9676 267.64 65.526 268.78 66.2362C269.188 64.8476 268.17 63.5385 268.478 61.9008C266.321 60.3214 263.888 64.5243 266.925 65.5684C266.029 66.5807 264.789 67.1425 263.724 67.9322ZM266.665 63.4431V63.0509H267.72V64.1056H267.328L266.665 63.4431Z" fill="#20261E"/>
<path d="M112.292 35.7718C112.466 35.9361 115.212 34.733 115.721 34.574C116.558 34.309 117.989 34.6853 118.005 33.4133C118.016 32.5388 117.305 33.1642 116.675 33.143C115.54 33.1112 114.178 33.3391 114.147 31.8021C114.931 31.7544 115.684 31.6484 115.742 32.5971C115.975 32.7826 117.231 31.3251 116.102 30.4877C115.191 29.8146 112.97 31.3834 112.837 32.4646L113.617 34.1765C112.859 34.2666 112.323 35.0245 112.297 35.7718H112.292Z" fill="#20261E"/>
<path d="M145.655 35.7718C145.83 35.9361 148.575 34.733 149.084 34.574C149.921 34.309 151.352 34.6853 151.368 33.4133C151.379 32.5388 150.669 33.1642 150.038 33.143C148.904 33.1112 147.542 33.3391 147.51 31.8021C148.294 31.7544 149.047 31.6484 149.105 32.5971C149.338 32.7826 150.594 31.3251 149.465 30.4877C148.554 29.8146 146.333 31.3834 146.201 32.4646L146.98 34.1765C146.222 34.2666 145.687 35.0245 145.66 35.7718H145.655Z" fill="#20261E"/>
<path d="M30.2048 15.9021C29.3568 15.865 25.5567 18.1652 27.8834 17.9638C29.325 17.8419 32.7329 16.2095 32.2983 14.3439C29.6006 13.2892 27.629 12.1709 26.7651 15.9074C27.5707 15.8173 27.7986 15.1124 28.742 15.1071C28.9487 15.1071 30.7348 15.3509 30.2048 15.9074V15.9021Z" fill="#20261E"/>
<path d="M282.549 57.2209C281.701 57.1838 277.901 59.484 280.228 59.2826C281.669 59.1607 285.077 57.5283 284.643 55.6627C281.945 54.608 279.973 53.4897 279.109 57.2262C279.915 57.1361 280.143 56.4312 281.086 56.4259C281.293 56.4259 283.079 56.6697 282.549 57.2262V57.2209Z" fill="#20261E"/>
<path d="M161.014 58.2809C161.82 58.1908 162.048 57.4859 162.991 57.4806C163.198 57.4806 164.984 57.7244 164.454 58.2809C163.606 58.2438 159.806 60.544 162.132 60.3426C163.574 60.2207 166.982 58.5883 166.547 56.7227C163.85 55.668 161.878 54.5497 161.014 58.2862V58.2809Z" fill="#20261E"/>
<path d="M246.801 15.1071C245.953 15.07 242.152 17.3702 244.479 17.1688C245.921 17.0469 249.329 15.4145 248.894 13.5489C246.196 12.4942 244.225 11.3759 243.361 15.1124C244.166 15.0223 244.394 14.3174 245.338 14.3121C245.544 14.3121 247.331 14.5559 246.801 15.1124V15.1071Z" fill="#20261E"/>
<path d="M97.5246 60.3426C98.9662 60.2207 102.374 58.5883 101.939 56.7227C99.2418 55.668 97.2702 54.5497 96.4062 58.2862C97.2119 58.1961 97.4398 57.4912 98.3832 57.4859C98.5899 57.4859 100.376 57.7297 99.846 58.2862C98.998 58.2491 95.1979 60.5493 97.5246 60.3479V60.3426Z" fill="#20261E"/>
<path d="M142.537 69.3474C143.979 69.2255 147.387 67.5931 146.952 65.7275C144.254 64.6728 142.283 63.5545 141.419 67.291C142.225 67.2009 142.452 66.496 143.396 66.4907C143.603 66.4907 145.389 66.7345 144.859 67.291C144.011 67.2539 140.211 69.5541 142.537 69.3527V69.3474Z" fill="#20261E"/>
<path d="M158.119 9.2927C160.801 10.6495 164.257 9.9711 165.248 6.9024C163.96 7.1091 163.038 8.1373 161.639 8.2062C160.382 8.2698 159.084 7.5331 157.854 7.4377L157.043 10.3368C157.679 10.4163 158.013 9.7909 158.119 9.2874V9.2927Z" fill="#20261E"/>
<path d="M31.8902 36.0208L33.0138 34.4573L31.1323 32.597L29.9345 34.1817L27.9629 32.8567L26.8022 34.8018L28.5353 36.2646L29.8338 34.9926L31.8902 36.0208Z" fill="#20261E"/>
<path d="M65.9477 84.7704L63.9761 83.4454L62.8154 85.3958L64.5432 86.8586L65.847 85.5866L67.9034 86.6095L69.027 85.0513L67.1402 83.1857L65.9477 84.7704Z" fill="#20261E"/>
<path d="M267.056 72.5699L268.879 73.6299L269.987 71.7908L268.121 70.2167L267.156 71.494L264.962 70.4764L263.78 72.4215L265.508 73.8896L267.056 72.5699Z" fill="#20261E"/>
<path d="M306.223 68.6051L304.262 67.667L303.239 69.6386L305.194 70.9848L306.514 69.4213L308.104 70.6827L309.509 69.0079L307.569 67.2748L306.223 68.6051Z" fill="#20261E"/>
<path d="M132.283 72.3102L133.608 70.7361L135.452 72.0558C135.812 71.4516 136.968 70.6142 136.533 69.9305L134.901 68.6267L133.581 69.9146L131.387 68.9076L130.343 70.5983L132.283 72.3049V72.3102Z" fill="#20261E"/>
<path d="M287.964 61.4662C288.663 61.3444 289.002 60.4857 289.294 60.4698C289.787 60.4433 290.232 61.4875 291.425 60.4062C292.575 59.3569 292.018 56.8711 291.552 57.2262C291.234 57.9947 291.578 59.129 290.624 59.3516C289.379 59.6431 290.312 57.8516 289.167 58.0212C289.554 60.12 286.289 61.2331 287.312 58.5566C286.575 57.8146 285.033 61.9751 287.964 61.4716V61.4662Z" fill="#20261E"/>
<path d="M189.465 68.0861C190.164 67.9642 190.503 67.1056 190.795 67.0897C191.288 67.0632 191.733 68.1073 192.926 67.0261C194.076 65.9767 193.519 63.491 193.053 63.8461C192.735 64.6146 193.079 65.7488 192.125 65.9714C190.88 66.2629 191.813 64.4715 190.668 64.6411C191.055 66.7399 187.79 67.8529 188.813 65.1764C188.076 64.4344 186.534 68.5949 189.465 68.0914V68.0861Z" fill="#20261E"/>
<path d="M106.054 8.49268C106.754 8.37078 107.093 7.51218 107.384 7.49628C107.877 7.46978 108.322 8.51388 109.515 7.43268C110.665 6.38328 110.109 3.89758 109.642 4.25268C109.324 5.02118 109.669 6.15538 108.715 6.37798C107.469 6.66948 108.402 4.87808 107.257 5.04768C107.644 7.14648 104.379 8.25948 105.402 5.58298C104.665 4.84098 103.123 9.00148 106.054 8.49798V8.49268Z" fill="#20261E"/>
<path d="M192.373 15.6425C193.073 15.5206 193.412 14.662 193.704 14.6461C194.197 14.6196 194.642 15.6637 195.834 14.5825C196.984 13.5331 196.428 11.0474 195.961 11.4025C195.643 12.171 195.988 13.3052 195.034 13.5278C193.788 13.8193 194.721 12.0279 193.576 12.1975C193.963 14.2963 190.699 15.4093 191.721 12.7328C190.985 11.9908 189.442 16.1513 192.373 15.6478V15.6425Z" fill="#20261E"/>
<path d="M294.203 69.6704C296.366 68.5415 299.906 68.197 300.558 65.4357C300.341 65.2237 295.157 67.6087 294.924 67.8048C294.617 68.0592 294.007 69.4637 294.208 69.6704H294.203Z" fill="#20261E"/>
<path d="M225.356 65.4357C225.139 65.2237 219.955 67.6087 219.722 67.8048C219.415 68.0592 218.805 69.4637 219.007 69.6704C221.169 68.5415 224.71 68.197 225.361 65.4357H225.356Z" fill="#20261E"/>
<path d="M247.065 64.9057C246.848 64.6937 241.664 67.0787 241.431 67.2748C241.124 67.5292 240.514 68.9337 240.716 69.1404C242.878 68.0115 246.419 67.667 247.07 64.9057H247.065Z" fill="#20261E"/>
<path d="M202.058 69.1404C204.22 68.0115 207.76 67.667 208.412 64.9057C208.195 64.6937 203.012 67.0787 202.778 67.2748C202.471 67.5292 201.862 68.9337 202.063 69.1404H202.058Z" fill="#20261E"/>
<path d="M150.95 67.8211C153.113 66.6922 156.653 66.3477 157.305 63.5864C157.088 63.3744 151.904 65.7594 151.671 65.9555C151.364 66.2099 150.754 67.6144 150.956 67.8211H150.95Z" fill="#20261E"/>
<path d="M86.6069 67.8211C88.7693 66.6922 92.3097 66.3477 92.9616 63.5864C92.7443 63.3744 87.5609 65.7594 87.3277 65.9555C87.0203 66.2099 86.4108 67.6144 86.6122 67.8211H86.6069Z" fill="#20261E"/>
<path d="M172.658 4.51778C172.441 4.30578 167.258 6.69078 167.025 6.88688C166.717 7.14128 166.108 8.54578 166.309 8.75248C168.471 7.62358 172.012 7.27908 172.664 4.51778H172.658Z" fill="#20261E"/>
<path d="M40.5285 6.37276C40.3112 6.16076 35.1278 8.54576 34.8946 8.74186C34.5872 8.99626 33.9777 10.4008 34.1791 10.6075C36.3415 9.47856 39.8819 9.13406 40.5338 6.37276H40.5285Z" fill="#20261E"/>
<path d="M309.293 61.7314C309.075 61.5194 303.892 63.9044 303.659 64.1005C303.351 64.3549 302.742 65.7594 302.943 65.9661C305.106 64.8372 308.646 64.4927 309.298 61.7314H309.293Z" fill="#20261E"/>
<path d="M143.8 6.63778C143.583 6.42578 138.399 8.81078 138.166 9.00688C137.859 9.26128 137.249 10.6658 137.451 10.8725C139.613 9.74358 143.153 9.39908 143.805 6.63778H143.8Z" fill="#20261E"/>
<path d="M51.9133 11.6671C51.696 11.4551 46.5126 13.8401 46.2794 14.0362C45.972 14.2906 45.3625 15.6951 45.5639 15.9018C47.7263 14.7729 51.2667 14.4284 51.9186 11.6671H51.9133Z" fill="#20261E"/>
<path d="M226.41 19.3521C226.193 19.1401 221.009 21.5251 220.776 21.7212C220.469 21.9756 219.859 23.3801 220.06 23.5868C222.223 22.4579 225.763 22.1134 226.415 19.3521H226.41Z" fill="#20261E"/>
<path d="M72.8318 14.8471C72.6145 14.6351 67.4311 17.0201 67.1979 17.2162C66.8905 17.4706 66.281 18.8751 66.4824 19.0818C68.6448 17.9529 72.1852 17.6084 72.8371 14.8471H72.8318Z" fill="#20261E"/>
<path d="M131.62 12.9921C131.403 12.7801 126.22 15.1651 125.986 15.3612C125.679 15.6156 125.07 17.0201 125.271 17.2268C127.433 16.0979 130.974 15.7534 131.626 12.9921H131.62Z" fill="#20261E"/>
<path d="M264.28 12.9921C264.063 12.7801 258.879 15.1651 258.646 15.3612C258.339 15.6156 257.729 17.0201 257.931 17.2268C260.093 16.0979 263.633 15.7534 264.285 12.9921H264.28Z" fill="#20261E"/>
<path d="M137.042 22.527C137.015 22.9828 136.719 23.2001 137.312 23.5817C137.821 23.5552 138.505 20.566 138.499 20.0095C138.499 19.3576 137.593 16.4903 137.137 16.22C136.485 15.8331 135.945 16.8454 135.945 17.3648C135.945 17.6298 136.978 19.2304 137.111 20.0731C137.265 21.0536 137.09 21.6366 137.037 22.527H137.042Z" fill="#20261E"/>
<path d="M109.455 1.8838C109.736 1.6559 110.276 0.124199 110.165 0.0128987C109.958 -0.193801 105.077 2.1488 104.796 2.382C104.489 2.6311 103.895 4.0197 104.081 4.2476C105.262 3.4632 108.538 2.6258 109.455 1.8838Z" fill="#20261E"/>
<path d="M292.083 52.986C291.877 52.7793 286.995 55.1219 286.715 55.3551C286.407 55.6042 285.814 56.9928 285.999 57.2207C287.181 56.4363 290.456 55.5989 291.373 54.8569C291.654 54.629 292.195 53.0973 292.083 52.986Z" fill="#20261E"/>
<path d="M195.777 9.03877C196.057 8.81087 196.598 7.27917 196.487 7.16787C196.28 6.96117 191.399 9.30377 191.118 9.53697C190.81 9.78607 190.217 11.1747 190.402 11.4026C191.584 10.6182 194.86 9.78077 195.777 9.03877Z" fill="#20261E"/>
<path d="M22.7907 32.5919C20.6813 33.1537 17.1409 33.4028 16.436 35.7666C17.1091 35.7931 24.0627 33.7314 22.7907 32.5919Z" fill="#20261E"/>
<path d="M118.646 35.7719C116.537 36.3337 112.996 36.5828 112.292 38.9466C112.965 38.9731 119.918 36.9114 118.646 35.7719Z" fill="#20261E"/>
<path d="M152.009 35.7719C149.9 36.3337 146.36 36.5828 145.655 38.9466C146.328 38.9731 153.281 36.9114 152.009 35.7719Z" fill="#20261E"/>
<path d="M74.6885 87.4152C75.3616 87.4417 82.3152 85.38 81.0432 84.2405C78.9338 84.8023 75.3934 85.0514 74.6885 87.4152Z" fill="#20261E"/>
<path d="M54.2979 87.4152C54.971 87.4417 61.9246 85.38 60.6526 84.2405C58.5432 84.8023 55.0028 85.0514 54.2979 87.4152Z" fill="#20261E"/>
<path d="M230.917 45.5664C231.59 45.5929 238.543 43.5312 237.271 42.3917C235.162 42.9535 231.621 43.2026 230.917 45.5664Z" fill="#20261E"/>
<path d="M137.445 83.1857C135.335 83.7475 131.795 83.9966 131.09 86.3604C131.763 86.3869 138.717 84.3252 137.445 83.1857Z" fill="#20261E"/>
<path d="M189.093 85.4008L191.028 86.8742L192.453 85.1676L190.535 83.461C190.143 83.9592 188.881 84.7065 189.093 85.4008Z" fill="#20261E"/>
<path d="M78.5614 67.3066L77.353 68.9761L79.5472 70.4548L80.7768 68.7588C80.1726 68.462 79.1815 67.1158 78.5614 67.3066Z" fill="#20261E"/>
<path d="M236.221 39.614C236.221 39.0893 234.763 37.8279 234.26 37.9286C233.788 38.2148 232.792 39.5027 233.067 39.9797L235.023 41.3259L236.221 39.6193V39.614Z" fill="#20261E"/>
<path d="M134.746 67.4179L132.812 65.706C132.425 66.0876 131.243 67.1211 131.376 67.6617L133.305 69.1245L134.746 67.4179Z" fill="#20261E"/>
<path d="M37.3703 72.1776C37.1 71.3985 36.7025 70.4975 35.6955 70.7731C33.6974 72.1882 33.9995 75.8558 37.0894 74.4407C37.0099 75.3894 37.1583 76.2427 37.4339 77.149C37.5134 77.4034 37.9321 78.8609 38.4144 78.4157C38.5204 78.315 38.7112 77.255 38.6847 76.9847C38.6264 76.4176 37.6194 72.8719 37.3756 72.1776H37.3703ZM36.5594 72.7235V73.1157C34.0101 73.174 36.1195 71.584 36.5594 72.7235Z" fill="#20261E"/>
<path d="M31.7952 78.4155C32.6856 78.654 32.3146 77.2813 32.2457 76.7672C32.0443 75.2673 31.4242 74.1596 30.7352 72.8558L33.0831 72.5537L33.364 71.022C27.3538 69.8825 31.0214 75.5376 31.8005 78.4155H31.7952Z" fill="#20261E"/>
<path d="M26.4998 70.7356C25.8108 72.421 27.1305 73.2319 27.6817 74.7159C28.0792 75.7865 28.1587 76.9048 28.3601 78.0178C28.4396 78.4524 28.1905 78.4736 28.8795 78.4153C29.3512 77.1168 29.0491 75.5533 28.6993 74.2336C28.6092 73.8997 27.1623 70.0678 26.5051 70.7356H26.4998Z" fill="#20261E"/>
</svg>
