<svg width="256" height="196" viewBox="0 0 256 196" fill="none" xmlns="http://www.w3.org/2000/svg">
<path d="M225.954 74.8481C226.278 74.7951 227.232 74.2863 227.544 74.0584C228.233 73.5549 228.949 71.9437 229.394 71.9384C229.119 75.7014 235.166 75.4947 237.116 73.7033C237.689 73.1786 237.789 71.949 238.796 72.2087L238.001 74.8534C240.704 75.2032 241.854 73.698 243.164 71.6787L243.264 73.6715L245.941 74.5884C245.697 73.1415 245.443 72.0391 246.603 70.8837C247.462 72.3518 247.165 76.5388 245.019 76.7296C243.683 76.8462 242.437 75.606 241.886 75.7014C240.588 75.924 240.206 77.2119 237.625 76.9469C235.357 76.7137 236.21 76.8568 234.09 77.1642C231.795 77.4981 229.808 77.0688 228.472 75.1184C228.43 75.659 228.059 75.9929 227.661 76.295C225.239 78.1182 217.342 76.9257 214.029 76.9575C211.501 76.9787 209.312 77.8532 206.79 76.5441C206 76.136 205.56 75.4417 204.776 75.1025C201.839 77.3868 197.059 78.5846 194.589 75.1131C193.54 77.6412 189.999 77.4345 187.715 76.9734L187.402 77.991C185.489 78.2189 183.655 77.408 182.049 76.4646L180.555 78.4468C180.592 81.4784 182.569 86.9745 181.843 89.7676C181.758 90.0856 181.429 90.3453 181.212 89.9425C181.138 86.2749 178.71 79.9838 179.823 76.6342C180.332 75.1078 181.986 73.7775 183.332 72.9931C186.03 71.4137 185.462 72.8076 187.355 74.016C189.077 75.1184 191.976 75.2774 193.667 74.0584C194.366 73.5549 195.066 71.949 195.517 71.9384C195.554 75.9876 200.583 75.0654 203.064 73.7881C202.846 72.2988 201.506 72.9401 200.748 72.9401C199.619 72.9401 200.912 70.73 201.463 70.2053C203.392 68.3715 209.408 68.8909 207.622 72.6592C207.357 73.2157 206.36 73.6556 207.039 74.1856C209.371 75.2721 211.517 75.3092 212.98 72.9825C214.061 71.26 212.911 64.8682 212.524 62.6104C212.249 61.0045 210.971 59.2873 212.991 58.169C212.895 59.017 214.448 60.3155 214.464 60.4533C214.517 60.9568 213.923 61.6988 213.892 62.5362C213.849 63.7181 214.379 65.2604 214.459 66.4953C214.565 68.2337 214.522 70.2424 214.183 71.9331C216.658 70.1364 218.269 68.1966 221.587 69.4209C224.55 70.5127 223.331 72.9772 221.858 74.8428C223.119 74.6997 224.757 75.0442 225.96 74.8428L225.954 74.8481ZM221.847 72.7281C219.07 69.3785 214.973 72.214 212.848 74.8481C215.937 74.5884 219.038 74.0955 221.847 72.7281ZM186.109 75.6431C186.067 74.4983 184.196 73.5443 183.464 74.3234C182.834 74.9965 185.881 75.4205 186.109 75.6431Z" fill="#20261E"/>
<path d="M106.291 176.226C108.708 175.823 108.639 174.101 108.538 172.124C108.379 169.061 107.086 164.64 107.197 161.805C107.224 161.111 107.674 160.326 108.141 159.823C108.676 160.146 108.459 160.581 108.538 161.01C109.243 164.948 109.153 169.893 110.202 173.64C111.003 176.496 113.462 176.677 116.064 175.951C117.728 175.484 117.977 174.663 119.122 173.587L118.597 176.231C119.541 176.263 120.765 176.131 121.603 175.67C122.594 175.118 122.8 173.767 123.887 173.592L123.362 175.431C126.579 177.101 126.362 175.887 127.724 173.332C128.318 173.952 128.031 174.811 128.641 175.516C129.621 176.645 134.291 176.491 134.179 175.362C134.137 174.906 132.733 172.283 132.362 171.864C130.989 170.322 130.003 171.202 130.968 168.35C131.09 167.985 130.84 167.672 131.434 167.762C133.914 168.986 136.628 176.364 134.052 178.065C132.436 179.131 128.079 178.85 127.199 176.772C126.182 178.314 125.874 178.669 124.009 178.108C123.468 177.943 122.276 177.111 122.17 177.111C122.032 177.111 120.707 178.208 119.763 178.336C118.375 178.521 117.368 177.837 116.652 177.896C116.239 177.927 115.561 178.452 114.962 178.558C112.349 179.019 110.42 178.214 109.466 175.707C108.103 179.417 103.482 178.728 100.191 178.632C96.2156 178.516 93.6186 178.442 89.6224 178.632C87.7303 178.722 85.8117 178.542 83.9196 178.622C84.8259 182.904 82.6794 186.089 78.4235 187.022C71.2155 188.596 68.2157 182.75 72.143 177.032C72.6889 176.926 72.5935 177.244 72.4822 177.636C71.9363 179.586 70.9346 181.553 72.5352 183.445C74.3584 185.607 78.7256 184.913 80.9304 183.704C82.8543 182.65 83.0875 182.088 82.743 179.931C82.3826 177.7 80.3898 175.988 82.2024 173.862C82.5681 173.878 83.1882 175.643 83.4585 175.908C83.9461 176.38 89.2302 176.38 90.0888 176.184C90.9474 175.988 92.7653 174.074 92.9084 173.179C93.449 169.76 91.9756 164.709 91.3237 161.28L92.2618 159.303L93.9419 161.853C92.7176 163.872 93.873 166.156 93.9949 168.419C94.0797 169.956 94.0585 171.573 93.7193 173.062C96.0778 171.562 97.4982 169.331 100.652 170.497C103.805 171.663 103.296 174.096 101.394 176.242C102.894 176.067 104.865 176.481 106.291 176.242V176.226ZM101.123 174.106C101.616 173.433 99.0193 172.384 98.5423 172.315C96.4064 172.002 93.7511 174.44 92.389 175.961C95.3888 175.982 98.3303 175.124 101.123 174.106Z" fill="#20261E"/>
<path d="M217.831 19.0601C218.027 19.1767 219.331 21.461 219.41 21.8426C219.643 22.9715 219.574 24.9113 218.663 25.7381C217.068 27.1903 209.176 27.3705 206.897 27.2115C206.377 27.1744 205.408 26.7186 205.296 26.7345C204.999 26.7822 204.899 27.45 204.639 27.6196C203.42 28.4199 200.516 26.0031 199.959 25.9183C199.752 25.8865 198.555 26.9253 197.77 27.0896C195.2 27.6408 193.44 26.6073 191.532 25.0809C189.11 27.0154 183.879 28.7803 182.13 25.3565C180.657 27.662 179.045 27.1638 176.973 25.8759C175.659 27.9906 171.445 27.6514 171.265 24.8371L166.839 25.9448C165.843 30.9851 164.741 34.9919 158.693 34.6262C158.195 34.5944 155.678 34.2234 155.667 33.6934C156.351 32.9567 157.496 33.4178 158.412 33.2694C162.324 32.6228 164.311 29.6972 165.721 26.2787C164.682 26.0137 165.302 24.5774 165.721 23.899L171.737 22.2295L172.261 22.574C171.705 24.8159 174.09 25.7169 175.886 24.7947C176.793 24.3283 177.853 22.3779 178.309 22.1818C179.183 21.8108 178.224 23.475 178.213 23.687C178.171 24.4449 180.349 25.065 181.022 24.6516L182.146 21.9115C182.729 21.3179 183.02 23.4379 183.147 23.6923C184.197 25.7964 188.145 24.588 189.82 23.7612C189.603 22.2719 188.262 22.9132 187.504 22.9132C186.375 22.9132 187.668 20.7031 188.22 20.1784C190.806 17.7192 197.447 19.6749 193.525 23.8937C195.035 25.1021 197.998 25.2028 199.604 24.1534C200.441 23.6075 201.66 21.6306 202.662 21.6624C203.664 21.6942 205.021 24.376 206.955 24.7682C208.222 25.0279 217.968 24.6569 218.408 24.0262C218.112 21.9274 216.098 21.4928 217.089 19.0018C217.333 19.023 217.608 18.9329 217.831 19.0601ZM203.584 25.0862C202.837 24.0845 202.535 22.2666 201.205 23.899C201.205 24.2753 203.346 25.277 203.584 25.0862Z" fill="#20261E"/>
<path d="M197.626 133.614C199.836 133.249 202.078 130.19 202.783 128.187C199.73 128.351 197.488 127.079 199.29 123.899C201.256 120.428 203.392 122.972 204.007 125.691C206.222 125.558 209.789 126.094 211.538 124.498C212.317 123.783 212.609 122.458 214.045 122.479C215.667 122.505 216.202 125.304 219.101 125.643C222 125.982 223.861 125.283 225.557 123.025L225.032 125.67C225.928 125.696 227.062 125.59 227.868 125.198C228.954 124.668 229.145 123.454 230.189 123.02L229.797 124.864C233.009 126.528 232.791 125.33 234.159 122.765C234.816 123.544 234.424 124.604 235.425 125.224C236.427 125.844 240.026 126.067 240.052 124.546C239.459 120.677 239.088 116.771 238.457 112.907C238.171 111.158 237.158 110.326 239.056 108.731C238.902 109.568 240.561 111.227 240.614 111.545C240.667 111.837 239.92 112.61 239.899 113.352C239.793 116.85 241.838 121.763 241.059 125.42C240.285 129.046 235.362 128.797 233.634 126.2C232.616 127.742 232.309 128.097 230.443 127.535C229.903 127.371 228.71 126.539 228.604 126.539C228.466 126.539 227.141 127.636 226.198 127.763C224.809 127.949 223.802 127.265 223.087 127.323C222.674 127.355 221.995 127.88 221.396 127.986C219.997 128.235 217.527 127.487 217.246 127.556C216.897 127.646 216.828 128.277 216.563 128.447C215.577 129.077 212.19 127.652 211.65 126.443C209.233 128.166 206.747 128.139 203.88 128.076C202.719 133.047 201.103 136.338 195.373 135.072C194.541 134.886 192.782 134.632 192.734 133.609C194.234 133.434 196.205 133.847 197.631 133.609L197.626 133.614ZM215.227 125.935C215.418 125.754 213.743 122.786 212.964 124.35C212.524 125.235 214.66 125.903 215.227 125.935ZM202.258 125.67C201.988 125.134 201.442 124.541 200.806 124.594C200.202 124.498 199.878 125.627 200.27 125.675H202.253L202.258 125.67Z" fill="#20261E"/>
<path d="M23.289 58.1742C22.9922 59.0858 24.6193 60.3207 24.6299 60.4585C24.6829 60.9673 24.0893 61.6987 24.0575 62.5414C24.0151 63.7233 24.5451 65.2656 24.6246 66.5005C24.7306 68.2389 24.6882 70.2476 24.349 71.9383C26.8135 70.1416 28.4353 68.2018 31.7531 69.4261C34.7158 70.5232 33.4968 72.9877 32.0234 74.848C33.9208 74.9169 41.2772 74.9222 42.369 73.417C42.793 72.8287 42.74 71.7263 41.9556 72.2086C41.4892 72.4948 41.3461 72.8976 40.6041 72.993C35.3306 73.6767 39.5653 62.4725 42.8301 68.6788C44.4095 71.6733 44.1233 75.4999 40.4928 76.5758C36.1415 77.8584 31.5411 76.9998 27.1368 76.9574C24.6511 76.9362 19.9977 77.7312 17.989 76.8408C16.4361 76.1518 15.975 74.6148 15.6782 73.0672C14.8938 68.9915 14.9998 64.5872 14.0723 60.5009L15.0793 58.7095L17.2258 73.3746C18.5932 76.1942 23.1141 74.7632 23.5381 72.0602C23.9356 69.5586 23.13 65.2179 22.6848 62.6209C22.4145 61.0521 21.0736 59.0593 23.2837 58.1795L23.289 58.1742ZM40.3709 69.124C39.0618 69.1134 39.0989 71.1433 40.8638 70.5815C41.7489 70.3006 41.203 69.1293 40.3709 69.124ZM32.0287 72.728C29.2515 69.3784 25.1546 72.2139 23.0293 74.848C26.1192 74.5883 29.2197 74.0954 32.0287 72.728Z" fill="#20261E"/>
<path d="M135.808 20.3162C138.612 21.2861 141.564 21.8267 144.543 21.6465C144.002 25.0597 142.465 23.5757 140.202 23.793C137.361 24.0686 133.789 25.9395 130.826 26.5914C128.5 27.1055 126.289 27.344 123.894 27.2062C124.779 31.3826 122.76 34.5626 118.61 35.5537C111.328 37.2921 108.121 31.4674 112.112 25.6162C112.658 25.5102 112.562 25.8282 112.451 26.2204C112.213 27.0631 111.805 27.6567 111.714 28.6584C111.248 33.8153 116.479 34.2446 120.179 32.6228C120.693 32.4002 122.511 31.2978 122.701 30.9109C123.973 28.3245 119.871 24.8424 122.171 22.4415C122.537 22.4574 123.157 24.2223 123.427 24.4873C124.419 25.4413 134.584 24.2064 135.538 23.2259C135.935 22.8178 135.453 22.7701 135.172 22.6694C133.132 21.9433 129.957 21.6783 127.864 22.1659C128.134 18.5619 132.427 19.7491 135.013 19.2562C135.427 18.8534 133.81 9.7321 133.158 8.5184C133.365 7.5273 133.884 5.7359 134.801 7.1616C135.003 7.4743 136.026 8.9954 136.041 9.1067C136.105 9.4512 135.278 10.0395 135.268 10.914C135.241 13.7548 137.351 17.2422 135.803 20.3109L135.808 20.3162Z" fill="#20261E"/>
<path d="M113.569 66.1137C114.794 71.1805 115.461 76.7455 122.32 74.4506L122.505 74.2015C121.117 71.8483 125.844 66.2091 127.731 68.769C128.987 70.4756 128.303 72.797 127.339 74.4453C127.45 75.0124 130.052 74.917 130.651 74.8481C132.554 74.6308 133.545 73.5655 134.361 71.9384C135.066 71.8801 134.637 72.903 134.891 73.5178C135.729 75.5212 140.992 74.8852 142.693 74.3128C142.136 72.267 140.244 71.7476 141.506 69.2831C143.748 70.3802 144.808 75.0071 142.523 76.3904C140.228 77.779 135.167 77.7578 133.699 75.1078C132.883 77.2755 130.042 77.3815 128.075 77.1483C126.994 77.0211 124.758 75.9982 124.297 75.9982C124.026 75.9982 122.733 76.7243 122.102 76.878C118.959 77.6624 115.615 77.5776 114.502 74.0478C113.156 77.1324 104.655 78.8125 107.087 73.5231C108.64 75.5689 112.133 74.1326 113.813 72.8129C113.712 70.6346 112.186 68.6948 113.018 66.4741C113.156 66.1084 112.933 66.0236 113.575 66.1084L113.569 66.1137ZM126.501 70.6558C125.818 70.2318 123.56 71.2971 123.692 72.2882C123.984 74.493 127.058 73.0938 127.063 72.0762C127.063 71.9013 126.565 70.6982 126.496 70.6558H126.501Z" fill="#20261E"/>
<path d="M205.963 167.492C207.188 172.559 207.855 178.124 214.714 175.829L214.899 175.58C213.511 173.227 218.238 167.588 220.125 170.148C221.381 171.854 220.697 174.176 219.733 175.824C222.25 176.99 225.404 176.062 226.49 173.317C227.195 173.259 226.766 174.282 227.02 174.896C227.858 176.9 233.121 176.264 234.822 175.691C234.265 173.646 232.373 173.126 233.635 170.662C235.877 171.759 236.937 176.386 234.652 177.769C232.368 179.152 227.296 179.136 225.828 176.486C225.054 178.575 222.377 178.749 220.469 178.527C219.383 178.4 217.157 177.377 216.691 177.377C216.42 177.377 215.127 178.103 214.496 178.257C211.353 179.041 208.009 178.956 206.896 175.426C205.55 178.511 197.049 180.191 199.481 174.902C201.034 176.947 204.527 175.511 206.207 174.191C206.106 172.013 204.58 170.073 205.412 167.853C205.55 167.487 205.327 167.402 205.969 167.487L205.963 167.492ZM218.895 172.034C218.212 171.61 215.954 172.676 216.086 173.667C216.378 175.872 219.452 174.472 219.457 173.455C219.457 173.28 218.959 172.077 218.89 172.034H218.895Z" fill="#20261E"/>
<path d="M53.2759 160.014C53.4243 160.162 54.4313 160.347 54.8659 160.607C55.8305 161.185 56.758 161.657 57.7968 162.245C63.3618 165.409 63.542 176.576 59.3073 180.869C58.4911 181.701 53.9225 184.256 52.7883 184.409C51.4527 184.59 50.6047 184.383 49.4069 183.864C48.4264 183.44 45.257 181.59 44.5627 180.896C40.1955 176.528 40.4499 165.117 46.3064 162.049C47.0272 161.672 48.3045 161.54 48.6331 161.328C48.8133 161.211 50.4033 160.093 50.4881 160.003C50.7319 159.754 50.4563 159.16 51.3361 158.863C53.1699 158.238 52.8254 159.558 53.2706 160.003L53.2759 160.014ZM52.4173 161.402C53.366 158.678 50.4457 158.598 51.352 161.402L49.5023 160.872C49.3592 161.63 49.709 161.296 50.08 161.471C51.0446 161.922 51.3944 161.996 52.0145 162.987C52.4915 161.9 53.3554 161.439 54.5267 161.397C54.0444 160.432 53.0427 160.883 52.412 161.397L52.4173 161.402ZM50.2973 163.782L49.2426 164.45C50.0164 165.594 50.9439 165.059 51.3626 163.909C51.299 162.356 49.7408 161.8 48.3787 161.99C45.3895 162.409 43.1211 165.743 42.6229 168.547L44.0115 166.893L47.9123 164.974C47.2551 164.153 46.3223 164.752 45.5326 164.842C45.5061 162.685 51.1665 162.52 50.2973 163.782ZM61.1464 168.287C61.3743 165.07 54.3306 159.07 52.6028 163.337C51.6435 165.711 56.5672 165.276 53.472 163.782C54.4101 162.123 57.8498 163.077 58.2367 164.847L56.122 164.587V165.377C58.1784 165.446 59.9168 166.787 61.1517 168.292L61.1464 168.287ZM48.9723 163.522L47.6473 163.92C48.331 164.185 48.5801 164.937 48.7073 165.637C40.3068 166.776 40.2167 177.143 48.5907 178.601L47.6473 180.456L48.967 180.721C47.8593 178.611 50.8962 177.307 51.6223 179.396H52.0092C53.1169 177.35 55.9365 178.378 54.7917 180.721L56.1167 180.456C55.5496 179.767 55.1203 179.337 55.3323 178.352C61.1729 178.219 63.7593 170.518 59.0158 167.11C58.2208 166.543 55.5549 165.812 55.4383 165.658C54.6592 164.587 57.4735 163.453 54.797 163.522C55.9683 165.759 52.8148 166.803 52.147 164.577C50.7849 166.326 47.96 166.177 48.9723 163.522ZM47.9123 178.876L44.6475 177.774L42.6176 175.702C43.243 178.579 45.9301 182.554 49.2479 182.199C52.1205 181.892 52.0145 178.023 49.232 179.544L50.292 180.207C50.0323 182.872 44.8224 180 45.5273 179.147C46.1633 179.666 47.907 180.074 47.907 178.882L47.9123 178.876ZM53.472 180.201L54.532 179.539C53.9437 178.749 52.5021 179.083 52.4067 180.074C54.426 185.507 61.0404 179.486 61.1464 175.696L59.1218 177.769L56.122 178.871L56.7951 179.677L58.2367 179.136C59.1218 180.111 53.79 182.766 53.472 180.196V180.201ZM52.147 181.256H51.6276C51.4686 182.496 50.0853 182.47 49.2426 182.973C51.0075 184.235 52.942 183.89 54.797 183.106L52.6823 182.178L52.147 181.256Z" fill="#20261E"/>
<path d="M72.9342 125.67C73.4536 125.611 74.3016 125.145 74.9217 125.14C74.291 123.051 72.6533 122.675 73.602 120.115C75.9287 120.931 76.9887 125.648 74.9111 127.116C72.9925 128.473 69.1712 128.134 66.977 127.657C66.3622 127.525 65.0637 126.825 64.7298 126.825C64.3959 126.825 63.5214 127.466 62.9596 127.599C59.8644 128.346 55.9689 128.717 55.0679 124.875C54.1404 125.829 53.7482 126.613 52.4179 127.116C49.7096 128.145 45.6922 128.357 47.526 124.35C48.639 125.887 50.4622 125.405 52.0416 124.89C56.0696 123.576 53.3772 122.076 53.2129 119.177C53.1917 118.795 53.3083 117.036 53.6157 116.935C54.1563 116.76 54.0503 117.476 54.1351 117.725C55.8258 122.601 55.6138 127.344 62.7582 125.272L62.9437 125.023C61.677 122.866 65.5672 117.942 67.5971 119.076C68.8214 119.755 68.9486 121.806 68.7101 123.041C68.5246 124.011 67.4116 125.102 68.1695 125.675C69.6959 125.553 71.4449 125.844 72.9342 125.675V125.67ZM66.9346 121.477C66.2509 121.053 63.9931 122.119 64.1256 123.11C64.4171 125.314 67.4911 123.915 67.4964 122.898C67.4964 122.723 66.9982 121.52 66.9293 121.477H66.9346Z" fill="#20261E"/>
<path d="M64.0665 25.3511C63.2185 28.9869 60.0014 25.6532 59.429 25.6585C59.2011 25.6585 56.6147 28.2184 55.3268 27.4711C56.2172 31.886 53.1697 35.2462 48.8396 35.6755C41.8542 36.3645 40.4921 30.9373 43.4177 25.6214C44.5625 24.6144 43.2481 28.2555 43.2163 28.4675C42.4266 34.2127 49.2318 34.2922 52.7669 31.9284C56.302 29.5646 52.9365 27.4605 52.5443 25.1126C52.4489 24.5243 53.1167 23.6816 52.9418 22.9714C54.0919 22.7276 53.9806 24.2381 54.9558 24.7946C56.0158 25.4041 57.5157 25.049 58.4909 24.413C58.9361 24.1215 60.6109 21.8796 60.8865 22.1764L60.7434 24.0314C60.9448 24.3494 62.4659 24.8635 62.8687 24.8264C64.3315 24.6833 63.7856 22.0333 65.1265 21.9114C64.8827 24.5879 67.3366 25.0437 69.4937 24.8211C70.1827 24.7522 71.3169 24.6409 71.1049 23.7611C70.9565 23.1569 69.9866 21.2595 69.5891 20.7613C68.1263 18.9381 66.8755 19.6112 68.0468 16.3517C68.9213 15.615 71.0731 19.6271 71.3487 20.3267C71.99 21.9485 72.7691 25.7115 70.8876 26.7344C68.7941 27.8792 65.6247 27.0683 64.0771 25.3511H64.0665Z" fill="#20261E"/>
<path d="M126.193 119.93C127.094 120.995 126.76 122.219 126.251 123.391C124.534 127.313 117.75 127.721 114.104 126.995C114.316 130.302 113.415 132.984 110.309 134.452C102.666 138.072 97.541 131.791 102.322 125.14C102.332 127.482 100.843 129.014 102.449 131.362C104.452 134.288 109.837 132.968 112.074 130.922C114.872 128.357 109.63 125.007 112.116 122.235C112.869 122.797 113.547 124.944 114.724 124.589C114.994 124.509 117.856 121.117 118.598 120.508C119.457 119.803 121.121 118.637 122.207 118.536C123.294 118.435 125.488 119.103 126.193 119.93ZM116.218 124.875C118.163 124.997 119.965 124.811 121.836 124.271C122.393 124.112 125.387 123.099 125.218 122.368C125.17 122.151 123.675 121.117 123.379 121.027C120.278 120.105 117.994 122.808 116.218 124.875Z" fill="#20261E"/>
<path d="M28.8483 167.492C29.2564 167.428 30.3164 167.518 30.1733 168.149L28.3236 170.932L31.3605 169.077C32.023 169.58 31.8269 170.598 32.1714 171.186C32.5477 171.833 34.1907 172.098 33.2208 173.301C32.9134 173.682 32.3039 173.868 32.1661 174.106C31.8905 174.573 32.0601 175.633 31.7633 176.221C31.0319 176.709 29.4313 173.974 28.3289 174.764L30.4383 177.414L28.8536 178.076C29.5055 180.551 30.6821 182.867 32.1873 184.934C32.7703 185.735 33.9628 186.243 33.8833 187.335C29.85 186.286 27.7088 181.903 25.9386 178.474L23.0342 177.806L24.8839 174.636C23.5059 174.557 23.1137 176.475 21.7092 176.486C21.5343 174.742 21.158 174.207 19.8913 173.121C19.5415 171.875 20.8983 171.764 21.1156 171.398C21.3912 170.937 21.0785 169.554 21.8417 169.082C22.8964 169.612 23.6013 170.932 24.8892 170.926C25.133 169.925 22.5201 168.52 23.0395 167.757L25.8909 167.163C26.8555 164.699 28.1169 162.171 29.9189 160.204C30.6397 159.415 32.6272 157.289 33.6289 158.36C31.122 160.92 29.4684 163.941 28.8642 167.492H28.8483ZM28.0639 168.017C27.7565 167.699 29.2617 163.252 29.6009 162.552C30.009 161.704 30.7245 160.952 31.1061 160.088C28.737 162.139 27.3961 165.054 26.4368 167.99L24.3539 168.027L25.4192 169.877H25.9386L26.6064 169.082L27.4014 169.882C27.9632 169.893 29.214 168.393 28.8536 168.027H28.0692L28.0639 168.017ZM23.8186 171.986V171.605L21.9689 170.407C22.2445 171.896 21.6562 172.119 20.6439 172.919C22.2127 173.301 21.6774 174.09 22.3611 175.161L24.0783 173.709C23.1084 173.306 22.3399 172.315 23.808 171.981L23.8186 171.986ZM31.2333 170.407L29.3836 171.467C29.2246 172.341 30.2104 171.769 30.1998 172.924L29.3836 173.714C32.0336 175.839 30.6927 174.7 31.3658 173.582C31.546 173.285 32.3357 173.083 32.553 172.654C31.3711 171.854 30.9789 172.114 31.2333 170.407ZM25.4775 171.531C24.0041 172.924 26.1135 175.405 27.783 173.969C29.4525 172.532 26.988 170.1 25.4775 171.531ZM25.9333 175.702H25.4139L24.6136 177.149C25.0906 177.864 26.0764 177.27 26.6064 177.806C26.9032 178.103 28.2547 181.463 28.896 182.401C29.4896 183.275 30.3588 184.198 31.1008 184.955C29.8023 182.592 28.4561 180.276 28.0533 177.551L28.8483 177.159L27.6558 175.702L26.6011 176.497L25.9333 175.702Z" fill="#20261E"/>
<path d="M236.677 19.002L239.714 17.1523C240.328 17.6452 240.01 18.472 240.408 19.1133C240.805 19.7546 242.152 19.8129 241.669 21.2121C240.18 22.0071 240.54 23.0936 239.714 24.2967L236.677 22.447C236.507 23.56 238.791 24.5935 238.521 25.468C238.288 26.2259 236.29 25.9609 235.723 26.3902C235.299 26.7135 234.928 28.3724 234.604 28.9766C233.582 30.8793 231.668 33.6141 229.925 34.8861C229.49 35.2041 227.582 36.2959 228.154 34.9709C228.536 34.0858 230.073 32.7237 230.698 31.6849C231.721 29.9889 232.294 28.0809 232.702 26.1623C229.76 25.5051 233.11 24.2861 233.237 22.5795C232.013 22.7014 231.276 23.7879 230.455 24.5564C229.617 24.0794 229.85 23.0194 229.479 22.3622C229.161 21.7898 227.852 21.4453 228.054 20.5708C228.218 19.8553 229.193 19.7016 229.395 19.2776C229.638 18.7635 229.373 17.306 230.216 17.1682C230.841 17.0675 232.145 19.5797 233.232 18.8748C233.211 17.783 231.409 16.9085 231.112 16.2248C230.815 15.5411 232.532 15.769 232.638 15.1807C231.949 12.4353 230.481 9.85415 228.637 7.71295C228.282 7.29955 227.428 7.27835 227.672 6.29785C230.221 6.48335 232.845 9.83825 234.069 11.9424C234.382 12.483 235.452 15.0747 235.601 15.1754C236.216 15.5888 237.965 14.868 238.41 15.822C238.664 16.3732 236.454 18.0586 236.677 19.002ZM230.847 8.67755L230.322 8.80475C231.509 10.2994 233.375 13.6119 233.454 15.4828C233.465 15.7319 233.476 15.8008 233.237 15.9492L232.442 16.2142L233.767 17.9367C234.816 16.9191 234.907 17.0993 236.141 17.6717L237.207 16.087C234.355 16.6276 234.816 14.8892 233.815 12.9918C232.961 11.3753 231.801 10.1775 230.847 8.67755ZM232.177 19.532L230.327 18.472C230.863 19.9825 229.257 20.1945 229.002 20.7245C228.748 21.2545 229.935 21.1962 230.2 21.6414C230.423 22.023 230.317 22.5424 230.327 22.9664L232.442 21.9064L231.377 20.7192L232.182 19.532H232.177ZM239.586 18.472L237.472 19.532L238.548 20.7139L237.472 21.9064L239.189 22.9717C239.894 23.0936 239.443 22.1873 239.719 21.6414C239.915 21.2545 240.636 21.1008 240.911 20.7192C240.079 19.9613 239.306 19.8394 239.592 18.472H239.586ZM234.726 19.0656C231.695 19.3995 234.043 24.1165 236.152 21.7845C237.27 20.5496 236.078 18.9172 234.726 19.0656ZM236.141 23.5017L234.954 24.3073L233.767 23.5017L232.707 25.2242C232.638 25.4309 233.221 25.3779 233.38 25.6111C233.677 26.0457 232.596 29.4112 232.304 30.1161C231.822 31.2821 231.022 32.1513 230.592 33.2961C232.84 31.2238 234.249 28.277 235.119 25.3885L237.207 25.3567L236.147 23.507L236.141 23.5017Z" fill="#20261E"/>
<path d="M71.4769 77.2329C72.3832 81.5259 70.2314 84.7058 65.9808 85.6333C58.7622 87.2127 55.7783 81.3404 59.7003 75.6429C60.2462 75.5369 60.1508 75.8549 60.0395 76.2471C59.4936 78.1975 58.4919 80.1637 60.0925 82.0558C61.9104 84.2129 66.2723 83.5293 68.4877 82.3156C70.4116 81.2609 70.6448 80.699 70.3003 78.5419C69.9558 76.3848 68.1432 74.779 69.4894 72.7279C69.7385 72.3463 69.7703 72.4788 70.0088 72.7438C71.514 74.4292 70.3533 75.1181 73.74 74.8584C77.1267 74.5987 76.6815 72.1767 78.4888 70.0779C80.5187 67.7194 81.9868 69.1557 82.7871 71.6149C84.3135 76.3054 80.4657 76.247 77.4288 74.3549C76.2575 76.8141 74.0951 77.4873 71.4769 77.2382V77.2329ZM81.2713 73.2632C81.1653 71.4665 79.5912 70.2475 78.3669 72.0707C79.0612 72.9399 80.2696 72.9929 81.2713 73.2632Z" fill="#20261E"/>
<path d="M140.35 126.772C140.45 126.624 141.272 126.539 141.611 126.311C142.342 125.813 144.415 123.359 144.171 122.49C144.023 121.949 141.717 118.716 141.203 118.027C140.652 117.291 138.357 114.27 137.726 114.084C137.005 113.867 135.49 114.18 134.721 113.12C134.212 112.42 134.392 109.15 135.368 109.288C135.861 109.357 138.219 111.757 138.717 112.298L145.061 120.905C145.761 117.19 146.54 113.035 145.157 109.394L146.519 107.411C146.651 108.01 147.976 110.189 147.976 110.448C147.976 110.878 147.362 111.296 147.24 111.826C146.895 113.284 147.16 115.992 146.885 117.826C146.699 119.045 145.713 121.584 145.713 122.363C145.713 123.386 147.854 127.419 145.941 128.267C145.48 128.474 141.229 128.94 140.699 128.85C139.846 128.696 140.085 127.159 140.344 126.778L140.35 126.772ZM145.607 126.2C145.814 125.877 145.083 124.022 144.945 124.085L143.222 126.465L145.607 126.2Z" fill="#20261E"/>
<path d="M78.6685 25.9235C78.7692 25.7751 79.5907 25.6903 79.9299 25.4624C80.5765 25.0225 82.6647 22.5315 82.5428 21.8213C81.504 20.3055 80.5553 18.7261 79.4105 17.2845C78.7374 16.4365 76.9195 14.1681 76.1192 13.6752C75.3613 13.2141 73.6759 13.813 72.7908 12.2548C72.4145 11.5923 72.2025 8.6084 73.1618 8.6985C77.476 11.5181 80.3168 16.0231 83.3908 20.0458C84.0904 16.3305 84.8748 12.1753 83.4862 8.5342L84.8483 6.552C84.9808 7.1509 86.3058 9.3292 86.3058 9.5889C86.3058 10.0182 85.691 10.4369 85.5691 10.9669C85.2246 12.4244 85.4896 15.1327 85.214 16.9665C85.0497 18.0795 84.0162 20.9097 84.0374 21.5033C84.0692 22.3937 86.2369 26.533 84.2759 27.4075C83.8148 27.6142 79.5642 28.0806 79.0342 27.9905C78.1809 27.8368 78.4194 26.2998 78.6791 25.9182L78.6685 25.9235ZM83.9208 25.3511C84.1275 25.0278 83.3961 23.1728 83.2583 23.2364L81.5358 25.6161L83.9208 25.3511Z" fill="#20261E"/>
<path d="M15.3913 126.772C15.492 126.623 16.3135 126.539 16.6527 126.311C17.4 125.802 19.4617 123.316 19.2762 122.426C19.1702 121.928 16.4195 118.271 15.8736 117.603C15.3277 116.935 13.7324 114.911 13.107 114.529C12.5399 114.179 12.1265 114.481 11.5117 114.312C8.81396 113.554 9.09486 111.852 9.52946 109.52C10.2662 108.8 14.5062 113.734 15.2217 114.28L20.1136 120.9C20.8132 117.184 21.5923 113.029 20.209 109.388L21.5711 107.406C21.7036 108.005 23.0286 110.183 23.0286 110.443C23.0286 110.872 22.4138 111.291 22.2919 111.821C21.9474 113.278 22.2124 115.986 21.9368 117.82C21.746 119.076 20.9987 120.857 20.9245 121.859C20.8344 123.104 21.9156 124.329 21.9527 125.558C21.9686 126.136 21.5234 128.028 20.9987 128.261C20.5376 128.468 16.287 128.934 15.757 128.844C14.9037 128.69 15.1422 127.153 15.4019 126.772H15.3913ZM20.9086 126.2C21.11 126.014 20.1613 123.613 19.8539 123.82L18.2639 126.465L20.9086 126.2Z" fill="#20261E"/>
<path d="M150.15 177.329C150.251 177.181 151.072 177.096 151.411 176.868C152.159 176.359 154.22 173.873 154.035 172.983C153.929 172.485 151.178 168.828 150.632 168.16C150.086 167.492 148.491 165.468 147.866 165.086C147.299 164.736 146.885 165.038 146.27 164.869C143.573 164.111 143.854 162.409 144.288 160.077C145.025 159.357 149.265 164.291 149.98 164.837L154.872 171.457C155.572 167.741 156.351 163.586 154.968 159.945L156.33 157.963C156.462 158.562 157.787 160.74 157.787 161C157.787 161.429 157.173 161.848 157.051 162.378C156.706 163.835 156.971 166.543 156.696 168.377C156.505 169.633 155.757 171.414 155.683 172.416C155.593 173.661 156.674 174.886 156.711 176.115C156.727 176.693 156.282 178.585 155.757 178.818C155.296 179.025 151.046 179.491 150.516 179.401C149.662 179.248 149.901 177.711 150.161 177.329H150.15ZM155.662 176.757C155.863 176.571 154.915 174.17 154.607 174.377L153.017 177.022L155.662 176.757Z" fill="#20261E"/>
<path d="M90.7998 123.025C89.8723 123.105 89.8988 124.006 88.8176 124.106C83.3321 124.605 88.2081 113.024 91.2715 120.306C93.7943 126.311 89.3794 128.919 83.8515 127.991C79.8712 127.324 80.3111 120.524 79.9136 117.37C79.5903 114.784 78.1646 111.673 79.8182 109.531L82.4735 124.875C83.6872 126.364 90.2698 125.755 90.7521 124.17C90.8634 123.804 90.8051 123.407 90.8051 123.031L90.7998 123.025ZM88.065 120.412L87.8848 121.573C90.238 122.299 90.3387 120.2 88.065 120.412Z" fill="#20261E"/>
<path d="M189.994 118.345C191.298 119.58 192.49 123.619 191.128 125.002C190.853 125.283 188.812 126.2 188.293 126.401C185.044 127.668 177.422 129.003 174.364 127.217C171.582 125.595 171.481 121.801 173.538 119.58C174.396 119.23 173.426 121.249 173.394 121.557C172.843 126.677 180.359 125.829 183.555 125.362C184.519 125.219 190.519 123.767 190.582 123.163C189.74 120.99 187.911 120.598 189.294 117.995C189.337 117.963 189.893 118.25 189.999 118.345H189.994Z" fill="#20261E"/>
<path d="M16.1484 20.8515C17.3462 20.7402 16.053 22.9556 15.947 23.6976C15.1626 29.3739 21.5968 29.411 25.2326 27.1585C27.3049 25.8759 26.9657 24.9855 26.2767 22.7595C25.646 20.7296 23.6214 19.0389 25.275 16.8818C29.3454 21.6942 29.1652 30.1424 21.565 30.9003C14.5796 31.5999 13.297 26.1409 16.1431 20.8462L16.1484 20.8515Z" fill="#20261E"/>
<path d="M173.67 172.257C174.868 172.145 173.575 174.361 173.469 175.103C172.685 180.779 179.119 180.816 182.755 178.564C184.827 177.281 184.488 176.391 183.799 174.165C183.168 172.135 181.143 170.444 182.797 168.287C186.867 173.099 186.687 181.547 179.087 182.305C172.102 183.005 170.819 177.546 173.665 172.251L173.67 172.257Z" fill="#20261E"/>
<path d="M153.816 70.8786C155.014 70.7673 153.72 72.9827 153.614 73.7247C152.83 79.401 159.264 79.4381 162.9 77.1856C164.972 75.903 164.633 75.0126 163.944 72.7866C163.313 70.7567 161.289 69.066 162.942 66.9089C167.013 71.7213 166.833 80.1695 159.232 80.9274C152.247 81.627 150.964 76.168 153.811 70.8733L153.816 70.8786Z" fill="#20261E"/>
<path d="M162.546 125.935C161.725 126.03 161.534 126.831 160.569 126.862C156.419 127.011 159.546 118.133 162.429 121.684C165.313 125.235 162.281 133.233 158.417 134.902C156.472 135.74 153.457 135.782 151.702 134.537C151.686 133.97 154.13 134.166 154.676 134.076C158.211 133.509 162.048 129.496 162.546 125.935ZM160.601 123.041L159.642 123.947C160.315 124.732 161.083 124.721 161.751 123.947L160.601 123.041Z" fill="#20261E"/>
<path d="M43.4122 125.935C42.5907 126.03 42.3999 126.831 41.4353 126.862C37.2854 127.011 40.4124 118.133 43.2956 121.684C46.0516 125.082 43.1472 133.233 39.2835 134.902C37.3384 135.74 34.3227 135.782 32.5684 134.537C32.5525 133.97 34.9958 134.166 35.5417 134.076C39.0768 133.509 42.914 129.496 43.4122 125.935ZM41.4618 123.041L40.5025 123.947C41.1756 124.732 41.9441 124.721 42.6119 123.947L41.4618 123.041Z" fill="#20261E"/>
<path d="M100.859 25.0915C100.038 25.1869 99.8467 25.9872 98.8821 26.019C94.7322 26.1674 97.8592 17.2899 100.742 20.8409C103.626 24.3919 100.594 32.3896 96.7303 34.0591C94.7852 34.8965 91.7695 34.9389 90.0152 33.6934C89.9993 33.1263 92.4426 33.3224 92.9885 33.2323C96.5236 32.6652 100.361 28.6531 100.859 25.0915ZM98.9139 22.1977L97.9546 23.104C98.6277 23.8884 99.3962 23.8778 100.064 23.104L98.9139 22.1977Z" fill="#20261E"/>
<path d="M195.373 176.491C194.552 176.587 194.361 177.387 193.396 177.419C189.246 177.567 192.373 168.69 195.257 172.241C198.013 175.638 195.108 183.789 191.244 185.459C189.299 186.296 186.284 186.339 184.529 185.093C184.513 184.526 186.957 184.722 187.503 184.632C191.038 184.065 194.875 180.053 195.373 176.491ZM193.428 173.598L192.469 174.504C193.142 175.288 193.91 175.278 194.578 174.504L193.428 173.598Z" fill="#20261E"/>
<path d="M102.979 75.1185C102.158 75.2139 101.967 76.0142 101.002 76.046C96.8523 76.1944 99.9793 67.3169 102.863 70.8679C105.619 74.2652 102.714 82.4166 98.8504 84.0861C96.9053 84.9235 93.8896 84.9659 92.1353 83.7204C92.1194 83.1533 94.5627 83.3494 95.1086 83.2593C98.6437 82.6922 102.481 78.6801 102.979 75.1185ZM101.029 72.2247L100.069 73.131C100.743 73.9154 101.511 73.9048 102.179 73.131L101.029 72.2247Z" fill="#20261E"/>
<path d="M123.633 134.145C127.269 134.659 133.056 132.136 134.286 128.511C135.108 126.094 131.763 125.442 132.595 122.32C132.664 122.061 132.489 121.478 133.025 121.7C133.396 121.859 134.747 124.064 134.943 124.546C137.021 129.666 133.2 135.735 127.47 135.459C127.126 135.443 122.748 134.913 123.633 134.139V134.145Z" fill="#20261E"/>
<path d="M8.7344 70.8782C12.9585 73.8144 11.8932 80.7998 8.0666 83.5823C6.1215 84.9974 1.961 85.0875 0 83.7148C0 83.0947 2.4221 83.3809 3.0157 83.2961C4.5633 83.0735 7.0596 81.6213 8.2044 80.5454C8.8245 79.9624 10.5894 77.6463 10.5205 76.8778C10.4251 75.7436 8.533 74.0794 8.3104 73.2738C8.1355 72.6272 8.6761 71.5619 8.7291 70.8782H8.7344Z" fill="#20261E"/>
<path d="M48.1765 58.9692C48.2295 59.8861 48.1076 60.8295 48.1765 61.7464C48.4945 65.6101 50.2594 72.9771 49.0563 76.3903C48.9291 76.756 48.8178 77.2648 48.309 77.233C48.0493 77.2383 48.2083 74.6148 48.1712 74.1908C47.8532 70.6928 46.984 66.7814 46.8409 63.347C46.7879 62.0379 46.6183 59.372 48.1765 58.9692Z" fill="#20261E"/>
<path d="M169.696 58.9692C169.749 59.8861 169.627 60.8295 169.696 61.7464C170.014 65.6101 171.778 72.9771 170.575 76.3903C170.448 76.756 170.337 77.2648 169.828 77.233C169.568 77.2383 169.727 74.6148 169.69 74.1908C169.372 70.6928 168.503 66.7814 168.36 63.347C168.307 62.0379 168.137 59.372 169.696 58.9692Z" fill="#20261E"/>
<path d="M33.0887 109.791C33.0145 115.807 35.7493 122.145 34.1434 128.055L33.6187 127.663C33.6664 122.887 31.8061 117.476 31.7425 112.839C31.7319 111.991 32.0393 110.846 32.4898 110.13C32.6594 109.86 32.4739 109.664 33.0834 109.791H33.0887Z" fill="#20261E"/>
<path d="M92.3909 58.969C92.3167 64.9845 95.0515 71.3233 93.4456 77.2328L92.9209 76.8406C92.9686 72.0653 91.1083 66.654 91.0447 62.0165C91.0341 61.1685 91.3415 60.0237 91.792 59.3082C91.9616 59.0379 91.7761 58.8418 92.3856 58.969H92.3909Z" fill="#20261E"/>
<path d="M246.202 128.055C245.831 128.431 245.719 128.033 245.677 127.662C245.502 126.194 245.571 124.392 245.412 122.892C245.094 119.866 244.092 115.366 244.188 112.52C244.225 111.359 244.871 110.575 245.152 109.526C246.096 110.114 245.576 111.783 245.682 112.833C246.17 117.815 247.558 123.157 246.207 128.055H246.202Z" fill="#20261E"/>
<path d="M149.307 27.2065C148.936 27.5828 148.825 27.1853 148.782 26.8143C148.607 25.3462 148.676 23.5442 148.517 22.0443C148.199 19.018 147.198 14.5183 147.293 11.6722C147.33 10.5115 147.977 9.72707 148.258 8.67767C149.201 9.26597 148.682 10.9355 148.788 11.9849C149.275 16.9669 150.664 22.3093 149.312 27.2065H149.307Z" fill="#20261E"/>
<path d="M153.276 128.055C152.905 128.431 152.793 128.033 152.751 127.662C152.576 126.194 152.645 124.392 152.486 122.892C152.168 119.866 151.166 115.366 151.262 112.52C151.299 111.359 151.945 110.575 152.226 109.526C153.17 110.114 152.65 111.783 152.756 112.833C153.244 117.815 154.633 123.157 153.281 128.055H153.276Z" fill="#20261E"/>
<path d="M91.5946 27.2065C91.2236 27.5828 91.1123 27.1853 91.0699 26.8143C90.895 25.3462 90.9639 23.5442 90.8049 22.0443C90.4869 19.018 89.4852 14.5183 89.5806 11.6722C89.6177 10.5115 90.2643 9.72707 90.5452 8.67767C91.4886 9.26597 90.9692 10.9355 91.0752 11.9849C91.5628 16.9669 92.9514 22.3093 91.5999 27.2065H91.5946Z" fill="#20261E"/>
<path d="M251.76 77.233C251.389 77.6093 251.278 77.2118 251.235 76.8408C251.061 75.3727 251.129 73.5707 250.97 72.0708C250.652 69.0445 249.651 64.5448 249.746 61.6987C249.783 60.538 250.43 59.7536 250.711 58.7042C251.654 59.2925 251.135 60.962 251.241 62.0114C251.728 66.9934 253.117 72.3358 251.765 77.233H251.76Z" fill="#20261E"/>
<path d="M162.28 160.083C162.031 164.132 163.399 168.102 163.616 172.114C163.653 172.824 163.77 177.271 162.943 177.281C162.227 176.666 162.641 175.606 162.545 174.774C162.132 171.117 161.024 166.687 160.94 163.13C160.918 162.197 161.093 160.221 162.28 160.083Z" fill="#20261E"/>
<path d="M31.7639 8.67767C31.5148 12.7269 32.8822 16.6966 33.0995 20.7087C33.1366 21.4189 33.2532 25.8656 32.4264 25.8762C31.7109 25.2614 32.1243 24.2014 32.0289 23.3693C31.6155 19.7123 30.5078 15.2815 30.423 11.7252C30.4018 10.7924 30.5767 8.81547 31.7639 8.67767Z" fill="#20261E"/>
<path d="M43.4122 101.057C43.8839 101.428 42.1773 102.132 42.013 102.175C37.6829 103.351 35.017 99.8216 37.7306 96.3024C38.0645 95.8678 38.5892 95.9261 38.6475 95.5021C38.25 95.2318 36.2784 96.2388 36.5328 95.3749C37.2059 93.0959 40.582 94.9191 42.3522 94.4421C42.4317 96.1116 40.2852 95.7407 38.9867 96.5039C37.6246 97.3095 36.6282 99.0054 37.9744 100.272C38.1175 100.41 39.2252 101.062 39.3047 101.062H43.4069L43.4122 101.057Z" fill="#20261E"/>
<path d="M48.2146 54.422L47.7482 53.6906L46.5875 53.945C47.0804 55.9272 49.3223 55.5403 50.8222 54.9997L50.5095 56.5367L44.7378 58.1744C45.0346 57.3529 45.3261 56.4572 46.3278 56.3194C44.07 54.3478 46.2483 52.3815 48.5379 52.1165C49.2534 52.4451 49.5873 54.1676 48.84 54.4697L48.2199 54.4273L48.2146 54.422Z" fill="#20261E"/>
<path d="M169.734 54.422L169.267 53.6906L168.107 53.945C168.599 55.9272 170.841 55.5403 172.341 54.9997L172.029 56.5367L166.257 58.1744C166.554 57.3529 166.845 56.4572 167.847 56.3194C165.589 54.3478 167.767 52.3815 170.057 52.1165C170.772 52.4451 171.106 54.1676 170.359 54.4697L169.739 54.4273L169.734 54.422Z" fill="#20261E"/>
<path d="M77.5613 108.466L77.0366 108.334L78.0966 105.668L79.9198 106.065C80.259 104.883 82.6069 101.719 83.6722 103.558C84.6792 105.302 82.8825 107.385 81.1282 107.655C79.6601 107.883 77.8687 106.733 77.5666 108.466H77.5613ZM80.7413 106.081C81.7112 106.192 82.5115 105.938 83.121 105.159L82.4267 104.544C81.7536 104.401 81.0275 105.551 80.7466 106.086L80.7413 106.081Z" fill="#20261E"/>
<path d="M87.8906 7.88234C87.8058 6.83824 88.4312 5.93194 88.9453 5.08394C89.4276 4.77654 90.0742 5.38074 90.6201 5.21114C91.2508 5.01504 92.7984 1.01884 94.3778 2.58234C96.1374 4.32604 93.286 6.98134 91.1872 7.09794C89.3534 7.19864 89.47 5.75174 87.8906 7.88234ZM91.5953 5.49734C92.1041 5.54504 94.1287 4.99914 93.975 4.31544C93.7153 3.12824 91.6165 4.56984 91.5953 5.49734Z" fill="#20261E"/>
<path d="M145.607 7.88234C145.522 6.83824 146.147 5.93194 146.662 5.08394C147.144 4.77654 147.79 5.38074 148.336 5.21114C148.967 5.01504 150.515 1.01884 152.094 2.58234C153.854 4.32604 151.002 6.98134 148.904 7.09794C147.07 7.19864 147.186 5.75174 145.607 7.88234ZM149.312 5.49734C149.82 5.54504 151.845 4.99914 151.691 4.31544C151.432 3.12824 149.333 4.56984 149.312 5.49734Z" fill="#20261E"/>
<path d="M149.578 108.731C149.493 107.687 150.118 106.78 150.632 105.932C151.115 105.625 151.761 106.229 152.307 106.06C152.938 105.864 154.485 101.867 156.065 103.431C157.824 105.175 154.973 107.83 152.874 107.946C151.04 108.047 151.157 106.6 149.578 108.731ZM153.282 106.346C153.791 106.394 155.816 105.848 155.662 105.164C155.402 103.977 153.303 105.418 153.282 106.346Z" fill="#20261E"/>
<path d="M248.061 57.9094C247.976 56.8653 248.601 55.959 249.115 55.111C249.598 54.8036 250.244 55.4078 250.79 55.2382C251.421 55.0421 252.968 51.0459 254.548 52.6094C256.233 54.2736 253.52 56.9183 251.596 57.1038C249.672 57.2893 249.592 55.7417 248.055 57.9094H248.061ZM254.145 54.7294C253.763 52.9698 252.094 54.4008 251.765 55.5244L254.145 54.7294Z" fill="#20261E"/>
<path d="M242.501 108.731C242.417 107.687 243.042 106.78 243.556 105.932C244.038 105.625 244.685 106.229 245.231 106.06C245.862 105.864 247.409 101.867 248.989 103.431C250.674 105.095 247.96 107.74 246.037 107.925C244.113 108.111 244.033 106.563 242.496 108.731H242.501ZM248.586 105.551C248.204 103.791 246.535 105.222 246.206 106.346L248.586 105.551Z" fill="#20261E"/>
<path d="M137.328 102.975C137.688 103.749 137.694 104.448 136.994 105.021C136.453 105.259 136.618 104.395 136.183 104.252C135.812 104.13 135.007 104.305 135.017 104.629C135.022 104.835 136.178 105.72 136.533 105.779C137.264 105.906 138.176 105.355 138.982 105.556L138.674 106.839C136.835 106.992 135.038 107.591 133.422 108.466C133.406 108.01 133.422 107.454 133.671 107.061C134.143 106.298 135.038 106.945 133.74 105.116C133.872 103.892 136.3 101.788 137.328 102.975Z" fill="#20261E"/>
<path d="M127.067 59.2342C125.927 58.5293 125.323 59.9656 124.343 60.6069C123.903 60.8931 121.894 61.9054 121.513 61.6139C121.354 60.9302 121.714 61.1528 122.011 60.9302C123.076 60.1405 124.316 59.584 125.212 58.5664C122.18 57.5223 124.613 53.3247 126.765 54.8988C126.457 56.5312 127.475 57.8403 127.067 59.2289V59.2342ZM126.012 56.0595H124.958V56.4517L125.62 57.1142H126.012V56.0595Z" fill="#20261E"/>
<path d="M196.7 61.3542C195.56 60.6493 194.956 62.0856 193.976 62.7269C193.536 63.0131 191.527 64.0254 191.145 63.7339C190.986 63.0502 191.347 63.2728 191.644 63.0502C192.709 62.2605 193.949 61.704 194.845 60.6864C191.813 59.6423 194.246 55.4447 196.398 57.0188C196.09 58.6512 197.108 59.9603 196.7 61.3489V61.3542ZM195.64 58.1742H194.585V58.5664L195.248 59.2289H195.64V58.1742Z" fill="#20261E"/>
<path d="M113.304 57.3844C112.164 56.6795 111.56 58.1158 110.58 58.7571C110.14 59.0433 108.131 60.0556 107.749 59.7641C107.59 59.0804 107.951 59.303 108.248 59.0804C109.313 58.2907 110.553 57.7342 111.449 56.7166C108.417 55.6725 110.85 51.4749 113.002 53.049C112.694 54.6814 113.712 55.9905 113.304 57.3791V57.3844ZM112.244 54.2044H111.189V54.5966L111.852 55.2591H112.244V54.2044Z" fill="#20261E"/>
<path d="M124.423 163.787C123.284 163.082 122.68 164.518 121.699 165.16C121.259 165.446 119.251 166.458 118.869 166.167C118.71 165.483 119.07 165.706 119.367 165.483C120.433 164.693 121.673 164.137 122.568 163.119C119.537 162.075 121.97 157.878 124.121 159.452C123.814 161.084 124.831 162.393 124.423 163.782V163.787ZM123.363 160.612H122.309V161.005L122.971 161.667H123.363V160.612Z" fill="#20261E"/>
<path d="M219.467 160.348C218.328 159.643 217.724 161.079 216.743 161.72C216.303 162.007 214.295 163.019 213.913 162.727C213.754 162.044 214.114 162.266 214.411 162.044C215.476 161.254 216.717 160.698 217.612 159.68C214.581 158.636 217.013 154.438 219.165 156.012C218.858 157.645 219.875 158.954 219.467 160.342V160.348ZM218.407 157.173H217.353V157.565L218.015 158.228H218.407V157.173Z" fill="#20261E"/>
<path d="M205.697 158.493C204.558 157.788 203.954 159.224 202.973 159.865C202.533 160.152 200.525 161.164 200.143 160.872C199.984 160.189 200.344 160.411 200.641 160.189C201.706 159.399 202.947 158.843 203.842 157.825C200.811 156.781 203.243 152.583 205.395 154.157C205.088 155.79 206.105 157.099 205.697 158.487V158.493ZM204.637 155.318H203.583V155.71L204.245 156.373H204.637V155.318Z" fill="#20261E"/>
<path d="M67.5001 109.791C66.3606 109.086 65.7564 110.522 64.7759 111.163C64.336 111.45 62.3273 112.462 61.9457 112.17C61.7867 111.487 62.1471 111.709 62.4439 111.487C63.5092 110.697 64.7494 110.141 65.6451 109.123C62.6135 108.079 65.0462 103.881 67.198 105.455C66.8906 107.088 67.9082 108.397 67.5001 109.785V109.791ZM66.4454 106.616H65.3907V107.008L66.0532 107.671H66.4454V106.616Z" fill="#20261E"/>
<path d="M53.7364 107.941C52.5969 107.237 51.9927 108.673 51.0122 109.314C50.5723 109.6 48.5636 110.613 48.182 110.321C48.023 109.637 48.3834 109.86 48.6802 109.637C49.7455 108.848 50.9857 108.291 51.8814 107.274C48.8498 106.23 51.2825 102.032 53.4343 103.606C53.1269 105.238 54.1445 106.548 53.7364 107.936V107.941ZM52.6764 104.761H51.6217V105.154L52.2842 105.816H52.6764V104.761Z" fill="#20261E"/>
<path d="M132.628 110.061C132.596 112.563 129.406 113.464 127.339 113.761C126.602 112.992 129.713 111.731 130.248 111.641C130.853 110.994 128.627 110.581 127.784 111.1C127.498 111.275 127.487 111.863 127.074 111.911C127.185 107.962 130.063 109.028 132.628 110.061Z" fill="#20261E"/>
<path d="M163.612 180.726C163.559 179.777 162.806 179.883 162.017 179.931C162.048 181.468 163.411 181.24 164.545 181.272C165.175 181.288 165.886 180.668 165.875 181.542C165.859 182.814 164.433 182.433 163.591 182.698C163.077 182.862 160.331 184.06 160.162 183.896C160.188 183.154 160.723 182.39 161.481 182.3L160.702 180.588C160.835 179.507 163.055 177.938 163.967 178.617C165.096 179.449 163.845 180.912 163.607 180.721L163.612 180.726Z" fill="#20261E"/>
<path d="M33.0934 29.3211C33.0404 28.3724 32.2878 28.4784 31.4981 28.5261C31.5299 30.0631 32.892 29.8352 34.0262 29.867C34.6569 29.8829 35.3671 29.2628 35.3565 30.1373C35.3406 31.4093 33.9149 31.0277 33.0722 31.2927C32.5581 31.457 29.8127 32.6548 29.6431 32.4905C29.6696 31.7485 30.2049 30.9853 30.9628 30.8952L30.1837 29.1833C30.3162 28.1021 32.5369 26.5333 33.4485 27.2117C34.5774 28.0438 33.3266 29.5066 33.0881 29.3158L33.0934 29.3211Z" fill="#20261E"/>
<path d="M42.0673 55.5505C42.5019 57.4161 39.094 59.0485 37.6524 59.1704C35.3257 59.3718 39.1258 57.0769 39.9685 57.1087C40.4985 56.5522 38.7124 56.3084 38.5057 56.3084C37.5623 56.319 37.3344 57.0186 36.5288 57.1087C37.398 53.3722 39.3696 54.4905 42.062 55.5452L42.0673 55.5505Z" fill="#20261E"/>
<path d="M86.5439 1.02419C86.9785 2.88979 83.5706 4.52219 82.129 4.64409C79.8023 4.84549 83.6024 2.55059 84.4451 2.58239C84.9751 2.02589 83.189 1.78209 82.9823 1.78209C82.0389 1.79269 81.811 2.49229 81.0054 2.58239C81.8746 -1.15411 83.8462 -0.0358078 86.5386 1.01889L86.5439 1.02419Z" fill="#20261E"/>
<path d="M206.208 59.7853C206.643 61.6509 203.235 63.2833 201.793 63.4052C199.466 63.6066 203.266 61.3117 204.109 61.3435C204.639 60.787 202.853 60.5432 202.646 60.5432C201.703 60.5538 201.475 61.2534 200.669 61.3435C201.539 57.607 203.51 58.7253 206.203 59.78L206.208 59.7853Z" fill="#20261E"/>
<path d="M136.051 1.02419C136.486 2.88979 133.078 4.52219 131.636 4.64409C129.31 4.84549 133.11 2.55059 133.952 2.58239C134.482 2.02589 132.696 1.78209 132.49 1.78209C131.546 1.79269 131.318 2.49229 130.513 2.58239C131.382 -1.15411 133.353 -0.0358078 136.046 1.01889L136.051 1.02419Z" fill="#20261E"/>
<path d="M192.968 9.4938C193.403 11.3594 189.995 12.9918 188.553 13.1137C186.227 13.3151 190.027 11.0202 190.869 11.052C191.399 10.4955 189.613 10.2517 189.407 10.2517C188.463 10.2623 188.235 10.9619 187.43 11.052C188.299 7.3155 190.27 8.4338 192.963 9.4885L192.968 9.4938Z" fill="#20261E"/>
<path d="M242.476 60.3153C242.91 62.1809 239.502 63.8133 238.061 63.9352C235.734 64.1366 239.534 61.8417 240.377 61.8735C240.907 61.317 239.121 61.0732 238.914 61.0732C237.971 61.0838 237.743 61.7834 236.937 61.8735C237.806 58.137 239.778 59.2553 242.47 60.31L242.476 60.3153Z" fill="#20261E"/>
<path d="M67.4804 61.6403C67.915 63.5059 64.5071 65.1383 63.0655 65.2602C60.7388 65.4616 64.5389 63.1667 65.3816 63.1985C65.9116 62.642 64.1255 62.3982 63.9188 62.3982C62.9754 62.4088 62.7475 63.1084 61.9419 63.1985C62.8111 59.462 64.7827 60.5803 67.4751 61.635L67.4804 61.6403Z" fill="#20261E"/>
<path d="M186.348 61.6403C186.782 63.5059 183.374 65.1383 181.933 65.2602C179.606 65.4616 183.406 63.1667 184.249 63.1985C184.779 62.642 182.993 62.3982 182.786 62.3982C181.843 62.4088 181.615 63.1084 180.809 63.1985C181.678 59.462 183.65 60.5803 186.342 61.635L186.348 61.6403Z" fill="#20261E"/>
<path d="M110.367 154.019C110.802 155.885 107.394 157.517 105.952 157.639C103.626 157.841 107.426 155.546 108.268 155.577C108.798 155.021 107.012 154.777 106.806 154.777C105.862 154.788 105.634 155.487 104.829 155.577C105.698 151.841 107.669 152.959 110.362 154.014L110.367 154.019Z" fill="#20261E"/>
<path d="M148.225 101.873C148.659 103.738 145.251 105.371 143.81 105.493C141.483 105.694 145.283 103.399 146.126 103.431C146.656 102.874 144.87 102.631 144.663 102.631C143.72 102.641 143.492 103.341 142.686 103.431C143.555 99.6944 145.527 100.813 148.219 101.867L148.225 101.873Z" fill="#20261E"/>
<path d="M78.3659 31.4409L77.9419 30.6724L76.7706 31.054C77.5762 32.7447 79.2987 31.9762 80.7403 31.9762C80.6661 33.6775 79.1821 33.1899 77.979 33.5768C77.449 33.7464 75.1647 34.8117 74.9209 34.6156C75.2124 33.9001 75.3184 33.0945 76.2406 33.0256L75.4509 31.584C75.8643 30.1212 77.3589 28.881 78.9065 29.4428C79.3994 29.7926 79.3358 31.637 78.3659 31.4409Z" fill="#20261E"/>
<path d="M93.3751 57.0401C93.0412 57.374 91.9918 57.692 91.4883 57.6443C88.25 57.3422 90.7516 51.0511 93.0677 52.5934C94.2019 53.346 94.2814 56.1338 93.3751 57.0401ZM91.5042 54.2417C90.8046 54.4749 90.1951 56.2186 91.9229 56.0066C93.1048 55.8582 93.5765 55.307 92.6596 54.3371C92.3363 54.141 91.8593 54.1304 91.5095 54.247L91.5042 54.2417Z" fill="#20261E"/>
<path d="M33.8082 107.597C33.4743 107.931 32.4249 108.249 31.9214 108.201C28.6831 107.899 31.1847 101.608 33.5008 103.15C34.635 103.903 34.7145 106.69 33.8082 107.597ZM31.9373 104.798C31.2377 105.031 30.6282 106.775 32.356 106.563C33.5379 106.415 34.0096 105.864 33.0927 104.894C32.7694 104.698 32.2924 104.687 31.9426 104.804L31.9373 104.798Z" fill="#20261E"/>
<path d="M181.605 116.67L182.756 115.388C184.807 116.432 184.929 117.174 183.333 118.785L181.489 117.465C181.107 117.555 180.885 119.013 179.947 118.758L178.219 117.338L179.623 115.377L181.605 116.67Z" fill="#20261E"/>
<path d="M213.914 31.4408L212.722 32.9778L210.777 31.3083L211.943 29.5699L214.015 30.6299L215.33 29.342L217.073 30.8154L215.865 32.7552L213.914 31.4408Z" fill="#20261E"/>
<path d="M193.753 69.2564C193.218 69.5691 191.739 68.3077 191.432 67.7989L192.857 65.8644L194.447 67.1523L195.37 65.9757C195.794 65.4722 197.696 67.1152 197.739 67.3431L196.52 69.0073L194.712 68.0374L193.753 69.2617V69.2564Z" fill="#20261E"/>
<path d="M230.36 167.195L231.383 165.224L233.338 166.162L234.685 164.832L236.63 166.565L235.225 168.239L233.63 166.973L232.31 168.536L230.36 167.195Z" fill="#20261E"/>
<path d="M138.225 65.8168L139.253 63.8452L141.209 64.7833L142.555 63.453L144.5 65.1861L143.09 66.8609L141.5 65.5995L140.18 67.1577L138.225 65.8168Z" fill="#20261E"/>
<path d="M227.64 69.2564C227.104 69.5691 225.626 68.3077 225.318 67.7989L226.744 65.8644L228.334 67.1523L229.256 65.9757C229.68 65.4722 231.583 67.1152 231.625 67.3431L230.406 69.0073L228.599 68.0374L227.64 69.2617V69.2564Z" fill="#20261E"/>
<path d="M178.161 17.6717C178.897 15.5199 179.724 16.6859 180.97 17.6717L179.883 19.7917L178.033 18.4826C177.721 18.5091 177.429 20.0143 176.502 19.7599L174.774 18.3395L175.956 16.6329L178.161 17.6717Z" fill="#20261E"/>
<path d="M38.907 64.7884L36.8188 63.2885L38.0113 61.3593L39.8027 62.3769L40.8945 61.0995L42.8555 62.8432L41.6577 64.5074L39.8769 63.4952L38.907 64.7884Z" fill="#20261E"/>
<path d="M226.353 112.176C225.33 114.853 228.595 113.74 228.208 111.641C229.352 111.471 228.42 113.263 229.665 112.971C230.619 112.749 230.275 111.62 230.593 110.846C231.059 110.491 231.616 112.976 230.465 114.026C229.315 115.075 228.833 114.063 228.34 114.089C228.043 114.105 227.709 114.964 227.01 115.086C224.084 115.589 225.621 111.429 226.358 112.176H226.353Z" fill="#20261E"/>
<path d="M115.423 12.3875C114.401 15.064 117.665 13.951 117.278 11.8522C118.423 11.6826 117.49 13.474 118.736 13.1825C119.69 12.9599 119.345 11.831 119.663 11.0572C120.13 10.7021 120.686 13.1878 119.536 14.2372C118.386 15.2866 117.904 14.2743 117.411 14.3008C117.114 14.3167 116.78 15.1753 116.081 15.2972C113.155 15.8007 114.692 11.6402 115.429 12.3875H115.423Z" fill="#20261E"/>
<path d="M153.281 153.733C152.258 156.409 155.523 155.296 155.136 153.198C156.281 153.028 155.348 154.819 156.593 154.528C157.547 154.305 157.203 153.176 157.521 152.403C157.987 152.048 158.544 154.533 157.394 155.583C156.244 156.632 155.761 155.62 155.268 155.646C154.972 155.662 154.638 156.521 153.938 156.643C151.012 157.146 152.549 152.986 153.286 153.733H153.281Z" fill="#20261E"/>
<path d="M50.8209 47.3251C50.1743 50.0864 46.6339 50.4309 44.4715 51.5598C44.2754 51.3531 44.8796 49.9486 45.187 49.6942C45.4255 49.4981 50.6036 47.1131 50.8209 47.3251Z" fill="#20261E"/>
<path d="M23.5528 102.116C22.9062 104.878 19.3658 105.222 17.2034 106.351C17.0073 106.144 17.6115 104.74 17.9189 104.486C18.1574 104.289 23.3355 101.904 23.5528 102.116Z" fill="#20261E"/>
<path d="M172.34 47.3251C171.693 50.0864 168.153 50.4309 165.991 51.5598C165.794 51.3531 166.399 49.9486 166.706 49.6942C166.945 49.4981 172.123 47.1131 172.34 47.3251Z" fill="#20261E"/>
<path d="M139.511 97.8816C138.865 100.643 135.324 100.987 133.162 102.116C132.966 101.91 133.57 100.505 133.877 100.251C134.116 100.055 139.294 97.6696 139.511 97.8816Z" fill="#20261E"/>
<path d="M180.021 6.82772C179.374 9.58902 175.834 9.93352 173.672 11.0624C173.476 10.8557 174.08 9.45122 174.387 9.19682C174.626 9.00072 179.804 6.61572 180.021 6.82772Z" fill="#20261E"/>
<path d="M32.0289 60.8241C31.3823 63.5854 27.8419 63.9299 25.6795 65.0588C25.4834 64.8521 26.0876 63.4476 26.395 63.1932C26.6335 62.9971 31.8116 60.6121 32.0289 60.8241Z" fill="#20261E"/>
<path d="M218.939 8.14754C218.292 10.9088 214.752 11.2533 212.589 12.3822C212.393 12.1755 212.997 10.771 213.305 10.5166C213.543 10.3205 218.721 7.93554 218.939 8.14754Z" fill="#20261E"/>
<path d="M231.383 59.499C230.737 62.2603 227.196 62.6048 225.034 63.7337C224.838 63.527 225.442 62.1225 225.749 61.8681C225.988 61.672 231.166 59.287 231.383 59.499Z" fill="#20261E"/>
<path d="M144.277 58.1741C143.63 60.9354 140.09 61.2799 137.928 62.4088C137.731 62.2021 138.336 60.7976 138.643 60.5432C138.882 60.3471 144.06 57.9621 144.277 58.1741Z" fill="#20261E"/>
<path d="M91.066 106.086C90.4194 108.848 86.879 109.192 84.7166 110.321C84.5205 110.114 85.1247 108.71 85.4321 108.455C85.6706 108.259 90.8487 105.874 91.066 106.086Z" fill="#20261E"/>
<path d="M162.545 111.911C161.899 114.672 158.358 115.017 156.196 116.146C156 115.939 156.604 114.535 156.912 114.28C157.15 114.084 162.328 111.699 162.545 111.911Z" fill="#20261E"/>
<path d="M102.183 161.938C101.537 164.699 97.9962 165.043 95.8338 166.172C95.6377 165.966 96.2419 164.561 96.5493 164.307C96.7878 164.111 101.966 161.726 102.183 161.938Z" fill="#20261E"/>
<path d="M204.639 11.0626C203.993 13.8239 200.452 14.1684 198.29 15.2973C198.094 15.0906 198.698 13.6861 199.005 13.4317C199.244 13.2356 204.422 10.8506 204.639 11.0626Z" fill="#20261E"/>
<path d="M236.412 159.288C235.766 162.049 232.225 162.393 230.063 163.522C229.867 163.316 230.471 161.911 230.778 161.657C231.017 161.461 236.195 159.076 236.412 159.288Z" fill="#20261E"/>
<path d="M181.611 158.758C180.964 161.519 177.424 161.863 175.262 162.992C175.065 162.786 175.67 161.381 175.977 161.127C176.216 160.931 181.394 158.546 181.611 158.758Z" fill="#20261E"/>
<path d="M216.819 109.791C216.172 112.552 212.632 112.897 210.47 114.026C210.273 113.819 210.878 112.415 211.185 112.16C211.424 111.964 216.602 109.579 216.819 109.791Z" fill="#20261E"/>
<path d="M203.318 110.586C202.671 113.347 199.131 113.692 196.969 114.821C196.772 114.614 197.377 113.21 197.684 112.955C197.923 112.759 203.101 110.374 203.318 110.586Z" fill="#20261E"/>
<path d="M168.371 11.0626C167.725 13.8239 164.184 14.1684 162.022 15.2973C161.826 15.0906 162.43 13.6861 162.737 13.4317C162.976 13.2356 168.154 10.8506 168.371 11.0626Z" fill="#20261E"/>
<path d="M100.858 11.0626C100.212 13.8239 96.6715 14.1684 94.5091 15.2973C94.313 15.0906 94.9172 13.6861 95.2246 13.4317C95.4631 13.2356 100.641 10.8506 100.858 11.0626Z" fill="#20261E"/>
<path d="M207.51 114.869C207.966 115.139 208.867 118.006 208.873 118.653C208.873 119.209 208.194 122.198 207.685 122.22C207.092 121.838 207.389 121.621 207.415 121.165C207.468 120.28 207.643 119.697 207.489 118.716C207.357 117.874 206.323 116.273 206.323 116.008C206.323 115.489 206.859 114.476 207.516 114.863L207.51 114.869Z" fill="#20261E"/>
<path d="M88.6437 165.425C89.0995 165.695 90.0005 168.563 90.0058 169.209C90.0058 169.766 89.3274 172.755 88.8186 172.776C88.225 172.394 88.5218 172.177 88.5483 171.721C88.6013 170.836 88.7762 170.253 88.6225 169.273C88.49 168.43 87.4565 166.829 87.4565 166.564C87.4565 166.045 87.9918 165.033 88.649 165.42L88.6437 165.425Z" fill="#20261E"/>
<path d="M194.542 116.458C194.998 116.729 195.899 119.596 195.904 120.243C195.904 120.799 195.226 123.788 194.717 123.81C194.123 123.428 194.42 123.211 194.447 122.755C194.5 121.87 194.675 121.287 194.521 120.306C194.388 119.464 193.355 117.863 193.355 117.598C193.355 117.079 193.89 116.066 194.547 116.453L194.542 116.458Z" fill="#20261E"/>
<path d="M210.425 14.5499C210.881 14.8202 211.782 17.6875 211.788 18.3341C211.788 18.8906 211.109 21.8798 210.6 21.901C210.007 21.5194 210.304 21.3021 210.33 20.8463C210.383 19.9612 210.558 19.3782 210.404 18.3977C210.272 17.555 209.238 15.9544 209.238 15.6894C209.238 15.17 209.774 14.1577 210.431 14.5446L210.425 14.5499Z" fill="#20261E"/>
<path d="M158.045 148.174C158.157 148.28 157.611 149.817 157.335 150.045C156.418 150.787 153.143 151.624 151.961 152.408C151.775 152.175 152.369 150.792 152.676 150.543C152.963 150.31 157.839 147.967 158.045 148.174Z" fill="#20261E"/>
<path d="M231.117 106.616C231.228 106.722 230.683 108.259 230.407 108.487C229.49 109.229 226.215 110.067 225.033 110.851C224.847 110.618 225.441 109.235 225.748 108.985C226.034 108.752 230.91 106.41 231.117 106.616Z" fill="#20261E"/>
<path d="M221.847 60.8244C222.971 61.9321 216.595 65.0538 215.763 65.0591C215.567 64.8577 216.171 63.4479 216.478 63.1935C216.706 63.008 221.641 60.6177 221.847 60.8244Z" fill="#20261E"/>
<path d="M80.7414 34.3558C82.0134 35.4953 75.0598 37.557 74.3867 37.5305C75.0916 35.1667 78.632 34.9176 80.7414 34.3558Z" fill="#20261E"/>
<path d="M63.531 30.6458C64.803 31.7853 57.8494 33.847 57.1763 33.8205C57.8812 31.4567 61.4216 31.2076 63.531 30.6458Z" fill="#20261E"/>
<path d="M9.78976 86.2327C11.0618 87.3722 4.10816 89.4339 3.43506 89.4074C4.13996 87.0436 7.68036 86.7945 9.78976 86.2327Z" fill="#20261E"/>
<path d="M121.514 37.5306C122.786 38.6701 115.832 40.7318 115.159 40.7053C115.864 38.3415 119.404 38.0924 121.514 37.5306Z" fill="#20261E"/>
<path d="M81.0061 79.353C82.2781 80.4925 75.3245 82.5542 74.6514 82.5277C75.3563 80.1639 78.8967 79.9148 81.0061 79.353Z" fill="#20261E"/>
<path d="M166.516 183.641C167.788 184.781 160.835 186.843 160.162 186.816C160.867 184.452 164.407 184.203 166.516 183.641Z" fill="#20261E"/>
<path d="M135.807 185.756C137.079 186.895 130.126 188.957 129.453 188.93C130.158 186.567 133.698 186.317 135.807 185.756Z" fill="#20261E"/>
<path d="M35.9978 32.2358C37.2698 33.3753 30.3162 35.437 29.6431 35.4105C30.348 33.0467 33.8884 32.7976 35.9978 32.2358Z" fill="#20261E"/>
<path d="M185.05 131.229C186.322 132.369 179.368 134.431 178.695 134.404C179.4 132.04 182.941 131.791 185.05 131.229Z" fill="#20261E"/>
<path d="M122.303 130.174C123.575 131.314 116.621 133.376 115.948 133.349C116.653 130.985 120.194 130.736 122.303 130.174Z" fill="#20261E"/>
<path d="M24.613 33.0308C25.885 34.1703 18.9314 36.232 18.2583 36.2055C18.9632 33.8417 22.5036 33.5926 24.613 33.0308Z" fill="#20261E"/>
<path d="M134.217 34.0908C135.489 35.2303 128.536 37.292 127.863 37.2655C128.568 34.9017 132.108 34.6526 134.217 34.0908Z" fill="#20261E"/>
<path d="M79.6803 192.11C79.2828 194.389 75.4297 194.31 73.5959 195.02C72.3716 193.838 79.0708 192.291 79.6803 192.11Z" fill="#20261E"/>
<path d="M82.3313 188.936C82.5115 189.1 81.8278 190.118 81.5946 190.25C80.3703 190.966 77.4182 191.162 75.9766 191.845C76.5384 189.487 80.3809 189.736 82.326 188.936H82.3313Z" fill="#20261E"/>
<path d="M111.216 60.5749C111.671 60.2569 113.251 61.8787 113.521 62.2709L112.117 63.9298L110.145 62.2391L111.216 60.5749Z" fill="#20261E"/>
<path d="M203.61 161.953C204.065 161.635 205.645 163.257 205.915 163.649L204.511 165.308L202.539 163.618L203.61 161.953Z" fill="#20261E"/>
<path d="M77.5981 170.174C78.1281 169.861 79.6121 171.123 79.9195 171.631L78.7111 173.29L76.5063 171.854L77.5981 170.174Z" fill="#20261E"/>
<path d="M130.947 29.3421L132.876 30.8049C133.008 31.3402 131.832 32.3843 131.44 32.75L129.521 31.0434L130.947 29.3368V29.3421Z" fill="#20261E"/>
<path d="M65.1577 68.7954C65.6877 68.4827 67.1717 69.7441 67.4791 70.2529L66.2707 71.9118L64.0659 70.4755L65.1577 68.7954Z" fill="#20261E"/>
<path d="M67.7972 10.0235C68.253 9.70553 69.8324 11.3273 70.1027 11.7195L68.6982 13.3784L66.7266 11.6877L67.7972 10.0235Z" fill="#20261E"/>
<path d="M117.544 113.761C119.473 114.55 120.549 115.647 118.429 117.179L116.495 115.711L117.544 113.761Z" fill="#20261E"/>
<path d="M117.576 18.7689C118.106 18.4562 119.59 19.7176 119.898 20.2264L118.689 21.8853L116.484 20.449L117.576 18.7689Z" fill="#20261E"/>
<path d="M51.6487 111.397C52.1045 111.079 53.6839 112.701 53.9542 113.093L52.5497 114.752L50.5781 113.061L51.6487 111.397Z" fill="#20261E"/>
<path d="M225.462 166.983L227.375 168.456C226.596 170.9 225.42 170.179 224.021 168.69L225.462 166.983Z" fill="#20261E"/>
<path d="M157.537 65.2921C157.251 64.884 158.581 63.4742 158.968 63.2516L160.892 64.9211L159.503 66.58L157.537 65.2921Z" fill="#20261E"/>
<path d="M74.65 115.35L73.203 117.211L71.2314 115.706L72.6625 114.01L74.65 115.35Z" fill="#20261E"/>
<path d="M133.333 65.6046L135.246 67.078C134.467 69.5213 133.291 68.8005 131.892 67.3112L133.333 65.6046Z" fill="#20261E"/>
<path d="M19.8696 15.2657C19.5834 14.8576 20.9137 13.4478 21.3006 13.2252L23.2245 14.8947L21.8359 16.5536L19.8696 15.2657Z" fill="#20261E"/>
<path d="M177.395 166.671C177.109 166.263 178.44 164.853 178.826 164.63L180.75 166.3L179.362 167.959L177.395 166.671Z" fill="#20261E"/>
<path d="M175.822 15.5252C175.429 14.8574 176.839 13.9246 177.242 13.4529L179.177 15.1595L177.772 16.8184L175.822 15.5252Z" fill="#20261E"/>
<path d="M65.2919 113.252L67.2317 114.72L66.018 116.395C64.2107 115.838 63.2832 114.439 65.2919 113.252Z" fill="#20261E"/>
<path d="M124.857 62.4302L126.797 63.8983L125.583 65.5731C123.776 65.0166 122.848 63.6174 124.857 62.4302Z" fill="#20261E"/>
<path d="M133.925 181.818C134.212 182.3 133.178 183.588 132.733 183.885L130.761 182.687L132.007 180.747L133.931 181.818H133.925Z" fill="#20261E"/>
<path d="M217.253 163.803L219.193 165.271L217.979 166.946C216.172 166.39 215.244 164.99 217.253 163.803Z" fill="#20261E"/>
<path d="M89.7396 113.241L88.5047 115.064C86.4854 114.508 85.8812 113.289 87.7945 111.932L89.7396 113.246V113.241Z" fill="#20261E"/>
<path d="M41.2548 97.9138C41.5304 98.3696 40.9739 98.9314 40.6294 99.1964L39.7231 98.2371L40.3591 97.4103C40.5181 97.6117 41.2124 97.8502 41.2495 97.9138H41.2548Z" fill="#20261E"/>
<path d="M55.061 175.961C53.9851 176.009 54.3667 174.801 54.1494 174.096C53.5717 172.246 52.358 170.582 52.6813 168.552C53.9692 169.983 54.5575 170.55 55.7235 168.552L55.9938 169.336C56.8736 170.142 57.3559 169.039 57.5732 168.287C58.4265 168.992 57.7905 171.069 56.7623 171.202C55.9726 171.303 55.2836 170.746 54.5734 171.886L55.061 175.961Z" fill="#20261E"/>
<path d="M48.7717 170.995C48.6922 171.032 48.3901 171.721 47.8972 171.605C48.0244 172.945 49.0367 174.747 48.0403 175.961C47.7329 175.961 47.24 173.258 47.0545 172.718C46.5457 171.255 45.5175 170.343 46.0581 168.557C47.346 169.988 47.9343 170.555 49.1003 168.557L49.3706 169.341C50.473 170.306 50.4465 168.7 51.0825 168.292C51.3369 168.917 51.2468 170.311 50.844 170.825C50.1815 171.679 49.1109 170.825 48.7664 170.995H48.7717Z" fill="#20261E"/>
</svg>
