<svg width="309" height="193" viewBox="0 0 309 193" fill="none" xmlns="http://www.w3.org/2000/svg">
<path d="M110.149 172.352C110.457 171.207 110.732 170.264 110.69 169.039C110.6 166.432 108.819 163.384 110.383 161.137C108.999 159.536 108.554 156.738 107.499 160.549C108.151 161.768 109.768 170.894 109.354 171.297C106.768 171.79 102.475 170.603 102.205 174.207C104.298 173.719 107.478 173.984 109.513 174.71C109.794 174.811 110.277 174.859 109.879 175.267C109.28 175.882 102.979 176.825 101.813 176.873C95.6857 177.117 94.5992 174.186 90.2638 170.921C89.0342 169.993 84.5186 167.423 83.925 166.665C83.5487 166.188 83.9621 166.082 84.3384 165.743C85.0327 165.107 86.575 164.328 87.4654 163.835C90.5924 162.102 93.9897 160.867 97.1644 159.234L98.235 156.733C97.8057 156.383 89.2992 160.867 88.2604 161.455C85.9708 162.748 82.3774 164.487 82.3562 167.497C82.3456 168.584 85.6369 170.566 86.5909 171.43C87.1898 171.976 90.4705 175.187 90.0306 175.802C89.3734 175.908 88.8275 176.316 88.1915 176.481C86.4319 176.936 80.4058 177.514 79.579 175.537C79.3246 174.922 79.7539 173.894 79.049 173.958C77.8989 177.111 73.7013 177.71 71.046 176.131C68.8094 174.795 69.6415 173.285 66.541 175.219C64.4316 176.534 62.778 178.304 63.0112 180.98L64.8768 192.1C65.3803 192.29 65.3909 191.623 65.4174 191.315C65.746 187.944 64.2885 183.874 64.0818 180.466L65.5764 178.484C67.1505 179.427 68.8995 180.148 70.7916 180.058L71.2474 178.993C73.7172 179.464 77.1357 179.698 78.5137 177.132C80.0242 179.973 84.4603 179.459 87.1739 178.908C90.2638 178.283 91.3715 177.27 90.8309 173.952C95.5691 178.982 98.5159 180.175 105.395 178.59C108.268 177.927 111.782 176.099 114.554 175.834C116.833 175.617 118.349 177.106 118.894 173.687C115.916 173.868 112.964 173.327 110.155 172.357L110.149 172.352ZM66.9915 176.332C67.7229 175.548 69.5938 176.507 69.6362 177.652C69.4083 177.429 66.3608 177.005 66.9915 176.332Z" fill="#20261E"/>
<path d="M255.184 75.1976C253.769 75.9396 252.2 75.6057 250.658 75.6905C250.191 72.6642 246.195 70.2315 245.32 74.3337C244.536 78.0066 246.592 78.261 249.666 78.0967L249.916 79.8616C247.594 81.9445 243.932 83.6988 240.863 82.2678C237.8 80.8421 238.786 77.8847 239.543 75.4414C239.952 74.1217 238.812 75.3725 238.483 75.9714C236.533 79.5595 237.429 84.4991 241.96 85.1404C246.147 85.734 251.474 82.819 251.029 78.0543C253.535 78.2557 256.376 77.9218 257.124 75.1446C257.675 75.5474 257.813 76.4325 258.337 76.9678C258.655 77.2911 259.196 77.6515 259.625 77.7999C262.026 78.6373 268.095 77.625 270.681 76.9201C273.808 76.0615 276.437 74.1482 279.627 73.8143C279.013 78.2928 283.014 78.367 286.374 78.049C288.828 77.8158 290.45 76.9519 290.508 74.2118C290.572 70.9788 289.178 66.7812 289.189 63.5853C289.189 62.7055 289.973 61.7886 289.925 61.5342C289.867 61.2109 288.213 59.552 288.362 58.7146C286.226 60.1827 287.455 61.3752 287.763 63.156C288.425 66.9932 288.674 70.9152 289.337 74.7524C289.183 75.77 283.915 75.77 282.961 75.6375C281.859 75.4891 280.406 74.9114 280.687 73.544L282.007 73.6924C282.235 73.1942 283.48 71.6996 282.632 71.4611C281.779 71.2226 280.29 71.5141 279.262 71.3869C275.472 70.9311 268.413 66.8289 267.973 73.0087C269.033 72.8179 269.881 71.9646 271.01 71.9487C272.234 71.9328 273.861 72.6589 275.117 72.749C274.153 73.6977 272.091 74.233 270.729 74.5828C268.37 75.1817 261.263 76.3371 259.302 75.1923C258.894 74.9538 258.772 74.7524 258.528 74.3761C257.166 72.2932 256.864 63.4952 256.318 60.4318C256.238 60.0025 256.456 59.5679 255.92 59.2446C255.454 59.7481 255.004 60.5325 254.977 61.2321C254.866 64.0729 256.159 68.4931 256.318 71.5618C256.397 73.1041 256.694 74.3973 255.178 75.187L255.184 75.1976ZM246.259 75.0121C246.497 74.021 248.739 74.4397 248.638 75.6693C248.198 75.664 246.041 75.9237 246.259 75.0121Z" fill="#20261E"/>
<path d="M243.529 135.856C245.458 134.902 248.071 133.148 247.578 130.646C247.207 128.786 242.559 129.735 241.881 128.389C241.218 127.074 243.609 125.118 244.663 125.595C245.315 125.892 246.354 127.53 247.499 128.076C248.739 128.669 250.583 128.818 251.935 128.627C254.018 128.33 253.037 128.118 255.422 128.362C257.765 128.6 258.968 127.132 259.371 127.132C259.726 127.132 261.289 128.627 262.8 128.383C263.717 128.235 263.818 127.201 264.533 126.793C264.544 127.191 264.772 127.477 265.074 127.715C269.24 131.001 278.276 125.802 282.744 125.272C285.092 124.996 286.798 126.518 287.312 123.083C284.334 123.263 281.382 122.723 278.573 121.753C280.12 118.679 278.011 115.191 278.037 112.345C278.048 111.476 278.875 110.888 278.811 110.538C278.79 110.427 277.773 108.906 277.566 108.593C276.654 107.167 276.129 108.959 275.923 109.95C276.575 111.169 278.191 120.295 277.778 120.698C275.191 121.191 270.898 120.004 270.628 123.608C272.722 123.12 275.902 123.385 277.937 124.111C278.218 124.212 278.7 124.26 278.302 124.668C278.117 124.859 273.988 125.871 273.373 125.966C271.757 126.205 267.072 126.698 265.943 125.648C265.233 124.991 265.545 123.989 264.931 123.353C263.563 125.913 263.78 127.122 260.563 125.452C261.83 121.398 259.901 125.081 258.804 125.696C257.966 126.162 256.742 126.29 255.799 126.258L256.196 123.613C254.781 125.919 252.709 126.459 250.096 126.268C246.9 126.041 247.403 124.228 245.941 123.544C243.63 122.458 240.869 125.41 240.508 127.519C239.777 131.77 243.407 130.917 246.269 131.833C242.686 135.687 231.037 137.107 232.298 129.109C232.442 128.208 233.184 127.164 233.295 126.39C233.369 125.876 233.194 125.972 232.77 125.998C227.603 135.119 234.927 140.096 243.54 135.851L243.529 135.856Z" fill="#20261E"/>
<path d="M160.208 72.8814C160.107 69.9929 158.84 65.9596 158.92 63.3467C158.941 62.6047 159.688 61.8309 159.635 61.5394C159.577 61.2161 157.923 59.5572 158.072 58.7198C156.174 60.3151 157.187 61.1472 157.473 62.8962C158.12 66.8606 158.581 70.8833 159.015 74.8742C157.669 76.284 155.024 75.7964 153.593 74.7258C152.835 74.1587 151.993 72.5369 151.06 72.5051C149.899 72.468 148.357 75.3724 146.555 75.6745C145.352 75.8759 143.714 75.5314 142.453 75.6745C142.887 74.5297 143.688 73.6446 143.688 72.3143C143.688 70.5971 141.403 69.4417 139.898 69.3357C137.672 69.1767 134.874 71.8479 133.443 73.4167C133.119 73.7665 132.07 75.4042 131.948 75.4254C130.941 75.6374 129.017 73.9096 129.213 72.7595C128.71 72.2984 127.91 74.3707 127.629 74.6781C126.611 75.7911 124.899 75.7169 123.511 75.6904L123.161 75.6374C122.445 72.0599 119.551 70.6607 118.083 74.7311C117.06 77.5666 119.392 78.3298 121.804 78.0595C120.834 82.7659 116.212 84.658 111.739 84.4142V85.2092C118.211 86.7833 121.947 84.8647 123.113 78.1761C125.085 78.0489 127.168 78.0754 128.296 76.2045L130.544 77.5401L130.284 79.1142C131.402 79.358 130.92 78.6902 131.323 78.1708C131.805 77.556 132.372 78.0648 133.051 78.0648C135.992 78.0807 145.034 78.5365 147.149 77.5772C147.567 77.3864 147.806 76.9889 148.193 76.7557C149.443 77.4818 151.171 78.6266 152.682 78.5683C153.344 78.5418 153.36 77.6302 153.705 77.5772C153.811 77.5613 155.125 78.033 155.825 78.0648C159.651 78.245 160.34 76.4006 160.213 72.8761L160.208 72.8814ZM119.154 75.277C119.954 74.1269 120.717 74.6781 121.269 75.6692C120.972 75.5526 118.862 76.0137 119.154 75.277ZM133.188 75.6692C135.383 72.8655 139.289 69.5477 142.177 73.4273C139.686 75.4042 136.294 75.8388 133.188 75.6692ZM149.613 74.747C150.943 73.1146 151.245 74.9378 151.993 75.9342C151.76 76.1197 149.618 75.118 149.613 74.747Z" fill="#20261E"/>
<path d="M308.222 21.3706C306.865 22.3352 307.21 23.6867 307.427 25.0753L304.751 24.1584L304.777 22.1603C303.235 24.0259 302.334 25.7378 299.488 25.335L300.283 22.6903C299.27 22.4306 299.17 23.6602 298.603 24.1849C296.684 25.9551 290.419 26.1936 291.013 22.4253C290.022 22.7592 289.927 23.9835 288.882 24.6619C287.25 25.7219 282.39 25.9286 282.544 23.2203L283.863 23.3687C284.091 22.8705 285.337 21.3759 284.489 21.1374C283.635 20.8989 282.146 21.1904 281.118 21.0632C277.339 20.6074 270.269 16.5052 269.829 22.685C270.889 22.4942 271.737 21.6409 272.866 21.625C274.09 21.6091 275.717 22.3352 276.973 22.4253C277.477 22.9129 272.172 24.3598 271.726 24.4552C269.914 24.8527 262.526 25.9021 261.259 25.0912C260.893 24.8527 260.464 23.2998 259.891 22.9553C258.079 25.0806 260.072 26.7925 260.432 29.0291C260.782 31.1915 260.543 31.7533 258.619 32.808C256.383 34.0323 252.132 34.7001 250.267 32.5801C248.602 30.6933 249.615 28.7058 250.171 26.7395C250.283 26.3473 250.378 26.0293 249.832 26.1353C245.836 31.9865 249.042 37.8218 256.33 36.0781C260.48 35.087 262.499 31.9017 261.614 27.7253C266.13 27.8896 270.672 27.3543 274.922 25.8067C277.085 25.0223 279.099 23.4959 281.473 23.4853C280.365 28.5574 288.14 29.1086 289.953 25.6053C291.294 27.5557 293.281 27.9903 295.571 27.6564C297.691 27.349 296.838 27.2059 299.106 27.4391C301.687 27.7041 302.069 26.4162 303.367 26.1883C304.062 26.0664 305.307 27.6352 306.971 27.137C308.636 26.6388 308.779 22.7274 308.217 21.3653L308.222 21.3706Z" fill="#20261E"/>
<path d="M195.941 140.965C195.549 140.34 195.353 140.732 194.945 140.753C190.694 140.944 184.562 141.718 181.371 138.331C176.506 133.164 180.799 125.012 187.207 124.148C185.898 129.501 194.86 130.148 196.747 126.533C198.019 128.42 200.154 128.982 202.375 128.59C202.974 128.484 203.653 127.959 204.066 127.927C204.781 127.869 205.794 128.553 207.177 128.367C208.12 128.24 209.445 127.143 209.583 127.143C209.938 127.143 211.502 128.637 213.012 128.394C213.929 128.245 214.03 127.212 214.745 126.804C215.445 128.945 219.696 129.067 221.301 128.192C224.163 126.629 221.381 119.044 218.858 117.794C218.265 117.704 218.514 118.016 218.392 118.382C217.411 121.297 218.514 120.412 219.902 122.05C220.231 122.436 221.561 124.996 221.604 125.399C221.72 126.581 217.284 126.512 216.272 125.754C215.434 125.124 215.774 124.042 215.148 123.369C213.781 125.924 214.003 127.143 210.781 125.468L211.173 123.624C210.23 123.936 210.018 125.071 209.18 125.601C208.301 126.162 207.039 126.311 206.016 126.274L206.541 123.624C205.9 123.883 205.709 124.657 205.232 125.092C203.287 126.857 197.393 127.122 197.669 123.353C196.651 124.164 196.503 125.272 195.157 125.876C193.636 126.555 188.055 126.825 188.256 124.286C188.346 123.141 190.153 123.952 190.853 123.29C191.187 122.972 191.314 121.959 191.611 121.525C191.765 120.597 190.434 121.228 189.989 121.239C188.956 121.26 187.827 121.302 186.804 121.249C183.316 121.069 178.663 118.764 178.213 124.148C179.124 123.878 179.4 123.269 180.486 123.115C181.514 122.972 182.749 123.057 183.772 123.221C176.516 127.758 175.144 140.61 185.044 142.879C188.51 143.674 191.706 142.815 194.955 141.559C195.331 141.41 195.697 141.331 195.952 140.971L195.941 140.965Z" fill="#20261E"/>
<path d="M68.6881 128.362C69.6315 128.234 70.9565 127.137 71.0943 127.137C71.2003 127.137 72.3928 127.969 72.9334 128.134C74.8043 128.696 75.1064 128.34 76.124 126.798C77.8571 129.395 82.7755 129.644 83.5546 126.019C84.339 122.357 82.2879 117.444 82.3939 113.946C82.4151 113.204 83.1624 112.43 83.1094 112.138C83.0511 111.815 81.3975 110.156 81.5512 109.319C79.6538 110.914 80.6661 111.746 80.9523 113.495C81.583 117.359 81.954 121.27 82.5476 125.139C82.5264 126.666 78.9489 126.454 77.9207 125.818C76.919 125.198 77.3112 124.138 76.654 123.358C75.2866 125.924 75.4986 127.127 72.2868 125.457L72.679 123.613C71.6296 124.047 71.4441 125.261 70.3523 125.791C69.5467 126.183 68.4125 126.289 67.5168 126.263L68.0415 123.613C66.3879 125.775 64.6177 126.544 61.8511 126.231C58.9573 125.902 58.4273 123.088 56.7949 123.062C55.3586 123.035 55.0671 124.365 54.288 125.081C52.4966 126.724 48.7654 126.125 46.4917 126.279C45.8769 123.555 43.741 121.011 41.7747 124.482C39.9727 127.667 42.2146 128.934 45.2674 128.775C44.5572 130.778 42.3153 133.842 40.1052 134.208C38.6795 134.446 36.7026 134.033 35.208 134.208C35.2557 135.236 37.0153 135.49 37.8474 135.676C43.5767 136.942 45.1932 133.651 46.3592 128.674C49.3007 128.717 51.903 128.839 54.394 127.042C54.9346 128.25 58.3213 129.676 59.3071 129.045C59.5721 128.876 59.641 128.245 59.9908 128.155C60.1869 128.107 61.8988 128.653 62.6143 128.664C64.0771 128.69 64.7714 127.985 65.5717 127.922C66.2872 127.863 67.2995 128.547 68.6828 128.362H68.6881ZM42.7605 126.268C42.363 126.22 42.6863 125.092 43.2958 125.187C43.9318 125.134 44.4724 125.728 44.748 126.263H42.7658L42.7605 126.268ZM57.9821 126.528C57.415 126.491 55.2791 125.823 55.719 124.938C56.4981 123.374 58.1729 126.348 57.9821 126.528Z" fill="#20261E"/>
<path d="M176.75 27.7307C177.906 27.6353 179.459 26.411 179.618 26.4375C180.238 26.5329 182.601 28.69 184.128 28.2289C184.541 28.107 184.637 27.3014 184.949 27.2537C185.045 27.2378 186.205 27.6989 186.804 27.736C188.214 27.8314 189.629 27.6247 191.013 27.418C192.836 27.1477 200.028 25.5471 201.332 24.7574C201.74 24.5083 203.112 22.5261 202.837 22.1604C200.987 22.648 196.408 24.5613 194.797 23.7186C193.875 23.2363 191.882 20.9785 191.972 19.9344C194.484 18.0476 197.357 18.1907 200.192 19.2454C200.6 18.8744 198.708 17.2367 198.311 17.0247C192.868 14.0726 187.833 20.846 192.247 25.0754C189.656 25.0436 187.138 26.1089 184.849 24.397C184.091 23.8299 183.248 22.2081 182.315 22.1763C181.176 22.1392 179.792 24.8369 177.959 25.2238C175.955 25.6478 173.894 25.4729 173.247 23.284C172.457 20.6128 172.5 16.1025 172.033 13.108C171.827 11.7936 171.53 10.4951 171.318 9.18597C169.426 11.0993 170.963 14.7245 171.286 17.3003C171.779 21.2435 171.016 28.213 176.745 27.7307H176.75ZM183.237 25.6054C183.004 25.7909 180.863 24.7892 180.858 24.4182C182.188 22.7858 182.49 24.609 183.237 25.6054Z" fill="#20261E"/>
<path d="M178.44 162.727C178.382 162.404 176.728 160.745 176.877 159.907C174.741 161.375 175.97 162.568 176.278 164.349C176.945 168.223 177.242 172.193 177.815 176.078C177.274 177.042 170.935 177.307 169.992 175.924C173.988 171.626 167.029 169.696 164.554 172.341C164.061 172.866 162.879 174.949 163.971 174.943C164.734 174.943 166.07 174.302 166.287 175.791C163.632 177.042 160.42 177.662 158.21 175.272C157.171 176.698 157.373 178.07 159.09 178.759L159.164 179.104C158.475 181.955 156.339 183.816 153.647 184.743L148.818 185.734C154.182 188.564 159.964 185.315 160.203 179.247C163.187 179.538 165.641 178.95 168.015 177.116C170.199 179.046 172.223 179.528 175.133 179.215C177.057 179.003 178.323 178.563 178.822 176.549C179.548 173.618 177.693 167.995 177.703 164.778C177.703 163.898 178.488 162.981 178.44 162.727Z" fill="#20261E"/>
<path d="M118.094 27.7305C117.124 32.4369 112.502 34.329 108.029 34.0852V34.8802C114.501 36.4543 118.237 34.5357 119.403 27.8471C121.82 27.6086 126.304 28.0061 127.894 25.743C129.839 22.9817 127.395 18.7046 125.503 16.4786L121.804 13.0336C121.915 12.5301 129.346 8.96323 130.443 8.42794C132.51 7.41564 134.588 7.51634 134.773 4.68614C134.354 4.28864 125.344 8.78834 124.268 9.40843C122.117 10.6486 118.968 12.8322 120.627 15.7896C121.327 17.0404 122.339 16.4309 122.991 16.8443C124.242 17.6446 128.408 22.8174 127.39 24.1636C125.127 25.7006 122.191 25.266 119.589 25.3561C118.672 22.1072 116.122 20.0879 114.453 24.2219C113.266 27.1528 115.529 28.0114 118.089 27.7305H118.094ZM115.449 24.9533C116.25 23.8032 117.013 24.3544 117.564 25.3455C117.267 25.2289 115.158 25.69 115.449 24.9533Z" fill="#20261E"/>
<path d="M44.0533 32.1986C44.8589 30.7464 44.896 29.0451 45.7069 27.7572C47.2121 27.7943 48.5954 27.6565 49.9575 26.9781C50.5458 26.6866 51.5899 25.6478 52.0139 25.6266C53.3283 25.5471 55.8246 27.0629 57.4623 26.2732C58.623 25.7114 58.7502 22.7805 58.3209 21.7046C57.7697 20.3372 51.68 15.6255 50.6041 16.3622C49.9575 17.3374 50.5829 18.5405 50.5034 19.3514C50.3815 20.6287 48.3145 22.7805 49.4063 24.8316C48.2668 25.5471 46.857 25.3722 45.585 25.3086C44.8748 21.9219 42.193 20.2418 40.5871 24.2221C39.3999 27.153 41.663 28.0116 44.2229 27.7307C43.253 32.4371 38.6314 34.3292 34.1582 34.0854V34.8804C38.0272 35.4369 41.822 36.2372 44.0586 32.2039L44.0533 32.1986ZM54.9342 21.111C55.0932 21.1799 56.609 22.4678 56.7998 22.6904C58.6972 24.9111 55.6656 24.2592 54.277 23.7557C54.5314 23.0932 54.4837 22.4519 54.5526 21.7735C54.5738 21.5403 54.3777 20.8725 54.9395 21.111H54.9342ZM52.0245 20.4008C53.3866 20.4008 54.5897 23.8829 51.2931 23.1727C49.1996 22.7222 51.1447 20.4061 52.0245 20.4008ZM41.5676 24.9535C42.3679 23.8034 43.1311 24.3546 43.6823 25.3457C43.3855 25.2291 41.2761 25.6902 41.5676 24.9535Z" fill="#20261E"/>
<path d="M50.3918 162.865C49.353 162.271 48.4255 161.805 47.4609 161.222C47.0263 160.962 46.0193 160.777 45.8709 160.628C45.4204 160.183 45.7702 158.863 43.9364 159.489C43.0566 159.786 43.3322 160.379 43.0884 160.628C43.0036 160.713 41.4136 161.837 41.2334 161.953C40.9048 162.165 39.6275 162.298 38.9067 162.674C33.0502 165.743 32.7905 177.164 37.163 181.531C37.8573 182.226 41.0267 184.075 42.0072 184.499C43.205 185.019 44.053 185.226 45.3886 185.045C46.5228 184.892 51.0914 182.332 51.9076 181.505C56.1423 177.207 55.978 166.045 50.3971 162.865H50.3918ZM42.0973 161.497L43.947 162.027C43.0407 159.218 45.961 159.303 45.0123 162.027C45.6483 161.508 46.6447 161.063 47.127 162.027C45.9557 162.07 45.0918 162.531 44.6148 163.617C43.9947 162.626 43.6449 162.547 42.6803 162.102C42.304 161.927 41.9542 162.261 42.1026 161.503L42.0973 161.497ZM39.2088 163.246C40.9949 162.33 43.5654 162.065 43.9576 164.534C43.5442 165.684 42.6167 166.22 41.8376 165.075L42.8923 164.407C43.7615 163.146 38.1011 163.31 38.1276 165.467C38.9173 165.377 39.8501 164.778 40.5073 165.6C39.3254 166.188 38.223 166.421 37.0941 167.211C36.368 167.72 35.9387 168.329 35.2232 168.78C35.9599 166.644 37.0994 164.328 39.2141 163.241L39.2088 163.246ZM35.2126 176.332L37.2425 178.404L40.5073 179.512C40.5073 180.705 38.7636 180.297 38.1276 179.777C37.4227 180.63 42.6326 183.508 42.8923 180.837L41.8323 180.175C44.6148 178.654 44.7208 182.528 41.8482 182.835C38.5304 183.19 35.838 179.215 35.2179 176.332H35.2126ZM41.8323 183.614C42.675 183.111 44.0583 183.137 44.2173 181.897H44.7367L45.272 182.819L47.3867 183.747C45.5264 184.531 43.5919 184.881 41.827 183.614H41.8323ZM45.0017 180.71C45.0971 179.719 46.5334 179.385 47.127 180.175L46.067 180.837C46.3797 183.408 51.7168 180.752 50.8317 179.777L49.3901 180.323L48.717 179.517L51.7168 178.41L53.7467 176.337C53.6407 180.127 47.021 186.153 45.007 180.715L45.0017 180.71ZM47.9273 178.987C47.7153 179.979 48.1499 180.408 48.7117 181.097L47.3867 181.362C48.5315 179.019 45.7119 177.991 44.6042 180.042H44.2173C43.4965 177.949 40.4543 179.252 41.562 181.362L40.237 181.097L41.1804 179.237C32.8011 177.779 32.8912 167.402 41.297 166.262C41.1698 165.563 40.926 164.81 40.237 164.545L41.562 164.147C40.5444 166.808 43.3746 166.956 44.7367 165.202C45.4045 167.428 48.5633 166.384 47.392 164.147C50.0685 164.073 47.2542 165.213 48.0333 166.283C48.1446 166.437 50.8158 167.168 51.6108 167.741C56.3596 171.149 53.7732 178.86 47.9273 178.987ZM48.717 165.997V165.207L50.837 165.472C50.4501 163.702 47.0051 162.748 46.0723 164.407C49.1728 165.907 44.2385 166.331 45.2031 163.962C46.9574 159.664 53.9375 165.69 53.7467 168.912C52.5118 167.407 50.7734 166.066 48.717 165.997Z" fill="#20261E"/>
<path d="M74.3115 32.9883C75.5093 33.5077 76.3573 33.7144 77.6929 33.5342C78.8271 33.3805 83.3957 30.8206 84.2119 29.9938C88.4466 25.6955 88.2823 14.5337 82.7014 11.3537C81.6626 10.7601 80.7351 10.2937 79.7705 9.71066C79.3359 9.45096 78.3289 9.26546 78.1805 9.11706C77.73 8.67186 78.0798 7.35216 76.246 7.97756C75.3662 8.27436 75.6471 8.86796 75.398 9.11706C75.3132 9.20186 73.7232 10.3255 73.543 10.4421C73.2144 10.6541 71.9371 10.7866 71.2163 11.1629C65.3598 14.2316 65.1001 25.6531 69.4726 30.0203C70.1669 30.7146 73.3363 32.5643 74.3168 32.9883H74.3115ZM74.1419 32.0979C74.9846 31.5944 76.3679 31.6209 76.5269 30.3807H77.0463L77.5816 31.3029L79.6963 32.2304C77.836 33.0148 75.9015 33.3646 74.1366 32.0979H74.1419ZM77.3113 29.1988C77.4067 28.2077 78.843 27.8738 79.4366 28.6635L78.3766 29.326C78.6893 31.8965 84.0264 29.2412 83.1413 28.266L81.6997 28.8119L81.0266 28.0063L84.0264 26.8986L86.0563 24.8263C85.9503 28.6158 79.3306 34.6419 77.3166 29.2041L77.3113 29.1988ZM86.051 17.3957C84.8161 15.8905 83.0777 14.5496 81.0213 14.4807V13.691L83.1413 13.956C82.7544 12.1858 79.3147 11.2318 78.3766 12.8907C81.4771 14.3906 76.5428 14.8146 77.5074 12.4455C79.2617 8.14716 86.2418 14.1733 86.051 17.3957ZM74.4069 9.98096L76.2566 10.511C75.3503 7.70196 78.2706 7.78676 77.3219 10.511C77.9579 9.99156 78.9543 9.54636 79.4366 10.511C78.2653 10.5534 77.4014 11.0145 76.9244 12.101C76.3043 11.1099 75.9545 11.0304 74.9899 10.5852C74.6136 10.4103 74.2638 10.7442 74.4122 9.98626L74.4069 9.98096ZM71.5184 11.73C73.3045 10.8131 75.875 10.5481 76.2672 13.0179C75.8538 14.168 74.9263 14.7033 74.1472 13.5585L75.2019 12.8907C76.0711 11.6293 70.4107 11.7936 70.4372 13.9507C71.2269 13.8606 72.1597 13.2617 72.8169 14.0832C71.635 14.6715 70.5326 14.9047 69.4037 15.6944C68.6776 16.2032 68.2483 16.8127 67.5328 17.2632C68.2695 15.1273 69.409 12.8112 71.5237 11.7247L71.5184 11.73ZM73.6066 14.7457C73.4794 14.0461 73.2356 13.2935 72.5466 13.0285L73.8716 12.631C72.854 15.2916 75.6842 15.44 77.0463 13.6857C77.7141 15.9117 80.8729 14.8676 79.7016 12.631C82.3781 12.5568 79.5691 13.6963 80.3429 14.7669C80.4542 14.9206 83.1254 15.652 83.9204 16.2244C88.6692 19.6323 86.0828 27.3438 80.2369 27.471C80.0249 28.4621 80.4595 28.8914 81.0213 29.5804L79.6963 29.8454C80.8411 27.5028 78.0215 26.4746 76.9138 28.5257H76.5269C75.8061 26.4322 72.7639 27.736 73.8716 29.8454L72.5466 29.5804L73.49 27.7201C65.1107 26.2626 65.2008 15.8852 73.6066 14.7457ZM69.5468 26.888L72.8116 27.9957C72.8116 29.1882 71.0679 28.7801 70.4319 28.2607C69.7217 29.114 74.9369 31.9919 75.1966 29.3207L74.1366 28.6582C76.9191 27.1371 77.0251 31.0114 74.1525 31.3188C70.8347 31.6739 68.1423 27.6989 67.5222 24.8157L69.5521 26.888H69.5468Z" fill="#20261E"/>
<path d="M213.955 177.79C215.116 177.228 215.243 174.297 214.814 173.221C214.263 171.854 208.173 167.142 207.097 167.879C206.45 168.854 207.07 170.057 206.996 170.868C206.874 172.145 204.807 174.297 205.899 176.348C204.844 177.016 203.53 176.91 202.343 176.825C201.633 173.438 198.951 171.758 197.345 175.738C196.158 178.669 198.421 179.528 200.981 179.247C200.011 183.953 195.389 185.846 190.916 185.602V186.397C194.785 186.953 198.58 187.754 200.816 183.72C201.622 182.268 201.659 180.567 202.47 179.279C203.784 179.321 204.876 179.168 206.085 178.659C206.795 178.357 208.146 177.169 208.512 177.148C209.826 177.069 212.323 178.585 213.96 177.795L213.955 177.79ZM198.331 176.465C199.131 175.314 199.894 175.866 200.445 176.857C200.149 176.74 198.039 177.201 198.331 176.465ZM207.791 174.684C205.698 174.233 207.643 171.917 208.523 171.912C209.885 171.912 211.088 175.394 207.791 174.684ZM211.432 172.622C211.591 172.691 213.107 173.979 213.298 174.201C215.195 176.422 212.164 175.77 210.775 175.267C211.03 174.604 210.982 173.963 211.051 173.285C211.077 173.051 210.876 172.384 211.438 172.622H211.432Z" fill="#20261E"/>
<path d="M225.864 25.0807C226.432 27.736 231 28.8013 232.606 26.6548C235.108 23.3105 231.127 17.5335 231.164 13.691C230.2 13.6804 229.824 15.44 229.834 16.1926C229.861 17.6554 232.267 24.3175 231.938 24.7892C225.796 26.3421 226.225 19.786 225.52 15.758C225.456 15.3976 225.324 13.6804 224.942 13.691C223.087 16.1396 224.688 19.2772 224.804 22.0332C224.884 23.8458 224.773 24.4818 223.018 25.2715C220.586 26.3686 219.038 25.4782 218.715 22.8229C218.513 21.1481 218.715 18.7684 218.715 16.9929C218.715 16.9028 218.365 16.6007 218.444 16.3304C217.374 17.189 217.035 18.6677 217.082 19.998C215.068 20.5015 211.501 22.9183 211.57 25.2238C211.613 26.6654 217.008 26.6071 217.257 24.5454C217.75 24.7574 217.612 27.9109 220.231 28.4568C222.663 28.9656 224.587 27.4657 225.319 25.2397L225.864 25.0754V25.0807ZM213.69 23.4854C213.791 22.6003 217.088 21.3124 217.395 21.6357C217.824 24.0419 215.259 23.443 213.69 23.4854Z" fill="#20261E"/>
<path d="M13.7439 25.245L14.2898 25.0807C14.8569 27.736 19.4255 28.8013 21.0314 26.6548C23.533 23.3105 19.5527 17.5335 19.5898 13.691C18.6252 13.6804 18.2489 15.44 18.2595 16.1926C18.286 17.6554 20.6922 24.3175 20.3636 24.7892C14.2209 26.3421 14.6502 19.786 13.9453 15.758C13.8817 15.3976 13.7492 13.6804 13.3676 13.691C11.5126 16.1396 13.1132 19.2772 13.2298 22.0332C13.3093 23.8458 13.198 24.4818 11.4437 25.2715C9.01098 26.3686 7.46338 25.4782 7.14008 22.8229C6.93868 21.1481 7.14008 18.7684 7.14008 16.9929C7.14008 16.9028 6.79028 16.6007 6.86978 16.3304C5.79918 17.189 5.45998 18.6677 5.50768 19.998C3.49898 20.5121 -0.0679163 22.9236 0.000983728 25.2291C0.0433837 26.6707 5.43878 26.6124 5.68788 24.5507C6.18078 24.7627 6.04298 27.9162 8.66118 28.4621C11.0939 28.9709 13.0178 27.471 13.7492 25.245H13.7439ZM2.11568 23.4854C2.21638 22.6003 5.51298 21.3124 5.82038 21.6357C6.24968 24.0419 3.68448 23.443 2.11568 23.4854Z" fill="#20261E"/>
<path d="M258.147 174.578C258.661 173.407 258.995 172.182 258.089 171.117C257.384 170.285 255.179 169.622 254.103 169.718C251.602 169.946 248.188 173.942 246.62 175.818C245.141 175.786 244.966 174.218 244.007 173.417C241.521 176.194 246.768 179.549 243.964 182.115C241.728 184.16 236.343 185.48 234.34 182.554C232.728 180.207 234.223 178.675 234.212 176.327C229.437 182.978 234.557 189.27 242.205 185.644C245.311 184.171 246.206 181.489 246 178.182C249.646 178.908 256.435 178.5 258.147 174.578ZM255.275 172.214C255.571 172.304 257.066 173.332 257.114 173.555C257.278 174.292 254.283 175.299 253.727 175.463C251.861 176.004 250.054 176.184 248.109 176.067C249.884 174 252.169 171.292 255.269 172.219L255.275 172.214Z" fill="#20261E"/>
<path d="M52.2794 77.5243C54.2139 77.1639 54.304 73.1147 53.7422 71.6996C52.3801 72.6642 52.7299 74.0157 52.9472 75.4043L50.2707 74.4874L50.2972 72.4893C48.7602 74.3549 47.8592 76.0668 45.0078 75.664L45.8028 73.0193C44.7905 72.7596 44.6898 73.9892 44.1227 74.5139C42.3843 76.1145 38.669 76.1039 36.8193 74.7206C36.0614 74.1535 35.2187 72.5317 34.2859 72.4999C33.1729 72.4628 31.7843 75.0545 30.1307 75.4838C28.1167 76.0085 25.8854 75.8654 25.2176 73.6076C24.4279 70.9311 24.4756 66.4314 24.0039 63.4316C23.7972 62.1172 23.5004 60.8187 23.2884 59.5096C21.3963 61.4229 22.9333 65.0481 23.2566 67.6239C23.7495 71.5671 22.9863 78.5366 28.7156 78.0543C29.871 77.9589 31.4239 76.7346 31.5829 76.7611C32.1341 76.8459 35.0438 79.268 36.2628 78.4624C36.5172 78.2928 36.6232 77.625 36.92 77.5773C37.0154 77.5614 38.1708 78.0225 38.775 78.0596C40.8367 78.1868 41.7218 77.4342 43.068 77.3229C43.6987 77.2699 44.7216 77.89 45.9353 77.784C47.2974 77.6674 48.2779 76.618 48.898 76.512C49.5181 76.4007 50.753 77.7999 52.2847 77.5137L52.2794 77.5243ZM32.8337 74.7471C34.164 73.1147 34.4661 74.9379 35.2134 75.9343C34.9802 76.1198 32.839 75.1181 32.8337 74.7471Z" fill="#20261E"/>
<path d="M131.175 33.7936C130.682 33.8731 128.414 33.624 128.43 34.2176C134.89 37.3923 139.003 32.9297 139.544 26.5962L143.9 25.3242C144.409 28.1279 148.262 28.5731 149.746 26.3948C151.808 27.6721 153.425 28.1862 154.903 25.8754C155.433 28.0802 159.61 28.1279 161.194 27.264C163.076 26.2358 162.297 22.4728 161.655 20.851C161.38 20.1514 159.228 16.134 158.354 16.8707C157.182 20.1355 158.433 19.4571 159.896 21.2856C160.299 21.7838 161.269 23.6812 161.417 24.2854C161.65 25.25 160.219 25.3083 159.557 25.356C158.322 25.4461 156.541 25.4779 155.916 24.2112C155.672 23.7183 155.47 21.5029 154.887 22.8014C153.896 25.0115 154.225 26.3153 151.055 24.5504L151.474 22.6954C150.965 22.5841 150.838 22.9551 150.573 23.2466C149.275 24.6776 148.745 26.0874 146.37 25.5468C144.409 25.1016 145.263 22.7696 144.722 22.6901L138.685 24.3278C138.06 24.6034 137.498 26.6757 138.505 26.787C137.095 30.2055 135.108 33.1364 131.191 33.783L131.175 33.7936Z" fill="#20261E"/>
<path d="M24.7769 185.581C23.2664 183.519 22.1004 181.192 21.4432 178.717L23.0279 178.049L20.9185 175.399C22.0209 174.61 23.6215 177.344 24.3582 176.857C24.655 176.268 24.4854 175.208 24.761 174.742C24.9677 174.387 25.927 174.228 26.0966 173.438C26.2821 172.574 25.079 172.341 24.7716 171.816C24.4271 171.233 24.6232 170.205 23.9607 169.707C23.2823 169.564 21.8248 171.859 20.9185 171.43C21.2683 169.702 24.1992 168.758 21.5015 167.735C21.9891 165.727 22.6039 163.808 23.7222 162.049C24.0826 161.476 26.3987 159.033 25.9482 158.582C22.058 159.679 19.9168 164.306 18.4752 167.788L15.6238 168.382C15.1044 169.145 17.7174 170.555 17.4735 171.557C16.1856 171.557 15.486 170.237 14.426 169.712C13.6681 170.179 13.9755 171.567 13.6999 172.028C13.5091 172.346 12.3272 172.458 12.4279 173.534C12.5074 174.392 13.5409 174.519 13.7794 174.922C14.0285 175.352 14.1504 177.021 14.2935 177.122C15.6927 177.106 16.0902 175.193 17.4682 175.267L15.6185 178.441L18.5282 179.109C20.2878 182.554 22.3919 186.757 26.3404 187.981C26.7538 187.017 25.3122 186.301 24.7769 185.57V185.581ZM21.9732 172.097L23.8229 171.032C23.5685 172.744 23.9607 172.479 25.1426 173.285C24.9306 173.714 24.1356 173.915 23.9554 174.212C23.2823 175.33 24.6232 176.47 21.9732 174.345L22.7894 173.555C22.7947 172.399 21.8089 172.972 21.9732 172.097ZM14.956 175.797C14.2723 174.721 14.8023 173.936 13.2335 173.55C14.2458 172.749 14.8341 172.527 14.5585 171.032L16.4082 172.23V172.611C14.9401 172.945 15.7086 173.936 16.6785 174.339L14.956 175.791V175.797ZM20.3726 174.599C18.7031 176.041 16.5937 173.555 18.0671 172.161C19.5776 170.73 22.058 173.147 20.3726 174.599ZM16.9435 168.647L19.0265 168.61C19.9646 165.806 21.1994 162.965 23.436 160.967C22.0633 163.326 20.9238 165.87 20.6588 168.636H21.4432C21.8036 169.007 20.5528 170.513 19.991 170.502L19.196 169.702L18.5282 170.497H18.0088L16.9435 168.647ZM21.4909 183.037C20.8496 182.098 19.5034 178.738 19.2013 178.436C18.6713 177.901 17.6855 178.494 17.2085 177.779L18.0088 176.327H18.5282L19.196 177.122L20.2507 176.327L21.4432 177.784L20.6482 178.176C21.051 180.906 22.4025 183.222 23.6957 185.586C22.9537 184.823 22.0845 183.9 21.4909 183.026V183.037Z" fill="#20261E"/>
<path d="M112.535 126.257C113.648 123.697 113.807 119.95 111.645 117.883C108.279 114.661 105.327 124.275 110.267 123.353C111.078 123.205 111.184 122.277 111.994 122.293C113.256 125.293 109.594 124.863 108.618 125.802C108.322 126.088 108.104 127.174 107.76 127.588C109.493 127.847 111.449 128.086 113.054 128.796C113.378 128.939 113.701 128.78 113.579 129.31C110.574 132.851 99.2056 134.949 100.144 127.794C100.276 126.777 100.875 125.939 101.082 125.022C101.172 124.625 101.299 124.312 100.737 124.413C95.8295 132.416 101.363 137.128 109.599 134.075C112.827 132.877 118.18 128.202 112.519 126.252L112.535 126.257ZM108.958 120.475C108.666 118.949 110.908 119.696 110.945 120.968C110.267 121.228 109.132 121.392 108.958 120.475Z" fill="#20261E"/>
<path d="M213.829 77.2699C214.534 77.0208 216.071 76.035 216.516 75.9979C217.592 75.9078 220.645 78.2239 222.039 76.9996C224.355 74.9697 221.763 65.6894 222.176 62.573C222.229 62.1649 222.691 61.8416 222.701 61.4971L221.111 58.8471C219.034 59.8859 220.316 61.2798 220.549 62.8592C221.127 66.8236 221.408 70.8728 221.88 74.8531C221.408 75.6375 217.539 73.544 216.781 73.6235C216.161 73.6871 214.189 74.9432 213.113 75.2241C211.502 75.6481 208.195 76.2099 206.96 74.8637C205.868 73.6765 205.715 67.4702 205.455 65.5092C205.185 63.5005 204.777 61.5077 204.427 59.5149C202.535 61.4865 204.077 65.0693 204.395 67.6292C205.227 74.2807 204.363 80.6566 213.834 77.2699H213.829Z" fill="#20261E"/>
<path d="M191.127 76.528C191.631 72.9823 185.652 74.7525 184.423 72.7544C183.543 71.3287 187.714 67.3643 189.654 68.3077C190.438 68.6893 190.518 69.4313 191.18 69.8447C191.732 68.2971 191.721 66.1347 189.702 65.875C186.273 65.4351 180.273 73.507 184.826 75.5422C186.437 76.263 188.631 75.7542 189.861 76.9944C186.421 79.1303 179.277 81.6743 176.505 77.5085C174.962 75.1924 176.102 73.6395 176.786 71.4665C177.204 70.1468 176.054 71.3923 175.726 71.9965C173.537 75.9768 174.464 81.4623 179.663 82.0347C182.939 82.3951 190.592 80.3387 191.133 76.5333L191.127 76.528Z" fill="#20261E"/>
<path d="M277.069 160.57C278.452 164.211 277.673 168.372 276.973 172.092L270.629 163.48L267.269 160.469C266.214 160.316 266.135 163.618 266.633 164.301C267.396 165.361 268.917 165.049 269.638 165.266C270.263 165.451 272.563 168.472 273.115 169.214C273.629 169.903 275.934 173.147 276.083 173.682C276.326 174.557 274.254 177.011 273.523 177.509C273.184 177.742 272.362 177.822 272.261 177.97C272.002 178.357 271.763 179.894 272.616 180.048C273.146 180.143 277.397 179.671 277.858 179.465C279.772 178.611 277.63 174.578 277.63 173.555C277.63 172.781 278.616 170.237 278.802 169.018C279.077 167.184 278.812 164.476 279.157 163.013C279.279 162.483 279.899 162.065 279.899 161.635C279.899 161.37 278.574 159.192 278.441 158.593L277.079 160.575L277.069 160.57ZM277.508 177.387L275.123 177.652L276.846 175.272C276.984 175.209 277.715 177.064 277.508 177.387Z" fill="#20261E"/>
<path d="M66.2506 61.8202C66.3778 61.2902 66.9926 60.8715 66.9926 60.4422C66.9926 60.1772 65.6676 57.9989 65.5351 57.4L64.173 59.3822C65.5563 63.0233 64.7772 67.1838 64.0776 70.9044L57.7335 62.2919L54.3733 59.2815C53.3186 59.1278 53.2391 62.4297 53.7373 63.1134C54.5005 64.1734 56.0216 63.8607 56.7424 64.078C57.3678 64.2635 59.668 67.2845 60.2192 68.0265C60.7333 68.7155 63.0388 71.9591 63.1872 72.4944C63.431 73.3689 61.3587 75.8228 60.6273 76.321C60.2881 76.5542 59.4666 76.6337 59.3659 76.7821C59.1062 77.169 58.8677 78.706 59.7263 78.8597C60.2563 78.9551 64.5069 78.4834 64.968 78.2767C66.8813 77.4234 64.7401 73.3901 64.7401 72.3672C64.7401 71.5934 65.7259 69.0494 65.9114 67.8304C66.187 65.9966 65.922 63.2883 66.2665 61.8255L66.2506 61.8202ZM64.6076 76.1991L62.2226 76.4641L63.9451 74.0844C64.0829 74.0261 64.8143 75.8758 64.6076 76.1991Z" fill="#20261E"/>
<path d="M94.5244 60.7018L92.8019 57.9299L91.7048 59.9121C93.1252 64.7722 93.4379 69.9344 93.9414 74.9641C93.051 76.3792 90.5123 76.1831 89.4788 75.0224C88.2863 73.6815 88.069 69.0387 87.6291 67.1996C86.532 67.6554 87.1044 69.5316 86.7175 70.1252C86.5903 70.3213 84.3113 71.3177 83.6594 72.0968C82.9916 72.8918 81.6348 75.7326 82.8697 76.3421C84.4756 77.1318 86.7387 76.0453 87.8994 74.8846C88.4294 77.6247 91.5087 79.6281 93.8619 77.5346C97.1585 74.6037 92.6323 64.5178 94.5191 60.7018H94.5244ZM87.38 73.1515C87.1839 74.2168 84.8254 74.4394 83.935 74.079C83.6435 73.6868 85.3607 72.4519 85.6946 72.2664C86.8288 71.6516 87.6927 71.4449 87.38 73.1515Z" fill="#20261E"/>
<path d="M169.197 111.296L167.474 108.524L166.377 110.506C167.797 115.366 168.11 120.528 168.614 125.558C167.723 126.973 165.185 126.777 164.151 125.616C162.959 124.275 162.741 119.633 162.301 117.793C161.204 118.249 161.777 120.125 161.384 120.719C161.257 120.915 158.978 121.912 158.326 122.691C157.664 123.486 156.302 126.326 157.537 126.936C159.143 127.726 161.406 126.639 162.566 125.478C163.096 128.219 166.176 130.222 168.529 128.128C171.825 125.198 167.299 115.112 169.186 111.296H169.197ZM162.058 123.745C161.861 124.811 159.503 125.033 158.613 124.673C158.321 124.281 160.038 123.046 160.372 122.86C161.506 122.245 162.37 122.039 162.058 123.745Z" fill="#20261E"/>
<path d="M133.582 125.77C134.716 126.289 136.523 127.259 137.758 127.016C140.609 126.464 138.871 120.624 136.497 120.194C134.048 120.571 133.433 124.752 131.96 125.701C130.698 126.512 127.269 126.639 126.183 125.457C125.091 124.275 124.937 118.053 124.678 116.103C124.407 114.094 123.999 112.101 123.649 110.109C121.757 112.08 123.3 115.663 123.618 118.223C123.92 120.634 123.877 125.553 125.367 127.334C127.412 129.793 132.442 128.818 133.576 125.77H133.582ZM137.424 124.678C136.422 124.408 135.209 124.36 134.52 123.486C135.749 121.657 137.318 122.876 137.424 124.678Z" fill="#20261E"/>
<path d="M32.7439 118.939C32.6379 118.838 32.0814 118.552 32.039 118.589C30.6557 121.196 32.4842 121.589 33.3269 123.762C33.2633 124.371 27.2637 125.823 26.2991 125.961C23.1032 126.433 15.5878 127.281 16.139 122.156C16.1708 121.848 17.1407 119.829 16.2821 120.179C14.1833 122.378 14.3317 126.2 17.1089 127.821C20.1723 129.607 27.7884 128.272 31.0426 127.005C31.562 126.804 33.6025 125.887 33.8781 125.606C35.2402 124.223 34.0477 120.179 32.7439 118.944V118.939Z" fill="#20261E"/>
<path d="M149.577 173.311C149.413 172.935 148.257 170.926 147.754 171.297C146.551 173.799 148.077 173.952 149.042 175.935C148.973 176.894 143.26 176.984 142.343 176.841C141.463 176.703 140.286 175.919 139.677 175.272C138.638 176.698 138.839 178.07 140.557 178.759L140.631 179.104C139.942 181.955 137.806 183.816 135.113 184.743L130.285 185.734C135.649 188.564 141.431 185.316 141.67 179.247C145.777 179.459 152.137 179.215 149.582 173.316L149.577 173.311Z" fill="#20261E"/>
<path d="M102.602 31.4352C110.202 30.672 110.388 22.2185 106.312 17.4061C104.653 19.5632 106.683 21.2539 107.314 23.2891C108.003 25.5151 108.342 26.4055 106.27 27.6934C102.634 29.9459 96.1997 29.9141 96.9841 24.2272C97.0848 23.4799 98.3833 21.2645 97.1855 21.3758C94.3341 26.6758 95.622 32.1401 102.607 31.4405L102.602 31.4352Z" fill="#20261E"/>
<path d="M292.242 178.102C293.275 178.155 293.593 177.254 294.452 177.122C293.954 180.683 290.111 184.701 286.576 185.268C286.03 185.358 283.587 185.156 283.598 185.729C286.036 187.245 289.518 187.011 291.776 185.178C294.569 182.904 296.795 175.913 294.325 172.871C291.479 169.362 288.452 177.901 292.237 178.102H292.242ZM291.548 175.139L292.507 174.233L293.657 175.139C292.989 175.918 292.221 175.924 291.548 175.139Z" fill="#20261E"/>
<path d="M220.48 178.102C221.514 178.155 221.832 177.254 222.69 177.122C222.192 180.683 218.35 184.701 214.815 185.268C214.269 185.358 211.825 185.156 211.836 185.729C214.274 187.245 217.756 187.011 220.014 185.178C222.807 182.904 225.033 175.913 222.563 172.871C219.717 169.362 216.691 177.901 220.475 178.102H220.48ZM219.786 175.139L220.745 174.233L221.895 175.139C221.233 175.918 220.459 175.924 219.786 175.139Z" fill="#20261E"/>
<path d="M264.925 172.887C264.39 172.659 264.565 173.247 264.496 173.507C263.664 176.629 267.008 177.28 266.186 179.703C264.957 183.333 259.169 185.856 255.528 185.342C254.643 186.11 259.021 186.646 259.371 186.661C265.1 186.937 268.921 180.869 266.844 175.743C266.647 175.261 265.296 173.051 264.925 172.897V172.887Z" fill="#20261E"/>
<path d="M198.066 71.6992C198.013 72.3829 197.468 73.4535 197.648 74.0948C197.87 74.9057 199.762 76.5646 199.858 77.6988C199.921 78.4673 198.157 80.7887 197.542 81.3717C196.397 82.4476 193.901 83.9051 192.348 84.1224C191.749 84.2072 189.327 83.9263 189.332 84.5411C191.298 85.9138 195.454 85.8237 197.404 84.4086C201.231 81.6261 202.296 74.6354 198.072 71.6939L198.066 71.6992Z" fill="#20261E"/>
<path d="M109.095 71.6992C109.042 72.3829 108.496 73.4535 108.676 74.0948C108.899 74.9057 110.791 76.5646 110.886 77.6988C110.95 78.4673 109.185 80.7887 108.57 81.3717C107.425 82.4476 104.929 83.9051 103.376 84.1224C102.777 84.2072 100.355 83.9263 100.36 84.5411C102.327 85.9138 106.482 85.8237 108.432 84.4086C112.259 81.6261 113.324 74.6354 109.1 71.6939L109.095 71.6992Z" fill="#20261E"/>
<path d="M240.699 160.04C240.863 159.939 241.271 159.144 241.229 159.113C238.563 159.134 235.817 159.881 233.151 159.643C232.441 159.579 231.413 159.399 232.309 158.784C232.871 158.402 233.48 158.18 233.946 157.56C234.89 158.524 235.982 158.477 236.596 157.258C238.234 159.261 244.011 156.924 242.05 154.443C240.768 152.821 238.383 155.339 237.651 156.452L236.861 155.668C233.899 159.234 233.936 153.839 233.814 151.693C233.279 151.618 233.379 151.65 233.215 152.021C232.738 153.113 233.692 155.509 233.56 156.796C232.309 157.703 230.629 158.604 231.291 160.438C231.895 160.867 232.69 160.989 233.416 160.978C234.201 160.968 240.386 160.22 240.699 160.029V160.04ZM241.488 155.54C241.658 156.362 239.119 156.775 238.579 156.728C238.414 155.567 241.271 154.491 241.488 155.54Z" fill="#20261E"/>
<path d="M101.823 55.5505C102.549 55.5187 107.52 55.0364 107.769 54.8774C107.928 54.7767 108.342 53.9817 108.299 53.9499C105.204 53.7379 102.093 54.9145 99.0295 54.2096C98.7486 53.9022 100.874 52.4235 101.006 52.4235C101.112 52.4235 101.542 52.8793 102.072 52.9164C103.132 52.9959 103.386 52.185 103.656 52.1585C103.842 52.1426 104.308 52.5666 104.732 52.6037C107.059 52.8263 110.096 52.1214 109.232 49.164C107.133 47.7701 105.898 49.853 104.722 51.2893L103.534 50.4996C103.582 51.3476 102.294 51.8988 101.711 51.5225C101.298 51.2575 100.741 47.2666 100.884 46.5246L100.084 47.1871L100.577 51.3741C97.3759 54.0135 96.867 55.7519 101.823 55.5452V55.5505ZM108.559 50.7699L105.649 51.5649C105.787 50.2134 108.236 49.058 108.559 50.7699Z" fill="#20261E"/>
<path d="M20.2669 74.6199L19.9807 74.0846C17.9932 74.7418 15.5923 75.1287 14.5906 72.8497C14.4634 72.3833 14.5906 72.553 14.8821 72.4311C15.8944 72.0018 16.6735 72.1449 16.9703 73.2526C18.5232 73.5229 18.4861 71.2227 17.6646 70.4436C16.3184 69.1663 12.8628 72.0229 12.9688 73.6606C13.0112 74.3337 14.2143 75.6799 14.0235 75.929C12.8151 76.0138 12.2162 77.2063 12.1738 78.314C13.7108 77.7946 15.1842 77.1428 16.7371 76.6552C18.4914 76.1093 19.7899 76.7082 20.2669 74.6147V74.6199Z" fill="#20261E"/>
<path d="M294.456 59.5148C294.175 60.5695 293.529 61.3539 293.492 62.5146C293.396 65.3607 294.398 69.8657 294.716 72.892C294.875 74.3919 294.801 76.1992 294.981 77.662C295.023 78.033 295.135 78.4305 295.506 78.0542C296.863 73.157 295.474 67.8093 294.981 62.822C294.88 61.7779 295.4 60.1031 294.451 59.5148H294.456Z" fill="#20261E"/>
<path d="M226.931 59.5148C226.65 60.5695 226.003 61.3539 225.966 62.5146C225.871 65.3607 226.873 69.8657 227.191 72.892C227.35 74.3919 227.275 76.1992 227.456 77.662C227.498 78.033 227.609 78.4305 227.98 78.0542C229.337 73.157 227.949 67.8093 227.456 62.822C227.355 61.7779 227.874 60.1031 226.926 59.5148H226.931Z" fill="#20261E"/>
<path d="M26.4788 9.18597C26.1979 10.2407 25.5513 11.0251 25.5142 12.1858C25.4188 15.0319 26.4205 19.5369 26.7385 22.5632C26.8975 24.0631 26.8233 25.8704 27.0035 27.3332C27.0459 27.7042 27.1572 28.1017 27.5282 27.7254C28.885 22.8282 27.4964 17.4805 27.0035 12.4932C26.9028 11.4491 27.4222 9.77427 26.4735 9.18597H26.4788Z" fill="#20261E"/>
<path d="M164.439 59.5148C164.158 60.5695 163.511 61.3539 163.474 62.5146C163.379 65.3607 164.38 69.8657 164.698 72.892C164.857 74.3919 164.783 76.1992 164.963 77.662C165.006 78.033 165.117 78.4305 165.493 78.0542C166.85 73.157 165.462 67.8093 164.969 62.822C164.868 61.7779 165.387 60.1031 164.439 59.5148Z" fill="#20261E"/>
<path d="M71.2268 59.5148C70.9459 60.5695 70.2993 61.3539 70.2622 62.5146C70.1668 65.3607 71.1685 69.8657 71.4865 72.892C71.6455 74.3919 71.5713 76.1992 71.7515 77.662C71.7939 78.033 71.9052 78.4305 72.2815 78.0542C73.6383 73.157 72.2497 67.8093 71.7568 62.822C71.6561 61.7779 72.1755 60.1031 71.2268 59.5148Z" fill="#20261E"/>
<path d="M237.525 9.18597C237.244 10.2407 236.597 11.0251 236.56 12.1858C236.465 15.0319 237.466 19.5369 237.784 22.5632C237.943 24.0631 237.869 25.8704 238.049 27.3332C238.092 27.7042 238.203 28.1017 238.574 27.7254C239.931 22.8282 238.542 17.4805 238.049 12.4932C237.949 11.4491 238.468 9.77427 237.519 9.18597H237.525Z" fill="#20261E"/>
<path d="M88.177 110.109C87.8961 111.163 87.2495 111.948 87.2124 113.108C87.117 115.954 88.1187 120.459 88.4367 123.486C88.5957 124.986 88.5215 126.793 88.7017 128.256C88.7441 128.627 88.8554 129.024 89.2264 128.648C90.5832 123.751 89.1946 118.403 88.7017 113.416C88.601 112.372 89.1204 110.697 88.1717 110.109H88.177Z" fill="#20261E"/>
<path d="M291.011 110.109C290.73 111.163 290.084 111.948 290.046 113.108C289.951 115.954 290.953 120.459 291.271 123.486C291.43 124.986 291.356 126.793 291.536 128.256C291.578 128.627 291.689 129.024 292.06 128.648C293.417 123.751 292.029 118.403 291.536 113.416C291.435 112.372 291.954 110.697 291.006 110.109H291.011Z" fill="#20261E"/>
<path d="M284.651 178.85C284.694 179.221 284.805 179.618 285.176 179.242C286.533 174.345 285.144 168.997 284.651 164.01C284.551 162.965 285.07 161.291 284.121 160.702C283.84 161.757 283.194 162.541 283.157 163.702C283.061 166.548 284.063 171.053 284.381 174.08C284.54 175.579 284.466 177.387 284.646 178.85H284.651Z" fill="#20261E"/>
<path d="M182.976 160.702C182.695 161.757 182.048 162.541 182.011 163.702C181.916 166.548 182.918 171.053 183.236 174.08C183.395 175.579 183.32 177.387 183.501 178.85C183.543 179.221 183.654 179.618 184.025 179.242C185.382 174.345 183.993 168.997 183.501 164.01C183.4 162.965 183.919 161.291 182.971 160.702H182.976Z" fill="#20261E"/>
<path d="M122.6 160.702C122.319 161.757 121.672 162.541 121.635 163.702C121.54 166.548 122.542 171.053 122.86 174.08C123.019 175.579 122.944 177.387 123.125 178.85C123.167 179.221 123.278 179.618 123.649 179.242C125.006 174.345 123.617 168.997 123.125 164.01C123.024 162.965 123.543 161.291 122.595 160.702H122.6Z" fill="#20261E"/>
<path d="M231.839 104.554C229.109 108.1 231.849 111.598 236.126 110.432C236.291 110.389 237.992 109.684 237.526 109.313H233.688C233.381 109.313 232.093 108.593 231.844 108.248C230.837 106.87 231.839 105.503 233.105 104.755C234.404 103.987 236.55 104.363 236.471 102.694C234.77 103.16 231.34 101.3 230.651 103.627C230.397 104.49 232.369 103.483 232.766 103.759C232.708 104.183 232.183 104.125 231.849 104.559L231.839 104.554Z" fill="#20261E"/>
<path d="M146.429 129.183V129.978C149.492 130.476 151.739 130.386 153.192 127.339C153.843 125.977 154.32 123.581 153.043 122.442C150.902 120.528 149.137 126.623 152.619 125.749C152.927 125.669 152.619 125.097 153.054 125.214C152.19 128.134 149.344 129.533 146.434 129.189L146.429 129.183ZM152.121 124.408L151.469 124.01L151.867 123.613L152.518 124.01L152.121 124.408Z" fill="#20261E"/>
<path d="M175.747 68.5831C175.376 69.9505 177.168 68.5619 177.873 68.3181C178.509 68.1008 181.196 67.5231 181.318 67.3959C181.424 67.2899 181.694 66.1822 181.646 66.1398C179.913 66.1663 178.615 66.956 177.411 65.207C177.194 64.6929 178.222 64.5657 178.556 64.571L179.394 65.6045C180.167 65.1858 180.289 63.8767 179.728 63.2884C178.487 62.0005 174.375 65.5568 177.141 67.0673C176.495 67.6026 175.991 67.6874 175.747 68.5884V68.5831Z" fill="#20261E"/>
<path d="M285.018 159.102C286.942 158.922 289.655 156.272 287.97 154.607C286.391 153.044 284.838 157.04 284.207 157.236C283.661 157.406 283.014 156.802 282.532 157.109C282.018 157.957 281.393 158.863 281.478 159.907C283.015 157.74 283.168 159.277 285.018 159.102ZM287.567 156.722L285.188 157.517C285.516 156.388 287.186 154.957 287.567 156.722Z" fill="#20261E"/>
<path d="M183.058 157.231C182.512 157.401 181.865 156.796 181.383 157.104C180.869 157.952 180.243 158.858 180.328 159.902C181.865 157.735 182.019 159.272 183.869 159.097C185.792 158.916 188.506 156.266 186.821 154.602C185.241 153.039 183.688 157.035 183.058 157.231ZM184.033 157.523C184.361 156.394 186.031 154.963 186.412 156.728L184.033 157.523Z" fill="#20261E"/>
<path d="M27.3695 7.58553C29.2934 7.40533 32.007 4.75533 30.3216 3.09113C28.7422 1.52763 27.1893 5.52383 26.5586 5.71993C26.0127 5.88953 25.3661 5.28533 24.8838 5.59273C24.3697 6.44073 23.7443 7.34703 23.8291 8.39113C25.3661 6.22343 25.5198 7.76043 27.3695 7.58553ZM29.9135 5.20583L27.5338 6.00083C27.8624 4.87193 29.5319 3.44093 29.9135 5.20583Z" fill="#20261E"/>
<path d="M92.0188 104.008C90.4394 102.444 88.8865 106.441 88.2558 106.637C87.7099 106.806 87.0633 106.202 86.581 106.51C86.0669 107.358 85.4415 108.264 85.5263 109.308C87.0633 107.14 87.217 108.677 89.0667 108.502C90.9906 108.322 93.7042 105.672 92.0188 104.008ZM91.616 106.128L89.2363 106.923C89.5649 105.794 91.2344 104.363 91.616 106.128Z" fill="#20261E"/>
<path d="M294.856 104.008C293.276 102.444 291.723 106.441 291.093 106.637C290.547 106.806 289.9 106.202 289.418 106.51C288.904 107.358 288.278 108.264 288.363 109.308C289.9 107.14 290.054 108.677 291.904 108.502C293.828 108.322 296.541 105.672 294.856 104.008ZM292.073 106.928C292.402 105.799 294.071 104.368 294.453 106.133L292.073 106.928Z" fill="#20261E"/>
<path d="M122.685 157.231C122.139 157.401 121.492 156.796 121.01 157.104C120.496 157.952 119.87 158.858 119.955 159.902C121.492 157.735 121.646 159.272 123.495 159.097C125.419 158.916 128.133 156.266 126.448 154.602C124.868 153.039 123.315 157.035 122.685 157.231ZM123.654 157.523C123.983 156.394 125.653 154.963 126.034 156.728L123.654 157.523Z" fill="#20261E"/>
<path d="M238.414 7.58553C240.338 7.40533 243.052 4.75533 241.366 3.09113C239.787 1.52763 238.234 5.52383 237.603 5.71993C237.058 5.88953 236.411 5.28533 235.929 5.59273C235.415 6.44073 234.789 7.34703 234.874 8.39113C236.411 6.22343 236.565 7.76043 238.414 7.58553ZM240.958 5.20583L238.579 6.00083C238.907 4.87193 240.577 3.44093 240.958 5.20583Z" fill="#20261E"/>
<path d="M230.778 53.4199C229.198 51.8564 227.645 55.8526 227.015 56.0487C226.469 56.2183 225.822 55.6141 225.34 55.9215C224.826 56.7695 224.2 57.6758 224.285 58.7199C225.822 56.5522 225.976 58.0892 227.826 57.9143C229.749 57.7341 232.463 55.0841 230.778 53.4199ZM227.99 56.3349C228.318 55.206 229.988 53.775 230.37 55.5399L227.99 56.3349Z" fill="#20261E"/>
<path d="M75.0755 53.4199C73.4961 51.8564 71.9432 55.8526 71.3125 56.0487C70.7666 56.2183 70.12 55.6141 69.6377 55.9215C69.1236 56.7695 68.4982 57.6758 68.583 58.7199C70.12 56.5522 70.2737 58.0892 72.1234 57.9143C74.0473 57.7341 76.7609 55.0841 75.0755 53.4199ZM74.6674 55.5346L72.2877 56.3296C72.6163 55.2007 74.2858 53.7697 74.6674 55.5346Z" fill="#20261E"/>
<path d="M294.537 56.0487C293.991 56.2183 293.345 55.6141 292.862 55.9215C292.348 56.7695 291.723 57.6758 291.808 58.7199C293.345 56.5522 293.498 58.0892 295.348 57.9143C297.272 57.7341 299.985 55.0841 298.3 53.4199C296.721 51.8564 295.168 55.8526 294.537 56.0487ZM295.512 56.3349C295.841 55.206 297.51 53.775 297.892 55.5399L295.512 56.3349Z" fill="#20261E"/>
<path d="M161.788 58.7199C163.325 56.5522 163.479 58.0892 165.328 57.9143C167.252 57.7341 169.966 55.0841 168.281 53.4199C166.701 51.8564 165.148 55.8526 164.518 56.0487C163.972 56.2183 163.325 55.6141 162.843 55.9215C162.329 56.7695 161.703 57.6758 161.788 58.7199ZM167.878 55.5346L165.498 56.3296C165.827 55.2007 167.496 53.7697 167.878 55.5346Z" fill="#20261E"/>
<path d="M52.6779 57.0504C52.4341 57.4426 52.4129 57.9991 52.4288 58.4549C54.04 57.5751 55.8367 56.9762 57.6811 56.8225L57.9885 55.5399C56.3137 55.577 55.1795 56.2766 54.0241 54.6124C54.6654 53.7538 55.5346 54.3686 56.0063 55.0046C56.6211 54.623 56.7695 53.457 56.3349 52.9588C55.3067 51.7716 52.8793 53.8757 52.7468 55.1C54.0453 56.9285 53.1496 56.2819 52.6779 57.0451V57.0504Z" fill="#20261E"/>
<path d="M265.578 158.232C265.335 158.625 265.313 159.181 265.329 159.637C266.94 158.757 268.737 158.158 270.582 158.004L270.889 156.722C269.214 156.759 268.08 157.459 266.925 155.794C267.566 154.936 268.435 155.551 268.907 156.187C269.522 155.805 269.67 154.639 269.235 154.141C268.207 152.954 265.78 155.058 265.647 156.282C266.951 158.11 266.05 157.464 265.578 158.227V158.232Z" fill="#20261E"/>
<path d="M216.574 114.195C216.277 114.418 215.917 114.195 216.076 114.879C216.458 115.175 218.466 114.158 218.906 113.872C219.892 113.23 220.491 111.789 221.63 112.499C222.039 111.11 221.021 109.801 221.328 108.164C219.171 106.584 216.739 110.787 219.77 111.831C218.874 112.843 217.634 113.405 216.569 114.195H216.574ZM219.516 109.706V109.314H220.57V110.368H220.178L219.516 109.706Z" fill="#20261E"/>
<path d="M134.747 166.108C134.45 166.331 134.09 166.109 134.249 166.792C134.63 167.089 136.639 166.071 137.079 165.785C138.065 165.144 138.664 163.702 139.803 164.412C140.211 163.024 139.194 161.715 139.501 160.077C137.344 158.498 134.911 162.701 137.943 163.745C137.047 164.757 135.807 165.319 134.742 166.108H134.747ZM137.694 161.625V161.232H138.749V162.287H138.356L137.694 161.625Z" fill="#20261E"/>
<path d="M161.252 113.686C160.356 114.698 159.116 115.26 158.051 116.05C157.754 116.273 157.394 116.05 157.553 116.734C157.934 117.03 159.943 116.013 160.383 115.727C161.369 115.085 161.968 113.644 163.107 114.354C163.515 112.965 162.497 111.656 162.805 110.018C160.648 108.439 158.215 112.642 161.252 113.686ZM162.052 112.223H161.66L160.998 111.561V111.169H162.052V112.223Z" fill="#20261E"/>
<path d="M175 61.4811C174.703 61.7037 174.343 61.4811 174.502 62.1648C174.883 62.4616 176.892 61.444 177.332 61.1578C178.318 60.5165 178.917 59.0749 180.056 59.7851C180.464 58.3965 179.447 57.0874 179.754 55.4497C177.597 53.8703 175.164 58.0732 178.201 59.1173C177.306 60.1296 176.065 60.6914 175 61.4811ZM177.942 56.992V56.5998H178.996V57.6545H178.604L177.942 56.992Z" fill="#20261E"/>
<path d="M182.151 115.78C181.855 116.002 181.494 115.78 181.653 116.463C182.035 116.76 184.043 115.743 184.483 115.456C185.469 114.815 186.068 113.374 187.208 114.084C187.616 112.695 186.598 111.386 186.905 109.748C184.748 108.169 182.316 112.372 185.347 113.416C184.452 114.428 183.211 114.99 182.146 115.78H182.151ZM185.093 111.296V110.904H186.148V111.958H185.755L185.093 111.296Z" fill="#20261E"/>
<path d="M300.994 14.2689C301.979 13.6276 302.578 12.186 303.718 12.8962C304.126 11.5076 303.108 10.1985 303.416 8.5608C301.259 6.9814 298.826 11.1843 301.857 12.2284C300.962 13.2407 299.722 13.8025 298.656 14.5922C298.359 14.8148 297.999 14.5922 298.158 15.2759C298.54 15.5727 300.548 14.5551 300.988 14.2689H300.994ZM301.608 10.1084V9.7162H302.663V10.7709H302.271L301.608 10.1084Z" fill="#20261E"/>
<path d="M268.477 117.37C268.18 117.592 267.819 117.37 267.978 118.053C268.36 118.35 270.369 117.333 270.809 117.046C271.794 116.405 272.393 114.964 273.533 115.674C273.941 114.285 272.923 112.976 273.231 111.338C271.074 109.759 268.641 113.962 271.672 115.006C270.777 116.018 269.537 116.58 268.471 117.37H268.477ZM271.418 112.886V112.494H272.473V113.548H272.081L271.418 112.886Z" fill="#20261E"/>
<path d="M51.2832 12.419C52.269 11.7777 52.8679 10.3361 54.0074 11.0463C54.4155 9.65774 53.3979 8.34864 53.7053 6.71094C51.5482 5.13154 49.1155 9.33444 52.1524 10.3785C51.2567 11.3908 50.0165 11.9526 48.9512 12.7423C48.6544 12.9649 48.294 12.7423 48.453 13.426C48.8346 13.7228 50.8433 12.7052 51.2832 12.419ZM51.898 8.25324V7.86104H52.9527V8.91574H52.5605L51.898 8.25324Z" fill="#20261E"/>
<path d="M158.529 12.9491C159.515 12.3078 160.113 10.8662 161.253 11.5764C161.661 10.1878 160.643 8.87867 160.951 7.24097C158.794 5.66157 156.361 9.86447 159.393 10.9086C158.497 11.9209 157.257 12.4827 156.191 13.2724C155.895 13.495 155.534 13.2724 155.693 13.9561C156.075 14.2529 158.084 13.2353 158.523 12.9491H158.529ZM159.144 8.78327V8.39107H160.198V9.44577H159.806L159.144 8.78327Z" fill="#20261E"/>
<path d="M3.88517 14.2689C4.87097 13.6276 5.46987 12.186 6.60937 12.8962C7.01747 11.5076 5.99987 10.1985 6.30727 8.5608C4.15017 6.9814 1.71747 11.1843 4.74907 12.2284C3.85337 13.2407 2.61317 13.8025 1.54787 14.5922C1.25107 14.8148 0.890665 14.5922 1.04967 15.2759C1.43127 15.5727 3.43997 14.5551 3.87987 14.2689H3.88517ZM4.49997 10.1084V9.7162H5.55467V10.7709H5.16247L4.49997 10.1084Z" fill="#20261E"/>
<path d="M205.448 164.259C205.151 164.481 204.791 164.259 204.95 164.942C205.332 165.239 207.34 164.222 207.78 163.935C208.766 163.294 209.365 161.852 210.504 162.563C210.913 161.174 209.895 159.865 210.202 158.227C208.045 156.648 205.613 160.851 208.644 161.895C207.748 162.907 206.508 163.469 205.443 164.259H205.448ZM208.395 159.77V159.377H209.45V160.432H209.058L208.395 159.77Z" fill="#20261E"/>
<path d="M125.696 6.05906C126.682 5.41776 127.28 3.97616 128.42 4.68636C128.828 3.29776 127.81 1.98866 128.118 0.350958C125.961 -1.22844 123.528 2.97446 126.56 4.01856C125.664 5.03086 124.424 5.59266 123.358 6.38236C123.062 6.60496 122.701 6.38236 122.86 7.06606C123.242 7.36286 125.251 6.34526 125.69 6.05906H125.696ZM126.305 1.89856V1.50636H127.36V2.56106H126.968L126.305 1.89856Z" fill="#20261E"/>
<path d="M147.196 65.7212C146.9 65.9438 146.539 65.7212 146.698 66.4049C147.08 66.7017 149.088 65.6841 149.528 65.3979C150.514 64.7566 151.113 63.315 152.252 64.0252C152.661 62.6366 151.643 61.3275 151.95 59.6898C149.793 58.1104 147.361 62.3133 150.392 63.3574C149.497 64.3697 148.256 64.9315 147.191 65.7212H147.196ZM150.138 61.2321V60.8399H151.192V61.8946H150.8L150.138 61.2321Z" fill="#20261E"/>
<path d="M108.825 63.3574C107.93 64.3697 106.689 64.9315 105.624 65.7212C105.327 65.9438 104.967 65.7212 105.126 66.4049C105.507 66.7017 107.516 65.6841 107.956 65.3979C108.942 64.7566 109.541 63.315 110.68 64.0252C111.088 62.6366 110.071 61.3275 110.378 59.6898C108.221 58.1104 105.788 62.3133 108.825 63.3574ZM109.62 61.8999H109.228L108.566 61.2374V60.8452H109.62V61.8999Z" fill="#20261E"/>
<path d="M245.386 64.0677C246.372 63.4264 246.97 61.9848 248.11 62.695C248.518 61.3064 247.5 59.9973 247.808 58.3596C245.651 56.7802 243.218 60.9831 246.255 62.0272C245.359 63.0395 244.119 63.6013 243.054 64.391C242.757 64.6136 242.397 64.391 242.556 65.0747C242.937 65.3715 244.946 64.3539 245.386 64.0677ZM245.995 59.9072V59.515H247.05V60.5697H246.658L245.995 59.9072Z" fill="#20261E"/>
<path d="M16.9394 63.225C17.3475 61.8364 16.3299 60.5273 16.6373 58.8896C14.4802 57.3102 12.0475 61.5131 15.0791 62.5572C14.1834 63.5695 12.9432 64.1313 11.8779 64.921C11.5811 65.1436 11.2207 64.921 11.3797 65.6047C11.7613 65.9015 13.77 64.8839 14.2099 64.5977C15.1957 63.9564 15.7946 62.5148 16.9341 63.225H16.9394ZM14.8247 60.4372V60.045H15.8794V61.0997H15.4872L14.8247 60.4372Z" fill="#20261E"/>
<path d="M64.8408 167.434C64.544 167.656 64.1836 167.434 64.3426 168.117C64.7242 168.414 66.7329 167.396 67.1728 167.11C68.1586 166.469 68.7575 165.027 69.897 165.738C70.3051 164.349 69.2875 163.04 69.5949 161.402C67.4378 159.823 65.0051 164.026 68.042 165.07C67.1463 166.082 65.9061 166.644 64.8408 167.434ZM67.7876 162.95V162.558H68.8423V163.612H68.4501L67.7876 162.95Z" fill="#20261E"/>
<path d="M86.5801 62.8273C85.6844 63.8396 84.4442 64.4014 83.3789 65.1911C83.0821 65.4137 82.7217 65.1911 82.8807 65.8748C83.2623 66.1716 85.271 65.154 85.7109 64.8678C86.6967 64.2265 87.2956 62.7849 88.4351 63.4951C88.8432 62.1065 87.8256 60.7974 88.133 59.1597C85.9759 57.5803 83.5432 61.7832 86.5748 62.8273H86.5801ZM87.3751 61.3698H86.9829L86.3204 60.7073V60.3151H87.3751V61.3698Z" fill="#20261E"/>
<path d="M259.233 164.937C261.3 164.64 264.491 163.739 264.528 161.232C261.963 160.193 259.085 159.133 258.974 163.082C259.387 163.04 259.398 162.451 259.684 162.271C260.527 161.752 262.758 162.165 262.148 162.812C261.613 162.902 258.502 164.163 259.239 164.932L259.233 164.937Z" fill="#20261E"/>
<path d="M45.0714 64.751C46.513 64.6291 49.9209 62.9967 49.4863 61.1258C46.7886 60.0711 44.817 58.9528 43.9531 62.6893C44.7587 62.5992 44.9866 61.8943 45.93 61.889C46.1367 61.889 47.9228 62.1328 47.3928 62.6893C46.5448 62.6522 42.7447 64.9524 45.0714 64.751Z" fill="#20261E"/>
<path d="M150.399 8.91546C149.551 8.87836 145.751 11.1786 148.077 10.9772C149.519 10.8553 152.927 9.22286 152.492 7.35196C149.794 6.29726 147.823 5.17896 146.959 8.91546C147.765 8.82536 147.992 8.12046 148.936 8.11516C149.143 8.11516 150.929 8.35896 150.399 8.91546Z" fill="#20261E"/>
<path d="M290.483 12.3608C289.635 12.3237 285.835 14.6239 288.161 14.4225C289.603 14.3006 293.011 12.6682 292.576 10.8026C289.878 9.74794 287.907 8.62964 287.043 12.3661C287.849 12.276 288.076 11.5711 289.02 11.5658C289.227 11.5658 291.013 11.8096 290.483 12.3661V12.3608Z" fill="#20261E"/>
<path d="M173.442 156.463C174.248 156.372 174.476 155.668 175.419 155.662C175.626 155.662 177.412 155.906 176.882 156.463C176.034 156.425 172.234 158.726 174.561 158.524C176.002 158.402 179.41 156.77 178.976 154.899C176.278 153.844 174.306 152.726 173.442 156.463Z" fill="#20261E"/>
<path d="M274.594 154.872C275.399 154.782 275.627 154.077 276.571 154.072C276.777 154.072 278.563 154.316 278.033 154.872C277.185 154.835 273.385 157.136 275.712 156.934C277.154 156.812 280.562 155.18 280.127 153.309C277.429 152.254 275.458 151.136 274.594 154.872Z" fill="#20261E"/>
<path d="M106.244 156.934C107.686 156.812 111.094 155.18 110.659 153.309C107.961 152.254 105.99 151.136 105.126 154.872C105.932 154.782 106.159 154.077 107.103 154.072C107.31 154.072 109.096 154.316 108.566 154.872C107.718 154.835 103.918 157.136 106.244 156.934Z" fill="#20261E"/>
<path d="M65.1311 53.4198C64.2831 53.3827 60.483 55.6829 62.8097 55.4815C64.2513 55.3596 67.6592 53.7272 67.2246 51.8616C64.5269 50.8069 62.5553 49.6886 61.6914 53.4251C62.497 53.335 62.7249 52.6301 63.6683 52.6248C63.875 52.6248 65.6611 52.8686 65.1311 53.4251V53.4198Z" fill="#20261E"/>
<path d="M274.656 106.34C276.098 106.219 279.506 104.586 279.071 102.715C276.374 101.661 274.402 100.542 273.538 104.279C274.344 104.189 274.572 103.484 275.515 103.478C275.722 103.478 277.508 103.722 276.978 104.279C276.13 104.242 272.33 106.542 274.656 106.34Z" fill="#20261E"/>
<path d="M218.784 56.5415C220.226 56.4196 223.634 54.7872 223.199 52.9216C220.502 51.8669 218.53 50.7486 217.666 54.4851C218.472 54.395 218.7 53.6901 219.643 53.6848C219.85 53.6848 221.636 53.9286 221.106 54.4851C220.258 54.448 216.458 56.7482 218.784 56.5468V56.5415Z" fill="#20261E"/>
<path d="M156.027 57.0716C157.469 56.9497 160.877 55.3173 160.442 53.4464C157.745 52.3917 155.773 51.2734 154.909 55.0099C155.715 54.9198 155.943 54.2149 156.886 54.2096C157.093 54.2096 158.879 54.4534 158.349 55.0099C157.501 54.9728 153.701 57.273 156.027 57.0716Z" fill="#20261E"/>
<path d="M284.923 55.275C285.728 55.1849 285.956 54.48 286.9 54.4747C287.106 54.4747 288.893 54.7185 288.363 55.275C287.515 55.2379 283.714 57.5381 286.041 57.3367C287.483 57.2148 290.891 55.5824 290.456 53.7115C287.758 52.6568 285.787 51.5385 284.923 55.275Z" fill="#20261E"/>
<path d="M257.177 115.345C258.618 115.223 262.026 113.59 261.592 111.72C258.894 110.665 256.922 109.547 256.059 113.283C256.864 113.193 257.092 112.488 258.035 112.483C258.242 112.483 260.028 112.727 259.498 113.283C258.65 113.246 254.85 115.546 257.177 115.345Z" fill="#20261E"/>
<path d="M21.4603 55.5504L20.6494 58.4495C21.2854 58.529 21.6193 57.9036 21.7253 57.4001C24.4071 58.7569 27.8627 58.0785 28.8538 55.0098C27.5659 55.2165 26.6437 56.2447 25.2445 56.3136C23.9884 56.3772 22.6899 55.6405 21.455 55.5451L21.4603 55.5504Z" fill="#20261E"/>
<path d="M78.3716 182.952L76.4 181.627L75.2393 183.577L76.9671 185.035L78.2709 183.768L80.3273 184.791L81.4509 183.233L79.5694 181.367L78.3716 182.952Z" fill="#20261E"/>
<path d="M23.2992 119.262L24.232 118.053L26.0764 119.373C27.6717 117.762 27.5551 117.02 25.4987 115.97L24.3486 117.253L22.3664 115.96L20.9248 117.921L22.6844 119.346L23.2992 119.256V119.262Z" fill="#20261E"/>
<path d="M149.264 20.2789C150.191 20.5333 150.483 19.0228 150.796 18.9963C151.437 19.2931 152.258 20.4326 153.006 19.998L153.811 18.3603L152.084 16.8922L150.79 18.2013L148.718 17.1519L147.536 18.8638L149.264 20.2842V20.2789Z" fill="#20261E"/>
<path d="M246.63 67.4435L244.833 66.4153C242.935 68.1378 243.587 68.53 245.336 69.8338L246.534 68.2597L248.506 69.5847L249.688 67.8993L247.716 66.1874L246.635 67.4435H246.63Z" fill="#20261E"/>
<path d="M221.274 130.259L220.304 131.563C218.745 130.466 217.993 129.835 217.426 132.172L219.122 133.662L220.198 132.368L222.01 133.418L223.107 131.563L221.274 130.264V130.259Z" fill="#20261E"/>
<path d="M160.192 30.6405C158.634 29.5434 157.882 28.9127 157.314 31.25L159.01 32.7393L160.086 31.4461L161.899 32.4955L162.996 30.6405L161.162 29.342L160.192 30.6458V30.6405Z" fill="#20261E"/>
<path d="M11.5014 13.1607C12.201 13.0388 12.5402 12.1802 12.837 12.1643C13.3299 12.1378 13.7751 13.1819 14.9676 12.1007C16.1177 11.0513 15.5612 8.56561 15.0948 8.92071C14.7768 9.68921 15.1213 10.8234 14.1673 11.046C12.9218 11.3375 13.8546 9.54611 12.7098 9.71571C13.0967 11.8145 9.83185 12.9275 10.8548 10.251C10.1181 9.50901 8.57575 13.6695 11.5067 13.166L11.5014 13.1607Z" fill="#20261E"/>
<path d="M69.758 115.674C70.4576 115.552 70.7968 114.693 71.0936 114.677C71.5865 114.651 72.0317 115.695 73.2242 114.614C74.3743 113.564 73.8178 111.079 73.3514 111.434C73.0334 112.202 73.3779 113.336 72.4239 113.559C71.1784 113.851 72.1112 112.059 70.9664 112.229C71.3533 114.328 68.0885 115.441 69.1114 112.764C68.3694 112.022 66.8324 116.183 69.7633 115.679L69.758 115.674Z" fill="#20261E"/>
<path d="M222.811 13.1607C223.511 13.0388 223.85 12.1802 224.142 12.1643C224.635 12.1378 225.08 13.1819 226.272 12.1007C227.422 11.0513 226.866 8.56561 226.399 8.92071C226.081 9.68921 226.426 10.8234 225.472 11.046C224.226 11.3375 225.159 9.54611 224.014 9.71571C224.401 11.8145 221.137 12.9275 222.159 10.251C221.423 9.50901 219.88 13.6695 222.811 13.166V13.1607Z" fill="#20261E"/>
<path d="M195.008 115.674C195.708 115.552 196.047 114.693 196.338 114.677C196.831 114.651 197.277 115.695 198.469 114.614C199.619 113.564 199.063 111.079 198.602 111.434C198.284 112.202 198.628 113.336 197.674 113.559C196.429 113.851 197.361 112.059 196.217 112.229C196.603 114.328 193.339 115.441 194.362 112.764C193.625 112.022 192.083 116.183 195.013 115.679L195.008 115.674Z" fill="#20261E"/>
<path d="M117.157 66.6695C117.857 66.5476 118.196 65.689 118.487 65.6731C118.98 65.6466 119.425 66.6907 120.618 65.6095C121.768 64.5601 121.212 62.0744 120.745 62.4295C120.427 63.198 120.772 64.3322 119.818 64.5548C118.572 64.8463 119.505 63.0549 118.36 63.2245C118.747 65.3233 115.482 66.4363 116.505 63.7598C115.768 63.0178 114.226 67.1783 117.157 66.6748V66.6695Z" fill="#20261E"/>
<path d="M179.649 15.8107C180.349 15.6888 180.688 14.8302 180.98 14.8143C181.472 14.7878 181.918 15.8319 183.11 14.7507C184.26 13.7013 183.704 11.2156 183.237 11.5707C182.919 12.3392 183.264 13.4734 182.31 13.696C181.064 13.9875 181.997 12.1961 180.852 12.3657C181.239 14.4645 177.974 15.5775 178.997 12.901C178.261 12.159 176.718 16.3195 179.649 15.816V15.8107Z" fill="#20261E"/>
<path d="M147.313 181.388L146.036 182.639L144.319 181.627L143.556 183.705C144.833 184.415 145.813 185.268 146.174 183.212L148.283 184.272L149.084 182.565L147.319 181.383L147.313 181.388Z" fill="#20261E"/>
<path d="M39.4536 115.403C41.616 114.274 45.1564 113.93 45.8083 111.168C45.591 110.956 40.4076 113.347 40.1744 113.537C39.867 113.792 39.2575 115.196 39.4589 115.403H39.4536Z" fill="#20261E"/>
<path d="M270.544 61.3537C270.236 61.6081 269.627 63.0126 269.828 63.2193C271.99 62.0904 275.531 61.7459 276.183 58.9846C275.965 58.7726 270.782 61.1629 270.549 61.3537H270.544Z" fill="#20261E"/>
<path d="M44.2116 12.3659C43.9943 12.1539 38.8109 14.5389 38.5777 14.735C38.2703 14.9894 37.6608 16.3939 37.8622 16.6006C40.0246 15.4717 43.565 15.1272 44.2169 12.3659H44.2116Z" fill="#20261E"/>
<path d="M257.91 12.1008C257.693 11.8888 252.509 14.2738 252.276 14.4699C251.969 14.7243 251.359 16.1288 251.56 16.3355C253.723 15.2066 257.263 14.8621 257.915 12.1008H257.91Z" fill="#20261E"/>
<path d="M217.131 63.2246C216.913 63.0126 211.73 65.4029 211.497 65.5937C211.189 65.8481 210.58 67.2526 210.781 67.4593C212.944 66.3304 216.484 65.9859 217.136 63.2246H217.131Z" fill="#20261E"/>
<path d="M59.3064 110.638C59.0891 110.426 53.9057 112.817 53.6725 113.007C53.3651 113.262 52.7556 114.666 52.957 114.873C55.1194 113.744 58.6598 113.4 59.3117 110.638H59.3064Z" fill="#20261E"/>
<path d="M95.8493 52.8953C95.632 52.6833 90.4486 55.0736 90.2154 55.2644C89.908 55.5188 89.2985 56.9233 89.4999 57.13C91.6623 56.0011 95.2027 55.6566 95.8546 52.8953H95.8493Z" fill="#20261E"/>
<path d="M277.503 9.71584C277.285 9.50384 272.102 11.8888 271.869 12.0849C271.561 12.3393 270.952 13.7438 271.153 13.9505C273.316 12.8216 276.856 12.4771 277.508 9.71584H277.503Z" fill="#20261E"/>
<path d="M265.778 151.417C265.471 151.671 264.861 153.076 265.062 153.283C267.225 152.154 270.765 151.809 271.417 149.048C271.2 148.836 266.016 151.221 265.783 151.417H265.778Z" fill="#20261E"/>
<path d="M163.378 165.997C165.541 164.868 169.081 164.523 169.733 161.762C169.516 161.55 164.332 163.935 164.099 164.131C163.792 164.386 163.182 165.79 163.384 165.997H163.378Z" fill="#20261E"/>
<path d="M216.341 167.587C218.504 166.458 222.044 166.113 222.696 163.352C222.479 163.14 217.295 165.53 217.062 165.721C216.755 165.976 216.145 167.38 216.347 167.587H216.341Z" fill="#20261E"/>
<path d="M206.275 116.463C208.437 115.334 211.978 114.99 212.63 112.228C212.412 112.016 207.229 114.401 206.996 114.598C206.688 114.852 206.079 116.256 206.28 116.463H206.275Z" fill="#20261E"/>
<path d="M288.098 167.587C290.261 166.458 293.801 166.113 294.453 163.352C294.236 163.14 289.052 165.53 288.819 165.721C288.512 165.976 287.902 167.38 288.103 167.587H288.098Z" fill="#20261E"/>
<path d="M52.8775 50.2294C52.5701 50.4838 51.9606 51.8883 52.162 52.095C54.3244 50.9661 57.8649 50.6216 58.5168 47.8603C58.2995 47.6483 53.116 50.0386 52.8828 50.2294H52.8775Z" fill="#20261E"/>
<path d="M196.742 8.65581C196.525 8.44381 191.341 10.8341 191.108 11.0249C190.801 11.2793 190.191 12.6838 190.393 12.8905C192.555 11.7616 196.095 11.4171 196.747 8.65581H196.742Z" fill="#20261E"/>
<path d="M247.585 111.168C247.367 110.956 242.184 113.347 241.951 113.537C241.643 113.792 241.034 115.196 241.235 115.403C243.398 114.274 246.938 113.93 247.59 111.168H247.585Z" fill="#20261E"/>
<path d="M104.855 8.12587C104.638 7.91387 99.4545 10.2989 99.2213 10.495C98.9139 10.7494 98.3044 12.1539 98.5058 12.3606C100.668 11.2317 104.209 10.8872 104.861 8.12587H104.855Z" fill="#20261E"/>
<path d="M30.1821 66.3993C32.3445 65.2704 35.8849 64.9259 36.5368 62.1646C36.3195 61.9526 31.1361 64.3376 30.9029 64.5337C30.5955 64.7881 29.986 66.1926 30.1874 66.3993H30.1821Z" fill="#20261E"/>
<path d="M194.363 168.117C196.525 166.988 200.066 166.643 200.717 163.882C200.5 163.67 195.317 166.06 195.084 166.251C194.776 166.506 194.167 167.91 194.368 168.117H194.363Z" fill="#20261E"/>
<path d="M131.605 64.8093C133.767 63.6804 137.308 63.3359 137.96 60.5746C137.742 60.3626 132.559 62.7529 132.326 62.9437C132.018 63.1981 131.409 64.6026 131.61 64.8093H131.605Z" fill="#20261E"/>
<path d="M99.561 168.647C101.723 167.518 105.264 167.173 105.916 164.412C105.698 164.2 100.515 166.585 100.282 166.781C99.9744 167.036 99.3649 168.44 99.5663 168.647H99.561Z" fill="#20261E"/>
<path d="M164.887 105.858C164.58 106.112 163.97 107.517 164.172 107.723C166.334 106.594 169.875 106.25 170.527 103.489C170.309 103.277 165.126 105.662 164.893 105.858H164.887Z" fill="#20261E"/>
<path d="M264.661 71.4293C265.17 71.4028 265.854 68.4136 265.849 67.8571C265.849 67.2052 264.942 64.3379 264.486 64.0676C263.835 63.6807 263.294 64.693 263.294 65.2124C263.294 65.4774 264.327 67.078 264.46 67.9207C264.614 68.9012 264.439 69.4842 264.386 70.3746C264.359 70.8304 264.062 71.0477 264.656 71.4293H264.661Z" fill="#20261E"/>
<path d="M265.981 20.0458C265.954 20.5016 265.658 20.7189 266.251 21.1005C266.76 21.074 267.444 18.0848 267.438 17.5283C267.438 16.8764 266.532 14.0091 266.076 13.7388C265.424 13.3519 264.884 14.3642 264.884 14.8836C264.884 15.1486 265.917 16.7492 266.05 17.5919C266.203 18.5724 266.029 19.1554 265.976 20.0458H265.981Z" fill="#20261E"/>
<path d="M236.592 124.673C237.101 124.647 237.785 121.657 237.779 121.101C237.779 120.449 236.873 117.582 236.417 117.311C235.765 116.924 235.225 117.937 235.225 118.456C235.225 118.721 236.258 120.322 236.391 121.164C236.544 122.145 236.369 122.728 236.316 123.618C236.29 124.074 235.993 124.291 236.587 124.673H236.592Z" fill="#20261E"/>
<path d="M37.4651 124.673C37.9739 124.647 38.6576 121.657 38.6523 121.101C38.6523 120.449 37.746 117.582 37.2902 117.311C36.6383 116.924 36.0977 117.937 36.0977 118.456C36.0977 118.721 37.1312 120.322 37.2637 121.164C37.4174 122.145 37.2425 122.728 37.1895 123.618C37.163 124.074 36.8662 124.291 37.4598 124.673H37.4651Z" fill="#20261E"/>
<path d="M50.4397 122.818C50.9485 122.792 51.6322 119.802 51.6269 119.246C51.6269 118.594 50.7206 115.727 50.2648 115.456C49.6129 115.069 49.0723 116.082 49.0723 116.601C49.0723 116.866 50.1058 118.467 50.2383 119.309C50.392 120.29 50.2171 120.873 50.1641 121.763C50.1376 122.219 49.8408 122.436 50.4344 122.818H50.4397Z" fill="#20261E"/>
<path d="M226.214 6.55702C226.49 6.32912 227.036 4.79742 226.924 4.68612C226.718 4.47942 221.836 6.82202 221.555 7.05522C221.248 7.30432 220.654 8.69292 220.84 8.92082C222.022 8.13642 225.297 7.29902 226.214 6.55702Z" fill="#20261E"/>
<path d="M14.9035 6.55702C15.1844 6.32912 15.725 4.79742 15.6137 4.68612C15.407 4.47942 10.5257 6.82202 10.2448 7.05522C9.93743 7.30432 9.34383 8.69292 9.52933 8.92082C10.7112 8.13642 13.9866 7.29902 14.9035 6.55702Z" fill="#20261E"/>
<path d="M67.7862 111.433C68.9681 110.649 72.2435 109.812 73.1604 109.07C73.4413 108.842 73.9819 107.31 73.8706 107.199C73.6639 106.992 68.7826 109.335 68.5017 109.568C68.1943 109.817 67.6007 111.205 67.7862 111.433Z" fill="#20261E"/>
<path d="M183.05 9.20185C183.326 8.97395 183.872 7.44225 183.76 7.33095C183.554 7.12425 178.672 9.46685 178.391 9.70005C178.084 9.94915 177.49 11.3378 177.676 11.5657C178.858 10.7813 182.133 9.94385 183.05 9.20185Z" fill="#20261E"/>
<path d="M131.075 115.403C131.271 115.61 135.914 113.214 136.2 112.986C136.528 112.727 137.376 111.381 137.159 111.169C135.14 112.176 131.175 112.679 131.069 115.403H131.075Z" fill="#20261E"/>
<path d="M152.518 191.957C153.191 191.983 160.144 189.921 158.872 188.782C156.763 189.344 153.222 189.593 152.518 191.957Z" fill="#20261E"/>
<path d="M84.7314 184.802C85.4045 184.828 92.3581 182.766 91.0861 181.627C88.9767 182.189 85.4363 182.438 84.7314 184.802Z" fill="#20261E"/>
<path d="M247.85 184.537C248.523 184.563 255.476 182.501 254.204 181.362C252.095 181.924 248.555 182.173 247.85 184.537Z" fill="#20261E"/>
<path d="M21.4443 135.268C22.1174 135.294 29.071 133.233 27.799 132.093C25.6896 132.655 22.1492 132.904 21.4443 135.268Z" fill="#20261E"/>
<path d="M193.827 138.713C194.5 138.739 201.454 136.678 200.182 135.538C198.072 136.1 194.532 136.349 193.827 138.713Z" fill="#20261E"/>
<path d="M199.121 87.0639C197.012 87.6257 193.472 87.8748 192.767 90.2386C193.44 90.2651 200.393 88.2034 199.121 87.0639Z" fill="#20261E"/>
<path d="M121.27 87.0639C119.16 87.6257 115.62 87.8748 114.915 90.2386C115.588 90.2651 122.542 88.2034 121.27 87.0639Z" fill="#20261E"/>
<path d="M113.86 137.128C111.75 137.69 108.21 137.939 107.505 140.303C108.178 140.329 115.132 138.268 113.86 137.128Z" fill="#20261E"/>
<path d="M211.571 33.2905C212.244 33.317 219.198 31.2553 217.926 30.1158C215.817 30.6776 212.276 30.9267 211.571 33.2905Z" fill="#20261E"/>
<path d="M259.233 80.7096C257.123 81.2714 253.583 81.5205 252.878 83.8843C253.551 83.9108 260.505 81.8491 259.233 80.7096Z" fill="#20261E"/>
<path d="M139.014 36.4702C138.108 36.4066 131.626 38.2404 132.924 39.6449C133.502 39.5442 140.291 37.615 139.014 36.4702Z" fill="#20261E"/>
<path d="M245.041 120.682L246.238 119.018L244.267 117.327L242.862 118.986C243.239 119.431 244.473 120.825 245.041 120.687V120.682Z" fill="#20261E"/>
<path d="M273.041 64.0568L271.965 65.7051L273.931 67.4541L275.383 65.4984C274.811 65.1804 273.645 63.7017 273.041 64.0568Z" fill="#20261E"/>
<path d="M100.906 15.7792L102.873 17.0671L104.261 15.4082L102.337 13.7546C101.929 13.956 100.626 15.3817 100.906 15.7792Z" fill="#20261E"/>
<path d="M107.78 113.649L109.747 115.143L110.923 113.204L108.989 111.709L107.78 113.649Z" fill="#20261E"/>
<path d="M248.396 166.893L250.331 168.366C252.451 166.834 251.375 165.732 249.446 164.942L248.396 166.893Z" fill="#20261E"/>
<path d="M255.295 19.2876L254.203 20.9677L256.408 22.4093L257.616 20.7504C257.314 20.2416 255.825 18.9802 255.295 19.2876Z" fill="#20261E"/>
<path d="M198.586 131.955C197.378 131.218 196.737 129.575 195.571 131.314C194.68 132.639 196.313 133.476 197.505 133.646L198.586 131.955Z" fill="#20261E"/>
<path d="M158.596 170.926L156.391 169.458L155.178 171.138L157.383 172.606L158.596 170.926Z" fill="#20261E"/>
<path d="M140.062 170.926L137.858 169.458L136.639 171.138L138.849 172.606L140.062 170.926Z" fill="#20261E"/>
<path d="M215.784 81.5311L213.854 80.2008L212.429 81.9074L214.353 83.5769C214.745 83.3543 216.07 81.9445 215.784 81.5364V81.5311Z" fill="#20261E"/>
<path d="M288.776 30.3963C287.885 31.7213 289.518 32.5587 290.71 32.7283L291.791 31.0376C290.583 30.3009 289.942 28.6579 288.776 30.3963Z" fill="#20261E"/>
<path d="M151.94 15.6729L150 13.9663C149.603 14.438 148.188 15.3708 148.58 16.0386L150.53 17.3318L151.935 15.6729H151.94Z" fill="#20261E"/>
<path d="M233.836 106.494L234.742 107.453C235.707 106.727 235.627 106.027 234.472 105.672L233.836 106.494Z" fill="#20261E"/>
<path d="M46.8618 174.599C46.7558 174.08 48.3511 172.617 47.3971 171.684C47.148 171.44 46.6657 171.446 46.4908 171.318C45.7276 170.746 47.7045 169.887 47.3865 168.912C45.4997 169.601 44.1853 172.357 46.6127 173.301C46.1569 174.387 45.2453 175.479 46.2417 176.602C47.9059 176.952 48.4889 175.887 49.5065 174.869C48.95 174.498 47.042 175.516 46.8618 174.599Z" fill="#20261E"/>
<path d="M42.5007 176.592C43.2215 176.963 42.6226 174.403 42.559 174.149C42.2569 172.999 41.605 172.151 41.3082 171.032L43.6879 170.762L43.9582 169.177C38.1547 167.852 41.022 173.831 42.506 176.587L42.5007 176.592Z" fill="#20261E"/>
<path d="M78.3763 25.0807C80.226 25.0648 78.3604 20.8725 78.6519 20.5916C79.3038 20.8248 79.4363 20.1411 79.4999 20.1093C79.855 19.9344 80.7454 20.7347 81.4291 20.0563C81.9909 19.4945 81.7948 18.1536 81.816 17.401C81.18 17.8091 81.2065 19.415 80.1041 18.4504L79.8338 17.666C78.7208 19.5952 78.0583 19.1659 76.7916 17.666C76.1185 20.2895 78.742 22.3406 78.3816 25.0807H78.3763Z" fill="#20261E"/>
<path d="M74.0671 23.4273C73.8392 21.9486 73.1502 20.8356 72.546 19.5212L74.8992 19.2244L75.1854 17.6768C69.2388 16.5426 72.6891 22.1871 73.606 25.0809C74.4805 25.33 74.1413 23.9308 74.0618 23.4273H74.0671Z" fill="#20261E"/>
</svg>
