<svg width="256" height="195" viewBox="0 0 256 195" fill="none" xmlns="http://www.w3.org/2000/svg">
<path d="M174.238 69.3104C174.227 70.3969 177.518 72.3791 178.472 73.243C179.071 73.7889 182.352 77.0007 181.912 77.6102C179.803 78.543 174.635 79.3486 172.669 78.2568C170.475 77.0378 170.528 72.1618 169.865 69.9252C169.727 69.4588 169.812 69.3051 169.208 69.4058L168.901 72.2837C166.33 72.3155 162.212 78.6755 166.42 78.6755C167.984 78.6755 168.927 77.7798 169.992 76.8205C170.496 82.1046 176.787 81.6488 180.529 80.3344C182.993 79.4705 182.84 78.0554 182.834 75.7605C185.871 79.1843 191.569 83.8324 195.549 79.2002C196.757 79.9316 197.192 80.822 198.745 81.034C202.524 81.5481 208.317 80.6365 211.168 77.8805C212.196 80.3132 214.735 81.564 217.342 80.875C218.047 80.6895 219.102 79.7302 219.33 79.7673C219.955 79.8627 222.314 82.0198 223.84 81.5587C224.254 81.4368 224.349 80.6312 224.662 80.5835C224.778 80.5623 225.875 81.0764 226.527 81.0817C230.725 81.1082 231.594 79.2373 231.425 75.3683C231.303 72.5752 230.073 68.6108 230.147 66.088C230.168 65.346 230.916 64.5722 230.863 64.2807C230.804 63.9574 229.151 62.2985 229.305 61.4611C227.402 63.0723 228.419 63.8991 228.706 65.6375C229.336 69.5012 229.707 73.4126 230.301 77.2816C230.285 78.4741 226.999 78.7762 226.125 78.5589C224.344 78.1084 223.014 75.5432 222.028 75.5114C221.021 75.4796 219.807 77.4565 218.97 78.0024C217.093 79.2267 213.33 79.0253 212.392 76.6615C211.104 71.9975 211.364 66.9943 210.373 62.2561C209.864 62.1289 209.154 63.862 209.165 64.2489L210.389 75.9089C210.235 77.6844 206.414 78.1932 205.047 78.3787C203.213 78.6331 198.453 79.1843 197.123 77.8964C196.582 77.3717 196.657 76.7622 196.482 76.1527C196.37 75.7711 196.641 75.6863 195.952 75.7658C195.427 78.4476 192.947 78.9882 190.54 78.6543C187.975 78.2992 184.302 74.3507 182.156 72.7395C180.031 71.1389 177.656 69.8616 175.563 68.2133C175.563 67.0897 187.212 61.9275 188.892 61.159L190.122 58.5461C189.692 58.2016 181.191 62.6748 180.147 63.2631C177.858 64.5563 174.264 66.2947 174.243 69.3051L174.238 69.3104ZM166.288 76.2905C165.864 75.1987 169.028 73.455 169.462 73.9055L169.484 75.628C168.492 76.2004 167.427 76.3912 166.288 76.2905ZM222.95 78.9405C222.717 79.126 220.576 78.1243 220.57 77.7533C221.901 76.1209 222.203 77.9441 222.95 78.9405Z" fill="#20261E"/>
<path d="M170.258 175.082C170.565 173.932 170.846 172.994 170.804 171.764C170.714 169.157 168.933 166.109 170.496 163.862C169.113 162.261 168.668 159.468 167.613 163.274C168.265 164.493 169.881 173.619 169.468 174.022C166.935 174.467 162.832 173.423 162.583 176.932C164.677 176.444 167.857 176.709 169.892 177.435C170.173 177.536 170.655 177.584 170.258 177.992C169.659 178.607 163.357 179.55 162.191 179.598C156.064 179.842 154.978 176.911 150.642 173.651C149.413 172.724 144.897 170.153 144.304 169.395C143.927 168.913 144.341 168.812 144.717 168.473C145.411 167.837 146.954 167.058 147.844 166.565C150.971 164.832 154.368 163.597 157.543 161.965L158.614 159.463C158.184 159.113 149.678 163.597 148.639 164.18C146.349 165.473 142.756 167.212 142.735 170.222C142.724 171.309 146.016 173.291 146.97 174.155C147.568 174.701 150.849 177.912 150.409 178.522C149.752 178.628 149.206 179.036 148.57 179.2C146.789 179.661 140.525 180.244 139.693 178.257C139.438 177.642 139.868 176.614 139.163 176.677C137.991 179.762 134.096 180.44 131.425 178.85C129.188 177.515 130.02 176.004 126.92 177.939C124.81 179.253 123.157 181.023 123.39 183.7L125.255 194.819C125.759 195.01 125.77 194.342 125.796 194.035C126.125 190.664 124.667 186.594 124.46 183.186L125.955 181.204C127.529 182.147 129.278 182.868 131.17 182.778L131.626 181.712C134.043 182.211 137.302 182.333 138.627 179.852C140.148 182.725 144.812 182.184 147.553 181.628C150.642 181.002 151.75 179.99 151.21 176.672C155.948 181.702 158.895 182.894 165.774 181.31C168.647 180.647 172.16 178.824 174.932 178.554C177.211 178.336 178.727 179.826 179.273 176.407C176.178 176.651 173.215 175.893 170.268 175.077L170.258 175.082ZM127.365 179.057C128.091 178.273 129.967 179.232 130.01 180.377C129.782 180.154 126.734 179.73 127.365 179.057Z" fill="#20261E"/>
<path d="M235.893 114.864C235.834 114.541 234.181 112.882 234.329 112.044C232.193 113.512 233.423 114.705 233.73 116.486C234.393 120.323 234.642 124.245 235.304 128.082C235.246 128.48 233.545 128.946 233.142 128.994C231.663 129.174 229.893 128.861 228.377 128.994C227.556 128.994 228.886 126.741 228.976 126.148C229.135 125.098 229.019 123.789 228.372 122.909C226.475 120.328 221.789 126.058 223.146 128.347C223.008 129.132 218.344 129.386 217.374 128.268C216.765 127.568 217.051 126.704 216.458 126.084C215.09 128.649 215.302 129.852 212.09 128.183L212.483 126.338C211.433 126.773 211.248 127.987 210.156 128.517C209.35 128.909 208.216 129.015 207.32 128.988L207.845 126.344C206.907 127.33 205.534 128.994 204.008 128.994H199.111C199.142 128.252 199.879 127.981 200.224 127.324C201.946 124.028 198.358 122.66 195.597 123.227C195.167 123.317 194.41 123.768 193.996 124.012C193.625 124.229 191.648 126.052 191.436 125.819C191.728 124.383 191.786 122.899 191.712 121.441C191.638 119.973 190.896 117.646 190.943 116.406C190.97 115.749 191.749 115.06 191.659 114.604C191.595 114.27 190.98 113.963 190.779 113.629C190.461 113.088 190.435 112.474 189.979 112.055C188.33 113.857 189.131 114.228 189.502 115.966C189.995 118.256 191.049 124.091 190.583 126.164C190.456 126.731 188.299 129.063 187.806 129.211C187.392 129.338 186.963 129.285 186.544 129.269C185.765 129.243 183.64 128.67 183.099 128.739C182.808 128.776 182.659 129.073 182.956 129.407C183.794 130.335 186.067 131.289 187.318 131.4C189.078 131.559 190.747 131.103 192.348 131.114C195.809 131.135 199.784 131.776 203.218 131.389C205.312 131.156 204.511 130.854 206.949 131.103C209.281 131.342 210.5 129.874 210.898 129.874C211.163 129.874 212.763 131.225 214.078 131.146C215.249 131.071 215.244 130.08 216.055 129.534C217.237 132.057 220.888 131.485 223.157 130.939C223.719 130.801 224.577 130.165 224.932 130.165C225.43 130.165 227.784 131.236 228.939 131.358C231.875 131.665 235.999 131.739 236.433 128.056C236.794 124.998 235.145 120.116 235.156 116.926C235.156 116.046 235.94 115.129 235.893 114.875V114.864ZM198.247 127.197C195.989 128.681 192.443 128.718 189.852 129.259C191.791 126.868 194.881 124.038 198.13 125.883C199.042 126.397 199.121 126.625 198.247 127.197ZM224.339 126.439C224.206 125.443 226.459 124.377 227.148 124.801C227.211 124.844 227.715 126.047 227.715 126.222C227.709 127.239 224.635 128.644 224.339 126.434V126.439Z" fill="#20261E"/>
<path d="M96.6619 78.5586C97.5152 75.5694 95.6019 69.8825 95.6178 66.5965C95.6178 65.7167 96.4022 64.7945 96.3598 64.5454C96.3227 64.3228 94.5949 62.6003 94.7963 61.7311C92.6604 63.1992 93.89 64.3917 94.1974 66.1725C94.8599 70.0097 95.109 73.9317 95.7715 77.7689C95.6072 78.8554 89.0405 79.0992 88.0388 77.8908C87.7314 77.4138 88.6006 76.8679 88.8444 76.2902C90.3602 72.7392 84.668 72.2834 82.7494 73.9052C82.1399 74.4193 80.7142 76.7672 81.8908 76.7619C82.654 76.7619 83.9896 76.1206 84.2069 77.6099C80.0888 79.2476 77.301 79.7776 76.3417 74.7532C75.6421 71.0962 75.5944 67.1159 74.9372 63.443C74.8577 63.0137 75.075 62.5791 74.5397 62.2558C74.0733 62.7593 73.6228 63.5437 73.5963 64.2433C73.485 67.0841 74.7782 71.5043 74.9372 74.573C75.0167 76.1153 75.3135 77.4085 73.7977 78.1982C72.1335 79.0727 69.033 78.8607 67.4324 77.8378C66.4996 77.2389 65.9166 75.8079 64.6075 76.1365C62.8585 76.5764 59.9541 79.3907 59.6414 81.251C59.3234 83.1325 60.659 90.632 61.1466 92.8633C61.2367 93.282 61.0724 93.7272 61.5653 94.0293C62.1377 94.0293 61.984 91.4906 61.9575 90.9924C61.8197 88.3848 60.5901 84.8921 60.6272 82.5071C60.6431 81.5266 61.4222 80.8323 62.1271 80.2917C63.733 81.2351 65.5615 82.046 67.4801 81.8181L67.9465 80.7793C69.7273 81.1821 72.5151 81.3782 74.1263 80.3924L75.9866 78.1558C77.3593 82.7615 83.0621 81.2192 85.9188 78.9402C88.1024 80.8694 90.127 81.3517 93.0367 81.039C94.8652 80.8376 96.116 80.4613 96.6566 78.5692L96.6619 78.5586ZM63.5528 78.1505C64.2789 77.3661 66.1551 78.3254 66.1975 79.4702C65.9696 79.2476 62.9221 78.8236 63.5528 78.1505Z" fill="#20261E"/>
<path d="M200.966 29.5391C202.301 29.0356 202.694 28.2512 203.616 27.2972C203.849 28.9508 205.344 30.2281 206.949 30.4507C207.697 30.5567 208.63 30.3288 209.26 30.4772C209.35 30.4984 209.753 31.3941 210.744 31.0231C210.887 32.9841 212.721 35.5652 214.846 35.4857C217.083 35.4009 217.74 31.9241 216.325 30.4719C217.406 30.4083 218.53 30.5726 219.606 30.4401C221.736 30.1804 221.005 29.9419 223.364 30.1857C224.879 30.3394 226.803 30.0002 227.598 28.601C232.071 31.5372 233.455 27.9014 232.474 23.8522C231.117 24.8168 231.462 26.1683 231.679 27.5569L229.003 26.64L228.902 24.6472C227.46 26.7142 226.729 28.5003 223.74 28.0869L224.53 25.5694C223.623 24.9917 223.39 26.481 222.743 27.0322C222.425 27.3025 221.058 28.0286 220.698 28.0869C218.975 28.3784 216.553 27.8749 214.74 28.0869C216.691 25.3786 216.203 17.9639 212.514 23.6084C211.629 24.9599 211.136 26.5022 210.734 28.0551C203.96 29.1787 204.315 24.8327 202.683 20.1369C202.598 19.8878 202.704 19.167 202.164 19.3472C201.856 19.4479 201.74 21.2075 201.761 21.5891C201.925 24.4882 204.617 25.9881 200.589 27.3078C199.015 27.8219 197.187 28.3095 196.074 26.7672C194.24 30.774 198.257 30.562 200.966 29.5391ZM215.8 32.7191C214.407 33.954 212.329 32.2739 212.096 30.7369C212.726 30.9595 216.007 31.7386 215.8 32.7191ZM214.475 24.1172C215.472 26.2955 213.474 27.0375 211.836 27.8219C211.598 27.5251 213.474 23.4282 214.475 24.1172Z" fill="#20261E"/>
<path d="M51.8713 114.864C51.8342 114.641 50.1064 112.919 50.3078 112.049C48.1719 113.518 49.4015 114.71 49.7089 116.491C50.3767 120.365 50.6735 124.335 51.2459 128.22C50.7053 129.184 44.3665 129.449 43.4231 128.066C47.4193 123.768 40.4604 121.839 37.9853 124.483C37.4924 125.008 36.3105 127.091 37.4023 127.086C38.1655 127.086 39.5011 126.444 39.7184 127.934C37.1002 129.169 34.0845 129.778 31.9062 127.414C30.8674 128.84 31.0688 130.213 32.786 130.902L32.8602 131.246C32.1712 134.098 30.0353 135.958 27.3429 136.88L22.5146 137.871C27.8782 140.701 33.6605 137.452 33.899 131.384C36.7875 131.691 39.1513 130.997 41.4462 129.253C43.6298 131.182 45.6544 131.665 48.5641 131.352C50.488 131.14 51.7547 130.7 52.2529 128.686C52.979 125.755 51.124 120.137 51.1346 116.915C51.1346 116.035 51.919 115.113 51.8766 114.864H51.8713Z" fill="#20261E"/>
<path d="M110.505 165.595C109.466 165.002 108.538 164.535 107.574 163.958C107.139 163.698 106.132 163.513 105.984 163.364C105.533 162.919 105.883 161.599 104.049 162.225C103.169 162.521 103.445 163.115 103.201 163.364C103.116 163.449 101.526 164.573 101.346 164.689C101.018 164.901 99.7403 165.034 99.0195 165.41C93.163 168.479 92.9033 179.895 97.2758 184.267C97.9701 184.962 101.14 186.811 102.12 187.235C103.318 187.755 104.166 187.961 105.501 187.781C106.636 187.628 111.204 185.073 112.02 184.241C116.255 179.948 116.07 168.77 110.51 165.606L110.505 165.595ZM102.21 164.223L104.06 164.753C103.154 161.944 106.074 162.029 105.125 164.753C105.761 164.233 106.758 163.788 107.24 164.753C106.069 164.795 105.205 165.256 104.728 166.343C104.108 165.352 103.758 165.272 102.793 164.827C102.417 164.652 102.067 164.986 102.215 164.228L102.21 164.223ZM101.087 165.341C102.449 165.15 104.007 165.701 104.07 167.26C103.657 168.41 102.73 168.945 101.95 167.8L103.005 167.132C103.874 165.871 98.2139 166.035 98.2404 168.192C99.0301 168.102 99.9629 167.503 100.62 168.325L96.7193 170.244L95.3307 171.897C95.8289 169.093 98.1026 165.754 101.092 165.336L101.087 165.341ZM95.3254 179.057L97.3553 181.13L100.62 182.232C100.62 183.425 98.8764 183.017 98.2404 182.497C97.5302 183.35 102.745 186.228 103.005 183.557L101.945 182.895C104.728 181.374 104.834 185.248 101.961 185.555C98.6432 185.91 95.9508 181.935 95.3307 179.052L95.3254 179.057ZM101.945 186.34C102.788 185.836 104.171 185.863 104.33 184.622H104.85L105.385 185.545L107.5 186.472C105.639 187.257 103.705 187.606 101.94 186.34H101.945ZM105.115 183.435C105.21 182.444 106.646 182.11 107.24 182.9L106.18 183.562C106.493 186.133 111.83 183.478 110.945 182.502L109.503 183.048L108.83 182.243L111.83 181.135L113.86 179.063C113.754 182.852 107.134 188.878 105.12 183.441L105.115 183.435ZM108.04 181.713C107.828 182.704 108.263 183.133 108.825 183.822L107.5 184.087C108.644 181.745 105.825 180.716 104.717 182.767H104.33C103.609 180.674 100.567 181.978 101.675 184.087L100.355 183.822L101.299 181.962C92.9192 180.504 93.0093 170.127 101.415 168.987C101.288 168.288 101.044 167.535 100.355 167.27L101.68 166.873C100.663 169.533 103.493 169.682 104.855 167.927C105.523 170.153 108.681 169.109 107.51 166.873C110.187 166.799 107.372 167.938 108.151 169.009C108.263 169.162 110.934 169.894 111.729 170.461C116.478 173.869 113.891 181.575 108.045 181.707L108.04 181.713ZM113.854 171.637C112.619 170.132 110.881 168.791 108.825 168.722V167.933L110.945 168.198C110.558 166.428 107.118 165.474 106.18 167.132C109.28 168.627 104.351 169.067 105.311 166.687C107.038 162.415 114.082 168.42 113.854 171.637Z" fill="#20261E"/>
<path d="M9.9004 34.945C10.706 33.4928 10.7431 31.7915 11.554 30.5036C12.8684 30.546 13.9602 30.3923 15.1686 29.8835C15.8788 29.5814 17.2303 28.3942 17.596 28.373C18.9104 28.2935 21.4067 29.8093 23.0444 29.0196C24.2051 28.4578 24.3323 25.5269 23.903 24.451C23.3518 23.0836 17.2621 18.3719 16.1862 19.1086C15.5396 20.0838 16.1597 21.2869 16.0855 22.0978C15.9636 23.3751 13.8966 25.5269 14.9884 27.5727C13.9337 28.2405 12.6193 28.1345 11.4321 28.0497C10.7219 24.663 8.0401 22.9829 6.4342 26.9632C5.247 29.8941 7.5101 30.7527 10.07 30.4718C9.0895 35.1782 4.4732 37.0703 0 36.8318V37.6268C3.869 38.1833 7.6638 38.9836 9.9004 34.9503V34.945ZM20.5216 23.8521C20.6806 23.921 22.1964 25.2089 22.3872 25.4315C24.2846 27.6522 21.253 27.0003 19.8644 26.4968C20.1188 25.8343 20.0711 25.193 20.14 24.5146C20.1665 24.2867 19.9651 23.6136 20.5269 23.8521H20.5216ZM17.6066 23.1472C18.9687 23.1472 20.1718 26.6293 16.8752 25.9191C14.7817 25.4686 16.7268 23.1525 17.6066 23.1472ZM7.4147 28.0868C7.7221 26.5286 8.8298 26.9367 9.5241 27.9543L7.4147 28.0868Z" fill="#20261E"/>
<path d="M80.7881 120.015C80.1415 120.99 80.7616 122.193 80.6874 123.004C80.5655 124.282 78.4985 126.433 79.5903 128.479C78.5356 129.147 77.2212 129.041 76.034 128.956C75.3238 125.569 72.642 123.889 71.0361 127.87C69.8489 130.801 72.112 131.659 74.6719 131.378C73.702 136.085 69.0804 137.977 64.6125 137.733V138.528C68.4815 139.084 72.2763 139.885 74.5129 135.851C75.3185 134.399 75.3556 132.698 76.1665 131.41C77.4809 131.452 78.5727 131.299 79.7811 130.79C80.4913 130.488 81.8428 129.301 82.2085 129.279C83.5229 129.2 86.0192 130.716 87.6569 129.926C88.8176 129.364 88.9448 126.433 88.5155 125.357C87.9643 123.99 81.8746 119.278 80.7987 120.015H80.7881ZM72.0272 128.999C72.3346 127.44 73.4423 127.848 74.1366 128.866L72.0272 128.999ZM81.4877 126.826C79.3942 126.375 81.3393 124.059 82.2191 124.054C83.5812 124.054 84.7843 127.536 81.4877 126.826ZM84.4663 127.403C84.7207 126.741 84.673 126.099 84.7419 125.421C84.7631 125.188 84.567 124.52 85.1288 124.759C85.2878 124.827 86.8036 126.115 86.9944 126.338C88.8918 128.559 85.8602 127.907 84.4716 127.403H84.4663Z" fill="#20261E"/>
<path d="M164.3 27.2969C164.793 27.5089 164.655 30.6571 167.273 31.2083C169.706 31.7171 171.63 30.2172 172.361 27.9912L172.907 27.8269C173.474 30.4822 178.043 31.5475 179.649 29.401C182.15 26.0567 178.17 20.2797 178.207 16.4425C177.242 16.4319 176.866 18.1915 176.877 18.9441C176.903 20.4069 179.309 27.069 178.981 27.5407C172.843 29.0936 173.267 22.5375 172.562 18.5095C172.499 18.1491 172.366 16.4319 171.985 16.4425C170.13 18.8911 171.73 22.0287 171.847 24.7794C171.926 26.592 171.815 27.228 170.061 28.0177C167.628 29.1148 166.081 28.2244 165.763 25.5691C165.561 23.8943 165.763 21.5146 165.763 19.7444C165.763 19.6543 165.413 19.3522 165.492 19.0819C164.422 19.9405 164.082 21.4192 164.13 22.7495C162.116 23.253 158.549 25.6698 158.618 27.9753C158.661 29.4169 164.056 29.3586 164.305 27.2969H164.3ZM164.432 24.3819C164.862 26.7881 162.296 26.1892 160.728 26.2316C160.828 25.3465 164.125 24.0586 164.432 24.3819Z" fill="#20261E"/>
<path d="M85.1547 188.3C83.6495 186.233 82.4729 183.917 81.821 181.442L83.4057 180.774L81.2963 178.124C82.404 177.335 83.9993 180.07 84.736 179.582C85.0328 178.994 84.8632 177.934 85.1388 177.467C85.2819 177.229 85.8861 177.043 86.1935 176.662C87.1634 175.459 85.5257 175.194 85.1441 174.547C84.7996 173.959 84.9957 172.936 84.3332 172.438L81.2963 174.293L83.146 171.505C83.2891 170.874 82.2344 170.784 81.821 170.848C82.4199 167.291 84.0788 164.27 86.5857 161.71C85.584 160.64 83.6018 162.77 82.8757 163.56C81.0737 165.526 79.8176 168.06 78.8477 170.524L75.9963 171.118C75.4769 171.881 78.0898 173.291 77.846 174.293C76.5581 174.293 75.8585 172.973 74.7985 172.448C74.0406 172.915 74.348 174.298 74.0724 174.764C73.8551 175.13 72.5036 175.241 72.8481 176.487C74.1148 177.579 74.4911 178.114 74.666 179.858C76.0652 179.842 76.4627 177.928 77.8407 178.008L75.991 181.183L78.8954 181.85C80.6656 185.279 82.8068 189.668 86.8401 190.717C86.9196 189.62 85.7271 189.117 85.1441 188.311L85.1547 188.3ZM82.351 174.823L84.2007 173.757C83.9463 175.469 84.3385 175.204 85.5204 176.01C85.3084 176.439 84.5134 176.64 84.3332 176.937C83.6601 178.056 85.001 179.195 82.351 177.07L83.1672 176.28C83.1725 175.125 82.1867 175.697 82.351 174.823ZM75.3338 178.522C74.6501 177.446 75.1801 176.662 73.6166 176.275C74.6289 175.474 75.2172 175.252 74.9416 173.757L76.7913 174.955V175.337C75.3232 175.671 76.0917 176.662 77.0616 177.064L75.3391 178.517L75.3338 178.522ZM80.7504 177.324C79.0809 178.766 76.9715 176.28 78.4449 174.886C79.9554 173.455 82.4358 175.872 80.7504 177.324ZM77.3213 171.378L79.4042 171.34C80.3688 168.404 81.7044 165.489 84.0788 163.438C83.6972 164.297 82.9817 165.055 82.5736 165.903C82.2397 166.602 80.7292 171.054 81.0366 171.372H81.821C82.1814 171.743 80.9306 173.248 80.3688 173.238L79.5685 172.438L78.9007 173.233H78.3813L77.316 171.383L77.3213 171.378ZM81.8687 185.762C81.2274 184.824 79.8759 181.463 79.5791 181.161C79.0491 180.626 78.0633 181.22 77.5863 180.504L78.3866 179.052H78.906L79.5738 179.847L80.6285 179.052L81.821 180.509L81.026 180.902C81.4288 183.631 82.7803 185.947 84.0735 188.311C83.3315 187.548 82.4623 186.626 81.8687 185.756V185.762Z" fill="#20261E"/>
<path d="M253.689 22.3678C253.291 21.7265 253.609 20.905 252.995 20.4068L249.958 22.2618C249.735 21.3184 251.945 19.6277 251.691 19.0818C251.251 18.1278 249.497 18.8486 248.882 18.4352C248.733 18.3345 247.663 15.7428 247.35 15.2022C246.126 13.0981 243.502 9.74323 240.953 9.55243C240.709 10.5329 241.563 10.5541 241.918 10.9675C243.757 13.1087 245.23 15.6898 245.919 18.4352C245.813 19.0182 244.112 18.8168 244.393 19.4793C244.684 20.163 246.492 21.0375 246.513 22.1293C245.426 22.8395 244.122 20.322 243.497 20.4227C242.654 20.5605 242.919 22.018 242.676 22.5321C242.474 22.9561 241.494 23.1151 241.329 23.8306C241.128 24.7104 242.432 25.0549 242.755 25.622C243.126 26.2845 242.893 27.3445 243.73 27.8215C244.552 27.053 245.288 25.9665 246.513 25.8446C246.386 27.5565 243.031 28.7702 245.977 29.4327C245.569 31.3566 244.997 33.2646 243.974 34.9606C243.349 35.9941 241.812 37.3615 241.43 38.2466C240.858 39.5716 242.766 38.4798 243.2 38.1618C244.944 36.8898 246.857 34.155 247.88 32.247C248.203 31.6428 248.574 29.9839 248.998 29.6606C249.566 29.2313 251.564 29.5016 251.797 28.7384C252.067 27.8639 249.783 26.8304 249.952 25.7121L252.995 27.5618C253.821 26.3534 253.461 25.2669 254.95 24.4719C255.433 23.0727 254.097 23.0356 253.689 22.3731V22.3678ZM243.603 26.2315C243.592 25.8075 243.698 25.2828 243.476 24.9012C243.211 24.4507 242.013 24.5355 242.278 23.9843C242.532 23.4543 244.138 23.2423 243.603 21.7318L245.453 22.7918L244.647 23.979L245.712 25.1662L243.598 26.2262L243.603 26.2315ZM245.723 19.4793L246.518 19.2143C246.762 19.0659 246.746 18.997 246.735 18.7479C246.661 16.877 244.79 13.5592 243.603 12.0646L244.128 11.9374C245.076 13.4426 246.237 14.6404 247.096 16.2569C248.097 18.1543 247.642 19.898 250.488 19.3521L249.422 20.9368C248.188 20.3644 248.097 20.1842 247.048 21.2018L245.723 19.4793ZM249.433 25.0496C247.324 27.3816 244.976 22.6646 248.007 22.3307C249.359 22.1823 250.551 23.8147 249.433 25.0496ZM250.488 28.6165L248.4 28.6483C247.53 31.5368 246.121 34.4889 243.868 36.5612C244.297 35.4164 245.098 34.5472 245.58 33.3759C245.871 32.671 246.958 29.3055 246.656 28.8709C246.497 28.6377 245.909 28.6907 245.983 28.484L247.043 26.7615L248.23 27.5671L249.417 26.7615L250.477 28.6165H250.488ZM253 24.9065C252.724 25.4524 253.18 26.364 252.47 26.2368L250.753 25.1715L251.829 23.979L250.753 22.7918L252.867 21.7318C252.581 23.1045 253.36 23.2211 254.187 23.9843C253.917 24.3659 253.191 24.5196 252.995 24.9065H253Z" fill="#20261E"/>
<path d="M24.7616 75.5111C23.7546 75.4793 22.5409 77.4562 21.7035 78.0021C20.3838 78.866 17.596 78.8289 16.0272 78.6752C14.1616 78.4897 13.4779 77.9173 13.0433 76.0941C12.5875 74.1861 11.6971 63.0773 11.1194 62.5208C10.7272 62.1445 10.6636 62.6215 10.5311 62.86C9.51884 64.6567 10.5788 66.6601 10.8226 68.5151C11.1777 71.2393 11.4162 77.2336 12.6564 79.396C13.8966 81.5531 18.8574 81.4842 20.8396 80.5885C21.2742 80.3924 21.677 79.714 22.0586 79.7723C22.6098 79.8571 25.5195 82.2792 26.7385 81.4736C26.9929 81.304 27.0989 80.6362 27.3957 80.5885C27.5441 80.562 28.3073 81.0019 28.7525 81.0443C34.9376 81.5743 38.4992 78.9349 34.2857 73.1155L33.6232 73.301C32.7487 75.2991 34.1479 76.1365 34.9429 77.7371C34.7362 78.6964 29.9344 78.8024 29.0493 78.6222C27.1095 78.23 25.7686 75.5482 24.7563 75.5164L24.7616 75.5111ZM23.3094 77.7477C24.6397 76.1153 24.9418 77.9385 25.6891 78.9349C25.4559 79.1204 23.3147 78.1187 23.3094 77.7477Z" fill="#20261E"/>
<path d="M131.599 127.144C131.959 129.01 132.924 130.944 134.975 131.32C136.761 131.644 143.328 131.511 144.441 130.054C146.248 127.685 144.144 120.265 144.038 117.222C143.996 116.003 144.642 114.832 144.589 114.307C144.531 113.703 143.164 112.696 143.254 111.779L141.77 114.026C142.331 114.837 142.49 115.797 142.649 116.756C143.27 120.524 143.609 124.372 144.017 128.167C141.218 128.951 134.371 130.303 132.913 127.022C132.373 125.803 131.61 119.978 131.339 119.724C130.921 119.327 130.889 119.814 130.783 120.09C130.534 120.758 130.597 122.496 130.507 122.597C130.364 122.761 128.483 123.392 127.64 124.362C123.76 128.819 128.435 130.663 131.604 127.139L131.599 127.144ZM127.894 126.614C127.47 125.522 130.634 123.779 131.069 124.229L131.09 125.952C130.099 126.524 129.034 126.715 127.894 126.614Z" fill="#20261E"/>
<path d="M66.9918 26.237C67.3522 28.1026 68.3168 30.0371 70.3679 30.4134C72.154 30.7367 78.7207 30.6042 79.8337 29.1467C81.641 26.7776 79.5369 19.3576 79.4309 16.3154C79.3885 15.0964 80.0351 13.9251 79.9821 13.4004C79.9238 12.7962 78.5564 11.7892 78.6465 10.8723L77.1625 13.1195C77.7243 13.9304 77.8833 14.8897 78.0423 15.849C78.6624 19.6173 79.0016 23.4651 79.4097 27.2599C76.6113 28.0443 69.7637 29.3958 68.3062 26.1151C67.7656 24.8961 67.0024 19.0714 66.7321 18.817C66.3134 18.4195 66.2816 18.9071 66.1756 19.1827C65.9265 19.8505 65.9901 21.5889 65.9 21.6896C65.7569 21.8539 63.8754 22.4846 63.0327 23.4545C59.1531 27.9118 63.8277 29.7562 66.9971 26.2317L66.9918 26.237ZM66.4618 23.3167L66.483 25.0392C65.4919 25.6116 64.4266 25.8024 63.2871 25.7017C62.8631 24.6099 66.0272 22.8662 66.4618 23.3167Z" fill="#20261E"/>
<path d="M127.555 80.4508C129.251 79.0304 128.589 74.9971 128.393 73.0149C128.122 70.296 126.819 66.9305 128.128 64.5455L126.437 61.7259C124.725 63.5332 125.669 64.095 125.965 65.9023C126.612 69.8667 127.073 73.8894 127.508 77.8803C126.649 78.9562 125.319 78.6594 124.094 78.6912C123.172 75.4317 120.628 73.4283 118.959 77.557C117.772 80.4879 120.035 81.3465 122.595 81.0656C121.625 85.772 117.003 87.6641 112.535 87.4203V88.2153C119.006 89.7894 122.743 87.8655 123.909 81.1822C124.985 80.9437 126.654 81.2193 127.555 80.4561V80.4508ZM119.95 78.6753C120.257 77.1171 121.365 77.5252 122.059 78.5428L119.95 78.6753Z" fill="#20261E"/>
<path d="M35.6157 16.7235C36.2305 16.8931 36.6439 16.591 37.211 16.9408C37.8364 17.3224 39.4052 19.3205 39.9776 20.0148C40.5235 20.6826 43.2795 24.3396 43.3802 24.8378C43.5657 25.7282 41.504 28.2139 40.7567 28.7227C40.4175 28.9559 39.596 29.0354 39.4953 29.1838C39.2356 29.5707 38.9971 31.1077 39.8557 31.2614C40.3857 31.3568 44.6363 30.8851 45.0974 30.6784C45.6221 30.4452 46.0673 28.5531 46.0514 27.9754C46.0196 26.7458 44.9331 25.5162 45.0232 24.2707C45.0974 23.269 45.85 21.4882 46.0355 20.2321C46.3111 18.3983 46.0461 15.69 46.3906 14.2325C46.5178 13.7025 47.1273 13.2838 47.1326 12.8545C47.1326 12.5895 45.8076 10.4112 45.6751 9.81226L44.313 11.7945C45.6963 15.4356 44.9172 19.5961 44.2176 23.3114L39.3257 16.6864C38.6102 16.1405 34.3702 11.2009 33.6282 11.9217C33.1989 14.2537 32.918 15.9603 35.6104 16.7129L35.6157 16.7235ZM45.0126 28.6167L42.3679 28.8817L43.9579 26.237C44.2653 26.0303 45.214 28.4365 45.0126 28.6167Z" fill="#20261E"/>
<path d="M111.003 115.145C111.13 114.615 111.745 114.196 111.745 113.767C111.745 113.502 110.42 111.323 110.288 110.724L108.926 112.707C110.309 116.348 109.53 120.508 108.83 124.224L103.938 117.599C103.223 117.053 98.9827 112.113 98.2407 112.834C97.8114 115.166 97.5305 116.872 100.223 117.625C100.838 117.795 101.251 117.493 101.818 117.842C102.444 118.224 104.012 120.222 104.585 120.916C105.131 121.584 107.887 125.241 107.987 125.739C108.173 126.63 106.111 129.115 105.364 129.624C105.025 129.857 104.203 129.937 104.103 130.085C103.843 130.472 103.604 132.009 104.463 132.163C104.993 132.258 109.244 131.787 109.705 131.58C110.229 131.347 110.675 129.455 110.659 128.877C110.627 127.647 109.54 126.418 109.63 125.172C109.705 124.171 110.457 122.39 110.643 121.134C110.918 119.3 110.653 116.592 110.998 115.134L111.003 115.145ZM109.62 129.524L106.975 129.789L108.565 127.144C108.873 126.937 109.821 129.343 109.62 129.524Z" fill="#20261E"/>
<path d="M173.49 115.145C173.617 114.615 174.232 114.196 174.232 113.767C174.232 113.502 172.907 111.323 172.775 110.724L171.413 112.707C172.86 116.459 171.921 120.657 171.317 124.494C168.598 120.927 165.773 116.395 162.175 113.645C161.677 113.263 161.152 112.76 160.463 112.839C160.034 115.171 159.753 116.878 162.445 117.63C163.06 117.8 163.473 117.498 164.04 117.848C164.666 118.229 166.235 120.227 166.807 120.922C167.406 121.653 170.273 125.469 170.4 126.057C170.554 126.768 168.498 129.195 167.851 129.635C167.512 129.868 166.69 129.948 166.59 130.096C166.33 130.483 166.091 132.02 166.95 132.174C167.48 132.269 171.731 131.797 172.192 131.591C174.132 130.727 171.868 126.688 171.921 125.723C171.974 124.764 172.928 122.506 173.135 121.144C173.411 119.31 173.146 116.602 173.49 115.145ZM169.462 129.789L171.185 127.409L171.847 129.524L169.462 129.789Z" fill="#20261E"/>
<path d="M101.553 16.697C100.838 16.1511 96.5977 11.2115 95.8557 11.9323C95.4264 14.2643 95.1455 15.9709 97.8379 16.7235C98.4527 16.8931 98.8661 16.591 99.4332 16.9408C100.059 17.3224 101.627 19.3205 102.2 20.0148C102.746 20.6826 105.502 24.3396 105.602 24.8378C105.788 25.7282 103.726 28.2139 102.979 28.7227C102.64 28.9559 101.818 29.0354 101.718 29.1838C101.458 29.5707 101.219 31.1077 102.078 31.2614C102.608 31.3568 106.859 30.8851 107.32 30.6784C107.844 30.4452 108.29 28.5531 108.274 27.9754C108.242 26.7458 107.155 25.5162 107.245 24.2707C107.32 23.269 108.072 21.4882 108.258 20.2321C108.533 18.3983 108.268 15.69 108.613 14.2325C108.74 13.7025 109.35 13.2838 109.355 12.8545C109.355 12.5895 108.03 10.4112 107.897 9.81226L106.535 11.7945C107.919 15.4356 107.139 19.5961 106.44 23.3114L101.548 16.6864L101.553 16.697ZM107.24 28.6167L104.595 28.8817L106.185 26.237C106.493 26.0303 107.442 28.4365 107.24 28.6167Z" fill="#20261E"/>
<path d="M45.6859 81.0709C50.5831 80.7105 52.2367 77.3079 50.0955 72.9354C46.9685 66.5595 42.5642 77.1489 47.5356 77.1171C48.8553 77.1065 48.6963 76.2585 49.7828 76.0306C49.7139 76.4493 49.9312 77.2708 49.7404 77.5782C49.698 77.6524 48.4048 78.2142 48.1928 78.2831C46.5975 78.7813 42.3787 79.1629 41.1915 77.8697C40.105 76.6878 39.946 70.4656 39.6863 68.5152C39.4213 66.5171 39.1033 64.4554 38.5309 62.5209C36.8667 64.7363 38.2977 67.9958 38.6263 70.6299C39.3418 76.3645 38.0274 81.6327 45.6859 81.0656V81.0709ZM46.8572 74.5784C46.4385 74.3876 46.7883 73.4866 46.9049 73.4124C48.2246 72.5909 50.0902 75.3416 46.8572 74.5784Z" fill="#20261E"/>
<path d="M128.626 28.0336C130.343 28.2774 131.509 27.3075 132.654 26.2316C133.332 29.7879 135.346 30.8426 138.85 30.4398C143.916 29.8568 143.673 25.5585 140.726 22.5269C140.127 22.4103 140.392 22.7866 140.297 23.147C139.602 25.7546 141.139 25.3412 141.653 27.5566C139.47 28.076 135.876 28.8869 134.361 26.7775C133.263 25.2511 132.728 19.1561 132.378 18.8222C131.96 18.4247 131.928 18.9123 131.822 19.1879C131.573 19.8557 131.636 21.5941 131.546 21.6948C131.467 21.7902 129.856 22.3626 129.336 22.7919C128.006 23.8837 125.817 27.6414 128.615 28.0389L128.626 28.0336ZM132.129 23.3166L132.15 25.0391C131.159 25.6115 130.094 25.8023 128.955 25.7016C128.531 24.6098 131.695 22.8661 132.129 23.3166Z" fill="#20261E"/>
<path d="M23.0073 125.453C22.843 125.077 21.6876 123.068 21.1841 123.439C19.981 125.941 21.5074 126.095 22.472 128.077C22.4031 129.036 16.6897 129.126 15.7728 128.983C14.893 128.845 13.7164 128.061 13.1069 127.414C12.0681 128.84 12.2695 130.213 13.9867 130.902L14.0609 131.246C13.3719 134.098 11.236 135.958 8.54363 136.88L3.71533 137.871C9.07893 140.701 14.8612 137.452 15.0997 131.384C19.2019 131.596 25.5619 131.352 23.0126 125.453H23.0073Z" fill="#20261E"/>
<path d="M250.107 130.075C251.559 128.389 250.573 124.202 248.368 123.439C247.425 125.999 249.057 126.375 249.688 128.469C247.965 128.935 244.017 129.693 242.835 128.045L240.291 112.85C238.637 114.996 240.068 118.107 240.386 120.694C240.72 123.375 240.551 129.539 243.148 130.907C244.769 131.76 248.888 131.49 250.101 130.075H250.107Z" fill="#20261E"/>
<path d="M243.052 86.7311C245.845 84.4574 248.071 77.472 245.601 74.4245C242.755 70.9159 239.729 79.4542 243.513 79.6556C244.546 79.7086 244.864 78.8076 245.723 78.6751C245.225 82.2367 241.382 86.2541 237.847 86.8212C237.301 86.9113 234.858 86.7099 234.869 87.2823C237.307 88.7981 240.789 88.5649 243.047 86.7311H243.052ZM242.813 76.6876L243.773 75.7813L244.923 76.6876C244.255 77.4667 243.486 77.472 242.813 76.6876Z" fill="#20261E"/>
<path d="M152.921 79.8732C153.885 79.8361 154.081 79.0358 154.903 78.9457C154.405 82.5072 150.562 86.5247 147.027 87.0918C146.481 87.1819 144.038 86.9805 144.048 87.5529C145.803 88.7984 148.824 88.7613 150.763 87.9186C154.632 86.2491 157.532 78.0923 154.776 74.695C151.892 71.144 148.765 80.0269 152.915 79.8785L152.921 79.8732ZM151.993 76.9529L152.952 76.0465L154.102 76.9529C153.435 77.732 152.666 77.7373 151.993 76.9529Z" fill="#20261E"/>
<path d="M128.165 87.5477C129.919 88.7932 132.94 88.7561 134.88 87.9134C138.749 86.2439 141.648 78.0872 138.892 74.6899C136.009 71.1389 132.882 80.0217 137.032 79.8733C137.996 79.8362 138.193 79.0359 139.014 78.9458C138.516 82.5074 134.673 86.5248 131.138 87.0919C130.592 87.182 128.149 86.9806 128.16 87.553L128.165 87.5477ZM136.104 76.953L137.064 76.0467L138.214 76.953C137.546 77.7321 136.777 77.7374 136.104 76.953Z" fill="#20261E"/>
<path d="M144.446 81.0603C144.95 81.0921 145.061 80.5833 145.193 80.2176C146.402 76.7991 144.632 69.4321 144.314 65.5631C144.239 64.6462 144.361 63.7028 144.314 62.7859C142.761 63.1887 142.925 65.8546 142.978 67.1637C143.121 70.5981 143.99 74.5148 144.308 78.0128C144.345 78.4421 144.186 81.0656 144.446 81.0603Z" fill="#20261E"/>
<path d="M113.855 81.0601C115.455 75.1506 112.726 68.8065 112.8 62.7857C112.19 62.6585 112.376 62.8546 112.206 63.1249C111.756 63.8404 111.443 64.9852 111.459 65.8332C111.528 70.476 113.383 75.8873 113.335 80.6679L113.86 81.0601H113.855Z" fill="#20261E"/>
<path d="M100.891 62.5209C100.61 63.5756 99.9632 64.36 99.9261 65.5207C99.8307 68.3668 100.832 72.8718 101.15 75.8981C101.309 77.398 101.235 79.2053 101.415 80.6681C101.458 81.0391 101.569 81.4366 101.94 81.0603C103.297 76.1631 101.908 70.8154 101.415 65.8281C101.315 64.784 101.834 63.1092 100.885 62.5209H100.891Z" fill="#20261E"/>
<path d="M182.972 163.427C182.691 164.482 182.045 165.266 182.008 166.427C181.912 169.273 182.914 173.778 183.232 176.805C183.391 178.304 183.317 180.112 183.497 181.575C183.539 181.946 183.651 182.343 184.022 181.967C185.378 177.07 183.99 171.722 183.497 166.735C183.396 165.69 183.916 164.016 182.967 163.427H182.972Z" fill="#20261E"/>
<path d="M184.562 11.9323C184.281 12.987 183.635 13.7714 183.598 14.9321C183.502 17.7782 184.504 22.2832 184.822 25.3095C184.981 26.8094 184.907 28.6166 185.087 30.0794C185.129 30.4504 185.241 30.848 185.612 30.4717C186.968 25.5745 185.58 20.2268 185.087 15.2395C184.986 14.1954 185.506 12.5206 184.557 11.9323H184.562Z" fill="#20261E"/>
<path d="M56.6678 112.844C56.3869 113.899 55.7403 114.684 55.7032 115.844C55.6078 118.69 56.6095 123.195 56.9275 126.222C57.0865 127.722 57.0123 129.529 57.1925 130.992C57.2349 131.363 57.3462 131.76 57.7172 131.384C59.074 126.487 57.6854 121.139 57.1925 116.152C57.0918 115.108 57.6112 113.433 56.6625 112.844H56.6678Z" fill="#20261E"/>
<path d="M235.399 62.2559C235.118 63.3106 234.471 64.095 234.434 65.2557C234.339 68.1018 235.34 72.6068 235.658 75.6331C235.817 77.133 235.743 78.9403 235.923 80.4031C235.966 80.7741 236.077 81.1716 236.448 80.7953C237.805 75.8981 236.416 70.5504 235.923 65.5631C235.823 64.519 236.342 62.8442 235.393 62.2559H235.399Z" fill="#20261E"/>
<path d="M148.019 30.4717C148.469 30.5618 148.56 30.3604 148.756 30.0212C150.118 27.6203 148.586 19.5855 148.284 16.5698C148.173 15.4515 148.146 14.0258 148.226 12.8916L147.489 12.4623C147.415 13.5594 146.662 14.3385 146.683 15.4939C146.752 19.2198 147.743 23.6029 148.014 27.4295C148.082 28.4365 147.971 29.4647 148.014 30.4717H148.019Z" fill="#20261E"/>
<path d="M148.262 115.892C148.347 119.448 149.454 123.884 149.868 127.541C149.963 128.374 149.55 129.434 150.265 130.048C151.092 130.038 150.975 125.591 150.938 124.876C150.721 120.863 149.354 116.888 149.603 112.839C148.416 112.977 148.241 114.954 148.262 115.887V115.892Z" fill="#20261E"/>
<path d="M114.899 115.892C114.984 119.448 116.091 123.884 116.505 127.541C116.6 128.374 116.187 129.434 116.902 130.048C117.729 130.038 117.612 125.591 117.575 124.876C117.358 120.863 115.991 116.888 116.24 112.839C115.053 112.977 114.878 114.954 114.899 115.887V115.892Z" fill="#20261E"/>
<path d="M85.2618 26.6345C85.3572 27.4666 84.9438 28.5266 85.6593 29.1414C86.4861 29.1308 86.3695 24.6841 86.3324 23.9686C86.1151 19.9565 84.7477 15.9815 84.9968 11.9323C83.8096 12.0701 83.6347 14.047 83.6559 14.9798C83.7407 18.5361 84.8484 22.9722 85.2618 26.6292V26.6345Z" fill="#20261E"/>
<path d="M51.8975 26.6345C51.9929 27.4666 51.5795 28.5266 52.295 29.1414C53.1218 29.1308 53.0052 24.6841 52.9681 23.9686C52.7508 19.9565 51.3834 15.9815 51.6325 11.9323C50.4453 12.0701 50.2704 14.047 50.2916 14.9798C50.3764 18.5361 51.4841 22.9722 51.8975 26.6292V26.6345Z" fill="#20261E"/>
<path d="M186.29 103.58C183.576 107.099 186.247 110.634 190.572 109.458C190.736 109.415 192.438 108.711 191.971 108.34H188.134C187.827 108.34 186.539 107.619 186.29 107.274C185.283 105.896 186.284 104.529 187.551 103.782C188.85 103.013 190.996 103.389 190.917 101.72C189.141 102.197 185.77 100.374 185.097 102.653C184.843 103.517 186.814 102.51 187.212 102.785C187.154 103.209 186.629 103.151 186.295 103.585L186.29 103.58Z" fill="#20261E"/>
<path d="M124.062 29.1574C124.714 27.7953 125.191 25.3997 123.914 24.2602C121.773 22.3469 120.008 28.4419 123.49 27.5674C123.797 27.4879 123.49 26.9208 123.925 27.0321C123.061 29.9524 120.215 31.3516 117.305 31.0018V31.7968C120.368 32.295 122.61 32.2049 124.068 29.1574H124.062ZM122.992 26.2318L122.34 25.8343L122.737 25.4368L123.389 25.8343L122.992 26.2318Z" fill="#20261E"/>
<path d="M140.868 61.9853L146.64 60.3476L146.953 58.8106C145.458 59.3512 143.216 59.7328 142.718 57.7559L143.879 57.5015L144.345 58.2382L144.965 58.2806C145.707 57.9785 145.379 56.256 144.663 55.9274C142.374 56.1924 140.195 58.1587 142.453 60.1303C141.451 60.2681 141.165 61.1638 140.863 61.9853H140.868Z" fill="#20261E"/>
<path d="M144.838 11.6621C146.168 11.4236 147.287 10.6869 148.596 10.2629C149.799 9.87066 150.965 10.4325 150.928 8.49266C149.237 8.74176 147.859 9.18696 146.698 7.56516C146.698 7.35316 147.674 6.96096 147.896 6.98746C148.479 7.05636 148.4 8.21176 148.94 7.95736C149.635 7.63406 149.333 6.18716 149.041 5.61476C146.974 5.06886 144.313 7.82486 146.428 9.42016V9.81236C145.161 9.83356 145.267 10.7293 144.843 11.6674L144.838 11.6621Z" fill="#20261E"/>
<path d="M241.6 110.968C243.354 110.693 245.156 108.61 244.144 106.866C243.079 105.027 240.731 108.191 240.392 109.378L238.568 108.981L237.508 111.647L238.033 111.779C238.335 110.046 240.126 111.196 241.595 110.968H241.6ZM242.904 107.852L243.598 108.467C242.994 109.246 242.194 109.506 241.218 109.389C241.499 108.854 242.231 107.704 242.904 107.847V107.852Z" fill="#20261E"/>
<path d="M104.734 56.4208C103.154 54.8573 101.601 58.8535 100.976 59.0496C100.43 59.2192 99.7833 58.615 99.301 58.9224C98.7869 59.7704 98.1615 60.6767 98.2463 61.7208C99.831 59.5902 99.7144 61.0371 101.543 60.9364C103.642 60.8198 106.498 58.1592 104.739 56.4155L104.734 56.4208ZM101.946 59.3411C101.967 58.4136 104.066 56.9667 104.325 58.1539C104.474 58.8429 102.455 59.3835 101.946 59.3411Z" fill="#20261E"/>
<path d="M56.7529 109.373C56.207 109.542 55.5604 108.938 55.0781 109.246C54.564 110.094 53.9386 111 54.0234 112.044C55.6081 109.913 55.4915 111.36 57.32 111.26C59.4188 111.143 62.2755 108.482 60.5159 106.739C58.9365 105.175 57.3836 109.171 56.7582 109.368L56.7529 109.373ZM57.7281 109.659C57.7493 108.732 59.8481 107.285 60.1078 108.472C60.2562 109.161 58.2369 109.701 57.7281 109.659Z" fill="#20261E"/>
<path d="M185.208 10.3531C187.307 10.2365 190.164 7.57592 188.399 5.83222C186.82 4.26872 185.267 8.26492 184.641 8.46102C184.095 8.63062 183.449 8.02642 182.967 8.33382C182.452 9.18182 181.827 10.0881 181.912 11.1322C183.497 9.00162 183.38 10.4485 185.208 10.3478V10.3531ZM187.996 7.56532C188.145 8.25432 186.125 8.79492 185.617 8.75252C185.638 7.82502 187.737 6.37812 187.996 7.56532Z" fill="#20261E"/>
<path d="M183.056 159.961C182.51 160.131 181.864 159.527 181.382 159.834C180.867 160.682 180.242 161.589 180.327 162.633C181.912 160.502 181.795 161.949 183.623 161.848C185.722 161.732 188.579 159.071 186.814 157.327C185.235 155.764 183.682 159.76 183.056 159.956V159.961ZM184.026 160.248C184.047 159.32 186.146 157.873 186.406 159.06C186.554 159.749 184.535 160.29 184.026 160.248Z" fill="#20261E"/>
<path d="M236.289 60.6502C238.213 60.47 240.927 57.82 239.242 56.1558C237.662 54.5923 236.109 58.5885 235.484 58.7846C234.938 58.9542 234.291 58.35 233.809 58.6574C233.295 59.5054 232.67 60.4117 232.754 61.4558C234.291 59.2881 234.445 60.8251 236.295 60.6502H236.289ZM238.833 58.2758L236.454 59.0708C236.782 57.9419 238.452 56.5109 238.833 58.2758Z" fill="#20261E"/>
<path d="M17.7448 71.2607C18.2748 71.3349 18.1794 71.3137 18.3437 70.9321C19.091 69.1778 17.8349 66.9783 18.402 65.1657C18.8419 64.2912 21.3223 64.3866 22.2127 64.3442C23.3575 61.6571 18.5928 59.7544 18.5345 63.316C18.7412 63.5492 20.1245 62.1447 20.3842 63.051C15.5824 63.8407 18.1211 67.9694 17.7395 71.266L17.7448 71.2607Z" fill="#20261E"/>
<path d="M162.499 17.0149C163.484 16.3736 164.083 14.932 165.223 15.6422C165.631 14.2536 164.613 12.9445 164.921 11.3068C162.764 9.73274 160.331 13.9303 163.368 14.9744C162.472 15.9867 161.232 16.5485 160.167 17.3382C159.87 17.5608 159.509 17.3382 159.668 18.0219C160.05 18.3187 162.059 17.3011 162.499 17.0149ZM163.113 12.8544V12.4622H164.168V13.5169H163.776L163.113 12.8544Z" fill="#20261E"/>
<path d="M17.1347 14.8952C18.1205 14.2539 18.7194 12.8123 19.8589 13.5225C20.267 12.1339 19.2494 10.8248 19.5568 9.18708C17.3997 7.60768 14.967 11.8106 18.0039 12.8547C17.1082 13.867 15.868 14.4288 14.8027 15.2185C14.5059 15.4411 14.1455 15.2185 14.3045 15.9022C14.6861 16.199 16.6948 15.1814 17.1347 14.8952ZM17.7442 10.7347V10.3425H18.7989V11.3972H18.4067L17.7442 10.7347Z" fill="#20261E"/>
<path d="M130.725 16.4851C131.71 15.8438 132.309 14.4022 133.449 15.1124C133.857 13.7238 132.839 12.4147 133.147 10.777C130.99 9.19764 128.557 13.4005 131.594 14.4446C130.698 15.4569 129.458 16.0187 128.393 16.8084C128.096 17.031 127.735 16.8084 127.894 17.4921C128.276 17.7889 130.285 16.7713 130.725 16.4851ZM131.339 12.3246V11.9324H132.394V12.9871H132.002L131.339 12.3246Z" fill="#20261E"/>
<path d="M124.953 170.164C124.656 170.386 124.295 170.164 124.454 170.847C124.836 171.144 126.845 170.127 127.285 169.84C128.27 169.199 128.869 167.758 130.009 168.468C130.417 167.079 129.399 165.77 129.707 164.132C127.55 162.553 125.117 166.756 128.154 167.8C127.258 168.812 126.018 169.374 124.953 170.164ZM127.894 165.675V165.282H128.949V166.337H128.557L127.894 165.675Z" fill="#20261E"/>
<path d="M165.997 62.8972C165.7 63.1198 165.339 62.8972 165.498 63.5809C165.88 63.8777 167.889 62.8601 168.329 62.5739C169.314 61.9326 169.913 60.4911 171.053 61.2013C171.461 59.8127 170.443 58.5036 170.751 56.8659C168.594 55.2865 166.161 59.4893 169.198 60.5334C168.302 61.5457 167.062 62.1075 165.997 62.8972ZM168.938 58.4081V58.0159H169.993V59.0706H169.601L168.938 58.4081Z" fill="#20261E"/>
<path d="M79.4099 116.395C79.1131 116.618 78.7527 116.395 78.9117 117.079C79.2933 117.376 81.302 116.358 81.7419 116.072C82.7277 115.431 83.3266 113.989 84.4661 114.699C84.8742 113.311 83.8566 112.001 84.164 110.364C82.0069 108.784 79.5742 112.987 82.6111 114.031C81.7154 115.044 80.4752 115.605 79.4099 116.395ZM82.3514 111.911V111.519H83.4061V112.574H83.0139L82.3514 111.911Z" fill="#20261E"/>
<path d="M144.568 52.3236C143.673 53.3359 142.433 53.8977 141.367 54.6874C141.07 54.91 140.71 54.6874 140.869 55.3711C141.251 55.6679 143.259 54.6503 143.699 54.3641C144.685 53.7228 145.284 52.2812 146.423 52.9914C146.831 51.6028 145.814 50.2937 146.121 48.656C143.964 47.0766 141.531 51.2795 144.568 52.3236ZM145.369 49.8061V50.8608H144.977L144.314 50.1983V49.8061H145.369Z" fill="#20261E"/>
<path d="M13.2019 112.484C11.0448 110.904 8.61207 115.107 11.649 116.151C10.7533 117.164 9.51307 117.725 8.44777 118.515C8.15097 118.738 7.79057 118.515 7.94957 119.199C8.33117 119.496 10.3399 118.478 10.7798 118.192C11.7656 117.551 12.3645 116.109 13.504 116.819C13.9121 115.431 12.8945 114.121 13.2019 112.484ZM12.444 114.694H12.0518L11.3893 114.031V113.639H12.444V114.694Z" fill="#20261E"/>
<path d="M127.094 57.8834C126.198 58.8957 124.958 59.4575 123.893 60.2472C123.596 60.4698 123.235 60.2472 123.394 60.9309C123.776 61.2277 125.785 60.2101 126.225 59.9239C127.21 59.2826 127.809 57.841 128.949 58.5512C129.357 57.1626 128.339 55.8535 128.647 54.2158C126.49 52.6364 124.057 56.8393 127.094 57.8834ZM127.894 55.3712V56.4259H127.502L126.839 55.7634V55.3712H127.894Z" fill="#20261E"/>
<path d="M114.125 136.678C114.3 136.843 117.045 135.64 117.554 135.481C118.392 135.216 119.822 135.592 119.838 134.32C119.849 133.445 119.139 134.071 118.508 134.05C117.374 134.018 116.012 134.246 115.98 132.709C116.764 132.661 117.517 132.555 117.575 133.504C117.808 133.689 119.065 132.232 117.936 131.394C117.024 130.721 114.803 132.29 114.671 133.371L115.45 135.083C114.692 135.173 114.157 135.931 114.13 136.678H114.125Z" fill="#20261E"/>
<path d="M147.488 136.678C147.663 136.843 150.408 135.64 150.917 135.481C151.755 135.216 153.186 135.592 153.201 134.32C153.212 133.445 152.502 134.071 151.871 134.05C150.737 134.018 149.375 134.246 149.343 132.709C150.127 132.661 150.88 132.555 150.938 133.504C151.172 133.689 152.428 132.232 151.299 131.394C150.387 130.721 148.166 132.29 148.034 133.371L148.813 135.083C148.055 135.173 147.52 135.931 147.493 136.678H147.488Z" fill="#20261E"/>
<path d="M49.5178 35.7667C49.6927 35.931 52.4381 34.7279 52.9469 34.5689C53.7843 34.3039 55.2153 34.6802 55.2312 33.4082C55.2418 32.5337 54.5316 33.1591 53.9009 33.1379C52.7667 33.1061 51.4046 33.334 51.3728 31.797C52.1572 31.7493 52.9098 31.6433 52.9681 32.592C53.2013 32.7775 54.4574 31.32 53.3285 30.4826C52.4169 29.8095 50.1962 31.3783 50.0637 32.4595L50.8428 34.1714C50.0849 34.2615 49.5496 35.0194 49.5231 35.7667H49.5178Z" fill="#20261E"/>
<path d="M82.8818 35.7667C83.0567 35.931 85.8021 34.7279 86.3109 34.5689C87.1483 34.3039 88.5793 34.6802 88.5952 33.4082C88.6058 32.5337 87.8956 33.1591 87.2649 33.1379C86.1307 33.1061 84.7686 33.334 84.7368 31.797C85.5212 31.7493 86.2738 31.6433 86.3321 32.592C86.5653 32.7775 87.8214 31.32 86.6925 30.4826C85.7809 29.8095 83.5602 31.3783 83.4277 32.4595L84.2068 34.1714C83.4489 34.2615 82.9136 35.0194 82.8871 35.7667H82.8818Z" fill="#20261E"/>
<path d="M170.766 156.039C168.068 154.985 166.097 153.866 165.233 157.603C166.038 157.513 166.266 156.808 167.21 156.802C167.416 156.802 169.202 157.046 168.672 157.603C167.824 157.566 164.024 159.866 166.351 159.664C167.793 159.543 171.2 157.91 170.766 156.045V156.039Z" fill="#20261E"/>
<path d="M227.248 59.8075C228.69 59.6856 232.098 58.0532 231.663 56.1876C228.965 55.1329 226.994 54.0146 226.13 57.7511C226.935 57.661 227.163 56.9561 228.107 56.9508C228.313 56.9508 230.1 57.1946 229.57 57.7511C228.722 57.714 224.921 60.0142 227.248 59.8128V59.8075Z" fill="#20261E"/>
<path d="M72.3507 60.0724C73.7923 59.9505 77.2002 58.3181 76.7656 56.4525C74.0679 55.3978 72.0963 54.2795 71.2324 58.016C72.038 57.9259 72.2659 57.221 73.2093 57.2157C73.416 57.2157 75.2021 57.4595 74.6721 58.016C73.8241 57.9789 70.024 60.2791 72.3507 60.0777V60.0724Z" fill="#20261E"/>
<path d="M46.8679 108.605C47.6735 108.514 47.9014 107.81 48.8448 107.804C49.0515 107.804 50.8376 108.048 50.3076 108.605C49.4596 108.567 45.6595 110.868 47.9862 110.666C49.4278 110.544 52.8357 108.912 52.4011 107.046C49.7034 105.992 47.7318 104.873 46.8679 108.61V108.605Z" fill="#20261E"/>
<path d="M232.018 110.661C233.46 110.539 236.868 108.906 236.433 107.041C233.735 105.986 231.764 104.868 230.9 108.604C231.706 108.514 231.933 107.809 232.877 107.804C233.084 107.804 234.87 108.048 234.34 108.604C233.492 108.567 229.691 110.867 232.018 110.666V110.661Z" fill="#20261E"/>
<path d="M208.979 118.34C210.42 118.218 213.828 116.586 213.394 114.72C210.696 113.666 208.724 112.547 207.861 116.284C208.666 116.194 208.894 115.489 209.838 115.484C210.044 115.484 211.83 115.727 211.3 116.284C210.452 116.247 206.652 118.547 208.979 118.346V118.34Z" fill="#20261E"/>
<path d="M94.7954 58.0107C93.9474 57.9736 90.1473 60.2738 92.474 60.0724C93.9156 59.9505 97.3235 58.3181 96.8889 56.4525C94.1912 55.3978 92.2196 54.2795 91.3557 58.016C92.1613 57.9259 92.3892 57.221 93.3326 57.2157C93.5393 57.2157 95.3254 57.4595 94.7954 58.016V58.0107Z" fill="#20261E"/>
<path d="M36.8241 58.5565L36.0132 61.4556C36.6492 61.5351 36.9831 60.9097 37.0891 60.4062C39.7709 61.763 43.2265 61.0846 44.2176 58.0159C42.935 58.2226 42.0075 59.2508 40.6083 59.3197C39.3522 59.3833 38.0537 58.6466 36.8241 58.5512V58.5565Z" fill="#20261E"/>
<path d="M159.689 110.465C162.371 111.822 165.826 111.143 166.817 108.074C165.535 108.281 164.607 109.309 163.208 109.378C161.952 109.442 160.654 108.705 159.424 108.61L158.613 111.509C159.249 111.588 159.583 110.963 159.689 110.459V110.465Z" fill="#20261E"/>
<path d="M95.0818 9.28758C97.7636 10.6444 101.219 9.96598 102.21 6.89728C100.928 7.10398 100 8.13218 98.601 8.20108C97.3449 8.26468 96.0464 7.52798 94.8168 7.43258L94.0059 10.3317C94.6419 10.4112 94.9758 9.78578 95.0818 9.28228V9.28758Z" fill="#20261E"/>
<path d="M111.898 61.196C112.397 61.2437 113.451 60.9257 113.785 60.5918C114.692 59.6855 114.612 56.8977 113.478 56.1451C111.156 54.6028 108.66 60.8939 111.898 61.196ZM111.914 57.7881C112.264 57.6715 112.746 57.6874 113.064 57.8782C113.981 58.8481 113.515 59.4046 112.328 59.553C110.6 59.7703 111.209 58.0213 111.909 57.7881H111.914Z" fill="#20261E"/>
<path d="M136.555 67.4767C137.461 66.5704 137.381 63.7826 136.247 63.03C133.926 61.4877 131.429 67.7788 134.668 68.0809C135.166 68.1286 136.221 67.8106 136.555 67.4767ZM134.689 64.6783C135.039 64.5617 135.521 64.5776 135.839 64.7684C136.756 65.7383 136.29 66.2948 135.102 66.4432C133.375 66.6605 133.984 64.9115 134.684 64.6783H134.689Z" fill="#20261E"/>
<path d="M138.478 185.677L136.506 184.352L135.346 186.297L137.079 187.76L138.377 186.488L140.434 187.516L141.557 185.953L139.676 184.092L138.478 185.677Z" fill="#20261E"/>
<path d="M169.192 65.9608L167.21 64.6517L166.012 66.3583L167.793 68.049L169.086 66.7611L171.148 67.7999L172.261 65.9608L170.39 64.6305L169.192 65.9608Z" fill="#20261E"/>
<path d="M224.397 21.2022L226.268 22.5113L227.222 20.969C228.027 20.5662 228.61 22.0979 229.151 21.9866L230.349 20.0627L228.626 18.5681L227.455 20.1422L225.505 19.1034C225.192 19.1564 223.962 20.7358 224.402 21.2022H224.397Z" fill="#20261E"/>
<path d="M223.899 116.798L222.712 118.542L224.466 119.968C225.293 120.19 225.505 119.13 225.998 118.68L227.98 119.999L229.024 117.911L227.286 116.581L225.982 117.901L223.899 116.803V116.798Z" fill="#20261E"/>
<path d="M47.2286 66.2097L45.4425 65.1868L44.3401 67.0259L46.211 68.5841L47.5307 67.0259L49.2532 68.229L50.5252 66.6231L48.2038 64.9059L47.2286 66.2097Z" fill="#20261E"/>
<path d="M192.767 87.6798C193.848 87.3459 194.834 86.8 195.931 86.4767C197.102 86.1322 197.717 86.7629 198.061 85.0351C196.906 84.9079 195.968 85.5916 194.903 84.8761C193.927 84.2189 194.542 83.4822 195.274 83.7154C195.608 83.8214 195.639 84.4733 195.682 84.4998C196.244 84.892 197.229 83.143 196.206 82.507C195.597 82.1254 194.245 82.8091 193.816 83.3073C192.571 84.733 193.901 85.6128 193.821 85.952C193.779 86.1269 192.343 86.747 192.761 87.6798H192.767Z" fill="#20261E"/>
<path d="M29.9243 87.9449L34.6413 86.5775L34.954 85.3002C33.8198 85.3108 33.099 85.9309 32.0549 85.1518C31.1221 84.4628 31.6892 83.7473 32.4365 83.9805C32.7704 84.0865 32.8022 84.7331 32.8446 84.7649C33.7032 85.3691 34.2862 82.2792 32.3093 82.7562C30.5656 83.1802 29.654 84.9027 30.9843 86.3496C30.0833 86.4556 29.813 87.1022 29.9243 87.9449Z" fill="#20261E"/>
<path d="M207.331 64.906C206.218 64.9802 205.747 65.8229 204.559 65.966C203.049 66.1515 201.899 65.7275 200.478 65.4519L199.657 68.0754C200.277 68.2291 200.42 67.4288 200.881 67.3387C201.305 67.2592 202.482 67.8316 203.234 67.8316C204.909 67.8316 206.966 66.6126 207.337 64.9007L207.331 64.906Z" fill="#20261E"/>
<path d="M111.48 105.425C111.162 106.193 111.507 107.327 110.553 107.55C109.307 107.841 110.24 106.05 109.095 106.22C109.482 108.318 106.218 109.431 107.24 106.755C106.504 106.013 104.961 110.173 107.892 109.67C108.592 109.548 108.931 108.689 109.223 108.674C109.716 108.647 110.161 109.691 111.353 108.61C112.503 107.561 111.947 105.075 111.48 105.43V105.425Z" fill="#20261E"/>
<path d="M43.2801 8.49268C43.9797 8.37078 44.3189 7.51218 44.6104 7.49628C45.1033 7.46978 45.5485 8.51388 46.741 7.43268C47.8911 6.38328 47.3346 3.89758 46.8682 4.25268C46.5502 5.02118 46.8947 6.15538 45.9407 6.37798C44.6952 6.66948 45.628 4.87808 44.4832 5.04768C44.8701 7.14648 41.6053 8.25948 42.6282 5.58298C41.8915 4.84098 40.3492 9.00148 43.2801 8.49798V8.49268Z" fill="#20261E"/>
<path d="M142.194 10.0774C141.876 10.8459 142.22 11.9801 141.266 12.2027C140.021 12.4942 140.953 10.7028 139.809 10.8724C140.196 12.9712 136.931 14.0842 137.954 11.4077C137.217 10.6657 135.675 14.8262 138.606 14.3227C139.305 14.2008 139.644 13.3422 139.936 13.3263C140.429 13.2998 140.874 14.3439 142.066 13.2627C143.217 12.2133 142.66 9.7276 142.194 10.0827V10.0774Z" fill="#20261E"/>
<path d="M169.85 15.6425C170.549 15.5206 170.888 14.662 171.18 14.6461C171.673 14.6196 172.118 15.6637 173.311 14.5825C174.461 13.5331 173.904 11.0474 173.438 11.4025C173.12 12.171 173.464 13.3052 172.51 13.5278C171.265 13.8193 172.198 12.0279 171.053 12.1975C171.44 14.2963 168.175 15.4093 169.198 12.7328C168.461 11.9908 166.919 16.1513 169.85 15.6478V15.6425Z" fill="#20261E"/>
<path d="M19.4675 134.776L17.7503 133.763L16.9871 135.841C18.2644 136.551 19.2449 137.405 19.6053 135.348L21.7147 136.408L22.515 134.702L20.7501 133.52L19.4728 134.77L19.4675 134.776Z" fill="#20261E"/>
<path d="M183.231 57.4857C183.014 57.2737 177.831 59.6587 177.598 59.8548C177.29 60.1092 176.681 61.5137 176.882 61.7204C179.044 60.5915 182.585 60.247 183.237 57.4857H183.231Z" fill="#20261E"/>
<path d="M68.3169 120.254C70.4793 119.125 74.0197 118.786 74.6716 116.019C74.4543 115.807 69.2709 118.192 69.0377 118.388C68.7303 118.643 68.1208 120.047 68.3222 120.254H68.3169Z" fill="#20261E"/>
<path d="M159.932 171.372C162.095 170.244 165.635 169.899 166.282 167.138C166.064 166.926 160.881 169.311 160.648 169.507C160.34 169.761 159.731 171.166 159.932 171.372Z" fill="#20261E"/>
<path d="M44.409 61.4449C44.1016 61.6993 43.4921 63.1038 43.6935 63.3105C45.8559 62.1816 49.3963 61.8424 50.0482 59.0758C49.8309 58.8638 44.6475 61.2488 44.4143 61.4449H44.409Z" fill="#20261E"/>
<path d="M9.79929 14.8471C9.58199 14.6351 4.39859 17.0201 4.16539 17.2162C3.85799 17.4706 3.24849 18.8751 3.44989 19.0818C5.61229 17.9529 9.15269 17.6137 9.80459 14.8471H9.79929Z" fill="#20261E"/>
<path d="M204.151 12.9921C203.934 12.7801 198.75 15.1651 198.517 15.3612C198.21 15.6156 197.6 17.0201 197.801 17.2268C199.964 16.0979 203.504 15.7587 204.151 12.9921Z" fill="#20261E"/>
<path d="M240.086 67.2748C239.778 67.5292 239.169 68.9337 239.37 69.1404C241.533 68.0115 245.073 67.667 245.72 64.9057C245.502 64.6937 240.319 67.0787 240.086 67.2748Z" fill="#20261E"/>
<path d="M217.921 69.1404C220.083 68.0115 223.623 67.667 224.275 64.9057C224.058 64.6937 218.875 67.0787 218.641 67.2748C218.334 67.5292 217.725 68.9337 217.926 69.1404H217.921Z" fill="#20261E"/>
<path d="M68.8467 12.9921C68.6294 12.7801 63.446 15.1651 63.2128 15.3612C62.9054 15.6156 62.2959 17.0201 62.4973 17.2268C64.6597 16.0979 68.2001 15.7587 68.852 12.9921H68.8467Z" fill="#20261E"/>
<path d="M148.284 69.1404C150.446 68.0115 153.986 67.667 154.633 64.9057C154.416 64.6937 149.232 67.0787 148.999 67.2748C148.692 67.5292 148.082 68.9337 148.284 69.1404Z" fill="#20261E"/>
<path d="M20.3942 69.1404C22.5566 68.0115 26.097 67.667 26.7436 64.9057C26.5263 64.6937 21.3429 67.0787 21.1097 67.2748C20.8023 67.5292 20.1928 68.9337 20.3942 69.1404Z" fill="#20261E"/>
<path d="M213.151 57.2207C212.933 57.0087 207.75 59.3937 207.517 59.5898C207.209 59.8442 206.6 61.2487 206.801 61.4554C208.964 60.3265 212.504 59.9873 213.156 57.2207H213.151Z" fill="#20261E"/>
<path d="M127.099 118.404C129.262 117.275 132.802 116.936 133.454 114.169C133.237 113.957 128.053 116.342 127.82 116.538C127.513 116.793 126.903 118.197 127.104 118.404H127.099Z" fill="#20261E"/>
<path d="M168.858 108.058C168.55 108.313 167.941 109.717 168.142 109.924C170.305 108.795 173.845 108.456 174.497 105.689C174.28 105.477 169.096 107.862 168.863 108.058H168.858Z" fill="#20261E"/>
<path d="M43.1633 114.169C42.946 113.957 37.7626 116.342 37.5294 116.538C37.222 116.793 36.6125 118.197 36.8139 118.404C38.9763 117.275 42.5167 116.936 43.1686 114.169H43.1633Z" fill="#20261E"/>
<path d="M150.928 0.277851C150.711 0.0658513 145.528 2.45085 145.295 2.64695C144.987 2.90135 144.378 4.30585 144.579 4.51255C146.741 3.38365 150.282 3.04445 150.934 0.277851H150.928Z" fill="#20261E"/>
<path d="M109.885 4.51784C109.668 4.30584 104.485 6.69084 104.252 6.88694C103.944 7.14134 103.335 8.54584 103.536 8.75254C105.698 7.62364 109.239 7.28444 109.891 4.51784H109.885Z" fill="#20261E"/>
<path d="M80.7612 6.63784C80.5439 6.42584 75.3605 8.81084 75.1273 9.00694C74.8199 9.26134 74.2104 10.6658 74.4118 10.8725C76.5742 9.74364 80.1146 9.40444 80.7665 6.63784H80.7612Z" fill="#20261E"/>
<path d="M229.039 10.0771C228.822 9.86511 223.639 12.2501 223.405 12.4462C223.098 12.7006 222.488 14.1051 222.69 14.3118C224.852 13.1829 228.393 12.8437 229.039 10.0771Z" fill="#20261E"/>
<path d="M140 110.178C139.692 110.433 139.083 111.837 139.284 112.044C141.447 110.915 144.987 110.576 145.634 107.809C145.416 107.597 140.233 109.982 140 110.178Z" fill="#20261E"/>
<path d="M74.0043 22.5271C73.9778 22.9829 73.681 23.2002 74.2746 23.5818C74.7834 23.5553 75.4671 20.5661 75.4618 20.0096C75.4618 19.3577 74.5555 16.4904 74.0997 16.2201C73.4478 15.8332 72.9072 16.8455 72.9072 17.3649C72.9072 17.6299 73.9407 19.2305 74.0732 20.0732C74.2269 21.0537 74.052 21.6367 73.999 22.5271H74.0043Z" fill="#20261E"/>
<path d="M138.882 124.488C139.391 124.462 140.074 121.473 140.069 120.916C140.069 120.264 139.163 117.397 138.707 117.127C138.055 116.74 137.514 117.752 137.514 118.271C137.514 118.536 138.548 120.137 138.68 120.98C138.834 121.96 138.659 122.543 138.606 123.434C138.58 123.889 138.283 124.107 138.877 124.488H138.882Z" fill="#20261E"/>
<path d="M173.252 9.03883C173.533 8.81093 174.073 7.27923 173.962 7.16793C173.755 6.96123 168.874 9.30383 168.593 9.53703C168.286 9.78613 167.692 11.1747 167.877 11.4026C169.059 10.6182 172.335 9.78083 173.252 9.03883Z" fill="#20261E"/>
<path d="M142.009 7.71382C142.29 7.48592 142.83 5.95422 142.719 5.84292C142.512 5.63622 137.631 7.97882 137.35 8.21202C137.043 8.46112 136.449 9.84972 136.635 10.0776C137.816 9.29322 141.092 8.45582 142.009 7.71382Z" fill="#20261E"/>
<path d="M46.6821 1.8838C46.963 1.6559 47.5036 0.124199 47.3923 0.0128987C47.1856 -0.193801 42.3043 2.1488 42.0234 2.382C41.716 2.6311 41.1224 4.0197 41.3079 4.2476C42.4898 3.4632 45.7652 2.6258 46.6821 1.8838Z" fill="#20261E"/>
<path d="M105.92 105.424C107.102 104.64 110.378 103.802 111.295 103.06C111.576 102.833 112.116 101.301 112.005 101.19C111.798 100.983 106.917 103.325 106.636 103.559C106.329 103.808 105.735 105.196 105.92 105.424Z" fill="#20261E"/>
<path d="M203.589 68.9073C201.326 69.1299 202.837 70.5185 203.176 71.5732C203.674 73.1102 203.499 74.2073 203.361 75.7602C205.481 74.1066 204.824 70.916 203.595 68.9073H203.589Z" fill="#20261E"/>
<path d="M36.0141 87.9448C33.9047 88.5066 30.3643 88.7557 29.6594 91.1195C30.3325 91.146 37.2861 89.0843 36.0141 87.9448Z" fill="#20261E"/>
<path d="M62.7576 87.4152C63.4307 87.4417 70.3843 85.38 69.1123 84.2405C67.0029 84.8023 63.4625 85.0514 62.7576 87.4152Z" fill="#20261E"/>
<path d="M88.1767 84.2405C86.0673 84.8023 82.5269 85.0514 81.822 87.4152C82.4951 87.4417 89.4487 85.38 88.1767 84.2405Z" fill="#20261E"/>
<path d="M145.103 187.792C145.776 187.818 152.73 185.757 151.458 184.617C149.348 185.179 145.808 185.428 145.103 187.792Z" fill="#20261E"/>
<path d="M198.592 87.9448C196.482 88.5066 192.942 88.7557 192.237 91.1195C192.91 91.146 199.864 89.0843 198.592 87.9448Z" fill="#20261E"/>
<path d="M221.36 137.998C222.033 138.025 228.987 135.963 227.715 134.823C225.605 135.385 222.065 135.634 221.36 137.998Z" fill="#20261E"/>
<path d="M190.382 138.263C191.055 138.29 198.009 136.228 196.737 135.088C194.627 135.65 191.087 135.899 190.382 138.263Z" fill="#20261E"/>
<path d="M114.125 139.853C114.798 139.88 121.752 137.818 120.48 136.678C118.37 137.24 114.83 137.489 114.125 139.853Z" fill="#20261E"/>
<path d="M26.2144 144.358C26.8875 144.385 33.8411 142.323 32.5691 141.183C30.4597 141.745 26.9193 141.994 26.2144 144.358Z" fill="#20261E"/>
<path d="M153.843 136.678C151.733 137.24 148.193 137.489 147.488 139.853C148.161 139.88 155.115 137.818 153.843 136.678Z" fill="#20261E"/>
<path d="M55.6076 35.5069C53.4982 36.0687 49.9578 36.3178 49.2529 38.6816C49.926 38.7081 56.8796 36.6464 55.6076 35.5069Z" fill="#20261E"/>
<path d="M88.9655 35.5069C86.8561 36.0687 83.3157 36.3178 82.6108 38.6816C83.2839 38.7081 90.2375 36.6464 88.9655 35.5069Z" fill="#20261E"/>
<path d="M216.33 37.6269C214.221 38.1887 210.68 38.4378 209.975 40.8016C210.648 40.8281 217.602 38.7664 216.33 37.6269Z" fill="#20261E"/>
<path d="M244.928 141.708C245.602 141.735 252.555 139.673 251.283 138.533C249.174 139.095 245.633 139.344 244.928 141.708Z" fill="#20261E"/>
<path d="M10.0752 123.275L12.28 124.743L13.4937 123.068L11.2889 121.595L10.0752 123.275Z" fill="#20261E"/>
<path d="M31.0796 124.743L32.2933 123.068L30.0885 121.595L28.8748 123.275L31.0796 124.743Z" fill="#20261E"/>
<path d="M227.45 19.347L228.494 17.3966L226.522 15.9709L225.118 17.6298C225.351 18.022 227.084 19.6968 227.45 19.347Z" fill="#20261E"/>
<path d="M137.975 18.1174L139.952 19.6226L141.394 17.7623L139.406 16.4161L137.975 18.1174Z" fill="#20261E"/>
<path d="M246.016 135.698C247.182 137.373 248.449 137.802 249.122 135.523C248.82 135.046 247.771 133.96 247.214 134.071C246.901 134.129 245.81 135.221 246.011 135.698H246.016Z" fill="#20261E"/>
<path d="M188.288 105.52L189.194 106.479C190.159 105.753 190.079 105.053 188.924 104.698L188.288 105.52Z" fill="#20261E"/>
<path d="M106.981 172.035C106.774 172.915 106.737 173.816 106.462 174.696C105.873 176.551 104.32 177.573 105.131 179.582C105.502 179.953 107.628 175.756 107.251 175.082C108.248 176.095 108.608 177.589 109.477 178.824C109.7 179.137 109.488 179.471 110.161 179.322C110.468 176.524 107.871 174.425 107.511 171.643C106.811 171.574 107.082 171.632 106.992 172.035H106.981Z" fill="#20261E"/>
<path d="M101.602 176.349C101.904 177.324 101.941 178.342 102.211 179.317C102.693 179.216 102.704 178.797 102.746 178.4C102.985 176.285 101.973 173.169 100.489 171.642C99.365 173.031 101.119 174.775 101.602 176.349Z" fill="#20261E"/>
</svg>
