<svg width="302" height="247" viewBox="0 0 302 247" fill="none" xmlns="http://www.w3.org/2000/svg">
<path d="M179.702 168.21C179.76 167.754 180.327 167.431 180.194 166.927C180.141 166.71 178.647 164.982 178.498 164.362C176.649 165.894 177.815 166.747 178.069 168.496C178.647 172.455 178.928 176.531 179.399 180.49C178.938 181.259 175.207 179.282 174.481 179.255C173.946 179.239 171.619 180.596 170.633 180.856C168.503 181.412 166.425 181.524 164.332 180.776C165.339 179.245 165.853 178.333 165.657 176.409C165.026 170.235 158.29 177.278 159.832 180.517C156.609 181.052 150.371 183.008 149.227 178.677C148.347 178.513 148.023 179.388 147.308 179.775C145.469 180.776 143.524 181.2 141.441 181.322C139.024 181.465 135.892 181.905 135.871 178.667C132.325 180.962 121.105 183.569 118.518 179.335C117.527 177.708 118.391 176.822 118.783 175.349C118.842 175.132 119.218 174.395 118.656 174.432C117.633 174.506 116.642 178.439 116.775 179.462C117.686 186.331 130.735 183.834 134.805 181.306C136.904 185.859 145.278 183.278 148.702 181.317C150.403 185.032 156.44 183.681 159.683 182.886C160.288 182.737 161.093 182.191 161.597 182.175C162.148 182.154 164.385 183.463 165.593 183.628C167.83 183.935 169.483 183.569 171.55 182.838C172.229 182.599 173.569 181.677 174.041 181.635C175.091 181.545 177.476 183.474 179.251 182.859C181.943 181.926 179.368 170.738 179.702 168.215V168.21ZM163.203 179.255C161.978 179.79 161.448 179.043 160.955 177.994C160.993 177.496 162.699 176.6 163.192 176.589C164.257 176.573 164.888 178.518 163.203 179.25V179.255Z" fill="#20261E"/>
<path d="M111.178 79.0001C110.563 82.6094 112.641 82.6624 115.577 82.5511C115.757 83.0122 116.001 83.7065 115.895 84.1835C115.858 84.3531 113.526 86.0862 113.149 86.2717C107.251 89.1708 102.608 85.5668 105.555 79.3393C104.823 78.5496 103.519 82.7737 103.466 83.2083C102.327 93.0133 117.517 90.6813 116.939 82.514C119.366 82.726 122.064 82.2543 122.769 79.6043L124.115 81.5653C125.758 83.0811 128.678 82.5458 130.655 82.0688C131.217 81.931 132.076 81.295 132.431 81.295C132.765 81.295 134.069 81.9893 134.683 82.1271C137.556 82.7525 143.063 83.415 143.836 79.6255C144.441 76.6734 142.644 71.2568 142.655 68.0556C142.655 67.1758 143.439 66.2589 143.391 66.0045C143.333 65.6812 141.679 64.0223 141.828 63.1849C139.692 64.653 140.921 65.8455 141.229 67.6263C141.891 71.4635 142.14 75.3855 142.803 79.2227C142.745 79.6149 141.043 80.0866 140.641 80.1343C139.162 80.3145 137.392 80.0018 135.876 80.1343C135.054 80.1343 136.385 77.8818 136.475 77.2882C137.598 69.9159 129.092 74.8184 130.65 79.4877L130.465 79.7368C126.278 80.5954 124.248 80.7385 123.384 76.2176C122.684 72.5606 122.636 68.5803 121.979 64.9074C121.9 64.4781 122.117 64.0435 121.582 63.7202C121.115 64.2237 120.665 65.0081 120.638 65.7077C120.527 68.5485 121.82 72.9687 121.979 76.0374C122.207 80.4417 120.469 80.1184 116.584 80.1555C116.075 76.9437 111.92 74.7336 111.188 79.0107L111.178 79.0001ZM112.169 79.4718C112.407 78.4807 114.649 78.8994 114.549 80.129C114.109 80.1237 111.952 80.3834 112.169 79.4718ZM134.636 75.9314C134.699 75.9738 135.203 77.1769 135.203 77.3518C135.197 78.3694 132.123 79.7739 131.827 77.5638C131.694 76.5674 133.947 75.5021 134.636 75.9261V75.9314Z" fill="#20261E"/>
<path d="M73.9026 183.686C76.2452 183.474 77.8405 182.705 78.0207 180.108C78.238 176.939 76.701 172.439 76.7116 169.222C76.7116 168.342 77.496 167.425 77.4483 167.171C77.39 166.848 75.7364 165.189 75.8848 164.351C73.7489 165.819 74.9785 167.012 75.2859 168.793C75.9484 172.63 76.1975 176.552 76.86 180.389C76.6957 181.47 69.6732 181.804 68.7404 180.368C72.6571 176.154 66.0215 174.188 63.4351 176.653C62.8839 177.177 61.5907 179.393 62.7196 179.387C63.4828 179.387 64.8184 178.746 65.0357 180.235C63.1171 181.052 60.5731 181.953 58.681 180.893C59.6456 179.239 60.3346 176.923 59.0732 175.211C57.1758 172.63 52.4906 178.354 53.8474 180.649L53.6619 180.898C46.8037 183.193 46.1359 177.628 44.9116 172.556C44.2915 171.909 44.0901 174.246 44.1007 174.543C44.1908 177.559 47.0157 179.186 42.9453 180.516C41.3712 181.03 39.5427 181.518 38.4297 179.976C36.1931 184.359 42.1132 183.797 44.371 182.202C45.0812 181.703 45.325 180.977 45.9769 180.5C46.8779 184.343 50.7734 183.977 53.8686 183.23C54.4304 183.092 55.289 182.456 55.6441 182.456C56.1529 182.456 58.4796 183.532 59.6509 183.649C62.5023 183.935 64.5057 183.219 66.7688 181.55C68.9524 183.495 71.0088 183.94 73.9132 183.675L73.9026 183.686ZM55.0399 178.746C54.9074 177.75 57.1599 176.684 57.8489 177.108C57.9125 177.151 58.416 178.354 58.416 178.529C58.4107 179.546 55.3367 180.951 55.0452 178.741L55.0399 178.746Z" fill="#20261E"/>
<path d="M262.044 128.333C262.712 128.322 263.237 127.766 263.888 127.644C264.874 127.458 267.667 128.285 268.59 128.804C268.886 128.969 269.04 128.783 268.929 129.393C266.056 130.156 259.23 132.445 257.793 128.746C256.559 125.561 256.612 119.185 255.954 115.491C255.875 115.061 256.092 114.627 255.557 114.304C255.09 114.807 254.64 115.591 254.613 116.291C254.502 119.132 255.795 123.552 255.954 126.621C256.034 128.163 256.331 129.456 254.815 130.246C253.4 130.988 251.831 130.654 250.289 130.739C249.78 127.527 245.625 125.317 244.898 129.594C244.284 133.203 246.361 133.256 249.298 133.145C249.478 133.606 249.722 134.3 249.616 134.777C249.573 134.952 247.114 136.754 246.69 136.95C242.286 138.954 237.404 137.692 238.607 132.043C238.66 131.799 239.736 129.509 238.883 129.933C238.358 130.193 237.526 132.297 237.383 132.938C235.009 143.448 251.078 141.811 250.66 133.108C253.167 133.309 256.002 132.981 256.755 130.198L258.244 132.276C264.148 135.376 269.941 129.096 276.031 130.681L277.138 128.343C275.267 128.497 273.619 128.211 271.838 127.681C268.547 126.695 263.194 122.476 262.044 128.338V128.333ZM245.89 130.06C246.128 129.069 248.37 129.488 248.269 130.718C247.829 130.712 245.672 130.972 245.89 130.06Z" fill="#20261E"/>
<path d="M116.549 229.515C114.625 229.266 113.486 229.43 111.44 228.794C109.765 228.275 106.426 226.287 104.921 226.351C103.5 226.409 101.608 227.962 101.852 229.515C102.732 229.404 103.389 228.715 104.338 228.741C104.762 228.752 108.572 229.886 108.731 230.05C109.187 230.506 108.557 230.496 108.355 230.602C106.574 231.513 100.034 232.764 98.6615 231.174C98.052 230.474 98.3382 229.61 97.7446 228.99C96.3772 231.556 96.5892 232.759 93.3774 231.089L93.7696 229.245C92.7202 229.679 92.5347 230.893 91.4429 231.423C90.6373 231.815 89.5031 231.921 88.6074 231.895L89.1321 229.25C87.823 230.702 87.0916 231.619 85.0034 231.868C79.0568 232.584 79.3695 227.406 78.0127 223.155C77.3714 223.07 77.594 223.155 77.4562 223.521C76.6294 225.741 78.1505 227.681 78.2512 229.86C76.5711 231.185 73.0784 232.616 71.5255 230.57C69.2147 235.101 75.6224 234.386 77.7583 232.557C78.2936 232.101 78.5003 231.439 79.0727 231.094C79.6186 233.845 82.1997 234.614 84.7437 234.248C86.8266 233.951 85.8461 233.739 88.2311 233.988C90.5737 234.227 91.7768 232.759 92.1796 232.759C92.5347 232.759 94.0982 234.253 95.6087 234.009C96.5256 233.861 96.6263 232.828 97.3418 232.419C97.9566 234.243 100.569 234.365 102.244 234.269C107.014 233.999 110.889 230.591 115.701 231.911L116.936 229.897C117.01 229.367 116.92 229.557 116.549 229.51V229.515Z" fill="#20261E"/>
<path d="M224.53 116.726C223.491 116.132 222.563 115.666 221.599 115.088C221.164 114.828 220.157 114.643 220.009 114.494C219.558 114.049 219.908 112.73 218.074 113.355C217.194 113.652 217.47 114.245 217.226 114.494C217.141 114.579 215.551 115.703 215.371 115.819C215.043 116.031 213.765 116.164 213.044 116.54C207.188 119.609 206.928 131.025 211.301 135.398C211.995 136.092 215.164 137.942 216.145 138.366C217.343 138.885 218.191 139.092 219.526 138.912C220.661 138.758 225.224 136.203 226.045 135.371C230.28 131.078 230.116 119.911 224.535 116.736L224.53 116.726ZM227.879 122.773C226.644 121.268 224.906 119.927 222.849 119.858V119.068L224.969 119.333C224.583 117.563 221.143 116.609 220.205 118.268C223.305 119.768 218.371 120.192 219.336 117.823C221.09 113.525 228.07 119.551 227.879 122.773ZM216.235 115.358L218.085 115.888C217.178 113.079 220.099 113.164 219.15 115.888C219.786 115.369 220.782 114.924 221.265 115.888C220.093 115.931 219.23 116.392 218.753 117.478C218.132 116.487 217.783 116.408 216.818 115.963C216.442 115.788 216.092 116.122 216.24 115.364L216.235 115.358ZM213.347 117.102C215.133 116.185 217.703 115.92 218.09 118.39C217.677 119.54 216.749 120.075 215.97 118.931L217.025 118.263C217.894 117.001 212.234 117.166 212.26 119.323C213.05 119.233 213.983 118.634 214.64 119.455C213.458 120.044 212.355 120.277 211.227 121.066C210.5 121.575 210.071 122.185 209.356 122.635C210.092 120.499 211.232 118.183 213.347 117.097V117.102ZM215.44 120.118C215.313 119.418 215.069 118.666 214.38 118.401L215.705 118.003C214.687 120.664 217.518 120.812 218.88 119.058C219.548 121.284 222.706 120.24 221.535 118.003C224.212 117.929 221.403 119.068 222.176 120.139C222.288 120.293 224.959 121.024 225.754 121.591C230.503 124.999 227.916 132.711 222.07 132.838C221.858 133.829 222.293 134.258 222.855 134.947L221.53 135.212C222.675 132.87 219.855 131.841 218.747 133.892H218.36C217.64 131.799 214.597 133.103 215.705 135.212L214.38 134.947L215.323 133.087C206.944 131.629 207.034 121.252 215.44 120.112V120.118ZM209.35 130.188L211.38 132.26L214.645 133.368C214.645 134.56 212.901 134.152 212.265 133.633C211.56 134.486 216.77 137.364 217.03 134.693L215.97 134.03C218.753 132.509 218.859 136.383 215.986 136.691C212.668 137.046 209.976 133.071 209.356 130.188H209.35ZM215.97 137.47C216.813 136.966 218.196 136.993 218.355 135.753H218.874L219.41 136.675L221.524 137.602C219.664 138.387 217.73 138.737 215.965 137.47H215.97ZM219.139 134.571C219.235 133.58 220.671 133.246 221.265 134.036L220.205 134.698C220.517 137.269 225.855 134.613 224.969 133.638L223.528 134.184L222.855 133.378L225.855 132.271L227.884 130.198C227.778 133.988 221.159 140.014 219.145 134.576L219.139 134.571Z" fill="#20261E"/>
<path d="M58.2424 217.908C57.2036 217.314 56.2761 216.848 55.3115 216.265C54.8769 216.005 53.8699 215.82 53.7215 215.671C53.271 215.226 53.6208 213.906 51.787 214.532C50.9072 214.828 51.1828 215.422 50.939 215.671C50.8542 215.756 49.2642 216.88 49.084 216.996C48.7554 217.208 47.4781 217.341 46.7573 217.717C40.9008 220.786 40.6411 232.202 45.0136 236.574C45.7079 237.269 48.8773 239.118 49.8578 239.542C51.0556 240.062 51.9036 240.268 53.2392 240.088C54.3734 239.935 58.9367 237.38 59.7582 236.548C63.9929 232.255 63.8286 221.088 58.2477 217.913L58.2424 217.908ZM49.9479 216.535L51.7976 217.065C50.8913 214.256 53.8116 214.341 52.8629 217.065C53.4989 216.546 54.4953 216.1 54.9776 217.065C53.8063 217.107 52.9424 217.569 52.4654 218.655C51.8453 217.664 51.4955 217.584 50.5309 217.139C50.1546 216.964 49.8048 217.298 49.9532 216.54L49.9479 216.535ZM47.0594 218.284C48.8455 217.367 51.416 217.102 51.8082 219.572C51.3948 220.722 50.4673 221.257 49.6882 220.113L50.7429 219.445C51.6121 218.183 45.9517 218.348 45.9782 220.505C46.7679 220.415 47.7007 219.816 48.3579 220.637C47.176 221.226 46.0736 221.459 44.9447 222.248C44.2186 222.757 43.7893 223.367 43.0738 223.817C43.8105 221.681 44.95 219.365 47.0647 218.279L47.0594 218.284ZM43.0632 231.37L45.0931 233.442L48.3579 234.55C48.3579 235.742 46.6142 235.334 45.9782 234.815C45.2733 235.668 50.4832 238.546 50.7429 235.875L49.6829 235.212C52.4654 233.691 52.5714 237.565 49.6988 237.873C46.381 238.228 43.6886 234.253 43.0685 231.37H43.0632ZM49.6829 238.652C50.5256 238.148 51.9089 238.175 52.0679 236.935H52.5873L53.1226 237.857L55.2373 238.784C53.377 239.569 51.4425 239.919 49.6776 238.652H49.6829ZM52.8523 235.748C52.9477 234.756 54.384 234.423 54.9776 235.212L53.9176 235.875C54.2303 238.445 59.5674 235.79 58.6823 234.815L57.2407 235.361L56.5676 234.555L59.5674 233.447L61.5973 231.375C61.4913 235.165 54.8716 241.191 52.8576 235.753L52.8523 235.748ZM55.7779 234.025C55.5659 235.016 56.0005 235.445 56.5623 236.134L55.2373 236.399C56.3821 234.057 53.5625 233.029 52.4548 235.08H52.0679C51.3471 232.986 48.3049 234.29 49.4126 236.399L48.0876 236.134L49.031 234.274C40.6517 232.817 40.7418 222.439 49.1476 221.3C49.0204 220.6 48.7766 219.848 48.0876 219.583L49.4126 219.185C48.395 221.846 51.2252 221.994 52.5873 220.24C53.2551 222.466 56.4139 221.422 55.2426 219.185C57.9191 219.111 55.1048 220.25 55.8839 221.321C55.9952 221.475 58.6664 222.206 59.4614 222.778C64.2102 226.186 61.6238 233.898 55.7779 234.025ZM56.5623 221.035V220.245L58.6823 220.51C58.2954 218.74 54.8557 217.786 53.9176 219.445C57.0181 220.945 52.0838 221.369 53.0484 219C54.8027 214.701 61.7828 220.727 61.592 223.95C60.3571 222.445 58.6187 221.104 56.5623 221.035Z" fill="#20261E"/>
<path d="M24.8791 167.314C23.8403 166.72 22.9128 166.254 21.9482 165.671C21.5136 165.411 20.5066 165.226 20.3582 165.077C19.9077 164.632 20.2575 163.312 18.4237 163.938C17.5439 164.235 17.8195 164.828 17.5757 165.077C17.4909 165.162 15.9009 166.286 15.7207 166.402C15.3921 166.614 14.1148 166.747 13.394 167.123C7.53754 170.192 7.27784 181.608 11.6503 185.981C12.3446 186.675 15.514 188.525 16.4945 188.949C17.6923 189.468 18.5403 189.675 19.8759 189.494C21.0101 189.341 25.5787 186.786 26.3949 185.954C30.6296 181.661 30.4653 170.494 24.8844 167.319L24.8791 167.314ZM28.234 173.361C26.9991 171.856 25.2607 170.515 23.2043 170.446V169.657L25.3243 169.922C24.9374 168.151 21.4977 167.197 20.5596 168.856C23.6601 170.356 18.7258 170.78 19.6904 168.411C21.4447 164.113 28.4248 170.139 28.234 173.361ZM16.5846 165.947L18.4343 166.477C17.528 163.668 20.4483 163.752 19.4996 166.477C20.1356 165.957 21.132 165.512 21.6143 166.477C20.443 166.519 19.5791 166.98 19.1021 168.067C18.482 167.075 18.1322 166.996 17.1676 166.551C16.7913 166.376 16.4415 166.71 16.5899 165.952L16.5846 165.947ZM13.6961 167.696C15.4822 166.779 18.0527 166.514 18.4396 168.983C18.0262 170.134 17.0987 170.669 16.3196 169.524L17.3743 168.856C18.2435 167.595 12.5831 167.759 12.6096 169.916C13.3993 169.826 14.3321 169.227 14.9893 170.049C13.8074 170.637 12.705 170.87 11.5761 171.66C10.85 172.169 10.4207 172.778 9.70524 173.229C10.4419 171.093 11.5814 168.777 13.6961 167.69V167.696ZM15.7896 170.711C15.6624 170.012 15.4186 169.259 14.7296 168.994L16.0546 168.597C15.037 171.257 17.8672 171.406 19.2293 169.651C19.8971 171.877 23.0559 170.833 21.8846 168.597C24.5611 168.522 21.7521 169.662 22.5259 170.732C22.6372 170.886 25.3084 171.618 26.1034 172.19C30.8522 175.598 28.2658 183.309 22.4199 183.437C22.2079 184.428 22.6425 184.857 23.2043 185.546L21.8793 185.811C23.0241 183.468 20.2045 182.44 19.0968 184.491H18.7099C17.9891 182.398 14.9469 183.702 16.0546 185.811L14.7296 185.546L15.673 183.686C7.29374 182.228 7.38384 171.851 15.7896 170.711ZM9.69994 180.781L11.7298 182.854L14.9946 183.961C14.9946 185.154 13.2509 184.746 12.6149 184.226C11.91 185.08 17.1199 187.957 17.3796 185.286L16.3196 184.624C19.1021 183.103 19.2081 186.977 16.3355 187.284C13.0177 187.639 10.3253 183.664 9.70524 180.781H9.69994ZM16.3196 188.058C17.1623 187.555 18.5456 187.581 18.7046 186.341H19.224L19.7593 187.263L21.874 188.191C20.0137 188.975 18.0792 189.325 16.3143 188.058H16.3196ZM19.489 185.159C19.5844 184.168 21.0207 183.834 21.6143 184.624L20.5543 185.286C20.867 187.857 26.2041 185.201 25.319 184.226L23.8774 184.772L23.2043 183.967L26.2041 182.859L28.234 180.787C28.128 184.576 21.5083 190.602 19.4943 185.164L19.489 185.159Z" fill="#20261E"/>
<path d="M287.813 167.314C286.774 166.72 285.846 166.254 284.882 165.671C284.447 165.411 283.44 165.226 283.292 165.077C282.841 164.632 283.191 163.312 281.357 163.938C280.478 164.235 280.753 164.828 280.509 165.077C280.425 165.162 278.835 166.286 278.654 166.402C278.326 166.614 277.048 166.747 276.328 167.123C270.471 170.192 270.211 181.608 274.584 185.981C275.278 186.675 278.448 188.525 279.428 188.949C280.626 189.468 281.474 189.675 282.81 189.494C283.944 189.341 288.512 186.786 289.329 185.954C293.563 181.661 293.399 170.494 287.818 167.319L287.813 167.314ZM279.518 165.947L281.368 166.477C280.462 163.668 283.382 163.752 282.433 166.477C283.069 165.957 284.066 165.512 284.548 166.477C283.377 166.519 282.513 166.98 282.036 168.067C281.416 167.075 281.066 166.996 280.101 166.551C279.725 166.376 279.375 166.71 279.524 165.952L279.518 165.947ZM276.63 167.696C278.416 166.779 280.986 166.514 281.373 168.983C280.96 170.134 280.032 170.669 279.253 169.524L280.308 168.856C281.177 167.595 275.517 167.759 275.543 169.916C276.333 169.826 277.266 169.227 277.923 170.049C276.741 170.637 275.639 170.87 274.51 171.66C273.784 172.169 273.354 172.778 272.639 173.229C273.376 171.093 274.515 168.777 276.63 167.69V167.696ZM272.634 180.781L274.663 182.854L277.928 183.961C277.928 185.154 276.185 184.746 275.549 184.226C274.844 185.08 280.054 187.957 280.313 185.286L279.253 184.624C282.036 183.103 282.142 186.977 279.269 187.284C275.951 187.639 273.259 183.664 272.639 180.781H272.634ZM279.253 188.058C280.096 187.555 281.479 187.581 281.638 186.341H282.158L282.693 187.263L284.808 188.191C282.947 188.975 281.013 189.325 279.248 188.058H279.253ZM282.423 185.159C282.518 184.168 283.954 183.834 284.548 184.624L283.488 185.286C283.801 187.857 289.138 185.201 288.253 184.226L286.811 184.772L286.138 183.967L289.138 182.859L291.168 180.787C291.062 184.576 284.442 190.602 282.428 185.164L282.423 185.159ZM285.348 183.437C285.136 184.428 285.571 184.857 286.133 185.546L284.808 185.811C285.952 183.468 283.133 182.44 282.025 184.491H281.638C280.917 182.398 277.875 183.702 278.983 185.811L277.658 185.546L278.601 183.686C270.222 182.228 270.312 171.851 278.718 170.711C278.591 170.012 278.347 169.259 277.658 168.994L278.983 168.597C277.965 171.257 280.796 171.406 282.158 169.651C282.825 171.877 285.984 170.833 284.813 168.597C287.489 168.522 284.68 169.662 285.454 170.732C285.566 170.886 288.237 171.618 289.032 172.19C293.781 175.598 291.194 183.309 285.348 183.437ZM286.138 170.446V169.657L288.258 169.922C287.871 168.151 284.431 167.197 283.493 168.856C286.594 170.356 281.659 170.78 282.624 168.411C284.378 164.113 291.358 170.139 291.168 173.361C289.933 171.856 288.194 170.515 286.138 170.446Z" fill="#20261E"/>
<path d="M77.3111 84.8036C78.0054 85.4979 81.1748 87.3476 82.1553 87.7716C83.3531 88.291 84.2011 88.4977 85.5367 88.3175C86.6709 88.1638 91.2342 85.6092 92.0557 84.7771C96.2904 80.4841 96.1261 69.317 90.5452 66.1423C89.5064 65.5487 88.5789 65.0823 87.6143 64.5046C87.1797 64.2449 86.1727 64.0594 86.0243 63.911C85.5738 63.4658 85.9236 62.1461 84.0898 62.7715C83.21 63.0683 83.4856 63.6619 83.2418 63.911C83.157 63.9958 81.567 65.1194 81.3868 65.236C81.0582 65.448 79.7809 65.5805 79.0601 65.9568C73.2036 69.0255 72.9439 80.4417 77.3164 84.8142L77.3111 84.8036ZM75.366 79.599L77.3959 81.6713L80.6607 82.779C80.6607 83.9715 78.917 83.5634 78.281 83.044C77.5761 83.8973 82.786 86.7752 83.0457 84.104L81.9857 83.4415C84.7682 81.9204 84.8742 85.7947 82.0016 86.1021C78.6838 86.4572 75.9914 82.4822 75.3713 79.599H75.366ZM81.9857 86.8812C82.8284 86.3777 84.2117 86.4042 84.3707 85.164H84.8901L85.4254 86.0862L87.5401 87.0137C85.6798 87.7981 83.7453 88.1479 81.9804 86.8812H81.9857ZM85.1551 83.9821C85.2505 82.991 86.6868 82.6571 87.2804 83.4468L86.2204 84.1093C86.5331 86.6798 91.8702 84.0245 90.9851 83.0493L89.5435 83.5952L88.8704 82.7896L91.8702 81.6819L93.9001 79.6096C93.7941 83.3991 87.1744 89.4252 85.1604 83.9874L85.1551 83.9821ZM88.0807 82.2543C87.8687 83.2454 88.3033 83.6747 88.8651 84.3637L87.5401 84.6287C88.6849 82.2861 85.8653 81.2579 84.7576 83.309H84.3707C83.6499 81.2155 80.6077 82.5193 81.7154 84.6287L80.3904 84.3637L81.3338 82.5034C72.9545 81.0459 73.0446 70.6685 81.4504 69.529C81.3232 68.8294 81.0794 68.0768 80.3904 67.8118L81.7154 67.4143C80.6978 70.0749 83.528 70.2233 84.8901 68.469C85.5579 70.695 88.7167 69.6509 87.5454 67.4143C90.2219 67.3401 87.4076 68.4796 88.1867 69.5502C88.298 69.7039 90.9692 70.4353 91.7642 71.0024C96.513 74.4103 93.9266 82.1218 88.0807 82.249V82.2543ZM93.9001 72.1843C92.6652 70.6791 90.9268 69.3382 88.8704 69.2693V68.4796L90.9904 68.7446C90.6035 66.9744 87.1638 66.0204 86.2257 67.6793C89.3262 69.1792 84.3919 69.6032 85.3565 67.2341C87.1108 62.9358 94.0909 68.9619 93.9001 72.1843ZM82.2507 64.7696L84.1004 65.2996C83.1941 62.4906 86.1144 62.5754 85.1657 65.2996C85.8017 64.7802 86.7981 64.335 87.2804 65.2996C86.1091 65.342 85.2452 65.8031 84.7682 66.8896C84.1481 65.8985 83.7983 65.819 82.8337 65.3738C82.4574 65.1989 82.1076 65.5328 82.256 64.7749L82.2507 64.7696ZM79.3622 66.5133C81.1483 65.5964 83.7188 65.3314 84.111 67.8012C83.6923 68.9513 82.7701 69.4866 81.991 68.3418L83.0457 67.674C83.9149 66.4126 78.2545 66.5769 78.281 68.734C79.0707 68.6439 80.0035 68.045 80.6607 68.8665C79.4788 69.4548 78.3764 69.688 77.2475 70.4777C76.5214 70.9865 76.0921 71.596 75.3766 72.0465C76.1133 69.9106 77.2528 67.5945 79.3675 66.508L79.3622 66.5133Z" fill="#20261E"/>
<path d="M254.231 90.9835C259.871 91.5029 262.674 86.8866 261.514 81.7191C263.411 83.06 268.208 82.7632 269.861 81.1997C271.552 79.6044 271.276 76.541 270.381 74.5694C267.397 68.0239 263.019 77.919 267.222 78.5285C268.881 78.767 268.706 77.9243 269.983 77.4844C269.914 77.9031 270.131 78.7246 269.941 79.032C269.665 79.4772 266.83 80.092 266.156 80.145C262.224 80.4312 261.636 79.6574 261.021 75.9898C260.454 72.5978 260.273 68.9938 259.924 65.5647C259.452 65.0188 258.45 67.3349 258.625 67.7854L260.576 85.975C257.533 89.8652 250.097 89.8069 250.945 83.4681C251.073 82.5406 252.212 81.1096 251.189 80.6644C248.741 84.3903 248.714 90.48 254.231 90.9888V90.9835ZM267.063 76.0322C266.644 75.8414 266.994 74.9404 267.11 74.8662C268.43 74.0447 270.296 76.7954 267.063 76.0322Z" fill="#20261E"/>
<path d="M219.41 82.5138C218.44 87.2202 213.819 89.1123 209.346 88.8685V89.6635C215.812 91.2376 219.553 89.3243 220.719 82.6304C222.156 82.5085 223.566 82.4025 224.981 82.1269C226.698 81.7877 232.74 80.4415 233.959 79.7154C234.595 79.3391 235.448 77.9664 235.565 77.2191C235.305 76.9541 229.597 79.1218 228.32 78.9946C227.27 78.8886 224.891 76.4559 224.748 75.433C224.483 73.5409 229.38 73.3713 230.652 73.525C231.288 73.5992 231.881 74.2405 232.65 74.0391C231.934 71.2725 227.647 70.6524 225.521 72.0728C222.914 73.8059 222.246 77.5477 224.705 79.7366C223.55 80.4203 222.06 80.0864 220.773 80.097C220.062 76.7103 217.381 75.0302 215.775 79.0105C214.587 81.9414 216.85 82.8 219.41 82.5191V82.5138ZM216.766 79.7366C217.566 78.5865 218.329 79.1377 218.88 80.1288C218.584 80.0122 216.474 80.4733 216.766 79.7366Z" fill="#20261E"/>
<path d="M89.925 133.102C91.3454 133.617 93.052 132.461 94.0749 132.376C94.7851 132.318 95.8027 132.986 97.186 132.811C98.3361 132.663 99.3855 131.656 99.9049 131.565C100.599 131.444 101.845 133.012 103.509 132.514C105.173 132.016 105.316 128.105 104.754 126.742C103.398 127.707 103.742 129.059 103.959 130.447L101.283 129.53L101.182 127.537C99.8731 129.546 98.7283 131.062 96.02 130.712L96.815 128.067C95.7815 127.829 95.6755 129.106 95.0236 129.657C93.4601 130.988 91.4726 130.707 89.5646 130.728C89.0558 127.516 84.9006 125.306 84.1745 129.583C83.5597 133.193 85.6373 133.246 88.5735 133.134C88.7537 133.595 88.9975 134.29 88.8915 134.767C88.8491 134.942 86.3899 136.744 85.9659 136.94C81.5616 138.943 76.6803 137.682 77.8834 132.032C77.9364 131.788 79.0123 129.498 78.159 129.922C77.6343 130.182 76.8022 132.286 76.6591 132.928C74.2794 143.459 90.3808 141.773 89.9356 133.097L89.925 133.102ZM85.1656 130.06C85.4041 129.069 87.6407 129.488 87.5453 130.717C87.1054 130.712 84.9483 130.972 85.1656 130.06Z" fill="#20261E"/>
<path d="M18.17 130.717C18.6099 134.131 25.6006 133.463 27.4503 131.92C29.3848 130.304 28.9979 126.848 27.9273 124.808C24.8692 118.994 20.8783 128.528 24.9487 129.117C26.6076 129.361 26.4327 128.513 27.71 128.073L27.7206 129.482C27.4662 130.548 18.0322 132.334 19.2353 128.073C15.1119 130.171 6.9287 132.604 2.8371 129.779C0.467996 128.142 1.4697 126.843 2.0209 124.755C2.0792 124.538 2.4555 123.796 1.8937 123.838C1.6658 123.854 0.711796 125.348 0.568696 125.688C-0.713904 128.73 0.155296 131.549 3.3565 132.7C8.0099 134.374 13.8452 132.684 18.1753 130.717H18.17ZM24.7791 126.62C24.3604 126.43 24.7102 125.529 24.8268 125.454C26.1465 124.633 28.0121 127.384 24.7791 126.62Z" fill="#20261E"/>
<path d="M32.6275 240.613C31.117 238.551 29.951 236.225 29.2938 233.75L30.8785 233.082L28.7691 230.432C29.8768 229.642 31.4721 232.377 32.2088 231.889C32.5056 231.301 32.336 230.241 32.6116 229.775C32.8183 229.419 33.7776 229.26 33.9472 228.471C34.1327 227.607 32.9296 227.374 32.6222 226.849C32.2777 226.266 32.4738 225.238 31.8113 224.74C31.1329 224.596 29.6754 226.891 28.7691 226.462C29.1189 224.734 32.0498 223.791 29.3521 222.768C29.8397 220.759 30.4545 218.841 31.5728 217.081C31.9332 216.509 34.2493 214.065 33.7988 213.615C29.9086 214.712 27.7674 219.339 26.3258 222.821L23.4744 223.415C22.955 224.178 25.5679 225.588 25.3241 226.589C24.0362 226.589 23.3366 225.27 22.2766 224.745C21.5187 225.211 21.8261 226.6 21.5505 227.061C21.3597 227.379 20.1778 227.49 20.2785 228.566C20.358 229.425 21.3915 229.552 21.63 229.955C21.8791 230.384 22.001 232.054 22.1441 232.154C23.5433 232.138 23.9408 230.225 25.3188 230.305L23.4691 233.479L26.3735 234.147C28.1384 237.592 30.2372 241.795 34.1857 243.019C34.5991 242.055 33.1575 241.339 32.6222 240.608L32.6275 240.613ZM29.8238 227.135L31.6735 226.07C31.4191 227.782 31.8113 227.517 32.9932 228.322C32.7812 228.752 31.9862 228.953 31.806 229.25C31.1329 230.368 32.4738 231.508 29.8238 229.382L30.64 228.593C30.6453 227.437 29.6595 228.01 29.8238 227.135ZM22.8066 230.835C22.1229 229.759 22.6529 228.974 21.0841 228.587C22.0964 227.787 22.6847 227.564 22.4091 226.07L24.2588 227.268V227.649C22.7907 227.983 23.5592 228.974 24.5291 229.377L22.8066 230.829V230.835ZM28.2232 229.637C26.5537 231.078 24.4443 228.593 25.9177 227.199C27.4282 225.768 29.9086 228.185 28.2232 229.637ZM24.7941 223.69L26.877 223.653C27.8151 220.849 29.05 218.014 31.2866 216.01C29.9139 218.369 28.7744 220.913 28.5094 223.68H29.2938C29.6542 224.051 28.4034 225.556 27.8416 225.545L27.0466 224.745L26.3788 225.54H25.8594L24.7941 223.69ZM29.3415 238.074C28.7002 237.136 27.354 233.776 27.0519 233.474C26.5219 232.939 25.5361 233.532 25.0591 232.817L25.8594 231.365H26.3788L27.0466 232.16L28.1013 231.365L29.2938 232.822L28.4988 233.214C28.9016 235.944 30.2531 238.26 31.5463 240.624C30.8043 239.86 29.9351 238.938 29.3415 238.064V238.074Z" fill="#20261E"/>
<path d="M280.748 63.2696C282.587 65.4108 284.06 67.9919 284.749 70.7373C284.643 71.3203 282.942 71.1189 283.223 71.7814C283.515 72.4651 285.322 73.3396 285.343 74.4314C284.257 75.1416 282.953 72.6241 282.327 72.7248C281.485 72.8626 281.75 74.3201 281.506 74.8342C281.304 75.2582 280.324 75.4172 280.16 76.1327C279.958 77.0125 281.262 77.357 281.585 77.9294C281.956 78.5919 281.723 79.6519 282.561 80.1289C283.382 79.3604 284.119 78.2739 285.343 78.152C285.216 79.8639 281.861 81.0776 284.808 81.7401C284.4 83.664 283.827 85.572 282.804 87.268C282.179 88.3015 280.642 89.6689 280.26 90.554C279.688 91.879 281.596 90.7872 282.031 90.4692C283.774 89.1972 285.688 86.4624 286.71 84.5544C287.034 83.9502 287.405 82.2913 287.829 81.968C288.396 81.5387 290.394 81.809 290.627 81.0458C290.897 80.1713 288.613 79.1378 288.783 78.0195L291.825 79.8692C292.652 78.6608 292.291 77.5743 293.781 76.7793C294.263 75.3801 292.927 75.343 292.519 74.6805C292.122 74.0392 292.44 73.2177 291.825 72.7195L288.788 74.5745C288.565 73.6311 290.776 71.9404 290.521 71.3945C290.081 70.4405 288.327 71.1613 287.712 70.7479C287.564 70.6472 286.493 68.0555 286.18 67.5149C284.956 65.4108 282.333 62.0559 279.783 61.8651C279.54 62.8456 280.393 62.8668 280.748 63.2802V63.2696ZM282.433 78.5389C282.423 78.1149 282.529 77.5902 282.306 77.2086C282.041 76.7581 280.843 76.8429 281.108 76.2917C281.363 75.7617 282.969 75.5497 282.433 74.0392L284.283 75.1045L283.477 76.2917L284.543 77.4789L282.428 78.5389H282.433ZM291.698 74.0392C291.412 75.4119 292.191 75.5285 293.017 76.2917C292.747 76.6733 292.021 76.827 291.825 77.2139C291.549 77.7598 292.005 78.6714 291.295 78.5442L289.578 77.4789L290.654 76.2864L289.578 75.0992L291.692 74.0392H291.698ZM289.313 80.9239L287.225 80.9557C286.355 83.8442 284.946 86.7963 282.693 88.8686C283.122 87.7238 283.923 86.8546 284.405 85.6833C284.696 84.9784 285.783 81.6129 285.481 81.1783C285.322 80.9451 284.734 80.9981 284.808 80.7914L285.868 79.0689L287.055 79.8745L288.242 79.0689L289.302 80.9239H289.313ZM286.838 74.6328C288.189 74.4844 289.382 76.1168 288.263 77.3517C286.154 79.6837 283.806 74.9667 286.838 74.6328ZM282.958 64.2395C283.907 65.7447 285.067 66.9425 285.926 68.559C286.928 70.4564 286.472 72.2001 289.318 71.6542L288.253 73.2389C287.018 72.6665 286.928 72.4863 285.878 73.5039L284.553 71.7814L285.348 71.5164C285.592 71.368 285.576 71.2991 285.571 71.05C285.497 69.1791 283.626 65.8613 282.439 64.3667L282.963 64.2395H282.958Z" fill="#20261E"/>
<path d="M49.2166 90.92C53.4672 89.9872 55.619 86.8072 54.7127 82.5142C57.4157 82.7527 59.7053 82.2227 60.9296 79.631C62.2758 80.2458 64.7244 81.6291 65.9752 80.4048C67.3373 79.0798 66.2137 75.8468 65.0371 74.702C62.4825 72.2163 60.8342 78.0516 59.7477 79.2123C58.8096 80.2087 55.672 80.4631 54.506 79.9596C54.0661 79.7688 53.6739 78.5127 53.2446 78.0251C53.0061 77.7548 52.9743 77.6276 52.7252 78.0092C51.379 80.0603 53.2022 81.7298 53.5361 83.8286C53.8859 85.991 53.6527 86.5528 51.7235 87.6075C49.0099 89.0915 43.0262 89.6745 42.528 85.5723C42.3107 83.8021 42.8513 83.0336 43.2753 81.5337C43.3866 81.1415 43.482 80.8235 42.9361 80.9295C39.0194 86.6323 41.998 92.5047 49.2219 90.9253L49.2166 90.92ZM64.7721 78.5392C63.7704 78.2689 62.5567 78.2212 61.8677 77.3467C63.0973 75.5182 64.6661 76.7372 64.7721 78.5392Z" fill="#20261E"/>
<path d="M185.113 130.219C186.459 130.834 188.908 132.217 190.159 130.993C191.521 129.668 190.397 126.435 189.221 125.29C186.666 122.804 185.018 128.64 183.931 129.8C182.993 130.797 179.861 131.051 178.69 130.548C178.25 130.357 177.857 129.101 177.428 128.613C177.19 128.343 177.158 128.216 176.909 128.597C175.563 130.648 177.386 132.318 177.72 134.417C178.069 136.579 177.836 137.141 175.907 138.196C173.193 139.68 167.21 140.263 166.712 136.16C166.494 134.39 167.035 133.622 167.459 132.122C167.57 131.73 167.666 131.412 167.12 131.518C163.203 137.22 166.182 143.093 173.405 141.513C177.656 140.581 179.808 137.401 178.902 133.108C181.605 133.346 183.894 132.816 185.118 130.224L185.113 130.219ZM188.956 129.127C187.954 128.857 186.74 128.809 186.051 127.935C187.281 126.106 188.85 127.325 188.956 129.127Z" fill="#20261E"/>
<path d="M248.137 180.808C251.174 182.7 255.021 182.764 253.495 178.068C252.695 175.609 251.221 174.172 249.191 176.531C247.384 178.63 247.903 181.052 244.443 181.317C241.056 181.576 242.217 180.887 240.711 179.202C240.473 178.932 240.441 178.804 240.192 179.186C238.846 181.237 240.669 182.907 241.003 185.005C241.353 187.168 241.119 187.73 239.19 188.784C236.477 190.268 230.493 190.851 229.995 186.749C229.777 184.979 230.318 184.21 230.742 182.711C230.853 182.318 230.949 182 230.403 182.106C226.486 187.809 229.465 193.682 236.689 192.102C240.939 191.169 243.091 187.989 242.185 183.696C244.803 183.945 246.965 183.272 248.137 180.813V180.808ZM251.979 179.716C250.977 179.446 249.764 179.398 249.075 178.524C250.304 176.695 251.873 177.914 251.979 179.716Z" fill="#20261E"/>
<path d="M265.08 231.402C268.117 233.294 271.965 233.357 270.438 228.661C269.638 226.202 268.165 224.766 266.135 227.124C264.327 229.223 264.847 231.645 261.386 231.91C257.999 232.17 259.16 231.481 257.655 229.796C257.416 229.525 257.384 229.398 257.135 229.78C255.789 231.831 257.612 233.5 257.946 235.599C258.296 237.762 258.063 238.323 256.134 239.378C253.42 240.862 247.436 241.445 246.938 237.343C246.721 235.573 247.261 234.804 247.685 233.304C247.797 232.912 247.892 232.594 247.346 232.7C243.43 238.403 246.408 244.275 253.632 242.696C257.883 241.763 260.034 238.583 259.128 234.29C261.746 234.539 263.909 233.866 265.08 231.407V231.402ZM268.923 230.304C267.921 230.034 266.707 229.986 266.018 229.112C267.248 227.283 268.817 228.502 268.923 230.304Z" fill="#20261E"/>
<path d="M103.166 189.118C106.394 187.921 111.747 183.246 106.086 181.296C107.199 178.736 107.358 174.989 105.196 172.922C101.831 169.699 98.8784 179.313 103.818 178.391C104.629 178.243 104.735 177.315 105.546 177.337C106.807 180.336 103.145 179.907 102.17 180.845C101.873 181.131 101.656 182.218 101.311 182.631C103.044 182.891 105 183.129 106.606 183.84C106.929 183.983 107.252 183.824 107.131 184.354C104.125 187.894 92.7569 189.993 93.7003 182.838C93.8328 181.82 94.4317 180.983 94.6384 180.066C94.7285 179.669 94.8557 179.356 94.2939 179.457C89.3861 187.46 94.9193 192.171 103.156 189.118H103.166ZM102.504 175.519C102.212 173.992 104.454 174.74 104.491 176.012C103.813 176.271 102.679 176.436 102.504 175.519Z" fill="#20261E"/>
<path d="M198.697 228.91C196.848 228.386 193.164 226.202 191.548 226.382C190.18 226.536 188.474 228.025 188.696 229.509C189.364 229.499 189.889 228.942 190.541 228.82C191.527 228.635 194.32 229.462 195.242 229.981C195.539 230.145 195.692 229.96 195.581 230.569C193.27 231.242 187.186 233.029 185.4 231.089C184.313 229.907 184.154 223.685 183.895 221.734C183.63 219.736 183.312 217.674 182.739 215.74C181.075 217.95 182.506 221.21 182.835 223.849C183.725 230.951 182.416 235.827 191.829 233.84C195.517 233.06 198.602 230.681 202.678 231.847L203.785 229.509C201.968 229.663 200.425 229.393 198.697 228.905V228.91Z" fill="#20261E"/>
<path d="M120.825 131.295C122.314 130.511 123.719 129.747 123.554 127.802C121.636 128.756 119.404 130.516 117.131 130.124C115.7 129.88 113.94 128.126 113.601 126.742C113.14 124.856 117.677 124.172 119.124 124.421C119.94 124.564 120.857 125.545 121.429 124.755C117.295 119.057 108.847 124.898 113.49 130.712C109.886 130.171 109.859 126 109.52 123.165C109.239 120.828 109.276 118.39 108.953 116.047C108.815 115.051 108.709 113.344 107.93 112.703C106.828 114.669 107.739 116.413 107.925 118.4C108.216 121.554 108.227 129.689 110.432 131.783C113.023 134.242 118 132.768 120.82 131.29L120.825 131.295Z" fill="#20261E"/>
<path d="M178.897 231.629L176.22 230.713L176.247 228.714C174.705 230.58 173.804 232.292 170.958 231.889L171.615 229.239C170.703 229.112 170.555 230.326 169.956 230.834C168.573 232.006 165.859 232.255 164.227 231.598C161.55 230.527 161.163 225.593 160.358 223.149C159.737 222.503 159.536 224.84 159.547 225.137C159.637 228.153 162.462 229.78 158.391 231.11C156.817 231.624 154.989 232.112 153.876 230.569C152.042 234.582 156.059 234.364 158.768 233.341C159.987 232.88 160.58 232.138 161.29 231.099C162.213 233.845 164.274 234.613 167.046 234.205C169.166 233.898 168.313 233.755 170.581 233.988C173.162 234.253 173.544 232.965 174.842 232.737C175.468 232.631 176.697 234.025 178.229 233.739C180.137 233.384 180.27 229.393 179.692 227.914C178.335 228.879 178.68 230.23 178.897 231.619V231.629Z" fill="#20261E"/>
<path d="M237.15 227.66C236.668 227.214 236.053 229.075 236.011 229.297C235.778 230.654 237.241 232.043 234.755 231.513C234.124 231.38 232.969 230.908 232.932 230.188C232.916 229.928 233.732 228.407 233.048 228.46C232.693 228.486 231.782 230.5 231.299 230.946C229.603 232.52 224.902 232.541 225.761 229.25L219.141 230.967C218.728 231.645 218.108 233.081 219.146 233.346C217.737 236.765 215.749 239.696 211.832 240.342C210.915 240.496 209.771 240.03 209.087 240.766C209.103 241.302 211.615 241.673 212.119 241.705C218.166 242.07 219.268 238.058 220.265 233.018L224.579 231.645C225.459 235.037 229.985 235.053 231.723 232.43C235.545 235.753 237.834 233.352 237.415 228.852C237.394 228.635 237.203 227.718 237.145 227.665L237.15 227.66Z" fill="#20261E"/>
<path d="M214.778 181.836C218.599 185.159 220.889 182.758 220.47 178.259C220.449 178.041 220.258 177.124 220.2 177.071C219.717 176.626 219.103 178.487 219.06 178.709C218.827 180.066 220.29 181.455 217.804 180.925C217.173 180.792 216.018 180.32 215.981 179.6C215.965 179.34 216.781 177.819 216.097 177.872C215.742 177.898 214.831 179.912 214.348 180.357C212.652 181.932 207.951 181.953 208.81 178.661L202.19 180.379C201.777 181.057 201.157 182.493 202.19 182.758C200.78 186.177 198.793 189.108 194.876 189.754C193.959 189.908 192.815 189.442 192.131 190.178C192.147 190.714 194.659 191.085 195.162 191.116C201.21 191.482 202.312 187.47 203.309 182.43L207.623 181.057C208.503 184.449 213.029 184.465 214.767 181.841L214.778 181.836Z" fill="#20261E"/>
<path d="M7.70236 89.9391C13.7497 90.3048 14.8521 86.2927 15.8485 81.2524L20.1627 79.8797C21.0425 83.2717 25.5687 83.2876 27.3071 80.6641C31.1284 83.9872 33.418 81.5863 32.9993 77.0866C32.9781 76.8693 32.7873 75.9524 32.729 75.8994C32.2467 75.4542 31.6319 77.3145 31.5895 77.5371C31.3563 78.8939 32.8191 80.2825 30.3334 79.7525C29.7027 79.62 28.5473 79.1483 28.5102 78.4275C28.4943 78.1678 29.3105 76.6467 28.6268 76.6997C28.2717 76.7262 27.3601 78.7402 26.8778 79.1854C25.1818 80.7595 20.486 80.7807 21.3393 77.4894L14.7196 79.2066C14.3062 79.885 13.6861 81.3213 14.7196 81.5863C13.3098 85.0048 11.3223 87.9357 7.40556 88.5823C6.48866 88.736 5.34386 88.2696 4.66016 89.0063C4.67606 89.5416 7.18826 89.9126 7.69176 89.9444L7.70236 89.9391Z" fill="#20261E"/>
<path d="M157.189 127.67C157.168 127.453 156.977 126.536 156.918 126.483C156.436 126.038 155.821 127.898 155.779 128.121C155.546 129.477 157.009 130.866 154.523 130.336C153.892 130.203 152.737 129.732 152.7 129.011C152.684 128.751 153.5 127.23 152.816 127.283C152.461 127.31 151.55 129.324 151.067 129.769C149.371 131.343 144.67 131.364 145.529 128.073L138.909 129.79C138.496 130.468 137.876 131.905 138.909 132.17C137.499 135.588 135.512 138.519 131.595 139.166C130.678 139.319 129.533 138.853 128.85 139.59C128.866 140.125 131.378 140.496 131.881 140.528C137.929 140.894 139.031 136.881 140.027 131.841L144.342 130.468C145.221 133.86 149.748 133.876 151.486 131.253C155.307 134.576 157.597 132.175 157.178 127.675L157.189 127.67Z" fill="#20261E"/>
<path d="M298.448 124.644C296 125.02 295.385 129.202 293.912 130.15C292.661 130.956 289.481 131.078 288.4 129.906C287.308 128.725 287.154 122.502 286.894 120.552C286.624 118.543 286.216 116.55 285.866 114.558C283.974 116.513 285.516 120.107 285.834 122.672C286.131 125.03 286.11 129.816 287.456 131.645C289.401 134.29 294.41 133.24 295.528 130.219C296.662 130.739 298.47 131.708 299.704 131.465C302.556 130.913 300.817 125.073 298.443 124.644H298.448ZM296.466 127.935C297.696 126.106 299.265 127.325 299.371 129.127C298.369 128.857 297.155 128.809 296.466 127.935Z" fill="#20261E"/>
<path d="M176.75 77.622C176.687 78.2315 170.687 79.6837 169.722 79.8215C166.527 80.2879 159.011 81.1412 159.562 76.0161C159.594 75.7087 160.564 73.6894 159.711 74.0392C157.612 76.2387 157.76 80.06 160.538 81.6765C163.596 83.4626 171.217 82.127 174.471 80.8603C174.991 80.6589 177.031 79.742 177.307 79.4611C178.669 78.0778 177.476 74.0339 176.173 72.799C176.067 72.6983 175.51 72.4121 175.468 72.4492C174.084 75.0568 175.913 75.449 176.756 77.622H176.75Z" fill="#20261E"/>
<path d="M180.026 88.01L175.197 89.0011C180.561 91.8313 186.343 88.5824 186.582 82.5139C190.255 82.5934 194.897 82.763 193.933 77.675C193.832 77.1556 192.216 73.9438 191.617 74.5692C190.673 77.1344 192.3 77.5001 192.936 79.5989C190.186 80.2614 186.714 80.8815 184.594 78.5495C183.555 79.9752 183.757 81.3479 185.474 82.0369L185.548 82.3814C184.859 85.2328 182.723 87.0931 180.031 88.0153L180.026 88.01Z" fill="#20261E"/>
<path d="M38.7062 126.732C35.8601 123.223 32.8338 131.762 36.618 131.963C37.6515 132.016 37.9695 131.115 38.8281 130.983C38.3299 134.544 34.4874 138.562 30.9523 139.129C30.4064 139.219 27.9631 139.017 27.9737 139.59C30.4117 141.106 33.8938 140.872 36.1516 139.039C38.9447 136.765 41.1707 129.779 38.7009 126.732H38.7062ZM35.9184 128.995L36.8777 128.089L38.0278 128.995C37.3653 129.774 36.5915 129.779 35.9184 128.995Z" fill="#20261E"/>
<path d="M198.899 126.732C196.052 123.223 193.026 131.762 196.81 131.963C197.844 132.016 198.162 131.115 199.02 130.983C198.522 134.544 194.68 138.562 191.145 139.129C190.599 139.219 188.155 139.017 188.166 139.59C190.604 141.106 194.086 140.872 196.344 139.039C199.137 136.765 201.363 129.779 198.893 126.732H198.899ZM196.116 128.995L197.075 128.089L198.225 128.995C197.563 129.774 196.789 129.779 196.116 128.995Z" fill="#20261E"/>
<path d="M261.921 177.321C259.075 173.812 256.049 182.35 259.833 182.552C260.866 182.605 261.184 181.704 262.043 181.571C261.545 185.133 257.702 189.15 254.167 189.717C253.621 189.807 251.178 189.606 251.189 190.178C253.627 191.694 257.109 191.461 259.366 189.627C262.16 187.353 264.386 180.368 261.916 177.321H261.921ZM259.133 179.584L260.093 178.677L261.243 179.584C260.58 180.363 259.806 180.368 259.133 179.584Z" fill="#20261E"/>
<path d="M276.778 233.14C277.812 233.193 278.13 232.292 278.988 232.16C278.49 235.721 274.648 239.739 271.112 240.306C270.567 240.396 268.123 240.195 268.134 240.767C270.572 242.283 274.054 242.05 276.312 240.216C279.105 237.942 281.331 230.957 278.861 227.909C276.015 224.401 272.989 232.939 276.773 233.14H276.778ZM276.079 230.178L277.038 229.271L278.188 230.178C277.52 230.957 276.752 230.962 276.079 230.178Z" fill="#20261E"/>
<path d="M133.737 223.939C133.011 226.244 134.336 225.863 135.454 226.748C136.678 227.718 138.051 229.26 138.268 230.85C136.164 232.085 133.546 232.159 131.235 231.635C131.331 232.652 130.398 233.988 131.903 234.274C133.493 234.576 138.29 234.073 138.973 232.361C139.858 230.156 138.82 227.347 137.325 225.672C136.8 225.084 134.447 222.895 133.732 223.944L133.737 223.939Z" fill="#20261E"/>
<path d="M210.998 80.5902C211.883 78.3854 210.844 75.5764 209.35 73.9016C208.825 73.3133 206.472 71.1244 205.756 72.1738C205.03 74.4793 206.355 74.0977 207.474 74.9828C208.698 75.9527 210.071 77.495 210.288 79.085C208.179 80.3199 205.566 80.3941 203.255 79.8694C203.35 80.887 202.417 82.2226 203.923 82.5088C205.513 82.8109 210.309 82.3074 210.993 80.5955L210.998 80.5902Z" fill="#20261E"/>
<path d="M62.1905 131.179C63.0756 128.974 62.0368 126.165 60.5422 124.49C60.0175 123.902 57.6643 121.713 56.9488 122.762C56.2227 125.068 57.5477 124.686 58.666 125.571C59.8903 126.541 61.263 128.084 61.4803 129.674C59.3762 130.909 56.758 130.983 54.4472 130.458C54.5426 131.476 53.6098 132.811 55.115 133.097C56.705 133.4 61.5015 132.896 62.1852 131.184L62.1905 131.179Z" fill="#20261E"/>
<path d="M239.938 82.5141C240.441 82.5459 240.553 82.0371 240.685 81.6714C241.893 78.2529 240.123 70.8859 239.805 67.0169C239.731 66.1 239.853 65.1566 239.805 64.2397C238.252 64.6425 238.417 67.3084 238.47 68.6228C238.613 72.0572 239.482 75.9739 239.8 79.4719C239.837 79.9012 239.678 82.5247 239.938 82.5194V82.5141Z" fill="#20261E"/>
<path d="M49.3485 115.162C48.898 115.878 48.5853 117.023 48.6012 117.871C48.6701 122.513 50.5251 127.925 50.4774 132.705L51.0021 133.097C52.6027 127.188 49.8732 120.844 49.9474 114.823C49.3379 114.696 49.5234 114.892 49.3538 115.162H49.3485Z" fill="#20261E"/>
<path d="M126.14 216.344C125.69 217.06 125.377 218.204 125.393 219.052C125.462 223.695 127.317 229.106 127.269 233.887L127.794 234.279C129.395 228.37 126.665 222.026 126.739 216.005C126.13 215.878 126.315 216.074 126.146 216.344H126.14Z" fill="#20261E"/>
<path d="M81.9856 165.151C81.7047 166.206 81.0581 166.991 81.021 168.151C80.9256 170.997 81.9273 175.502 82.2453 178.529C82.4043 180.029 82.3301 181.836 82.5103 183.299C82.5527 183.67 82.664 184.067 83.035 183.691C84.3918 178.794 83.0032 173.446 82.5103 168.459C82.4096 167.415 82.929 165.74 81.9803 165.151H81.9856Z" fill="#20261E"/>
<path d="M184.462 165.151C184.181 166.206 183.535 166.991 183.498 168.151C183.402 170.997 184.404 175.502 184.722 178.529C184.881 180.029 184.807 181.836 184.987 183.299C185.029 183.67 185.141 184.067 185.512 183.691C186.868 178.794 185.48 173.446 184.987 168.459C184.886 167.415 185.406 165.74 184.457 165.151H184.462Z" fill="#20261E"/>
<path d="M147.923 63.9695C147.642 65.0242 146.996 65.8086 146.959 66.9693C146.863 69.8154 147.865 74.3204 148.183 77.3467C148.342 78.8466 148.268 80.6539 148.448 82.1167C148.49 82.4877 148.602 82.8852 148.978 82.5089C150.335 77.6117 148.946 72.264 148.453 67.2767C148.352 66.2326 148.872 64.5578 147.923 63.9695Z" fill="#20261E"/>
<path d="M141.807 218.793C141.892 222.349 143 226.785 143.413 230.442C143.509 231.274 143.095 232.334 143.811 232.949C144.637 232.939 144.521 228.492 144.484 227.776C144.266 223.764 142.899 219.789 143.148 215.735C141.961 215.873 141.786 217.85 141.807 218.782V218.793Z" fill="#20261E"/>
<path d="M65.0211 117.611C65.1059 121.167 66.2136 125.603 66.627 129.26C66.7224 130.092 66.309 131.152 67.0245 131.767C67.8513 131.756 67.7347 127.31 67.6976 126.594C67.4803 122.582 66.1129 118.607 66.362 114.552C65.1748 114.69 64.9999 116.667 65.0211 117.6V117.611Z" fill="#20261E"/>
<path d="M242.444 60.2645C240.95 60.8051 238.702 61.1867 238.209 59.2098L239.37 58.9554L239.837 59.6921L240.457 59.7345C241.199 59.4324 240.87 57.7099 240.155 57.3813C237.865 57.6463 235.687 59.6126 237.944 61.5895C236.943 61.722 236.657 62.623 236.354 63.4445L242.126 61.8068L242.439 60.2698L242.444 60.2645Z" fill="#20261E"/>
<path d="M148.002 60.503C147.456 60.6726 146.809 60.0684 146.327 60.3758C145.813 61.2238 145.188 62.1301 145.272 63.1742C146.809 61.0065 146.963 62.5435 148.813 62.3686C150.737 62.1884 153.45 59.5384 151.765 57.8742C150.186 56.3107 148.633 60.3069 148.002 60.503ZM148.977 60.7892C149.306 59.6603 150.975 58.2293 151.357 59.9942L148.977 60.7892Z" fill="#20261E"/>
<path d="M85.8343 159.051C84.2549 157.488 82.702 161.484 82.0713 161.68C81.5254 161.85 80.8788 161.246 80.3965 161.553C79.8824 162.401 79.257 163.307 79.3418 164.351C80.8788 162.184 81.0325 163.721 82.8822 163.546C84.8061 163.366 87.5197 160.716 85.8343 159.051ZM85.4262 161.171L83.0465 161.966C83.3751 160.837 85.0446 159.406 85.4262 161.171Z" fill="#20261E"/>
<path d="M185.352 163.546C187.276 163.366 189.989 160.716 188.304 159.051C186.725 157.488 185.172 161.484 184.541 161.68C183.995 161.85 183.349 161.246 182.866 161.553C182.352 162.401 181.727 163.307 181.811 164.351C183.348 162.184 183.502 163.721 185.352 163.546ZM187.901 161.171L185.521 161.966C185.85 160.837 187.52 159.406 187.901 161.171Z" fill="#20261E"/>
<path d="M226.481 67.4671C227.467 66.8258 228.066 65.3842 229.206 66.0944C229.614 64.7058 228.596 63.3967 228.904 61.759C226.746 60.1796 224.314 64.3825 227.351 65.4266C226.455 66.4389 225.215 67.0007 224.149 67.7904C223.853 68.013 223.492 67.7904 223.651 68.4741C224.033 68.7709 226.042 67.7533 226.481 67.4671ZM227.091 63.3066V62.9144H228.146V63.9691H227.753L227.091 63.3066Z" fill="#20261E"/>
<path d="M266.729 64.2871C267.715 63.6458 268.314 62.2042 269.453 62.9144C269.861 61.5258 268.844 60.2167 269.151 58.579C266.994 56.9996 264.561 61.2025 267.593 62.2466C266.697 63.2589 265.457 63.8207 264.392 64.6104C264.095 64.833 263.734 64.6104 263.893 65.2941C264.275 65.5909 266.284 64.5733 266.724 64.2871H266.729ZM267.338 60.1266V59.7344H268.393V60.7891H268.001L267.338 60.1266Z" fill="#20261E"/>
<path d="M205.635 61.9873C204.739 62.9996 203.499 63.5614 202.434 64.3511C202.137 64.5737 201.776 64.3511 201.935 65.0348C202.317 65.3316 204.326 64.314 204.766 64.0278C205.751 63.3865 206.35 61.9449 207.49 62.6551C207.898 61.2665 206.88 59.9574 207.188 58.3197C205.031 56.7403 202.598 60.9432 205.635 61.9873ZM206.435 59.4698V60.5245H206.043L205.38 59.862V59.4698H206.435Z" fill="#20261E"/>
<path d="M65.2226 169.969C66.2084 169.328 66.8073 167.886 67.9468 168.597C68.3549 167.208 67.3373 165.899 67.6447 164.261C65.4876 162.682 63.0549 166.885 66.0918 167.929C65.1961 168.941 63.9559 169.503 62.8906 170.293C62.5938 170.515 62.2334 170.293 62.3924 170.976C62.774 171.273 64.7827 170.256 65.2226 169.969ZM65.8374 165.809V165.417H66.8921V166.471H66.4999L65.8374 165.809Z" fill="#20261E"/>
<path d="M64.248 138.397C64.4229 138.562 67.1683 137.358 67.6771 137.199C68.5145 136.934 69.9455 137.311 69.9614 136.039C69.972 135.164 69.2618 135.79 68.6311 135.768C67.4969 135.737 66.1348 135.965 66.103 134.428C66.8874 134.38 67.64 134.274 67.6983 135.223C67.9315 135.408 69.1876 133.951 68.0587 133.113C67.1471 132.44 64.9264 134.009 64.7939 135.09L65.573 136.802C64.8151 136.892 64.2798 137.65 64.2533 138.397H64.248Z" fill="#20261E"/>
<path d="M141.033 239.575C141.208 239.739 143.954 238.536 144.462 238.377C145.3 238.112 146.731 238.488 146.747 237.216C146.757 236.342 146.047 236.967 145.416 236.946C144.282 236.914 142.92 237.142 142.888 235.605C143.673 235.557 144.425 235.451 144.484 236.4C144.717 236.585 145.973 235.128 144.844 234.29C143.932 233.617 141.712 235.186 141.579 236.267L142.358 237.979C141.6 238.069 141.065 238.827 141.039 239.575H141.033Z" fill="#20261E"/>
<path d="M139.508 61.7908C140.95 61.6689 144.357 60.0365 143.923 58.1709C141.225 57.1162 139.254 55.9979 138.39 59.7344C139.195 59.6443 139.423 58.9394 140.367 58.9341C140.573 58.9341 142.359 59.1779 141.829 59.7344C140.981 59.6973 137.181 61.9975 139.508 61.7961V61.7908Z" fill="#20261E"/>
<path d="M259.394 62.3791C258.546 62.342 254.746 64.6422 257.072 64.4408C258.514 64.3189 261.922 62.6865 261.487 60.8209C258.79 59.7662 256.818 58.6479 255.954 62.3844C256.76 62.2943 256.988 61.5894 257.931 61.5841C258.138 61.5841 259.924 61.8279 259.394 62.3844V62.3791Z" fill="#20261E"/>
<path d="M73.5744 162.968C75.016 162.846 78.4239 161.214 77.9893 159.348C75.2916 158.293 73.32 157.175 72.4561 160.912C73.2617 160.822 73.4896 160.117 74.433 160.111C74.6397 160.111 76.4258 160.355 75.8958 160.912C75.0478 160.875 71.2477 163.175 73.5744 162.973V162.968Z" fill="#20261E"/>
<path d="M126.967 174.119L124.767 173.102L123.591 175.047L125.313 176.52L126.861 175.201L128.684 176.261L129.792 174.416L127.926 172.842L126.967 174.119Z" fill="#20261E"/>
<path d="M228.817 224.225C228.706 224.469 228.568 224.718 228.716 224.978L230.667 226.308L231.992 224.75L233.582 226.022L234.986 224.347C234.504 223.886 233.37 222.269 232.686 222.667L231.689 223.934C231.075 224.04 230.131 221.437 228.822 224.225H228.817Z" fill="#20261E"/>
<path d="M148.315 174.956L150.043 176.154L151.31 174.548L148.983 172.836L148.013 174.135L146.222 173.117L145.019 175.047L146.995 176.493L148.315 174.956Z" fill="#20261E"/>
<path d="M148.585 123.043C148.474 123.287 148.336 123.536 148.485 123.796L150.435 125.126L151.76 123.568L153.35 124.84L154.755 123.165C154.272 122.704 153.138 121.088 152.454 121.485L151.458 122.752C150.843 122.858 149.9 120.255 148.591 123.043H148.585Z" fill="#20261E"/>
<path d="M213.718 175.72L215.043 174.162L216.633 175.434L218.037 173.759C217.555 173.298 216.421 171.681 215.737 172.079L214.741 173.346C214.126 173.452 213.183 170.849 211.874 173.637C211.762 173.881 211.624 174.13 211.773 174.39L213.723 175.72H213.718Z" fill="#20261E"/>
<path d="M28.2655 70.8965L27.2691 72.1632C26.6543 72.2692 25.7109 69.6669 24.4018 72.4547C24.2905 72.6985 24.1527 72.9476 24.3011 73.2073L26.2515 74.5376L27.5765 72.9794L29.1665 74.2514L30.571 72.5766C30.0887 72.1155 28.9545 70.499 28.2708 70.8965H28.2655Z" fill="#20261E"/>
<path d="M25.4509 119.068L27.1734 120.271L28.4507 118.666L26.124 116.948L25.1488 118.252L23.3627 117.229L22.2656 119.068L24.1312 120.627L25.4509 119.068Z" fill="#20261E"/>
<path d="M56.7001 170.981L58.6823 172.301L59.7264 170.213L57.988 168.883L56.6842 170.202L54.6013 169.105L53.4141 170.849L55.1684 172.275C55.9952 172.497 56.2072 171.437 56.7001 170.987V170.981Z" fill="#20261E"/>
<path d="M267.432 67.6582L265.641 66.6406L264.544 68.4797L266.41 70.0379L267.735 68.4797L269.457 69.6828L270.729 68.0716L268.402 66.3597L267.432 67.6582Z" fill="#20261E"/>
<path d="M246.26 122.487L244.463 121.459C242.566 123.181 243.218 123.573 244.961 124.877L246.159 123.303L248.131 124.628L249.313 122.943L247.341 121.231L246.26 122.487Z" fill="#20261E"/>
<path d="M83.7352 121.459C81.8378 123.181 82.4897 123.573 84.2387 124.877L85.4365 123.303L87.4081 124.628L88.59 122.943L86.6184 121.231L85.5372 122.487L83.7405 121.459H83.7352Z" fill="#20261E"/>
<path d="M111.242 74.2886L112.439 72.7145L114.411 74.0395L115.593 72.354L113.621 70.6422L112.54 71.8982L110.743 70.8701C108.846 72.5926 109.498 72.9848 111.242 74.2886Z" fill="#20261E"/>
<path d="M12.9969 70.5943C13.6965 70.4724 14.0357 69.6138 14.3272 69.5979C14.8201 69.5714 15.2653 70.6155 16.4578 69.5343C17.6079 68.4849 17.0514 65.9992 16.585 66.3543C16.267 67.1228 16.6115 68.257 15.6575 68.4796C14.412 68.7711 15.3448 66.9797 14.2 67.1493C14.5869 69.2481 11.3221 70.3611 12.345 67.6846C11.6083 66.9426 10.066 71.1031 12.9969 70.5996V70.5943Z" fill="#20261E"/>
<path d="M217.146 222.365C217.846 222.243 218.185 221.385 218.477 221.369C218.97 221.342 219.415 222.386 220.607 221.305C221.757 220.256 221.201 217.77 220.734 218.125C220.416 218.894 220.761 220.028 219.807 220.251C218.561 220.542 219.494 218.751 218.349 218.92C218.736 221.019 215.471 222.132 216.494 219.456C215.758 218.714 214.215 222.874 217.146 222.371V222.365Z" fill="#20261E"/>
<path d="M166.188 66.6245C165.451 65.8825 163.909 70.043 166.84 69.5395C167.539 69.4176 167.878 68.559 168.17 68.5431C168.663 68.5166 169.108 69.5607 170.301 68.4795C171.451 67.4301 170.894 64.9444 170.428 65.2995C170.11 66.068 170.454 67.2022 169.5 67.4248C168.255 67.7163 169.188 65.9249 168.043 66.0945C168.43 68.1933 165.165 69.3063 166.188 66.6298V66.6245Z" fill="#20261E"/>
<path d="M173.608 167.802C173.29 168.57 173.635 169.704 172.681 169.927C171.435 170.218 172.368 168.427 171.223 168.597C171.61 170.695 168.346 171.808 169.368 169.132C168.632 168.39 167.089 172.55 170.02 172.047C170.72 171.925 171.059 171.066 171.351 171.05C171.844 171.024 172.289 172.068 173.481 170.987C174.631 169.937 174.075 167.452 173.608 167.807V167.802Z" fill="#20261E"/>
<path d="M200.203 171.777C200.903 171.655 201.242 170.796 201.533 170.78C202.026 170.754 202.471 171.798 203.664 170.717C204.814 169.667 204.257 167.182 203.791 167.537C203.473 168.305 203.818 169.439 202.864 169.662C201.618 169.953 202.551 168.162 201.406 168.332C201.793 170.43 198.528 171.543 199.551 168.867C198.814 168.125 197.272 172.285 200.203 171.782V171.777Z" fill="#20261E"/>
<path d="M136.916 121.183C137.615 121.061 137.955 120.202 138.246 120.186C138.739 120.16 139.184 121.204 140.377 120.123C141.527 119.073 140.97 116.588 140.504 116.943C140.186 117.711 140.53 118.846 139.576 119.068C138.331 119.36 139.264 117.568 138.119 117.738C138.506 119.837 135.241 120.95 136.264 118.273C135.527 117.531 133.985 121.692 136.916 121.188V121.183Z" fill="#20261E"/>
<path d="M164.337 162.502C164.019 163.27 164.363 164.404 163.409 164.627C162.164 164.918 163.097 163.127 161.952 163.297C162.339 165.395 159.074 166.508 160.097 163.832C159.36 163.09 157.818 167.25 160.749 166.747C161.448 166.625 161.788 165.766 162.079 165.75C162.572 165.724 163.017 166.768 164.21 165.687C165.36 164.637 164.803 162.152 164.337 162.507V162.502Z" fill="#20261E"/>
<path d="M124.349 58.4096C124.132 58.1976 118.949 60.5826 118.715 60.7787C118.408 61.0331 117.799 62.4376 118 62.6443C120.162 61.5154 123.703 61.1709 124.349 58.4096Z" fill="#20261E"/>
<path d="M242.184 119.858C244.346 118.729 247.887 118.384 248.539 115.623C248.321 115.411 243.138 117.796 242.905 117.992C242.597 118.247 241.988 119.651 242.189 119.858H242.184Z" fill="#20261E"/>
<path d="M210.595 164.871C210.288 165.125 209.678 166.53 209.88 166.736C212.042 165.608 215.583 165.263 216.235 162.502C216.017 162.29 210.834 164.675 210.601 164.871H210.595Z" fill="#20261E"/>
<path d="M52.8628 167.796C55.0252 166.668 58.5656 166.323 59.2175 163.562C59.0002 163.35 53.8168 165.735 53.5836 165.931C53.2762 166.185 52.6667 167.59 52.8681 167.796H52.8628Z" fill="#20261E"/>
<path d="M73.2466 221.035C75.409 219.906 78.9494 219.561 79.6013 216.8C79.384 216.588 74.2006 218.973 73.9674 219.169C73.66 219.423 73.0505 220.828 73.2519 221.035H73.2466Z" fill="#20261E"/>
<path d="M190.552 221.035C192.714 219.906 196.254 219.561 196.901 216.8C196.684 216.588 191.5 218.973 191.267 219.169C190.96 219.423 190.35 220.828 190.552 221.035Z" fill="#20261E"/>
<path d="M192.402 121.448C194.564 120.319 198.105 119.975 198.757 117.213C198.539 117.001 193.356 119.386 193.123 119.582C192.815 119.837 192.206 121.241 192.407 121.448H192.402Z" fill="#20261E"/>
<path d="M32.4741 121.448C34.6365 120.319 38.1769 119.975 38.8288 117.213C38.6115 117.001 33.4281 119.386 33.1949 119.582C32.8875 119.837 32.278 121.241 32.4794 121.448H32.4741Z" fill="#20261E"/>
<path d="M236.81 54.9539C236.503 55.2083 235.893 56.6128 236.095 56.8195C238.257 55.6906 241.797 55.3461 242.449 52.5848C242.232 52.3728 237.049 54.7578 236.815 54.9539H236.81Z" fill="#20261E"/>
<path d="M110.05 216.8C109.832 216.588 104.649 218.973 104.416 219.169C104.108 219.423 103.499 220.828 103.7 221.035C105.863 219.906 109.403 219.561 110.055 216.8H110.05Z" fill="#20261E"/>
<path d="M150.299 164.622C150.081 164.41 144.898 166.795 144.665 166.991C144.357 167.245 143.748 168.65 143.949 168.856C146.112 167.728 149.652 167.383 150.304 164.622H150.299Z" fill="#20261E"/>
<path d="M258.334 108.998C258.116 108.786 252.933 111.171 252.7 111.367C252.392 111.622 251.783 113.026 251.984 113.233C254.147 112.104 257.687 111.759 258.334 108.998Z" fill="#20261E"/>
<path d="M119.055 110.588C118.838 110.376 113.655 112.761 113.421 112.957C113.114 113.212 112.505 114.616 112.706 114.823C114.868 113.694 118.409 113.35 119.061 110.588H119.055Z" fill="#20261E"/>
<path d="M227.546 215.465C227.238 215.719 226.629 217.124 226.83 217.33C228.992 216.201 232.533 215.857 233.179 213.096C232.962 212.884 227.779 215.269 227.546 215.465Z" fill="#20261E"/>
<path d="M29.028 61.3246C28.8107 61.1126 23.6274 63.4976 23.3942 63.6937C23.0868 63.9481 22.4772 65.3526 22.6786 65.5593C24.841 64.4304 28.3814 64.0859 29.028 61.3246Z" fill="#20261E"/>
<path d="M135.999 62.3846C135.781 62.1726 130.598 64.5576 130.365 64.7537C130.057 65.0081 129.448 66.4126 129.649 66.6193C131.812 65.4904 135.352 65.1459 135.999 62.3846Z" fill="#20261E"/>
<path d="M6.52631 120.653C8.68871 119.524 12.2291 119.18 12.8757 116.418C12.6584 116.206 7.47501 118.591 7.24181 118.787C6.93441 119.042 6.32491 120.446 6.52631 120.653Z" fill="#20261E"/>
<path d="M278.987 218.39C278.77 218.178 273.586 220.563 273.353 220.759C273.046 221.013 272.436 222.418 272.638 222.625C274.8 221.496 278.34 221.151 278.987 218.39Z" fill="#20261E"/>
<path d="M262.038 167.802C261.821 167.59 256.637 169.975 256.404 170.171C256.097 170.425 255.487 171.83 255.688 172.036C257.851 170.908 261.391 170.563 262.043 167.802H262.038Z" fill="#20261E"/>
<path d="M293.021 119.858C295.184 118.729 298.724 118.384 299.371 115.623C299.154 115.411 293.97 117.796 293.737 117.992C293.43 118.247 292.82 119.651 293.021 119.858Z" fill="#20261E"/>
<path d="M53.1235 115.353C55.2859 114.224 58.8263 113.879 59.4782 111.118C59.2609 110.906 54.0775 113.291 53.8443 113.487C53.5369 113.742 52.9274 115.146 53.1288 115.353H53.1235Z" fill="#20261E"/>
<path d="M28.2331 111.383C28.0158 111.171 22.8324 113.556 22.5992 113.752C22.2918 114.007 21.6823 115.411 21.8837 115.618C24.0461 114.489 27.5865 114.144 28.2384 111.383H28.2331Z" fill="#20261E"/>
<path d="M147.58 114.282C147.272 114.537 146.663 115.941 146.864 116.148C149.027 115.019 152.567 114.675 153.219 111.913C153.002 111.701 147.818 114.086 147.585 114.282H147.58Z" fill="#20261E"/>
<path d="M94.9607 217.86C94.7434 217.648 89.56 220.033 89.3268 220.229C89.0194 220.483 88.4099 221.888 88.6113 222.095C90.7737 220.966 94.3141 220.621 94.966 217.86H94.9607Z" fill="#20261E"/>
<path d="M136.263 212.301C136.046 212.089 130.863 214.474 130.629 214.67C130.322 214.924 129.713 216.329 129.914 216.535C132.076 215.406 135.617 215.062 136.263 212.301Z" fill="#20261E"/>
<path d="M185.782 67.6794C185.565 67.4674 180.381 69.8524 180.148 70.0485C179.841 70.3029 179.231 71.7074 179.433 71.9141C181.595 70.7852 185.135 70.4407 185.787 67.6794H185.782Z" fill="#20261E"/>
<path d="M264.349 116.667C264.042 116.922 263.432 118.326 263.634 118.533C265.796 117.404 269.337 117.06 269.983 114.298C269.766 114.086 264.582 116.471 264.349 116.667Z" fill="#20261E"/>
<path d="M156.527 177.066C157.035 177.039 157.719 174.05 157.714 173.494C157.714 172.842 156.807 169.975 156.352 169.704C155.7 169.317 155.159 170.33 155.159 170.849C155.159 171.114 156.193 172.715 156.325 173.557C156.479 174.538 156.304 175.121 156.251 176.011C156.224 176.467 155.928 176.684 156.521 177.066H156.527Z" fill="#20261E"/>
<path d="M141.432 178.656C141.941 178.629 142.624 175.64 142.619 175.084C142.619 174.432 141.713 171.565 141.257 171.294C140.605 170.907 140.064 171.92 140.064 172.439C140.064 172.704 141.098 174.305 141.23 175.147C141.384 176.128 141.209 176.711 141.156 177.601C141.13 178.057 140.833 178.274 141.427 178.656H141.432Z" fill="#20261E"/>
<path d="M164.863 158.267C164.656 158.06 159.775 160.403 159.494 160.636C159.186 160.885 158.593 162.274 158.778 162.502C159.96 161.717 163.236 160.88 164.153 160.138C164.428 159.91 164.974 158.378 164.863 158.267Z" fill="#20261E"/>
<path d="M174.131 163.562C173.925 163.355 169.043 165.698 168.762 165.931C168.455 166.18 167.861 167.569 168.047 167.797C169.229 167.012 172.504 166.175 173.421 165.433C173.702 165.205 174.243 163.673 174.131 163.562Z" fill="#20261E"/>
<path d="M213.32 246.199C213.993 246.226 220.947 244.164 219.675 243.025C217.566 243.586 214.025 243.836 213.32 246.199Z" fill="#20261E"/>
<path d="M251.713 185.811C249.604 186.373 246.063 186.622 245.358 188.986C246.031 189.012 252.985 186.951 251.713 185.811Z" fill="#20261E"/>
<path d="M188.691 135.222C186.581 135.784 183.041 136.033 182.336 138.397C183.009 138.424 189.963 136.362 188.691 135.222Z" fill="#20261E"/>
<path d="M94.6953 138.927C95.3684 138.954 102.322 136.892 101.05 135.752C98.9406 136.314 95.4002 136.563 94.6953 138.927Z" fill="#20261E"/>
<path d="M46.5041 186.606C44.3947 187.168 40.8543 187.417 40.1494 189.781C40.8225 189.807 47.7761 187.746 46.5041 186.606Z" fill="#20261E"/>
<path d="M58.1562 87.8086C58.8294 87.8351 65.783 85.7734 64.511 84.6339C62.4016 85.1957 58.8612 85.4448 58.1562 87.8086Z" fill="#20261E"/>
<path d="M123.295 190.311C123.968 190.337 130.922 188.276 129.65 187.136C127.54 187.698 124 187.947 123.295 190.311Z" fill="#20261E"/>
<path d="M107.671 192.171C105.562 192.733 102.021 192.982 101.316 195.346C101.99 195.372 108.943 193.311 107.671 192.171Z" fill="#20261E"/>
<path d="M70.5959 138.402C68.4865 138.964 64.9461 139.213 64.2412 141.577C64.9143 141.604 71.8679 139.542 70.5959 138.402Z" fill="#20261E"/>
<path d="M188.431 92.8384C189.104 92.8649 196.057 90.8032 194.785 89.6637C192.676 90.2255 189.136 90.4746 188.431 92.8384Z" fill="#20261E"/>
<path d="M165.393 93.1034C166.066 93.1299 173.019 91.0682 171.747 89.9287C169.638 90.4905 166.097 90.7396 165.393 93.1034Z" fill="#20261E"/>
<path d="M15.5236 91.2537C13.4142 91.8155 9.87385 92.0646 9.16895 94.4284C9.84205 94.4549 16.7956 92.3932 15.5236 91.2537Z" fill="#20261E"/>
<path d="M108.2 94.6934C108.873 94.7199 115.827 92.6582 114.555 91.5187C112.445 92.0805 108.905 92.3296 108.2 94.6934Z" fill="#20261E"/>
<path d="M202.726 192.431C200.616 192.993 197.076 193.242 196.371 195.606C197.044 195.632 203.998 193.57 202.726 192.431Z" fill="#20261E"/>
<path d="M140.769 242.754C141.442 242.781 148.395 240.719 147.123 239.58C145.014 240.141 141.473 240.391 140.769 242.754Z" fill="#20261E"/>
<path d="M133.09 145.017C133.763 145.043 140.717 142.982 139.445 141.842C137.335 142.404 133.795 142.653 133.09 145.017Z" fill="#20261E"/>
<path d="M169.633 240.369C170.306 240.396 177.26 238.334 175.988 237.195C173.878 237.757 170.338 238.006 169.633 240.369Z" fill="#20261E"/>
<path d="M268.658 236.4C266.549 236.961 263.009 237.211 262.304 239.574C262.977 239.601 269.93 237.539 268.658 236.4Z" fill="#20261E"/>
<path d="M87.0149 144.757C86.1086 144.694 79.6267 146.528 80.9252 147.932C81.5029 147.831 88.2922 145.902 87.0149 144.757Z" fill="#20261E"/>
<path d="M155.332 242.754C155.91 242.654 162.699 240.725 161.422 239.58C160.516 239.516 154.034 241.35 155.332 242.754Z" fill="#20261E"/>
<path d="M155.598 240.104C156.191 239.988 162.938 238.096 161.687 236.93C159.838 237.719 155.651 237.629 155.598 240.104Z" fill="#20261E"/>
<path d="M87.2811 142.107C85.4314 142.897 81.2444 142.807 81.1914 145.282C81.785 145.165 88.5319 143.273 87.2811 142.107Z" fill="#20261E"/>
<path d="M114.592 118.501L116.516 119.847L117.708 117.929L115.785 116.44C115.339 116.742 114.311 118.014 114.597 118.501H114.592Z" fill="#20261E"/>
<path d="M170.183 176.101L172.139 177.601L173.316 175.661L171.392 174.177C170.878 174.506 169.998 175.476 170.183 176.101Z" fill="#20261E"/>
<path d="M170.093 86.6163L168.174 84.9097C167.782 85.4079 166.521 86.1552 166.733 86.8495L168.667 88.3229L170.093 86.6163Z" fill="#20261E"/>
<path d="M207.194 67.1813L205.238 65.8722L203.797 67.5417L206.018 69.2589C206.346 68.7925 207.507 67.7219 207.194 67.176V67.1813Z" fill="#20261E"/>
<path d="M131.779 219.317L134 221.035C134.329 220.568 135.489 219.498 135.177 218.952L133.221 217.643L131.779 219.312V219.317Z" fill="#20261E"/>
<path d="M234.769 176.928L236.973 178.37L238.182 176.711C237.88 176.202 236.39 174.941 235.86 175.248L234.769 176.928Z" fill="#20261E"/>
<path d="M252.807 225.842L251.715 227.522L253.92 228.964L255.128 227.305C254.826 226.796 253.337 225.535 252.807 225.842Z" fill="#20261E"/>
<path d="M266.035 121.278L268.001 122.969L269.39 121.31L267.466 119.656L266.035 121.278Z" fill="#20261E"/>
<path d="M101.331 168.687L103.292 170.181L104.469 168.242L102.534 166.752L101.331 168.687Z" fill="#20261E"/>
<path d="M50.7111 75.5287C50.409 75.0199 48.9197 73.7585 48.3897 74.0659L47.2979 75.746L49.5027 77.1876L50.7111 75.5287Z" fill="#20261E"/>
<path d="M54.9893 118.136L57.21 119.853C57.5386 119.386 58.6993 118.316 58.3866 117.77L56.4309 116.461L54.9946 118.13L54.9893 118.136Z" fill="#20261E"/>
<path d="M173.686 127.781L174.895 126.123C174.593 125.614 173.103 124.352 172.573 124.66L171.481 126.34L173.686 127.781Z" fill="#20261E"/>
<path d="M28.4823 69.4339L26.5213 67.9446L25.3447 69.8844L27.2951 71.3896L28.4823 69.4339Z" fill="#20261E"/>
<path d="M232.898 221.204L230.937 219.715L229.761 221.65L231.716 223.155L232.898 221.204Z" fill="#20261E"/>
<path d="M212.812 171.061L214.767 172.566L215.954 170.616L213.988 169.121L212.812 171.061Z" fill="#20261E"/>
<path d="M152.668 120.022L150.707 118.533L149.53 120.472L151.486 121.978L152.668 120.022Z" fill="#20261E"/>
<path d="M10.1931 139.155L10.9987 137.522C10.5853 137.045 9.76905 135.858 9.08535 136.038L7.87695 137.697C8.18435 138.206 9.65775 139.468 10.1984 139.155H10.1931Z" fill="#20261E"/>
<path d="M192.359 86.6535C192.057 86.1765 191.008 85.09 190.451 85.2013C190.139 85.2596 189.047 86.3514 189.248 86.8284C190.414 88.5032 191.681 88.9325 192.354 86.6535H192.359Z" fill="#20261E"/>
<path d="M146.905 170.234L146.089 171.851L148.029 173.356L149.221 171.676C148.739 171.119 147.727 169.757 146.905 170.234Z" fill="#20261E"/>
<path d="M133.721 70.8433L134.935 69.1632L132.995 67.6951C130.986 68.8823 131.914 70.2868 133.721 70.838V70.8433Z" fill="#20261E"/>
<path d="M124.589 33.8443C125.77 33.8443 127.053 33.5899 128.373 33.0705C131.542 31.825 133 29.1167 132.708 25.0251C134.807 25.2742 136.328 24.5428 137.473 22.7302C138.305 23.8061 139.837 24.3679 141.125 24.0393C142.19 23.769 142.842 22.9634 142.964 21.7656C143.101 20.3823 142.561 19.9318 141.877 19.3647C141.713 19.2322 141.538 19.0838 141.352 18.9089C142.227 18.8718 143.165 18.681 144.077 18.5008C145.068 18.3047 146.091 18.098 146.992 18.098C147.628 18.098 148.603 18.3259 149.546 18.5485C150.463 18.7605 151.322 18.9619 151.772 18.9248C152.329 18.8718 152.938 17.8754 153.468 16.9479L153.707 16.5345H153.479C151.263 16.5186 149.281 15.4321 147.363 14.3827C146.255 13.7785 145.211 13.2008 144.124 12.8245C142.656 12.3157 141.496 12.3051 140.674 12.8086C139.943 13.2538 139.487 14.0965 139.317 15.3155L139.285 15.5434L139.497 15.4533C141.289 14.7166 142.301 14.8968 143.891 15.5858C144.464 15.8296 144.877 16.084 145.057 16.2907C144.665 16.3543 144.241 16.4126 143.796 16.4762C142.248 16.6882 140.494 16.9267 139.285 17.6422C138.321 18.2146 137.849 19.0785 137.388 19.9212C136.736 21.119 136.116 22.2479 134.139 22.5129C132.332 22.7567 131.924 22.073 131.256 20.9388C131.092 20.6632 130.906 20.3505 130.689 20.0325L130.588 19.8841L130.477 20.0219C129.189 21.6119 129.783 23.1012 130.413 24.6753C130.827 25.7088 131.251 26.7741 131.134 27.9083C131.023 28.9948 129.523 29.9488 128.277 30.4311C125.622 31.4646 122.956 31.3586 121.488 30.1555C120.396 29.2598 119.988 27.7811 120.317 25.8784C120.322 25.836 120.396 25.6558 120.47 25.4809C120.942 24.3255 121.149 23.6524 120.905 23.4245C120.804 23.3291 120.656 23.3291 120.465 23.4245L120.433 23.4404L120.412 23.4669C118.361 26.4508 118.133 29.6202 119.819 31.7402C120.916 33.1182 122.612 33.8337 124.594 33.8337L124.589 33.8443ZM141.077 21.5748C140.128 21.6172 138.808 21.3681 138.549 20.4883C139.381 20.4088 140.425 20.5572 141.077 21.5748Z" fill="#20261E"/>
<path d="M56.5636 37.856L56.5795 37.9143C56.7014 38.1475 56.8604 38.1899 56.9611 38.1899C56.977 38.1899 56.9876 38.1899 57.0035 38.1899C57.2049 38.1687 57.3904 37.9726 57.454 37.7129C57.8992 36.0063 57.3639 33.3722 56.8498 30.8229C56.5159 29.1587 56.1926 27.5899 56.1714 26.3921L57.5653 24.5371C59.468 25.6607 61.1163 26.143 62.7487 26.0688H62.8335L63.2787 25.0194C66.9728 25.7031 69.3313 25.1307 70.4708 23.2757C72.3205 26.2437 76.587 25.2102 78.8978 24.6537C79.8942 24.4099 80.8641 24.0548 81.7969 23.705C84.1183 22.8464 86.3072 22.0355 88.9148 22.8888L89.0208 22.9259L90.42 20.2123L90.1815 20.2335C88.5014 20.3713 86.9273 20.1752 84.9345 19.5763C84.2084 19.359 83.3922 18.988 82.5283 18.6011C80.5249 17.6948 78.2565 16.6719 76.693 17.4775C75.8291 17.9227 75.2673 18.8608 74.9758 20.3395L74.944 20.4985H75.1083C75.5111 20.4879 75.8556 20.3024 76.1895 20.1275C76.4545 19.9897 76.7036 19.8572 76.9739 19.8042C77.912 19.6293 80.6468 20.419 81.5849 20.949C81.675 21.002 81.7598 21.0232 81.8181 21.0391C81.8446 21.0444 81.8817 21.055 81.887 21.0603C81.887 21.0709 81.9029 21.1186 81.8764 21.3147C81.6061 21.3836 81.304 21.4684 80.9701 21.5638C78.442 22.2634 74.2126 23.44 72.4053 22.0302C71.8064 21.5638 71.5149 20.8271 71.5361 19.8413V19.6505L71.3612 19.7088C70.7888 19.9049 70.5026 20.3554 70.1952 20.8324C69.9355 21.2405 69.6652 21.6592 69.2041 21.9613C67.577 23.0213 64.503 22.8888 62.7593 21.6963C62.4519 21.4843 62.2081 21.2193 61.9802 20.9596C61.4449 20.366 60.9414 19.7989 59.7966 20.1699C57.9893 20.7529 55.2492 23.3976 54.9259 25.3056C54.5973 27.2295 55.175 29.9272 55.7368 32.5454C56.1555 34.5064 56.553 36.3614 56.5795 37.856H56.5636ZM59.0493 22.3164C59.1977 22.1574 59.4203 22.0726 59.68 22.0726C59.8549 22.0726 60.051 22.1097 60.2524 22.1839C60.7612 22.3747 61.2859 22.8093 61.4237 23.3234C61.2806 23.2757 61.0792 23.2227 60.8036 23.1538C60.1994 22.9948 59.0758 22.7033 58.991 22.4277C58.991 22.4171 58.9751 22.38 59.0387 22.3164H59.0493Z" fill="#20261E"/>
<path d="M183.593 23.7531C185.178 23.8273 186.911 23.3238 187.298 22.2691C187.356 22.4175 187.414 22.6242 187.467 22.8097C187.764 23.8538 188.262 25.5975 190.186 26.0003C190.504 26.0692 190.822 26.101 191.13 26.101C193.048 26.101 194.691 24.8449 195.401 22.762L195.746 22.6613C196.08 23.8803 197.283 24.882 198.862 25.2265C200.463 25.5763 201.926 25.1629 202.689 24.1453C204.3 21.9935 203.314 18.9195 202.36 15.9462C201.793 14.1813 201.263 12.5171 201.274 11.102V10.9695H201.141H201.131C200.876 10.9695 200.643 11.0755 200.436 11.2822C199.901 11.8228 199.663 12.9888 199.673 13.6089C199.684 14.335 200.256 16.2589 200.808 18.1245C201.285 19.7304 201.873 21.7179 201.815 22.0942C200.288 22.4705 199.117 22.3539 198.232 21.7444C196.541 20.5837 196.207 17.7429 195.91 15.236C195.82 14.494 195.741 13.7944 195.629 13.1478C195.619 13.0842 195.608 12.9835 195.587 12.851C195.433 11.632 195.28 10.9748 194.925 10.9748H194.85L194.813 11.0278C193.472 12.7927 193.886 14.9074 194.283 16.9479C194.447 17.7853 194.617 18.6492 194.649 19.4548C194.723 21.1985 194.665 21.7921 192.942 22.5712C191.776 23.0959 190.833 23.1648 190.128 22.7673C189.423 22.3698 188.983 21.5165 188.824 20.2286C188.686 19.105 188.734 17.674 188.782 16.2907C188.803 15.6229 188.824 14.9975 188.824 14.4198C188.824 14.3456 188.782 14.2873 188.713 14.1919C188.633 14.0806 188.511 13.9163 188.549 13.7944L188.67 13.3863L188.342 13.6513C187.409 14.4039 186.895 15.7342 186.927 17.3189C184.886 17.8807 181.346 20.2604 181.42 22.6507C181.441 23.398 182.56 23.716 183.593 23.7637V23.7531ZM185.225 19.7675C186.164 19.3064 187.038 19.0785 187.25 19.1315C187.335 19.6721 187.266 20.0643 187.033 20.3293C186.572 20.8593 185.501 20.8169 184.552 20.7798C184.309 20.7692 184.07 20.7586 183.848 20.7586C184.007 20.4777 184.51 20.112 185.22 19.7622L185.225 19.7675Z" fill="#20261E"/>
<path d="M219.547 38.1212L219.563 38.3385L219.748 38.2272C220.49 37.782 220.405 36.4517 220.347 35.5719L220.331 35.3281C220.268 34.1197 219.96 32.6675 219.658 31.263C219.303 29.6041 218.943 27.8869 218.99 26.6043C219.017 25.9736 219.414 25.0355 219.95 24.6857C220.183 24.532 220.421 24.5055 220.665 24.6009C221.047 24.7493 221.428 24.9666 221.836 25.1892C222.907 25.7881 224.121 26.4665 225.562 25.9418L225.626 25.9206L225.87 25.0302C226.045 25.0567 226.214 25.0885 226.384 25.115C226.999 25.221 227.576 25.3217 228.281 25.274C228.817 25.2369 229.399 25.009 229.908 24.8129C230.306 24.6592 230.682 24.5108 230.921 24.5055H230.942C231.212 24.5055 231.477 24.6009 231.784 24.7122C232.261 24.8818 232.807 25.0726 233.555 24.9931C234.238 24.9189 235.219 24.3412 235.807 23.9967C235.971 23.9013 236.146 23.7953 236.215 23.7688C236.29 23.8059 236.48 23.9225 236.65 24.0232C237.079 24.2882 237.667 24.6433 238.023 24.7493C239.04 25.0567 239.713 25.0673 240.211 24.7864C240.657 24.532 240.975 24.0391 241.203 23.2441C242.533 24.1822 244.181 25.3482 245.888 24.4048L245.925 24.3836L245.946 24.3465C248.108 19.7567 244.187 15.0132 242.936 13.6723L242.909 13.6405L242.867 13.6299C242.665 13.5875 242.528 13.5928 242.432 13.6564C242.31 13.7359 242.284 13.879 242.263 14.0115C242.247 14.0857 242.236 14.1652 242.204 14.2394C241.658 15.6386 241.42 16.4813 242.761 17.5784C242.914 17.7003 243.068 17.6897 243.201 17.6791C243.323 17.6738 243.376 17.6685 243.418 17.7162C243.922 18.2356 245.443 21.6382 245.278 22.0993C244.441 22.2 242.305 21.8926 242.082 21.2089C242.029 21.0499 242.045 20.8591 242.056 20.6736C242.072 20.4192 242.093 20.1754 241.929 20.0376C241.812 19.9369 241.627 19.9157 241.362 19.974L241.277 19.9952L241.261 20.08C241.113 20.8273 240.821 21.8926 240.005 22.5074C239.56 22.6929 237.954 22.1152 237.683 21.6912C238.081 20.1648 238.012 19.9952 237.853 19.9157C237.657 19.815 237.45 20.0641 237.042 20.557C236.793 20.8591 236.517 21.1983 236.242 21.4368C235.288 22.2742 234.005 22.7141 232.781 22.6293C232.781 22.2689 232.908 21.9403 233.041 21.5905C233.168 21.2513 233.3 20.8962 233.316 20.5093C233.327 20.2708 233.316 19.9846 233.115 19.9157C232.86 19.8362 232.558 20.2231 232.198 20.7425C232.14 20.8326 232.065 20.928 232.049 20.9492C230.565 22.306 228.027 23.4137 225.737 22.0728C225.424 21.8873 225.038 21.4633 224.667 21.0499C224.211 20.5411 223.813 20.1065 223.49 20.0164C222.292 19.6825 219.128 22.4279 218.503 23.3395C216.997 25.5337 217.946 29.938 218.784 33.8229C219.139 35.4606 219.467 37.0029 219.547 38.1212ZM221.624 22.3166C221.778 22.1523 222.006 22.0728 222.266 22.0728C222.446 22.0728 222.642 22.1099 222.849 22.1894C223.358 22.3855 223.882 22.8307 224.009 23.3448C223.792 23.2653 223.569 23.1964 223.352 23.1328C222.955 23.0056 222.541 22.8784 222.16 22.7035C222.112 22.6823 222.043 22.6664 221.958 22.6505C221.847 22.6293 221.55 22.5657 221.524 22.4862C221.518 22.4703 221.534 22.412 221.624 22.3166Z" fill="#20261E"/>
<path d="M100.378 22.6874C100.33 22.6874 100.277 22.6874 100.229 22.6874C98.6129 22.6874 96.53 22.0567 96 21.0974L95.8993 20.9172L95.7774 21.0868C95.1997 21.8818 94.9983 22.6556 95.1891 23.3234C95.364 23.9329 95.8675 24.4205 96.6466 24.7491L96.6996 24.9929C96.0636 27.5634 94.1397 29.5191 91.2883 30.4996L86.0996 31.5649L86.4282 31.7398C87.7585 32.4447 89.1471 32.7945 90.4986 32.7945C91.8501 32.7945 93.0691 32.4659 94.2139 31.8034C96.477 30.4996 97.8497 28.1146 97.9981 25.2579C98.2949 25.2473 98.6394 25.2579 98.9998 25.2579C100.251 25.2844 101.814 25.3162 102.646 24.6219C104.226 23.3022 103.849 19.9526 103.6 17.7372C103.574 17.4934 103.547 17.2708 103.526 17.0694C103.452 16.3221 103.303 15.5483 103.15 14.7268C102.742 12.5856 102.318 10.3702 103.25 8.67948L103.288 8.61058L101.47 5.57898L101.348 5.70618C100.017 7.11068 100.24 7.83678 100.547 8.83848C100.648 9.17238 100.765 9.54868 100.839 9.99918C101.491 13.9848 101.957 18.0764 102.376 21.9295C102.127 22.3853 101.401 22.6609 100.373 22.6874H100.378Z" fill="#20261E"/>
<path d="M158.895 20.9596L158.8 21.0921C158.222 21.8871 158.021 22.6609 158.212 23.3287C158.386 23.9382 158.89 24.4258 159.669 24.7544L159.722 24.9982C159.086 27.5687 157.162 29.5244 154.311 30.5049L149.122 31.5702L149.451 31.7451C150.781 32.45 152.17 32.7998 153.521 32.7998C154.873 32.7998 156.092 32.4712 157.236 31.8087C159.499 30.5049 160.872 28.1252 161.021 25.2632C161.27 25.2632 161.551 25.2632 161.842 25.2632C163.061 25.2844 164.582 25.3109 165.404 24.6219C166.983 23.3022 166.607 19.9526 166.358 17.7372C166.331 17.4934 166.305 17.2708 166.283 17.0694C166.209 16.3221 166.061 15.5483 165.907 14.7268C165.499 12.5856 165.075 10.3702 166.008 8.67948L166.045 8.61058L164.227 5.57898L164.105 5.70618C162.775 7.11068 162.997 7.83678 163.305 8.83848C163.406 9.17238 163.522 9.54868 163.596 9.99388C164.248 13.9689 164.709 18.0499 165.133 21.8977C164.317 22.6185 163.3 22.7351 162.573 22.7033C161.233 22.6397 159.833 22.0037 159.007 21.0762L158.895 20.9543V20.9596Z" fill="#20261E"/>
<path d="M207.569 6.48541L207.415 6.39001L207.367 6.56491C207.261 6.96241 207.102 7.32811 206.943 7.67791C206.689 8.25561 206.424 8.85451 206.397 9.59121C206.334 11.4515 206.731 13.9637 207.113 16.3911C207.32 17.6949 207.51 18.9245 207.622 19.9845C207.696 20.6947 207.722 21.495 207.744 22.2635C207.77 23.1115 207.797 23.986 207.887 24.7598C207.918 25.0195 207.982 25.3322 208.194 25.4011C208.226 25.4117 208.258 25.417 208.284 25.417C208.448 25.417 208.586 25.2792 208.639 25.2262L208.666 25.1997L208.676 25.1679C209.715 21.4208 209.153 17.4087 208.613 13.5344C208.443 12.3313 208.274 11.0858 208.157 9.88801C208.125 9.59121 208.152 9.24141 208.173 8.86511C208.231 7.95881 208.3 6.93591 207.563 6.48011L207.569 6.48541Z" fill="#20261E"/>
<path d="M170.761 6.48541L170.607 6.39001L170.56 6.56491C170.454 6.96241 170.295 7.32811 170.136 7.67791C169.881 8.25561 169.616 8.85451 169.59 9.59121C169.526 11.4515 169.924 13.9637 170.305 16.3911C170.512 17.6949 170.703 18.9245 170.814 19.9845C170.888 20.6947 170.915 21.495 170.936 22.2635C170.962 23.1115 170.989 23.986 171.079 24.7598C171.111 25.0195 171.174 25.3322 171.386 25.4011C171.418 25.4117 171.45 25.417 171.477 25.417C171.641 25.417 171.779 25.2792 171.832 25.2262L171.858 25.1997L171.869 25.1679C172.908 21.4208 172.346 17.4087 171.805 13.5344C171.636 12.3313 171.466 11.0858 171.349 9.88801C171.318 9.59121 171.344 9.24141 171.365 8.86511C171.424 7.95881 171.492 6.93591 170.756 6.48011L170.761 6.48541Z" fill="#20261E"/>
<path d="M107.744 6.48541L107.591 6.39001L107.543 6.56491C107.437 6.96241 107.278 7.32811 107.119 7.67791C106.865 8.25561 106.6 8.84921 106.573 9.59121C106.51 11.4515 106.907 13.9637 107.289 16.3964C107.495 17.7002 107.686 18.9298 107.797 19.9898C107.872 20.7 107.898 21.5003 107.919 22.2741C107.946 23.1221 107.972 23.9966 108.062 24.7651C108.094 25.0248 108.158 25.3375 108.37 25.4117C108.402 25.4223 108.433 25.4276 108.46 25.4276C108.624 25.4276 108.762 25.2898 108.815 25.2368L108.842 25.2103L108.852 25.1785C109.891 21.4314 109.329 17.4193 108.789 13.5397C108.619 12.3366 108.449 11.0911 108.333 9.89861C108.306 9.60181 108.327 9.25201 108.349 8.87571C108.407 7.96941 108.476 6.94651 107.739 6.49071L107.744 6.48541Z" fill="#20261E"/>
<path d="M104.92 6.17262L105.132 5.87582C106.065 4.55612 106.42 4.67802 107.056 4.90062C107.427 5.02782 107.893 5.18682 108.577 5.12322C109.934 4.99602 111.587 3.71342 112.043 2.43082C112.319 1.65702 112.17 0.957417 111.609 0.400917C111.312 0.104117 110.989 -0.0230834 110.644 0.00341661C109.791 0.0882166 109.043 1.19592 108.445 2.08632C108.169 2.49442 107.862 2.95022 107.713 2.99792C107.496 3.06682 107.252 2.98732 106.998 2.90252C106.664 2.79652 106.319 2.69052 106.007 2.88662L105.832 3.15162C105.355 3.93072 104.814 4.81052 104.894 5.80692L104.92 6.17262ZM110.379 1.92202C110.379 1.92202 110.395 1.92202 110.4 1.92202C110.66 1.93262 110.845 2.13402 110.951 2.53152L108.948 3.19932C109.234 2.57392 109.876 1.92202 110.379 1.92202Z" fill="#20261E"/>
<path d="M167.943 6.17262L168.155 5.87582C169.087 4.55612 169.437 4.67802 170.078 4.90062C170.449 5.02782 170.911 5.18682 171.6 5.12322C172.956 4.99602 174.605 3.71342 175.066 2.43082C175.341 1.65702 175.193 0.957417 174.631 0.400917C174.334 0.104117 174.011 -0.0230834 173.667 0.00341661C172.813 0.0882166 172.066 1.19592 171.467 2.08632C171.191 2.49442 170.884 2.95022 170.736 2.99792C170.524 3.06682 170.275 2.98732 170.02 2.90252C169.686 2.79652 169.342 2.69052 169.029 2.88662L168.854 3.15162C168.377 3.93072 167.837 4.81052 167.916 5.81222L167.943 6.17792V6.17262ZM173.402 1.92202C173.402 1.92202 173.417 1.92202 173.423 1.92202C173.682 1.93262 173.868 2.13402 173.974 2.53152L171.971 3.19932C172.251 2.57922 172.898 1.92202 173.402 1.92202Z" fill="#20261E"/>
<path d="M204.744 6.17262L204.956 5.87582C205.889 4.55612 206.239 4.67802 206.88 4.90062C207.251 5.02782 207.718 5.18682 208.401 5.12322C209.758 4.99602 211.406 3.71342 211.868 2.43082C212.143 1.65702 211.995 0.957417 211.433 0.400917C211.136 0.104117 210.813 -0.0230834 210.468 0.00341661C209.615 0.0882166 208.868 1.19592 208.269 2.08632C207.993 2.49442 207.686 2.95022 207.537 2.99792C207.325 3.06682 207.076 2.98732 206.822 2.90252C206.488 2.79652 206.143 2.69052 205.831 2.88662L205.656 3.15162C205.179 3.93072 204.638 4.81052 204.718 5.81222L204.744 6.17792V6.17262ZM210.203 1.92202C210.203 1.92202 210.219 1.92202 210.225 1.92202C210.484 1.93262 210.67 2.13402 210.776 2.53152L208.772 3.19932C209.053 2.57392 209.7 1.92202 210.203 1.92202Z" fill="#20261E"/>
<path d="M146.604 8.27683C145.851 8.60543 143.535 9.77673 143.636 10.3703C143.673 10.5982 143.954 10.6512 144.261 10.6512C144.356 10.6512 144.457 10.6459 144.547 10.6406C146.264 10.5081 149.179 9.09303 149.27 7.72563C149.323 6.95713 148.522 6.39533 146.9 6.05083C145.798 5.81763 145.014 5.89183 144.441 6.28933C143.848 6.69743 143.482 7.46063 143.286 8.69553L143.228 9.07713L143.508 8.81213C144.356 8.01713 145.597 7.48713 146.604 8.27683Z" fill="#20261E"/>
<path d="M234.319 12.9036C235.157 12.416 235.819 12.0344 236.725 12.8559C236.598 13.0043 236.005 13.2693 235.602 13.4442C234.727 13.8311 233.821 14.2286 233.731 14.7162C233.71 14.8275 233.72 14.9918 233.885 15.1614L233.927 15.2038H233.991C236.095 15.0713 239.248 14.006 239.296 11.6157V11.5309L239.227 11.4938C237.155 10.4179 235.724 10.1529 234.738 10.6617C233.985 11.0486 233.508 11.9019 233.323 13.1951L233.291 13.4283L233.508 13.3329C233.8 13.2057 234.07 13.052 234.33 12.8983L234.319 12.9036Z" fill="#20261E"/>
<path d="M73.5848 29.1058L71.5125 27.06L70.2988 28.6659L68.3166 27.3303L67.0234 29.4927L68.9314 31.1092L70.2511 29.816L72.3287 30.8495L73.5848 29.1058Z" fill="#20261E"/>
<path d="M192.291 7.36011L192.233 7.30181C192.079 7.14811 191.878 7.13221 191.681 7.25941C191.204 7.57211 190.712 8.84411 191.051 9.70801C191.199 10.079 191.538 10.4818 192.323 10.4818C192.471 10.4818 192.63 10.4659 192.81 10.4394C193.271 10.3599 193.589 9.99951 193.817 9.73451C193.929 9.60731 194.061 9.45361 194.13 9.44831C194.241 9.44301 194.363 9.51721 194.506 9.60731C194.899 9.85111 195.434 10.1744 196.34 9.35291C197.352 8.43071 197.135 6.53331 196.732 6.05101C196.579 5.86551 196.409 5.88671 196.303 5.97151L196.277 5.99271L196.261 6.02451C196.149 6.30011 196.112 6.60751 196.08 6.90961C196.012 7.55091 195.943 7.95371 195.423 8.07561C195.238 8.11801 195.1 8.11271 195.015 8.05441C194.888 7.96961 194.851 7.75761 194.814 7.52971C194.75 7.15341 194.66 6.63401 193.976 6.73471L193.839 6.75591L193.865 6.88841C194.019 7.70991 193.558 8.38301 193.044 8.67981C192.726 8.86531 192.408 8.89181 192.238 8.74341C192.015 8.55261 192.026 8.07561 192.27 7.43961L192.302 7.36011H192.291Z" fill="#20261E"/>
<path d="M96.4722 9.40565L96.4457 9.42685L96.4298 9.45865C96.3185 9.73425 96.2814 10.0416 96.2496 10.3437C96.1807 10.985 96.1118 11.3878 95.5924 11.5097C95.4069 11.5521 95.2691 11.5468 95.1843 11.4885C95.0571 11.4037 95.02 11.1917 94.9829 10.9638C94.9193 10.5875 94.8345 10.0681 94.1508 10.1688L94.013 10.19L94.0395 10.3225C94.1932 11.144 93.7321 11.8172 93.2127 12.1193C92.8947 12.3047 92.5767 12.3312 92.4071 12.1828C92.1845 11.992 92.1951 11.515 92.4389 10.879L92.4707 10.7995L92.4124 10.7412C92.2587 10.5875 92.0573 10.5716 91.8612 10.6988C91.3842 11.0115 90.8913 12.2835 91.2305 13.1474C91.3789 13.5184 91.7181 13.9212 92.5025 13.9212C92.6509 13.9212 92.8099 13.9054 92.9901 13.8788C93.4512 13.7993 93.7692 13.439 93.9971 13.1739C94.1084 13.0468 94.2409 12.893 94.3098 12.8877C94.4211 12.8665 94.543 12.9567 94.6861 13.0468C95.0783 13.2853 95.6136 13.6138 96.5199 12.7923C97.5322 11.8701 97.3149 9.97275 96.9121 9.48515C96.7584 9.29965 96.5888 9.32085 96.4828 9.40565H96.4722Z" fill="#20261E"/>
<path d="M159.493 9.40565L159.467 9.42685L159.451 9.45865C159.34 9.73425 159.302 10.0416 159.271 10.3437C159.202 10.985 159.133 11.3878 158.613 11.5097C158.428 11.5521 158.29 11.5468 158.205 11.4885C158.078 11.4037 158.041 11.1917 158.004 10.9638C157.94 10.5875 157.856 10.0681 157.172 10.1688L157.034 10.19L157.061 10.3225C157.214 11.144 156.753 11.8171 156.239 12.1139C155.921 12.2994 155.603 12.3259 155.433 12.1775C155.211 11.9867 155.221 11.5097 155.465 10.8737L155.497 10.7942L155.439 10.7359C155.285 10.5822 155.084 10.5663 154.888 10.6935C154.411 11.0062 153.918 12.2782 154.257 13.1421C154.405 13.5131 154.744 13.9159 155.529 13.9159C155.677 13.9159 155.836 13.9 156.016 13.8735C156.478 13.794 156.796 13.4336 157.023 13.1686C157.135 13.0414 157.267 12.8824 157.336 12.8824C157.437 12.8612 157.569 12.9513 157.712 13.0414C158.105 13.2799 158.64 13.6085 159.546 12.787C160.559 11.8648 160.341 9.96745 159.938 9.48515C159.785 9.29965 159.615 9.32085 159.509 9.40565H159.493Z" fill="#20261E"/>
<path d="M132.257 34.9996C132.342 34.8777 132.867 33.7223 132.655 33.5209C132.257 33.1393 126.194 35.7416 126.146 35.7787C125.839 36.0172 125.028 37.5489 125.314 37.9305L125.394 38.0365L125.5 37.957C126.067 37.5383 127.344 37.1143 128.584 36.7009C130.248 36.1444 131.822 35.6197 132.262 34.9996H132.257Z" fill="#20261E"/>
<path d="M134.913 9.92017L141.114 7.88497L142.333 5.94517L142.105 5.93457C142.105 5.93457 142.095 5.93457 142.084 5.93457C141.268 5.93457 135.311 7.85317 134.722 9.21527C134.616 9.45907 134.664 9.68167 134.855 9.86717L134.913 9.92017Z" fill="#20261E"/>
<path d="M190.791 6.24172L190.891 6.17282C191.448 5.80182 192.503 5.41492 193.526 5.03332C194.686 4.60402 195.783 4.19592 196.276 3.79842C196.573 3.55462 197.034 2.25612 197.05 1.91162C197.05 1.85862 197.05 1.78442 196.997 1.73142C196.912 1.64662 196.79 1.53002 194.193 2.72252C193.038 3.25252 191.623 3.95212 191.453 4.08992C191.146 4.33902 190.457 5.81242 190.717 6.14102L190.791 6.23642V6.24172Z" fill="#20261E"/>
<path d="M90.9636 9.68673L91.0643 9.61783C91.6208 9.24683 92.6755 8.85993 93.6984 8.47833C94.8591 8.04903 95.9562 7.64093 96.4491 7.24343C96.7459 7.00493 97.207 5.70113 97.2229 5.35663C97.2229 5.30363 97.2229 5.22943 97.1699 5.17643C97.0851 5.09163 96.9632 4.97503 94.3662 6.16753C93.2108 6.69753 91.7957 7.39713 91.6261 7.53493C91.3187 7.78403 90.6297 9.25743 90.8894 9.58603L90.9636 9.68143V9.68673Z" fill="#20261E"/>
<path d="M153.982 9.68673L154.083 9.61783C154.639 9.24683 155.694 8.85993 156.717 8.47833C157.878 8.04903 158.975 7.64093 159.468 7.24343C159.764 6.99963 160.226 5.70113 160.241 5.35663C160.241 5.30363 160.241 5.22943 160.188 5.17643C160.104 5.09163 159.982 4.97503 157.385 6.16753C156.229 6.69753 154.814 7.39713 154.645 7.53493C154.337 7.78403 153.648 9.25743 153.908 9.58603L153.982 9.68143V9.68673Z" fill="#20261E"/>
<path d="M135.087 16.5448C135.087 16.5872 135.061 16.7833 135.029 16.9741C134.822 18.3574 134.769 19.1365 135.087 19.2955C135.13 19.3167 135.167 19.3273 135.209 19.3273C135.368 19.3273 135.511 19.1895 135.564 19.1365L135.596 19.0888C136.211 17.573 136.55 16.6349 136.333 14.9866C136.275 14.5255 135.639 12.1246 134.727 11.7165C134.51 11.6211 134.287 11.6423 134.08 11.7801C133.545 12.1458 134.006 13.3383 134.494 14.605C134.775 15.3417 135.072 16.0996 135.087 16.5448Z" fill="#20261E"/>
<path d="M64.7405 28.1892C64.3536 28.2899 63.919 28.3853 63.4579 28.4807C61.4227 28.91 58.8946 29.4506 58.2957 31.454L58.248 31.6183H58.4176C58.4176 31.6183 58.4282 31.6236 58.4335 31.6236C59.1278 31.6236 64.5285 30.0495 65.0214 28.8252C65.085 28.6715 65.1062 28.4383 64.8624 28.221L64.8094 28.1733L64.7405 28.1945V28.1892Z" fill="#20261E"/>
<path d="M181.293 30.8287C181.988 30.8287 187.388 29.2546 187.881 28.0303C187.945 27.8766 187.966 27.6434 187.722 27.4261L187.669 27.3784L187.6 27.3996C187.213 27.5003 186.774 27.5957 186.312 27.6911C184.283 28.1204 181.749 28.661 181.15 30.6591L181.103 30.8234H181.272C181.272 30.8234 181.283 30.8287 181.288 30.8287H181.293Z" fill="#20261E"/>
<path d="M84.0849 28.2952C84.1485 28.1415 84.1697 27.9083 83.9259 27.691L83.8729 27.6433L83.804 27.6645C83.4171 27.7652 82.9772 27.8606 82.5161 27.956C80.4862 28.3853 77.9528 28.9259 77.3592 30.924L77.3115 31.0883H77.4811C77.4811 31.0883 77.4917 31.0936 77.497 31.0936C78.1913 31.0936 83.5867 29.5195 84.0849 28.2952Z" fill="#20261E"/>
<path d="M227.587 28.8304C227.677 28.6078 227.63 28.3958 227.444 28.2209L227.375 28.1573L227.29 28.1997C226.644 28.523 225.61 28.7668 224.614 29C223.527 29.2544 222.504 29.4929 221.906 29.8427C221.482 30.0865 221.291 30.5211 221.111 30.9451C221.036 31.12 220.967 31.2843 220.877 31.4327L220.761 31.6341H220.989C221.582 31.6341 227.057 30.1289 227.577 28.841L227.587 28.8304Z" fill="#20261E"/>
<path d="M240.95 33.24C240.828 33.4891 240.854 33.7382 241.019 33.9608L241.088 34.0509L241.188 33.9926C241.872 33.611 242.715 33.3884 243.605 33.1552C245.243 32.7259 246.939 32.2754 247.596 30.7543L247.676 30.5635H247.469C246.7 30.5794 241.612 31.862 240.945 33.2347L240.95 33.24Z" fill="#20261E"/>
<path d="M129.247 17.6157L129.178 17.5362C129.12 17.4673 129.056 17.3878 128.982 17.2977C128.515 16.72 127.811 15.8561 127.148 16.0257L127.1 16.0363L125.775 17.8436L127.917 19.476L129.247 17.6157Z" fill="#20261E"/>
<path d="M244.385 30.1237C244.438 30.1237 244.491 30.1237 244.544 30.1078C245.042 30.0071 245.424 29.4188 245.742 28.2528L245.763 28.1733L243.892 26.5409L242.297 28.4065L242.366 28.4913C243.145 29.4665 243.797 30.1184 244.385 30.1184V30.1237Z" fill="#20261E"/>
<path d="M163.511 171.485L164.586 169.81L162.647 168.347C160.564 169.619 161.618 170.96 163.511 171.485Z" fill="#20261E"/>
<path d="M219.072 128.009C218.77 126.859 218.118 126.011 217.821 124.893L220.201 124.622L220.471 123.038C214.667 121.713 217.535 127.691 219.019 130.447C219.74 130.818 219.141 128.258 219.077 128.004L219.072 128.009Z" fill="#20261E"/>
<path d="M53.0057 224.469C50.679 223.097 49.1791 229.234 52.0517 229.669C52.4704 229.732 53.5993 229.441 53.859 229.186C54.9349 228.121 54.3201 225.238 53.0057 224.469ZM51.4263 227.687L51.3097 226.372C52.4492 225.678 53.6735 226.303 53.6523 227.655L51.4263 227.687Z" fill="#20261E"/>
<path d="M18.4564 177.75C18.0748 178.778 17.1261 180.023 18.0854 181.052C19.6436 181.306 20.5393 180.532 21.3502 179.318C20.7937 178.947 18.8857 179.965 18.7055 179.048C18.5571 178.311 20.8891 176.478 18.1755 175.343V174.957C18.9811 174.877 19.2779 174.098 19.2302 173.361C17.3646 174.003 16.0873 176.88 18.4564 177.75Z" fill="#20261E"/>
<path d="M282.57 174.411L282.299 173.626L280.974 174.957L279.252 173.626L279.31 175.55L281.239 181.041C281.875 181.168 281.621 180.522 281.637 180.113C281.674 178.836 281.377 177.887 281.091 176.679C281.605 176.774 281.913 176.096 281.966 176.07C282.337 175.884 283.259 176.769 284.033 175.889C284.494 175.37 284.854 173.849 284.149 173.361C283.927 174.114 283.45 175.216 282.57 174.411Z" fill="#20261E"/>
<path d="M83.5751 72.1843C82.8808 73.8379 84.0468 74.5057 84.5715 75.8201C85.0856 77.1027 85.1969 78.1468 85.4354 79.4665C85.4937 79.7951 85.5626 80.3622 85.9548 79.8693C86.294 78.3482 86.0661 76.8006 85.6156 75.3113C85.5308 75.0251 84.1952 71.5695 83.5751 72.1896V72.1843Z" fill="#20261E"/>
</svg>
