<svg width="312" height="193" viewBox="0 0 312 193" fill="none" xmlns="http://www.w3.org/2000/svg">
<path d="M128.898 33.8402C130.079 33.8402 131.362 33.5858 132.682 33.0664C135.851 31.8209 137.309 29.1126 137.017 25.021C139.116 25.2701 140.637 24.5387 141.782 22.7261C142.614 23.802 144.151 24.3585 145.434 24.0352C146.499 23.7649 147.151 22.9593 147.273 21.7615C147.41 20.3782 146.87 19.9277 146.186 19.3606C146.022 19.2281 145.847 19.0797 145.661 18.9048C146.536 18.8677 147.474 18.6769 148.386 18.4967C149.377 18.3006 150.4 18.0939 151.301 18.0939C151.937 18.0939 152.912 18.3218 153.855 18.5444C154.772 18.7564 155.636 18.9631 156.076 18.9207C156.632 18.8677 157.242 17.8713 157.777 16.9438L158.016 16.5357H157.788C155.572 16.5198 153.59 15.4333 151.672 14.3839C150.564 13.7797 149.52 13.202 148.433 12.8257C146.965 12.3169 145.805 12.3116 144.983 12.8098C144.252 13.255 143.796 14.0977 143.626 15.3167L143.594 15.5446L143.806 15.4545C145.598 14.7178 146.61 14.898 148.2 15.587C148.773 15.8361 149.186 16.0852 149.361 16.2919C148.969 16.3555 148.545 16.4138 148.099 16.4774C146.552 16.6894 144.798 16.9279 143.589 17.6434C142.625 18.2158 142.153 19.0797 141.692 19.9224C141.04 21.1202 140.42 22.2491 138.443 22.5141C136.636 22.7579 136.227 22.0742 135.56 20.94C135.395 20.6644 135.21 20.3517 134.993 20.0337L134.892 19.8853L134.781 20.0231C133.493 21.6131 134.086 23.1024 134.717 24.6765C135.13 25.71 135.554 26.7753 135.438 27.9095C135.326 28.996 133.827 29.95 132.581 30.4323C129.926 31.4658 127.26 31.3598 125.792 30.1567C124.7 29.261 124.292 27.7823 124.62 25.8796C124.626 25.8372 124.7 25.657 124.774 25.4821C125.246 24.3267 125.453 23.6589 125.209 23.431C125.108 23.3356 124.96 23.3356 124.769 23.431L124.737 23.4469L124.716 23.4734C122.665 26.4573 122.437 29.6267 124.122 31.7467C125.219 33.1247 126.915 33.8402 128.898 33.8402ZM145.386 21.5707C144.612 21.6025 143.133 21.4541 142.858 20.4842C143.685 20.4047 144.734 20.5531 145.386 21.5707Z" fill="#20261E"/>
<path d="M60.8722 37.852L60.8881 37.9103C61.01 38.1435 61.169 38.1859 61.2697 38.1859C61.2856 38.1859 61.2962 38.1859 61.3121 38.1859C61.5135 38.1647 61.699 37.9686 61.7626 37.7089C62.2078 36.0023 61.6725 33.3682 61.1584 30.8189C60.8245 29.16 60.5012 27.5859 60.48 26.3881L61.8739 24.5331C63.7766 25.6567 65.4355 26.139 67.0573 26.0648H67.1421L67.5873 25.0154C71.2867 25.6991 73.6399 25.1267 74.7794 23.2717C76.6291 26.2397 80.8956 25.2062 83.2064 24.6497C84.2028 24.4059 85.1727 24.0508 86.1055 23.701C88.4216 22.8424 90.6105 22.0262 93.2234 22.8848L93.3294 22.9219L94.7286 20.2083L94.4901 20.2295C92.81 20.3673 91.2359 20.1712 89.2431 19.5723C88.517 19.355 87.7008 18.984 86.8369 18.5971C84.8335 17.6908 82.5651 16.6679 81.0016 17.4735C80.1377 17.9187 79.5759 18.8568 79.2844 20.3355L79.2526 20.4945H79.4169C79.8197 20.4839 80.1642 20.2984 80.4981 20.1235C80.7631 19.9857 81.0122 19.8532 81.2825 19.8002C82.2206 19.62 84.9554 20.415 85.8935 20.945C85.9836 20.998 86.0684 21.0192 86.1267 21.0351C86.1532 21.0404 86.1903 21.051 86.1956 21.0563C86.1956 21.0669 86.2115 21.1146 86.185 21.3107C85.9147 21.3796 85.6126 21.4644 85.2787 21.5598C82.7506 22.2594 78.5212 23.436 76.7139 22.0262C76.115 21.5598 75.8235 20.8231 75.8447 19.8373V19.6465L75.6698 19.7101C75.0974 19.9009 74.8112 20.3567 74.5038 20.8337C74.2441 21.2418 73.9738 21.6605 73.5127 21.9626C71.8856 23.0173 68.8116 22.8901 67.0679 21.6976C66.7605 21.4856 66.5167 21.2206 66.2888 20.9609C65.7535 20.3673 65.25 19.8055 64.1052 20.1712C62.2979 20.7542 59.5578 23.3989 59.2345 25.3069C58.9059 27.2308 59.4836 29.9285 60.0454 32.5467C60.4641 34.5077 60.8616 36.3627 60.8881 37.8573L60.8722 37.852ZM63.3579 22.3124C63.5063 22.1534 63.7289 22.0686 63.9886 22.0686C64.1635 22.0686 64.3596 22.1057 64.561 22.1799C65.0698 22.3707 65.5945 22.8053 65.7323 23.3194C65.5892 23.2717 65.3878 23.2187 65.1122 23.1498C64.508 22.9908 63.3844 22.6993 63.2996 22.4237C63.2996 22.4131 63.2837 22.376 63.3473 22.3124H63.3579Z" fill="#20261E"/>
<path d="M187.904 23.7491C189.488 23.8127 191.221 23.3198 191.608 22.2651C191.667 22.4135 191.725 22.6202 191.778 22.8057C192.075 23.8498 192.573 25.5935 194.497 25.9963C194.815 26.0652 195.133 26.097 195.44 26.097C197.359 26.097 199.002 24.8409 199.712 22.758L200.057 22.6573C200.39 23.8763 201.594 24.878 203.173 25.2225C204.774 25.5723 206.242 25.1589 207 24.1413C208.611 21.9895 207.625 18.9155 206.671 15.9422C206.104 14.1773 205.574 12.5131 205.584 11.098V10.9655H205.452H205.441C205.187 10.9655 204.954 11.0715 204.747 11.2782C204.212 11.8188 203.973 12.9848 203.984 13.6049C203.994 14.331 204.567 16.2549 205.118 18.1205C205.595 19.7264 206.178 21.7139 206.125 22.0902C204.599 22.4665 203.427 22.3499 202.542 21.7404C200.852 20.5797 200.518 17.7389 200.221 15.2373C200.131 14.4953 200.051 13.7957 199.94 13.1491C199.929 13.0855 199.919 12.9848 199.898 12.8523C199.744 11.6333 199.59 10.9761 199.235 10.9761H199.161L199.124 11.0291C197.783 12.794 198.196 14.9087 198.594 16.9492C198.758 17.7866 198.928 18.6505 198.959 19.4561C199.034 21.1998 198.975 21.7934 197.253 22.5725C196.087 23.0972 195.143 23.1661 194.439 22.7686C193.728 22.3711 193.294 21.5178 193.135 20.2299C192.997 19.1063 193.045 17.6753 193.092 16.292C193.114 15.6242 193.135 14.9988 193.135 14.4211C193.135 14.3469 193.092 14.2886 193.023 14.1932C192.944 14.0819 192.822 13.9176 192.859 13.7957L192.981 13.3876L192.652 13.6526C191.72 14.4052 191.206 15.7355 191.237 17.3202C189.197 17.882 185.656 20.2617 185.731 22.6467C185.752 23.394 186.87 23.712 187.904 23.7597V23.7491ZM189.536 19.7635C190.474 19.3024 191.349 19.0745 191.561 19.1275C191.645 19.6681 191.577 20.0603 191.343 20.3253C190.882 20.8553 189.812 20.8129 188.863 20.7758C188.619 20.7652 188.381 20.7546 188.158 20.7546C188.317 20.4737 188.821 20.108 189.531 19.7582L189.536 19.7635Z" fill="#20261E"/>
<path d="M223.858 38.1173L223.874 38.3346L224.06 38.2233C224.802 37.7781 224.717 36.4478 224.659 35.568L224.643 35.3242C224.579 34.1158 224.272 32.6636 223.97 31.2591C223.615 29.6002 223.254 27.883 223.302 26.6004C223.328 25.9697 223.726 25.0316 224.261 24.6818C224.494 24.5281 224.733 24.5016 224.977 24.597C225.358 24.7454 225.74 24.9627 226.143 25.1853C227.213 25.7842 228.432 26.4679 229.874 25.9379L229.937 25.9167L230.181 25.0263C230.356 25.0528 230.531 25.0846 230.701 25.1111C231.31 25.2171 231.893 25.3125 232.593 25.2701C233.128 25.233 233.711 25.0051 234.22 24.809C234.617 24.6553 234.994 24.5069 235.232 24.5016H235.253C235.524 24.5016 235.789 24.597 236.096 24.7083C236.573 24.8779 237.119 25.074 237.866 24.9892C238.55 24.915 239.53 24.3373 240.119 23.9928C240.283 23.8974 240.458 23.7914 240.527 23.7649C240.601 23.802 240.792 23.9186 240.961 24.0193C241.391 24.2843 241.979 24.6394 242.334 24.7454C243.352 25.0528 244.025 25.0634 244.523 24.7825C244.968 24.5281 245.286 24.0352 245.514 23.2402C246.844 24.1783 248.493 25.3443 250.199 24.4009L250.236 24.3797L250.258 24.3426C252.42 19.7528 248.498 15.0093 247.247 13.6684L247.221 13.6366L247.178 13.626C246.977 13.5783 246.839 13.5889 246.744 13.6525C246.622 13.732 246.595 13.8751 246.574 14.0076C246.558 14.0818 246.548 14.1613 246.516 14.2355C245.986 15.5923 245.731 16.4774 247.072 17.5745C247.226 17.6964 247.385 17.6858 247.512 17.6752C247.634 17.6646 247.687 17.6646 247.73 17.7123C248.233 18.2317 249.754 21.6343 249.59 22.0954C248.752 22.1961 246.617 21.8887 246.394 21.205C246.341 21.046 246.357 20.8552 246.367 20.6697C246.383 20.4153 246.405 20.1715 246.24 20.0337C246.124 19.933 245.938 19.9118 245.673 19.9701L245.588 19.9913L245.572 20.0761C245.424 20.8234 245.133 21.8887 244.316 22.5035C243.871 22.689 242.265 22.1113 241.995 21.6873C242.392 20.1609 242.324 19.9913 242.165 19.9118C241.968 19.8111 241.762 20.0602 241.354 20.5531C241.105 20.8552 240.829 21.1944 240.553 21.4329C239.599 22.2703 238.306 22.7155 237.092 22.6254C237.092 22.265 237.22 21.9364 237.352 21.5866C237.479 21.2474 237.612 20.8923 237.628 20.5054C237.638 20.2669 237.628 19.9807 237.426 19.9118C237.172 19.8323 236.87 20.2192 236.509 20.7386C236.451 20.8287 236.377 20.9241 236.361 20.9453C234.877 22.3021 232.338 23.4098 230.049 22.0689C229.736 21.8834 229.349 21.4594 228.978 21.046C228.522 20.5372 228.125 20.1026 227.802 20.0125C226.604 19.6892 223.44 22.424 222.814 23.3356C221.309 25.5298 222.258 29.9341 223.095 33.819C223.45 35.4567 223.779 36.999 223.858 38.1173ZM225.936 22.3127C226.09 22.1484 226.318 22.0689 226.577 22.0689C226.757 22.0689 226.954 22.106 227.16 22.1855C227.669 22.3816 228.194 22.8268 228.321 23.3409C228.104 23.2614 227.881 23.1925 227.664 23.1236C227.266 23.0017 226.858 22.8692 226.471 22.6943C226.424 22.6731 226.355 22.6572 226.27 22.6413C226.159 22.6201 225.862 22.5565 225.835 22.477C225.83 22.4611 225.846 22.4028 225.936 22.3074V22.3127Z" fill="#20261E"/>
<path d="M105.16 9.99553C105.812 13.9811 106.278 18.0727 106.697 21.9258C106.448 22.3816 105.721 22.6572 104.693 22.6837C103.071 22.7155 100.861 22.0848 100.315 21.099L100.215 20.9188L100.093 21.0884C99.5151 21.8834 99.3137 22.6572 99.5045 23.325C99.6794 23.9345 100.183 24.4221 100.962 24.7507L101.015 24.9945C100.379 27.565 98.4551 29.5207 95.6037 30.5012L90.415 31.5665L90.7436 31.7414C92.0739 32.4463 93.4625 32.7961 94.814 32.7961C96.1178 32.7961 97.3845 32.4675 98.5293 31.805C100.792 30.5012 102.165 28.1162 102.314 25.2595C102.61 25.2489 102.95 25.2595 103.315 25.2595C104.566 25.286 106.13 25.3178 106.962 24.6235C108.541 23.3038 108.165 19.9542 107.916 17.7388C107.889 17.495 107.863 17.2724 107.841 17.071C107.767 16.3237 107.619 15.5499 107.465 14.7284C107.057 12.5872 106.633 10.3718 107.566 8.68113L107.603 8.61223L105.785 5.58063L105.663 5.70783C104.333 7.11233 104.555 7.83843 104.863 8.84013C104.964 9.17403 105.08 9.55033 105.154 10.0008L105.16 9.99553Z" fill="#20261E"/>
<path d="M163.204 20.9556L163.108 21.0881C162.531 21.8831 162.329 22.6569 162.52 23.3247C162.695 23.9342 163.199 24.4218 163.978 24.7504L164.031 24.9942C163.395 27.5647 161.471 29.5204 158.619 30.5009L153.431 31.5662L153.759 31.7411C155.09 32.446 156.478 32.7958 157.83 32.7958C159.133 32.7958 160.4 32.4672 161.545 31.8047C163.808 30.5009 165.181 28.1212 165.329 25.2592C165.578 25.2592 165.859 25.2592 166.151 25.2592C167.37 25.2804 168.891 25.3069 169.712 24.6179C171.292 23.2982 170.915 19.9486 170.666 17.7332C170.64 17.4894 170.613 17.2668 170.592 17.0654C170.518 16.3181 170.369 15.5443 170.216 14.7228C169.808 12.5816 169.384 10.3662 170.316 8.67545L170.354 8.60655L168.536 5.57495L168.414 5.70215C167.083 7.10665 167.306 7.83275 167.613 8.83445C167.714 9.16835 167.831 9.54465 167.905 9.98985C168.557 13.9649 169.018 18.0459 169.442 21.8937C168.626 22.6198 167.603 22.7364 166.882 22.6993C165.541 22.6357 164.142 21.9997 163.315 21.0722L163.204 20.9503V20.9556Z" fill="#20261E"/>
<path d="M211.88 6.48139L211.727 6.38599L211.679 6.56089C211.573 6.95839 211.414 7.32409 211.255 7.67389C211 8.25159 210.735 8.85049 210.709 9.58719C210.645 11.4475 211.043 13.9597 211.424 16.3871C211.631 17.6909 211.822 18.9205 211.933 19.9805C212.007 20.6907 212.034 21.491 212.055 22.2595C212.082 23.1075 212.108 23.982 212.198 24.7558C212.23 25.0155 212.294 25.3282 212.506 25.3971C212.537 25.4077 212.569 25.413 212.596 25.413C212.76 25.413 212.898 25.2752 212.951 25.2222L212.977 25.1957L212.988 25.1639C214.027 21.4168 213.465 17.4047 212.924 13.5304C212.755 12.3273 212.585 11.0818 212.468 9.88399C212.437 9.58719 212.463 9.23739 212.484 8.86109C212.543 7.96009 212.612 6.93189 211.875 6.47609L211.88 6.48139Z" fill="#20261E"/>
<path d="M175.072 6.48139L174.918 6.38599L174.87 6.56089C174.764 6.95839 174.605 7.32409 174.446 7.67389C174.192 8.25159 173.927 8.85049 173.9 9.58719C173.837 11.4475 174.234 13.9597 174.616 16.3871C174.823 17.6909 175.013 18.9205 175.125 19.9805C175.199 20.6907 175.225 21.491 175.247 22.2595C175.273 23.1075 175.3 23.982 175.39 24.7558C175.421 25.0155 175.485 25.3282 175.697 25.3971C175.729 25.4077 175.761 25.413 175.787 25.413C175.951 25.413 176.089 25.2752 176.142 25.2222L176.169 25.1957L176.179 25.1639C177.218 21.4168 176.656 17.4047 176.116 13.5304C175.946 12.3273 175.777 11.0818 175.66 9.88399C175.628 9.58719 175.655 9.23739 175.676 8.86109C175.734 7.96009 175.803 6.93189 175.066 6.47609L175.072 6.48139Z" fill="#20261E"/>
<path d="M112.056 6.48139L111.902 6.38599L111.855 6.56089C111.749 6.95839 111.59 7.32409 111.431 7.67389C111.176 8.25159 110.911 8.84519 110.885 9.58719C110.821 11.4475 111.219 13.9597 111.6 16.3924C111.807 17.6962 111.998 18.9258 112.109 19.9858C112.183 20.696 112.21 21.4963 112.231 22.2701C112.257 23.1181 112.284 23.9926 112.374 24.7611C112.406 25.0208 112.469 25.3335 112.681 25.4077C112.713 25.4183 112.745 25.4236 112.771 25.4236C112.936 25.4236 113.074 25.2858 113.127 25.2328L113.153 25.2063L113.164 25.1745C114.202 21.4274 113.641 17.4153 113.1 13.5357C112.93 12.3326 112.761 11.0871 112.644 9.89459C112.618 9.59779 112.639 9.24799 112.66 8.87169C112.718 7.96539 112.787 6.94249 112.051 6.48669L112.056 6.48139Z" fill="#20261E"/>
<path d="M209.062 6.17394L209.274 5.87714C210.206 4.56274 210.556 4.67934 211.198 4.90194C211.569 5.02914 212.035 5.19344 212.719 5.12454C214.075 4.99734 215.724 3.71474 216.185 2.43214C216.46 1.65834 216.312 0.958738 215.75 0.402238C215.453 0.105438 215.13 -0.0270618 214.786 0.0047382C213.932 0.0895382 213.185 1.19724 212.586 2.08764C212.311 2.49574 212.003 2.95154 211.855 2.99924C211.643 3.06814 211.394 2.98864 211.139 2.90384C210.805 2.79784 210.461 2.68654 210.148 2.88794L209.973 3.15294C209.496 3.93204 208.956 4.81184 209.035 5.80824L209.062 6.17394ZM214.515 1.91804C214.515 1.91804 214.531 1.91804 214.537 1.91804C214.796 1.92864 214.982 2.13004 215.088 2.52754L213.084 3.19534C213.365 2.56994 214.012 1.91804 214.515 1.91804Z" fill="#20261E"/>
<path d="M109.234 6.17394L109.446 5.87714C110.379 4.55744 110.734 4.67934 111.37 4.90194C111.741 5.02914 112.207 5.19344 112.891 5.12454C114.248 4.99734 115.901 3.71474 116.357 2.43214C116.633 1.65834 116.484 0.958738 115.923 0.402238C115.626 0.105438 115.302 -0.0270618 114.958 0.0047382C114.105 0.0895382 113.357 1.19724 112.758 2.08764C112.483 2.49574 112.175 2.95154 112.027 2.99924C111.81 3.06814 111.566 2.98864 111.312 2.90384C110.978 2.79784 110.633 2.68654 110.32 2.88794L110.14 3.15294C109.663 3.93204 109.123 4.81184 109.202 5.80824L109.229 6.17394H109.234ZM114.693 1.91804C114.693 1.91804 114.709 1.91804 114.714 1.91804C114.974 1.92864 115.159 2.13004 115.265 2.52754L113.262 3.19534C113.548 2.56994 114.189 1.91804 114.693 1.91804Z" fill="#20261E"/>
<path d="M172.251 6.17394L172.463 5.87714C173.396 4.56274 173.746 4.67934 174.387 4.90194C174.758 5.02914 175.219 5.19344 175.908 5.12454C177.265 4.99734 178.913 3.71474 179.374 2.43214C179.65 1.65834 179.502 0.958738 178.94 0.402238C178.643 0.105438 178.32 -0.0270618 177.975 0.0047382C177.122 0.0895382 176.375 1.19724 175.776 2.08764C175.5 2.49574 175.193 2.95154 175.044 2.99924C174.832 3.06814 174.583 2.98864 174.329 2.90384C173.995 2.79784 173.65 2.68654 173.338 2.88794L173.163 3.15294C172.686 3.93204 172.145 4.81184 172.225 5.80824L172.251 6.17394ZM177.71 1.91804C177.71 1.91804 177.726 1.91804 177.731 1.91804C177.991 1.92864 178.177 2.13004 178.283 2.52754L176.279 3.19534C176.56 2.57524 177.207 1.91804 177.71 1.91804Z" fill="#20261E"/>
<path d="M150.915 8.27281C150.163 8.60141 147.846 9.77271 147.947 10.3663C147.984 10.5942 148.265 10.6472 148.573 10.6472C148.668 10.6472 148.769 10.6419 148.859 10.6366C150.576 10.5041 153.491 9.08901 153.581 7.72161C153.634 6.95311 152.834 6.39131 151.212 6.04681C150.11 5.81361 149.325 5.88781 148.753 6.28531C148.159 6.69341 147.793 7.45661 147.597 8.69151L147.539 9.07311L147.82 8.80811C148.668 8.01311 149.908 7.48311 150.915 8.27281Z" fill="#20261E"/>
<path d="M238.63 12.8996C239.462 12.4173 240.13 12.0304 241.036 12.8519C240.909 13.0003 240.315 13.2653 239.912 13.4402C239.038 13.8271 238.132 14.2246 238.041 14.7122C238.02 14.8235 238.031 14.9878 238.195 15.1574L238.238 15.1998H238.301C240.405 15.0673 243.559 14.002 243.606 11.6117V11.5269L243.538 11.4898C241.465 10.4139 240.04 10.1489 239.048 10.6577C238.296 11.0446 237.819 11.8979 237.633 13.1858L237.602 13.419L237.819 13.3236C238.11 13.1964 238.381 13.0427 238.64 12.889L238.63 12.8996Z" fill="#20261E"/>
<path d="M75.8246 27.056L74.6109 28.6619L72.6287 27.3263L71.3408 29.494L73.2488 31.1052L74.5685 29.812L76.6408 30.8455L77.8969 29.1071L75.8246 27.056Z" fill="#20261E"/>
<path d="M163.804 9.40156L163.777 9.42276L163.761 9.45456C163.65 9.73016 163.613 10.0376 163.581 10.3397C163.512 10.981 163.443 11.3838 162.924 11.5057C162.733 11.5481 162.601 11.5428 162.516 11.4845C162.389 11.3997 162.352 11.1877 162.314 10.9598C162.251 10.5835 162.166 10.0641 161.482 10.1648L161.345 10.186L161.371 10.3185C161.525 11.14 161.069 11.8131 160.55 12.1099C160.232 12.2954 159.914 12.3219 159.744 12.1735C159.521 11.9827 159.532 11.5057 159.776 10.8697L159.808 10.7902L159.749 10.7319C159.596 10.5782 159.394 10.5623 159.198 10.6895C158.721 11.0022 158.228 12.2742 158.567 13.1381C158.716 13.5091 159.055 13.9119 159.839 13.9119C159.988 13.9119 160.147 13.896 160.327 13.8695C160.788 13.79 161.106 13.4296 161.334 13.1646C161.445 13.0374 161.578 12.8784 161.647 12.8784C161.747 12.8678 161.88 12.9473 162.023 13.0374C162.415 13.2759 162.95 13.6045 163.857 12.783C164.869 11.8608 164.652 9.96336 164.249 9.48106C164.095 9.29556 163.926 9.31676 163.82 9.40156H163.804Z" fill="#20261E"/>
<path d="M100.781 9.40156L100.754 9.42276L100.738 9.45456C100.627 9.73016 100.59 10.0376 100.558 10.3397C100.489 10.981 100.42 11.3838 99.901 11.5057C99.7102 11.5481 99.5777 11.5428 99.4929 11.4845C99.3657 11.3997 99.3286 11.1877 99.2915 10.9598C99.2279 10.5835 99.1431 10.0641 98.4594 10.1648L98.3216 10.186L98.3481 10.3185C98.5018 11.14 98.0407 11.8131 97.5213 12.1099C97.2033 12.2954 96.8853 12.3219 96.7157 12.1735C96.4931 11.9827 96.5037 11.5057 96.7475 10.8697L96.7793 10.7902L96.721 10.7319C96.5673 10.5782 96.3659 10.5623 96.1698 10.6895C95.6928 11.0022 95.1999 12.2742 95.5391 13.1381C95.6875 13.5091 96.0267 13.9119 96.8111 13.9119C96.9595 13.9119 97.1185 13.896 97.2987 13.8695C97.7598 13.79 98.0778 13.4296 98.3057 13.1646C98.417 13.0374 98.5495 12.8837 98.6184 12.8784C98.7297 12.8678 98.8516 12.9473 98.9947 13.0374C99.3869 13.2759 99.9222 13.6098 100.828 12.783C101.841 11.8608 101.623 9.96336 101.221 9.48106C101.067 9.29556 100.897 9.31676 100.791 9.40156H100.781Z" fill="#20261E"/>
<path d="M196.605 7.35602L196.547 7.29772C196.393 7.14402 196.192 7.12812 195.996 7.25532C195.519 7.56802 195.026 8.84002 195.365 9.70392C195.514 10.0749 195.853 10.4777 196.637 10.4777C196.786 10.4777 196.945 10.4618 197.125 10.4353C197.586 10.3558 197.904 9.99542 198.132 9.73042C198.243 9.60322 198.376 9.44952 198.445 9.44422C198.545 9.42832 198.678 9.51312 198.821 9.60322C199.213 9.84172 199.748 10.1703 200.655 9.34882C201.667 8.42662 201.45 6.52922 201.047 6.04692C200.893 5.86142 200.724 5.88262 200.618 5.96742L200.591 5.98862L200.575 6.02042C200.464 6.29602 200.427 6.60342 200.395 6.90552C200.326 7.54682 200.257 7.94962 199.738 8.07152C199.552 8.11392 199.414 8.10862 199.33 8.05032C199.202 7.96552 199.165 7.75352 199.128 7.52562C199.065 7.14932 198.975 6.62992 198.291 6.73062L198.153 6.75182L198.18 6.88432C198.333 7.70582 197.872 8.37892 197.358 8.67572C197.04 8.86122 196.722 8.88772 196.552 8.73932C196.33 8.54852 196.34 8.07152 196.584 7.43552L196.616 7.35602H196.605Z" fill="#20261E"/>
<path d="M130.45 35.7694C130.143 36.0079 129.332 37.5397 129.618 37.9213L129.697 38.0272L129.803 37.9477C130.37 37.529 131.648 37.1051 132.883 36.6917C134.547 36.1352 136.121 35.6104 136.566 34.9903C136.651 34.8684 137.176 33.713 136.964 33.5116C136.571 33.13 130.503 35.7323 130.455 35.7694H130.45Z" fill="#20261E"/>
<path d="M139.222 9.92127L145.423 7.88607L146.642 5.94627L146.414 5.93567C146.414 5.93567 146.403 5.93567 146.393 5.93567C145.576 5.93567 139.619 7.85427 139.031 9.21637C138.925 9.46017 138.973 9.68277 139.163 9.86827L139.222 9.92127Z" fill="#20261E"/>
<path d="M158.292 9.68288L158.393 9.61398C158.949 9.24298 160.004 8.85608 161.027 8.47448C162.188 8.04518 163.285 7.63708 163.778 7.23958C164.074 6.99578 164.536 5.69728 164.551 5.35278C164.551 5.29978 164.551 5.22558 164.498 5.17258C164.138 4.81748 158.992 7.49398 158.949 7.53108C158.642 7.78018 157.953 9.25358 158.213 9.58218L158.287 9.67758L158.292 9.68288Z" fill="#20261E"/>
<path d="M95.2751 9.6827L95.3758 9.6138C95.9323 9.2428 96.987 8.8559 98.0099 8.4743C99.1706 8.045 100.268 7.6369 100.761 7.2394C101.057 7.0009 101.519 5.6971 101.534 5.3526C101.534 5.2996 101.534 5.2254 101.481 5.1724C101.397 5.0876 101.275 4.971 98.6777 6.1635C97.5223 6.6935 96.1072 7.3931 95.9376 7.5309C95.6302 7.78 94.9412 9.2534 95.2009 9.582L95.2751 9.6774V9.6827Z" fill="#20261E"/>
<path d="M195.101 6.23769L195.202 6.16879C195.758 5.79779 196.813 5.41089 197.836 5.02929C198.997 4.59999 200.094 4.19189 200.587 3.79439C200.884 3.55059 201.345 2.25209 201.361 1.90759C201.361 1.85459 201.361 1.78039 201.308 1.72739C201.223 1.64259 201.101 1.52599 198.504 2.71849C197.348 3.24849 195.933 3.94809 195.764 4.08589C195.456 4.33499 194.767 5.80839 195.027 6.13699L195.101 6.23239V6.23769Z" fill="#20261E"/>
<path d="M139.396 16.5407C139.396 16.5831 139.37 16.7792 139.338 16.97C139.131 18.3533 139.078 19.1324 139.396 19.2914C139.438 19.3126 139.475 19.3232 139.518 19.3232C139.677 19.3232 139.82 19.1854 139.873 19.1324L139.905 19.0847C140.52 17.5689 140.859 16.6308 140.641 14.9825C140.583 14.5214 139.947 12.1205 139.036 11.7124C138.818 11.617 138.596 11.6382 138.389 11.776C137.854 12.1417 138.315 13.3342 138.802 14.6009C139.089 15.3376 139.38 16.0955 139.396 16.5407Z" fill="#20261E"/>
<path d="M185.602 30.8246C186.296 30.8246 191.697 29.2505 192.19 28.0262C192.253 27.8725 192.275 27.6393 192.031 27.422L191.978 27.3743L191.909 27.3955C191.522 27.4962 191.082 27.5916 190.621 27.687C188.591 28.1163 186.058 28.6569 185.459 30.655L185.411 30.8193H185.581C185.581 30.8193 185.591 30.8246 185.597 30.8246H185.602Z" fill="#20261E"/>
<path d="M88.3955 28.2912C88.4591 28.1375 88.4803 27.9043 88.2365 27.687L88.1835 27.6393L88.1146 27.6605C87.7277 27.7612 87.2931 27.8566 86.832 27.952C84.7968 28.3813 82.2687 28.9219 81.6698 30.9253L81.6221 31.0896H81.7917C81.7917 31.0896 81.8023 31.0949 81.8076 31.0949C82.5019 31.0949 87.9026 29.5208 88.3955 28.2965V28.2912Z" fill="#20261E"/>
<path d="M69.3314 28.8212C69.395 28.6675 69.4162 28.4343 69.1724 28.217L69.1194 28.1693L69.0505 28.1905C68.6636 28.2912 68.2237 28.3866 67.7626 28.482C65.7327 28.9113 63.1993 29.4519 62.6004 31.45L62.5527 31.6143H62.7223C62.7223 31.6143 62.7329 31.6196 62.7382 31.6196C63.4325 31.6196 68.8332 30.0455 69.3261 28.8212H69.3314Z" fill="#20261E"/>
<path d="M231.899 28.8264C231.989 28.6038 231.941 28.3918 231.756 28.2169L231.687 28.1533L231.602 28.1957C230.955 28.519 229.922 28.7628 228.931 28.996C227.844 29.2504 226.816 29.4889 226.217 29.8387C225.793 30.0825 225.602 30.5171 225.422 30.9358C225.348 31.1107 225.279 31.275 225.189 31.4234L225.072 31.6248H225.3C225.894 31.6248 231.363 30.1196 231.888 28.8317L231.899 28.8264Z" fill="#20261E"/>
<path d="M245.258 33.2359C245.137 33.485 245.163 33.7341 245.327 33.9567L245.396 34.0468L245.497 33.9885C246.181 33.6069 247.023 33.3843 247.914 33.1511C249.551 32.7165 251.247 32.2713 251.905 30.7502L251.984 30.5594H251.777C251.009 30.5753 245.916 31.8579 245.253 33.2306L245.258 33.2359Z" fill="#20261E"/>
<path d="M248.694 30.1197C248.747 30.1197 248.8 30.1197 248.853 30.1038C249.351 30.0031 249.732 29.4095 250.05 28.2488L250.072 28.1693L248.201 26.5369L246.605 28.4025L246.674 28.4873C247.453 29.4625 248.105 30.1197 248.694 30.1197Z" fill="#20261E"/>
<path d="M133.557 17.6169L133.489 17.5374C133.43 17.4685 133.367 17.389 133.292 17.2989C132.826 16.7212 132.121 15.8573 131.459 16.0269L131.411 16.0375L130.086 17.8448L132.227 19.4772L133.557 17.6169Z" fill="#20261E"/>
<path d="M207.057 171.11C207.084 173.628 208.785 173.172 210.174 174.031C211.308 174.73 214.35 178.292 214.371 179.633C214.053 180.809 211.684 181.196 210.582 181.302C208.976 181.456 207.179 181.191 205.552 181.302C204.731 181.302 206.061 179.05 206.151 178.456C207.275 171.068 198.752 176.013 200.326 180.656C200.199 181.387 196.759 181.339 196.065 181.318C195.747 181.244 194.602 176.029 192.069 178.414C189.334 180.989 190.516 184.461 194.565 183.692C193.595 188.399 188.974 190.291 184.506 190.047V190.842C188.375 191.399 192.17 192.199 194.406 188.166C195.212 186.713 195.249 185.012 196.06 183.73C197.406 183.73 198.609 183.677 199.918 183.353C200.554 183.194 201.842 182.473 202.112 182.468C202.701 182.468 205.218 183.592 206.607 183.703C215.654 184.413 218.399 179.129 212.045 172.7C211.525 172.176 208.515 170.151 208.605 169.791L220.36 164.067L221.182 161.708C218.993 162.72 216.698 163.547 214.52 164.575C211.743 165.89 207.036 167.506 207.073 171.116L207.057 171.11ZM191.915 180.91C192.716 179.76 193.479 180.311 194.03 181.302C193.733 181.186 191.624 181.647 191.915 180.91ZM201.508 178.748C201.376 177.751 203.628 176.686 204.317 177.11C204.381 177.152 204.884 178.355 204.884 178.53C204.879 179.548 201.805 180.952 201.508 178.742V178.748Z" fill="#20261E"/>
<path d="M127.917 167.31C126.878 166.716 125.951 166.25 124.986 165.672C124.552 165.412 123.545 165.227 123.396 165.078C122.946 164.633 123.296 163.314 121.462 163.939C120.582 164.236 120.858 164.829 120.614 165.078C120.529 165.163 118.939 166.287 118.759 166.403C118.43 166.615 117.153 166.748 116.432 167.124C110.576 170.193 110.316 181.609 114.688 185.982C115.383 186.676 118.552 188.526 119.533 188.95C120.73 189.469 121.578 189.676 122.914 189.496C124.048 189.342 128.617 186.787 129.433 185.955C133.668 181.662 133.503 170.495 127.923 167.32L127.917 167.31ZM119.628 165.942L121.478 166.472C120.571 163.663 123.492 163.748 122.543 166.472C123.179 165.953 124.175 165.508 124.658 166.472C123.486 166.515 122.623 166.976 122.146 168.062C121.525 167.071 121.176 166.992 120.211 166.547C119.835 166.372 119.485 166.706 119.633 165.948L119.628 165.942ZM116.74 167.691C118.526 166.774 121.096 166.509 121.483 168.979C121.07 170.129 120.142 170.665 119.363 169.52L120.418 168.852C121.287 167.591 115.627 167.755 115.653 169.912C116.443 169.822 117.376 169.223 118.033 170.045C116.851 170.633 115.748 170.866 114.62 171.656C113.893 172.165 113.464 172.774 112.749 173.225C113.485 171.089 114.625 168.773 116.74 167.686V167.691ZM112.743 180.777L114.773 182.849L118.038 183.957C118.038 185.15 116.294 184.741 115.658 184.222C114.953 185.075 120.163 187.953 120.423 185.282L119.363 184.62C122.146 183.098 122.252 186.973 119.379 187.28C116.061 187.635 113.369 183.66 112.749 180.777H112.743ZM119.363 188.059C120.206 187.556 121.589 187.582 121.748 186.342H122.267L122.803 187.264L124.917 188.192C123.057 188.976 121.123 189.326 119.358 188.059H119.363ZM122.532 185.155C122.628 184.164 124.064 183.83 124.658 184.62L123.598 185.282C123.91 187.853 129.248 185.197 128.362 184.222L126.921 184.768L126.248 183.962L129.248 182.855L131.277 180.782C131.171 184.572 124.552 190.598 122.538 185.16L122.532 185.155ZM125.458 183.432C125.246 184.423 125.681 184.853 126.242 185.542L124.917 185.807C126.062 183.464 123.243 182.436 122.135 184.487H121.748C121.027 182.394 117.985 183.697 119.093 185.807L117.768 185.542L118.711 183.681C110.332 182.224 110.422 171.847 118.828 170.707C118.701 170.007 118.457 169.255 117.768 168.99L119.093 168.592C118.075 171.253 120.905 171.401 122.267 169.647C122.935 171.873 126.094 170.829 124.923 168.592C127.599 168.518 124.79 169.658 125.564 170.728C125.675 170.882 128.347 171.613 129.142 172.18C133.89 175.588 131.304 183.3 125.458 183.427V183.432ZM126.242 170.442V169.652L128.362 169.917C127.976 168.147 124.536 167.193 123.598 168.852C126.698 170.352 121.764 170.776 122.729 168.407C124.483 164.109 131.463 170.135 131.272 173.357C130.037 171.852 128.299 170.511 126.242 170.442Z" fill="#20261E"/>
<path d="M169.014 178.922C167.09 178.673 165.95 178.838 163.904 178.202C162.23 177.682 158.891 175.695 157.385 175.758C155.965 175.816 154.073 177.369 154.317 178.922C154.984 178.912 155.509 178.355 156.161 178.233C157.147 178.048 159.94 178.875 160.862 179.394C161.159 179.558 161.313 179.373 161.201 179.982C158.451 180.698 153.437 182.42 151.009 180.512C149.091 179.002 148.709 174.825 147.962 172.568C147.321 172.483 147.543 172.568 147.405 172.933C146.579 175.154 148.1 177.094 148.2 179.272C146.52 180.597 143.028 182.028 141.475 179.982C139.164 184.508 145.572 183.798 147.708 181.97C148.243 181.514 148.45 180.851 149.022 180.507C149.87 184.291 153.723 183.925 156.797 183.38C160.671 182.696 164.047 180.019 168.171 181.318L169.406 179.304C169.48 178.774 169.39 178.965 169.019 178.917L169.014 178.922Z" fill="#20261E"/>
<path d="M102.301 190.02C100.791 187.959 99.6249 185.632 98.9677 183.157L100.552 182.489L98.443 179.839C99.5507 179.049 101.146 181.784 101.883 181.297C102.179 180.708 102.01 179.648 102.285 179.182C102.492 178.827 103.451 178.668 103.621 177.878C103.807 177.014 102.603 176.781 102.296 176.256C101.952 175.673 102.148 174.645 101.485 174.147C100.807 174.004 99.3493 176.299 98.443 175.869C98.7928 174.142 101.724 173.198 99.026 172.175C99.5136 170.167 100.128 168.248 101.247 166.488C101.607 165.916 103.923 163.473 103.473 163.022C99.5825 164.119 97.4413 168.746 95.9997 172.228L93.1483 172.822C92.6289 173.585 95.2418 174.995 94.998 175.997C93.7101 175.997 93.0105 174.677 91.9505 174.152C91.1926 174.619 91.5 176.007 91.2244 176.468C91.0336 176.786 89.8517 176.898 89.9524 177.974C90.0319 178.832 91.0654 178.959 91.3039 179.362C91.553 179.791 91.6749 181.461 91.818 181.562C93.2172 181.546 93.6147 179.632 94.9927 179.712L93.143 182.887L96.0474 183.554C97.807 186.999 99.9111 191.202 103.86 192.427C104.273 191.462 102.831 190.747 102.296 190.015L102.301 190.02ZM99.503 176.543L101.353 175.477C101.098 177.189 101.49 176.924 102.672 177.73C102.46 178.159 101.665 178.36 101.485 178.657C100.812 179.776 102.153 180.915 99.503 178.79L100.319 178C100.324 176.845 99.3387 177.417 99.503 176.543ZM92.4858 180.242C91.8021 179.166 92.3321 178.382 90.7633 177.995C91.7756 177.194 92.3639 176.972 92.0883 175.477L93.938 176.675V177.057C92.4699 177.391 93.2384 178.382 94.2083 178.784L92.4858 180.237V180.242ZM97.9024 179.044C96.2329 180.486 94.1235 178 95.5969 176.606C97.1074 175.175 99.5878 177.592 97.9024 179.044ZM94.468 173.092L96.5509 173.055C97.489 170.251 98.7239 167.416 100.96 165.413C99.5878 167.771 98.4483 170.315 98.1833 173.082H98.9677C99.3281 173.453 98.0773 174.958 97.5155 174.947L96.7205 174.147L96.0527 174.942H95.5333L94.468 173.092ZM99.0154 187.482C98.3741 186.544 97.0279 183.183 96.7258 182.881C96.1958 182.346 95.21 182.94 94.733 182.224L95.5333 180.772H96.0527L96.7205 181.567L97.7752 180.772L98.9677 182.229L98.1727 182.622C98.5755 185.351 99.927 187.667 101.22 190.031C100.478 189.268 99.609 188.346 99.0154 187.471V187.482Z" fill="#20261E"/>
<path d="M173.64 165.412C172.087 165.815 172.252 168.481 172.305 169.795C172.448 173.23 173.317 177.147 173.635 180.645C173.672 181.074 173.513 183.697 173.773 183.692C174.276 183.724 174.387 183.215 174.52 182.849C175.728 179.431 173.958 172.064 173.64 168.195C173.566 167.278 173.688 166.335 173.64 165.418V165.412Z" fill="#20261E"/>
<path d="M185.82 183.687C187.421 177.778 184.691 171.434 184.765 165.413C184.156 165.286 184.341 165.482 184.172 165.752C183.721 166.467 183.409 167.612 183.424 168.46C183.493 173.103 185.348 178.514 185.301 183.295L185.825 183.687H185.82Z" fill="#20261E"/>
<path d="M172.055 160.383L173.216 160.129L173.682 160.865L174.302 160.908C175.044 160.606 174.716 158.883 174 158.554C171.711 158.819 169.532 160.786 171.79 162.763C170.788 162.895 170.502 163.796 170.2 164.618L175.972 162.98L176.285 161.443C174.79 161.984 172.548 162.365 172.05 160.388L172.055 160.383Z" fill="#20261E"/>
<path d="M140.144 166.732C140.584 165.858 143.064 165.953 143.955 165.911C145.163 163.87 141.374 161.623 140.398 163.828C140.149 164.39 140.515 164.829 140.398 165.158C140.298 165.439 139.603 165.799 139.37 166.223C138.565 167.681 139.916 171.052 139.487 172.822C140.017 172.896 139.921 172.875 140.086 172.493C140.833 170.739 139.577 168.539 140.144 166.727V166.732ZM142.131 164.358C142.46 164.511 141.177 165.015 140.806 164.883C140.965 164.284 141.633 164.315 142.131 164.358Z" fill="#20261E"/>
<path d="M210.152 162.874C209.856 163.096 209.495 162.874 209.654 163.557C210.036 163.854 212.044 162.837 212.484 162.55C213.47 161.909 214.069 160.468 215.209 161.178C215.617 159.789 214.599 158.48 214.906 156.842C212.749 155.263 210.317 159.466 213.348 160.51C212.453 161.522 211.212 162.084 210.147 162.874H210.152ZM213.099 158.39V157.998H214.154V159.052H213.762L213.099 158.39Z" fill="#20261E"/>
<path d="M204.583 161.082C202.426 159.503 199.993 163.706 203.024 164.75C202.129 165.762 200.889 166.324 199.823 167.114C199.526 167.336 199.166 167.114 199.325 167.797C199.707 168.094 201.715 167.077 202.155 166.79C203.141 166.149 203.74 164.708 204.879 165.418C205.288 164.029 204.27 162.72 204.577 161.082H204.583ZM203.825 163.292H203.433L202.77 162.63V162.238H203.825V163.292Z" fill="#20261E"/>
<path d="M143.69 170.029C143.394 170.251 143.033 170.029 143.192 170.712C143.574 171.009 145.583 169.992 146.022 169.705C147.008 169.064 147.607 167.623 148.747 168.333C149.155 166.944 148.137 165.635 148.445 163.997C146.287 162.418 143.855 166.621 146.892 167.665C145.996 168.677 144.756 169.239 143.69 170.029ZM146.637 165.54V165.147H147.692V166.202H147.3L146.637 165.54Z" fill="#20261E"/>
<path d="M156.167 170.442C158.33 169.314 161.87 168.969 162.522 166.208C162.305 165.996 157.121 168.381 156.888 168.577C156.581 168.831 155.971 170.236 156.173 170.442H156.167Z" fill="#20261E"/>
<path d="M170.652 155.862C170.345 156.116 169.735 157.521 169.936 157.728C172.099 156.599 175.639 156.254 176.286 153.493C176.069 153.281 170.885 155.666 170.652 155.862Z" fill="#20261E"/>
<path d="M187.939 172.562C189.969 171.534 192.523 170.956 194.087 169.313L194.288 168.327C193.536 168.656 186.672 171.226 187.939 172.562Z" fill="#20261E"/>
<path d="M189.011 168.2L187.94 169.912L193.606 167.501L194.56 165.677L189.011 168.2Z" fill="#20261E"/>
<path d="M203.395 172.016L204.609 170.336L202.669 168.868C200.66 170.055 201.588 171.46 203.395 172.011V172.016Z" fill="#20261E"/>
<path d="M121.743 179.044C121.594 178.307 123.926 176.474 121.213 175.339V174.952C122.018 174.873 122.315 174.094 122.267 173.357C120.402 173.998 119.124 176.876 121.494 177.746C121.112 178.774 120.163 180.019 121.123 181.047C122.681 181.302 123.576 180.528 124.387 179.314C123.831 178.943 121.923 179.961 121.743 179.044Z" fill="#20261E"/>
<path d="M96.2557 132.044C98.8845 129.887 95.519 124.391 94.7929 125.154C93.8495 127.714 95.4819 128.09 96.1126 130.183C95.4925 130.189 94.6498 130.655 94.1251 130.719C92.7577 130.872 91.1518 130.607 89.7579 130.719C91.9203 124.963 88.0513 124.936 83.5357 125.159C80.7373 125.297 77.8806 125.864 75.0716 125.965C73.4339 126.023 67.2117 126.203 66.1888 125.286C65.4839 124.772 66.9732 123.649 67.4237 123.346C68.7964 122.419 71.9658 121.762 72.7979 121.041C73.1371 120.749 74.1441 119.006 73.2007 119.059C71.4517 119.154 67.2859 121.476 66.0404 122.763C65.2878 123.543 63.7508 126.267 64.3709 127.242C65.0387 128.297 74.2236 128.154 75.8613 128.085C78.5166 127.973 81.4263 127.38 84.0604 127.284C85.9949 127.21 88.4859 126.744 88.9576 129.134C83.6417 129.918 78.2993 130.231 72.941 130.464C69.6656 130.607 66.1729 131.021 62.8657 130.74C60.8464 130.565 61.4506 129.653 60.2316 128.35C58.0162 130.931 61.7527 133.703 60.8411 136.639C60.5602 137.54 57.6081 138.87 56.67 139.087C52.7003 139.988 49.1387 138.833 49.8436 134.111C49.8807 133.846 51.1315 130.698 50.0344 131.652C49.6899 131.954 49.0645 133.454 48.9055 133.968C45.805 143.958 59.8341 143.571 61.7739 137.307C62.1343 136.141 62.4364 134.254 61.9541 133.12C70.8528 133.136 79.778 132.632 88.5601 131.259C88.6131 134.201 94.8141 133.247 96.2504 132.065L96.2557 132.044Z" fill="#20261E"/>
<path d="M156.309 116.722C155.27 116.128 154.343 115.662 153.378 115.084C152.943 114.824 151.936 114.639 151.788 114.49C151.337 114.045 151.687 112.725 149.853 113.351C148.974 113.648 149.255 114.241 149.005 114.49C148.921 114.575 147.331 115.699 147.15 115.815C146.822 116.027 145.545 116.16 144.824 116.536C138.967 119.605 138.708 131.021 143.08 135.394C143.774 136.088 146.944 137.938 147.924 138.362C149.122 138.881 149.97 139.088 151.306 138.907C152.44 138.754 157.008 136.199 157.825 135.367C162.059 131.074 161.895 119.907 156.314 116.732L156.309 116.722ZM159.664 122.769C158.429 121.264 156.69 119.923 154.634 119.854V119.064L156.754 119.329C156.367 117.559 152.927 116.605 151.989 118.264C155.09 119.764 150.156 120.188 151.12 117.819C152.874 113.52 159.855 119.547 159.664 122.769ZM148.014 115.354L149.864 115.884C148.958 113.075 151.878 113.16 150.929 115.884C151.565 115.365 152.562 114.92 153.044 115.884C151.873 115.927 151.009 116.388 150.532 117.474C149.912 116.483 149.562 116.404 148.597 115.958C148.221 115.784 147.871 116.117 148.02 115.36L148.014 115.354ZM145.126 117.103C146.912 116.186 149.482 115.921 149.869 118.391C149.456 119.541 148.528 120.077 147.749 118.932L148.804 118.264C149.673 117.003 144.013 117.167 144.039 119.324C144.829 119.234 145.762 118.635 146.419 119.456C145.237 120.045 144.135 120.278 143.006 121.068C142.28 121.576 141.85 122.186 141.135 122.636C141.872 120.501 143.011 118.184 145.126 117.098V117.103ZM147.219 120.119C147.092 119.419 146.848 118.667 146.159 118.402L147.484 118.004C146.467 120.665 149.297 120.813 150.659 119.059C151.327 121.285 154.486 120.241 153.314 118.004C155.991 117.93 153.177 119.07 153.956 120.14C154.067 120.294 156.738 121.025 157.533 121.592C162.282 125 159.696 132.712 153.85 132.839C153.638 133.83 154.072 134.259 154.634 134.948L153.309 135.213C154.454 132.871 151.634 131.843 150.527 133.894H150.14C149.419 131.8 146.377 133.104 147.484 135.213L146.165 134.948L147.108 133.088C138.729 131.631 138.819 121.253 147.225 120.114L147.219 120.119ZM141.13 130.189L143.16 132.261L146.424 133.369C146.424 134.561 144.681 134.153 144.045 133.634C143.334 134.487 148.55 137.365 148.809 134.694L147.749 134.031C150.532 132.51 150.638 136.385 147.76 136.692C144.442 137.047 141.75 133.072 141.13 130.189ZM147.749 137.466C148.592 136.962 149.975 136.989 150.134 135.749H150.654L151.189 136.671L153.304 137.598C151.443 138.383 149.509 138.733 147.744 137.466H147.749ZM150.919 134.567C151.014 133.576 152.45 133.242 153.044 134.031L151.984 134.694C152.297 137.264 157.634 134.609 156.749 133.634L155.307 134.18L154.634 133.374L157.634 132.267L159.664 130.194C159.558 133.984 152.938 140.01 150.924 134.572L150.919 134.567Z" fill="#20261E"/>
<path d="M260.684 130.714C261.58 133.104 263.604 133.342 265.91 133.03C270.812 132.362 270.404 128.042 267.563 125.154C266.964 125.037 267.229 125.414 267.134 125.774C266.44 128.382 267.977 127.968 268.491 130.184C264.373 130.979 261.882 131.917 260.885 127.067C259.995 122.726 260.127 117.877 259.221 113.499C258.834 113.213 258.166 115.349 258.161 115.746C258.124 119.668 259.592 124.693 259.756 128.737C259.804 129.993 259.788 130.544 258.447 130.867C253.497 132.049 253.826 125.456 253.131 122.244C251.027 122.96 252.85 125.965 252.856 127.449C252.866 129.272 248.494 130.083 247.211 129.346C246.729 129.071 246.957 128.482 246.384 128.604C245.733 128.901 245.611 131.461 246.962 131.715C249.501 132.198 251.663 131.498 253.396 129.659C254.133 133.809 259.269 135.113 260.679 130.714H260.684Z" fill="#20261E"/>
<path d="M120.444 125.053C120.174 122.334 118.87 118.969 120.179 116.584L118.489 113.764C116.777 115.572 117.72 116.133 118.017 117.941C118.663 121.905 119.125 125.928 119.559 129.919C118.144 131.318 114.794 130.878 113.236 129.876C112.303 129.277 111.72 127.846 110.411 128.175C108.752 128.594 105.864 131.334 105.498 133.083C105.069 135.139 106.362 141.563 106.786 144.006C106.908 144.695 106.844 145.575 107.364 146.073C107.936 146.073 107.788 143.54 107.756 143.036C107.618 140.429 106.389 136.936 106.426 134.551C106.442 133.65 107.263 132.632 108.106 132.341C109.526 133.422 111.355 133.941 113.141 133.91L113.597 132.844C115.091 133.104 118.409 133.496 119.602 132.494C121.298 131.074 120.635 127.041 120.439 125.059L120.444 125.053ZM109.357 130.189C110.088 129.405 111.959 130.364 112.001 131.509C111.773 131.286 108.726 130.862 109.357 130.189Z" fill="#20261E"/>
<path d="M225.3 125.053C225.029 122.334 223.726 118.969 225.035 116.584L223.344 113.764C221.632 115.572 222.576 116.133 222.872 117.941C223.519 121.905 223.98 125.928 224.415 129.919C223 131.318 219.65 130.878 218.092 129.876C217.159 129.277 216.576 127.846 215.267 128.175C213.608 128.594 210.719 131.334 210.354 133.083C209.924 135.139 211.218 141.563 211.642 144.006C211.764 144.695 211.7 145.575 212.219 146.073C212.792 146.073 212.643 143.54 212.612 143.036C212.474 140.429 211.244 136.936 211.281 134.551C211.297 133.65 212.119 132.632 212.961 132.341C214.382 133.422 216.21 133.941 217.996 133.91L218.452 132.844C219.947 133.104 223.265 133.496 224.457 132.494C226.153 131.074 225.491 127.041 225.294 125.059L225.3 125.053ZM214.212 130.189C214.944 129.405 216.814 130.364 216.857 131.509C216.629 131.286 213.581 130.862 214.212 130.189Z" fill="#20261E"/>
<path d="M292.557 116.584L290.866 113.764C289.155 115.572 290.098 116.133 290.395 117.941C291.041 121.905 291.502 125.928 291.937 129.919C290.522 131.318 287.172 130.878 285.614 129.876C284.681 129.277 284.098 127.846 282.789 128.175C281.13 128.594 278.242 131.334 277.876 133.083C277.447 135.139 278.74 141.563 279.164 144.006C279.286 144.695 279.222 145.575 279.742 146.073C280.314 146.073 280.166 143.54 280.134 143.036C279.996 140.429 278.767 136.936 278.804 134.551C278.82 133.65 279.641 132.632 280.484 132.341C281.904 133.422 283.733 133.941 285.519 133.91L285.975 132.844C287.469 133.104 290.787 133.496 291.979 132.494C293.675 131.074 293.013 127.041 292.817 125.059C292.547 122.34 291.243 118.974 292.552 116.589L292.557 116.584ZM281.735 130.189C282.466 129.405 284.337 130.364 284.379 131.509C284.151 131.286 281.104 130.862 281.735 130.189Z" fill="#20261E"/>
<path d="M202.038 128.72C201.917 127.613 200.894 125.381 199.648 125.154C198.705 127.692 200.332 128.09 200.968 130.183C199.086 130.75 197.136 130.819 195.18 130.681C194.465 127.109 191.571 125.699 190.103 129.775C189.08 132.611 191.412 133.374 193.823 133.104C192.854 137.81 188.232 139.702 183.759 139.458V140.253C190.23 141.827 193.967 139.909 195.133 133.22C198.488 132.976 202.553 133.374 202.038 128.726V128.72ZM191.179 130.321C191.979 129.171 192.742 129.722 193.293 130.713C192.997 130.597 190.887 131.058 191.179 130.321Z" fill="#20261E"/>
<path d="M39.1853 115.741L37.4681 112.969L36.371 114.952C37.7914 119.812 38.1041 124.974 38.6076 129.998C37.7119 131.44 35.2421 131.175 34.2934 129.913C33.1751 128.424 33.0267 124.136 32.5656 122.239C31.4685 122.695 32.0409 124.571 31.654 125.165C31.5268 125.361 29.2478 126.357 28.5959 127.136C27.9281 127.931 26.5713 130.772 27.8062 131.382C29.4121 132.171 31.6752 131.085 32.8359 129.924C33.3553 132.616 36.4187 134.726 38.6818 132.457C41.724 129.399 37.325 119.541 39.1906 115.747L39.1853 115.741ZM32.3059 128.196C32.1098 129.262 29.7513 129.484 28.8609 129.124C28.5694 128.732 30.2866 127.497 30.6205 127.311C31.7547 126.696 32.6186 126.49 32.3059 128.196Z" fill="#20261E"/>
<path d="M184.224 130.253C184.966 125.488 182.258 120.289 183.758 115.741L182.036 112.969L180.938 114.952C181.797 117.31 182.057 119.918 182.396 122.409C182.661 124.359 183.175 127.147 183.233 129.002C183.297 131.026 181.426 131.286 179.778 130.852C177.239 130.184 177.032 124.454 176.608 122.239C174.504 122.955 176.327 125.96 176.333 127.444C176.343 129.304 170.842 130.661 170.248 128.599C169.119 128.451 169.321 130.724 169.702 131.334C170.169 132.071 173.089 131.79 173.911 131.594C175.188 131.286 175.903 130.433 176.868 129.659C177.133 130.481 177.7 131.89 178.283 132.484C180.345 134.567 183.758 133.205 184.219 130.258L184.224 130.253Z" fill="#20261E"/>
<path d="M130.949 126.728C128.103 123.219 125.077 131.758 128.861 131.959C129.895 132.012 130.213 131.111 131.071 130.979C130.573 134.54 126.731 138.558 123.195 139.125C122.65 139.215 120.206 139.013 120.217 139.586C122.655 141.102 126.137 140.868 128.395 139.035C131.188 136.761 133.414 129.775 130.944 126.728H130.949ZM128.162 128.991L129.121 128.085L130.271 128.991C129.603 129.77 128.835 129.775 128.162 128.991Z" fill="#20261E"/>
<path d="M233.717 131.959C234.75 132.012 235.068 131.111 235.927 130.979C235.429 134.54 231.586 138.558 228.051 139.125C227.505 139.215 225.062 139.013 225.072 139.586C227.51 141.102 230.992 140.868 233.25 139.035C236.043 136.761 238.269 129.775 235.799 126.728C232.953 123.219 229.927 131.758 233.711 131.959H233.717ZM233.017 128.991L233.976 128.085L235.126 128.991C234.464 129.77 233.69 129.775 233.017 128.991Z" fill="#20261E"/>
<path d="M23.1318 130.194C23.4392 130.115 23.1318 129.542 23.5611 129.659C22.6972 132.579 19.8511 133.978 16.9414 133.634V134.429C20.0048 134.927 22.2467 134.837 23.7042 131.79C24.3561 130.427 24.8331 128.032 23.5558 126.892C21.4146 124.979 19.6497 131.074 23.1318 130.2V130.194ZM22.6336 128.859L21.9817 128.461L22.3792 128.064L23.0311 128.461L22.6336 128.859Z" fill="#20261E"/>
<path d="M66.6983 118.11C66.4015 118.333 66.0411 118.11 66.2001 118.794C66.5817 119.09 68.5904 118.073 69.0303 117.787C70.0161 117.145 70.615 115.704 71.7545 116.414C72.1626 115.025 71.145 113.716 71.4524 112.079C69.2953 110.499 66.8626 114.702 69.8942 115.746C68.9985 116.758 67.7583 117.32 66.693 118.11H66.6983ZM69.6398 113.626V113.234H70.6945V114.289H70.3023L69.6398 113.626Z" fill="#20261E"/>
<path d="M198.772 119.377C199.758 118.735 200.357 117.294 201.497 118.004C201.905 116.615 200.887 115.306 201.195 113.669C199.037 112.089 196.605 116.292 199.642 117.336C198.746 118.348 197.506 118.91 196.44 119.7C196.144 119.923 195.783 119.7 195.942 120.384C196.324 120.68 198.333 119.663 198.772 119.377ZM199.387 115.216V114.824H200.442V115.879H200.05L199.387 115.216Z" fill="#20261E"/>
<path d="M30.8945 120.172C31.8803 119.53 32.4792 118.089 33.6187 118.799C34.0268 117.41 33.0092 116.101 33.3166 114.464C31.1595 112.884 28.7268 117.087 31.7637 118.131C30.868 119.143 29.6278 119.705 28.5625 120.495C28.2657 120.718 27.9053 120.495 28.0643 121.179C28.4459 121.475 30.4546 120.458 30.8945 120.172ZM31.5093 116.011V115.619H32.564V116.674H32.1718L31.5093 116.011Z" fill="#20261E"/>
<path d="M249.229 119.53C250.67 119.408 254.078 117.776 253.644 115.91C250.946 114.856 248.974 113.737 248.11 117.474C248.916 117.384 249.139 116.679 250.087 116.674C250.294 116.674 252.08 116.917 251.55 117.474C250.702 117.437 246.902 119.737 249.229 119.536V119.53Z" fill="#20261E"/>
<path d="M172.701 119.53C174.143 119.408 177.551 117.776 177.116 115.91C174.419 114.856 172.447 113.737 171.583 117.474C172.389 117.384 172.611 116.679 173.56 116.674C173.767 116.674 175.553 116.917 175.023 117.474C174.175 117.437 170.375 119.737 172.701 119.536V119.53Z" fill="#20261E"/>
<path d="M108.096 121.12C109.537 120.998 112.945 119.366 112.511 117.5C109.813 116.446 107.841 115.327 106.978 119.064C107.783 118.974 108.011 118.269 108.954 118.264C109.161 118.264 110.947 118.507 110.417 119.064C109.569 119.027 105.769 121.327 108.096 121.126V121.12Z" fill="#20261E"/>
<path d="M212.95 121.12C214.392 120.998 217.8 119.366 217.365 117.5C214.673 116.446 212.696 115.327 211.832 119.064C212.638 118.974 212.866 118.269 213.809 118.264C214.016 118.264 215.802 118.507 215.272 119.064C214.424 119.027 210.624 121.327 212.95 121.126V121.12Z" fill="#20261E"/>
<path d="M280.472 121.12C281.913 120.998 285.321 119.366 284.887 117.5C282.194 116.446 280.217 115.327 279.354 119.064C280.159 118.974 280.387 118.269 281.33 118.264C281.537 118.264 283.323 118.507 282.793 119.064C281.945 119.027 278.145 121.327 280.472 121.126V121.12Z" fill="#20261E"/>
<path d="M267.001 136.512L265.215 135.505L264.033 136.999L264.113 137.603L265.984 138.875L267.303 137.338L269.259 138.637L270.287 136.936L268.316 135.245L267.001 136.512Z" fill="#20261E"/>
<path d="M199.78 137.338L201.736 138.637L202.764 136.936L200.792 135.245L199.478 136.512L197.697 135.505L196.51 136.999L196.589 137.603L198.46 138.875L199.78 137.338Z" fill="#20261E"/>
<path d="M94.6223 136.512L92.8362 135.505L91.6543 136.999L91.7338 137.603L93.6047 138.875L94.9244 137.338L96.8801 138.637L97.9083 136.936L95.9367 135.245L94.6223 136.512Z" fill="#20261E"/>
<path d="M39.9844 107.41C39.6664 108.178 40.0109 109.312 39.0569 109.535C37.8114 109.826 38.7442 108.035 37.5994 108.205C37.9863 110.303 34.7215 111.416 35.7444 108.74C35.0077 107.998 33.4654 112.158 36.3963 111.655C37.0959 111.533 37.4351 110.674 37.7266 110.659C38.2195 110.632 38.6647 111.676 39.8572 110.595C41.0073 109.546 40.4508 107.06 39.9844 107.415V107.41Z" fill="#20261E"/>
<path d="M288.54 111.103C288.232 111.358 287.623 112.762 287.824 112.969C289.987 111.84 293.527 111.496 294.179 108.734C293.962 108.522 288.778 110.907 288.545 111.103H288.54Z" fill="#20261E"/>
<path d="M179.451 110.308C179.143 110.563 178.534 111.967 178.735 112.174C180.898 111.045 184.438 110.701 185.085 107.939C184.867 107.727 179.684 110.112 179.451 110.308Z" fill="#20261E"/>
<path d="M115.447 112.969C117.61 111.84 121.15 111.496 121.797 108.734C121.579 108.522 116.396 110.907 116.163 111.103C115.855 111.358 115.246 112.762 115.447 112.969Z" fill="#20261E"/>
<path d="M263.465 120.119C265.628 118.99 269.168 118.645 269.82 115.884C269.603 115.672 264.419 118.057 264.186 118.253C263.879 118.508 263.269 119.912 263.471 120.119H263.465Z" fill="#20261E"/>
<path d="M130.801 117.209C130.583 116.997 125.4 119.382 125.167 119.578C124.859 119.833 124.25 121.237 124.451 121.444C126.614 120.315 130.154 119.97 130.801 117.209Z" fill="#20261E"/>
<path d="M235.656 117.209C235.439 116.997 230.255 119.382 230.022 119.578C229.715 119.833 229.105 121.237 229.307 121.444C231.469 120.315 235.009 119.97 235.661 117.209H235.656Z" fill="#20261E"/>
<path d="M226.656 108.734C226.439 108.522 221.255 110.907 221.022 111.103C220.715 111.358 220.105 112.762 220.307 112.969C222.469 111.84 226.009 111.496 226.661 108.734H226.656Z" fill="#20261E"/>
<path d="M97.4369 115.884L92.068 118.253L91.3525 120.119C93.499 119.054 96.8804 118.677 97.4422 115.884H97.4369Z" fill="#20261E"/>
<path d="M40.5092 103.169C40.3025 102.963 35.4212 105.305 35.1403 105.538C34.8329 105.788 34.2393 107.176 34.4248 107.404C35.6067 106.62 38.8821 105.782 39.799 105.04C40.0799 104.812 40.6205 103.281 40.5092 103.169Z" fill="#20261E"/>
<path d="M256.58 138.658C257.253 138.685 264.207 136.623 262.935 135.483C260.825 136.045 257.285 136.294 256.58 138.658Z" fill="#20261E"/>
<path d="M55.6357 124.656L54.5439 126.336L56.7487 127.777L57.9571 126.118C57.655 125.61 56.1657 124.348 55.6357 124.656Z" fill="#20261E"/>
<path d="M149.737 130.448C150.373 130.576 150.124 129.929 150.135 129.521C150.172 128.244 149.875 127.295 149.589 126.086C150.103 126.182 150.411 125.503 150.464 125.477C150.835 125.291 151.757 126.177 152.531 125.297C152.992 124.777 153.352 123.256 152.647 122.769C152.425 123.521 151.948 124.624 151.068 123.818L150.797 123.034L149.472 124.364L147.75 123.034L147.808 124.958L149.737 130.448Z" fill="#20261E"/>
<path d="M49.2704 83.0136C49.6838 82.8917 49.7792 82.0861 50.0919 82.0384C50.1926 82.0225 51.1784 82.473 51.6925 82.5154C53.6164 82.6691 55.6569 82.3882 56.7275 80.6604L58.9747 81.996L58.715 83.5701C59.8333 83.8139 59.351 83.1461 59.7538 82.6267C60.2361 82.0119 60.8032 82.5207 61.4816 82.5207C65.3877 82.5419 70.1577 82.8334 73.9472 82.5207C77.0689 82.261 77.3498 80.0615 77.2544 77.332C77.1537 74.4435 75.887 70.4102 75.9665 67.8026C75.9877 67.0606 76.735 66.2868 76.682 65.9953C76.6237 65.672 74.9701 64.0131 75.1238 63.1757C73.2211 64.7869 74.2387 65.6137 74.5249 67.3521C75.1556 71.2158 75.5266 75.1272 76.1202 78.9962C76.1997 79.4043 75.2934 80.0615 74.9913 80.1251C73.9525 80.3477 72.2777 79.9608 71.1541 80.1251C71.7 78.8001 72.8713 77.3055 72.1558 75.8215C71.5569 74.5813 69.421 73.7121 68.1172 73.7545C65.6421 73.834 61.9321 78.0104 60.3845 79.876L58.4341 78.9379C57.7981 78.7895 57.8034 76.9398 57.2522 77.2101C56.8547 77.4009 56.4466 78.6994 56.0597 79.1234C54.6552 80.6604 51.56 80.353 49.9806 79.1764C48.7987 78.2966 48.2687 76.2243 46.5356 77.3532C44.9668 78.3708 44.8714 79.8654 42.4175 80.1198C37.0221 80.671 37.1493 75.1749 35.925 71.3801C35.3049 70.7335 35.1035 73.0708 35.1141 73.3676C35.2042 76.3833 38.0291 78.0104 33.9587 79.3407C32.3846 79.8548 30.5561 80.3424 29.4431 78.8001C27.1323 83.3157 33.5294 82.6214 35.6759 80.7876C36.2112 80.3318 36.4179 79.6693 36.9903 79.3248C37.5309 81.996 40.0378 82.9235 42.5712 82.3829C43.3503 82.2186 44.5534 81.1798 44.7601 81.2116C45.3855 81.307 47.744 83.4641 49.2704 83.003V83.0136ZM70.8732 77.8779C68.3822 79.8548 64.9902 80.2894 61.8844 80.1198C64.0786 77.3161 67.9847 73.9983 70.8732 77.8779ZM46.0003 79.1976C47.3306 77.5652 47.6327 79.3884 48.38 80.3848C48.1468 80.5703 46.0056 79.5686 46.0003 79.1976Z" fill="#20261E"/>
<path d="M131.353 84.7995C132.047 85.4938 135.217 87.3435 136.197 87.7675C137.395 88.2869 138.243 88.4936 139.579 88.3134C140.713 88.1597 145.276 85.6051 146.098 84.773C150.332 80.48 150.168 69.3129 144.587 66.1382C143.548 65.5446 142.621 65.0782 141.656 64.5005C141.222 64.2408 140.215 64.0553 140.066 63.9069C139.616 63.4617 139.966 62.142 138.132 62.7674C137.252 63.0642 137.533 63.6578 137.284 63.9069C137.199 63.9917 135.609 65.1153 135.429 65.2319C135.1 65.4439 133.823 65.5764 133.102 65.9527C127.246 69.0214 126.986 80.4376 131.358 84.8101L131.353 84.7995ZM129.408 79.5949L131.438 81.6672L134.703 82.7749C134.703 83.9674 132.959 83.5593 132.323 83.0399C131.618 83.8932 136.828 86.7711 137.088 84.0999L136.028 83.4374C138.81 81.9163 138.916 85.7906 136.044 86.098C132.726 86.4531 130.033 82.4781 129.413 79.5949H129.408ZM136.028 86.8771C136.87 86.3736 138.254 86.4001 138.413 85.1599H138.932L139.467 86.0821L141.582 87.0096C139.722 87.794 137.787 88.1438 136.022 86.8771H136.028ZM139.197 83.978C139.292 82.9869 140.729 82.653 141.322 83.4427L140.262 84.1052C140.575 86.6757 145.912 84.0204 145.027 83.0452L143.585 83.5911L142.912 82.7855L145.912 81.6778L147.942 79.6055C147.831 83.395 141.216 89.4211 139.202 83.9833L139.197 83.978ZM142.123 82.2502C141.911 83.2413 142.345 83.6706 142.907 84.3596L141.582 84.6246C142.727 82.282 139.907 81.2538 138.8 83.3049H138.413C137.692 81.2114 134.65 82.5152 135.757 84.6246L134.432 84.3596L135.376 82.4993C126.996 81.0418 127.087 70.6644 135.492 69.5249C135.365 68.8253 135.121 68.0727 134.432 67.8077L135.757 67.4102C134.74 70.0708 137.57 70.2192 138.932 68.4649C139.6 70.6909 142.759 69.6468 141.587 67.4102C144.264 67.336 141.45 68.4755 142.229 69.5461C142.34 69.6998 145.011 70.4312 145.806 70.9983C150.555 74.4062 147.969 82.1177 142.123 82.2449V82.2502ZM147.937 72.1802C146.702 70.675 144.963 69.3341 142.907 69.2652V68.4755L145.027 68.7405C144.64 66.9703 141.2 66.0163 140.262 67.6752C143.363 69.1751 138.429 69.5991 139.393 67.23C141.147 62.9317 148.128 68.9578 147.937 72.1802ZM136.293 64.7655L138.142 65.2955C137.236 62.4865 140.156 62.5713 139.208 65.2955C139.844 64.7761 140.84 64.3309 141.322 65.2955C140.151 65.3379 139.287 65.799 138.81 66.8855C138.19 65.8944 137.84 65.8149 136.876 65.3697C136.499 65.1948 136.15 65.5287 136.298 64.7708L136.293 64.7655ZM133.404 66.5092C135.19 65.5923 137.761 65.3273 138.148 67.7971C137.734 68.9472 136.807 69.4825 136.028 68.3377L137.082 67.6699C137.952 66.4085 132.291 66.5728 132.318 68.7299C133.107 68.6398 134.04 68.0409 134.697 68.8624C133.515 69.4507 132.413 69.6839 131.284 70.4736C130.558 70.9824 130.129 71.5919 129.413 72.0424C130.15 69.9065 131.289 67.5904 133.404 66.5039V66.5092Z" fill="#20261E"/>
<path d="M249.691 81.9219C250.401 81.6198 251.752 80.4325 252.118 80.4113C253.432 80.3318 255.929 81.8476 257.566 81.0579C258.727 80.4961 258.854 77.5653 258.425 76.4894C257.874 75.122 251.784 70.4103 250.708 71.147C250.062 72.1222 250.682 73.3253 250.608 74.1362C250.486 75.4135 248.419 77.5652 249.51 79.6163C248.456 80.2841 247.141 80.1781 245.954 80.0933C245.244 76.7066 242.562 75.0266 240.956 79.0069C239.769 81.9378 242.032 82.7963 244.592 82.5154C243.622 87.2218 239.001 89.1139 234.527 88.8701V89.6651C238.396 90.2216 242.191 91.0219 244.428 86.9887C245.233 85.5365 245.27 83.8351 246.081 82.5472C247.396 82.5896 248.488 82.4359 249.696 81.9271L249.691 81.9219ZM255.044 75.8904C255.203 75.9593 256.718 77.2472 256.909 77.4698C258.807 79.6905 255.775 79.0386 254.386 78.5351C254.641 77.8726 254.593 77.2313 254.662 76.5529C254.683 76.325 254.487 75.6519 255.049 75.8904H255.044ZM252.134 75.1803C253.496 75.1803 254.699 78.6623 251.403 77.9521C249.309 77.5016 251.254 75.1856 252.134 75.1803ZM241.942 79.7329C242.742 78.5828 243.506 79.134 244.057 80.1251C243.76 80.0085 241.651 80.4696 241.942 79.7329Z" fill="#20261E"/>
<path d="M278.75 81.715C280.685 83.0559 285.683 82.7856 287.363 81.1956C289.054 79.6003 288.778 76.5369 287.882 74.5653C284.898 68.0198 280.521 77.9149 284.723 78.5244C286.382 78.7629 286.207 77.9202 287.485 77.4803C287.416 77.899 287.633 78.7205 287.442 79.0279C287.161 79.4731 284.331 80.0879 283.653 80.1409C279.604 80.4589 278.899 79.8229 278.252 75.9857C277.685 72.5937 277.505 68.9897 277.155 65.5606C276.683 65.0147 275.682 67.3308 275.857 67.7813L277.807 85.9709C274.765 89.8611 267.329 89.8028 268.177 83.464C268.304 82.5365 269.444 81.1055 268.421 80.6603C265.972 84.3862 265.946 90.4759 271.463 90.9847C277.102 91.5041 279.906 86.8878 278.745 81.7203L278.75 81.715ZM284.559 76.0281C284.14 75.8373 284.49 74.9363 284.607 74.8621C285.927 74.0406 287.792 76.7913 284.559 76.0281Z" fill="#20261E"/>
<path d="M214.381 80.024L214.927 79.8597C215.494 82.515 220.063 83.5803 221.669 81.4338C224.17 78.0895 220.19 72.3125 220.227 68.47C219.262 68.4594 218.886 70.219 218.897 70.9716C218.923 72.4344 221.329 79.0965 221.001 79.5682C214.863 81.1211 215.287 74.565 214.582 70.537C214.519 70.1766 214.386 68.4594 214.005 68.47C212.15 70.9186 213.75 74.0562 213.867 76.8122C213.946 78.6248 213.835 79.2608 212.081 80.0505C209.648 81.1476 208.101 80.2572 207.777 77.6019C207.576 75.9271 207.777 73.5474 207.777 71.7772C207.777 71.6871 207.427 71.385 207.507 71.1147C206.436 71.9733 206.097 73.452 206.145 74.7823C204.131 75.2858 200.564 77.7026 200.633 80.0081C200.675 81.4497 206.071 81.3914 206.32 79.3297C206.813 79.5417 206.675 82.6899 209.293 83.2411C211.726 83.7499 213.65 82.25 214.381 80.024ZM202.753 78.2697C202.854 77.3899 206.15 76.0967 206.458 76.42C206.887 78.8262 204.322 78.2273 202.753 78.2697Z" fill="#20261E"/>
<path d="M106.086 80.024L106.632 79.8597C107.199 82.515 111.767 83.5803 113.373 81.4338C115.875 78.0895 111.894 72.3125 111.932 68.47C110.967 68.4594 110.591 70.219 110.601 70.9716C110.628 72.4344 113.034 79.0965 112.705 79.5682C106.568 81.1211 106.992 74.565 106.287 70.537C106.223 70.1766 106.091 68.4594 105.709 68.47C103.854 70.9186 105.455 74.0562 105.572 76.8122C105.651 78.6248 105.54 79.2608 103.785 80.0505C101.353 81.1476 99.8052 80.2572 99.4872 77.6019C99.2858 75.9271 99.4872 73.5474 99.4872 71.7772C99.4872 71.6871 99.1374 71.385 99.2169 71.1147C98.1463 71.9733 97.8071 73.452 97.8548 74.7823C95.8408 75.2858 92.2739 77.7026 92.3428 80.0081C92.3852 81.4497 97.7806 81.3914 98.0297 79.3297C98.5226 79.5417 98.3848 82.6899 101.003 83.2411C103.436 83.7499 105.36 82.25 106.091 80.024H106.086ZM94.4522 78.2697C94.5529 77.3899 97.8495 76.0967 98.1569 76.42C98.5862 78.8262 96.021 78.2273 94.4522 78.2697Z" fill="#20261E"/>
<path d="M174.308 74.5758C172.888 74.6341 170.996 76.187 171.239 77.7399C171.907 77.7293 172.432 77.1728 173.084 77.0509C174.07 76.8654 176.863 77.6922 177.785 78.2116C178.082 78.3759 178.235 78.1904 178.124 78.7999C175.373 79.5154 170.36 81.2379 167.932 79.3299C166.014 77.8194 165.632 73.643 164.885 71.3852C164.243 71.3004 164.466 71.3852 164.328 71.7509C163.501 73.9716 165.023 75.9114 165.123 78.0897C163.443 79.4147 159.95 80.8457 158.398 78.7999C156.087 83.3261 162.494 82.6159 164.63 80.7874C165.166 80.3316 165.372 79.6691 165.945 79.3246C166.793 83.1088 170.646 82.7431 173.72 82.1972C177.594 81.5135 180.97 78.837 185.094 80.1355L186.329 78.1215C186.403 77.5915 186.313 77.7823 185.942 77.7346C184.018 77.4855 182.878 77.6498 180.832 77.0138C179.158 76.4944 175.819 74.5069 174.313 74.5705L174.308 74.5758Z" fill="#20261E"/>
<path d="M305.064 81.9536C305.631 81.5243 307.629 81.7946 307.863 81.0314C308.133 80.1569 305.849 79.1234 306.018 78.0051L309.06 79.8548C309.887 78.6464 309.527 77.5599 311.016 76.7649C311.498 75.3657 310.163 75.3286 309.755 74.6661C309.357 74.0248 309.675 73.2033 309.06 72.7051L306.023 74.5601C305.801 73.6167 308.011 71.926 307.757 71.3801C307.317 70.4261 305.562 71.1469 304.948 70.7335C304.799 70.6328 303.729 68.0411 303.416 67.5005C302.192 65.3964 299.568 62.0415 297.019 61.8507C296.775 62.8312 297.628 62.8524 297.983 63.2658C299.822 65.407 301.296 67.9881 301.985 70.7335C301.879 71.3165 300.178 71.1151 300.458 71.7776C300.75 72.4613 302.557 73.3358 302.578 74.4276C301.492 75.1378 300.188 72.6203 299.563 72.721C298.72 72.8588 298.985 74.3163 298.741 74.8304C298.54 75.2544 297.559 75.4134 297.395 76.1289C297.194 77.0087 298.497 77.3532 298.821 77.9203C299.192 78.5828 298.959 79.6428 299.796 80.1198C300.617 79.3513 301.354 78.2648 302.578 78.1429C302.451 79.8548 299.096 81.0685 302.043 81.731C301.635 83.6549 301.063 85.5629 300.04 87.2589C299.414 88.2924 297.877 89.6598 297.496 90.5449C296.923 91.8699 298.831 90.7781 299.266 90.4601C301.01 89.1881 302.923 86.4533 303.946 84.5453C304.269 83.9411 304.64 82.2822 305.064 81.9589V81.9536ZM308.928 74.0354C308.642 75.4081 309.421 75.5247 310.248 76.2879C309.977 76.6695 309.251 76.8232 309.055 77.2101C308.779 77.756 309.235 78.6676 308.525 78.5404L306.808 77.4751L307.884 76.2826L306.808 75.0954L308.923 74.0354H308.928ZM299.663 78.5351C299.653 78.1111 299.759 77.5864 299.536 77.2048C299.271 76.7543 298.073 76.8391 298.338 76.2879C298.593 75.7579 300.199 75.5459 299.663 74.0354L301.513 75.1007L300.708 76.2879L301.773 77.4751L299.658 78.5351H299.663ZM301.783 71.7829L302.578 71.5179C302.822 71.3695 302.806 71.3006 302.801 71.0515C302.727 69.1806 300.856 65.8628 299.669 64.3682L300.193 64.241C301.142 65.7462 302.303 66.944 303.161 68.5605C304.163 70.4579 303.707 72.2016 306.553 71.6557L305.488 73.2404C304.253 72.668 304.163 72.4878 303.114 73.5054L301.789 71.7829H301.783ZM305.493 77.3479C303.384 79.6799 301.036 74.9629 304.068 74.629C305.419 74.4806 306.612 76.113 305.493 77.3479ZM299.928 88.8648C300.358 87.72 301.158 86.8508 301.64 85.6795C301.932 84.9746 303.018 81.6091 302.716 81.1745C302.557 80.9413 301.969 80.9943 302.043 80.7876L303.103 79.0651L304.29 79.8707L305.478 79.0651L306.538 80.9201L304.449 80.9519C303.58 83.8404 302.17 86.7925 299.918 88.8648H299.928Z" fill="#20261E"/>
<path d="M190.706 82.5101C191.21 82.5419 191.321 82.0331 191.454 81.6674C192.662 78.2489 190.892 70.8819 190.574 67.0129C190.5 66.096 190.621 65.1526 190.574 64.2357C189.021 64.6385 189.185 67.3044 189.238 68.6188C189.381 72.0532 190.25 75.9699 190.568 79.4679C190.606 79.8972 190.447 82.5207 190.706 82.5154V82.5101Z" fill="#20261E"/>
<path d="M81.4837 63.9707C81.2028 65.0254 80.5562 65.8098 80.5191 66.9705C80.4237 69.8166 81.4254 74.3216 81.7434 77.3479C81.9024 78.8478 81.8282 80.6551 82.0084 82.1179C82.0508 82.4889 82.1621 82.8864 82.5384 82.5101C83.8952 77.6129 82.5066 72.2652 82.0137 67.2779C81.913 66.2338 82.4324 64.559 81.4837 63.9707Z" fill="#20261E"/>
<path d="M118.287 63.9707C118.006 65.0254 117.36 65.8098 117.323 66.9705C117.227 69.8166 118.229 74.3216 118.547 77.3479C118.706 78.8478 118.632 80.6551 118.812 82.1179C118.854 82.4889 118.966 82.8864 119.337 82.5101C120.694 77.6129 119.305 72.2652 118.812 67.2779C118.711 66.2338 119.231 64.559 118.282 63.9707H118.287Z" fill="#20261E"/>
<path d="M227.113 82.1179C227.156 82.4889 227.267 82.8864 227.638 82.5101C228.995 77.6129 227.606 72.2652 227.113 67.2779C227.013 66.2338 227.532 64.559 226.583 63.9707C226.302 65.0254 225.656 65.8098 225.619 66.9705C225.523 69.8166 226.525 74.3216 226.843 77.3479C227.002 78.8478 226.928 80.6551 227.108 82.1179H227.113Z" fill="#20261E"/>
<path d="M193.219 60.2605C191.724 60.8011 189.477 61.1827 188.984 59.2058L190.145 58.9514L190.611 59.6881L191.231 59.7305C191.973 59.4284 191.644 57.7059 190.929 57.3773C188.639 57.6423 186.461 59.6086 188.719 61.5855C187.717 61.718 187.431 62.619 187.129 63.4405L192.906 61.8028L193.219 60.2658V60.2605Z" fill="#20261E"/>
<path d="M85.3274 57.8701C83.748 56.3066 82.1951 60.3028 81.5644 60.4989C81.0185 60.6685 80.3719 60.0643 79.8896 60.3717C79.3755 61.2197 78.7501 62.126 78.8349 63.1701C80.3719 61.0024 80.5256 62.5394 82.3753 62.3645C84.2992 62.1843 87.0128 59.5343 85.3274 57.8701ZM84.9193 59.9901L82.5396 60.7851C82.8682 59.6562 84.5377 58.2252 84.9193 59.9901Z" fill="#20261E"/>
<path d="M122.129 57.8701C120.55 56.3066 118.997 60.3028 118.366 60.4989C117.82 60.6685 117.174 60.0643 116.691 60.3717C116.177 61.2197 115.552 62.126 115.637 63.1701C117.174 61.0024 117.327 62.5394 119.177 62.3645C121.101 62.1843 123.815 59.5343 122.129 57.8701ZM121.726 59.9901L119.347 60.7851C119.675 59.6562 121.345 58.2252 121.726 59.9901Z" fill="#20261E"/>
<path d="M230.431 57.8701C228.851 56.3066 227.298 60.3028 226.673 60.4989C226.127 60.6685 225.48 60.0643 224.998 60.3717C224.484 61.2197 223.859 62.126 223.943 63.1701C225.48 61.0024 225.634 62.5394 227.484 62.3645C229.408 62.1843 232.121 59.5343 230.436 57.8701H230.431ZM230.022 59.9901L227.643 60.7851C227.971 59.6562 229.641 58.2252 230.022 59.9901Z" fill="#20261E"/>
<path d="M201.927 69.6414C201.63 69.864 201.27 69.6414 201.429 70.3251C201.81 70.6219 203.819 69.6043 204.259 69.3181C205.245 68.6768 205.843 67.2352 206.983 67.9454C207.391 66.5568 206.373 65.2477 206.681 63.61C204.524 62.0306 202.091 66.2335 205.128 67.2776C204.232 68.2899 202.992 68.8517 201.927 69.6414ZM204.874 65.1576V64.7654H205.928V65.8201H205.536L204.874 65.1576Z" fill="#20261E"/>
<path d="M284.226 64.2831C285.212 63.6418 285.811 62.2002 286.95 62.9104C287.358 61.5218 286.341 60.2127 286.648 58.575C284.491 56.9956 282.058 61.1985 285.09 62.2426C284.194 63.2549 282.954 63.8167 281.889 64.6064C281.592 64.829 281.231 64.6064 281.39 65.2901C281.772 65.5869 283.781 64.5693 284.221 64.2831H284.226ZM284.841 60.1226V59.7304H285.895V60.7851H285.503L284.841 60.1226Z" fill="#20261E"/>
<path d="M93.6328 69.6414C93.336 69.864 92.9756 69.6414 93.1346 70.3251C93.5162 70.6219 95.5249 69.6043 95.9648 69.3181C96.9506 68.6768 97.5495 67.2352 98.689 67.9454C99.0971 66.5568 98.0795 65.2477 98.3869 63.61C96.2298 62.0306 93.7971 66.2335 96.8287 67.2776C95.933 68.2899 94.6928 68.8517 93.6275 69.6414H93.6328ZM96.5743 65.1576V64.7654H97.629V65.8201H97.2368L96.5743 65.1576Z" fill="#20261E"/>
<path d="M34.0014 68.523C34.9872 67.8817 35.5861 66.4401 36.7256 67.1503C37.1337 65.7617 36.1161 64.4526 36.4235 62.8149C34.2664 61.2355 31.8337 65.4384 34.8653 66.4825C33.9696 67.4948 32.7294 68.0566 31.6641 68.8463C31.3673 69.0689 31.0069 68.8463 31.1659 69.53C31.5475 69.8268 33.5562 68.8092 33.9961 68.523H34.0014ZM34.6162 64.3625V63.9703H35.6709V65.025H35.2787L34.6162 64.3625Z" fill="#20261E"/>
<path d="M249.06 67.5214C248.763 67.744 248.402 67.5214 248.561 68.2051C248.943 68.5019 250.952 67.4843 251.392 67.1981C252.377 66.5568 252.976 65.1152 254.116 65.8254C254.524 64.4368 253.506 63.1277 253.814 61.49C251.657 59.9106 249.224 64.1135 252.261 65.1576C251.365 66.1699 250.125 66.7317 249.06 67.5214ZM252.006 63.0376V62.6454H253.061V63.7001H252.669L252.006 63.0376Z" fill="#20261E"/>
<path d="M164.907 67.0236C165.289 66.7745 166.349 67.0819 166.137 66.006C166.089 65.7569 165.739 65.5025 165.691 65.1474C165.585 64.3365 165.824 63.4673 165.384 62.6776C164.213 62.1211 162.485 63.9019 162.511 64.8983C162.533 65.8417 164.043 65.9371 163.831 66.4777L159.861 69.5252C162.013 69.6312 163.381 68.0094 164.912 67.0183L164.907 67.0236ZM163.831 64.7605V64.3683L164.229 63.9708C164.849 63.992 164.965 64.5008 164.886 65.0255L163.831 64.7605Z" fill="#20261E"/>
<path d="M276.625 62.3751C275.777 62.338 271.977 64.6382 274.304 64.4368C275.745 64.3149 279.153 62.6825 278.719 60.8169C276.026 59.7622 274.049 58.6439 273.186 62.3804C273.991 62.2903 274.219 61.5854 275.162 61.5801C275.369 61.5801 277.155 61.8239 276.625 62.3804V62.3751Z" fill="#20261E"/>
<path d="M284.93 67.6542L283.144 66.6366L282.047 68.4757L283.912 70.0339L285.232 68.4757L286.955 69.6788L288.227 68.0729L285.905 66.3557L284.93 67.6542Z" fill="#20261E"/>
<path d="M165.77 61.3628L166.481 62.9104C167.387 62.5341 167.074 60.8699 166.465 60.4088C163.958 58.5273 159.416 63.2867 160.592 66.0215C161.165 67.3518 162.235 66.9384 161.848 65.8413C161.764 65.6028 161.393 65.3484 161.292 65.0357C160.709 63.2019 163.91 60.7003 165.776 61.3628H165.77Z" fill="#20261E"/>
<path d="M62.2664 69.0002C62.966 68.8783 63.3052 68.0197 63.5967 68.0038C64.0896 67.9773 64.5348 69.0214 65.7273 67.9402C66.8774 66.8908 66.3209 64.4051 65.8545 64.7602C65.5365 65.5287 65.881 66.6629 64.927 66.8855C63.6815 67.177 64.6143 65.3856 63.4695 65.5552C63.8564 67.654 60.5916 68.767 61.6145 66.0905C60.8778 65.3485 59.3355 69.509 62.2664 69.0055V69.0002Z" fill="#20261E"/>
<path d="M211.876 67.9454C212.575 67.8235 212.915 66.9649 213.206 66.949C213.699 66.9225 214.144 67.9666 215.337 66.8854C216.487 65.836 215.93 63.3503 215.464 63.7054C215.146 64.4739 215.49 65.6081 214.536 65.8307C213.291 66.1222 214.224 64.3308 213.079 64.5004C213.466 66.5992 210.201 67.7122 211.224 65.0357C210.487 64.2937 208.945 68.4542 211.876 67.9507V67.9454Z" fill="#20261E"/>
<path d="M103.574 67.9454C104.274 67.8235 104.613 66.9649 104.904 66.949C105.397 66.9225 105.842 67.9666 107.035 66.8854C108.185 65.836 107.629 63.3503 107.162 63.7054C106.844 64.4739 107.189 65.6081 106.235 65.8307C104.989 66.1222 105.922 64.3308 104.777 64.5004C105.164 66.5992 101.899 67.7122 102.922 65.0357C102.185 64.2937 100.643 68.4542 103.574 67.9507V67.9454Z" fill="#20261E"/>
<path d="M49.4392 66.6206C49.2219 66.4086 44.0385 68.7936 43.8053 68.9897C43.4979 69.2441 42.8884 70.6486 43.0898 70.8553C45.2522 69.7264 48.7926 69.3819 49.4392 66.6206Z" fill="#20261E"/>
<path d="M237.971 71.3852C240.134 70.2563 243.674 69.9118 244.326 67.1505C244.109 66.9385 238.925 69.3235 238.692 69.5196C238.385 69.774 237.775 71.1785 237.977 71.3852H237.971Z" fill="#20261E"/>
<path d="M179.449 65.0305C179.232 64.8185 174.048 67.2035 173.815 67.3996C173.508 67.654 172.898 69.0585 173.1 69.2652C175.262 68.1363 178.802 67.7918 179.454 65.0305H179.449Z" fill="#20261E"/>
<path d="M193.218 52.5807C193.001 52.3687 187.818 54.7537 187.585 54.9498C187.277 55.2042 186.668 56.6087 186.869 56.8154C189.031 55.6865 192.572 55.342 193.218 52.5807Z" fill="#20261E"/>
<path d="M210.618 61.8348C210.31 62.0839 209.717 63.4725 209.902 63.7004C211.084 62.916 214.36 62.0786 215.277 61.3366C215.552 61.1087 216.098 59.577 215.987 59.4657C215.78 59.259 210.899 61.6016 210.618 61.8348Z" fill="#20261E"/>
<path d="M106.977 61.3366C107.258 61.1087 107.798 59.577 107.687 59.4657C107.48 59.259 102.599 61.6016 102.318 61.8348C102.011 62.0839 101.417 63.4725 101.603 63.7004C102.784 62.916 106.06 62.0786 106.977 61.3366Z" fill="#20261E"/>
<path d="M65.674 62.3966C65.9549 62.1687 66.4955 60.637 66.3842 60.5257C66.1775 60.319 61.2962 62.6616 61.0153 62.8948C60.7079 63.1439 60.1143 64.5325 60.2998 64.7604C61.4817 63.976 64.7571 63.1386 65.674 62.3966Z" fill="#20261E"/>
<path d="M16.2297 66.1331C15.1909 65.5395 14.2634 65.0731 13.2988 64.4954C12.8642 64.2357 11.8572 64.0502 11.7088 63.9018C11.2583 63.4566 11.6081 62.1369 9.77433 62.7623C8.89452 63.0591 9.17542 63.6527 8.92632 63.9018C8.84153 63.9866 7.25152 65.1102 7.07133 65.2268C6.74272 65.4388 5.46543 65.5713 4.74462 65.9476C-1.11188 69.0163 -1.37158 80.4325 3.00092 84.805C3.69522 85.4993 6.86462 87.349 7.84513 87.773C9.04292 88.2924 9.89092 88.4991 11.2265 88.3189C12.3607 88.1652 16.9293 85.6106 17.7455 84.7785C21.9802 80.4855 21.8159 69.3184 16.235 66.1437L16.2297 66.1331ZM19.5846 72.1804C18.3497 70.6752 16.6113 69.3343 14.5549 69.2654V68.4757L16.6749 68.7407C16.288 66.9705 12.8483 66.0165 11.9102 67.6754C15.0107 69.1753 10.0764 69.5993 11.041 67.2302C12.7953 62.9319 19.7754 68.958 19.5846 72.1804ZM7.94053 64.7657L9.79022 65.2957C8.88392 62.4867 11.8042 62.5715 10.8555 65.2957C11.4915 64.7763 12.4879 64.3311 12.9702 65.2957C11.7989 65.3381 10.935 65.7992 10.458 66.8857C9.83792 65.8946 9.48812 65.8151 8.52352 65.3699C8.14722 65.195 7.79742 65.5289 7.94583 64.771L7.94053 64.7657ZM5.05202 66.5094C6.83812 65.5925 9.40862 65.3275 9.79552 67.7973C9.38212 68.9474 8.45463 69.4827 7.67552 68.3379L8.73022 67.6701C9.59942 66.4087 3.93902 66.573 3.96552 68.7301C4.75522 68.64 5.68802 68.0411 6.34523 68.8626C5.16332 69.4509 4.06093 69.6841 2.93202 70.4738C2.20592 70.9826 1.77662 71.5921 1.06112 72.0426C1.79782 69.9067 2.93732 67.5906 5.05202 66.5041V66.5094ZM7.14023 69.5251C7.01303 68.8255 6.76923 68.0729 6.08022 67.8079L7.40523 67.4104C6.38763 70.071 9.21782 70.2194 10.5799 68.4651C11.2477 70.6911 14.4065 69.647 13.2352 67.4104C15.9117 67.3362 13.1027 68.4757 13.8765 69.5463C13.9878 69.7 16.659 70.4314 17.454 70.9985C22.2028 74.4064 19.6164 82.1179 13.7705 82.2451C13.5585 83.2362 13.9931 83.6655 14.5549 84.3545L13.2299 84.6195C14.3747 82.2769 11.5551 81.2487 10.4474 83.2998H10.0605C9.33972 81.2063 6.29753 82.5101 7.40523 84.6195L6.08022 84.3545L7.02362 82.4942C-1.35568 81.0367 -1.26558 70.6593 7.14023 69.5198V69.5251ZM1.05582 79.5951L3.08572 81.6674L6.35052 82.7751C6.35052 83.9676 4.60682 83.5595 3.97082 83.0401C3.26062 83.8934 8.47582 86.7713 8.73552 84.1001L7.67552 83.4376C10.458 81.9165 10.564 85.7908 7.68613 86.0982C4.36832 86.4533 1.67592 82.4783 1.05582 79.5951ZM7.67552 86.8773C8.51822 86.3738 9.90152 86.4003 10.0605 85.1601H10.5799L11.1152 86.0823L13.2299 87.0098C11.3696 87.7942 9.43513 88.144 7.67023 86.8773H7.67552ZM10.8449 83.9782C10.9403 82.9871 12.3766 82.6532 12.9702 83.4429L11.9102 84.1054C12.2229 86.6759 17.56 84.0206 16.6749 83.0454L15.2333 83.5913L14.5602 82.7857L17.56 81.678L19.5899 79.6057C19.4839 83.3952 12.8642 89.4213 10.8502 83.9835L10.8449 83.9782Z" fill="#20261E"/>
<path d="M10.7778 77.4165C10.4757 76.2664 9.82378 75.4184 9.52698 74.3001L11.9067 74.0298L12.177 72.4451C6.37349 71.1201 9.24079 77.0985 10.7248 79.8545C11.4456 80.2255 10.8467 77.6656 10.7778 77.4112V77.4165Z" fill="#20261E"/>
<path d="M137.617 72.1802C136.923 73.8338 138.089 74.5016 138.614 75.816C139.128 77.0986 139.239 78.1427 139.477 79.4624C139.536 79.791 139.605 80.3581 139.997 79.8652C140.336 78.3441 140.108 76.7965 139.658 75.3072C139.573 75.021 138.237 71.5654 137.617 72.1855V72.1802Z" fill="#20261E"/>
</svg>
