<svg preserveAspectRatio="none" width="100%" height="100%" overflow="visible" style="display: block;" viewBox="0 0 299.808 94.5152" fill="none" xmlns="http://www.w3.org/2000/svg">
<g id="Layer_1">
<path id="Vector" d="M259.292 15.301C259.355 14.877 259.827 14.506 259.774 13.9283C259.716 13.3294 258.348 12.3171 258.438 11.4002L256.954 13.6474C257.516 14.4583 257.675 15.4176 257.834 16.3769C258.454 20.1452 258.794 23.993 259.202 27.7878C255.481 29.1181 251.453 28.4609 247.584 28.6093C249.619 25.7579 248.936 18.3856 245.247 24.2898C244.431 25.5989 243.916 27.1094 243.609 28.6146H239.374C241.537 22.8588 237.668 22.8323 233.152 23.0549C230.354 23.1927 227.497 23.7598 224.688 23.8605C223.05 23.9188 216.828 24.099 215.805 23.1821C215.1 22.668 216.59 21.5444 217.04 21.2423C218.413 20.3148 221.582 19.6576 222.414 18.9368C222.754 18.6453 223.761 16.9016 222.817 16.9546C221.068 17.05 216.902 19.3714 215.657 20.6593C214.904 21.4384 213.367 24.1626 213.987 25.1378C214.66 26.1925 224.084 26.0547 225.743 25.9805C228.308 25.8692 231.128 25.2703 233.677 25.1802C235.611 25.106 238.108 24.6396 238.574 27.0299C233.258 27.8143 227.916 28.127 222.557 28.3602C219.483 28.4927 211.719 29.346 209.26 27.8832C207.41 26.7808 207.802 25.212 205.232 26.6589C203.583 27.5864 201.633 29.2347 201.304 31.201C200.96 33.2256 202.2 39.31 202.608 41.6897C202.682 42.1243 202.847 43.9846 203.228 43.9793C203.716 43.6613 203.599 43.2797 203.636 42.808C203.896 39.4796 202.518 35.5841 202.301 32.2239L203.795 30.2417C205.401 31.1851 207.235 31.996 209.148 31.7681L209.615 30.7293C210.224 30.8883 210.786 31.0155 211.422 31.0261C220.369 31.1745 229.479 30.406 238.309 29.1552C238.129 31.6303 240.752 30.6975 242.104 31.0155C242.189 31.0367 242.602 31.9377 243.588 31.5667C243.742 33.6655 245.814 36.4533 248.125 35.9445C250.033 35.5205 250.473 32.314 249.174 31.0155C251.559 30.8141 257.357 31.5084 259.228 30.0774C261.931 28.0157 258.799 18.6294 259.292 15.3116V15.301ZM205.216 28.0899C205.942 27.3055 207.818 28.2648 207.861 29.4096C207.633 29.187 204.585 28.763 205.216 28.0899ZM247.308 24.6449C248.305 26.8232 246.307 27.5652 244.669 28.3496C244.431 28.0528 246.307 23.9559 247.308 24.6449ZM244.934 31.2646C245.565 31.4872 248.845 32.2663 248.639 33.2468C247.245 34.4817 245.167 32.8016 244.934 31.2646Z" fill="#20261E"/>
<path id="Vector_2" d="M220.835 76.8235C218.964 76.9772 217.315 76.691 215.535 76.161C212.212 75.1699 206.89 70.9564 205.74 76.8182C206.408 76.8076 206.933 76.2511 207.585 76.1292C208.57 75.9437 211.364 76.7705 212.286 77.2899C212.583 77.4542 212.736 77.2687 212.625 77.8782C209.864 78.6043 205.618 80.0512 202.905 78.7315C201.315 77.9577 200.652 74.9102 198.336 76.4366C197.727 76.8394 197.515 77.5708 197.016 78.0266C195.262 79.6378 190.853 79.2668 188.589 79.0336L187.074 76.8288C184.948 79.4523 188.34 81.8532 187.731 84.8954C187.498 86.0561 184.429 87.3864 183.305 87.6196C179.505 88.404 176.119 87.2592 176.649 82.8125C176.755 81.938 177.152 81.3444 177.359 80.6077C177.47 80.2155 177.565 79.8975 177.02 80.0035C173.092 85.7275 176.097 91.5734 183.305 89.9993C187.561 89.0665 189.708 85.8812 188.801 81.5935C191.833 81.6677 194.568 81.832 197.128 79.9876C197.668 81.196 201.055 82.6217 202.041 81.991C202.306 81.8214 202.375 81.1907 202.725 81.1006C202.952 81.0423 204.442 81.5723 205.078 81.6041C210.272 81.8532 214.443 77.8252 219.6 79.2244L220.84 76.8235H220.835ZM200.711 79.4682C200.143 79.4311 198.008 78.7633 198.447 77.8782C199.227 76.3147 200.901 79.288 200.711 79.4682Z" fill="#20261E"/>
<path id="Vector_3" d="M146.248 79.2244L147.488 76.8235C145.617 76.9772 143.969 76.691 142.188 76.161C138.865 75.1699 133.544 70.9564 132.394 76.8182C133.062 76.8076 133.586 76.2511 134.238 76.1292C135.224 75.9437 138.017 76.7705 138.939 77.2899C139.236 77.4542 139.39 77.2687 139.279 77.8782C136.581 78.6308 133.793 79.4947 130.942 79.2032C129.156 79.0177 127.857 78.2916 128.154 76.2935C127.369 76.1663 127.444 77.0832 127.094 77.486C125.228 79.6272 122.022 79.8551 119.695 78.2651C118.656 77.5496 118.386 76.2564 116.844 76.7546C115.1 77.3164 112.386 79.8922 112.063 81.7843C111.501 85.0862 113.658 90.7678 113.717 94.3082C113.934 94.711 114.263 94.4566 114.347 94.1333C115.079 91.3402 113.097 85.8388 113.059 82.8019L114.554 80.8197C116.128 81.7631 117.877 82.4839 119.769 82.3938L120.225 81.3285C122.642 81.8267 125.901 81.9486 127.226 79.4682C128.901 82.5051 133.295 81.673 136.152 80.9787C139.554 80.1572 142.496 77.9895 146.243 79.2191L146.248 79.2244ZM115.98 78.6785C116.706 77.8941 118.582 78.8534 118.624 79.9982C118.397 79.7756 115.349 79.3516 115.98 78.6785Z" fill="#20261E"/>
<path id="Vector_4" d="M16.7109 19.631C16.0643 20.6062 16.6844 21.8093 16.6102 22.6202C16.4883 23.8975 14.4213 26.0493 15.5131 28.1004C14.3312 28.8636 12.8896 28.5668 11.5646 28.6251C10.6424 25.3656 8.0984 23.3622 6.4289 27.4909C5.2417 30.4218 7.5048 31.2804 10.0647 30.9995C9.0895 35.7059 4.4732 37.598 0 37.3542V38.1492C3.869 38.7057 7.6638 39.506 9.9004 35.4727C10.706 34.0205 10.7431 32.3192 11.554 31.0366C13.1705 31.0684 14.6015 30.9836 16.0696 30.2575C16.6579 29.966 17.702 28.9272 18.1207 28.906C19.4351 28.8265 21.9314 30.3423 23.5691 29.5526C24.7298 28.9908 24.857 26.0599 24.4277 24.984C23.8765 23.6166 17.7868 18.9049 16.7109 19.6416V19.631ZM7.42 28.2223C8.2203 27.0722 8.9835 27.6234 9.5347 28.6145C9.2379 28.4979 7.1285 28.959 7.42 28.2223ZM17.4105 26.4415C15.317 25.991 17.2621 23.6749 18.1419 23.6696C19.504 23.6696 20.7071 27.1517 17.4105 26.4415ZM20.3891 27.0245C20.6435 26.362 20.5958 25.7207 20.6647 25.0423C20.6912 24.8144 20.4898 24.1413 21.0516 24.3798C21.2106 24.4487 22.7264 25.7366 22.9172 25.9592C24.8146 28.1799 21.783 27.528 20.3944 27.0245H20.3891Z" fill="#20261E"/>
<path id="Vector_5" d="M99.1209 65.2108C98.0821 64.6172 97.1546 64.1508 96.19 63.5678C95.7554 63.3081 94.7484 63.1226 94.6 62.9742C94.1495 62.529 94.4993 61.2093 92.6655 61.8347C91.7857 62.1315 92.0666 62.7251 91.8175 62.9742C91.7327 63.059 90.1427 64.1826 89.9625 64.2992C89.6339 64.5112 88.3566 64.6437 87.6358 65.02C81.7793 68.0887 81.5196 79.5102 85.8921 83.8774C86.5864 84.5717 89.7558 86.4214 90.7363 86.8454C91.9341 87.3648 92.7821 87.5715 94.1177 87.3913C95.2519 87.2376 99.8205 84.683 100.637 83.8509C104.871 79.5579 104.707 68.3908 99.1262 65.2161L99.1209 65.2108ZM90.8264 63.8434L92.6761 64.3734C91.7698 61.5644 94.6901 61.6492 93.7414 64.3734C94.3774 63.854 95.3738 63.4088 95.8561 64.3734C94.6848 64.4158 93.8209 64.8769 93.3439 65.9634C92.7238 64.9723 92.374 64.8928 91.4094 64.4476C91.0331 64.2727 90.6833 64.6066 90.8317 63.8487L90.8264 63.8434ZM87.9379 65.5924C89.724 64.6755 92.2945 64.4105 92.6814 66.8803C92.268 68.0304 91.3405 68.5657 90.5614 67.4209L91.6161 66.7531C92.4853 65.4917 86.8249 65.656 86.8514 67.8131C87.6411 67.723 88.5739 67.1241 89.2311 67.9456C88.0492 68.5339 86.9468 68.7671 85.8179 69.5568C85.0918 70.0656 84.6625 70.6751 83.947 71.1256C84.6837 68.9897 85.8232 66.6736 87.9379 65.5871V65.5924ZM83.9417 78.6781L85.9716 80.7504L89.2364 81.8581C89.2364 83.0506 87.4927 82.6425 86.8567 82.1231C86.1465 82.9764 91.3617 85.8543 91.6214 83.1831L90.5614 82.5206C93.3439 80.9995 93.4499 84.8738 90.5773 85.1812C87.2595 85.5363 84.5671 81.5613 83.947 78.6781H83.9417ZM90.5614 85.9603C91.4041 85.4568 92.7874 85.4833 92.9464 84.2431H93.4658L94.0011 85.1653L96.1158 86.0928C94.2555 86.8772 92.321 87.227 90.5561 85.9603H90.5614ZM93.7308 83.0559C93.8262 82.0648 95.2625 81.7309 95.8561 82.5206L94.7961 83.1831C95.1088 85.7536 100.446 83.0983 99.5608 82.1231L98.1192 82.669L97.4461 81.8634L100.446 80.7557L102.476 78.6834C102.37 82.4729 95.7501 88.499 93.7361 83.0612L93.7308 83.0559ZM96.6564 81.3334C96.4444 82.3245 96.879 82.7538 97.4408 83.4428L96.1158 83.7078C97.2606 81.3652 94.441 80.337 93.3333 82.3881H92.9464C92.2256 80.2946 89.1834 81.5984 90.2911 83.7078L88.9661 83.4428L89.9095 81.5825C81.5302 80.125 81.6203 69.7476 90.0261 68.6081C89.8989 67.9085 89.6551 67.1559 88.9661 66.8909L90.2911 66.4934C89.2735 69.154 92.1037 69.3024 93.4658 67.5481C94.1336 69.7741 97.2924 68.73 96.1211 66.4934C98.7976 66.4192 95.9833 67.5587 96.7624 68.6293C96.8737 68.783 99.5449 69.5144 100.34 70.0815C105.089 73.4894 102.502 81.2009 96.6564 81.3281V81.3334ZM97.4408 68.3431V67.5534L99.5608 67.8184C99.1739 66.0482 95.7342 65.0942 94.7961 66.7531C97.8966 68.253 92.9623 68.677 93.9269 66.3079C95.6812 62.0096 102.661 68.0357 102.47 71.2581C101.236 69.7529 99.4972 68.412 97.4408 68.3431Z" fill="#20261E"/>
<path id="Vector_6" d="M125.774 19.8747C125.133 19.7899 125.355 19.8747 125.217 20.2404C124.391 22.4611 125.912 24.4009 126.012 26.5792C124.332 27.9042 120.84 29.3352 119.287 27.2894C116.976 31.8156 123.384 31.1054 125.519 29.2769C126.055 28.8211 126.261 28.1586 126.834 27.8141C127.682 31.5983 131.535 31.2326 134.609 30.6867C138.483 30.003 141.859 27.3265 145.983 28.625L147.218 26.611C147.292 26.081 147.202 26.2718 146.831 26.2241C144.907 25.975 143.767 26.1393 141.722 25.5033C140.047 24.9839 136.708 22.9964 135.203 23.06C133.782 23.1183 131.89 24.6712 132.134 26.2241C132.802 26.2135 133.326 25.657 133.978 25.5351C134.964 25.3496 137.757 26.1764 138.679 26.6958C138.976 26.8601 139.13 26.6746 139.019 27.2841C136.268 27.9996 131.254 29.7221 128.827 27.8141C126.903 26.3036 126.526 22.1272 125.779 19.8694L125.774 19.8747Z" fill="#20261E"/>
<path id="Vector_7" d="M73.7657 87.9213C72.2552 85.8596 71.0892 83.5329 70.432 81.0578L72.0167 80.39L69.9073 77.74C71.015 76.9503 72.6103 79.6851 73.347 79.1975C73.6438 78.6092 73.4742 77.5492 73.7498 77.0828C73.9565 76.7277 74.9158 76.5687 75.0854 75.779C75.2709 74.9151 74.0678 74.6819 73.7604 74.1572C73.4159 73.5742 73.612 72.546 72.9495 72.0478C72.2711 71.9047 70.8136 74.1996 69.9073 73.7703C70.2571 72.0425 73.188 71.0991 70.4903 70.0762C70.9779 68.0675 71.5927 66.1489 72.711 64.3893C73.0714 63.8169 75.3875 61.3736 74.937 60.9231C71.0468 62.0202 68.9056 66.6471 67.464 70.1292L64.6126 70.7228C64.0932 71.486 66.7061 72.8958 66.4623 73.8975C65.1744 73.8975 64.4748 72.5778 63.4148 72.0531C62.6569 72.5195 62.9643 73.9081 62.6887 74.3692C62.4979 74.6872 61.316 74.7985 61.4167 75.8744C61.4962 76.733 62.5297 76.8602 62.7682 77.263C63.0173 77.6923 63.1392 79.3618 63.2823 79.4625C64.6815 79.4466 65.079 77.5333 66.457 77.6128L64.6073 80.7875L67.5117 81.4553C69.2713 84.9003 71.3754 89.1032 75.3239 90.3275C75.7373 89.3629 74.2957 88.6474 73.7604 87.916L73.7657 87.9213ZM70.9673 74.4434L72.817 73.3781C72.5626 75.09 72.9548 74.825 74.1367 75.6306C73.9247 76.0599 73.1297 76.2613 72.9495 76.5581C72.2764 77.6764 73.6173 78.8159 70.9673 76.6906L71.7835 75.9009C71.7888 74.7455 70.803 75.3179 70.9673 74.4434ZM63.9501 78.1375C63.2664 77.0616 63.7964 76.2772 62.2329 75.8903C63.2452 75.09 63.8335 74.8674 63.5579 73.3728L65.4076 74.5706V74.9522C63.9395 75.2861 64.708 76.2772 65.6779 76.68L63.9554 78.1322L63.9501 78.1375ZM69.3667 76.945C67.6972 78.3866 65.5878 75.9009 67.0612 74.507C68.5717 73.076 71.0521 75.4928 69.3667 76.945ZM65.9376 70.9931L68.0205 70.956C68.9586 68.1523 70.1935 65.3168 72.4301 63.3134C71.0574 65.6719 69.9179 68.2159 69.6529 70.9825H70.4373C70.7977 71.3535 69.5469 72.8587 68.9851 72.8481L68.1848 72.0478L67.517 72.8428H66.9976L65.9323 70.9931H65.9376ZM70.485 85.3826C69.8437 84.4445 68.4922 81.0843 68.1954 80.7822C67.6654 80.2469 66.6796 80.8405 66.2026 80.125L67.0029 78.6728H67.5223L68.1901 79.4678L69.2448 78.6728L70.4373 80.1303L69.6423 80.5225C70.0451 83.252 71.3966 85.5681 72.6898 87.9319C71.9478 87.1687 71.0786 86.2465 70.485 85.372V85.3826Z" fill="#20261E"/>
<path id="Vector_8" d="M298.443 23.1608C298.045 22.5195 298.363 21.698 297.749 21.1998L294.712 23.0548C294.489 22.1114 296.699 20.4207 296.445 19.8748C296.005 18.9208 294.251 19.6416 293.636 19.2282C293.487 19.1275 292.417 16.5358 292.104 15.9952C290.88 13.8911 288.256 10.5362 285.707 10.3454C285.463 11.3259 286.316 11.3471 286.672 11.7605C288.511 13.9017 289.984 16.4828 290.673 19.2335C290.567 19.8165 288.866 19.6151 289.147 20.2776C289.438 20.9613 291.245 21.8358 291.267 22.9276C289.936 23.7226 288.32 19.7847 287.615 21.9312C287.249 23.0548 287.747 23.447 286.269 24.3003C285.802 25.6624 286.995 25.6783 287.408 26.2613C287.885 26.9291 287.61 28.1216 288.484 28.6251C289.306 27.8566 290.042 26.7701 291.267 26.6482C291.139 28.3601 287.785 29.5738 290.731 30.2363C290.323 32.1602 289.751 34.0682 288.728 35.7642C288.288 36.4903 285.702 39.1615 286.237 39.7604C289.03 38.7905 291.277 35.5946 292.634 33.0559C292.957 32.4517 293.328 30.7928 293.752 30.4695C294.319 30.0402 296.318 30.3105 296.551 29.5473C296.821 28.6728 294.537 27.6393 294.706 26.521L297.749 28.3707C298.575 27.1623 298.215 26.0758 299.704 25.2808C300.187 23.8816 298.851 23.8445 298.443 23.182V23.1608ZM288.357 27.0245C288.346 26.6005 288.452 26.0758 288.23 25.6942C287.965 25.2437 286.767 25.3285 287.032 24.7773C287.286 24.2473 288.892 24.0353 288.357 22.5248L290.207 23.5901L289.401 24.7773L290.466 25.9645L288.352 27.0245H288.357ZM290.477 20.2723L291.272 20.0073C291.516 19.8589 291.5 19.79 291.489 19.5409C291.415 17.67 289.544 14.3522 288.357 12.8576L288.882 12.7304C289.83 14.2356 290.991 15.4334 291.85 17.0499C292.851 18.9473 292.396 20.691 295.242 20.1451L294.176 21.7298C292.947 21.1574 292.851 20.9772 291.802 21.9948L290.477 20.2723ZM291.648 25.7207C290.71 24.5494 291.707 23.1714 292.989 23.1714C296.302 23.1608 293.832 28.4502 291.648 25.7207ZM295.242 29.4095L293.153 29.4413C292.284 32.3298 290.874 35.2819 288.622 37.3542C289.051 36.2094 289.852 35.3402 290.334 34.1689C290.625 33.464 291.712 30.0985 291.41 29.6639C291.251 29.4307 290.662 29.4837 290.737 29.277L291.797 27.5545L292.984 28.3601L294.171 27.5545L295.231 29.4095H295.242ZM297.754 25.6995C297.478 26.2454 297.934 27.157 297.224 27.0298L295.507 25.9645L296.583 24.772L295.507 23.5848L297.621 22.5248C297.335 23.8975 298.114 24.0141 298.941 24.7773C298.671 25.1589 297.945 25.3126 297.749 25.6995H297.754Z" fill="#20261E"/>
<path id="Vector_9" d="M186.538 29.6694C188.346 27.3003 186.242 19.875 186.136 16.8381C186.093 15.6191 186.74 14.4478 186.687 13.9231C186.629 13.3189 185.261 12.3119 185.351 11.395L183.867 13.6422C184.429 14.4531 184.588 15.4124 184.747 16.3717C185.367 20.14 185.706 23.9878 186.114 27.7826C183.316 28.567 176.468 29.9185 175.011 26.6378C174.47 25.4188 173.707 19.5941 173.437 19.3397C173.018 18.9422 172.986 19.4298 172.88 19.7054C172.631 20.3732 172.695 22.1116 172.605 22.2123C172.462 22.3766 170.58 23.0073 169.737 23.9772C165.858 28.4345 170.532 30.2789 173.702 26.7544C174.062 28.62 175.027 30.5545 177.078 30.9308C178.864 31.2541 185.431 31.1216 186.544 29.6641L186.538 29.6694ZM169.997 26.2297C169.573 25.1379 172.737 23.3942 173.172 23.8447L173.193 25.5672C172.202 26.1396 171.137 26.3304 169.997 26.2297Z" fill="#20261E"/>
<path id="Vector_10" d="M80.2418 13.9231C80.1835 13.3189 78.8161 12.3119 78.9062 11.395L77.4222 13.6422C77.984 14.4531 78.143 15.4124 78.302 16.3717C78.9221 20.14 79.2613 23.9878 79.6694 27.7826C76.8975 28.567 70.2831 29.9079 68.8256 26.6378C68.285 25.4188 67.5218 19.5941 67.2515 19.3397C66.8328 18.9422 66.801 19.4298 66.695 19.7054C66.4459 20.3732 66.5095 22.1116 66.4194 22.2123C66.2763 22.3766 64.3948 23.0073 63.5521 23.9772C59.6725 28.4345 64.3471 30.2789 67.5165 26.7544C67.8769 28.62 68.8415 30.5545 70.8926 30.9308C72.6522 31.2488 78.9963 31.1004 80.0934 29.6641C81.9007 27.295 79.7966 19.8697 79.6906 16.8328C79.6482 15.6138 80.2948 14.4425 80.2418 13.9178V13.9231ZM63.8171 26.2297C63.3931 25.1379 66.5572 23.3942 66.9918 23.8447L67.013 25.5672C66.0219 26.1396 64.9566 26.3304 63.8171 26.2297Z" fill="#20261E"/>
<path id="Vector_11" d="M44.5779 12.3277C45.9612 15.9688 45.1821 20.1293 44.4825 23.8446L39.5906 17.2196C38.8751 16.6737 34.6351 11.7341 33.8931 12.4549C33.4638 14.7869 33.1829 16.4935 35.8753 17.2461C36.4901 17.4157 36.9035 17.1136 37.4706 17.4634C38.096 17.845 39.6648 19.8431 40.2372 20.5374C40.7831 21.2052 43.5391 24.8622 43.6398 25.3604C43.8253 26.2508 41.7636 28.7365 41.0163 29.2506C40.6771 29.4838 39.8556 29.5633 39.7549 29.7117C39.4952 30.0986 39.2567 31.6356 40.1153 31.7893C40.6453 31.8847 44.8959 31.413 45.357 31.2063C45.8817 30.9731 46.3269 29.081 46.311 28.5033C46.2792 27.2737 45.1927 26.0441 45.2828 24.7986C45.357 23.7969 46.1096 22.0161 46.2951 20.76C46.5707 18.9262 46.3057 16.2179 46.6502 14.7604C46.7774 14.2304 47.3922 13.8117 47.3922 13.3824C47.3922 13.1174 46.0672 10.9391 45.9347 10.3402L44.5726 12.3224L44.5779 12.3277ZM45.2775 29.1446L42.6328 29.4096L44.2228 26.7649C44.5302 26.5582 45.4789 28.9644 45.2775 29.1446Z" fill="#20261E"/>
<path id="Vector_12" d="M106.805 12.3277C108.189 15.9688 107.41 20.1293 106.71 23.8446L101.818 17.2196C101.103 16.6737 96.8625 11.7341 96.1205 12.4549C95.6912 14.7869 95.4103 16.4935 98.1027 17.2461C98.7175 17.4157 99.1309 17.1136 99.698 17.4634C100.323 17.845 101.892 19.8431 102.465 20.5374C103.011 21.2052 105.767 24.8622 105.867 25.3604C106.053 26.2508 103.991 28.7365 103.244 29.2506C102.905 29.4838 102.083 29.5633 101.982 29.7117C101.723 30.0986 101.484 31.6356 102.343 31.7893C102.873 31.8847 107.123 31.413 107.584 31.2063C108.109 30.9731 108.554 29.081 108.538 28.5033C108.507 27.2737 107.42 26.0441 107.51 24.7986C107.584 23.7969 108.337 22.0161 108.523 20.76C108.798 18.9262 108.533 16.2179 108.878 14.7604C109.005 14.2304 109.62 13.8117 109.62 13.3824C109.62 13.1174 108.295 10.9391 108.162 10.3402L106.8 12.3224L106.805 12.3277ZM107.505 29.1446L104.86 29.4096L106.45 26.7649C106.758 26.5582 107.706 28.9644 107.505 29.1446Z" fill="#20261E"/>
<path id="Vector_13" d="M160.166 65.0734L158.475 62.2538C156.763 64.0611 157.706 64.6229 158.003 66.4302C158.65 70.3946 159.111 74.4173 159.545 78.4082C157.823 80.0035 154.659 79.2774 153.175 77.6185C152.136 79.0442 152.337 80.4169 154.055 81.1059L154.129 81.4504C153.44 84.3018 151.304 86.1621 148.611 87.0843L143.783 88.0754C149.147 90.9056 154.929 87.662 155.168 81.5882C156.408 81.5352 158.586 81.8214 159.593 80.9787C161.289 79.5583 160.627 75.525 160.431 73.5428C160.16 70.8239 158.856 67.4584 160.166 65.0734Z" fill="#20261E"/>
<path id="Vector_14" d="M233.778 65.0734L232.087 62.2538C230.375 64.0611 231.318 64.6229 231.615 66.4302C232.262 70.3946 232.723 74.4173 233.157 78.4082C231.435 80.0035 228.271 79.2774 226.787 77.6185C225.748 79.0442 225.949 80.4169 227.667 81.1059L227.741 81.4504C227.052 84.3018 224.916 86.1621 222.224 87.0843L217.395 88.0754C222.759 90.9056 228.541 87.662 228.78 81.5882C230.02 81.5352 232.198 81.8214 233.205 80.9787C234.901 79.5583 234.239 75.525 234.043 73.5428C233.772 70.8239 232.468 67.4584 233.778 65.0734Z" fill="#20261E"/>
<path id="Vector_15" d="M155.878 37.4018C159.079 35.7482 161.114 29.5578 160.07 26.2241C158.051 19.7846 153.217 27.936 156.424 29.6161C157.966 30.427 159.106 28.572 159.402 28.8794C158.39 33.978 153.477 37.5661 148.283 37.0891V37.8841C151.087 38.2445 153.228 38.7745 155.878 37.4018ZM156.509 26.8972C156.657 26.7329 156.684 26.4308 156.821 26.2983C157.537 25.6146 158.115 26.3142 158.602 26.8919C157.94 27.671 157.145 27.6763 156.509 26.8919V26.8972Z" fill="#20261E"/>
<path id="Vector_16" d="M274.195 29.8125C275.16 29.7754 275.356 28.9751 276.177 28.885C275.679 32.4466 271.837 36.464 268.302 37.0311C267.756 37.1212 265.312 36.9198 265.323 37.4922C267.077 38.7377 270.098 38.7006 272.038 37.8579C275.907 36.1884 278.806 28.0317 276.05 24.6344C273.167 21.0834 270.04 29.9662 274.19 29.8178L274.195 29.8125ZM273.268 26.8922L274.227 25.9859L275.377 26.8922C274.709 27.6713 273.941 27.6766 273.268 26.8922Z" fill="#20261E"/>
<path id="Vector_17" d="M119.303 9.0259C120.029 8.9941 125.001 8.5118 125.25 8.3528C125.409 8.2521 125.822 7.4571 125.78 7.4253C122.685 7.2133 119.579 8.3899 116.515 7.685C116.235 7.3776 118.36 5.8989 118.492 5.8989C118.598 5.8989 119.028 6.3547 119.558 6.3918C120.618 6.4713 120.872 5.6604 121.142 5.6339C121.328 5.618 121.794 6.042 122.218 6.0791C124.545 6.3017 127.582 5.5968 126.718 2.6394C124.619 1.2455 123.384 3.3284 122.208 4.7647L121.02 3.975C121.068 4.823 119.78 5.3742 119.197 4.9979C118.784 4.7329 118.233 0.742 118.37 0L117.57 0.6625L118.063 4.8495C114.862 7.4889 114.353 9.2273 119.309 9.0206L119.303 9.0259ZM126.04 4.2453L123.13 5.0403C123.268 3.6888 125.716 2.5334 126.04 4.2453Z" fill="#20261E"/>
<path id="Vector_18" d="M164.968 63.0488C164.687 64.1035 164.04 64.8879 164.003 66.0486C163.908 68.8947 164.909 73.3997 165.227 76.426C165.386 77.9259 165.312 79.7332 165.492 81.196C165.535 81.567 165.646 81.9645 166.017 81.5882C167.374 76.691 165.985 71.3433 165.492 66.356C165.392 65.3119 165.911 63.6371 164.962 63.0488H164.968Z" fill="#20261E"/>
<path id="Vector_19" d="M238.58 63.0488C238.299 64.1035 237.652 64.8879 237.615 66.0486C237.52 68.8947 238.521 73.3997 238.839 76.426C238.998 77.9259 238.924 79.7332 239.104 81.196C239.147 81.567 239.258 81.9645 239.629 81.5882C240.986 76.691 239.597 71.3433 239.104 66.356C239.004 65.3119 239.523 63.6371 238.574 63.0488H238.58Z" fill="#20261E"/>
<path id="Vector_20" d="M264.788 28.6146C266.07 24.3004 264.867 19.6417 264.528 15.2374C264.486 14.6597 264.761 11.379 264.13 11.4055L262.938 14.1774C263.675 18.8202 263.717 23.5637 264.263 28.2224C264.305 28.5934 264.422 28.9856 264.793 28.6146H264.788Z" fill="#20261E"/>
<path id="Vector_21" d="M191.707 27.1625C191.802 27.9946 191.389 29.0546 192.104 29.6694C192.931 29.6588 192.814 25.2121 192.777 24.4966C192.56 20.4845 191.193 16.5095 191.442 12.455C190.255 12.5928 190.08 14.5697 190.101 15.5025C190.186 19.0588 191.293 23.4949 191.707 27.1519V27.1625Z" fill="#20261E"/>
<path id="Vector_22" d="M85.2616 27.1625C85.357 27.9946 84.9436 29.0546 85.6591 29.6694C86.4859 29.6588 86.3693 25.2121 86.3322 24.4966C86.1149 20.4845 84.7475 16.5095 84.9966 12.455C83.8094 12.5928 83.6345 14.5697 83.6557 15.5025C83.7405 19.0588 84.8482 23.4949 85.2616 27.1519V27.1625Z" fill="#20261E"/>
<path id="Vector_23" d="M52.1625 27.1625C52.2579 27.9946 51.8445 29.0546 52.56 29.6694C53.3868 29.6588 53.2702 25.2121 53.2331 24.4966C53.0158 20.4845 51.6484 16.5095 51.8975 12.455C50.7103 12.5928 50.5354 14.5697 50.5566 15.5025C50.6414 19.0588 51.7491 23.4949 52.1625 27.1519V27.1625Z" fill="#20261E"/>
<path id="Vector_24" d="M238.664 59.5823C238.118 59.7519 237.471 59.1477 236.989 59.4551C236.475 60.3031 235.85 61.2094 235.934 62.2535C237.519 60.1229 237.402 61.5698 239.231 61.4691C241.33 61.3525 244.186 58.6919 242.427 56.9482C240.847 55.3847 239.295 59.3809 238.669 59.577L238.664 59.5823ZM239.634 59.8685C239.655 58.941 241.754 57.4941 242.013 58.6813C242.162 59.3703 240.143 59.9109 239.634 59.8685Z" fill="#20261E"/>
<path id="Vector_25" d="M165.053 59.5823C164.507 59.7519 163.86 59.1477 163.378 59.4551C162.864 60.3031 162.239 61.2094 162.323 62.2535C163.908 60.1229 163.791 61.5698 165.62 61.4691C167.719 61.3525 170.575 58.6919 168.816 56.9482C167.236 55.3847 165.684 59.3809 165.053 59.577V59.5823ZM166.023 59.8685C166.044 58.941 168.143 57.4941 168.402 58.6813C168.551 59.3703 166.532 59.9109 166.023 59.8685Z" fill="#20261E"/>
<path id="Vector_26" d="M245.644 17.8076C246.63 17.1663 247.229 15.7247 248.369 16.4349C248.777 15.0463 247.759 13.7372 248.066 12.0995C245.909 10.5201 243.477 14.723 246.514 15.7671C245.618 16.7794 244.378 17.3412 243.312 18.1309C243.016 18.3535 242.655 18.1309 242.814 18.8146C243.196 19.1114 245.204 18.0938 245.644 17.8076ZM246.259 13.6471V13.2549H247.314V14.3096H246.922L246.259 13.6471Z" fill="#20261E"/>
<path id="Vector_27" d="M115.9 69.4562C116.886 68.8149 117.485 67.3733 118.624 68.0835C119.032 66.6949 118.015 65.3858 118.322 63.7481C116.165 62.1687 113.732 66.3716 116.769 67.4157C115.873 68.428 114.633 68.9898 113.568 69.7795C113.271 70.0021 112.911 69.7795 113.07 70.4632C113.451 70.76 115.46 69.7424 115.9 69.4562ZM116.509 65.2957V64.9035H117.564V65.9582H117.172L116.509 65.2957Z" fill="#20261E"/>
<path id="Vector_28" d="M179.5 69.7795C179.203 70.0021 178.843 69.7795 179.002 70.4632C179.384 70.76 181.392 69.7424 181.832 69.4562C182.818 68.8149 183.417 67.3733 184.556 68.0835C184.964 66.6949 183.947 65.3858 184.254 63.7481C182.097 62.1687 179.664 66.3716 182.701 67.4157C181.806 68.428 180.565 68.9898 179.5 69.7795ZM182.442 65.2957V64.9035H183.496V65.9582H183.104L182.442 65.2957Z" fill="#20261E"/>
<path id="Vector_29" d="M218.636 15.6876C219.622 15.0463 220.221 13.6047 221.36 14.3149C221.768 12.9263 220.751 11.6172 221.058 9.97946C218.901 8.40006 216.468 12.603 219.505 13.6471C218.61 14.6594 217.369 15.2212 216.304 16.0109C216.007 16.2335 215.647 16.0109 215.806 16.6946C216.187 16.9914 218.196 15.9738 218.636 15.6876ZM219.251 11.5271V11.1349H220.306V12.1896H219.913L219.251 11.5271Z" fill="#20261E"/>
<path id="Vector_30" d="M17.3996 15.6876C18.3854 15.0463 18.9843 13.6047 20.1238 14.3149C20.5319 12.9263 19.5143 11.6172 19.8217 9.97946C17.6646 8.40006 15.2319 12.603 18.2688 13.6471C17.3731 14.6594 16.1329 15.2212 15.0676 16.0109C14.7708 16.2335 14.4104 16.0109 14.5694 16.6946C14.951 16.9914 16.9597 15.9738 17.3996 15.6876ZM18.0091 11.5271V11.1349H19.0638V12.1896H18.6716L18.0091 11.5271Z" fill="#20261E"/>
<path id="Vector_31" d="M49.7827 36.2941C49.9576 36.4584 52.703 35.2553 53.2118 35.0963C54.0492 34.8313 55.4802 35.2076 55.4961 33.9356C55.5067 33.0611 54.7965 33.6865 54.1658 33.6653C53.0316 33.6335 51.6695 33.8614 51.6377 32.3244C52.4221 32.2767 53.1747 32.1707 53.233 33.1194C53.4662 33.3049 54.7223 31.8474 53.5934 31.01C52.6818 30.3369 50.4611 31.9057 50.3286 32.9869L51.1077 34.6988C50.3498 34.7889 49.8145 35.5468 49.788 36.2941H49.7827Z" fill="#20261E"/>
<path id="Vector_32" d="M82.8819 36.2941C83.0568 36.4584 85.8022 35.2553 86.311 35.0963C87.1484 34.8313 88.5794 35.2076 88.5953 33.9356C88.6059 33.0611 87.8956 33.6865 87.2649 33.6653C86.1307 33.6335 84.7687 33.8614 84.7369 32.3244C85.5213 32.2767 86.2738 32.1707 86.3321 33.1194C86.5653 33.3049 87.8215 31.8474 86.6926 31.01C85.781 30.3369 83.5603 31.9057 83.4278 32.9869L84.2069 34.6988C83.449 34.7889 82.9136 35.5468 82.8871 36.2941H82.8819Z" fill="#20261E"/>
<path id="Vector_33" d="M189.327 36.2941C189.502 36.4584 192.247 35.2553 192.756 35.0963C193.593 34.8313 195.024 35.2076 195.04 33.9356C195.051 33.0611 194.341 33.6865 193.71 33.6653C192.576 33.6335 191.214 33.8614 191.182 32.3244C191.966 32.2767 192.719 32.1707 192.777 33.1194C193.01 33.3049 194.267 31.8474 193.138 31.01C192.226 30.3369 190.005 31.9057 189.873 32.9869L190.652 34.6988C189.894 34.7889 189.359 35.5468 189.332 36.2941H189.327Z" fill="#20261E"/>
<path id="Vector_34" d="M206.27 16.9544C205.422 16.9173 201.622 19.2175 203.949 19.0161C205.39 18.8942 208.798 17.2618 208.364 15.3962C205.666 14.3415 203.694 13.2232 202.831 16.9597C203.636 16.8696 203.864 16.1647 204.807 16.1594C205.014 16.1594 206.8 16.4032 206.27 16.9597V16.9544Z" fill="#20261E"/>
<path id="Vector_35" d="M209.514 67.7549C210.955 67.633 214.363 66.0006 213.929 64.135C211.231 63.0803 209.259 61.962 208.396 65.6985C209.201 65.6084 209.429 64.9035 210.372 64.8982C210.579 64.8982 212.365 65.142 211.835 65.6985C210.987 65.6614 207.187 67.9616 209.514 67.7602V67.7549Z" fill="#20261E"/>
<path id="Vector_36" d="M95.3465 9.81548C98.0283 11.1723 101.484 10.4939 102.475 7.42518C101.192 7.63188 100.265 8.66008 98.8657 8.72898C97.6096 8.79258 96.3111 8.05588 95.0815 7.96048L94.2706 10.8596C94.9066 10.9391 95.2405 10.3137 95.3465 9.81018V9.81548Z" fill="#20261E"/>
<path id="Vector_37" d="M127.094 85.2978L125.123 83.9728L123.962 85.9179L125.695 87.3807L126.994 86.1087L129.05 87.1369L130.174 85.5734L128.292 83.7131L127.094 85.2978Z" fill="#20261E"/>
<path id="Vector_38" d="M126.834 13.6473L123.13 16.4245C124.306 16.5411 125.578 15.8362 126.554 15.2214C127.359 14.7126 127.444 13.6844 128.684 14.3098C128.446 13.3187 128.615 11.6439 128.371 10.7853C127.688 8.38973 123.331 12.7887 126.834 13.6473ZM126.972 11.4001C127.592 11.4213 127.709 11.9301 127.629 12.4548H127.237L126.575 11.7923L126.972 11.3948V11.4001Z" fill="#20261E"/>
<path id="Vector_39" d="M174.497 15.5023L170.792 18.2795C171.969 18.3961 173.241 17.6912 174.216 17.0764C175.022 16.5676 175.107 15.5394 176.347 16.1648C176.108 15.1737 176.278 13.4989 176.034 12.6403C175.351 10.2447 170.994 14.6437 174.497 15.5023ZM174.635 13.2551C175.255 13.2763 175.372 13.7851 175.292 14.3098H174.9L174.237 13.6473L174.635 13.2498V13.2551Z" fill="#20261E"/>
<path id="Vector_40" d="M123.925 10.1969C122.759 9.49204 121.36 11.3841 121.402 12.4865L122.594 13.6472L119.155 16.4244C122.086 16.3873 125.87 13.2974 123.925 10.1916V10.1969ZM123.363 11.4265L123.654 12.46H123.262L122.6 11.7975V11.4053L123.363 11.4318V11.4265Z" fill="#20261E"/>
<path id="Vector_41" d="M171.588 12.0519C170.422 11.347 169.022 13.2391 169.065 14.3415L170.257 15.5022L166.818 18.2794C169.748 18.2423 173.533 15.1524 171.588 12.0466V12.0519ZM171.026 13.2815L171.317 14.315H170.925L170.263 13.6525V13.2603L171.026 13.2868V13.2815Z" fill="#20261E"/>
<path id="Vector_42" d="M262.409 34.4391C263.22 34.243 267.534 32.8279 267.672 32.4198C267.762 32.1548 267.688 31.8103 267.703 31.5241C267.115 32.3986 263.008 31.9852 263.999 30.9941C264.566 30.4323 265.854 31.699 266.103 30.8457C266.781 28.5296 262.626 29.791 262.679 31.6619L263.458 33.0982C262.822 33.183 262.388 33.7872 262.409 34.4338V34.4391Z" fill="#20261E"/>
<path id="Vector_43" d="M223.602 70.4685C224.302 70.3466 224.641 69.488 224.932 69.4721C225.425 69.4456 225.871 70.4897 227.063 69.4085C228.213 68.3591 227.657 65.8734 227.19 66.2285C226.872 66.997 227.217 68.1312 226.263 68.3538C225.017 68.6453 225.95 66.8539 224.805 67.0235C225.192 69.1223 221.927 70.2353 222.95 67.5588C222.214 66.8168 220.671 70.9773 223.602 70.4738V70.4685Z" fill="#20261E"/>
<path id="Vector_44" d="M150.255 70.4685C150.955 70.3466 151.294 69.488 151.585 69.4721C152.078 69.4456 152.523 70.4897 153.716 69.4085C154.866 68.3591 154.31 65.8734 153.843 66.2285C153.525 66.997 153.87 68.1312 152.916 68.3538C151.67 68.6453 152.603 66.8539 151.458 67.0235C151.845 69.1223 148.58 70.2353 149.603 67.5588C148.866 66.8168 147.324 70.9773 150.255 70.4738V70.4685Z" fill="#20261E"/>
<path id="Vector_45" d="M109.366 5.04031C109.048 5.80881 109.392 6.94301 108.438 7.16561C107.193 7.45711 108.125 5.66571 106.981 5.83531C107.368 7.93411 104.103 9.04711 105.126 6.37061C104.389 5.62861 102.847 9.78911 105.778 9.28561C106.477 9.16371 106.816 8.30511 107.108 8.28921C107.601 8.26271 108.046 9.30681 109.238 8.22561C110.389 7.17621 109.832 4.69051 109.366 5.04561V5.04031Z" fill="#20261E"/>
<path id="Vector_46" d="M47.1382 5.04031C46.8202 5.80881 47.1647 6.94301 46.2107 7.16561C44.9652 7.45711 45.898 5.66571 44.7532 5.83531C45.1401 7.93411 41.8753 9.04711 42.8982 6.37061C42.1615 5.62861 40.6192 9.78911 43.5501 9.28561C44.2497 9.16371 44.5889 8.30511 44.8804 8.28921C45.3733 8.26271 45.8185 9.30681 47.011 8.22561C48.1611 7.17621 47.6046 4.69051 47.1382 5.04561V5.04031Z" fill="#20261E"/>
<path id="Vector_47" d="M202.301 63.5786C202.084 63.3666 196.9 65.7516 196.667 65.9477C196.36 66.2021 195.75 67.6066 195.952 67.8133C198.114 66.6844 201.654 66.3399 202.306 63.5786H202.301Z" fill="#20261E"/>
<path id="Vector_48" d="M255.184 9.79414C254.877 10.0485 254.268 11.453 254.469 11.6597C256.631 10.5308 260.172 10.1863 260.824 7.42504C260.606 7.21304 255.423 9.59804 255.19 9.79414H255.184Z" fill="#20261E"/>
<path id="Vector_49" d="M75.6573 9.79414C75.3499 10.0485 74.7404 11.453 74.9418 11.6597C77.1042 10.5308 80.6446 10.1863 81.2965 7.42504C81.0792 7.21304 75.8958 9.59804 75.6626 9.79414H75.6573Z" fill="#20261E"/>
<path id="Vector_50" d="M10.0642 15.64C9.84688 15.428 4.66348 17.813 4.43028 18.0091C4.12288 18.2635 3.51338 19.668 3.71478 19.8747C5.87718 18.7458 9.41758 18.4013 10.0695 15.64H10.0642Z" fill="#20261E"/>
<path id="Vector_51" d="M276.178 15.11C275.961 14.898 270.777 17.283 270.544 17.4791C270.237 17.7335 269.627 19.138 269.829 19.3447C271.991 18.2158 275.531 17.8713 276.183 15.11H276.178Z" fill="#20261E"/>
<path id="Vector_52" d="M159.668 14.58C159.451 14.368 154.267 16.753 154.034 16.9491C153.727 17.2035 153.117 18.608 153.319 18.8147C155.481 17.6858 159.021 17.3413 159.673 14.58H159.668Z" fill="#20261E"/>
<path id="Vector_53" d="M69.1116 13.52C68.8943 13.308 63.7109 15.693 63.4777 15.8891C63.1703 16.1435 62.5608 17.548 62.7622 17.7547C64.9246 16.6258 68.465 16.2813 69.1169 13.52H69.1116Z" fill="#20261E"/>
<path id="Vector_54" d="M187.471 7.42504C187.254 7.21304 182.071 9.59804 181.837 9.79414C181.53 10.0485 180.921 11.453 181.122 11.6597C183.284 10.5308 186.825 10.1863 187.477 7.42504H187.471Z" fill="#20261E"/>
<path id="Vector_55" d="M74.5342 23.0493C74.5077 23.5051 74.2109 23.7224 74.8045 24.104C75.3133 24.0775 75.997 21.0883 75.9917 20.5318C75.9917 19.8799 75.0854 17.0126 74.6296 16.7423C73.9777 16.3554 73.4371 17.3677 73.4371 17.8871C73.4371 18.1521 74.4706 19.7527 74.6031 20.5954C74.7568 21.5759 74.5819 22.1589 74.5289 23.0493H74.5342Z" fill="#20261E"/>
<path id="Vector_56" d="M180.714 23.0493C180.688 23.5051 180.391 23.7224 180.985 24.104C181.493 24.0775 182.177 21.0883 182.172 20.5318C182.172 19.8799 181.266 17.0126 180.81 16.7423C180.158 16.3554 179.617 17.3677 179.617 17.8871C179.617 18.1521 180.651 19.7527 180.783 20.5954C180.937 21.5759 180.762 22.1589 180.709 23.0493H180.714Z" fill="#20261E"/>
<path id="Vector_57" d="M254.06 23.0493C254.034 23.5051 253.737 23.7224 254.331 24.104C254.839 24.0775 255.523 21.0883 255.518 20.5318C255.518 19.8799 254.611 17.0126 254.156 16.7423C253.504 16.3554 252.963 17.3677 252.963 17.8871C252.963 18.1521 253.997 19.7527 254.129 20.5954C254.283 21.5759 254.108 22.1589 254.055 23.0493H254.06Z" fill="#20261E"/>
<path id="Vector_58" d="M150.53 26.2293C150.504 26.6851 150.207 26.9024 150.8 27.284C151.309 27.2575 151.993 24.2683 151.988 23.7118C151.988 23.0599 151.081 20.1926 150.626 19.9223C149.974 19.5354 149.433 20.5477 149.433 21.0671C149.433 21.3321 150.467 22.9327 150.599 23.7754C150.753 24.7559 150.578 25.3389 150.525 26.2293H150.53Z" fill="#20261E"/>
<path id="Vector_59" d="M193.164 76.0228C193.673 75.9963 194.357 73.0071 194.351 72.4506C194.351 71.7987 193.445 68.9314 192.989 68.6611C192.337 68.2742 191.797 69.2865 191.797 69.8059C191.797 70.0709 192.83 71.6715 192.963 72.5142C193.117 73.4947 192.942 74.0777 192.889 74.9681C192.862 75.4239 192.565 75.6412 193.159 76.0228H193.164Z" fill="#20261E"/>
<path id="Vector_60" d="M109.174 2.67621C109.455 2.44831 109.996 0.916611 109.885 0.805311C109.678 0.598611 104.797 2.94121 104.516 3.17441C104.208 3.42351 103.615 4.81211 103.8 5.04001C104.982 4.25561 108.258 3.41821 109.174 2.67621Z" fill="#20261E"/>
<path id="Vector_61" d="M153.657 63.8596C153.938 63.6317 154.479 62.1 154.367 61.9887C154.161 61.782 149.279 64.1246 148.999 64.3578C148.691 64.6069 148.098 65.9955 148.283 66.2234C149.465 65.439 152.74 64.6016 153.657 63.8596Z" fill="#20261E"/>
<path id="Vector_62" d="M46.9523 2.67621C47.2332 2.44831 47.7738 0.916611 47.6625 0.805311C47.4558 0.598611 42.5745 2.94121 42.2936 3.17441C41.9862 3.42351 41.3926 4.81211 41.5781 5.04001C42.76 4.25561 46.0354 3.41821 46.9523 2.67621Z" fill="#20261E"/>
<path id="Vector_63" d="M222.351 64.3578C222.043 64.6069 221.45 65.9955 221.635 66.2234C222.817 65.439 226.093 64.6016 227.009 63.8596C227.29 63.6317 227.831 62.1 227.72 61.9887C227.513 61.782 222.632 64.1246 222.351 64.3578Z" fill="#20261E"/>
<path id="Vector_64" d="M133.984 36.824C134.658 36.8505 141.611 34.7888 140.339 33.6493C138.23 34.2111 134.689 34.4602 133.984 36.824Z" fill="#20261E"/>
<path id="Vector_65" d="M49.7827 39.474C50.4558 39.5005 57.4094 37.4388 56.1374 36.2993C54.028 36.8611 50.4876 37.1102 49.7827 39.474Z" fill="#20261E"/>
<path id="Vector_66" d="M89.2365 36.2993C87.1271 36.8611 83.5868 37.1102 82.8819 39.474C83.555 39.5005 90.5085 37.4388 89.2365 36.2993Z" fill="#20261E"/>
<path id="Vector_67" d="M195.417 36.2993C193.307 36.8611 189.767 37.1102 189.062 39.474C189.735 39.5005 196.689 37.4388 195.417 36.2993Z" fill="#20261E"/>
<path id="Vector_68" d="M134.514 87.4126C135.188 87.4391 142.141 85.3774 140.869 84.2379C138.76 84.7997 135.219 85.0488 134.514 87.4126Z" fill="#20261E"/>
<path id="Vector_69" d="M268.233 33.6493C267.311 34.0574 260.966 35.5255 262.148 37.089L267.639 35.1704L268.233 33.6493Z" fill="#20261E"/>
<path id="Vector_70" d="M184.795 74.608C184.493 74.0992 183.004 72.8378 182.474 73.1452L181.382 74.8253L183.587 76.2669L184.795 74.608Z" fill="#20261E"/>
<path id="Vector_71" d="M99.0512 72.4668C98.7332 72.6788 98.3198 72.5675 97.9753 72.5887V71.5287L97.0054 72.8696C96.6132 72.8908 96.2105 72.9014 95.8501 72.7212C95.3095 72.4615 95.585 71.5976 94.8006 71.7937L94.8589 73.7176L96.7828 79.2084C97.3711 77.7827 96.7828 76.2245 96.6874 74.7564C97.4559 73.9667 98.4523 74.6398 99.1413 74.1575C99.8515 73.6646 99.8569 72.3078 99.8251 71.5287C98.993 71.2796 99.4434 72.2124 99.0512 72.4668Z" fill="#20261E"/>
<path id="Vector_72" d="M93.1947 71.8044L89.5006 71.5288L89.9405 73.405L92.6806 73.6488C92.6488 75.4826 92.6806 77.6927 93.8731 79.2085C94.9914 77.9577 93.8307 76.4843 93.5445 75.0427C93.3484 74.0622 93.4862 72.8432 93.2 71.815L93.1947 71.8044Z" fill="#20261E"/>
<path id="Vector_73" d="M86.8563 71.2581C86.0772 73.1184 87.4499 73.924 88.0382 75.5034C88.4357 76.574 88.5152 77.6923 88.7166 78.8053C88.7961 79.2452 88.547 79.2611 89.236 79.2081C89.5593 76.4627 89.077 73.1608 86.8563 71.2634V71.2581Z" fill="#20261E"/>
</g>
</svg>
