<svg preserveAspectRatio="none" width="100%" height="100%" overflow="visible" style="display: block;" viewBox="0 0 298.881 241.556" fill="none" xmlns="http://www.w3.org/2000/svg">
<g id="Layer_1">
<path id="Vector" d="M127.603 212.326C127.544 212.002 125.891 210.344 126.039 209.506C123.903 210.974 125.133 212.167 125.44 213.948C126.103 217.785 126.352 221.707 127.014 225.544C126.877 226.461 122.515 226.551 121.677 226.456C118.667 226.111 116.022 222.719 113.727 220.901C111.39 219.051 108.793 217.567 106.456 215.723C106.355 215.257 108.38 214.133 108.83 213.868C112.27 211.886 116.218 210.428 119.791 208.674L121.015 206.061C120.639 205.987 120.363 206.146 120.034 206.268C117.194 207.328 112.153 210.004 109.45 211.573C107.542 212.681 103.885 214.923 105.258 217.711C105.422 218.044 108.237 219.947 108.836 220.482C110.214 221.723 111.544 223.122 112.275 224.85C109.864 225.804 107.071 226.307 104.474 226.456C103.477 226.514 99.6453 226.625 98.9457 226.403C98.7443 226.339 98.6383 226.191 98.5058 226.042C99.3326 224.505 99.852 223.233 99.3856 221.463C98.1401 216.746 92.2306 222.873 93.6775 225.798L93.492 226.047C91.0911 226.747 88.2556 226.858 86.4642 224.86C85.4254 226.286 85.6268 227.659 87.344 228.348L87.4182 228.692C86.7292 231.544 84.5933 233.404 81.9009 234.326L77.0726 235.317C82.4362 238.147 88.2185 234.898 88.457 228.83C90.3067 228.936 91.9073 228.814 93.6987 228.379C94.2605 228.242 95.1191 227.606 95.4689 227.606C95.8028 227.606 97.1066 228.3 97.7161 228.438C100.976 229.148 109.212 229.01 112 227.097C113.659 225.957 113.669 224.76 112.811 223.011C113.266 222.889 113.341 223.191 113.606 223.403C115.54 224.929 117.056 227.362 119.552 228.316C121.852 229.196 126.697 229.413 127.767 226.71C128.912 223.821 126.861 217.668 126.871 214.372C126.871 213.492 127.656 212.575 127.608 212.32L127.603 212.326ZM94.87 223.901C94.7375 222.905 96.99 221.839 97.679 222.263C97.7426 222.306 98.2461 223.509 98.2461 223.684C98.2408 224.701 95.1668 226.106 94.8753 223.896L94.87 223.901Z" fill="#20261E"/>
<path id="Vector_2" d="M235.633 115.124C235.362 113.115 234.954 111.123 234.605 109.13L233.598 110.921C234.764 115.087 234.234 121.076 235.59 124.961C236.825 128.491 241.685 128.607 243.344 125.549C245.454 128.697 251.358 128.528 252.741 124.749C253.647 127.007 255.232 128.014 257.707 127.6C258.571 127.457 259.928 126.344 260.103 126.376C260.659 126.461 263.564 128.883 264.783 128.077C265.037 127.908 265.143 127.24 265.44 127.192C265.546 127.176 266.521 127.632 267.041 127.669C268 127.738 269.224 127.722 270.183 127.632C275.065 127.192 279.39 123.223 284.493 124.442L285.707 122.104L274.058 120.774C274.461 120.085 275.356 119.873 275.923 119.332C276.57 118.712 279.103 114.886 280.137 115.76C280.423 116.587 280.317 117.467 280.418 118.267C280.465 118.633 280.556 119.051 280.942 118.659C281.6 117.281 282.146 112.999 279.771 113.354C278.902 113.481 275.982 117.334 274.572 118.241C272.563 119.528 269.468 119.624 269.563 122.634L272.049 122.666L276.448 123.689C273.464 124.839 268.106 126.397 265.345 124.336C264.587 123.768 263.744 122.147 262.811 122.115C261.703 122.078 260.31 124.664 258.656 125.099C256.202 125.74 254.199 125.226 253.483 122.687C252.434 118.94 252.524 113.995 251.819 110.052C251.739 109.623 251.957 109.188 251.421 108.865C250.955 109.368 250.505 110.153 250.478 110.852C250.367 113.693 251.66 118.113 251.819 121.182C251.851 121.85 251.93 122.947 251.819 123.556C251.411 125.729 245.682 125.904 244.664 124.108C244.245 123.366 244.743 122.396 244.017 122.375C243.312 124.929 238.972 126.461 237.143 124.473C236.051 123.291 235.898 117.075 235.638 115.119L235.633 115.124ZM263.733 125.549C263.5 125.735 261.359 124.733 261.354 124.362C262.684 122.73 262.986 124.553 263.733 125.549Z" fill="#20261E"/>
<path id="Vector_3" d="M165.9 35.2317C171.545 35.7511 174.338 31.1295 173.183 25.9673C174.672 26.9531 175.97 27.022 177.603 26.2853C178.037 26.0892 178.44 25.4108 178.822 25.4691C179.373 25.5539 182.283 27.976 183.502 27.1704C183.756 27.0008 183.862 26.333 184.159 26.2853C184.265 26.2694 185.24 26.7252 185.759 26.7623C186.719 26.8312 187.943 26.8153 188.902 26.7252C193.784 26.2853 198.108 22.3156 203.212 23.5346L204.421 21.5842C204.5 21.0277 204.378 21.2556 204.029 21.1973C200.361 20.6408 196.46 20.6408 192.777 19.867C193.179 19.178 194.075 18.966 194.642 18.4254C195.289 17.8053 197.822 13.9787 198.856 14.8532C199.142 15.68 199.036 16.5598 199.137 17.3601C199.184 17.7258 199.274 18.1445 199.661 17.7523C200.319 16.3743 200.864 12.0919 198.49 12.447C197.621 12.5742 194.701 16.4273 193.291 17.3336C191.282 18.6215 188.187 18.7169 188.282 21.7273L190.768 21.7591L195.167 22.782C192.183 23.9321 186.825 25.4903 184.063 23.4286C183.306 22.8615 182.463 21.2397 181.53 21.2079C180.502 21.1761 179.166 23.365 178.138 23.895C176.039 24.9815 173.644 24.4886 172.992 22.0506L171.598 9.80756C171.126 9.26166 170.124 11.5778 170.299 12.0283L172.25 30.2179C169.208 34.1081 161.772 34.0498 162.62 27.711C162.747 26.7835 163.886 25.3525 162.863 24.9073C160.41 28.6385 160.394 34.7229 165.906 35.2317H165.9ZM182.447 24.637C182.214 24.8225 180.073 23.8208 180.067 23.4498C181.398 21.8174 181.7 23.6406 182.447 24.637Z" fill="#20261E"/>
<path id="Vector_4" d="M296.159 68.3518C292.645 67.0268 286.804 61.8116 284.917 67.5462C286.894 67.0957 288.67 67.0003 290.413 68.2617C290.657 68.4366 290.885 68.2723 290.742 68.8712C289.141 68.8818 285.527 69.2846 284.477 70.5513C284 71.1237 283.539 72.7455 283.025 73.4663C281.509 75.5863 277.206 75.6605 276.172 72.9946C274.937 69.804 274.99 63.4387 274.333 59.7393C274.254 59.31 274.471 58.8754 273.936 58.5521C273.469 59.0556 273.019 59.84 272.992 60.5396C272.876 63.4705 274.217 67.949 274.344 71.1184C274.37 71.7597 274.439 72.8992 274.28 73.461C273.718 75.3902 268.127 75.5598 267.327 73.6412C267.067 73.0264 267.501 71.9982 266.797 72.0618C265.752 75.2206 260.707 76.323 259.228 73.0052C258.688 71.7862 257.924 65.9615 257.654 65.7071C257.235 65.3096 257.204 65.7972 257.098 66.0728C256.848 66.7406 256.912 68.479 256.822 68.5797C256.679 68.744 254.797 69.3747 253.955 70.3446C250.075 74.8019 254.75 76.6463 257.919 73.1218C258.147 77.4943 264.051 79.0419 266.134 75.2418C268.243 78.3847 273.877 78.1833 275.266 74.4415C276.384 78.231 282.193 78.5172 283.343 74.7118C285.951 76.9219 289.719 76.959 288.839 72.507C288.627 71.447 287.774 71.7491 287.313 71.0018C289.549 70.652 291.786 70.281 294.07 70.4612C296.164 70.6255 297.743 72.1201 298.83 69.6768C299.254 68.7281 296.901 68.638 296.164 68.3624L296.159 68.3518ZM254.204 72.5812C253.78 71.4894 256.944 69.7457 257.378 70.1962L257.4 71.9187C256.409 72.4911 255.343 72.6819 254.204 72.5812ZM284.652 72.5812C285.659 72.4752 287.149 72.6289 287.297 73.9009C286.974 74.1765 284.504 73.5405 284.652 72.5812Z" fill="#20261E"/>
<path id="Vector_5" d="M118.508 23.0473C118.254 22.4325 118.683 21.4043 117.978 21.4679C116.998 24.5843 111.555 25.8828 110.5 22.3212C109.71 19.6553 109.753 15.1397 109.286 12.1452C109.08 10.8308 108.783 9.53227 108.571 8.22317C106.679 10.1312 108.216 13.7617 108.539 16.3322C108.831 18.6642 108.82 23.0844 109.938 24.9977C111.459 27.6 116.113 27.2449 117.443 24.6426C119.033 27.5629 124.042 27.5046 125.653 24.6426C127.545 27.8915 133.661 27.5205 134.923 23.8423C135.521 25.1885 136.327 26.4075 137.896 26.699C139.973 27.0806 148.713 25.056 150.828 24.1285C151.755 23.7204 152.582 22.459 152.794 21.4626C152.529 21.2029 146.826 23.3653 145.549 23.2381C144.341 23.1162 140.943 19.9362 142.486 18.696C144.314 17.2173 147.775 17.742 149.884 18.2879C149.863 17.2915 148.766 16.4965 147.945 16.1255C142.549 13.6875 137.933 19.8196 141.94 24.1126C136.051 25.2998 135.839 23.254 135.092 18.3833C134.631 15.3676 134.53 12.1452 133.995 9.15067C133.916 8.72137 134.133 8.28677 133.598 7.96347C133.131 8.46697 132.681 9.25137 132.654 9.95097C132.538 12.8819 133.878 17.3604 134.006 20.5298C134.032 21.1711 134.101 22.3106 133.942 22.8724C133.375 24.8281 127.524 24.9765 126.723 23.0526C126.464 22.4378 126.898 21.4096 126.193 21.4732C125.451 22.9413 124.466 24.1338 122.727 24.3617C121.535 24.5154 119.054 24.3405 118.519 23.0579L118.508 23.0473Z" fill="#20261E"/>
<path id="Vector_6" d="M91.6261 59.7336C91.5466 59.3043 91.7639 58.8697 91.2286 58.5464C90.7622 59.0499 90.3117 59.8343 90.2852 60.5339C90.1739 63.3747 91.4671 67.7949 91.6261 70.8636C91.6579 71.5314 91.7374 72.6285 91.6261 73.238C91.2233 75.3686 85.7537 75.5912 84.7361 73.7892C84.3174 73.0472 84.8156 72.0773 84.0895 72.0561C83.109 75.2414 77.3956 76.4604 76.3462 72.9094C75.5565 70.2435 75.5989 65.7279 75.1325 62.7334C74.9258 61.419 74.629 60.1205 74.417 58.8114C72.5249 60.7194 74.0619 64.3499 74.3852 66.9204C74.6767 69.2524 74.6661 73.6726 75.7844 75.5859C77.3108 78.1988 82.2133 77.8702 83.5542 75.2308C85.4516 78.4797 91.3028 78.061 92.5589 74.4305C93.6189 78.0822 98.9984 78.4108 100.636 75.2308C102.104 77.4515 104.394 77.4939 106.864 77.3614C111.289 77.1176 114.708 75.9092 113.748 70.7152C113.134 67.3762 109.805 64.9223 108.56 69.2577C107.611 72.549 109.874 74.4941 112.413 72.0561C113.266 72.814 112.741 73.5295 111.936 73.9588C109.975 74.9976 100.774 76.4021 101.686 72.0561C100.737 72.3317 100.652 73.4924 99.7033 74.1761C97.8218 75.5329 94.398 75.4057 93.4652 72.9942C92.2303 69.8036 92.2833 63.433 91.6261 59.7389V59.7336ZM111.045 70.6887C109.28 71.2505 109.249 69.2206 110.552 69.2312C111.385 69.2365 111.93 70.4078 111.045 70.6887Z" fill="#20261E"/>
<path id="Vector_7" d="M52.9734 122.507C53.1324 121.812 52.7561 122.263 52.5176 122.316C50.8958 122.687 46.8731 124.192 45.4845 123.917C44.2655 123.673 42.1084 121.102 42.1349 119.756C44.7902 118.065 47.4349 118.102 50.3181 119.189C50.1591 118.166 48.9719 117.191 48.0815 116.793C42.6013 114.366 38.1387 120.922 42.3787 125.014C39.9566 125.104 37.6458 125.581 35.229 125.014C36.5275 123.646 37.0522 122.623 36.7925 120.668C36.0399 115.039 28.9909 121.341 30.9943 124.749C29.2347 125.093 27.5334 125.719 25.7526 125.999C22.2069 126.551 13.3506 127.399 14.3735 121.505C14.4159 121.261 15.6508 118.728 14.7127 119.194C14.2675 119.417 13.4089 121.219 13.3188 121.77C11.856 130.361 22.1963 129.275 27.6659 127.913C28.763 127.637 31.7469 126.355 32.4571 126.37C33.1938 126.386 35.2343 127.499 36.4533 127.637C37.2483 127.733 38.2606 127.711 39.0715 127.664C41.0802 127.542 49.9047 125.613 51.4682 124.701C51.8445 124.478 52.8833 122.931 52.9787 122.507H52.9734ZM32.0861 122.295C32.208 121.807 33.6019 120.885 34.0789 120.843C34.5082 120.805 34.9746 121.129 35.1972 121.473C36.4851 123.466 31.9854 125.204 32.0861 122.295Z" fill="#20261E"/>
<path id="Vector_8" d="M211.56 224.484C211.067 223.949 210.029 222.338 210.368 221.696C211.804 220.477 214.004 219.841 215.88 220.17C216.696 220.313 217.613 221.293 218.185 220.504C214.046 214.806 205.603 220.652 210.246 226.461C205.524 226.063 205.683 218.32 205.184 214.711C205.126 214.297 204.919 212.146 204.554 212.167C203.764 212.967 203.589 213.863 203.61 214.949C203.663 218.161 204.84 221.723 204.686 225.003C204.58 227.314 203.414 229.296 202.837 231.491C205.842 232.068 210.707 232.418 205.317 234.899C201.554 236.632 193.837 237.67 194.701 231.427C194.844 230.404 195.432 229.572 195.639 228.655C195.729 228.258 195.856 227.945 195.295 228.046C190.938 234.851 194.383 240.225 202.529 238.195C207.633 236.923 213.654 230.939 204.957 229.625L205.752 225.926C206.287 226.238 206.451 227.033 206.933 227.521C209.016 229.63 213.055 228.798 215.546 227.903C217.433 227.224 220.597 225.957 220.316 223.535C217.528 225.041 214.332 227.463 211.571 224.473L211.56 224.484Z" fill="#20261E"/>
<path id="Vector_9" d="M217.618 86.7053C222.769 85.4227 228.716 79.4496 220.05 78.1299L220.58 74.4358C221.158 74.8227 221.322 75.6495 221.889 76.1689C224.412 78.4744 229.696 76.9639 232.405 75.5435C233.894 74.7591 235.298 73.9959 235.134 72.0508C232.378 73.5136 229.331 75.9198 226.522 73.1214C225.976 72.5755 224.831 70.8848 225.191 70.2011C226.628 68.9821 228.827 68.3461 230.703 68.6747C231.525 68.8178 232.436 69.7983 233.009 69.0086C228.869 63.3111 220.427 69.157 225.069 74.9658C220.347 74.5683 220.506 66.825 220.008 63.2157C219.95 62.8023 219.743 60.6505 219.377 60.6717C218.593 61.472 218.413 62.3677 218.434 63.4542C218.487 66.666 219.658 70.2223 219.51 73.5083C219.404 75.7714 218.609 77.8808 217.925 79.9955C220.93 80.5732 225.795 80.923 220.405 83.4034C216.642 85.1365 208.926 86.1753 209.789 79.9319C209.933 78.909 210.521 78.0769 210.728 77.16C210.818 76.7625 210.945 76.4498 210.383 76.5505C206.026 83.3557 209.471 88.7299 217.618 86.7V86.7053Z" fill="#20261E"/>
<path id="Vector_10" d="M237.254 172.963C236.995 172.698 231.287 174.866 230.009 174.739C228.933 174.627 226.156 171.871 226.432 170.764C226.776 169.396 230.709 169.126 231.843 169.243C232.808 169.338 233.401 169.836 234.345 169.783C233.634 167.022 229.352 166.396 227.216 167.817C224.598 169.555 223.951 173.302 226.405 175.481C226.442 175.555 225.817 175.868 225.743 175.878C224.471 176.069 222.833 175.74 221.508 175.878C220.687 175.878 222.017 173.626 222.107 173.032C223.231 165.66 214.724 170.562 216.282 175.232L216.097 175.481C213.696 176.18 210.86 176.292 209.069 174.293C208.03 175.719 208.232 177.092 209.949 177.781L210.023 178.125C209.233 181.576 205.974 183.712 202.645 184.289C202.343 184.342 198.464 184.295 200.117 185.1C202.068 186.054 205.332 185.885 207.262 184.931C209.578 183.791 210.919 180.733 211.056 178.263C212.906 178.369 214.507 178.247 216.298 177.813C216.86 177.675 217.719 177.039 218.074 177.039C218.535 177.039 220.777 178.062 221.858 178.189C225.027 178.565 229.511 177.288 232.617 176.387C234.822 175.751 236.655 175.603 237.27 172.963H237.254ZM217.464 173.313C217.332 172.317 219.584 171.251 220.273 171.675C220.337 171.718 220.84 172.921 220.84 173.096C220.835 174.113 217.761 175.518 217.464 173.308V173.313Z" fill="#20261E"/>
<path id="Vector_11" d="M27.2952 26.6405C28.0743 26.4762 29.2774 25.4374 29.4841 25.4692C30.0406 25.554 32.945 27.9761 34.164 27.1705C34.4184 27.0009 34.5244 26.3331 34.8212 26.2854C34.9272 26.2695 35.9024 26.7253 36.4218 26.7624C38.5418 26.9161 42.1882 26.8048 43.9531 25.554C47.3822 23.1107 44.3347 18.0174 42.114 15.7755C41.5946 15.2508 38.5842 13.2262 38.6743 12.8658L50.4297 7.14185L51.3837 4.78865C49.1206 5.71615 46.7992 6.60655 44.5838 7.65595C41.8066 8.97035 37.1002 10.5868 37.1373 14.1908C37.1638 16.7083 38.8651 16.2525 40.2537 17.1111C41.796 18.0651 43.9637 20.9271 44.4513 22.7132C44.4778 24.4728 37.5984 24.5894 36.284 24.2555C34.4979 23.7997 33.1782 21.2451 32.1871 21.2133C31.1801 21.1815 29.9664 23.1584 29.129 23.7043C27.8199 24.5576 24.7777 24.7908 23.5958 23.7043C22.345 22.5542 22.2231 16.2154 21.9581 14.2173C21.6931 12.2192 21.3751 10.1575 20.8027 8.22305C19.1385 10.4384 20.5695 13.6979 20.8981 16.332C21.4387 20.6674 20.6543 28.0609 27.3005 26.6405H27.2952ZM33.1093 24.6371C32.8761 24.8226 30.7349 23.8209 30.7296 23.4499C32.0599 21.8175 32.362 23.6407 33.1093 24.6371Z" fill="#20261E"/>
<path id="Vector_12" d="M178.181 212.326C178.123 212.003 176.469 210.344 176.618 209.506C174.482 210.974 175.711 212.167 176.019 213.948C176.681 217.785 176.93 221.707 177.593 225.544C177.535 225.936 175.833 226.408 175.43 226.456C173.952 226.636 172.182 226.323 170.666 226.456C169.844 226.456 171.175 224.203 171.265 223.61C171.482 222.195 171.212 220.35 169.775 219.704C167.655 219.253 164.306 223.716 165.44 225.809C165.313 226.53 161.719 226.546 161.041 226.419C160.357 223.212 157.824 221.294 156.133 225.157C154.808 228.189 156.949 229.116 159.679 228.841C158.709 233.558 154.071 235.439 149.619 235.195V235.99C153.488 236.547 157.283 237.347 159.52 233.314C160.325 231.862 160.363 230.16 161.173 228.878C162.52 228.878 163.723 228.825 165.032 228.502C165.668 228.343 166.956 227.622 167.226 227.622C167.56 227.622 168.864 228.316 169.473 228.454C172.182 229.042 177.535 229.689 178.489 226.344C179.342 223.355 177.429 217.668 177.444 214.382C177.444 213.503 178.229 212.586 178.181 212.331V212.326ZM157.029 226.461C157.336 224.903 158.444 225.311 159.138 226.329L157.029 226.461ZM166.622 223.901C166.489 222.905 168.742 221.839 169.431 222.263C169.494 222.306 169.998 223.509 169.998 223.684C169.993 224.701 166.919 226.106 166.627 223.896L166.622 223.901Z" fill="#20261E"/>
<path id="Vector_13" d="M274.063 220.901C273.12 223.461 274.752 223.838 275.383 225.931C274.842 225.899 273.772 226.466 273.395 226.466H268.763C269.855 224.845 270.926 222.788 269.012 221.315C264.741 218.034 260.485 223.546 257.999 226.435C256.43 226.366 255.487 225.449 255.789 223.816L249.355 225.454C248.729 225.73 248.167 227.802 249.174 227.913C247.765 231.332 245.777 234.263 241.86 234.909C241.368 234.989 239.099 234.74 239.115 235.333C245.565 238.508 249.689 234.056 250.229 227.712L254.729 226.191C254.782 227.383 255.662 228.263 256.854 228.316L256.589 229.901C257.427 229.97 257.225 228.995 258.041 228.841C259.006 228.655 259.986 229.148 260.951 229.132C261.576 229.122 262.159 228.846 262.795 228.836C265.822 228.783 272.876 229.429 275.213 228.014C277.508 226.625 276.443 221.765 274.063 220.907V220.901ZM259.499 226.721C261.423 223.891 265.652 220.488 268.493 224.209C266.23 226.44 262.557 226.843 259.499 226.721Z" fill="#20261E"/>
<path id="Vector_14" d="M131.318 173.636C131.133 172.343 130.406 172.73 129.755 171.903C133.162 171.277 136.597 170.991 139.957 172.067L141.404 170.186C139.75 169.486 138.023 169.067 136.374 168.32C133.258 166.91 129.293 163.19 127.37 168.452C129.346 168.007 131.122 167.907 132.866 169.168C133.109 169.343 133.337 169.179 133.194 169.777C131.557 169.815 129.649 170.005 128.154 170.694C125.928 171.717 126.214 174.5 124.38 175.395C122.303 176.413 118.381 176 118.895 172.957C117.946 173.233 117.861 174.394 116.913 175.077C115.577 176.037 112.816 176.349 111.629 175.062C110.542 173.88 110.383 167.657 110.123 165.707C109.858 163.709 109.54 161.647 108.968 159.713C107.304 161.928 108.735 165.188 109.063 167.822C109.355 170.159 109.344 174.781 110.569 176.646C112.106 178.994 116.748 178.772 117.84 176.132C119.653 178.994 124.762 179.19 125.785 175.602C128.292 177.69 131.949 177.982 131.318 173.625V173.636ZM127.11 173.493C128.117 173.387 129.606 173.54 129.755 174.812C129.431 175.088 126.961 174.452 127.11 173.493Z" fill="#20261E"/>
<path id="Vector_15" d="M43.5186 212.469C42.4798 211.875 41.5523 211.409 40.5877 210.831C40.1531 210.571 39.1461 210.386 38.9977 210.238C38.5472 209.792 38.897 208.473 37.0632 209.098C36.1834 209.395 36.4643 209.988 36.2152 210.238C36.1304 210.322 34.5404 211.446 34.3602 211.563C34.0316 211.775 32.7543 211.907 32.0335 212.283C26.177 215.352 25.9173 226.768 30.2898 231.141C30.9841 231.835 34.1535 233.685 35.134 234.109C36.3318 234.623 37.1798 234.835 38.5154 234.655C39.6496 234.501 44.2182 231.946 45.0344 231.114C49.2691 226.821 49.0836 215.644 43.5239 212.479L43.5186 212.469ZM35.2294 211.101L37.0791 211.631C36.1728 208.822 39.0931 208.907 38.1444 211.631C38.7804 211.112 39.7768 210.667 40.2591 211.631C39.0878 211.674 38.2239 212.135 37.7469 213.221C37.1268 212.23 36.777 212.151 35.8124 211.706C35.4361 211.531 35.0863 211.865 35.2347 211.107L35.2294 211.101ZM34.1005 212.214C35.4626 212.024 37.0208 212.575 37.0844 214.133C36.671 215.283 35.7435 215.818 34.9644 214.674L36.0191 214.006C36.8883 212.744 31.2279 212.909 31.2544 215.066C32.0441 214.976 32.9769 214.377 33.6341 215.198L29.7333 217.117L28.3447 218.771C28.8429 215.967 31.1166 212.628 34.1058 212.209L34.1005 212.214ZM28.3447 225.931L30.3746 228.003L33.6394 229.111C33.6394 230.303 31.8957 229.895 31.2597 229.376C30.5548 230.229 35.7647 233.107 36.0244 230.436L34.9644 229.773C37.7469 228.252 37.8529 232.121 34.9803 232.434C31.6625 232.789 28.9701 228.814 28.35 225.931H28.3447ZM34.9644 233.213C35.8071 232.71 37.1904 232.736 37.3494 231.496H37.8688L38.4041 232.418L40.5188 233.346C38.6585 234.13 36.724 234.48 34.9591 233.213H34.9644ZM38.1338 230.309C38.2292 229.318 39.6655 228.984 40.2591 229.773L39.1991 230.436C39.5118 233.006 44.8489 230.351 43.9638 229.376L42.5222 229.922L41.8491 229.116L44.8489 228.008L46.8788 225.936C46.7728 229.726 40.1531 235.752 38.1391 230.314L38.1338 230.309ZM41.0594 228.586C40.8474 229.577 41.282 230.007 41.8438 230.696L40.5188 230.961C41.6636 228.618 38.844 227.59 37.7363 229.641H37.3494C36.6286 227.547 33.5864 228.851 34.6941 230.961L33.3744 230.696L34.3178 228.835C25.9385 227.378 26.0286 217 34.4344 215.861C34.3072 215.161 34.0634 214.409 33.3744 214.144L34.6994 213.746C33.6818 216.407 36.512 216.555 37.8741 214.801C38.5419 217.027 41.7007 215.983 40.5294 213.746C43.2059 213.672 40.3916 214.811 41.1707 215.882C41.282 216.036 43.9532 216.767 44.7482 217.334C49.497 220.742 46.9106 228.448 41.0647 228.581L41.0594 228.586ZM41.8438 215.601V214.811L43.9638 215.076C43.5769 213.306 40.1372 212.352 39.1991 214.011C42.2996 215.511 37.3653 215.935 38.3299 213.566C40.0842 209.268 47.0643 215.294 46.8735 218.516C45.6386 217.011 43.9002 215.67 41.8438 215.601Z" fill="#20261E"/>
<path id="Vector_16" d="M287.567 169.777C287.976 169.406 286.083 167.769 285.686 167.557C280.227 164.594 275.213 171.405 279.623 175.602C276.941 175.565 271.381 177.245 271.678 172.957C270.729 173.233 270.645 174.394 269.696 175.077C268.36 176.037 265.599 176.349 264.412 175.062C263.32 173.88 263.166 167.657 262.907 165.707C262.636 163.698 262.228 161.706 261.878 159.713C259.986 161.668 261.529 165.262 261.847 167.822C262.138 170.154 262.127 174.574 263.246 176.487C264.767 179.09 269.42 178.734 270.751 176.132C271.869 178.247 274.132 178.374 276.31 178.247C278.303 178.13 287.154 176.196 288.707 175.284C289.083 175.062 290.122 173.514 290.217 173.09C290.376 172.396 290 172.846 289.762 172.899C288.071 173.286 283.72 174.956 282.336 174.346C281.372 173.922 279.257 171.526 279.342 170.461C281.854 168.574 284.727 168.717 287.562 169.772L287.567 169.777Z" fill="#20261E"/>
<path id="Vector_17" d="M32.176 178.252C34.2483 178.067 35.7164 177.574 36.1669 175.358C36.8029 172.253 34.8313 166.815 34.9797 163.576C35.0115 162.866 35.7747 162.024 35.727 161.737C35.6687 161.414 34.0151 159.755 34.1635 158.918C32.0276 160.386 33.2572 161.578 33.5646 163.359C34.2271 167.196 34.4762 171.118 35.1387 174.956C32.8809 176.339 26.6905 176.869 26.8866 172.952C26.4467 172.963 25.6676 174.691 24.8885 175.194C22.8639 176.508 18.2529 176.196 18.8094 172.957C17.8607 173.233 17.7759 174.394 16.8272 175.077C14.9457 176.434 11.4424 176.418 10.6739 173.816C9.88416 171.14 9.93186 166.64 9.46016 163.64C9.25346 162.326 8.95666 161.027 8.74466 159.718C6.85256 161.626 8.38956 165.257 8.71286 167.827C9.02556 170.329 8.92486 175.724 10.8541 177.335C12.8257 178.978 16.6682 178.475 17.8766 176.137C19.3394 178.999 24.6553 179.052 25.9591 176.137C27.3848 178.295 29.7486 178.469 32.1707 178.252H32.176Z" fill="#20261E"/>
<path id="Vector_18" d="M62.5029 33.2497C68.9636 36.4244 73.0764 31.9618 73.617 25.6283L78.1167 24.1072C78.1697 25.2997 79.0495 26.1795 80.242 26.2325L79.977 27.8172C80.8144 27.8861 80.613 26.9109 81.4292 26.7572C82.3885 26.5717 83.3743 27.0593 84.3442 27.0487C87.3546 27.0116 91.7218 26.0258 93.0044 22.973C93.6934 21.3353 93.7782 20.217 92.2465 19.1252C87.98 16.083 83.8831 21.489 81.3921 24.351C79.8233 24.2821 78.8799 23.3652 79.182 21.7328L72.5623 23.45C72.1489 24.1284 71.5288 25.5647 72.5623 25.8297C71.1525 29.2482 69.165 32.1791 65.2483 32.8257C64.7554 32.9052 62.487 32.6561 62.5029 33.2497ZM91.8808 22.125C89.6177 24.3563 85.9448 24.7591 82.8867 24.6372C84.8106 21.807 89.04 18.4044 91.8808 22.125Z" fill="#20261E"/>
<path id="Vector_19" d="M176.888 124.627C178.473 122.846 178.308 120.588 175.886 119.793C172.627 118.728 171.1 120.625 168.678 122.374C169.012 120.684 169.06 118.675 168.954 116.937C168.874 115.696 168.35 114.154 168.387 112.972C168.413 112.129 169.007 111.398 168.959 110.889C168.943 110.751 167.322 109.517 167.618 108.605C165.408 109.479 166.749 111.478 167.019 113.046C167.465 115.649 168.265 119.989 167.873 122.491C167.761 123.196 166.187 125.056 165.583 125.231C164.613 125.517 162.589 125.321 161.815 124.606C160.564 123.456 160.442 117.111 160.177 115.119C159.907 113.11 159.499 111.117 159.149 109.124L158.142 110.916C159.027 114.944 158.985 119.237 159.711 123.259C160.076 125.295 160.728 127.208 163.05 127.6C165.959 128.088 174.858 126.906 176.888 124.622V124.627ZM167.353 125.284C169.479 122.65 173.576 119.809 176.358 123.164C173.549 124.531 170.449 125.024 167.353 125.284Z" fill="#20261E"/>
<path id="Vector_20" d="M18.1686 235.18C16.6581 233.118 15.4921 230.791 14.8349 228.321L16.4196 227.654L14.3102 225.004C15.4179 224.214 17.0132 226.949 17.7499 226.461C18.0467 225.873 17.8771 224.813 18.1527 224.346C18.3594 223.991 19.3187 223.832 19.4883 223.043C19.6738 222.179 18.4707 221.946 18.1633 221.421C17.8188 220.838 18.0149 219.81 17.3524 219.311C16.674 219.168 15.2165 221.463 14.3102 221.034L16.1652 218.384C16.3083 217.753 15.2536 217.663 14.8402 217.727C15.2748 215.596 15.9426 213.508 17.1139 211.658C17.4743 211.086 19.7904 208.643 19.3399 208.197C15.4497 209.294 13.3085 213.921 11.8669 217.403L9.01546 217.997C8.49606 218.76 11.109 220.17 10.8652 221.172C9.57726 221.172 8.87766 219.852 7.81766 219.327C7.05976 219.794 7.36716 221.182 7.09156 221.643C6.90076 221.961 5.71886 222.073 5.81956 223.149C5.89906 224.007 6.93256 224.134 7.17106 224.537C7.42016 224.967 7.54206 226.636 7.68516 226.737C9.08436 226.721 9.48186 224.808 10.8599 224.887L9.01016 228.062L11.9146 228.73C13.6742 232.175 15.7783 236.377 19.7268 237.602C20.1402 236.637 18.6986 235.922 18.1633 235.19L18.1686 235.18ZM15.3702 221.696L17.2199 220.631C16.9655 222.343 17.3577 222.078 18.5396 222.884C18.3276 223.313 17.5326 223.514 17.3524 223.811C16.6793 224.929 18.0202 226.069 15.3702 223.944L16.1864 223.154C16.1917 221.999 15.2059 222.571 15.3702 221.696ZM8.35296 225.396C7.66926 224.32 8.19926 223.536 6.63576 223.149C7.64806 222.348 8.23636 222.126 7.96076 220.631L9.81046 221.829V222.211C8.34236 222.544 9.11086 223.536 10.0808 223.938L8.35826 225.391L8.35296 225.396ZM13.7696 224.198C12.1001 225.64 9.99066 223.154 11.4641 221.76C12.9746 220.329 15.455 222.746 13.7696 224.198ZM10.3405 218.251L12.4234 218.214C13.3615 215.411 14.5964 212.575 16.833 210.577C15.4603 212.936 14.3208 215.48 14.0558 218.246H14.8402C15.2006 218.617 13.9498 220.122 13.388 220.112L12.593 219.311L11.9252 220.106H11.4058L10.3405 218.257V218.251ZM14.8826 232.636C14.2413 231.698 12.8898 228.337 12.593 228.035C12.063 227.5 11.0772 228.094 10.6002 227.378L11.4005 225.926H11.9199L12.5877 226.721L13.6424 225.926L14.8349 227.383L14.0399 227.776C14.4427 230.505 15.7942 232.821 17.0874 235.185C16.3454 234.422 15.4762 233.5 14.8826 232.63V232.636Z" fill="#20261E"/>
<path id="Vector_21" d="M142.061 74.4677C143.407 75.0825 145.856 76.4658 147.107 75.2415C148.469 73.9165 147.345 70.6835 146.169 69.5387C143.614 67.053 141.966 72.8883 140.879 74.049C139.941 75.0454 136.809 75.2998 135.638 74.7963C135.198 74.6055 134.805 73.3494 134.376 72.8618C134.138 72.5915 134.106 72.4643 133.857 72.8459C132.511 74.897 134.334 76.5665 134.668 78.6653C135.017 80.8277 134.784 81.3895 132.855 82.4442C130.141 83.9282 124.158 84.5112 123.66 80.409C123.442 78.6388 123.983 77.8703 124.407 76.3704C124.518 75.9782 124.614 75.6602 124.068 75.7662C120.151 81.469 123.13 87.3414 130.353 85.762C134.604 84.8292 136.756 81.6492 135.85 77.3562C138.553 77.5947 140.842 77.0647 142.066 74.473L142.061 74.4677ZM145.904 73.3759C144.902 73.1056 143.688 73.0579 142.999 72.1834C144.229 70.3549 145.798 71.5739 145.904 73.3759Z" fill="#20261E"/>
<path id="Vector_22" d="M57.585 170.853C54.7919 167.196 53.0323 173.763 51.914 174.95C50.8328 176.1 48.6015 175.91 47.1758 175.835C46.4656 172.449 43.7838 170.769 42.1779 174.749C40.9907 177.68 43.2538 178.538 45.8137 178.258C44.8438 182.964 40.2222 184.856 35.7543 184.612V185.407C42.215 186.981 45.9621 185.063 47.1281 178.374C49.7834 178.337 51.8822 177.955 53.0959 175.374C57.6009 178.443 60.871 175.152 57.585 170.859V170.853ZM43.1743 175.48C43.9746 174.33 44.7378 174.881 45.289 175.873C44.9922 175.756 42.8828 176.217 43.1743 175.48ZM54.0287 173.09C55.2583 171.262 56.8271 172.481 56.9331 174.283C55.9314 174.012 54.7177 173.965 54.0287 173.09Z" fill="#20261E"/>
<path id="Vector_23" d="M193.313 162.776C193.366 162.368 193.827 162.045 193.837 161.7L192.247 159.05C190.17 160.089 191.452 161.483 191.685 163.062C192.263 167.027 192.544 171.076 193.016 175.056C192.544 175.841 188.675 173.747 187.917 173.827C187.302 173.89 185.325 175.141 184.25 175.427C182.67 175.841 179.58 176.397 178.361 175.067C177.269 173.874 177.116 167.679 176.856 165.712C176.586 163.704 176.178 161.711 175.828 159.718C173.936 161.69 175.478 165.272 175.796 167.827C176.527 173.673 175.436 179.975 183.773 177.855C184.864 177.579 187.133 176.238 187.657 176.196C188.68 176.111 191.548 178.252 193.048 177.33C195.512 175.846 192.952 165.564 193.318 162.776H193.313Z" fill="#20261E"/>
<path id="Vector_24" d="M129.23 126.742C131.695 125.258 129.135 114.976 129.5 112.188C129.553 111.78 130.014 111.457 130.025 111.112L128.435 108.462C126.357 109.501 127.64 110.895 127.873 112.474C128.451 116.439 128.732 120.488 129.204 124.468C128.732 125.253 124.863 123.159 124.105 123.239C123.49 123.302 121.513 124.553 120.437 124.839C118.858 125.253 115.768 125.809 114.549 124.479C113.457 123.286 113.304 117.091 113.044 115.124C112.774 113.116 112.365 111.123 112.016 109.13C110.124 111.102 111.666 114.684 111.984 117.239C112.715 123.085 111.623 129.387 119.96 127.267C121.052 126.991 123.321 125.65 123.845 125.608C124.868 125.523 127.735 127.664 129.235 126.742H129.23Z" fill="#20261E"/>
<path id="Vector_25" d="M155.221 119.544C152.242 113.46 148.161 122.788 151.919 123.641C153.663 124.033 153.578 123.154 154.908 122.64C155.189 124.15 154.686 124.463 153.318 124.887C151.14 125.565 146.895 125.91 145.702 123.503C145.072 122.231 144.33 116.28 144.049 116.015C143.63 115.617 143.598 116.105 143.492 116.38C143.243 117.048 143.307 118.786 143.217 118.887C143.137 118.983 141.526 119.555 141.006 119.984C139.676 121.076 137.487 124.834 140.286 125.231C142.003 125.475 143.169 124.505 144.314 123.429C144.87 128.014 149.349 128.39 153.059 127.272C156.509 126.233 156.599 122.359 155.221 119.539V119.544ZM151.983 121.187C151.564 120.997 151.914 120.096 152.03 120.021C153.35 119.2 155.216 121.951 151.983 121.187ZM140.614 122.899C140.19 121.807 143.354 120.064 143.789 120.514L143.81 122.237C142.819 122.809 141.754 123 140.614 122.899Z" fill="#20261E"/>
<path id="Vector_26" d="M84.8689 175.867C85.4148 179.196 92.5486 178.798 93.6828 176.472C94.5997 174.585 93.7093 171.071 91.6264 170.308C90.683 172.846 92.3101 173.244 92.9461 175.337C90.5929 175.862 85.7699 177.108 86.0614 173.223C81.9433 175.322 73.7548 177.754 69.6632 174.929C67.2941 173.292 68.2958 171.993 68.847 169.905C68.9053 169.688 69.2816 168.951 68.7198 168.988C67.8559 169.052 66.7323 172.725 66.7588 173.594C66.9761 180.871 80.8886 178.496 84.8689 175.862V175.867Z" fill="#20261E"/>
<path id="Vector_27" d="M75.8691 220.901C75.3444 220.785 75.4875 221.097 75.3603 221.431C74.4063 223.869 75.9698 223.498 76.7648 225.539C76.6959 226.435 70.2246 226.874 69.4508 226.127C69.2653 225.952 68.4279 223.573 67.9244 224.336C66.3503 226.726 69.4243 229.302 68.8519 232.148C68.6187 233.309 65.55 234.639 64.4264 234.872C60.5044 235.678 57.1336 234.422 57.8067 229.842C57.918 229.069 58.2943 228.517 58.4798 227.866C58.5911 227.473 58.6865 227.155 58.1406 227.261C54.2239 232.964 57.2025 238.837 64.4264 237.257C68.6717 236.324 70.8288 233.144 69.9225 228.851C75.9592 229.503 80.7875 226.816 75.8744 220.907L75.8691 220.901Z" fill="#20261E"/>
<path id="Vector_28" d="M215.413 13.014C216.028 13.1836 216.441 12.8815 217.008 13.2313C217.634 13.6129 219.203 15.611 219.775 16.3053C220.321 16.9731 223.077 20.6301 223.177 21.1283C223.363 22.0187 221.301 24.5044 220.554 25.0132C220.215 25.2464 219.393 25.3259 219.293 25.4743C219.033 25.8612 218.794 27.3982 219.653 27.5519C220.183 27.6473 224.434 27.1756 224.895 26.9689C225.419 26.7357 225.865 24.8436 225.849 24.2659C225.817 23.0363 224.73 21.8067 224.82 20.5612C224.895 19.5595 225.647 17.7787 225.833 16.5226C226.108 14.6888 225.843 11.9805 226.188 10.523C226.315 9.99298 226.93 9.57428 226.93 9.14498C226.93 8.87998 225.605 6.70168 225.472 6.10278L224.11 8.08498C225.494 11.7261 224.715 15.8866 224.015 19.6019L219.123 12.9769C218.407 12.431 214.167 7.49138 213.425 8.21218C212.996 10.5442 212.715 12.2508 215.408 13.0034L215.413 13.014ZM224.81 24.9019L222.165 25.1669L223.755 22.5222C224.063 22.3155 225.011 24.7217 224.81 24.9019Z" fill="#20261E"/>
<path id="Vector_29" d="M199.975 111.435C200.102 110.905 200.717 110.486 200.717 110.057C200.717 109.792 199.392 107.614 199.259 107.015L197.897 108.997C199.28 112.638 198.501 116.799 197.802 120.514L192.91 113.889C192.194 113.343 187.954 108.404 187.212 109.124C186.783 111.456 186.502 113.163 189.194 113.916C189.809 114.085 190.223 113.783 190.79 114.133C191.415 114.514 192.984 116.513 193.556 117.207C194.102 117.875 196.858 121.532 196.959 122.03C197.144 122.92 195.083 125.406 194.335 125.915C193.996 126.148 193.175 126.227 193.074 126.376C192.814 126.763 192.576 128.3 193.434 128.453C193.964 128.549 198.215 128.077 198.676 127.87C199.201 127.637 199.646 125.745 199.63 125.167C199.598 123.938 198.512 122.708 198.602 121.463C198.676 120.461 199.429 118.68 199.614 117.424C199.89 115.59 199.625 112.882 199.969 111.425L199.975 111.435ZM198.597 125.814L195.952 126.079L197.542 123.434C197.849 123.228 198.798 125.634 198.597 125.814Z" fill="#20261E"/>
<path id="Vector_30" d="M10.2129 72.0243C10.3666 72.7345 8.31024 75.1619 7.66364 75.6018C7.32444 75.835 6.50294 75.9145 6.40224 76.0629C6.14254 76.4498 5.90404 77.9868 6.76264 78.1405C7.29264 78.2359 11.5432 77.7642 12.0043 77.5575C13.9441 76.6936 11.681 72.655 11.734 71.6904C11.787 70.7311 12.741 68.4733 12.9477 67.1112C13.2233 65.2774 12.9583 62.5691 13.3028 61.1116C13.43 60.5816 14.0448 60.1629 14.0448 59.7336C14.0448 59.4686 12.7198 57.2903 12.5873 56.6914L11.2252 58.6736C12.6721 62.426 11.734 66.6236 11.1298 70.4608C8.41094 66.8939 5.58604 62.3624 1.98734 59.6117C1.48914 59.2301 0.964438 58.7266 0.275438 58.8061C-0.153862 61.1381 -0.434762 62.8447 2.25764 63.5973C2.87244 63.7669 3.28584 63.4648 3.85294 63.8146C4.47834 64.1962 6.04714 66.1943 6.61954 66.8886C7.21844 67.62 10.0857 71.436 10.2129 72.0243ZM11.6598 75.4905L9.27484 75.7555L10.9973 73.3758L11.6598 75.4905Z" fill="#20261E"/>
<path id="Vector_31" d="M163.712 85.7566C167.958 84.8238 170.115 81.6438 169.208 77.3508C175.367 78.2094 179.029 74.6107 174.365 69.4061C173.766 69.2895 174.031 69.6658 173.936 70.0262C173.242 72.6338 174.779 72.2204 175.293 74.4358C174.058 74.8545 169.558 75.4269 168.742 74.6372C168.556 74.4623 167.719 72.0826 167.216 72.8458C165.641 75.2361 168.715 77.8119 168.143 80.658C167.91 81.8187 164.841 83.149 163.718 83.3822C159.933 84.1613 156.525 83.0536 157.061 78.5751C157.167 77.7006 157.564 77.107 157.771 76.3703C157.882 75.9781 157.978 75.6601 157.432 75.7661C153.515 81.4689 156.494 87.3413 163.718 85.7619L163.712 85.7566Z" fill="#20261E"/>
<path id="Vector_32" d="M51.7912 69.9362C50.8372 72.3742 52.4007 72.0032 53.1957 74.0437C53.1268 74.9553 48.1501 75.0507 47.2756 74.9606C45.4895 74.7751 44.1857 74.049 44.4878 72.0509C43.5391 72.3265 43.4543 73.4872 42.5056 74.1709C41.17 75.1302 38.4087 75.4429 37.2215 74.155C36.135 72.9731 35.976 66.7509 35.7163 64.8005C35.4513 62.8024 35.1333 60.7407 34.5609 58.8062C32.8967 61.0216 34.3277 64.2811 34.6563 66.9152C34.9478 69.2525 34.9372 73.8741 36.1615 75.7397C37.7091 78.1088 42.3678 77.8438 43.4331 75.2256C44.88 77.3986 47.1696 77.547 49.6182 77.3138C55.0772 76.7838 55.5171 73.2063 52.2947 69.4009C51.77 69.2843 51.9131 69.597 51.7859 69.9309L51.7912 69.9362Z" fill="#20261E"/>
<path id="Vector_33" d="M249.052 25.1564C250.599 27.5255 255.258 27.2605 256.323 24.6423C257.77 26.8153 260.06 26.9637 262.509 26.7305C267.968 26.2005 268.407 22.623 265.185 18.8176C264.66 18.701 264.804 19.0137 264.676 19.3476C263.722 21.7856 265.286 21.4146 266.081 23.4551C266.012 24.3667 261.035 24.4621 260.161 24.372C258.375 24.1865 257.071 23.4604 257.373 21.4623C256.424 21.7379 256.339 22.8986 255.391 23.5823C254.055 24.5416 251.294 24.8543 250.107 23.5664C249.02 22.3845 248.861 16.1623 248.601 14.2119C248.336 12.2138 248.018 10.1521 247.446 8.2176C245.782 10.433 247.213 13.6925 247.541 16.3266C247.833 18.6639 247.822 23.2855 249.047 25.1511L249.052 25.1564Z" fill="#20261E"/>
<path id="Vector_34" d="M289.555 224.892C290.631 224.797 290.604 223.89 291.537 223.811C291.537 224.182 291.595 224.585 291.484 224.95C290.991 226.567 284.181 227.145 282.941 225.655L280.285 210.307C278.632 212.453 280.063 215.564 280.381 218.15C280.773 221.309 280.338 228.109 284.319 228.782C289.873 229.715 294.611 227.293 292.009 221.092C288.94 213.794 284.043 225.396 289.555 224.897V224.892ZM288.617 222.359L288.797 221.198C291.071 220.986 290.97 223.085 288.617 222.359Z" fill="#20261E"/>
<path id="Vector_35" d="M224.349 126.037C227.201 125.486 225.462 119.645 223.088 119.216C220.639 119.592 220.024 123.774 218.551 124.722C217.29 125.533 213.861 125.661 212.774 124.479C211.682 123.297 211.529 117.075 211.269 115.124C210.999 113.115 210.59 111.123 210.241 109.13C208.349 111.101 209.891 114.684 210.209 117.239C210.511 119.65 210.469 124.569 211.958 126.35C214.004 128.809 219.033 127.834 220.168 124.786C221.302 125.305 223.109 126.275 224.344 126.032L224.349 126.037ZM221.111 122.507C222.341 120.679 223.909 121.898 224.015 123.7C223.014 123.429 221.8 123.382 221.111 122.507Z" fill="#20261E"/>
<path id="Vector_36" d="M183.455 75.8403C184.732 75.5329 185.448 74.6796 186.412 73.9058C186.677 74.7273 187.244 76.1371 187.827 76.7307C189.889 78.8136 193.302 77.4515 193.763 74.5047C194.505 69.74 191.797 64.5407 193.297 59.9933L191.58 57.2214L190.483 59.2036C191.341 61.5621 191.601 64.1697 191.94 66.6607C192.205 68.6111 192.719 71.3989 192.777 73.2539C192.841 75.2785 190.97 75.5382 189.322 75.1036C186.783 74.4358 186.576 68.7065 186.152 66.4911C184.048 67.2066 185.872 70.2117 185.877 71.6957C185.887 73.556 180.386 74.9128 179.792 72.8511C178.664 72.7027 178.865 74.9764 179.247 75.5859C179.713 76.3226 182.633 76.0417 183.455 75.8456V75.8403Z" fill="#20261E"/>
<path id="Vector_37" d="M98.8771 127.642C103.944 127.059 103.7 122.761 100.753 119.73C100.154 119.613 100.419 119.989 100.324 120.35C99.6297 122.957 101.167 122.544 101.681 124.759C99.4972 125.279 95.9038 126.09 94.388 123.98C93.2909 122.454 92.7556 116.359 92.4058 116.025C91.9871 115.627 91.9553 116.115 91.8493 116.391C91.6002 117.058 91.6638 118.797 91.5737 118.897C91.4942 118.993 89.883 119.565 89.3636 119.995C88.0333 121.086 85.8444 124.844 88.6428 125.242C90.36 125.485 91.526 124.515 92.6708 123.44C93.3492 126.996 95.3632 128.051 98.8665 127.648L98.8771 127.642ZM88.9767 122.899C88.5527 121.807 91.7168 120.063 92.1514 120.514L92.1726 122.236C91.1815 122.809 90.1162 123 88.9767 122.899Z" fill="#20261E"/>
<path id="Vector_38" d="M151.204 225.003C151.442 224.818 151.707 223.71 151.713 223.376C151.739 222.152 149.073 219.693 147.865 219.571C145.883 219.375 144.945 221.919 144.849 223.541C145.819 223.451 145.808 222.163 146.895 221.993C147.542 221.892 148.289 222.422 148.554 223.005C145.856 223.095 143.143 224.85 142.75 227.664C142.427 230.023 143.614 237.109 144.086 239.79C144.128 240.029 144.324 241.921 144.844 241.285C145.628 236.632 144.075 231.973 143.98 227.32C144.929 224.95 150.059 225.873 151.199 224.998L151.204 225.003Z" fill="#20261E"/>
<path id="Vector_39" d="M237.525 220.901C236.582 223.461 238.214 223.837 238.845 225.931C237.011 226.403 233.031 227.182 231.732 225.502C230.746 224.23 230.598 218.267 230.338 216.301C230.073 214.303 229.755 212.241 229.183 210.307C227.519 212.522 228.95 215.781 229.278 218.415C229.607 221.06 229.416 226.837 231.87 228.274C233.873 229.45 239.327 229.074 239.841 226.265C240.18 224.41 239.459 221.622 237.525 220.901Z" fill="#20261E"/>
<path id="Vector_40" d="M165.381 171.887C162.535 168.378 159.508 176.917 163.293 177.118C164.326 177.171 164.644 176.27 165.503 176.138C165.004 179.699 161.162 183.717 157.627 184.284C157.081 184.374 154.638 184.172 154.648 184.745C157.086 186.261 160.568 186.027 162.826 184.194C165.619 181.92 167.845 174.935 165.375 171.892L165.381 171.887ZM162.593 174.15L163.552 173.244L164.702 174.15C164.035 174.929 163.266 174.935 162.593 174.15Z" fill="#20261E"/>
<path id="Vector_41" d="M251.432 171.887C248.586 168.378 245.56 176.917 249.344 177.118C250.378 177.171 250.696 176.27 251.554 176.138C251.056 179.699 247.213 183.717 243.678 184.284C243.132 184.374 240.689 184.172 240.7 184.745C243.138 186.261 246.62 186.027 248.878 184.194C251.671 181.92 253.897 174.935 251.427 171.892L251.432 171.887ZM248.65 174.15L249.609 173.244L250.759 174.15C250.091 174.929 249.323 174.935 248.65 174.15Z" fill="#20261E"/>
<path id="Vector_42" d="M67.4105 121.304C64.5644 117.795 61.5381 126.333 65.3223 126.535C66.3558 126.588 66.6738 125.687 67.5324 125.554C67.0342 129.116 63.1917 133.133 59.6566 133.7C59.1107 133.79 56.6674 133.589 56.678 134.161C59.116 135.677 62.5981 135.444 64.8559 133.61C67.649 131.337 69.875 124.351 67.4052 121.309L67.4105 121.304ZM64.6227 123.561L65.582 122.655L66.7321 123.561C66.0643 124.341 65.2958 124.346 64.6227 123.561Z" fill="#20261E"/>
<path id="Vector_43" d="M226.405 33.2496C228.843 34.7654 232.326 34.5322 234.583 32.6984C237.376 30.4247 239.602 23.4393 237.133 20.3971C234.287 16.8885 231.26 25.4268 235.044 25.6282C236.078 25.6812 236.396 24.7802 237.255 24.6477C236.756 28.2093 232.914 32.2267 229.379 32.7938C228.833 32.8839 226.39 32.6825 226.4 33.2549L226.405 33.2496ZM234.35 22.6549L235.309 21.7486L236.46 22.6549C235.792 23.434 235.023 23.4393 234.35 22.6549Z" fill="#20261E"/>
<path id="Vector_44" d="M13.5204 83.8382C15.9584 85.354 19.4405 85.1208 21.6983 83.287C24.4914 81.0133 26.7174 74.0279 24.2476 70.9857C21.4015 67.4771 18.3752 76.0154 22.1594 76.2168C23.1929 76.2698 23.5109 75.3688 24.3695 75.2363C23.8713 78.7979 20.0288 82.8153 16.4937 83.3824C15.9478 83.4725 13.5045 83.2711 13.5151 83.8435L13.5204 83.8382ZM21.4651 73.2435L22.4244 72.3372L23.5745 73.2435C22.9067 74.0226 22.1382 74.0279 21.4651 73.2435Z" fill="#20261E"/>
<path id="Vector_45" d="M147.096 184.612C150.923 181.83 151.988 174.839 147.764 171.903C147.711 172.586 147.165 173.657 147.346 174.298C147.568 175.104 149.46 176.768 149.556 177.902C149.619 178.671 147.854 180.992 147.24 181.575C146.095 182.651 143.598 184.109 142.046 184.326C141.447 184.411 139.025 184.13 139.03 184.745C140.996 186.117 145.151 186.027 147.096 184.612Z" fill="#20261E"/>
<path id="Vector_46" d="M266.123 33.2495C268.09 34.6222 272.245 34.5321 274.19 33.117C278.016 30.3345 279.082 23.3438 274.858 20.4076C274.805 21.0913 274.259 22.1619 274.439 22.8032C274.662 23.6088 276.554 25.273 276.649 26.4072C276.713 27.1757 274.948 29.4971 274.333 30.0801C273.188 31.156 270.692 32.6135 269.139 32.8308C268.54 32.9156 266.118 32.6347 266.123 33.2495Z" fill="#20261E"/>
<path id="Vector_47" d="M53.2381 83.8381C55.2044 85.2108 59.3596 85.1207 61.3047 83.7056C65.1313 80.9231 66.1966 73.9324 61.9725 70.9962C61.9195 71.6799 61.3736 72.7505 61.5538 73.3918C61.7764 74.1974 63.6685 75.8616 63.7639 76.9958C63.8275 77.7643 62.0626 80.0857 61.4478 80.6687C60.303 81.7446 57.8067 83.2021 56.2538 83.4194C55.6549 83.5042 53.2328 83.2233 53.2381 83.8381Z" fill="#20261E"/>
<path id="Vector_48" d="M87.2704 107.55C87.9965 107.519 92.9679 107.036 93.217 106.877C93.376 106.777 93.7894 105.982 93.747 105.95C90.6518 105.738 87.546 106.914 84.4826 106.21C84.2017 105.902 86.327 104.423 86.4595 104.423C86.5655 104.423 86.9948 104.879 87.5248 104.916C88.5848 104.996 88.8392 104.185 89.1095 104.158C89.295 104.143 89.7614 104.567 90.1854 104.604C92.5121 104.826 95.549 104.121 94.6851 101.164C92.5863 99.77 91.3514 101.853 90.1748 103.289L88.9876 102.5C89.0353 103.348 87.7474 103.899 87.1644 103.522C86.751 103.257 86.1998 99.2665 86.3376 98.5298L85.5373 99.1923L86.0302 103.379C82.829 106.019 82.3202 107.757 87.2757 107.55H87.2704ZM94.0067 102.77L91.097 103.565C91.2348 102.213 93.6834 101.058 94.0067 102.77Z" fill="#20261E"/>
<path id="Vector_49" d="M98.6435 178.258C99.147 178.29 99.2583 177.781 99.3908 177.415C100.599 173.997 98.829 166.63 98.511 162.761C98.4368 161.844 98.5587 160.9 98.511 159.983C96.9581 160.386 97.1224 163.052 97.1754 164.361C97.3185 167.796 98.1877 171.712 98.5057 175.21C98.5428 175.64 98.3838 178.263 98.6435 178.258Z" fill="#20261E"/>
<path id="Vector_50" d="M241.76 177.866C241.802 178.237 241.913 178.634 242.284 178.258C243.641 173.361 242.253 168.013 241.76 163.026C241.659 161.982 242.178 160.307 241.23 159.718C240.949 160.773 240.302 161.558 240.265 162.718C240.17 165.564 241.171 170.069 241.489 173.096C241.648 174.596 241.574 176.403 241.754 177.866H241.76Z" fill="#20261E"/>
<path id="Vector_51" d="M57.4678 127.277C57.5102 127.648 57.6215 128.046 57.9925 127.669C59.3493 122.772 57.9607 117.424 57.4678 112.437C57.3671 111.393 57.8865 109.718 56.9378 109.13C56.6569 110.185 56.0103 110.969 55.9732 112.13C55.8778 114.976 56.8795 119.481 57.1975 122.507C57.3565 124.007 57.2823 125.814 57.4625 127.277H57.4678Z" fill="#20261E"/>
<path id="Vector_52" d="M182.977 210.307C182.696 211.361 182.05 212.146 182.013 213.306C181.917 216.152 182.919 220.657 183.237 223.684C183.396 225.184 183.322 226.991 183.502 228.454C183.544 228.825 183.656 229.222 184.027 228.846C185.384 223.949 183.995 218.601 183.502 213.614C183.401 212.57 183.921 210.895 182.972 210.307H182.977Z" fill="#20261E"/>
<path id="Vector_53" d="M61.9671 26.3701C62.0095 26.7411 62.1208 27.1386 62.4918 26.7623C64.05 20.821 61.3841 14.5299 61.4371 8.48794C60.8223 7.77774 59.9796 11.1485 60.1068 11.5195C60.923 16.4432 61.3894 21.4093 61.9671 26.3701Z" fill="#20261E"/>
<path id="Vector_54" d="M132.405 210.307C132.124 211.361 131.477 212.146 131.44 213.306C131.345 216.152 132.347 220.657 132.665 223.684C132.824 225.184 132.749 226.991 132.93 228.454C132.972 228.825 133.083 229.222 133.454 228.846C134.811 223.949 133.422 218.601 132.93 213.614C132.829 212.57 133.348 210.895 132.4 210.307H132.405Z" fill="#20261E"/>
<path id="Vector_55" d="M154.913 159.718C154.632 160.773 153.986 161.558 153.949 162.718C153.853 165.564 154.855 170.069 155.173 173.096C155.332 174.596 155.258 176.403 155.438 177.866C155.48 178.237 155.592 178.634 155.963 178.258C157.319 173.361 155.931 168.013 155.438 163.026C155.337 161.982 155.857 160.307 154.908 159.718H154.913Z" fill="#20261E"/>
<path id="Vector_56" d="M197.807 58.8062C197.526 59.8609 196.88 60.6453 196.842 61.806C196.747 64.6521 197.749 69.1571 198.067 72.1834C198.226 73.6833 198.152 75.4906 198.332 76.9534C198.374 77.3244 198.485 77.7219 198.856 77.3456C200.213 72.4484 198.825 67.1007 198.332 62.1134C198.231 61.0693 198.75 59.3945 197.802 58.8062H197.807Z" fill="#20261E"/>
<path id="Vector_57" d="M97.9754 22.9198C98.0708 23.7519 97.6574 24.8119 98.3729 25.4267C99.1997 25.4161 99.0831 20.9694 99.046 20.2539C98.8287 16.2418 97.4613 12.2668 97.7104 8.2176C96.5232 8.3554 96.3483 10.3323 96.3695 11.2651C96.4543 14.8214 97.562 19.2575 97.9754 22.9145V22.9198Z" fill="#20261E"/>
<path id="Vector_58" d="M76.7968 45.0367C75.0213 45.5137 71.6505 43.6905 70.9774 45.9695C70.723 46.8334 72.6946 45.8264 73.0921 46.102C73.0338 46.526 72.5091 46.4677 72.1752 46.9023C69.4616 50.4215 72.1328 53.9566 76.4576 52.78C76.6219 52.7376 78.3232 52.0327 77.8568 51.6617H73.7546C73.6751 51.6617 72.5674 51.0098 72.4243 50.872C71.0728 49.6106 72.0745 47.9093 73.4366 47.1037C74.7351 46.3405 76.8816 46.7115 76.8021 45.042L76.7968 45.0367Z" fill="#20261E"/>
<path id="Vector_59" d="M106.859 147.809C104.145 151.328 106.811 154.864 111.141 153.687C111.306 153.645 113.007 152.94 112.541 152.569H108.438C108.359 152.569 107.251 151.917 107.108 151.779C105.757 150.518 106.758 148.816 108.12 148.011C109.419 147.247 111.565 147.618 111.486 145.949C109.71 146.426 106.34 144.603 105.667 146.882C105.412 147.746 107.384 146.739 107.781 147.014C107.723 147.438 107.198 147.38 106.864 147.815L106.859 147.809Z" fill="#20261E"/>
<path id="Vector_60" d="M249.312 76.0314C249.964 74.6693 250.441 72.2736 249.164 71.1341C247.023 69.2208 245.258 75.3159 248.74 74.4414C249.047 74.3619 248.74 73.7947 249.174 73.906C248.311 76.8263 245.464 78.2255 242.555 77.881V78.6707C245.618 79.1689 247.86 79.0789 249.318 76.0314H249.312ZM248.242 73.1057L247.59 72.7082L247.987 72.3107L248.639 72.7082L248.242 73.1057Z" fill="#20261E"/>
<path id="Vector_61" d="M81.8262 123.959C81.8898 119.539 80.745 122.205 79.1603 123.281C78.2222 123.922 76.8442 123.906 76.5792 125.215C76.2824 126.657 77.2682 126.996 78.519 127.139C79.632 127.266 84.1211 126.964 85.0698 126.54C85.4885 126.355 85.8807 126.074 85.8012 125.554C83.0346 125.968 80.0984 125.984 77.3318 125.554C77.8512 124.807 78.8635 124.839 79.5843 124.235C80.1726 123.747 80.4906 122.433 81.3068 123.063C81.3757 123.583 81.0047 124.123 81.8315 123.964L81.8262 123.959Z" fill="#20261E"/>
<path id="Vector_62" d="M101.155 156.008C99.6608 156.549 97.4136 156.93 96.9207 154.953L98.0814 154.699L98.5478 155.436L99.1679 155.478C99.9099 155.176 99.5813 153.454 98.8658 153.125C96.5762 153.39 94.3979 155.356 96.6557 157.328C95.654 157.466 95.3678 158.361 95.0657 159.183L100.837 157.545L101.15 156.008H101.155Z" fill="#20261E"/>
<path id="Vector_63" d="M281.594 208.43C283.349 208.155 285.151 206.072 284.138 204.328C283.073 202.489 280.725 205.653 280.386 206.84L278.563 206.443L277.503 209.109L278.027 209.241C278.329 207.508 280.121 208.658 281.589 208.43H281.594ZM282.893 205.314L283.587 205.929C282.983 206.708 282.183 206.968 281.207 206.851C281.488 206.316 282.22 205.166 282.893 205.309V205.314Z" fill="#20261E"/>
<path id="Vector_64" d="M155.804 158.112C157.728 157.932 160.442 155.282 158.756 153.618C157.177 152.054 155.624 156.051 154.998 156.247C154.453 156.416 153.806 155.812 153.324 156.119C152.81 156.967 152.184 157.874 152.269 158.918C153.806 156.75 153.954 158.287 155.809 158.112H155.804ZM158.348 155.738L155.968 156.533C156.297 155.404 157.966 153.973 158.348 155.738Z" fill="#20261E"/>
<path id="Vector_65" d="M241.314 156.247C240.768 156.416 240.121 155.812 239.639 156.119C239.125 156.967 238.5 157.874 238.584 158.918C240.121 156.75 240.275 158.287 242.125 158.112C244.049 157.932 246.762 155.282 245.077 153.618C243.498 152.054 241.945 156.051 241.319 156.247H241.314ZM242.289 156.538C242.618 155.409 244.287 153.978 244.669 155.743L242.289 156.538Z" fill="#20261E"/>
<path id="Vector_66" d="M201.649 52.7114C200.069 51.1479 198.517 55.1441 197.891 55.3402C197.345 55.5098 196.699 54.9056 196.216 55.213C195.702 56.061 195.077 56.9673 195.162 58.0114C196.699 55.8437 196.852 57.3807 198.702 57.2058C200.626 57.0256 203.34 54.3756 201.654 52.7114H201.649ZM198.861 55.6264C199.19 54.4975 200.859 53.0665 201.241 54.8314L198.861 55.6264Z" fill="#20261E"/>
<path id="Vector_67" d="M57.023 105.664C56.4771 105.833 55.8305 105.229 55.3482 105.537C54.8341 106.385 54.2087 107.291 54.2935 108.335C55.8305 106.167 55.9842 107.704 57.8339 107.529C59.7578 107.349 62.4714 104.699 60.786 103.035C59.2066 101.471 57.6537 105.468 57.0283 105.664H57.023ZM57.9982 105.95C58.3268 104.821 59.9963 103.39 60.3779 105.155L57.9982 105.95Z" fill="#20261E"/>
<path id="Vector_68" d="M132.489 206.835C131.943 207.005 131.296 206.401 130.814 206.708C130.3 207.556 129.675 208.462 129.759 209.506C131.296 207.339 131.45 208.876 133.3 208.701C135.224 208.521 137.937 205.871 136.252 204.206C134.673 202.643 133.12 206.639 132.489 206.835ZM133.459 207.121C133.787 205.993 135.457 204.562 135.839 206.326L133.459 207.121Z" fill="#20261E"/>
<path id="Vector_69" d="M183.062 206.835C182.516 207.005 181.869 206.401 181.387 206.708C180.873 207.556 180.247 208.462 180.332 209.506C181.869 207.339 182.023 208.876 183.872 208.701C185.796 208.521 188.51 205.871 186.825 204.206C185.245 202.643 183.692 206.639 183.067 206.835H183.062ZM184.037 207.121C184.365 205.993 186.035 204.562 186.416 206.326L184.037 207.121Z" fill="#20261E"/>
<path id="Vector_70" d="M257.087 214.388C256.79 214.61 256.43 214.388 256.589 215.071C256.971 215.368 258.979 214.351 259.419 214.064C260.405 213.423 261.004 211.981 262.143 212.692C262.551 211.303 261.534 209.994 261.841 208.356C259.684 206.777 257.251 210.98 260.288 212.024C259.393 213.036 258.153 213.598 257.087 214.388ZM260.029 209.904V209.512H261.083V210.566H260.691L260.029 209.904Z" fill="#20261E"/>
<path id="Vector_71" d="M29.3725 110.831C29.0757 111.054 28.7153 110.831 28.8743 111.515C29.2559 111.812 31.2646 110.794 31.7045 110.508C32.6903 109.867 33.2892 108.425 34.4287 109.135C34.8368 107.747 33.8192 106.437 34.1266 104.8C31.9695 103.22 29.5368 107.423 32.5737 108.467C31.678 109.48 30.4378 110.041 29.3725 110.831ZM32.314 106.347V105.955H33.3687V107.01H32.9765L32.314 106.347Z" fill="#20261E"/>
<path id="Vector_72" d="M276.417 104.471C276.12 104.694 275.759 104.471 275.918 105.155C276.3 105.452 278.309 104.434 278.749 104.148C279.734 103.507 280.333 102.065 281.473 102.775C281.881 101.387 280.863 100.077 281.171 98.4398C279.014 96.8604 276.581 101.063 279.618 102.107C278.722 103.12 277.482 103.681 276.417 104.471ZM279.358 99.9874V99.5952H280.413V100.65H280.021L279.358 99.9874Z" fill="#20261E"/>
<path id="Vector_73" d="M253.647 63.6876C253.351 63.9102 252.99 63.6876 253.149 64.3713C253.531 64.6681 255.539 63.6505 255.979 63.3643C256.965 62.723 257.564 61.2814 258.704 61.9916C259.112 60.603 258.094 59.2939 258.401 57.6562C256.244 56.0768 253.812 60.2797 256.849 61.3238C255.953 62.3361 254.713 62.8979 253.647 63.6876ZM256.589 59.1985V58.8063H257.644V59.861H257.251L256.589 59.1985Z" fill="#20261E"/>
<path id="Vector_74" d="M95.5957 32.0572C95.7706 32.2215 98.516 31.0184 99.0248 30.8594C99.8622 30.5944 101.293 30.9707 101.309 29.6987C101.32 28.8242 100.609 29.4496 99.9788 29.4284C98.8446 29.3966 97.4825 29.6245 97.4507 28.0875C98.2351 28.0398 98.9877 27.9338 99.046 28.8825C99.2792 29.068 100.535 27.6105 99.4064 26.7731C98.4948 26.1 96.2741 27.6688 96.1416 28.75L96.9207 30.4619C96.1628 30.552 95.6275 31.3099 95.601 32.0572H95.5957Z" fill="#20261E"/>
<path id="Vector_75" d="M154.707 216.863C156.148 216.741 159.556 215.109 159.121 213.243C156.424 212.188 154.452 211.07 153.588 214.807C154.394 214.716 154.622 214.012 155.565 214.006C155.772 214.006 157.558 214.25 157.028 214.807C156.18 214.769 152.38 217.07 154.707 216.868V216.863Z" fill="#20261E"/>
<path id="Vector_76" d="M190.917 6.62767C190.069 6.59057 186.269 8.89077 188.595 8.68937C190.037 8.56747 193.445 6.93507 193.01 5.06947C190.313 4.01477 188.341 2.89647 187.477 6.63297C188.283 6.54287 188.511 5.83797 189.454 5.83267C189.661 5.83267 191.447 6.07647 190.917 6.63297V6.62767Z" fill="#20261E"/>
<path id="Vector_77" d="M230.878 155.24C228.181 154.185 226.209 153.067 225.345 156.803C226.151 156.713 226.379 156.008 227.322 156.003C227.529 156.003 229.315 156.247 228.785 156.803C227.937 156.766 224.137 159.066 226.464 158.865C227.905 158.743 231.313 157.111 230.878 155.245V155.24Z" fill="#20261E"/>
<path id="Vector_78" d="M249.238 106.952C250.68 106.83 254.088 105.197 253.653 103.332C250.955 102.277 248.984 101.159 248.12 104.895C248.925 104.805 249.153 104.1 250.097 104.095C250.303 104.095 252.089 104.339 251.559 104.895C250.711 104.858 246.911 107.158 249.238 106.957V106.952Z" fill="#20261E"/>
<path id="Vector_79" d="M84.212 10.3325C83.364 10.2954 79.5639 12.5956 81.8906 12.3942C83.3322 12.2723 86.7401 10.6399 86.3055 8.7743C83.6078 7.7196 81.6362 6.6013 80.7723 10.3378C81.5779 10.2477 81.8058 9.5428 82.7492 9.5375C82.9559 9.5375 84.742 9.7813 84.212 10.3378V10.3325Z" fill="#20261E"/>
<path id="Vector_80" d="M42.1726 111.981C43.6142 111.859 47.0221 110.227 46.5875 108.361C43.8898 107.306 41.9182 106.188 41.0543 109.924C41.8599 109.834 42.0878 109.129 43.0312 109.124C43.2379 109.124 45.024 109.368 44.494 109.924C43.646 109.887 39.8459 112.188 42.1726 111.986V111.981Z" fill="#20261E"/>
<path id="Vector_81" d="M125.78 12.1875C124.932 12.1504 121.132 14.4506 123.458 14.2492C124.9 14.1273 128.308 12.4949 127.873 10.6293C125.175 9.5746 123.204 8.4563 122.34 12.1928C123.146 12.1027 123.373 11.3978 124.317 11.3925C124.524 11.3925 126.31 11.6363 125.78 12.1928V12.1875Z" fill="#20261E"/>
<path id="Vector_82" d="M123.463 161.509C124.905 161.388 128.313 159.755 127.878 157.89C125.181 156.835 123.209 155.717 122.345 159.453C123.151 159.363 123.379 158.658 124.322 158.653C124.529 158.653 126.315 158.897 125.785 159.453C124.937 159.416 121.137 161.716 123.463 161.515V161.509Z" fill="#20261E"/>
<path id="Vector_83" d="M171.057 6.62767C170.209 6.59057 166.409 8.89077 168.736 8.68937C170.178 8.56747 173.586 6.93507 173.151 5.06947C170.453 4.01477 168.482 2.89647 167.618 6.63297C168.423 6.54287 168.651 5.83797 169.595 5.83267C169.801 5.83267 171.587 6.07647 171.057 6.63297V6.62767Z" fill="#20261E"/>
<path id="Vector_84" d="M246.853 216.068C248.295 215.946 251.703 214.314 251.268 212.448C248.57 211.393 246.599 210.275 245.735 214.012C246.54 213.921 246.768 213.217 247.712 213.211C247.918 213.211 249.704 213.455 249.174 214.012C248.326 213.974 244.526 216.275 246.853 216.073V216.068Z" fill="#20261E"/>
<path id="Vector_85" d="M97.4507 61.9863C98.2563 61.8962 98.4842 61.1913 99.4276 61.186C99.6343 61.186 101.42 61.4298 100.89 61.9863C100.042 61.9492 96.2423 64.2494 98.569 64.048C100.011 63.9261 103.418 62.2937 102.984 60.4281C100.286 59.3734 98.3146 58.2551 97.4507 61.9916V61.9863Z" fill="#20261E"/>
<path id="Vector_86" d="M173.183 206.067C173.988 205.976 174.216 205.272 175.16 205.266C175.366 205.266 177.152 205.51 176.622 206.067C175.774 206.029 171.974 208.33 174.301 208.128C175.743 208.006 179.151 206.374 178.716 204.508C176.018 203.454 174.047 202.335 173.183 206.072V206.067Z" fill="#20261E"/>
<path id="Vector_87" d="M122.605 206.067C123.411 205.976 123.638 205.272 124.582 205.266C124.789 205.266 126.575 205.51 126.045 206.067C125.197 206.029 121.397 208.33 123.723 208.128C125.165 208.006 128.573 206.374 128.138 204.508C125.44 203.454 123.469 202.335 122.605 206.072V206.067Z" fill="#20261E"/>
<path id="Vector_88" d="M271.741 56.628C273.183 56.5061 276.591 54.8737 276.156 53.0081C273.459 51.9534 271.487 50.8351 270.623 54.5716C271.429 54.4815 271.657 53.7766 272.6 53.7713C272.807 53.7713 274.593 54.0151 274.063 54.5716C273.215 54.5345 269.415 56.8347 271.741 56.6333V56.628Z" fill="#20261E"/>
<path id="Vector_89" d="M145.178 165.749C146.62 165.628 150.027 163.995 149.593 162.13C146.895 161.075 144.924 159.957 144.06 163.693C144.865 163.603 145.093 162.898 146.037 162.893C146.243 162.893 148.029 163.137 147.499 163.693C146.651 163.656 142.851 165.956 145.178 165.755V165.749Z" fill="#20261E"/>
<path id="Vector_90" d="M208.132 164.743C207.284 164.706 203.483 167.006 205.81 166.804C207.252 166.682 210.66 165.05 210.225 163.184C207.527 162.13 205.556 161.011 204.692 164.748C205.497 164.658 205.725 163.953 206.669 163.948C206.875 163.948 208.662 164.191 208.132 164.748V164.743Z" fill="#20261E"/>
<path id="Vector_91" d="M40.8528 166.539C42.2944 166.417 45.7023 164.785 45.2677 162.919C42.57 161.865 40.5984 160.746 39.7345 164.483C40.5401 164.393 40.768 163.688 41.7114 163.683C41.9181 163.683 43.7042 163.926 43.1742 164.483C42.3262 164.446 38.5261 166.746 40.8528 166.545V166.539Z" fill="#20261E"/>
<path id="Vector_92" d="M107.001 6.10808C109.683 7.46488 113.139 6.78648 114.13 3.71778C112.847 3.92448 111.92 4.95268 110.521 5.02158C109.265 5.08518 107.966 4.34848 106.736 4.25308L105.926 7.15218C106.562 7.23168 106.895 6.60628 107.001 6.10278V6.10808Z" fill="#20261E"/>
<path id="Vector_93" d="M114.66 155.219C113.372 155.425 112.45 156.454 111.051 156.523C109.795 156.586 108.496 155.849 107.266 155.754L106.456 158.653C107.092 158.733 107.425 158.107 107.531 157.604C110.213 158.961 113.669 158.282 114.66 155.213V155.219Z" fill="#20261E"/>
<path id="Vector_94" d="M174.105 81.591L176.061 82.8895L177.089 81.1829L175.117 79.4922L173.803 80.7589L172.022 79.7519L170.835 81.2518L170.915 81.8507L172.785 83.128L174.105 81.591Z" fill="#20261E"/>
<path id="Vector_95" d="M125.515 30.4671L123.543 29.1421L122.382 31.0925L124.11 32.5553L125.414 31.2833L127.47 32.3062L128.594 30.748L126.707 28.8824L125.515 30.4671Z" fill="#20261E"/>
<path id="Vector_96" d="M198.199 7.9684L196.472 7.0144L195.152 8.8747L197.182 10.3163L198.491 9.039C199.222 8.9118 200.489 11.5777 201.464 8.3977L199.514 6.654L198.194 7.9737L198.199 7.9684Z" fill="#20261E"/>
<path id="Vector_97" d="M77.0306 168.686L74.8311 167.668L73.6545 169.613L75.377 171.087L76.9246 169.767L78.7478 170.822L79.8555 168.983L77.9899 167.409L77.0306 168.686Z" fill="#20261E"/>
<path id="Vector_98" d="M279.49 108.875L277.762 107.921L276.443 109.782L278.473 111.223L279.782 109.946C280.513 109.819 281.78 112.485 282.755 109.305L280.805 107.561L279.485 108.881L279.49 108.875Z" fill="#20261E"/>
<path id="Vector_99" d="M143.407 113.37L145.469 114.408L146.582 112.569L144.716 110.99L143.518 112.575L141.531 111.26L140.338 112.967L142.114 114.658L143.407 113.37Z" fill="#20261E"/>
<path id="Vector_100" d="M265.291 69.3637L266.251 68.1394L268.058 69.1093L269.277 67.4451C269.235 67.2172 267.332 65.5742 266.908 66.0777L265.986 67.2543L264.396 65.9664L262.97 67.9062C263.277 68.415 264.756 69.6764 265.291 69.3637Z" fill="#20261E"/>
<path id="Vector_101" d="M110.065 63.6029L111.862 64.6311L113.055 62.951L111.083 61.2073L109.996 62.4793L108.205 61.467L107.007 63.3909L109.095 64.8961L110.065 63.6029Z" fill="#20261E"/>
<path id="Vector_102" d="M152.354 112.818L150.568 111.801L149.47 113.635L151.336 115.193L152.656 113.635L154.378 114.843L155.656 113.232L153.329 111.52L152.354 112.818Z" fill="#20261E"/>
<path id="Vector_103" d="M168.281 216.137L170.263 217.456L171.307 215.368L169.569 214.038L168.265 215.357L166.182 214.26L164.995 216.004L166.749 217.43C167.576 217.652 167.788 216.592 168.281 216.142V216.137Z" fill="#20261E"/>
<path id="Vector_104" d="M53.2333 59.8663C52.9153 60.6348 53.2598 61.769 52.3058 61.9916C51.0603 62.2831 51.9931 60.4917 50.8483 60.6613C51.2352 62.7601 47.9704 63.8731 48.9933 61.1966C48.2566 60.4546 46.7143 64.6151 49.6452 64.1116C50.3448 63.9897 50.684 63.1311 50.9755 63.1152C51.4684 63.0887 51.9136 64.1328 53.1061 63.0516C54.2562 62.0022 53.6997 59.5165 53.2333 59.8716V59.8663Z" fill="#20261E"/>
<path id="Vector_105" d="M190.243 55.8966C190.943 55.7747 191.282 54.9161 191.574 54.9002C192.066 54.8737 192.512 55.9178 193.704 54.8366C194.854 53.7872 194.298 51.3015 193.831 51.6566C193.513 52.4251 193.858 53.5593 192.904 53.7819C191.658 54.0734 192.591 52.282 191.446 52.4516C191.833 54.5504 188.568 55.6634 189.591 52.9869C188.855 52.2449 187.312 56.4054 190.243 55.9019V55.8966Z" fill="#20261E"/>
<path id="Vector_106" d="M272.478 160.248C272.16 161.017 272.505 162.151 271.551 162.373C270.305 162.665 271.238 160.873 270.093 161.043C270.48 163.142 267.215 164.255 268.238 161.578C267.502 160.836 265.959 164.997 268.89 164.493C269.59 164.371 269.929 163.513 270.221 163.497C270.713 163.47 271.159 164.515 272.351 163.433C273.501 162.384 272.945 159.898 272.478 160.253V160.248Z" fill="#20261E"/>
<path id="Vector_107" d="M262.53 13.5179C263.23 13.396 263.569 12.5374 263.861 12.5215C264.353 12.495 264.799 13.5391 265.991 12.4579C267.141 11.4085 266.585 8.92276 266.118 9.27786C265.8 10.0464 266.145 11.1806 265.191 11.4032C263.945 11.6947 264.878 9.90326 263.733 10.0729C264.12 12.1717 260.855 13.2847 261.878 10.6082C261.142 9.86616 259.599 14.0267 262.53 13.5232V13.5179Z" fill="#20261E"/>
<path id="Vector_108" d="M260.415 115.49C261.115 115.368 261.454 114.509 261.746 114.493C262.239 114.467 262.684 115.511 263.876 114.43C265.026 113.38 264.47 110.894 264.004 111.25C263.686 112.018 264.03 113.152 263.076 113.375C261.831 113.666 262.763 111.875 261.619 112.045C262.005 114.143 258.741 115.256 259.764 112.58C259.027 111.838 257.485 115.998 260.415 115.495V115.49Z" fill="#20261E"/>
<path id="Vector_109" d="M73.7551 232.238L72.0379 231.226L71.2747 233.304C72.552 234.014 73.5325 234.867 73.8929 232.811L76.0023 233.871L76.8026 232.164L75.0377 230.982L73.7604 232.233L73.7551 232.238Z" fill="#20261E"/>
<path id="Vector_110" d="M269.028 59.6011C268.811 59.3891 263.628 61.7741 263.394 61.9702C263.087 62.2246 262.477 63.6291 262.679 63.8358C264.841 62.7069 268.382 62.3624 269.034 59.6011H269.028Z" fill="#20261E"/>
<path id="Vector_111" d="M101.156 148.063C100.939 147.851 95.7552 150.236 95.522 150.433C95.2146 150.687 94.6051 152.091 94.8065 152.298C96.9689 151.169 100.509 150.83 101.156 148.063Z" fill="#20261E"/>
<path id="Vector_112" d="M224.286 63.8358C226.448 62.7069 229.989 62.3624 230.64 59.6011C230.423 59.3891 225.24 61.7741 225.007 61.9702C224.699 62.2246 224.09 63.6291 224.291 63.8358H224.286Z" fill="#20261E"/>
<path id="Vector_113" d="M240.434 208.982C240.217 208.77 235.033 211.155 234.8 211.351C234.493 211.605 233.883 213.01 234.085 213.217C236.247 212.088 239.788 211.743 240.434 208.982Z" fill="#20261E"/>
<path id="Vector_114" d="M170.793 208.452C170.576 208.24 165.392 210.625 165.159 210.821C164.852 211.075 164.242 212.48 164.444 212.687C166.606 211.558 170.146 211.213 170.798 208.452H170.793Z" fill="#20261E"/>
<path id="Vector_115" d="M215.546 211.102C215.329 210.89 210.145 213.275 209.912 213.471C209.605 213.725 208.995 215.13 209.196 215.337C211.359 214.208 214.899 213.863 215.551 211.102H215.546Z" fill="#20261E"/>
<path id="Vector_116" d="M30.1993 158.393C32.3617 157.264 35.9021 156.92 36.5487 154.158C36.3314 153.946 31.148 156.331 30.9148 156.528C30.6074 156.782 29.9979 158.186 30.1993 158.393Z" fill="#20261E"/>
<path id="Vector_117" d="M124.195 112.045C123.978 111.833 118.795 114.218 118.561 114.414C118.254 114.668 117.645 116.073 117.846 116.279C120.008 115.15 123.549 114.806 124.201 112.045H124.195Z" fill="#20261E"/>
<path id="Vector_118" d="M136.904 157.333C136.687 157.121 131.503 159.506 131.27 159.702C130.963 159.957 130.353 161.361 130.555 161.568C132.717 160.439 136.257 160.095 136.909 157.333H136.904Z" fill="#20261E"/>
<path id="Vector_119" d="M60.5689 215.585C60.2615 215.84 59.652 217.244 59.8534 217.451C62.0158 216.322 65.5562 215.983 66.2081 213.216C65.9908 213.004 60.8074 215.389 60.5742 215.585H60.5689Z" fill="#20261E"/>
<path id="Vector_120" d="M67.2628 111.78C67.0455 111.568 61.8621 113.953 61.6289 114.149C61.3215 114.403 60.712 115.808 60.9134 116.014C63.0758 114.885 66.6162 114.541 67.2628 111.78Z" fill="#20261E"/>
<path id="Vector_121" d="M291.802 207.127C291.584 206.915 286.401 209.3 286.168 209.496C285.86 209.75 285.251 211.155 285.452 211.362C287.615 210.233 291.155 209.893 291.802 207.127Z" fill="#20261E"/>
<path id="Vector_122" d="M207.071 206.862C206.854 206.65 201.67 209.035 201.437 209.231C201.13 209.485 200.52 210.89 200.722 211.097C202.884 209.968 206.424 209.623 207.076 206.862H207.071Z" fill="#20261E"/>
<path id="Vector_123" d="M106.721 210.567C108.884 209.438 112.424 209.093 113.071 206.332C112.853 206.12 107.67 208.505 107.437 208.701C107.129 208.955 106.52 210.36 106.721 210.567Z" fill="#20261E"/>
<path id="Vector_124" d="M170.267 115.219C172.43 114.09 175.97 113.746 176.617 110.985C176.399 110.773 171.216 113.158 170.983 113.354C170.675 113.608 170.066 115.013 170.267 115.219Z" fill="#20261E"/>
<path id="Vector_125" d="M73.0919 165.808C75.2543 164.679 78.7947 164.335 79.4466 161.573C79.2293 161.361 74.0459 163.746 73.8127 163.942C73.5053 164.197 72.8958 165.601 73.0972 165.808H73.0919Z" fill="#20261E"/>
<path id="Vector_126" d="M188.537 157.333C190.699 156.204 194.24 155.86 194.886 153.098C194.669 152.886 189.485 155.271 189.252 155.468C188.945 155.722 188.335 157.126 188.537 157.333Z" fill="#20261E"/>
<path id="Vector_127" d="M86.3263 59.6011C86.109 59.3891 80.9256 61.7741 80.6924 61.9702C80.385 62.2246 79.7755 63.6291 79.9769 63.8358C82.1393 62.7069 85.6797 62.3624 86.3263 59.6011Z" fill="#20261E"/>
<path id="Vector_128" d="M224.015 110.19C223.798 109.978 218.615 112.363 218.382 112.559C218.074 112.813 217.465 114.218 217.666 114.424C219.828 113.295 223.369 112.956 224.015 110.19Z" fill="#20261E"/>
<path id="Vector_129" d="M227.461 1.06816C227.243 0.856164 222.06 3.24116 221.827 3.43726C221.519 3.69166 220.91 5.09616 221.111 5.30286C223.273 4.17396 226.814 3.83476 227.466 1.06816H227.461Z" fill="#20261E"/>
<path id="Vector_130" d="M276.708 10.6025C276.491 10.3905 271.307 12.7755 271.074 12.9716C270.767 13.226 270.157 14.6305 270.359 14.8372C272.521 13.7083 276.061 13.3638 276.708 10.6025Z" fill="#20261E"/>
<path id="Vector_131" d="M46.3485 59.6011C46.1312 59.3891 40.9478 61.7741 40.7146 61.9702C40.4072 62.2246 39.7977 63.6291 39.9991 63.8358C42.1615 62.7069 45.7019 62.3624 46.3538 59.6011H46.3485Z" fill="#20261E"/>
<path id="Vector_132" d="M237.254 10.6025C237.037 10.3905 231.853 12.7755 231.62 12.9716C231.313 13.226 230.703 14.6305 230.905 14.8372C233.067 13.7083 236.607 13.3638 237.254 10.6025Z" fill="#20261E"/>
<path id="Vector_133" d="M34.1637 10.6025C33.9464 10.3905 28.763 12.7755 28.5298 12.9716C28.2224 13.226 27.6129 14.6305 27.8143 14.8372C29.9767 13.7083 33.5171 13.3638 34.1637 10.6025Z" fill="#20261E"/>
<path id="Vector_134" d="M285.713 56.9568C285.496 56.7448 280.312 59.1298 280.079 59.3259C279.772 59.5803 279.162 60.9848 279.363 61.1915C281.526 60.0626 285.066 59.7181 285.718 56.9568H285.713Z" fill="#20261E"/>
<path id="Vector_135" d="M215.546 59.6015C217.708 58.4726 221.249 58.1281 221.901 55.3668C221.683 55.1548 216.5 57.5398 216.267 57.7359C215.959 57.9903 215.35 59.3948 215.551 59.6015H215.546Z" fill="#20261E"/>
<path id="Vector_136" d="M283.858 159.188C283.641 158.976 278.457 161.361 278.224 161.557C277.917 161.812 277.307 163.216 277.508 163.423C279.671 162.294 283.211 161.955 283.858 159.188Z" fill="#20261E"/>
<path id="Vector_137" d="M246.259 109.925C246.042 109.713 240.858 112.098 240.625 112.294C240.318 112.548 239.708 113.953 239.91 114.159C242.072 113.03 245.612 112.686 246.264 109.925H246.259Z" fill="#20261E"/>
<path id="Vector_138" d="M165.233 162.368C165.016 162.156 159.832 164.541 159.599 164.737C159.292 164.992 158.682 166.396 158.884 166.603C161.046 165.474 164.587 165.13 165.238 162.368H165.233Z" fill="#20261E"/>
<path id="Vector_139" d="M200.981 0.0133397C200.764 -0.19866 195.58 2.18634 195.347 2.38244C195.04 2.63684 194.43 4.04134 194.632 4.24804C196.794 3.11914 200.335 2.77464 200.981 0.0133397Z" fill="#20261E"/>
<path id="Vector_140" d="M259.234 9.01816C259.016 8.80616 253.833 11.1912 253.6 11.3873C253.292 11.6417 252.683 13.0462 252.884 13.2529C255.047 12.124 258.587 11.7795 259.234 9.01816Z" fill="#20261E"/>
<path id="Vector_141" d="M251.554 162.368C251.336 162.156 246.153 164.541 245.92 164.737C245.612 164.992 245.003 166.396 245.204 166.603C247.367 165.474 250.907 165.13 251.554 162.368Z" fill="#20261E"/>
<path id="Vector_142" d="M113.871 13.2529C116.033 12.124 119.574 11.7795 120.226 9.01816C120.008 8.80616 114.825 11.1912 114.592 11.3873C114.284 11.6417 113.675 13.0462 113.876 13.2529H113.871Z" fill="#20261E"/>
<path id="Vector_143" d="M188.007 162.633C187.789 162.421 182.606 164.806 182.373 165.002C182.065 165.257 181.456 166.661 181.657 166.868C183.82 165.739 187.36 165.395 188.012 162.633H188.007Z" fill="#20261E"/>
<path id="Vector_144" d="M46.0835 2.39316C45.8662 2.18116 40.6828 4.56616 40.4496 4.76226C40.1422 5.01666 39.5327 6.42116 39.7341 6.62786C41.8965 5.49896 45.4369 5.15446 46.0835 2.39316Z" fill="#20261E"/>
<path id="Vector_145" d="M24.3691 61.1911C24.1518 60.9791 18.9684 63.3641 18.7352 63.5602C18.4278 63.8146 17.8183 65.2191 18.0197 65.4258C20.1821 64.2969 23.7225 63.9524 24.3744 61.1911H24.3691Z" fill="#20261E"/>
<path id="Vector_146" d="M136.374 2.65816C136.157 2.44616 130.973 4.83116 130.74 5.02726C130.433 5.28166 129.823 6.68616 130.025 6.89286C132.187 5.76396 135.727 5.41946 136.374 2.65816Z" fill="#20261E"/>
<path id="Vector_147" d="M195.612 104.349C195.305 104.603 194.695 106.008 194.897 106.215C197.059 105.086 200.6 104.746 201.246 101.98C201.029 101.768 195.845 104.153 195.612 104.349Z" fill="#20261E"/>
<path id="Vector_148" d="M294.181 56.4268C293.964 56.2148 288.781 58.5998 288.548 58.7959C288.24 59.0503 287.631 60.4548 287.832 60.6615C289.994 59.5326 293.535 59.1881 294.187 56.4268H294.181Z" fill="#20261E"/>
<path id="Vector_149" d="M274.853 105.955C274.636 105.743 269.452 108.128 269.219 108.324C268.912 108.578 268.302 109.983 268.504 110.19C270.666 109.061 274.206 108.721 274.858 105.955H274.853Z" fill="#20261E"/>
<path id="Vector_150" d="M125.44 104.879C125.133 105.133 124.523 106.538 124.725 106.745C126.887 105.616 130.427 105.271 131.074 102.51C130.857 102.298 125.673 104.683 125.44 104.879Z" fill="#20261E"/>
<path id="Vector_151" d="M14.5692 51.6568C14.3519 51.4448 9.16853 53.8298 8.93533 54.0259C8.62793 54.2803 8.01843 55.6848 8.21983 55.8915C10.3822 54.7626 13.9226 54.4234 14.5692 51.6568Z" fill="#20261E"/>
<path id="Vector_152" d="M165.498 61.7211C165.281 61.5091 160.097 63.8941 159.864 64.0902C159.557 64.3446 158.947 65.7491 159.149 65.9558C161.311 64.8269 164.852 64.4824 165.498 61.7211Z" fill="#20261E"/>
<path id="Vector_153" d="M20.6591 160.513C20.4418 160.301 15.2584 162.686 15.0252 162.882C14.7178 163.137 14.1083 164.541 14.3097 164.748C16.4721 163.619 20.0125 163.275 20.6591 160.513Z" fill="#20261E"/>
<path id="Vector_154" d="M148.819 110.19C150.981 109.061 154.522 108.721 155.173 105.955C154.956 105.743 149.773 108.128 149.54 108.324C149.232 108.578 148.623 109.983 148.824 110.19H148.819Z" fill="#20261E"/>
<path id="Vector_155" d="M146.434 105.955C146.216 105.743 141.033 108.128 140.8 108.324C140.492 108.578 139.883 109.983 140.084 110.19C142.247 109.061 145.787 108.721 146.439 105.955H146.434Z" fill="#20261E"/>
<path id="Vector_156" d="M147.494 8.22316C147.276 8.01116 142.093 10.3962 141.86 10.5923C141.552 10.8467 140.943 12.2512 141.144 12.4579C143.307 11.329 146.847 10.9845 147.494 8.22316Z" fill="#20261E"/>
<path id="Vector_157" d="M63.823 61.1911C63.6057 60.9791 58.4223 63.3641 58.1891 63.5602C57.8817 63.8146 57.2722 65.2191 57.4736 65.4258C59.636 64.2969 63.1764 63.9524 63.8283 61.1911H63.823Z" fill="#20261E"/>
<path id="Vector_158" d="M120.75 160.513C120.533 160.301 115.35 162.686 115.116 162.882C114.809 163.137 114.2 164.541 114.401 164.748C116.563 163.619 120.104 163.275 120.75 160.513Z" fill="#20261E"/>
<path id="Vector_159" d="M112.806 55.6318C112.588 55.4198 107.405 57.8048 107.172 58.0009C106.864 58.2553 106.255 59.6598 106.456 59.8665C108.619 58.7376 112.159 58.3984 112.806 55.6318Z" fill="#20261E"/>
<path id="Vector_160" d="M56.6732 160.778C56.4559 160.566 51.2725 162.951 51.0393 163.147C50.7319 163.402 50.1224 164.806 50.3238 165.013C52.4862 163.884 56.0266 163.545 56.6785 160.778H56.6732Z" fill="#20261E"/>
<path id="Vector_161" d="M23.7072 170.837C24.216 170.811 24.8997 167.822 24.8944 167.265C24.8944 166.613 23.9881 163.746 23.5323 163.476C22.8804 163.089 22.3398 164.101 22.3398 164.62C22.3398 164.885 23.3733 166.486 23.5058 167.329C23.6595 168.309 23.4846 168.892 23.4316 169.783C23.4051 170.238 23.1083 170.456 23.7019 170.837H23.7072Z" fill="#20261E"/>
<path id="Vector_162" d="M102.083 222.216C102.592 222.189 103.275 219.2 103.27 218.644C103.27 217.992 102.364 215.124 101.908 214.854C101.256 214.467 100.716 215.48 100.716 215.999C100.716 216.264 101.749 217.865 101.882 218.707C102.035 219.688 101.86 220.271 101.807 221.161C101.781 221.617 101.484 221.834 102.078 222.216H102.083Z" fill="#20261E"/>
<path id="Vector_163" d="M188.988 49.7911C188.68 50.0402 188.087 51.4288 188.272 51.6567C189.454 50.8723 192.729 50.0349 193.646 49.2929C193.927 49.065 194.468 47.5333 194.357 47.422C194.15 47.2153 189.269 49.5579 188.988 49.7911Z" fill="#20261E"/>
<path id="Vector_164" d="M265.932 6.91415C266.213 6.68625 266.754 5.15456 266.643 5.04326C266.436 4.83656 261.555 7.17915 261.274 7.41235C260.966 7.66145 260.373 9.05005 260.558 9.27795C261.74 8.49355 265.015 7.65615 265.932 6.91415Z" fill="#20261E"/>
<path id="Vector_165" d="M267.628 158.377C267.321 158.627 266.727 160.015 266.913 160.243C268.095 159.459 271.37 158.621 272.287 157.879C272.568 157.651 273.109 156.12 272.997 156.008C272.791 155.802 267.909 158.144 267.628 158.377Z" fill="#20261E"/>
<path id="Vector_166" d="M47.6731 59.866C48.855 59.0816 52.1304 58.2442 53.0473 57.5022C53.3282 57.2743 53.8688 55.7426 53.7575 55.6313C53.5508 55.4246 48.6695 57.7672 48.3886 58.0004C48.0812 58.2495 47.4876 59.6381 47.6731 59.866Z" fill="#20261E"/>
<path id="Vector_167" d="M186.417 79.4659C184.308 80.0277 180.767 80.2767 180.062 82.6405C180.735 82.667 187.689 80.6054 186.417 79.4659Z" fill="#20261E"/>
<path id="Vector_168" d="M94.8016 79.9959C92.6922 80.5577 89.1518 80.8068 88.4469 83.1706C89.12 83.1971 96.0736 81.1354 94.8016 79.9959Z" fill="#20261E"/>
<path id="Vector_169" d="M80.7671 241.556C81.4402 241.582 88.3938 239.52 87.1218 238.381C85.0124 238.943 81.472 239.192 80.7671 241.556Z" fill="#20261E"/>
<path id="Vector_170" d="M91.8919 235.196C92.565 235.222 99.5186 233.16 98.2466 232.021C96.1372 232.583 92.5968 232.832 91.8919 235.196Z" fill="#20261E"/>
<path id="Vector_171" d="M152.788 228.581C150.679 229.143 147.138 229.392 146.433 231.756C147.106 231.782 154.06 229.721 152.788 228.581Z" fill="#20261E"/>
<path id="Vector_172" d="M145.639 79.4659C143.53 80.0277 139.989 80.2767 139.284 82.6405C139.958 82.667 146.911 80.6054 145.639 79.4659Z" fill="#20261E"/>
<path id="Vector_173" d="M214.485 184.612C215.159 184.639 222.112 182.577 220.84 181.438C218.731 181.999 215.19 182.248 214.485 184.612Z" fill="#20261E"/>
<path id="Vector_174" d="M184.032 30.2023C181.923 30.7641 178.382 31.0132 177.677 33.377C178.35 33.4035 185.304 31.3418 184.032 30.2023Z" fill="#20261E"/>
<path id="Vector_175" d="M101.95 32.0573C99.841 32.6191 96.3006 32.8682 95.5957 35.232C96.2688 35.2585 103.222 33.1968 101.95 32.0573Z" fill="#20261E"/>
<path id="Vector_176" d="M94.0066 129.789C91.8972 130.351 88.3568 130.6 87.6519 132.964C88.325 132.99 95.2786 130.928 94.0066 129.789Z" fill="#20261E"/>
<path id="Vector_177" d="M265.323 131.114C263.213 131.676 259.673 131.925 258.968 134.289C259.641 134.315 266.595 132.253 265.323 131.114Z" fill="#20261E"/>
<path id="Vector_178" d="M103.275 134.559C101.166 135.121 97.6256 135.37 96.9207 137.734C97.5938 137.76 104.547 135.698 103.275 134.559Z" fill="#20261E"/>
<path id="Vector_179" d="M70.2622 10.6238C70.6014 10.3853 70.7127 9.65385 70.9724 9.28285C70.6703 9.05495 64.1195 10.7404 64.6177 12.4576C65.9374 11.8163 69.234 11.3499 70.2622 10.6238Z" fill="#20261E"/>
<path id="Vector_180" d="M68.3277 14.3126C69.6474 13.6713 72.944 13.2048 73.9722 12.4787C74.3114 12.2402 74.4227 11.5089 74.6824 11.1379C74.3803 10.91 67.8295 12.5954 68.3277 14.3126Z" fill="#20261E"/>
<path id="Vector_181" d="M119.981 120.08L121.937 121.58L123.114 119.64L121.19 118.156C120.676 118.484 119.796 119.454 119.981 120.08Z" fill="#20261E"/>
<path id="Vector_182" d="M183.793 170.668L185.749 172.168L186.926 170.228L185.002 168.744C184.488 169.073 183.608 170.042 183.793 170.668Z" fill="#20261E"/>
<path id="Vector_183" d="M102.47 80.6527C101.262 79.916 100.62 78.273 99.4543 80.0114C98.5639 81.3364 100.196 82.1738 101.389 82.3434L102.47 80.6527Z" fill="#20261E"/>
<path id="Vector_184" d="M162.885 68.9082L161.793 70.5883L163.998 72.0299L165.206 70.371C164.904 69.8622 163.415 68.6008 162.885 68.9135V68.9082Z" fill="#20261E"/>
<path id="Vector_185" d="M131.843 70.3658C131.541 69.857 130.052 68.5956 129.522 68.9083L128.43 70.5884L130.635 72.03L131.843 70.3711V70.3658Z" fill="#20261E"/>
<path id="Vector_186" d="M63.5946 220.403L62.5028 222.083L64.7076 223.525L65.916 221.866C65.6139 221.357 64.1246 220.096 63.5946 220.409V220.403Z" fill="#20261E"/>
<path id="Vector_187" d="M182.495 62.654L184.429 64.3659C184.832 63.9525 185.966 63.0144 185.85 62.4208L183.937 60.9474L182.495 62.654Z" fill="#20261E"/>
<path id="Vector_188" d="M44.9869 67.1856L43.0736 65.7122L41.632 67.4189C43.0365 68.9082 44.2078 69.6289 44.9922 67.1856H44.9869Z" fill="#20261E"/>
<path id="Vector_189" d="M84.9698 67.1856L83.0565 65.7122L81.6149 67.4189C83.0194 68.9082 84.1907 69.6289 84.9751 67.1856H84.9698Z" fill="#20261E"/>
<path id="Vector_190" d="M19.3026 168.092L17.3893 166.619L15.9477 168.325C17.3522 169.815 18.5235 170.535 19.3079 168.092H19.3026Z" fill="#20261E"/>
<path id="Vector_191" d="M119.393 168.092L117.48 166.619L116.038 168.325C117.442 169.815 118.614 170.535 119.398 168.092H119.393Z" fill="#20261E"/>
<path id="Vector_192" d="M268.816 168.331C270.22 169.82 271.391 170.541 272.176 168.097L270.263 166.624L268.821 168.331H268.816Z" fill="#20261E"/>
<path id="Vector_193" d="M90.6936 164.202L89.2626 165.903L91.2395 167.409L92.6811 165.548L90.6936 164.202Z" fill="#20261E"/>
<path id="Vector_194" d="M226.952 162.729L228.918 164.42L230.328 162.761L228.383 161.107L226.952 162.729Z" fill="#20261E"/>
<path id="Vector_195" d="M271.7 216.492L273.676 217.997L275.118 216.136L273.131 214.79L271.7 216.492Z" fill="#20261E"/>
<path id="Vector_196" d="M237.132 217.997L238.579 216.136L236.592 214.79L235.155 216.492L237.132 217.997Z" fill="#20261E"/>
<path id="Vector_197" d="M244.902 117.509L242.989 116.036L241.548 117.742C242.952 119.232 244.123 119.953 244.908 117.509H244.902Z" fill="#20261E"/>
<path id="Vector_198" d="M257.877 16.597L255.964 15.1236L254.522 16.8302C255.927 18.3195 257.098 19.0403 257.882 16.597H257.877Z" fill="#20261E"/>
<path id="Vector_199" d="M118.863 16.597L116.95 15.1236L115.508 16.8302C116.912 18.3195 118.084 19.0403 118.868 16.597H118.863Z" fill="#20261E"/>
<path id="Vector_200" d="M98.0075 131.983C99.1735 133.658 100.44 134.088 101.113 131.809C100.811 131.332 99.7618 130.245 99.2053 130.356C98.8926 130.415 97.8008 131.506 98.0022 131.983H98.0075Z" fill="#20261E"/>
<path id="Vector_201" d="M262.546 29.4124C262.154 29.8947 260.734 30.8169 261.126 31.4953L263.082 32.8415L264.253 30.9017L262.546 29.4177V29.4124Z" fill="#20261E"/>
<path id="Vector_202" d="M219.351 166.587L220.565 164.907L218.625 163.439C216.617 164.626 217.544 166.03 219.351 166.582V166.587Z" fill="#20261E"/>
<path id="Vector_203" d="M96.7568 217.176L97.9705 215.495L96.0307 214.027C94.022 215.215 94.9495 216.619 96.7568 217.17V217.176Z" fill="#20261E"/>
<path id="Vector_204" d="M289.237 215.845L290.472 214.022L288.527 212.708C286.614 214.064 287.218 215.283 289.237 215.845Z" fill="#20261E"/>
<path id="Vector_205" d="M51.3627 81.485L49.6561 80.001C49.2639 80.4833 47.8435 81.4055 48.2357 82.0839L50.1914 83.4301L51.3627 81.4903V81.485Z" fill="#20261E"/>
<path id="Vector_206" d="M32.4996 112.866C32.1392 112.962 31.0951 114.022 31.27 114.525L33.2363 116.014L34.4182 114.329C33.9571 113.857 33.1939 112.681 32.5049 112.866H32.4996Z" fill="#20261E"/>
<path id="Vector_207" d="M108.857 149.749L109.763 150.708C110.108 150.443 110.664 149.882 110.389 149.426C110.352 149.362 109.657 149.124 109.498 148.922L108.862 149.749H108.857Z" fill="#20261E"/>
<path id="Vector_208" d="M74.1731 48.8368L75.0794 49.7961C75.4239 49.5311 75.9804 48.9693 75.7048 48.5135C75.6677 48.4499 74.9734 48.2114 74.8144 48.01L74.1784 48.8368H74.1731Z" fill="#20261E"/>
<path id="Vector_209" d="M37.4768 218.522C37.1323 218.511 36.862 221.113 36.6765 221.686C36.1677 223.254 34.7473 224.293 35.2296 226.196C36.7189 226.36 37.4768 221.691 37.7418 221.691C37.7789 222.152 39.8989 226.933 40.519 226.196L40.4554 224.537L37.4768 218.522Z" fill="#20261E"/>
<path id="Vector_210" d="M43.4071 218.808C42.2358 218.575 41.1493 219.354 40.1211 218.521C38.8067 220.631 41.2712 220.986 42.9036 220.631C42.9407 221.193 42.8294 221.792 42.9036 222.348C42.946 222.661 43.7251 227.033 44.4883 226.191C45.0289 224.786 44.1968 224.012 43.9901 222.852C43.7463 221.5 43.7039 220.143 43.4018 218.808H43.4071Z" fill="#20261E"/>
<path id="Vector_211" d="M33.1091 226.196C33.4801 226.594 33.5914 226.164 33.6391 225.799C33.8882 223.917 32.8494 222.221 32.0491 220.636L34.397 220.334L34.6779 218.803C28.6677 217.663 32.3353 223.318 33.1144 226.196H33.1091Z" fill="#20261E"/>
</g>
</svg>
