<svg width="34" height="32" viewBox="0 0 34 32" fill="none" xmlns="http://www.w3.org/2000/svg">
<path d="M18.6552 0.700125C18.0719 0.246361 17.3539 0 16.6149 0C15.8759 0 15.1579 0.246361 14.5746 0.700125L0.644824 11.5329C-0.604604 12.5082 0.083246 14.5103 1.66663 14.5103H3.32312V27.8021C3.32312 28.6834 3.67321 29.5286 4.29639 30.1518C4.91956 30.7749 5.76477 31.125 6.64607 31.125H13.292V21.1562C13.292 20.2749 13.6421 19.4297 14.2652 18.8065C14.8884 18.1833 15.7336 17.8332 16.6149 17.8332C17.4962 17.8332 18.3414 18.1833 18.9646 18.8065C19.5878 19.4297 19.9379 20.2749 19.9379 21.1562V31.125H26.5837C27.465 31.125 28.3102 30.7749 28.9334 30.1518C29.5566 29.5286 29.9067 28.6834 29.9067 27.8021V14.5103H31.5632C33.1449 14.5103 33.8361 12.5082 32.585 11.5346L18.6552 0.700125Z" fill="#FFFBF1"/>
</svg>
