<svg width="210" height="83" viewBox="0 0 210 83" fill="none" xmlns="http://www.w3.org/2000/svg">
<g filter="url(#filter0_ddd_2002_54)">
<path d="M98.8545 19.5928C98.8545 14.8847 97.9448 11.2246 96.1466 8.70832C94.3911 6.30374 91.8748 5.08017 88.6669 5.08017H88.1349V9.78293H88.6669C89.5394 9.78293 90.4544 10.2564 91.3907 11.198C92.444 12.2513 93.0984 13.6132 93.3803 15.3475H83.0172L80.5541 20.1247H98.8545V19.5928Z" fill="#FFFBF1"/>
<path d="M97.6602 24.1944L96.5536 24.2104L97.2612 25.0616C98.5007 26.5565 99.3146 27.6045 99.7721 28.2216L99.9477 28.4556L100.24 28.4344C103.39 28.195 105.954 26.9076 107.848 24.6094C109.789 22.3059 110.731 19.497 110.731 16.0284L110.651 5.08017H105.491L105.571 16.454C105.571 18.7575 104.799 20.5982 103.214 22.0771C101.719 23.4656 99.9051 24.1572 97.6655 24.1944H97.6602Z" fill="#FFFBF1"/>
<path d="M129.457 16.0281V11.586C129.457 7.52693 126.728 5 122.339 5C117.951 5 114.642 8.32491 114.642 12.7351C114.642 16.8793 117.685 20.1244 121.573 20.1244H123.435C122.148 22.6513 119.562 24.1941 116.514 24.1941H115.408L116.099 25.0559C117.227 26.4656 118.036 27.4977 118.578 28.2212L118.754 28.4553L119.046 28.434C125.276 27.9605 129.457 22.9705 129.457 16.0281ZM122.339 8.86222C123.371 8.86222 124.297 10.0858 124.297 10.6657C124.297 10.9529 124.297 12.501 124.329 15.3046H122.148C120.834 15.3046 119.77 14.065 119.77 12.5436C119.77 10.3411 120.802 8.86222 122.339 8.86222Z" fill="#FFFBF1"/>
<path d="M14.6397 47.1812C12.0224 47.1812 9.70289 48.0377 7.75582 49.7295L6.99508 50.3891L9.52202 55.7888L10.8254 54.8365C12.0383 53.9534 13.1236 53.5225 14.1822 53.5225C15.1132 53.4853 15.9218 53.7566 16.6879 54.3365C17.3741 54.8418 17.8848 55.5653 18.2147 56.5336H12.5331C10.0646 56.5336 7.9633 57.5284 6.26094 59.502C4.76074 61.3108 4 63.4653 4 65.9072C4 68.349 4.89374 70.5674 6.64929 72.3229C8.43145 74.1051 10.6019 75.0094 13.1076 75.0094H25.3539V68.6362H13.4108C12.7086 68.6362 12.0702 68.3756 11.5116 67.8755C10.8945 67.3116 10.6019 66.636 10.6019 65.7529C10.6019 63.8909 11.5861 62.944 13.5226 62.944H25.3486V61.614C25.3486 57.922 24.4921 54.6929 22.8164 52.0276C20.864 48.857 18.0338 47.1812 14.6344 47.1812H14.6397Z" fill="#FFFBF1"/>
<path d="M34.6424 35.5468H27.9606L28.1734 62.9866H34.8552L34.6424 35.5468Z" fill="#FFFBF1"/>
<path d="M94.4058 47.3567C91.0384 47.3567 88.5327 48.1174 86.7506 49.6761L85.9792 50.3517L88.7562 55.9004L90.0436 54.8417C90.8522 54.1767 92.2832 53.8416 94.2941 53.8416C95.9539 53.8416 98.1723 54.3044 99.2576 57.9645H52.2725V58.0017H50.1552C49.3466 58.0017 48.3092 56.8686 48.155 55.4003V47.7397H41.436V59.9115C41.436 63.9333 38.526 66.7901 34.3552 66.854L31.5836 66.8965L33.3551 69.0298C34.584 70.514 35.3873 71.5514 35.8448 72.1579L36.2863 72.743L37.0205 72.6845C42.3457 72.2483 46.3941 68.7159 47.7453 63.5929C48.6923 64.2047 49.6552 64.3802 50.4372 64.3802H106.402V63.0503C106.402 58.8156 105.615 55.4216 103.987 52.6712C101.886 49.192 98.5766 47.3567 94.4218 47.3567H94.4058Z" fill="#FFFBF1"/>
<path d="M205.999 56.73C205.983 55.3256 205.962 52.788 205.935 49.0588L205.925 47.7394H199.158L199.211 49.1226C199.232 49.6493 199.243 50.2876 199.253 51.0111C199.264 51.5963 199.269 52.2347 199.291 52.9476C199.328 53.9584 199.328 55.2245 199.328 56.6928C199.328 57.5759 198.913 58.0068 198.051 58.0068H139.639C139.4 58.0068 139.065 57.9429 138.586 57.4375C138.07 56.9215 137.761 56.2619 137.671 55.4692L137.628 47.3458H130.856L131.069 60.5922C131.101 62.0445 130.627 63.2628 129.601 64.3534C128.68 65.3907 127.579 65.8961 126.228 65.8961C124.876 65.8961 123.775 65.4014 122.828 64.364C121.871 63.3479 121.387 62.0924 121.387 60.6401C121.387 60.4858 121.387 59.2516 121.349 56.9641V47.383H114.588V48.713C114.588 49.1811 114.625 54.5967 114.662 56.9481C114.684 58.06 114.705 58.9324 114.721 59.5549C114.732 60.0709 114.742 60.4113 114.742 60.5656C114.742 63.9012 115.87 66.7899 118.094 69.1412C120.349 71.5245 123.084 72.7375 126.222 72.7375C129.361 72.7375 132.069 71.5511 134.266 69.2264C135.814 67.6198 136.846 65.7684 137.346 63.7043C138.24 64.2363 139.134 64.3853 139.857 64.3853H199.535C203.52 64.3853 205.999 61.9701 205.999 58.0759V56.7353H205.983L205.999 56.73Z" fill="#FFFBF1"/>
<path d="M97.6956 68.1254H92.4236V73.5889H97.6956V68.1254Z" fill="#FFFBF1"/>
<path d="M128.719 38.4084H123.41V43.8719H128.719V38.4084Z" fill="#FFFBF1"/>
<path d="M201.766 68.1254H196.494V73.5889H201.766V68.1254Z" fill="#FFFBF1"/>
</g>
<defs>
<filter id="filter0_ddd_2002_54" x="0" y="0" width="209.999" height="83.0095" filterUnits="userSpaceOnUse" color-interpolation-filters="sRGB">
<feFlood flood-opacity="0" result="BackgroundImageFix"/>
<feColorMatrix in="SourceAlpha" type="matrix" values="0 0 0 0 0 0 0 0 0 0 0 0 0 0 0 0 0 0 127 0" result="hardAlpha"/>
<feOffset dy="4"/>
<feGaussianBlur stdDeviation="2"/>
<feComposite in2="hardAlpha" operator="out"/>
<feColorMatrix type="matrix" values="0 0 0 0 0.0862745 0 0 0 0 0.227451 0 0 0 0 0.239216 0 0 0 1 0"/>
<feBlend mode="normal" in2="BackgroundImageFix" result="effect1_dropShadow_2002_54"/>
<feColorMatrix in="SourceAlpha" type="matrix" values="0 0 0 0 0 0 0 0 0 0 0 0 0 0 0 0 0 0 127 0" result="hardAlpha"/>
<feOffset dy="-1"/>
<feGaussianBlur stdDeviation="2"/>
<feComposite in2="hardAlpha" operator="out"/>
<feColorMatrix type="matrix" values="0 0 0 0 0.913725 0 0 0 0 0.992157 0 0 0 0 1 0 0 0 0.28 0"/>
<feBlend mode="normal" in2="effect1_dropShadow_2002_54" result="effect2_dropShadow_2002_54"/>
<feColorMatrix in="SourceAlpha" type="matrix" values="0 0 0 0 0 0 0 0 0 0 0 0 0 0 0 0 0 0 127 0" result="hardAlpha"/>
<feOffset dy="4"/>
<feGaussianBlur stdDeviation="2"/>
<feComposite in2="hardAlpha" operator="out"/>
<feColorMatrix type="matrix" values="0 0 0 0 0.0862745 0 0 0 0 0.227451 0 0 0 0 0.239216 0 0 0 0.41 0"/>
<feBlend mode="normal" in2="effect2_dropShadow_2002_54" result="effect3_dropShadow_2002_54"/>
<feBlend mode="normal" in="SourceGraphic" in2="effect3_dropShadow_2002_54" result="shape"/>
</filter>
</defs>
</svg>
