<svg width="48" height="43" viewBox="0 0 48 43" fill="none" xmlns="http://www.w3.org/2000/svg">
<g filter="url(#filter0_dd_2002_22)">
<path fill-rule="evenodd" clip-rule="evenodd" d="M32.5702 10.1606C33.0444 9.68638 33.8132 9.68638 34.2874 10.1606L33.4288 11.0192C34.2874 10.1606 34.2871 10.1602 34.2874 10.1606L34.289 10.1621L34.2906 10.1638L34.2948 10.168L34.3057 10.1791L34.3376 10.2124C34.3632 10.2394 34.3973 10.2761 34.4386 10.3224C34.5212 10.4148 34.6332 10.5457 34.7645 10.7136C35.0268 11.0486 35.3689 11.5342 35.7091 12.158C36.3894 13.4051 37.0717 15.2233 37.0717 17.4955C37.0717 19.7677 36.3894 21.5859 35.7091 22.8329C35.3689 23.4567 35.0268 23.9422 34.7645 24.2774C34.6332 24.4451 34.5212 24.5761 34.4386 24.6686C34.3973 24.7149 34.3632 24.7516 34.3376 24.7786L34.3057 24.8118L34.2948 24.8228L34.2906 24.8271L34.289 24.8288C34.2887 24.8292 34.2874 24.8303 33.4623 24.0052L34.2874 24.8303C33.8132 25.3045 33.0444 25.3045 32.5702 24.8303C32.0973 24.3575 32.096 23.5919 32.566 23.1173C32.5673 23.1159 32.5688 23.1144 32.5702 23.1131L33.4288 23.9717C32.5702 23.1131 32.5705 23.1128 32.5702 23.1131L32.5689 23.1144L32.566 23.1173L32.5746 23.1083C32.5846 23.0977 32.6026 23.0783 32.6277 23.0503C32.6779 22.9941 32.7556 22.9038 32.8519 22.7806C33.0451 22.5338 33.3101 22.1593 33.5771 21.67C34.1111 20.6908 34.6431 19.2709 34.6431 17.4955C34.6431 15.72 34.1111 14.3 33.5771 13.3209C33.3101 12.8316 33.0451 12.4571 32.8519 12.2103C32.7556 12.0872 32.6779 11.9968 32.6277 11.9406C32.6026 11.9126 32.5846 11.8932 32.5746 11.8826L32.566 11.8737C32.096 11.3991 32.0973 10.6334 32.5702 10.1606Z" fill="#FFFBF1"/>
<path fill-rule="evenodd" clip-rule="evenodd" d="M37.4274 5.30341C37.9016 4.8292 38.6703 4.8292 39.1446 5.30341L38.286 6.16205C39.1446 5.30341 39.1442 5.30299 39.1446 5.30341L39.1464 5.30511L39.1485 5.30718L39.1536 5.31248L39.1684 5.32761C39.1802 5.33972 39.1957 5.35587 39.2147 5.37601C39.2527 5.41629 39.3047 5.47265 39.3688 5.54489C39.4967 5.68931 39.6729 5.89752 39.8809 6.16795C40.2967 6.70846 40.8418 7.50025 41.3844 8.53104C42.4704 10.5946 43.5479 13.6209 43.5479 17.4955C43.5479 21.37 42.4704 24.3964 41.3844 26.4599C40.8418 27.4907 40.2967 28.2825 39.8809 28.8229C39.6729 29.0934 39.4967 29.3017 39.3688 29.4461C39.3047 29.5183 39.2527 29.5746 39.2147 29.6149C39.1957 29.635 39.1802 29.6512 39.1684 29.6634L39.1536 29.6784L39.1485 29.6838L39.1464 29.6859C39.146 29.6863 39.1446 29.6875 38.286 28.8289L39.1446 29.6875C38.6703 30.1617 37.9016 30.1617 37.4274 29.6875C36.9537 29.2139 36.9532 28.4461 37.4258 27.9718C37.4256 27.9719 37.4259 27.9718 37.4258 27.9718L37.4243 27.9734C37.4245 27.9731 37.4243 27.9732 37.4258 27.9718L37.4481 27.9484C37.4695 27.9258 37.5045 27.8881 37.5511 27.8354C37.6445 27.73 37.7846 27.5651 37.956 27.3423C38.2991 26.8961 38.7659 26.2206 39.2352 25.3288C40.173 23.547 41.1193 20.9067 41.1193 17.4955C41.1193 14.0843 40.173 11.4439 39.2352 9.66215C38.7659 8.7703 38.2991 8.09481 37.956 7.6487C37.7846 7.42584 37.6445 7.26088 37.5511 7.1555C37.5045 7.10283 37.4695 7.06511 37.4481 7.04255L37.4267 7.02015C37.4251 7.01851 37.4243 7.01764 37.4242 7.01754L37.4267 7.02015C36.9533 6.54588 36.9533 5.77739 37.4274 5.30341Z" fill="#FFFBF1"/>
<path fill-rule="evenodd" clip-rule="evenodd" d="M24.5834 4.37521C26.4672 3.13311 28.9764 4.48422 28.9764 6.74067V29.8701C28.9764 32.1265 26.4672 33.4777 24.5834 32.2355L14.8705 25.8315C14.8044 25.7879 14.7269 25.7646 14.6477 25.7646H9.95242C7.49342 25.7646 5.5 23.7712 5.5 21.3122V15.2985C5.5 12.8396 7.49342 10.8462 9.95242 10.8462H14.6477C14.7269 10.8462 14.8044 10.8229 14.8705 10.7793L24.5834 4.37521Z" fill="#FFFBF1" stroke="#44797D" stroke-width="3" stroke-linejoin="round"/>
</g>
<defs>
<filter id="filter0_dd_2002_22" x="0" y="2.44379e-05" width="47.5479" height="42.2107" filterUnits="userSpaceOnUse" color-interpolation-filters="sRGB">
<feFlood flood-opacity="0" result="BackgroundImageFix"/>
<feColorMatrix in="SourceAlpha" type="matrix" values="0 0 0 0 0 0 0 0 0 0 0 0 0 0 0 0 0 0 127 0" result="hardAlpha"/>
<feOffset dy="4"/>
<feGaussianBlur stdDeviation="2"/>
<feComposite in2="hardAlpha" operator="out"/>
<feColorMatrix type="matrix" values="0 0 0 0 0.0862745 0 0 0 0 0.227451 0 0 0 0 0.239216 0 0 0 1 0"/>
<feBlend mode="normal" in2="BackgroundImageFix" result="effect1_dropShadow_2002_22"/>
<feColorMatrix in="SourceAlpha" type="matrix" values="0 0 0 0 0 0 0 0 0 0 0 0 0 0 0 0 0 0 127 0" result="hardAlpha"/>
<feOffset dy="-1"/>
<feGaussianBlur stdDeviation="0.7"/>
<feComposite in2="hardAlpha" operator="out"/>
<feColorMatrix type="matrix" values="0 0 0 0 0.74902 0 0 0 0 0.901961 0 0 0 0 0.913725 0 0 0 0.83 0"/>
<feBlend mode="normal" in2="effect1_dropShadow_2002_22" result="effect2_dropShadow_2002_22"/>
<feBlend mode="normal" in="SourceGraphic" in2="effect2_dropShadow_2002_22" result="shape"/>
</filter>
</defs>
</svg>
