<svg width="30" height="27" viewBox="0 0 30 27" fill="none" xmlns="http://www.w3.org/2000/svg">
<path d="M24.8268 14.4832V21.0689C24.8268 24.378 23.7303 26.2322 23.6837 26.3254C23.5977 26.4972 23.4656 26.6417 23.302 26.7427C23.1385 26.8436 22.9501 26.897 22.7579 26.8969H5.17187C4.99153 26.8969 4.81432 26.8498 4.65781 26.7602C4.5013 26.6706 4.37094 26.5416 4.27964 26.3861L0.277528 18.6211C0.137378 18.3786 0.0479474 18.1101 0.0146589 17.8319C-0.0186296 17.5538 0.00491722 17.2717 0.0838717 17.003C0.162826 16.7342 0.295544 16.4842 0.473978 16.2683C0.652412 16.0523 0.872846 15.8748 1.12192 15.7466C2.11242 15.2294 3.3331 15.638 3.88913 16.6026L6.60461 21.3146C6.68014 21.4503 6.79409 21.5606 6.93213 21.6317C7.07018 21.7028 7.22616 21.7315 7.38047 21.7142H7.39599C7.64447 21.6714 7.86955 21.5414 8.03073 21.3475C8.19192 21.1536 8.27863 20.9086 8.27529 20.6564V5.17299C8.27496 4.89271 8.33159 4.61528 8.44173 4.35755C8.55188 4.09982 8.71324 3.86715 8.91603 3.67367C9.11882 3.48019 9.35881 3.32993 9.62144 3.23201C9.88406 3.1341 10.1638 3.09056 10.4438 3.10405C11.5571 3.15577 12.4132 4.11525 12.4132 5.2286V14.4832C12.4129 14.6251 12.4417 14.7654 12.4979 14.8956C12.5541 15.0258 12.6365 15.143 12.74 15.2401C12.8434 15.3371 12.9657 15.4118 13.0992 15.4595C13.2328 15.5073 13.3747 15.5271 13.5162 15.5177C13.7822 15.4949 14.0297 15.3721 14.2089 15.1742C14.3881 14.9763 14.4857 14.7179 14.4821 14.4509V12.4143C14.4818 12.134 14.5384 11.8566 14.6486 11.5989C14.7587 11.3411 14.9201 11.1085 15.1229 10.915C15.3257 10.7215 15.5656 10.5712 15.8283 10.4733C16.0909 10.3754 16.3707 10.3319 16.6506 10.3454C17.764 10.3971 18.62 11.3565 18.62 12.4699V15.5177C18.6197 15.6595 18.6485 15.7999 18.7048 15.9301C18.761 16.0603 18.8434 16.1775 18.9468 16.2745C19.0502 16.3715 19.1725 16.4462 19.3061 16.494C19.4396 16.5418 19.5815 16.5616 19.723 16.5522C19.9889 16.529 20.2362 16.4062 20.4154 16.2084C20.5945 16.0105 20.6922 15.7523 20.6889 15.4854V14.544C20.6889 13.4307 21.545 12.4751 22.6583 12.4195C22.9378 12.406 23.2172 12.4494 23.4795 12.547C23.7417 12.6446 23.9815 12.7944 24.1842 12.9873C24.3869 13.1802 24.5484 13.4123 24.6589 13.6694C24.7693 13.9265 24.8265 14.2034 24.8268 14.4832ZM29.6966 4.44111L25.5587 0.303219C25.3646 0.10911 25.1013 6.10352e-05 24.8268 6.10352e-05C24.5523 6.10352e-05 24.2891 0.10911 24.0949 0.303219C23.9008 0.497328 23.7918 0.760596 23.7918 1.03511C23.7918 1.30962 23.9008 1.57289 24.0949 1.767L26.4678 4.13852H19.6545C19.3801 4.13852 19.117 4.24751 18.923 4.44151C18.729 4.63551 18.62 4.89863 18.62 5.17299C18.62 5.44735 18.729 5.71047 18.923 5.90448C19.117 6.09848 19.3801 6.20747 19.6545 6.20747H26.4678L24.0949 8.57899C23.9008 8.7731 23.7918 9.03637 23.7918 9.31088C23.7918 9.58539 23.9008 9.84866 24.0949 10.0428C24.2891 10.2369 24.5523 10.3459 24.8268 10.3459C25.1013 10.3459 25.3646 10.2369 25.5587 10.0428L29.6966 5.90488C29.7928 5.80881 29.8691 5.69472 29.9211 5.56913C29.9732 5.44355 30 5.30894 30 5.17299C30 5.03705 29.9732 4.90244 29.9211 4.77685C29.8691 4.65127 29.7928 4.53718 29.6966 4.44111Z" fill="#44797D"/>
</svg>
