<svg width="66" height="40" viewBox="0 0 66 40" fill="none" xmlns="http://www.w3.org/2000/svg">
<g filter="url(#filter0_d_2011_497)">
<path d="M45.5667 0.5H19.9C11.4043 0.5 4.5 7.40434 4.5 15.9C4.5 24.3957 11.4043 31.3 19.9 31.3H45.5667C54.0624 31.3 60.9668 24.3957 60.9668 15.9C60.9668 7.40434 54.0624 0.5 45.5667 0.5ZM45.5667 26.1667H19.9C14.2277 26.1667 9.63334 21.5724 9.63334 15.9C9.63334 10.2277 14.2277 5.63334 19.9 5.63334H45.5667C51.2391 5.63334 55.8334 10.2277 55.8334 15.9C55.8334 21.5724 51.2391 26.1667 45.5667 26.1667ZM19.9 8.20001C15.6394 8.20001 12.2 11.6394 12.2 15.9C12.2 20.1607 15.6394 23.6 19.9 23.6C24.1607 23.6 27.6 20.1607 27.6 15.9C27.6 11.6394 24.1607 8.20001 19.9 8.20001Z" fill="#FFFBF1" stroke="#FFFBF1"/>
</g>
<defs>
<filter id="filter0_d_2011_497" x="0" y="0" width="65.4668" height="39.8" filterUnits="userSpaceOnUse" color-interpolation-filters="sRGB">
<feFlood flood-opacity="0" result="BackgroundImageFix"/>
<feColorMatrix in="SourceAlpha" type="matrix" values="0 0 0 0 0 0 0 0 0 0 0 0 0 0 0 0 0 0 127 0" result="hardAlpha"/>
<feOffset dy="4"/>
<feGaussianBlur stdDeviation="2"/>
<feComposite in2="hardAlpha" operator="out"/>
<feColorMatrix type="matrix" values="0 0 0 0 0.0862745 0 0 0 0 0.227451 0 0 0 0 0.239216 0 0 0 1 0"/>
<feBlend mode="normal" in2="BackgroundImageFix" result="effect1_dropShadow_2011_497"/>
<feBlend mode="normal" in="SourceGraphic" in2="effect1_dropShadow_2011_497" result="shape"/>
</filter>
</defs>
</svg>
