<svg width="81.76" height="29.27" viewBox="0 0 81.76 29.27" fill="none" xmlns="http://www.w3.org/2000/svg">

<g id="Wird Content - 151">
<g id="(&#216;&#167;&#217;&#132;&#216;&#181;&#217;&#145;&#217;&#142;&#216;&#167;&#217;&#129;&#217;&#145;&#217;&#142;&#216;&#167;&#216;&#170;)">
<path id="Vector" d="M77.4292 29.2695H75.8545C78.2878 25.3633 79.5044 21.453 79.5044 17.5386C79.5044 16.0086 79.3294 14.4909 78.9795 12.9854C78.7028 11.7646 78.3162 10.5928 77.8198 9.46973C77.5024 8.7373 76.8473 7.5166 75.8545 5.80762H77.4292C78.9591 7.85026 80.0903 9.90104 80.8228 11.96C81.4494 13.734 81.7627 15.5895 81.7627 17.5264C81.7627 19.7236 81.3395 21.8477 80.4932 23.8984C79.6549 25.9492 78.6336 27.7396 77.4292 29.2695Z" fill="#12131B"/>
<path id="Vector_2" d="M73.2905 17.3188C73.2905 17.9699 73.1725 18.6006 72.9365 19.2109C72.8145 19.5365 72.55 20.0532 72.1431 20.7612L71.9233 20.6392C71.9478 20.4032 71.9681 20.1305 71.9844 19.8213C72.0088 19.512 72.021 19.3045 72.021 19.1987C72.021 18.3524 71.9518 17.1724 71.8135 15.6587C71.6833 14.1369 71.5246 12.55 71.3374 10.8979C71.2235 9.89697 71.0973 8.87565 70.959 7.83398C71.1217 7.47591 71.3049 7.08936 71.5083 6.67432C71.7199 6.25928 71.9193 5.86865 72.1064 5.50244C72.2367 6.43018 72.3994 7.69971 72.5947 9.31104C72.7982 10.9224 72.9569 12.375 73.0708 13.6689C73.2173 15.2803 73.2905 16.4969 73.2905 17.3188Z" fill="#12131B"/>
<path id="Vector_3" d="M69.165 20.4316H63.1348V18.3076H67.9321L66.4795 7.95605L65.8447 7.65088C65.8447 7.08936 65.8936 6.56445 65.9912 6.07617C66.0889 5.57975 66.2354 5.09961 66.4307 4.63574L66.6138 4.77002C66.6138 5.24202 66.8783 5.59603 67.4072 5.83203C67.8141 5.99479 68.2251 6.15755 68.6401 6.32031C68.6401 6.72721 68.6076 7.1626 68.5425 7.62646C68.4774 8.09033 68.4001 8.4362 68.3105 8.66406L67.7246 8.46875L69.165 18.0391V20.4316Z" fill="#12131B"/>
<path id="Vector_4" d="M63.9771 20.4316H49.3042C48.8647 20.4316 48.4456 20.3584 48.0469 20.2119C47.7458 20.098 47.3918 19.9149 46.9849 19.6626C46.6431 19.9556 46.3013 20.159 45.9595 20.2729C45.6177 20.3787 45.0724 20.4316 44.3237 20.4316H41.9678V18.3076H44.3237C44.9829 18.3076 45.4549 18.2507 45.7397 18.1367C46.2118 17.9495 46.4478 17.5752 46.4478 17.0137C46.4478 16.7777 46.4315 16.5417 46.3989 16.3057C46.3745 16.0615 46.3338 15.797 46.2769 15.5122L46.7773 14.7798C47.0622 15.8866 47.4528 16.741 47.9492 17.3433C48.4782 17.9862 49.1007 18.3076 49.8169 18.3076C50.5005 18.3076 51.3021 18.153 52.2217 17.8438C53.2145 17.5101 54.069 17.0869 54.7852 16.5742C55.9489 15.7441 56.661 15.2477 56.9214 15.085C57.5806 14.6618 58.1787 14.3607 58.7158 14.1816C59.318 13.9782 59.9772 13.8765 60.6934 13.8765C61.8001 13.8765 62.6343 14.1979 63.1958 14.8408C63.7166 15.4349 63.9771 16.269 63.9771 17.3433V20.4316ZM61.9873 17.3677C61.9873 16.9689 61.7391 16.6597 61.2427 16.4399C60.7463 16.2121 60.1685 16.0981 59.5093 16.0981C58.6955 16.0981 57.7108 16.3708 56.5552 16.916C55.6356 17.3799 54.7201 17.8438 53.8086 18.3076H59.436C60.3231 18.3076 60.9701 18.2303 61.377 18.0757C61.7839 17.9211 61.9873 17.6851 61.9873 17.3677Z" fill="#12131B"/>
<path id="Vector_5" d="M50.1709 3C50.1709 3.37435 49.9593 3.7487 49.5361 4.12305C48.8118 4.40788 47.6318 4.87581 45.9961 5.52686C45.9961 5.18506 46.1792 4.84733 46.5454 4.51367C47.2127 4.23698 48.4212 3.73242 50.1709 3ZM50.354 5.99072C50.354 6.60107 50.2482 7.10156 50.0366 7.49219C49.8006 7.93164 49.4751 8.15137 49.0601 8.15137C48.9217 8.15137 48.7834 8.12695 48.645 8.07812C48.5148 8.02116 48.3805 7.94385 48.2422 7.84619C48.0794 8.12288 47.9207 8.33854 47.7661 8.49316C47.5057 8.75358 47.2331 8.88379 46.9482 8.88379C46.6064 8.88379 46.3501 8.76986 46.1792 8.54199C46.0083 8.31413 45.9229 7.99674 45.9229 7.58984C45.9229 7.37826 45.9554 7.15446 46.0205 6.91846C46.0612 6.77197 46.1385 6.55225 46.2524 6.25928L46.5088 6.16162C46.5088 6.22673 46.5007 6.33252 46.4844 6.479C46.4681 6.62549 46.46 6.74756 46.46 6.84521C46.46 7.02425 46.4966 7.18701 46.5698 7.3335C46.6431 7.47184 46.7529 7.54102 46.8994 7.54102C47.2493 7.54102 47.5301 7.31315 47.7417 6.85742C47.8394 6.65397 47.9614 6.243 48.1079 5.62451L48.3643 5.55127C48.4294 5.95003 48.4823 6.19417 48.5229 6.28369C48.6206 6.53597 48.7834 6.66211 49.0112 6.66211C49.3205 6.66211 49.5646 6.45866 49.7437 6.05176C49.8901 5.7181 49.9634 5.37223 49.9634 5.01416L50.2197 4.94092C50.2523 5.09554 50.2808 5.27458 50.3052 5.47803C50.3377 5.67334 50.354 5.84424 50.354 5.99072Z" fill="#12131B"/>
<path id="Vector_6" d="M42.8218 20.4316H41.1128C40.5594 20.4316 40.1159 20.2078 39.7822 19.7603C39.4893 19.3696 39.2655 18.7878 39.1108 18.0146C38.9644 17.2415 38.8504 16.2894 38.769 15.1582C38.7202 14.2386 38.6673 13.2946 38.6104 12.3262C38.5615 11.3577 38.4924 10.6253 38.4028 10.1289C38.3215 9.62435 38.2075 9.21338 38.061 8.896C37.882 8.50537 37.6338 8.16357 37.3164 7.87061L38.8179 5.50244C39.1353 6.479 39.359 7.64681 39.4893 9.00586C39.5706 9.85221 39.652 11.8542 39.7334 15.0117C39.8799 16.4603 40.0915 17.388 40.3682 17.7949C40.596 18.1367 40.8442 18.3076 41.1128 18.3076H42.8218V20.4316Z" fill="#12131B"/>
<path id="Vector_7" d="M35.4614 6.90625L34.5215 8.68848L32.5562 7.63867L33.4595 5.85645L35.4614 6.90625ZM37.085 20.4316H29.541V18.3076H36.0474C36.0474 17.5833 35.9619 16.9038 35.791 16.269C35.3678 16.4074 35.0423 16.505 34.8145 16.562C34.4401 16.6597 34.1105 16.7085 33.8257 16.7085C33.2316 16.7085 32.7474 16.5579 32.373 16.2568C31.9417 15.915 31.7261 15.4227 31.7261 14.7798C31.7261 13.6486 31.9295 12.6598 32.3364 11.8135C32.7922 10.8695 33.3862 10.3975 34.1187 10.3975C35.1115 10.3975 35.8765 11.1746 36.4136 12.729C36.8612 14.0148 37.085 15.5244 37.085 17.2578V20.4316ZM35.0952 14.084C34.9813 13.791 34.7982 13.494 34.5459 13.1929C34.2041 12.786 33.8786 12.5825 33.5693 12.5825C33.3496 12.5825 33.1665 12.6761 33.02 12.8633C32.8817 13.0423 32.8125 13.258 32.8125 13.5103C32.8125 14.1613 33.1706 14.4868 33.8867 14.4868C34.0739 14.4868 34.2733 14.4502 34.4849 14.377C34.6965 14.3037 34.8999 14.2061 35.0952 14.084Z" fill="#12131B"/>
<path id="Vector_8" d="M35.9131 0C35.9131 0.374349 35.7015 0.748698 35.2783 1.12305C34.554 1.40788 33.374 1.87581 31.7383 2.52686C31.7383 2.18506 31.9214 1.84733 32.2876 1.51367C32.9549 1.23698 34.1634 0.732422 35.9131 0ZM36.0962 2.99072C36.0962 3.60107 35.9904 4.10156 35.7788 4.49219C35.5428 4.93164 35.2173 5.15137 34.8022 5.15137C34.6639 5.15137 34.5256 5.12695 34.3872 5.07812C34.257 5.02116 34.1227 4.94385 33.9844 4.84619C33.8216 5.12288 33.6629 5.33854 33.5083 5.49316C33.2479 5.75358 32.9753 5.88379 32.6904 5.88379C32.3486 5.88379 32.0923 5.76986 31.9214 5.54199C31.7505 5.31413 31.665 4.99674 31.665 4.58984C31.665 4.37826 31.6976 4.15446 31.7627 3.91846C31.8034 3.77197 31.8807 3.55225 31.9946 3.25928L32.251 3.16162C32.251 3.22673 32.2428 3.33252 32.2266 3.479C32.2103 3.62549 32.2021 3.74756 32.2021 3.84521C32.2021 4.02425 32.2388 4.18701 32.312 4.3335C32.3853 4.47184 32.4951 4.54102 32.6416 4.54102C32.9915 4.54102 33.2723 4.31315 33.4839 3.85742C33.5815 3.65397 33.7036 3.243 33.8501 2.62451L34.1064 2.55127C34.1715 2.95003 34.2244 3.19417 34.2651 3.28369C34.3628 3.53597 34.5256 3.66211 34.7534 3.66211C35.0627 3.66211 35.3068 3.45866 35.4858 3.05176C35.6323 2.7181 35.7056 2.37223 35.7056 2.01416L35.9619 1.94092C35.9945 2.09554 36.0229 2.27458 36.0474 2.47803C36.0799 2.67334 36.0962 2.84424 36.0962 2.99072Z" fill="#12131B"/>
<path id="Vector_9" d="M30.396 20.4316H28.687C28.1336 20.4316 27.6901 20.2078 27.3564 19.7603C27.0635 19.3696 26.8397 18.7878 26.6851 18.0146C26.5386 17.2415 26.4246 16.2894 26.3433 15.1582C26.2944 14.2386 26.2415 13.2946 26.1846 12.3262C26.1357 11.3577 26.0666 10.6253 25.9771 10.1289C25.8957 9.62435 25.7817 9.21338 25.6353 8.896C25.4562 8.50537 25.208 8.16357 24.8906 7.87061L26.3921 5.50244C26.7095 6.479 26.9333 7.64681 27.0635 9.00586C27.1449 9.85221 27.2262 11.8542 27.3076 15.0117C27.4541 16.4603 27.6657 17.388 27.9424 17.7949C28.1702 18.1367 28.4185 18.3076 28.687 18.3076H30.396V20.4316Z" fill="#12131B"/>
<path id="Vector_10" d="M18.9087 9.34766L17.9565 11.1055L15.979 10.0557L16.8945 8.31006L18.9087 9.34766ZM16.1011 10.4463L15.1733 12.2163L13.1958 11.1909L14.0991 9.4209L16.1011 10.4463ZM24.646 20.4316H13.0005C11.438 20.4316 10.1929 20.159 9.26514 19.6138C8.1014 18.9302 7.51953 17.86 7.51953 16.4033C7.51953 15.6465 7.69043 14.8734 8.03223 14.084C8.1543 13.7992 8.44727 13.258 8.91113 12.4604L9.27734 12.6924C9.09831 13.0667 8.92334 13.4411 8.75244 13.8154C8.51644 14.3932 8.39844 14.91 8.39844 15.3657C8.39844 16.326 8.90299 17.0706 9.91211 17.5996C10.8154 18.0716 11.9588 18.3076 13.3423 18.3076H23.6816V17.978C23.6816 17.0666 23.5718 16.326 23.3521 15.7563C23.1323 15.1785 22.758 14.6862 22.229 14.2793L23.1689 12.2896C23.527 12.7371 23.7427 13.0179 23.8159 13.1318C24.3693 14.0433 24.646 15.3698 24.646 17.1113V20.4316Z" fill="#12131B"/>
<path id="Vector_11" d="M4.3335 29.2695C3.12093 27.7396 2.09554 25.9492 1.25732 23.8984C0.419108 21.8477 0 19.7236 0 17.5264C0 15.5895 0.313314 13.734 0.939941 11.96C1.67236 9.90104 2.80355 7.85026 4.3335 5.80762H5.9082C4.9235 7.50033 4.27246 8.70882 3.95508 9.43311C3.45866 10.5562 3.06803 11.728 2.7832 12.9487C2.43327 14.4705 2.2583 16.0005 2.2583 17.5386C2.2583 21.453 3.47493 25.3633 5.9082 29.2695H4.3335Z" fill="#12131B"/>
</g>
</g>
</svg>
