<svg width="44.3438" height="19.4004" viewBox="0 0 44.3438 19.4004" fill="none" xmlns="http://www.w3.org/2000/svg">
<g id="&#216;&#167;&#217;&#132;&#216;&#182;&#216;&#168;&#216;&#183;">
<path id="Vector" d="M44.3438 11.6016C44.3438 12.2389 44.2686 12.8226 44.1182 13.3525C43.9678 13.8753 43.6777 14.5807 43.248 15.4688L42.6035 15.2109C42.7754 14.2943 42.8613 13.5495 42.8613 12.9766C42.8613 12.5397 42.8255 11.8988 42.7539 11.0537C42.6823 10.2087 42.5928 9.37435 42.4854 8.55078C42.3779 7.72005 42.2025 6.73177 41.959 5.58594C41.873 5.1849 41.8301 4.90918 41.8301 4.75879C41.8301 4.53678 41.9411 4.16081 42.1631 3.63086C42.3851 3.09375 42.6966 2.44564 43.0977 1.68652L43.7422 5.48926C43.9785 6.93587 44.1432 8.18913 44.2363 9.24902C44.3079 10.0654 44.3438 10.8496 44.3438 11.6016Z" fill="#E6E6E6"/>
<path id="Vector_2" d="M40.3691 14.7275H34.4609V11.8057H39.0801L37.7803 4.51172L37.0928 4.06055C37.0928 3.63802 37.1572 3.21191 37.2861 2.78223C37.4508 2.23796 37.7301 1.58984 38.124 0.837891L38.6182 1.0957C38.6182 1.13867 38.6038 1.25326 38.5752 1.43945C38.5752 1.67578 38.7256 1.90495 39.0264 2.12695C39.2913 2.32747 39.7139 2.54948 40.2939 2.79297C40.2295 3.2513 40.1328 3.69889 40.0039 4.13574C39.8822 4.57259 39.7425 4.96289 39.585 5.30664L39.1982 5.15625L40.3691 11.8057V14.7275Z" fill="#E6E6E6"/>
<path id="Vector_3" d="M29.8633 3.19043L28.5742 5.59668L26.0605 4.28613L27.3604 1.8584L29.8633 3.19043ZM35.2129 14.7275H23.8369C23.3285 14.7275 22.9202 14.6022 22.6123 14.3516C22.3115 14.0938 22.0537 13.6784 21.8389 13.1055C21.3805 13.7428 20.9437 14.1761 20.5283 14.4053C20.1488 14.613 19.6475 14.7168 19.0244 14.7168L17.4883 14.7275V11.8057L19.0244 11.7949C19.8551 11.7949 20.4854 11.5872 20.915 11.1719C21.4163 10.6849 21.7386 9.84701 21.8818 8.6582L22.6123 8.76562C22.5908 9.02344 22.5765 9.23112 22.5693 9.38867C22.5407 9.86133 22.5264 10.2409 22.5264 10.5273C22.5264 10.9355 22.6338 11.2507 22.8486 11.4727C23.0635 11.6947 23.3464 11.8057 23.6973 11.8057C24.0482 11.8057 24.3704 11.734 24.6641 11.5908C24.9648 11.4476 25.4339 11.1504 26.0713 10.6992L29.917 7.94922C30.3682 7.62695 30.7083 7.39779 30.9375 7.26172C31.4603 6.94661 31.9652 6.78906 32.4521 6.78906C33.2542 6.78906 33.8952 7.07194 34.375 7.6377C34.9336 8.29655 35.2129 9.28841 35.2129 10.6133V14.7275ZM33.709 10.71C33.709 10.3877 33.4548 10.1263 32.9463 9.92578C32.5238 9.76107 32.0511 9.67871 31.5283 9.67871C31.0557 9.67871 30.5221 9.83268 29.9277 10.1406C29.3405 10.4414 28.4847 10.9964 27.3604 11.8057H30.1748C32.5309 11.8057 33.709 11.4404 33.709 10.71Z" fill="#E6E6E6"/>
<path id="Vector_4" d="M18.2402 14.7275H11.5156V11.8057H17.166C17.0872 11.3187 16.944 10.9069 16.7363 10.5703C16.6289 10.3841 16.3783 10.0618 15.9844 9.60352L16.8438 7.04688C17.3809 7.6556 17.7461 8.29297 17.9395 8.95898C18.14 9.625 18.2402 10.6133 18.2402 11.9238V14.7275ZM17.1445 16.9941L15.8555 19.4004L13.3633 18.0469L14.6523 15.5977L17.1445 16.9941Z" fill="#E6E6E6"/>
<path id="Vector_5" d="M12.2676 14.7275H0V11.8057H1.42871C1.60059 11.8057 2.08398 11.5085 2.87891 10.9141C3.14388 10.7207 3.52702 10.4199 4.02832 10.0117C4.02832 9.13086 3.99609 8.38607 3.93164 7.77734C3.86719 7.16862 3.76335 6.53483 3.62012 5.87598C3.58431 5.71842 3.39095 4.94141 3.04004 3.54492L2.41699 3.1582C2.58171 2.40625 2.71777 1.86914 2.8252 1.54688C2.93262 1.21745 3.1403 0.701823 3.44824 0L3.94238 0.193359C3.94238 0.236328 3.92806 0.329427 3.89941 0.472656C3.89941 0.723307 4.25391 1.02051 4.96289 1.36426C5.19922 1.47884 5.55371 1.62565 6.02637 1.80469C5.95475 2.36328 5.84017 2.88607 5.68262 3.37305C5.60384 3.61654 5.46061 3.99609 5.25293 4.51172L4.86621 4.38281C5.08822 5.39974 5.23503 6.15169 5.30664 6.63867C5.38542 7.11849 5.4248 7.54818 5.4248 7.92773V8.0459C5.4248 8.25358 5.41764 8.41829 5.40332 8.54004C5.39616 8.65462 5.36751 8.83724 5.31738 9.08789C5.68978 8.81576 6.06576 8.54362 6.44531 8.27148C7.02539 7.86328 7.5446 7.53385 8.00293 7.2832C8.60449 6.95378 9.06283 6.78906 9.37793 6.78906C10.223 6.78906 10.8997 7.00749 11.4082 7.44434C11.9811 7.93848 12.2676 8.65104 12.2676 9.58203V14.7275ZM10.7744 10.71C10.7744 10.4593 10.5094 10.2266 9.97949 10.0117C9.44954 9.78971 8.98405 9.67871 8.58301 9.67871C8.11035 9.67871 7.57682 9.83268 6.98242 10.1406C6.39518 10.4414 5.53939 10.9964 4.41504 11.8057H7.22949C9.59277 11.8057 10.7744 11.4404 10.7744 10.71Z" fill="#E6E6E6"/>
</g>
</svg>
