<svg width="40.834" height="17.7627" viewBox="0 0 40.834 17.7627" fill="none" xmlns="http://www.w3.org/2000/svg">
<g id="&#216;&#167;&#217;&#132;&#216;&#180;&#217;&#138;&#217;&#128;&#217;&#128;&#217;&#128;&#216;&#174;">
<path id="Vector" d="M40.834 9.13184C40.834 9.60059 40.749 10.0547 40.5791 10.4941C40.4912 10.7285 40.3008 11.1006 40.0078 11.6104L39.8496 11.5225C39.8672 11.3525 39.8818 11.1562 39.8936 10.9336C39.9111 10.7109 39.9199 10.5615 39.9199 10.4854C39.9199 9.87598 39.8701 9.02637 39.7705 7.93652C39.6768 6.84082 39.5625 5.69824 39.4277 4.50879C39.3457 3.78809 39.2549 3.05273 39.1553 2.30273C39.2725 2.04492 39.4043 1.7666 39.5508 1.46777C39.7031 1.16895 39.8467 0.887695 39.9814 0.624023C40.0752 1.29199 40.1924 2.20605 40.333 3.36621C40.4795 4.52637 40.5938 5.57227 40.6758 6.50391C40.7812 7.66406 40.834 8.54004 40.834 9.13184Z" fill="#E6E6E6"/>
<path id="Vector_2" d="M37.8633 11.373H33.5215V9.84375H36.9756L35.9297 2.39062L35.4727 2.1709C35.4727 1.7666 35.5078 1.38867 35.5781 1.03711C35.6484 0.679688 35.7539 0.333984 35.8945 0L36.0264 0.0966797C36.0264 0.436523 36.2168 0.691406 36.5977 0.861328C36.8906 0.978516 37.1865 1.0957 37.4854 1.21289C37.4854 1.50586 37.4619 1.81934 37.415 2.15332C37.3682 2.4873 37.3125 2.73633 37.248 2.90039L36.8262 2.75977L37.8633 9.65039V11.373Z" fill="#E6E6E6"/>
<path id="Vector_3" d="M31.6143 1.82812L30.9375 3.11133L29.5312 2.35547L30.1816 1.07227L31.6143 1.82812ZM33.3457 3.39258L32.6602 4.6582L31.2363 3.90234L31.8955 2.64551L33.3457 3.39258ZM31.3242 4.18359L30.6562 5.45801L29.2324 4.71973L29.8828 3.44531L31.3242 4.18359ZM34.1279 11.373H33.4512C33.0762 11.373 32.7539 11.3232 32.4844 11.2236C32.2148 11.1182 31.9688 10.9717 31.7461 10.7842C31.4707 11.001 31.2305 11.1445 31.0254 11.2148C30.7266 11.3203 30.3164 11.373 29.7949 11.373H29.2236C28.9189 11.373 28.6143 11.3145 28.3096 11.1973C28.1104 11.1211 27.8643 10.9951 27.5713 10.8193C27.29 11.0303 27.0322 11.1768 26.7979 11.2588C26.5635 11.335 26.1826 11.373 25.6553 11.373H23.959V9.84375H25.6553C26.1299 9.84375 26.4697 9.80273 26.6748 9.7207C27.0146 9.58594 27.1846 9.31641 27.1846 8.91211C27.1846 8.74219 27.1758 8.57227 27.1582 8.40234C27.1406 8.23242 27.1084 8.04199 27.0615 7.83105L27.4219 7.30371C27.5859 7.84277 27.7207 8.23535 27.8262 8.48145C28.0137 8.90918 28.2188 9.23145 28.4414 9.44824C28.7109 9.71191 29.0332 9.84375 29.4082 9.84375H29.9971C30.4365 9.84375 30.7617 9.77637 30.9727 9.6416C31.207 9.48926 31.3242 9.24609 31.3242 8.91211C31.3242 8.73047 31.3125 8.55469 31.2891 8.38477C31.2656 8.21484 31.2334 8.03027 31.1924 7.83105L31.5615 7.30371L31.7461 8.12988C31.9043 8.78027 32.0977 9.23145 32.3262 9.4834C32.5254 9.70605 32.7949 9.81738 33.1348 9.81738C33.293 9.81738 33.4189 9.77051 33.5127 9.67676C33.6123 9.57715 33.6621 9.45117 33.6621 9.29883C33.6621 8.9707 33.542 8.625 33.3018 8.26172C33.2607 8.20312 33.1172 8.0127 32.8711 7.69043L33.4424 6.73242C33.6826 7.0957 33.8467 7.40918 33.9346 7.67285C34.0635 8.07129 34.1279 8.60156 34.1279 9.26367V11.373Z" fill="#E6E6E6"/>
<path id="Vector_4" d="M24.5742 11.373H19.5645V9.84375H23.9326C23.9326 9.15234 23.8506 8.625 23.6865 8.26172C23.5752 8.00977 23.2998 7.64648 22.8604 7.17188L23.5459 5.73926C23.9678 6.27246 24.2314 6.68848 24.3369 6.9873C24.4951 7.43848 24.5742 8.18555 24.5742 9.22852V11.373ZM24.5303 13.1309L23.8447 14.3965L22.4209 13.6406L23.0801 12.3838L24.5303 13.1309ZM22.5088 13.9219L21.8408 15.1963L20.417 14.458L21.0674 13.1836L22.5088 13.9219Z" fill="#E6E6E6"/>
<path id="Vector_5" d="M20.1797 11.373H15.8379V9.84375H20.1797V11.373Z" fill="#E6E6E6"/>
<path id="Vector_6" d="M16.4531 11.373H12.1113V9.84375H16.4531V11.373Z" fill="#E6E6E6"/>
<path id="Vector_7" d="M12.7266 11.373H8.38477V9.84375H12.7266V11.373Z" fill="#E6E6E6"/>
<path id="Vector_8" d="M5.50195 3.19043L4.8252 4.46484L3.41016 3.72656L4.06934 2.44336L5.50195 3.19043ZM8.99121 11.373H7.78711C7.07812 11.373 6.57422 11.2412 6.27539 10.9775C5.97656 10.7139 5.82715 10.2773 5.82715 9.66797C5.82715 9.43945 5.85645 9.15527 5.91504 8.81543C5.93848 8.68652 5.9707 8.5166 6.01172 8.30566C5.00977 8.61035 4.25391 8.87109 3.74414 9.08789C2.80664 9.48633 2.08008 9.9375 1.56445 10.4414C0.914062 11.0742 0.588867 11.7949 0.588867 12.6035C0.588867 13.8633 1.24512 14.8096 2.55762 15.4424C3.7002 15.9932 5.22656 16.2686 7.13672 16.2686H8.75391L8.80664 16.3652L6.82031 17.7627H6.31055C5.04492 17.7627 3.99316 17.6455 3.15527 17.4111C2.15332 17.1299 1.39453 16.6787 0.878906 16.0576C0.292969 15.3486 0 14.4111 0 13.2451C0 12.2432 0.249023 11.3672 0.74707 10.6172C1.13379 10.0312 1.69922 9.49512 2.44336 9.00879C2.66016 8.8623 3.26367 8.52539 4.25391 7.99805C4.01953 7.96875 3.77051 7.94531 3.50684 7.92773C3.24902 7.9043 3.01465 7.89258 2.80371 7.89258C2.21191 7.89258 1.73145 7.91895 1.3623 7.97168C1.23926 7.98926 0.855469 8.06836 0.210938 8.20898C0.410156 7.63477 0.618164 7.23633 0.834961 7.01367C1.32129 6.52148 2.08301 6.27539 3.12012 6.27539C3.68848 6.27539 4.30371 6.33105 4.96582 6.44238C5.62793 6.54785 6.18457 6.60059 6.63574 6.60059C6.93457 6.60059 7.22461 6.58887 7.50586 6.56543C7.79297 6.54199 8.0918 6.50977 8.40234 6.46875L8.05078 7.96289C7.81055 7.99219 7.53809 8.0332 7.2334 8.08594C7.04004 8.12109 6.77344 8.1709 6.43359 8.23535L6.41602 8.72754C6.41602 9.20801 6.5625 9.53027 6.85547 9.69434C7.03711 9.79395 7.34766 9.84375 7.78711 9.84375H8.99121V11.373Z" fill="#E6E6E6"/>
</g>
</svg>
